{
  "asset": {
    "copyright": "",
    "generator": "SharpGLTF 1.0.0",
    "version": "2.0"
  },
  "accessors": [
    {
      "name": "POSITION",
      "bufferView": 0,
      "componentType": 5126,
      "count": 195,
      "max": [
        -106.51360321044922,
        12.143799781799316,
        163.10960388183594
      ],
      "min": [
        -111.66264343261719,
        10.523495674133301,
        153.4012451171875
      ],
      "type": "VEC3"
    },
    {
      "name": "NORMAL",
      "bufferView": 0,
      "byteOffset": 12,
      "componentType": 5126,
      "count": 195,
      "max": [
        0.76717948913574219,
        0.99440401792526245,
        0.91821902990341187
      ],
      "min": [
        -0.91686362028121948,
        -0.17724810540676117,
        -0.97507584095001221
      ],
      "type": "VEC3"
    },
    {
      "name": "TEXCOORD_0",
      "bufferView": 0,
      "byteOffset": 24,
      "componentType": 5126,
      "count": 195,
      "max": [
        0.998046875,
        0.998046875
      ],
      "min": [
        0.001953125,
        0.759765625
      ],
      "type": "VEC2"
    },
    {
      "bufferView": 1,
      "componentType": 5123,
      "count": 543,
      "type": "SCALAR"
    }
  ],
  "bufferViews": [
    {
      "buffer": 0,
      "byteLength": 6240,
      "byteStride": 32,
      "target": 34962
    },
    {
      "buffer": 0,
      "byteLength": 1086,
      "byteOffset": 6240,
      "target": 34963
    }
  ],
  "buffers": [
    {
      "byteLength": 7328,
      "uri": "3060435073507076012213_LOD00.bin"
    }
  ],
  "images": [
    {
      "uri": "3060435073507076012213_LOD00.png"
    }
  ],
  "materials": [
    {
      "doubleSided": true,
      "pbrMetallicRoughness": {
        "baseColorTexture": {
          "index": 0
        },
        "metallicFactor": 0
      }
    }
  ],
  "meshes": [
    {
      "name": "3060435073507076012213_0",
      "primitives": [
        {
          "attributes": {
            "POSITION": 0,
            "NORMAL": 1,
            "TEXCOORD_0": 2
          },
          "indices": 3,
          "material": 0
        }
      ]
    }
  ],
  "nodes": [
    {
      "mesh": 0
    }
  ],
  "scene": 0,
  "scenes": [
    {
      "nodes": [
        0
      ]
    }
  ],
  "textures": [
    {
      "source": 0
    }
  ]
}