{
  "asset": {
    "copyright": "",
    "generator": "SharpGLTF 1.0.0",
    "version": "2.0"
  },
  "accessors": [
    {
      "name": "POSITION",
      "bufferView": 0,
      "componentType": 5126,
      "count": 249,
      "max": [
        -271.82858276367188,
        18.567310333251953,
        296.20480346679688
      ],
      "min": [
        -274.40328979492188,
        11.133618354797363,
        293.0162353515625
      ],
      "type": "VEC3"
    },
    {
      "name": "NORMAL",
      "bufferView": 0,
      "byteOffset": 12,
      "componentType": 5126,
      "count": 249,
      "max": [
        0.72440910339355469,
        0.9999840259552002,
        0.81829631328582764
      ],
      "min": [
        -0.98296719789505005,
        -0.92558044195175171,
        -0.99437409639358521
      ],
      "type": "VEC3"
    },
    {
      "name": "TEXCOORD_0",
      "bufferView": 0,
      "byteOffset": 24,
      "componentType": 5126,
      "count": 249,
      "max": [
        0.998046875,
        0.998046875
      ],
      "min": [
        0.001953125,
        0.697265625
      ],
      "type": "VEC2"
    },
    {
      "bufferView": 1,
      "componentType": 5123,
      "count": 597,
      "type": "SCALAR"
    }
  ],
  "bufferViews": [
    {
      "buffer": 0,
      "byteLength": 7968,
      "byteStride": 32,
      "target": 34962
    },
    {
      "buffer": 0,
      "byteLength": 1194,
      "byteOffset": 7968,
      "target": 34963
    }
  ],
  "buffers": [
    {
      "byteLength": 9164,
      "uri": "3060435073507076122023_LOD00.bin"
    }
  ],
  "images": [
    {
      "uri": "3060435073507076122023_LOD00.png"
    }
  ],
  "materials": [
    {
      "doubleSided": true,
      "pbrMetallicRoughness": {
        "baseColorTexture": {
          "index": 0
        },
        "metallicFactor": 0
      }
    }
  ],
  "meshes": [
    {
      "name": "3060435073507076122023_0",
      "primitives": [
        {
          "attributes": {
            "POSITION": 0,
            "NORMAL": 1,
            "TEXCOORD_0": 2
          },
          "indices": 3,
          "material": 0
        }
      ]
    }
  ],
  "nodes": [
    {
      "mesh": 0
    }
  ],
  "scene": 0,
  "scenes": [
    {
      "nodes": [
        0
      ]
    }
  ],
  "textures": [
    {
      "source": 0
    }
  ]
}