{
  "asset": {
    "copyright": "",
    "generator": "SharpGLTF 1.0.0",
    "version": "2.0"
  },
  "accessors": [
    {
      "name": "POSITION",
      "bufferView": 0,
      "componentType": 5126,
      "count": 1192,
      "max": [
        -248.32807922363281,
        19.752267837524414,
        429.43557739257813
      ],
      "min": [
        -257.1002197265625,
        10.460160255432129,
        419.8223876953125
      ],
      "type": "VEC3"
    },
    {
      "name": "NORMAL",
      "bufferView": 0,
      "byteOffset": 12,
      "componentType": 5126,
      "count": 1192,
      "max": [
        0.99486953020095825,
        0.99896562099456787,
        0.95142877101898193
      ],
      "min": [
        -0.99674445390701294,
        -0.83966374397277832,
        -0.97295206785202026
      ],
      "type": "VEC3"
    },
    {
      "name": "TEXCOORD_0",
      "bufferView": 0,
      "byteOffset": 24,
      "componentType": 5126,
      "count": 1192,
      "max": [
        0.998046875,
        0.9990234375
      ],
      "min": [
        0.001953125,
        0.0009765625
      ],
      "type": "VEC2"
    },
    {
      "bufferView": 1,
      "componentType": 5123,
      "count": 3009,
      "type": "SCALAR"
    },
    {
      "name": "POSITION",
      "bufferView": 0,
      "byteOffset": 38144,
      "componentType": 5126,
      "count": 75,
      "max": [
        -248.32817077636719,
        19.752267837524414,
        429.38775634765625
      ],
      "min": [
        -254.95492553710938,
        10.698431015014648,
        419.87014770507813
      ],
      "type": "VEC3"
    },
    {
      "name": "NORMAL",
      "bufferView": 0,
      "byteOffset": 38156,
      "componentType": 5126,
      "count": 75,
      "max": [
        0.94239670038223267,
        0.98832166194915771,
        0.73295223712921143
      ],
      "min": [
        -0.95396280288696289,
        -0.52431803941726685,
        -0.94748270511627197
      ],
      "type": "VEC3"
    },
    {
      "name": "TEXCOORD_0",
      "bufferView": 0,
      "byteOffset": 38168,
      "componentType": 5126,
      "count": 75,
      "max": [
        0.896484375,
        0.998046875
      ],
      "min": [
        0.001953125,
        0.869140625
      ],
      "type": "VEC2"
    },
    {
      "bufferView": 1,
      "byteOffset": 6018,
      "componentType": 5123,
      "count": 174,
      "type": "SCALAR"
    }
  ],
  "bufferViews": [
    {
      "buffer": 0,
      "byteLength": 40544,
      "byteStride": 32,
      "target": 34962
    },
    {
      "buffer": 0,
      "byteLength": 6366,
      "byteOffset": 40544,
      "target": 34963
    }
  ],
  "buffers": [
    {
      "byteLength": 46912,
      "uri": "3060435073507076213113_LOD00.bin"
    }
  ],
  "images": [
    {
      "uri": "3060435073507076213113_LOD00_0.png"
    },
    {
      "uri": "3060435073507076213113_LOD00_1.png"
    }
  ],
  "materials": [
    {
      "doubleSided": true,
      "pbrMetallicRoughness": {
        "baseColorTexture": {
          "index": 0
        },
        "metallicFactor": 0
      }
    },
    {
      "doubleSided": true,
      "pbrMetallicRoughness": {
        "baseColorTexture": {
          "index": 1
        },
        "metallicFactor": 0
      }
    }
  ],
  "meshes": [
    {
      "name": "3060435073507076213113_0",
      "primitives": [
        {
          "attributes": {
            "POSITION": 0,
            "NORMAL": 1,
            "TEXCOORD_0": 2
          },
          "indices": 3,
          "material": 0
        }
      ]
    },
    {
      "name": "3060435073507076213113_1",
      "primitives": [
        {
          "attributes": {
            "POSITION": 4,
            "NORMAL": 5,
            "TEXCOORD_0": 6
          },
          "indices": 7,
          "material": 1
        }
      ]
    }
  ],
  "nodes": [
    {
      "mesh": 0
    },
    {
      "mesh": 1
    }
  ],
  "scene": 0,
  "scenes": [
    {
      "nodes": [
        0,
        1
      ]
    }
  ],
  "textures": [
    {
      "source": 0
    },
    {
      "source": 1
    }
  ]
}