{
  "asset": {
    "copyright": "",
    "generator": "SharpGLTF 1.0.0",
    "version": "2.0"
  },
  "accessors": [
    {
      "name": "POSITION",
      "bufferView": 0,
      "componentType": 5126,
      "count": 113,
      "max": [
        -250.0924072265625,
        20.462203979492188,
        428.34124755859375
      ],
      "min": [
        -252.52371215820313,
        19.747209548950195,
        424.05819702148438
      ],
      "type": "VEC3"
    },
    {
      "name": "NORMAL",
      "bufferView": 0,
      "byteOffset": 12,
      "componentType": 5126,
      "count": 113,
      "max": [
        0.95395410060882568,
        0.9816213846206665,
        0.95370286703109741
      ],
      "min": [
        -0.89353477954864502,
        -0.016821438446640968,
        -0.73349487781524658
      ],
      "type": "VEC3"
    },
    {
      "name": "TEXCOORD_0",
      "bufferView": 0,
      "byteOffset": 24,
      "componentType": 5126,
      "count": 113,
      "max": [
        0.966796875,
        0.998046875
      ],
      "min": [
        0.001953125,
        0.884765625
      ],
      "type": "VEC2"
    },
    {
      "bufferView": 1,
      "componentType": 5123,
      "count": 237,
      "type": "SCALAR"
    }
  ],
  "bufferViews": [
    {
      "buffer": 0,
      "byteLength": 3616,
      "byteStride": 32,
      "target": 34962
    },
    {
      "buffer": 0,
      "byteLength": 474,
      "byteOffset": 3616,
      "target": 34963
    }
  ],
  "buffers": [
    {
      "byteLength": 4092,
      "uri": "3060435073507076213117_LOD00.bin"
    }
  ],
  "images": [
    {
      "uri": "3060435073507076213117_LOD00.png"
    }
  ],
  "materials": [
    {
      "doubleSided": true,
      "pbrMetallicRoughness": {
        "baseColorTexture": {
          "index": 0
        },
        "metallicFactor": 0
      }
    }
  ],
  "meshes": [
    {
      "name": "3060435073507076213117_0",
      "primitives": [
        {
          "attributes": {
            "POSITION": 0,
            "NORMAL": 1,
            "TEXCOORD_0": 2
          },
          "indices": 3,
          "material": 0
        }
      ]
    }
  ],
  "nodes": [
    {
      "mesh": 0
    }
  ],
  "scene": 0,
  "scenes": [
    {
      "nodes": [
        0
      ]
    }
  ],
  "textures": [
    {
      "source": 0
    }
  ]
}