{
  "asset": {
    "copyright": "",
    "generator": "SharpGLTF 1.0.0",
    "version": "2.0"
  },
  "accessors": [
    {
      "name": "POSITION",
      "bufferView": 0,
      "componentType": 5126,
      "count": 308,
      "max": [
        -224.70164489746094,
        10.619810104370117,
        191.55801391601563
      ],
      "min": [
        -236.66842651367188,
        9.3329029083251953,
        182.03958129882813
      ],
      "type": "VEC3"
    },
    {
      "name": "NORMAL",
      "bufferView": 0,
      "byteOffset": 12,
      "componentType": 5126,
      "count": 308,
      "max": [
        0.9967387318611145,
        0.99998456239700317,
        0.99999219179153442
      ],
      "min": [
        -0.76012969017028809,
        -0.45406422019004822,
        -0.99483633041381836
      ],
      "type": "VEC3"
    },
    {
      "name": "TEXCOORD_0",
      "bufferView": 0,
      "byteOffset": 24,
      "componentType": 5126,
      "count": 308,
      "max": [
        0.998046875,
        0.998046875
      ],
      "min": [
        0.001953125,
        0.017578125
      ],
      "type": "VEC2"
    },
    {
      "bufferView": 1,
      "componentType": 5123,
      "count": 891,
      "type": "SCALAR"
    }
  ],
  "bufferViews": [
    {
      "buffer": 0,
      "byteLength": 9856,
      "byteStride": 32,
      "target": 34962
    },
    {
      "buffer": 0,
      "byteLength": 1782,
      "byteOffset": 9856,
      "target": 34963
    }
  ],
  "buffers": [
    {
      "byteLength": 11640,
      "uri": "3060435073507072475545_LOD00.bin"
    }
  ],
  "images": [
    {
      "uri": "3060435073507072475545_LOD00.png"
    }
  ],
  "materials": [
    {
      "doubleSided": true,
      "pbrMetallicRoughness": {
        "baseColorTexture": {
          "index": 0
        },
        "metallicFactor": 0
      }
    }
  ],
  "meshes": [
    {
      "name": "3060435073507072475545_0",
      "primitives": [
        {
          "attributes": {
            "POSITION": 0,
            "NORMAL": 1,
            "TEXCOORD_0": 2
          },
          "indices": 3,
          "material": 0
        }
      ]
    }
  ],
  "nodes": [
    {
      "mesh": 0
    }
  ],
  "scene": 0,
  "scenes": [
    {
      "nodes": [
        0
      ]
    }
  ],
  "textures": [
    {
      "source": 0
    }
  ]
}