{
  "asset": {
    "copyright": "",
    "generator": "SharpGLTF 1.0.0",
    "version": "2.0"
  },
  "accessors": [
    {
      "name": "POSITION",
      "bufferView": 0,
      "componentType": 5126,
      "count": 350,
      "max": [
        -5.7213301658630371,
        10.721672058105469,
        29.924318313598633
      ],
      "min": [
        -11.967090606689453,
        9.292109489440918,
        23.690084457397461
      ],
      "type": "VEC3"
    },
    {
      "name": "NORMAL",
      "bufferView": 0,
      "byteOffset": 12,
      "componentType": 5126,
      "count": 350,
      "max": [
        0.99490064382553101,
        0.99998438358306885,
        0.9959864616394043
      ],
      "min": [
        -0.99490064382553101,
        -0.20822596549987793,
        -0.97295284271240234
      ],
      "type": "VEC3"
    },
    {
      "name": "TEXCOORD_0",
      "bufferView": 0,
      "byteOffset": 24,
      "componentType": 5126,
      "count": 350,
      "max": [
        0.998046875,
        0.998046875
      ],
      "min": [
        0.001953125,
        0.587890625
      ],
      "type": "VEC2"
    },
    {
      "bufferView": 1,
      "componentType": 5123,
      "count": 969,
      "type": "SCALAR"
    }
  ],
  "bufferViews": [
    {
      "buffer": 0,
      "byteLength": 11200,
      "byteStride": 32,
      "target": 34962
    },
    {
      "buffer": 0,
      "byteLength": 1938,
      "byteOffset": 11200,
      "target": 34963
    }
  ],
  "buffers": [
    {
      "byteLength": 13140,
      "uri": "3060435073507070667676_LOD00.bin"
    }
  ],
  "images": [
    {
      "uri": "3060435073507070667676_LOD00.png"
    }
  ],
  "materials": [
    {
      "doubleSided": true,
      "pbrMetallicRoughness": {
        "baseColorTexture": {
          "index": 0
        },
        "metallicFactor": 0
      }
    }
  ],
  "meshes": [
    {
      "name": "3060435073507070667676_0",
      "primitives": [
        {
          "attributes": {
            "POSITION": 0,
            "NORMAL": 1,
            "TEXCOORD_0": 2
          },
          "indices": 3,
          "material": 0
        }
      ]
    }
  ],
  "nodes": [
    {
      "mesh": 0
    }
  ],
  "scene": 0,
  "scenes": [
    {
      "nodes": [
        0
      ]
    }
  ],
  "textures": [
    {
      "source": 0
    }
  ]
}