{
  "asset": {
    "copyright": "",
    "generator": "SharpGLTF 1.0.0",
    "version": "2.0"
  },
  "accessors": [
    {
      "name": "POSITION",
      "bufferView": 0,
      "componentType": 5126,
      "count": 602,
      "max": [
        -212.74461364746094,
        19.814777374267578,
        77.351852416992188
      ],
      "min": [
        -224.71194458007813,
        10.474903106689453,
        67.738883972167969
      ],
      "type": "VEC3"
    },
    {
      "name": "NORMAL",
      "bufferView": 0,
      "byteOffset": 12,
      "componentType": 5126,
      "count": 602,
      "max": [
        0.99490314722061157,
        0.9999845027923584,
        0.99110281467437744
      ],
      "min": [
        -0.98980331420898438,
        -0.50700539350509644,
        -0.99914807081222534
      ],
      "type": "VEC3"
    },
    {
      "name": "TEXCOORD_0",
      "bufferView": 0,
      "byteOffset": 24,
      "componentType": 5126,
      "count": 602,
      "max": [
        0.998046875,
        0.9990234375
      ],
      "min": [
        0.001953125,
        0.0029296875
      ],
      "type": "VEC2"
    },
    {
      "bufferView": 1,
      "componentType": 5123,
      "count": 1503,
      "type": "SCALAR"
    },
    {
      "name": "POSITION",
      "bufferView": 0,
      "byteOffset": 19264,
      "componentType": 5126,
      "count": 160,
      "max": [
        -212.88763427734375,
        18.480497360229492,
        76.590400695800781
      ],
      "min": [
        -224.28277587890625,
        10.617574691772461,
        67.881675720214844
      ],
      "type": "VEC3"
    },
    {
      "name": "NORMAL",
      "bufferView": 0,
      "byteOffset": 19276,
      "componentType": 5126,
      "count": 160,
      "max": [
        0.99490314722061157,
        0.4064190685749054,
        0.82242769002914429
      ],
      "min": [
        -0.86262607574462891,
        -0.50700539350509644,
        -0.99486958980560303
      ],
      "type": "VEC3"
    },
    {
      "name": "TEXCOORD_0",
      "bufferView": 0,
      "byteOffset": 19288,
      "componentType": 5126,
      "count": 160,
      "max": [
        0.998046875,
        0.998046875
      ],
      "min": [
        0.001953125,
        0.232421875
      ],
      "type": "VEC2"
    },
    {
      "bufferView": 1,
      "byteOffset": 3006,
      "componentType": 5123,
      "count": 408,
      "type": "SCALAR"
    }
  ],
  "bufferViews": [
    {
      "buffer": 0,
      "byteLength": 24384,
      "byteStride": 32,
      "target": 34962
    },
    {
      "buffer": 0,
      "byteLength": 3822,
      "byteOffset": 24384,
      "target": 34963
    }
  ],
  "buffers": [
    {
      "byteLength": 28208,
      "uri": "3060435073507076011300_LOD00.bin"
    }
  ],
  "images": [
    {
      "uri": "3060435073507076011300_LOD00_0.png"
    },
    {
      "uri": "3060435073507076011300_LOD00_1.png"
    }
  ],
  "materials": [
    {
      "doubleSided": true,
      "pbrMetallicRoughness": {
        "baseColorTexture": {
          "index": 0
        },
        "metallicFactor": 0
      }
    },
    {
      "doubleSided": true,
      "pbrMetallicRoughness": {
        "baseColorTexture": {
          "index": 1
        },
        "metallicFactor": 0
      }
    }
  ],
  "meshes": [
    {
      "name": "3060435073507076011300_0",
      "primitives": [
        {
          "attributes": {
            "POSITION": 0,
            "NORMAL": 1,
            "TEXCOORD_0": 2
          },
          "indices": 3,
          "material": 0
        }
      ]
    },
    {
      "name": "3060435073507076011300_1",
      "primitives": [
        {
          "attributes": {
            "POSITION": 4,
            "NORMAL": 5,
            "TEXCOORD_0": 6
          },
          "indices": 7,
          "material": 1
        }
      ]
    }
  ],
  "nodes": [
    {
      "mesh": 0
    },
    {
      "mesh": 1
    }
  ],
  "scene": 0,
  "scenes": [
    {
      "nodes": [
        0,
        1
      ]
    }
  ],
  "textures": [
    {
      "source": 0
    },
    {
      "source": 1
    }
  ]
}