{
  "asset": {
    "copyright": "",
    "generator": "SharpGLTF 1.0.0",
    "version": "2.0"
  },
  "accessors": [
    {
      "name": "POSITION",
      "bufferView": 0,
      "componentType": 5126,
      "count": 135,
      "max": [
        -165.60337829589844,
        9.4259471893310547,
        315.22665405273438
      ],
      "min": [
        -177.42706298828125,
        8.948817253112793,
        305.70834350585938
      ],
      "type": "VEC3"
    },
    {
      "name": "NORMAL",
      "bufferView": 0,
      "byteOffset": 12,
      "componentType": 5126,
      "count": 135,
      "max": [
        0.089780732989311218,
        0.9999842643737793,
        0.045209303498268127
      ],
      "min": [
        -0.0041373227722942829,
        0.9959525465965271,
        -0.0042243758216500282
      ],
      "type": "VEC3"
    },
    {
      "name": "TEXCOORD_0",
      "bufferView": 0,
      "byteOffset": 24,
      "componentType": 5126,
      "count": 135,
      "max": [
        0.986328125,
        0.998046875
      ],
      "min": [
        0.001953125,
        0.212890625
      ],
      "type": "VEC2"
    },
    {
      "bufferView": 1,
      "componentType": 5123,
      "count": 465,
      "type": "SCALAR"
    }
  ],
  "bufferViews": [
    {
      "buffer": 0,
      "byteLength": 4320,
      "byteStride": 32,
      "target": 34962
    },
    {
      "buffer": 0,
      "byteLength": 930,
      "byteOffset": 4320,
      "target": 34963
    }
  ],
  "buffers": [
    {
      "byteLength": 5252,
      "uri": "3060435073507072477646_LOD00.bin"
    }
  ],
  "images": [
    {
      "uri": "3060435073507072477646_LOD00.png"
    }
  ],
  "materials": [
    {
      "doubleSided": true,
      "pbrMetallicRoughness": {
        "baseColorTexture": {
          "index": 0
        },
        "metallicFactor": 0
      }
    }
  ],
  "meshes": [
    {
      "name": "3060435073507072477646_0",
      "primitives": [
        {
          "attributes": {
            "POSITION": 0,
            "NORMAL": 1,
            "TEXCOORD_0": 2
          },
          "indices": 3,
          "material": 0
        }
      ]
    }
  ],
  "nodes": [
    {
      "mesh": 0
    }
  ],
  "scene": 0,
  "scenes": [
    {
      "nodes": [
        0
      ]
    }
  ],
  "textures": [
    {
      "source": 0
    }
  ]
}