{
  "asset": {
    "copyright": "",
    "generator": "SharpGLTF 1.0.0",
    "version": "2.0"
  },
  "accessors": [
    {
      "name": "POSITION",
      "bufferView": 0,
      "componentType": 5126,
      "count": 475,
      "max": [
        -23.637020111083984,
        19.849903106689453,
        462.3905029296875
      ],
      "min": [
        -35.650753021240234,
        11.415517807006836,
        457.7742919921875
      ],
      "type": "VEC3"
    },
    {
      "name": "NORMAL",
      "bufferView": 0,
      "byteOffset": 12,
      "componentType": 5126,
      "count": 475,
      "max": [
        0.99799269437789917,
        0.99595797061920166,
        0.98745512962341309
      ],
      "min": [
        -0.99674177169799805,
        -0.96251749992370605,
        -0.55918687582015991
      ],
      "type": "VEC3"
    },
    {
      "name": "TEXCOORD_0",
      "bufferView": 0,
      "byteOffset": 24,
      "componentType": 5126,
      "count": 475,
      "max": [
        0.998046875,
        0.998046875
      ],
      "min": [
        0.001953125,
        0.322265625
      ],
      "type": "VEC2"
    },
    {
      "bufferView": 1,
      "componentType": 5123,
      "count": 1350,
      "type": "SCALAR"
    }
  ],
  "bufferViews": [
    {
      "buffer": 0,
      "byteLength": 15200,
      "byteStride": 32,
      "target": 34962
    },
    {
      "buffer": 0,
      "byteLength": 2700,
      "byteOffset": 15200,
      "target": 34963
    }
  ],
  "buffers": [
    {
      "byteLength": 17900,
      "uri": "3060435073507076203302_LOD00.bin"
    }
  ],
  "images": [
    {
      "uri": "3060435073507076203302_LOD00.png"
    }
  ],
  "materials": [
    {
      "doubleSided": true,
      "pbrMetallicRoughness": {
        "baseColorTexture": {
          "index": 0
        },
        "metallicFactor": 0
      }
    }
  ],
  "meshes": [
    {
      "name": "3060435073507076203302_0",
      "primitives": [
        {
          "attributes": {
            "POSITION": 0,
            "NORMAL": 1,
            "TEXCOORD_0": 2
          },
          "indices": 3,
          "material": 0
        }
      ]
    }
  ],
  "nodes": [
    {
      "mesh": 0
    }
  ],
  "scene": 0,
  "scenes": [
    {
      "nodes": [
        0
      ]
    }
  ],
  "textures": [
    {
      "source": 0
    }
  ]
}