{
  "asset": {
    "copyright": "",
    "generator": "SharpGLTF 1.0.0",
    "version": "2.0"
  },
  "accessors": [
    {
      "name": "POSITION",
      "bufferView": 0,
      "componentType": 5126,
      "count": 641,
      "max": [
        -72.916313171386719,
        10.62453556060791,
        153.6434326171875
      ],
      "min": [
        -82.9283447265625,
        9.5283737182617188,
        143.98272705078125
      ],
      "type": "VEC3"
    },
    {
      "name": "NORMAL",
      "bufferView": 0,
      "byteOffset": 12,
      "componentType": 5126,
      "count": 641,
      "max": [
        0.98345357179641724,
        0.99998456239700317,
        0.88988256454467773
      ],
      "min": [
        -0.99915647506713867,
        -0.19000957906246185,
        -0.98824912309646606
      ],
      "type": "VEC3"
    },
    {
      "name": "TEXCOORD_0",
      "bufferView": 0,
      "byteOffset": 24,
      "componentType": 5126,
      "count": 641,
      "max": [
        0.998046875,
        0.998046875
      ],
      "min": [
        0.001953125,
        0.541015625
      ],
      "type": "VEC2"
    },
    {
      "bufferView": 1,
      "componentType": 5123,
      "count": 1845,
      "type": "SCALAR"
    }
  ],
  "bufferViews": [
    {
      "buffer": 0,
      "byteLength": 20512,
      "byteStride": 32,
      "target": 34962
    },
    {
      "buffer": 0,
      "byteLength": 3690,
      "byteOffset": 20512,
      "target": 34963
    }
  ],
  "buffers": [
    {
      "byteLength": 24204,
      "uri": "3060435073507072456644_LOD00.bin"
    }
  ],
  "images": [
    {
      "uri": "3060435073507072456644_LOD00.png"
    }
  ],
  "materials": [
    {
      "doubleSided": true,
      "pbrMetallicRoughness": {
        "baseColorTexture": {
          "index": 0
        },
        "metallicFactor": 0
      }
    }
  ],
  "meshes": [
    {
      "name": "3060435073507072456644_0",
      "primitives": [
        {
          "attributes": {
            "POSITION": 0,
            "NORMAL": 1,
            "TEXCOORD_0": 2
          },
          "indices": 3,
          "material": 0
        }
      ]
    }
  ],
  "nodes": [
    {
      "mesh": 0
    }
  ],
  "scene": 0,
  "scenes": [
    {
      "nodes": [
        0
      ]
    }
  ],
  "textures": [
    {
      "source": 0
    }
  ]
}