{
  "asset": {
    "copyright": "",
    "generator": "SharpGLTF 1.0.0",
    "version": "2.0"
  },
  "accessors": [
    {
      "name": "POSITION",
      "bufferView": 0,
      "componentType": 5126,
      "count": 600,
      "max": [
        -116.09342193603516,
        28.907148361206055,
        315.32110595703125
      ],
      "min": [
        -118.47734069824219,
        19.709831237792969,
        305.5650634765625
      ],
      "type": "VEC3"
    },
    {
      "name": "NORMAL",
      "bufferView": 0,
      "byteOffset": 12,
      "componentType": 5126,
      "count": 600,
      "max": [
        0.9999922513961792,
        0.40993407368659973,
        0.99931758642196655
      ],
      "min": [
        -0.63504505157470703,
        -0.43509837985038757,
        -0.99599111080169678
      ],
      "type": "VEC3"
    },
    {
      "name": "TEXCOORD_0",
      "bufferView": 0,
      "byteOffset": 24,
      "componentType": 5126,
      "count": 600,
      "max": [
        0.998046875,
        0.998046875
      ],
      "min": [
        0.001953125,
        0.044921875
      ],
      "type": "VEC2"
    },
    {
      "bufferView": 1,
      "componentType": 5123,
      "count": 1749,
      "type": "SCALAR"
    }
  ],
  "bufferViews": [
    {
      "buffer": 0,
      "byteLength": 19200,
      "byteStride": 32,
      "target": 34962
    },
    {
      "buffer": 0,
      "byteLength": 3498,
      "byteOffset": 19200,
      "target": 34963
    }
  ],
  "buffers": [
    {
      "byteLength": 22700,
      "uri": "3060435073507076032217_LOD00.bin"
    }
  ],
  "images": [
    {
      "uri": "3060435073507076032217_LOD00.png"
    }
  ],
  "materials": [
    {
      "doubleSided": true,
      "pbrMetallicRoughness": {
        "baseColorTexture": {
          "index": 0
        },
        "metallicFactor": 0
      }
    }
  ],
  "meshes": [
    {
      "name": "3060435073507076032217_0",
      "primitives": [
        {
          "attributes": {
            "POSITION": 0,
            "NORMAL": 1,
            "TEXCOORD_0": 2
          },
          "indices": 3,
          "material": 0
        }
      ]
    }
  ],
  "nodes": [
    {
      "mesh": 0
    }
  ],
  "scene": 0,
  "scenes": [
    {
      "nodes": [
        0
      ]
    }
  ],
  "textures": [
    {
      "source": 0
    }
  ]
}