{
  "asset": {
    "copyright": "",
    "generator": "SharpGLTF 1.0.0",
    "version": "2.0"
  },
  "accessors": [
    {
      "name": "POSITION",
      "bufferView": 0,
      "componentType": 5126,
      "count": 257,
      "max": [
        -260.165771484375,
        17.192388534545898,
        48.862003326416016
      ],
      "min": [
        -262.26358032226563,
        10.616326332092285,
        39.343975067138672
      ],
      "type": "VEC3"
    },
    {
      "name": "NORMAL",
      "bufferView": 0,
      "byteOffset": 12,
      "componentType": 5126,
      "count": 257,
      "max": [
        -0.14779984951019287,
        0.98900723457336426,
        0.54422163963317871
      ],
      "min": [
        -0.99932014942169189,
        -0.48144590854644775,
        -0.58830827474594116
      ],
      "type": "VEC3"
    },
    {
      "name": "TEXCOORD_0",
      "bufferView": 0,
      "byteOffset": 24,
      "componentType": 5126,
      "count": 257,
      "max": [
        0.982421875,
        0.998046875
      ],
      "min": [
        0.001953125,
        0.154296875
      ],
      "type": "VEC2"
    },
    {
      "bufferView": 1,
      "componentType": 5123,
      "count": 825,
      "type": "SCALAR"
    }
  ],
  "bufferViews": [
    {
      "buffer": 0,
      "byteLength": 8224,
      "byteStride": 32,
      "target": 34962
    },
    {
      "buffer": 0,
      "byteLength": 1650,
      "byteOffset": 8224,
      "target": 34963
    }
  ],
  "buffers": [
    {
      "byteLength": 9876,
      "uri": "3060435073507076100002_LOD00.bin"
    }
  ],
  "images": [
    {
      "uri": "3060435073507076100002_LOD00.png"
    }
  ],
  "materials": [
    {
      "doubleSided": true,
      "pbrMetallicRoughness": {
        "baseColorTexture": {
          "index": 0
        },
        "metallicFactor": 0
      }
    }
  ],
  "meshes": [
    {
      "name": "3060435073507076100002_0",
      "primitives": [
        {
          "attributes": {
            "POSITION": 0,
            "NORMAL": 1,
            "TEXCOORD_0": 2
          },
          "indices": 3,
          "material": 0
        }
      ]
    }
  ],
  "nodes": [
    {
      "mesh": 0
    }
  ],
  "scene": 0,
  "scenes": [
    {
      "nodes": [
        0
      ]
    }
  ],
  "textures": [
    {
      "source": 0
    }
  ]
}