{
  "asset": {
    "copyright": "",
    "generator": "SharpGLTF 1.0.0",
    "version": "2.0"
  },
  "accessors": [
    {
      "name": "POSITION",
      "bufferView": 0,
      "componentType": 5126,
      "count": 22,
      "max": [
        -189.00900268554688,
        19.762811660766602,
        267.23342895507813
      ],
      "min": [
        -189.24739074707031,
        19.476888656616211,
        266.47198486328125
      ],
      "type": "VEC3"
    },
    {
      "name": "NORMAL",
      "bufferView": 0,
      "byteOffset": 12,
      "componentType": 5126,
      "count": 22,
      "max": [
        -0.46322515606880188,
        0.84568226337432861,
        0.38943672180175781
      ],
      "min": [
        -0.86068093776702881,
        0.32797476649284363,
        -0.33769023418426514
      ],
      "type": "VEC3"
    },
    {
      "name": "TEXCOORD_0",
      "bufferView": 0,
      "byteOffset": 24,
      "componentType": 5126,
      "count": 22,
      "max": [
        0.064453125,
        0.998046875
      ],
      "min": [
        0.001953125,
        0.966796875
      ],
      "type": "VEC2"
    },
    {
      "bufferView": 1,
      "componentType": 5123,
      "count": 51,
      "type": "SCALAR"
    }
  ],
  "bufferViews": [
    {
      "buffer": 0,
      "byteLength": 704,
      "byteStride": 32,
      "target": 34962
    },
    {
      "buffer": 0,
      "byteLength": 102,
      "byteOffset": 704,
      "target": 34963
    }
  ],
  "buffers": [
    {
      "byteLength": 808,
      "uri": "3060435073507076033001_LOD00.bin"
    }
  ],
  "images": [
    {
      "uri": "3060435073507076033001_LOD00.png"
    }
  ],
  "materials": [
    {
      "doubleSided": true,
      "pbrMetallicRoughness": {
        "baseColorTexture": {
          "index": 0
        },
        "metallicFactor": 0
      }
    }
  ],
  "meshes": [
    {
      "name": "3060435073507076033001_0",
      "primitives": [
        {
          "attributes": {
            "POSITION": 0,
            "NORMAL": 1,
            "TEXCOORD_0": 2
          },
          "indices": 3,
          "material": 0
        }
      ]
    }
  ],
  "nodes": [
    {
      "mesh": 0
    }
  ],
  "scene": 0,
  "scenes": [
    {
      "nodes": [
        0
      ]
    }
  ],
  "textures": [
    {
      "source": 0
    }
  ]
}