{
  "asset": {
    "copyright": "",
    "generator": "SharpGLTF 1.0.0",
    "version": "2.0"
  },
  "accessors": [
    {
      "name": "POSITION",
      "bufferView": 0,
      "componentType": 5126,
      "count": 434,
      "max": [
        -106.41365814208984,
        47.189601898193359,
        426.90988159179688
      ],
      "min": [
        -118.33204650878906,
        37.897357940673828,
        419.86676025390625
      ],
      "type": "VEC3"
    },
    {
      "name": "NORMAL",
      "bufferView": 0,
      "byteOffset": 12,
      "componentType": 5126,
      "count": 434,
      "max": [
        0.51990538835525513,
        0.30165916681289673,
        0.97261583805084229
      ],
      "min": [
        -0.53241664171218872,
        -0.0053479862399399281,
        -0.99915099143981934
      ],
      "type": "VEC3"
    },
    {
      "name": "TEXCOORD_0",
      "bufferView": 0,
      "byteOffset": 24,
      "componentType": 5126,
      "count": 434,
      "max": [
        0.998046875,
        0.9990234375
      ],
      "min": [
        0.001953125,
        0.0205078125
      ],
      "type": "VEC2"
    },
    {
      "bufferView": 1,
      "componentType": 5123,
      "count": 1329,
      "type": "SCALAR"
    },
    {
      "name": "POSITION",
      "bufferView": 0,
      "byteOffset": 13888,
      "componentType": 5126,
      "count": 29,
      "max": [
        -113.27865600585938,
        47.189327239990234,
        424.62625122070313
      ],
      "min": [
        -118.33214569091797,
        42.614616394042969,
        422.43722534179688
      ],
      "type": "VEC3"
    },
    {
      "name": "NORMAL",
      "bufferView": 0,
      "byteOffset": 13900,
      "componentType": 5126,
      "count": 29,
      "max": [
        -0.0047691278159618378,
        0.25663813948631287,
        0.96979063749313354
      ],
      "min": [
        -0.53241664171218872,
        0.23529429733753204,
        0.80664080381393433
      ],
      "type": "VEC3"
    },
    {
      "name": "TEXCOORD_0",
      "bufferView": 0,
      "byteOffset": 13912,
      "componentType": 5126,
      "count": 29,
      "max": [
        0.392578125,
        0.998046875
      ],
      "min": [
        0.001953125,
        0.548828125
      ],
      "type": "VEC2"
    },
    {
      "bufferView": 1,
      "byteOffset": 2658,
      "componentType": 5123,
      "count": 99,
      "type": "SCALAR"
    }
  ],
  "bufferViews": [
    {
      "buffer": 0,
      "byteLength": 14816,
      "byteStride": 32,
      "target": 34962
    },
    {
      "buffer": 0,
      "byteLength": 2856,
      "byteOffset": 14816,
      "target": 34963
    }
  ],
  "buffers": [
    {
      "byteLength": 17672,
      "uri": "3060435073507076212057_LOD00.bin"
    }
  ],
  "images": [
    {
      "uri": "3060435073507076212057_LOD00_0.png"
    },
    {
      "uri": "3060435073507076212057_LOD00_1.png"
    }
  ],
  "materials": [
    {
      "doubleSided": true,
      "pbrMetallicRoughness": {
        "baseColorTexture": {
          "index": 0
        },
        "metallicFactor": 0
      }
    },
    {
      "doubleSided": true,
      "pbrMetallicRoughness": {
        "baseColorTexture": {
          "index": 1
        },
        "metallicFactor": 0
      }
    }
  ],
  "meshes": [
    {
      "name": "3060435073507076212057_0",
      "primitives": [
        {
          "attributes": {
            "POSITION": 0,
            "NORMAL": 1,
            "TEXCOORD_0": 2
          },
          "indices": 3,
          "material": 0
        }
      ]
    },
    {
      "name": "3060435073507076212057_1",
      "primitives": [
        {
          "attributes": {
            "POSITION": 4,
            "NORMAL": 5,
            "TEXCOORD_0": 6
          },
          "indices": 7,
          "material": 1
        }
      ]
    }
  ],
  "nodes": [
    {
      "mesh": 0
    },
    {
      "mesh": 1
    }
  ],
  "scene": 0,
  "scenes": [
    {
      "nodes": [
        0,
        1
      ]
    }
  ],
  "textures": [
    {
      "source": 0
    },
    {
      "source": 1
    }
  ]
}