{
  "asset": {
    "copyright": "",
    "generator": "SharpGLTF 1.0.0",
    "version": "2.0"
  },
  "accessors": [
    {
      "name": "POSITION",
      "bufferView": 0,
      "componentType": 5126,
      "count": 654,
      "max": [
        -23.638036727905273,
        10.624411582946777,
        172.66932678222656
      ],
      "min": [
        -35.747814178466797,
        9.814335823059082,
        163.00857543945313
      ],
      "type": "VEC3"
    },
    {
      "name": "NORMAL",
      "bufferView": 0,
      "byteOffset": 12,
      "componentType": 5126,
      "count": 654,
      "max": [
        0.95386642217636108,
        0.99998456239700317,
        0.86188000440597534
      ],
      "min": [
        -0.88090753555297852,
        0.27916839718818665,
        -0.85812181234359741
      ],
      "type": "VEC3"
    },
    {
      "name": "TEXCOORD_0",
      "bufferView": 0,
      "byteOffset": 24,
      "componentType": 5126,
      "count": 654,
      "max": [
        0.998046875,
        0.998046875
      ],
      "min": [
        0.001953125,
        0.478515625
      ],
      "type": "VEC2"
    },
    {
      "bufferView": 1,
      "componentType": 5123,
      "count": 1785,
      "type": "SCALAR"
    }
  ],
  "bufferViews": [
    {
      "buffer": 0,
      "byteLength": 20928,
      "byteStride": 32,
      "target": 34962
    },
    {
      "buffer": 0,
      "byteLength": 3570,
      "byteOffset": 20928,
      "target": 34963
    }
  ],
  "buffers": [
    {
      "byteLength": 24500,
      "uri": "3060435073507072447764_LOD00.bin"
    }
  ],
  "images": [
    {
      "uri": "3060435073507072447764_LOD00.png"
    }
  ],
  "materials": [
    {
      "doubleSided": true,
      "pbrMetallicRoughness": {
        "baseColorTexture": {
          "index": 0
        },
        "metallicFactor": 0
      }
    }
  ],
  "meshes": [
    {
      "name": "3060435073507072447764_0",
      "primitives": [
        {
          "attributes": {
            "POSITION": 0,
            "NORMAL": 1,
            "TEXCOORD_0": 2
          },
          "indices": 3,
          "material": 0
        }
      ]
    }
  ],
  "nodes": [
    {
      "mesh": 0
    }
  ],
  "scene": 0,
  "scenes": [
    {
      "nodes": [
        0
      ]
    }
  ],
  "textures": [
    {
      "source": 0
    }
  ]
}