{
  "asset": {
    "copyright": "",
    "generator": "SharpGLTF 1.0.0",
    "version": "2.0"
  },
  "accessors": [
    {
      "name": "POSITION",
      "bufferView": 0,
      "componentType": 5126,
      "count": 454,
      "max": [
        -212.73788452148438,
        19.763412475585938,
        239.12310791015625
      ],
      "min": [
        -215.83724975585938,
        10.566304206848145,
        229.50982666015625
      ],
      "type": "VEC3"
    },
    {
      "name": "NORMAL",
      "bufferView": 0,
      "byteOffset": 12,
      "componentType": 5126,
      "count": 454,
      "max": [
        0.27597099542617798,
        0.98343324661254883,
        0.95339065790176392
      ],
      "min": [
        -0.99999213218688965,
        -0.41786068677902222,
        -0.37575167417526245
      ],
      "type": "VEC3"
    },
    {
      "name": "TEXCOORD_0",
      "bufferView": 0,
      "byteOffset": 24,
      "componentType": 5126,
      "count": 454,
      "max": [
        0.998046875,
        0.998046875
      ],
      "min": [
        0.001953125,
        0.111328125
      ],
      "type": "VEC2"
    },
    {
      "bufferView": 1,
      "componentType": 5123,
      "count": 1434,
      "type": "SCALAR"
    }
  ],
  "bufferViews": [
    {
      "buffer": 0,
      "byteLength": 14528,
      "byteStride": 32,
      "target": 34962
    },
    {
      "buffer": 0,
      "byteLength": 2868,
      "byteOffset": 14528,
      "target": 34963
    }
  ],
  "buffers": [
    {
      "byteLength": 17396,
      "uri": "3060435073507076031302_LOD00.bin"
    }
  ],
  "images": [
    {
      "uri": "3060435073507076031302_LOD00.png"
    }
  ],
  "materials": [
    {
      "doubleSided": true,
      "pbrMetallicRoughness": {
        "baseColorTexture": {
          "index": 0
        },
        "metallicFactor": 0
      }
    }
  ],
  "meshes": [
    {
      "name": "3060435073507076031302_0",
      "primitives": [
        {
          "attributes": {
            "POSITION": 0,
            "NORMAL": 1,
            "TEXCOORD_0": 2
          },
          "indices": 3,
          "material": 0
        }
      ]
    }
  ],
  "nodes": [
    {
      "mesh": 0
    }
  ],
  "scene": 0,
  "scenes": [
    {
      "nodes": [
        0
      ]
    }
  ],
  "textures": [
    {
      "source": 0
    }
  ]
}