{
  "asset": {
    "copyright": "",
    "generator": "SharpGLTF 1.0.0",
    "version": "2.0"
  },
  "accessors": [
    {
      "name": "POSITION",
      "bufferView": 0,
      "componentType": 5126,
      "count": 164,
      "max": [
        -275.27224731445313,
        32.287246704101563,
        104.70460510253906
      ],
      "min": [
        -283.806640625,
        28.808341979980469,
        99.2320556640625
      ],
      "type": "VEC3"
    },
    {
      "name": "NORMAL",
      "bufferView": 0,
      "byteOffset": 12,
      "componentType": 5126,
      "count": 164,
      "max": [
        0.99600517749786377,
        0.95712196826934814,
        0.97128587961196899
      ],
      "min": [
        -0.99180054664611816,
        -0.63594973087310791,
        -0.9903826117515564
      ],
      "type": "VEC3"
    },
    {
      "name": "TEXCOORD_0",
      "bufferView": 0,
      "byteOffset": 24,
      "componentType": 5126,
      "count": 164,
      "max": [
        0.986328125,
        0.998046875
      ],
      "min": [
        0.001953125,
        0.763671875
      ],
      "type": "VEC2"
    },
    {
      "bufferView": 1,
      "componentType": 5123,
      "count": 429,
      "type": "SCALAR"
    }
  ],
  "bufferViews": [
    {
      "buffer": 0,
      "byteLength": 5248,
      "byteStride": 32,
      "target": 34962
    },
    {
      "buffer": 0,
      "byteLength": 858,
      "byteOffset": 5248,
      "target": 34963
    }
  ],
  "buffers": [
    {
      "byteLength": 6108,
      "uri": "3060435073507076100263_LOD00.bin"
    }
  ],
  "images": [
    {
      "uri": "3060435073507076100263_LOD00.png"
    }
  ],
  "materials": [
    {
      "doubleSided": true,
      "pbrMetallicRoughness": {
        "baseColorTexture": {
          "index": 0
        },
        "metallicFactor": 0
      }
    }
  ],
  "meshes": [
    {
      "name": "3060435073507076100263_0",
      "primitives": [
        {
          "attributes": {
            "POSITION": 0,
            "NORMAL": 1,
            "TEXCOORD_0": 2
          },
          "indices": 3,
          "material": 0
        }
      ]
    }
  ],
  "nodes": [
    {
      "mesh": 0
    }
  ],
  "scene": 0,
  "scenes": [
    {
      "nodes": [
        0
      ]
    }
  ],
  "textures": [
    {
      "source": 0
    }
  ]
}