{
  "asset": {
    "copyright": "",
    "generator": "SharpGLTF 1.0.0",
    "version": "2.0"
  },
  "accessors": [
    {
      "name": "POSITION",
      "bufferView": 0,
      "componentType": 5126,
      "count": 1108,
      "max": [
        -271.88827514648438,
        19.812088012695313,
        77.402603149414063
      ],
      "min": [
        -283.8079833984375,
        10.472291946411133,
        67.836898803710938
      ],
      "type": "VEC3"
    },
    {
      "name": "NORMAL",
      "bufferView": 0,
      "byteOffset": 12,
      "componentType": 5126,
      "count": 1108,
      "max": [
        0.99636709690093994,
        0.9999842643737793,
        0.99797898530960083
      ],
      "min": [
        -0.98344248533248901,
        -0.98935484886169434,
        -0.98335623741149902
      ],
      "type": "VEC3"
    },
    {
      "name": "TEXCOORD_0",
      "bufferView": 0,
      "byteOffset": 24,
      "componentType": 5126,
      "count": 1108,
      "max": [
        0.998046875,
        0.9990234375
      ],
      "min": [
        0.001953125,
        0.0009765625
      ],
      "type": "VEC2"
    },
    {
      "bufferView": 1,
      "componentType": 5123,
      "count": 2757,
      "type": "SCALAR"
    },
    {
      "name": "POSITION",
      "bufferView": 0,
      "byteOffset": 35456,
      "componentType": 5126,
      "count": 454,
      "max": [
        -271.84017944335938,
        19.764631271362305,
        77.401947021484375
      ],
      "min": [
        -283.80795288085938,
        10.472709655761719,
        67.884033203125
      ],
      "type": "VEC3"
    },
    {
      "name": "NORMAL",
      "bufferView": 0,
      "byteOffset": 35468,
      "componentType": 5126,
      "count": 454,
      "max": [
        0.99429088830947876,
        0.99998414516448975,
        0.99463868141174316
      ],
      "min": [
        -0.98344248533248901,
        -0.98935484886169434,
        -0.97128838300704956
      ],
      "type": "VEC3"
    },
    {
      "name": "TEXCOORD_0",
      "bufferView": 0,
      "byteOffset": 35480,
      "componentType": 5126,
      "count": 454,
      "max": [
        0.998046875,
        0.998046875
      ],
      "min": [
        0.001953125,
        0.232421875
      ],
      "type": "VEC2"
    },
    {
      "bufferView": 1,
      "byteOffset": 5514,
      "componentType": 5123,
      "count": 1161,
      "type": "SCALAR"
    }
  ],
  "bufferViews": [
    {
      "buffer": 0,
      "byteLength": 49984,
      "byteStride": 32,
      "target": 34962
    },
    {
      "buffer": 0,
      "byteLength": 7836,
      "byteOffset": 49984,
      "target": 34963
    }
  ],
  "buffers": [
    {
      "byteLength": 57820,
      "uri": "3060435073507076100201_LOD00.bin"
    }
  ],
  "images": [
    {
      "uri": "3060435073507076100201_LOD00_0.png"
    },
    {
      "uri": "3060435073507076100201_LOD00_1.png"
    }
  ],
  "materials": [
    {
      "doubleSided": true,
      "pbrMetallicRoughness": {
        "baseColorTexture": {
          "index": 0
        },
        "metallicFactor": 0
      }
    },
    {
      "doubleSided": true,
      "pbrMetallicRoughness": {
        "baseColorTexture": {
          "index": 1
        },
        "metallicFactor": 0
      }
    }
  ],
  "meshes": [
    {
      "name": "3060435073507076100201_0",
      "primitives": [
        {
          "attributes": {
            "POSITION": 0,
            "NORMAL": 1,
            "TEXCOORD_0": 2
          },
          "indices": 3,
          "material": 0
        }
      ]
    },
    {
      "name": "3060435073507076100201_1",
      "primitives": [
        {
          "attributes": {
            "POSITION": 4,
            "NORMAL": 5,
            "TEXCOORD_0": 6
          },
          "indices": 7,
          "material": 1
        }
      ]
    }
  ],
  "nodes": [
    {
      "mesh": 0
    },
    {
      "mesh": 1
    }
  ],
  "scene": 0,
  "scenes": [
    {
      "nodes": [
        0,
        1
      ]
    }
  ],
  "textures": [
    {
      "source": 0
    },
    {
      "source": 1
    }
  ]
}