{
  "asset": {
    "copyright": "",
    "generator": "SharpGLTF 1.0.0",
    "version": "2.0"
  },
  "accessors": [
    {
      "name": "POSITION",
      "bufferView": 0,
      "componentType": 5126,
      "count": 665,
      "max": [
        -11.96196460723877,
        10.619050979614258,
        315.36660766601563
      ],
      "min": [
        -23.785346984863281,
        7.7598385810852051,
        305.56304931640625
      ],
      "type": "VEC3"
    },
    {
      "name": "NORMAL",
      "bufferView": 0,
      "byteOffset": 12,
      "componentType": 5126,
      "count": 665,
      "max": [
        0.75888073444366455,
        0.99998462200164795,
        0.98745536804199219
      ],
      "min": [
        -0.97145390510559082,
        -0.57150501012802124,
        -0.99634534120559692
      ],
      "type": "VEC3"
    },
    {
      "name": "TEXCOORD_0",
      "bufferView": 0,
      "byteOffset": 24,
      "componentType": 5126,
      "count": 665,
      "max": [
        0.998046875,
        0.9990234375
      ],
      "min": [
        0.001953125,
        0.0068359375
      ],
      "type": "VEC2"
    },
    {
      "bufferView": 1,
      "componentType": 5123,
      "count": 1740,
      "type": "SCALAR"
    },
    {
      "name": "POSITION",
      "bufferView": 0,
      "byteOffset": 21280,
      "componentType": 5126,
      "count": 25,
      "max": [
        -17.8736572265625,
        10.618964195251465,
        313.1298828125
      ],
      "min": [
        -22.688812255859375,
        8.2840108871459961,
        310.46481323242188
      ],
      "type": "VEC3"
    },
    {
      "name": "NORMAL",
      "bufferView": 0,
      "byteOffset": 21292,
      "componentType": 5126,
      "count": 25,
      "max": [
        0.26562705636024475,
        0.99778282642364502,
        0.0045160586014389992
      ],
      "min": [
        -0.34451350569725037,
        -0.57150501012802124,
        -0.97128242254257202
      ],
      "type": "VEC3"
    },
    {
      "name": "TEXCOORD_0",
      "bufferView": 0,
      "byteOffset": 21304,
      "componentType": 5126,
      "count": 25,
      "max": [
        0.759765625,
        0.998046875
      ],
      "min": [
        0.001953125,
        0.806640625
      ],
      "type": "VEC2"
    },
    {
      "bufferView": 1,
      "byteOffset": 3480,
      "componentType": 5123,
      "count": 51,
      "type": "SCALAR"
    }
  ],
  "bufferViews": [
    {
      "buffer": 0,
      "byteLength": 22080,
      "byteStride": 32,
      "target": 34962
    },
    {
      "buffer": 0,
      "byteLength": 3582,
      "byteOffset": 22080,
      "target": 34963
    }
  ],
  "buffers": [
    {
      "byteLength": 25664,
      "uri": "3060435073507072467657_LOD00.bin"
    }
  ],
  "images": [
    {
      "uri": "3060435073507072467657_LOD00_0.png"
    },
    {
      "uri": "3060435073507072467657_LOD00_1.png"
    }
  ],
  "materials": [
    {
      "doubleSided": true,
      "pbrMetallicRoughness": {
        "baseColorTexture": {
          "index": 0
        },
        "metallicFactor": 0
      }
    },
    {
      "doubleSided": true,
      "pbrMetallicRoughness": {
        "baseColorTexture": {
          "index": 1
        },
        "metallicFactor": 0
      }
    }
  ],
  "meshes": [
    {
      "name": "3060435073507072467657_0",
      "primitives": [
        {
          "attributes": {
            "POSITION": 0,
            "NORMAL": 1,
            "TEXCOORD_0": 2
          },
          "indices": 3,
          "material": 0
        }
      ]
    },
    {
      "name": "3060435073507072467657_1",
      "primitives": [
        {
          "attributes": {
            "POSITION": 4,
            "NORMAL": 5,
            "TEXCOORD_0": 6
          },
          "indices": 7,
          "material": 1
        }
      ]
    }
  ],
  "nodes": [
    {
      "mesh": 0
    },
    {
      "mesh": 1
    }
  ],
  "scene": 0,
  "scenes": [
    {
      "nodes": [
        0,
        1
      ]
    }
  ],
  "textures": [
    {
      "source": 0
    },
    {
      "source": 1
    }
  ]
}