{
  "asset": {
    "copyright": "",
    "generator": "SharpGLTF 1.0.0",
    "version": "2.0"
  },
  "accessors": [
    {
      "name": "POSITION",
      "bufferView": 0,
      "componentType": 5126,
      "count": 547,
      "max": [
        -212.79322814941406,
        38.198822021484375,
        67.886253356933594
      ],
      "min": [
        -224.04542541503906,
        28.811418533325195,
        58.22589111328125
      ],
      "type": "VEC3"
    },
    {
      "name": "NORMAL",
      "bufferView": 0,
      "byteOffset": 12,
      "componentType": 5126,
      "count": 547,
      "max": [
        0.85755723714828491,
        0.40641877055168152,
        0.88845175504684448
      ],
      "min": [
        -0.89039897918701172,
        -0.4210340678691864,
        -0.89753520488739014
      ],
      "type": "VEC3"
    },
    {
      "name": "TEXCOORD_0",
      "bufferView": 0,
      "byteOffset": 24,
      "componentType": 5126,
      "count": 547,
      "max": [
        0.998046875,
        0.9990234375
      ],
      "min": [
        0.001953125,
        0.0009765625
      ],
      "type": "VEC2"
    },
    {
      "bufferView": 1,
      "componentType": 5123,
      "count": 1500,
      "type": "SCALAR"
    },
    {
      "name": "POSITION",
      "bufferView": 0,
      "byteOffset": 17504,
      "componentType": 5126,
      "count": 47,
      "max": [
        -212.88877868652344,
        37.2935791015625,
        65.221199035644531
      ],
      "min": [
        -220.32673645019531,
        33.481208801269531,
        58.368579864501953
      ],
      "type": "VEC3"
    },
    {
      "name": "NORMAL",
      "bufferView": 0,
      "byteOffset": 17516,
      "componentType": 5126,
      "count": 47,
      "max": [
        0.75656282901763916,
        -0.13079993426799774,
        -0.54689192771911621
      ],
      "min": [
        0.40982618927955627,
        -0.4210340678691864,
        -0.89753520488739014
      ],
      "type": "VEC3"
    },
    {
      "name": "TEXCOORD_0",
      "bufferView": 0,
      "byteOffset": 17528,
      "componentType": 5126,
      "count": 47,
      "max": [
        0.490234375,
        0.998046875
      ],
      "min": [
        0.001953125,
        0.775390625
      ],
      "type": "VEC2"
    },
    {
      "bufferView": 1,
      "byteOffset": 3000,
      "componentType": 5123,
      "count": 135,
      "type": "SCALAR"
    }
  ],
  "bufferViews": [
    {
      "buffer": 0,
      "byteLength": 19008,
      "byteStride": 32,
      "target": 34962
    },
    {
      "buffer": 0,
      "byteLength": 3270,
      "byteOffset": 19008,
      "target": 34963
    }
  ],
  "buffers": [
    {
      "byteLength": 22280,
      "uri": "3060435073507076011162_LOD00.bin"
    }
  ],
  "images": [
    {
      "uri": "3060435073507076011162_LOD00_0.png"
    },
    {
      "uri": "3060435073507076011162_LOD00_1.png"
    }
  ],
  "materials": [
    {
      "doubleSided": true,
      "pbrMetallicRoughness": {
        "baseColorTexture": {
          "index": 0
        },
        "metallicFactor": 0
      }
    },
    {
      "doubleSided": true,
      "pbrMetallicRoughness": {
        "baseColorTexture": {
          "index": 1
        },
        "metallicFactor": 0
      }
    }
  ],
  "meshes": [
    {
      "name": "3060435073507076011162_0",
      "primitives": [
        {
          "attributes": {
            "POSITION": 0,
            "NORMAL": 1,
            "TEXCOORD_0": 2
          },
          "indices": 3,
          "material": 0
        }
      ]
    },
    {
      "name": "3060435073507076011162_1",
      "primitives": [
        {
          "attributes": {
            "POSITION": 4,
            "NORMAL": 5,
            "TEXCOORD_0": 6
          },
          "indices": 7,
          "material": 1
        }
      ]
    }
  ],
  "nodes": [
    {
      "mesh": 0
    },
    {
      "mesh": 1
    }
  ],
  "scene": 0,
  "scenes": [
    {
      "nodes": [
        0,
        1
      ]
    }
  ],
  "textures": [
    {
      "source": 0
    },
    {
      "source": 1
    }
  ]
}