{
  "asset": {
    "copyright": "",
    "generator": "SharpGLTF 1.0.0",
    "version": "2.0"
  },
  "accessors": [
    {
      "name": "POSITION",
      "bufferView": 0,
      "componentType": 5126,
      "count": 186,
      "max": [
        -189.2366943359375,
        10.038496017456055,
        419.87222290039063
      ],
      "min": [
        -201.0601806640625,
        8.9898643493652344,
        410.35385131835938
      ],
      "type": "VEC3"
    },
    {
      "name": "NORMAL",
      "bufferView": 0,
      "byteOffset": 12,
      "componentType": 5126,
      "count": 186,
      "max": [
        0.59606564044952393,
        0.9999847412109375,
        0.19019095599651337
      ],
      "min": [
        -0.35676053166389465,
        0.78008538484573364,
        -0.53601479530334473
      ],
      "type": "VEC3"
    },
    {
      "name": "TEXCOORD_0",
      "bufferView": 0,
      "byteOffset": 24,
      "componentType": 5126,
      "count": 186,
      "max": [
        0.998046875,
        0.998046875
      ],
      "min": [
        0.001953125,
        0.083984375
      ],
      "type": "VEC2"
    },
    {
      "bufferView": 1,
      "componentType": 5123,
      "count": 630,
      "type": "SCALAR"
    }
  ],
  "bufferViews": [
    {
      "buffer": 0,
      "byteLength": 5952,
      "byteStride": 32,
      "target": 34962
    },
    {
      "buffer": 0,
      "byteLength": 1260,
      "byteOffset": 5952,
      "target": 34963
    }
  ],
  "buffers": [
    {
      "byteLength": 7212,
      "uri": "3060435073507072657454_LOD00.bin"
    }
  ],
  "images": [
    {
      "uri": "3060435073507072657454_LOD00.png"
    }
  ],
  "materials": [
    {
      "doubleSided": true,
      "pbrMetallicRoughness": {
        "baseColorTexture": {
          "index": 0
        },
        "metallicFactor": 0
      }
    }
  ],
  "meshes": [
    {
      "name": "3060435073507072657454_0",
      "primitives": [
        {
          "attributes": {
            "POSITION": 0,
            "NORMAL": 1,
            "TEXCOORD_0": 2
          },
          "indices": 3,
          "material": 0
        }
      ]
    }
  ],
  "nodes": [
    {
      "mesh": 0
    }
  ],
  "scene": 0,
  "scenes": [
    {
      "nodes": [
        0
      ]
    }
  ],
  "textures": [
    {
      "source": 0
    }
  ]
}