{
  "asset": {
    "copyright": "",
    "generator": "SharpGLTF 1.0.0",
    "version": "2.0"
  },
  "accessors": [
    {
      "name": "POSITION",
      "bufferView": 0,
      "componentType": 5126,
      "count": 214,
      "max": [
        -11.866931915283203,
        23.339794158935547,
        48.998310089111328
      ],
      "min": [
        -15.395063400268555,
        19.718233108520508,
        42.240550994873047
      ],
      "type": "VEC3"
    },
    {
      "name": "NORMAL",
      "bufferView": 0,
      "byteOffset": 12,
      "componentType": 5126,
      "count": 214,
      "max": [
        0.37693017721176147,
        0.99998432397842407,
        0.55921781063079834
      ],
      "min": [
        -0.92512565851211548,
        -0.49296757578849792,
        -0.96362966299057007
      ],
      "type": "VEC3"
    },
    {
      "name": "TEXCOORD_0",
      "bufferView": 0,
      "byteOffset": 24,
      "componentType": 5126,
      "count": 214,
      "max": [
        0.998046875,
        0.998046875
      ],
      "min": [
        0.001953125,
        0.673828125
      ],
      "type": "VEC2"
    },
    {
      "bufferView": 1,
      "componentType": 5123,
      "count": 603,
      "type": "SCALAR"
    }
  ],
  "bufferViews": [
    {
      "buffer": 0,
      "byteLength": 6848,
      "byteStride": 32,
      "target": 34962
    },
    {
      "buffer": 0,
      "byteLength": 1206,
      "byteOffset": 6848,
      "target": 34963
    }
  ],
  "buffers": [
    {
      "byteLength": 8056,
      "uri": "3060435073507076001017_LOD00.bin"
    }
  ],
  "images": [
    {
      "uri": "3060435073507076001017_LOD00.png"
    }
  ],
  "materials": [
    {
      "doubleSided": true,
      "pbrMetallicRoughness": {
        "baseColorTexture": {
          "index": 0
        },
        "metallicFactor": 0
      }
    }
  ],
  "meshes": [
    {
      "name": "3060435073507076001017_0",
      "primitives": [
        {
          "attributes": {
            "POSITION": 0,
            "NORMAL": 1,
            "TEXCOORD_0": 2
          },
          "indices": 3,
          "material": 0
        }
      ]
    }
  ],
  "nodes": [
    {
      "mesh": 0
    }
  ],
  "scene": 0,
  "scenes": [
    {
      "nodes": [
        0
      ]
    }
  ],
  "textures": [
    {
      "source": 0
    }
  ]
}