{
  "asset": {
    "copyright": "",
    "generator": "SharpGLTF 1.0.0",
    "version": "2.0"
  },
  "accessors": [
    {
      "name": "POSITION",
      "bufferView": 0,
      "componentType": 5126,
      "count": 288,
      "max": [
        -274.7904052734375,
        10.713480949401855,
        191.56040954589844
      ],
      "min": [
        -283.94403076171875,
        9.2359800338745117,
        182.04212951660156
      ],
      "type": "VEC3"
    },
    {
      "name": "NORMAL",
      "bufferView": 0,
      "byteOffset": 12,
      "componentType": 5126,
      "count": 288,
      "max": [
        0.96030539274215698,
        0.99998456239700317,
        0.89753907918930054
      ],
      "min": [
        -0.99799275398254395,
        -0.43515259027481079,
        -0.43305295705795288
      ],
      "type": "VEC3"
    },
    {
      "name": "TEXCOORD_0",
      "bufferView": 0,
      "byteOffset": 24,
      "componentType": 5126,
      "count": 288,
      "max": [
        0.998046875,
        0.998046875
      ],
      "min": [
        0.001953125,
        0.259765625
      ],
      "type": "VEC2"
    },
    {
      "bufferView": 1,
      "componentType": 5123,
      "count": 861,
      "type": "SCALAR"
    }
  ],
  "bufferViews": [
    {
      "buffer": 0,
      "byteLength": 9216,
      "byteStride": 32,
      "target": 34962
    },
    {
      "buffer": 0,
      "byteLength": 1722,
      "byteOffset": 9216,
      "target": 34963
    }
  ],
  "buffers": [
    {
      "byteLength": 10940,
      "uri": "3060435073507072564445_LOD00.bin"
    }
  ],
  "images": [
    {
      "uri": "3060435073507072564445_LOD00.png"
    }
  ],
  "materials": [
    {
      "doubleSided": true,
      "pbrMetallicRoughness": {
        "baseColorTexture": {
          "index": 0
        },
        "metallicFactor": 0
      }
    }
  ],
  "meshes": [
    {
      "name": "3060435073507072564445_0",
      "primitives": [
        {
          "attributes": {
            "POSITION": 0,
            "NORMAL": 1,
            "TEXCOORD_0": 2
          },
          "indices": 3,
          "material": 0
        }
      ]
    }
  ],
  "nodes": [
    {
      "mesh": 0
    }
  ],
  "scene": 0,
  "scenes": [
    {
      "nodes": [
        0
      ]
    }
  ],
  "textures": [
    {
      "source": 0
    }
  ]
}