{
  "asset": {
    "copyright": "",
    "generator": "SharpGLTF 1.0.0",
    "version": "2.0"
  },
  "accessors": [
    {
      "name": "POSITION",
      "bufferView": 0,
      "componentType": 5126,
      "count": 311,
      "max": [
        -23.781440734863281,
        10.769144058227539,
        58.368679046630859
      ],
      "min": [
        -35.605453491210938,
        8.6247892379760742,
        50.468818664550781
      ],
      "type": "VEC3"
    },
    {
      "name": "NORMAL",
      "bufferView": 0,
      "byteOffset": 12,
      "componentType": 5126,
      "count": 311,
      "max": [
        0.3908744752407074,
        0.99998456239700317,
        0.99817067384719849
      ],
      "min": [
        -0.70211827754974365,
        -0.48209449648857117,
        -0.14748555421829224
      ],
      "type": "VEC3"
    },
    {
      "name": "TEXCOORD_0",
      "bufferView": 0,
      "byteOffset": 24,
      "componentType": 5126,
      "count": 311,
      "max": [
        0.998046875,
        0.998046875
      ],
      "min": [
        0.001953125,
        0.236328125
      ],
      "type": "VEC2"
    },
    {
      "bufferView": 1,
      "componentType": 5123,
      "count": 927,
      "type": "SCALAR"
    }
  ],
  "bufferViews": [
    {
      "buffer": 0,
      "byteLength": 9952,
      "byteStride": 32,
      "target": 34962
    },
    {
      "buffer": 0,
      "byteLength": 1854,
      "byteOffset": 9952,
      "target": 34963
    }
  ],
  "buffers": [
    {
      "byteLength": 11808,
      "uri": "3060435073507072445564_LOD00.bin"
    }
  ],
  "images": [
    {
      "uri": "3060435073507072445564_LOD00.png"
    }
  ],
  "materials": [
    {
      "doubleSided": true,
      "pbrMetallicRoughness": {
        "baseColorTexture": {
          "index": 0
        },
        "metallicFactor": 0
      }
    }
  ],
  "meshes": [
    {
      "name": "3060435073507072445564_0",
      "primitives": [
        {
          "attributes": {
            "POSITION": 0,
            "NORMAL": 1,
            "TEXCOORD_0": 2
          },
          "indices": 3,
          "material": 0
        }
      ]
    }
  ],
  "nodes": [
    {
      "mesh": 0
    }
  ],
  "scene": 0,
  "scenes": [
    {
      "nodes": [
        0
      ]
    }
  ],
  "textures": [
    {
      "source": 0
    }
  ]
}