{
  "asset": {
    "copyright": "",
    "generator": "SharpGLTF 1.0.0",
    "version": "2.0"
  },
  "accessors": [
    {
      "name": "POSITION",
      "bufferView": 0,
      "componentType": 5126,
      "count": 322,
      "max": [
        -47.370555877685547,
        10.621594429016113,
        248.77471923828125
      ],
      "min": [
        -59.289512634277344,
        9.5733861923217773,
        239.11395263671875
      ],
      "type": "VEC3"
    },
    {
      "name": "NORMAL",
      "bufferView": 0,
      "byteOffset": 12,
      "componentType": 5126,
      "count": 322,
      "max": [
        0.76709115505218506,
        0.99998462200164795,
        0.17740122973918915
      ],
      "min": [
        -0.44585388898849487,
        0.49150967597961426,
        -0.60559755563735962
      ],
      "type": "VEC3"
    },
    {
      "name": "TEXCOORD_0",
      "bufferView": 0,
      "byteOffset": 24,
      "componentType": 5126,
      "count": 322,
      "max": [
        0.982421875,
        0.998046875
      ],
      "min": [
        0.001953125,
        0.025390625
      ],
      "type": "VEC2"
    },
    {
      "bufferView": 1,
      "componentType": 5123,
      "count": 1029,
      "type": "SCALAR"
    }
  ],
  "bufferViews": [
    {
      "buffer": 0,
      "byteLength": 10304,
      "byteStride": 32,
      "target": 34962
    },
    {
      "buffer": 0,
      "byteLength": 2058,
      "byteOffset": 10304,
      "target": 34963
    }
  ],
  "buffers": [
    {
      "byteLength": 12364,
      "uri": "3060435073507072465774_LOD00.bin"
    }
  ],
  "images": [
    {
      "uri": "3060435073507072465774_LOD00.png"
    }
  ],
  "materials": [
    {
      "doubleSided": true,
      "pbrMetallicRoughness": {
        "baseColorTexture": {
          "index": 0
        },
        "metallicFactor": 0
      }
    }
  ],
  "meshes": [
    {
      "name": "3060435073507072465774_0",
      "primitives": [
        {
          "attributes": {
            "POSITION": 0,
            "NORMAL": 1,
            "TEXCOORD_0": 2
          },
          "indices": 3,
          "material": 0
        }
      ]
    }
  ],
  "nodes": [
    {
      "mesh": 0
    }
  ],
  "scene": 0,
  "scenes": [
    {
      "nodes": [
        0
      ]
    }
  ],
  "textures": [
    {
      "source": 0
    }
  ]
}