{
  "asset": {
    "copyright": "",
    "generator": "SharpGLTF 1.0.0",
    "version": "2.0"
  },
  "accessors": [
    {
      "name": "POSITION",
      "bufferView": 0,
      "componentType": 5126,
      "count": 431,
      "max": [
        -35.456985473632813,
        10.624371528625488,
        172.66934204101563
      ],
      "min": [
        -47.423717498779297,
        9.432978630065918,
        163.00863647460938
      ],
      "type": "VEC3"
    },
    {
      "name": "NORMAL",
      "bufferView": 0,
      "byteOffset": 12,
      "componentType": 5126,
      "count": 431,
      "max": [
        0.62288296222686768,
        0.99998456239700317,
        0.73355215787887573
      ],
      "min": [
        -0.86601680517196655,
        0.47107669711112976,
        -0.87998056411743164
      ],
      "type": "VEC3"
    },
    {
      "name": "TEXCOORD_0",
      "bufferView": 0,
      "byteOffset": 24,
      "componentType": 5126,
      "count": 431,
      "max": [
        0.998046875,
        0.998046875
      ],
      "min": [
        0.001953125,
        0.646484375
      ],
      "type": "VEC2"
    },
    {
      "bufferView": 1,
      "componentType": 5123,
      "count": 1305,
      "type": "SCALAR"
    }
  ],
  "bufferViews": [
    {
      "buffer": 0,
      "byteLength": 13792,
      "byteStride": 32,
      "target": 34962
    },
    {
      "buffer": 0,
      "byteLength": 2610,
      "byteOffset": 13792,
      "target": 34963
    }
  ],
  "buffers": [
    {
      "byteLength": 16404,
      "uri": "3060435073507072447765_LOD00.bin"
    }
  ],
  "images": [
    {
      "uri": "3060435073507072447765_LOD00.png"
    }
  ],
  "materials": [
    {
      "doubleSided": true,
      "pbrMetallicRoughness": {
        "baseColorTexture": {
          "index": 0
        },
        "metallicFactor": 0
      }
    }
  ],
  "meshes": [
    {
      "name": "3060435073507072447765_0",
      "primitives": [
        {
          "attributes": {
            "POSITION": 0,
            "NORMAL": 1,
            "TEXCOORD_0": 2
          },
          "indices": 3,
          "material": 0
        }
      ]
    }
  ],
  "nodes": [
    {
      "mesh": 0
    }
  ],
  "scene": 0,
  "scenes": [
    {
      "nodes": [
        0
      ]
    }
  ],
  "textures": [
    {
      "source": 0
    }
  ]
}