{
  "asset": {
    "copyright": "",
    "generator": "SharpGLTF 1.0.0",
    "version": "2.0"
  },
  "accessors": [
    {
      "name": "POSITION",
      "bufferView": 0,
      "componentType": 5126,
      "count": 235,
      "max": [
        -153.79316711425781,
        22.527891159057617,
        41.100715637207031
      ],
      "min": [
        -161.46931457519531,
        19.764060974121094,
        39.196983337402344
      ],
      "type": "VEC3"
    },
    {
      "name": "NORMAL",
      "bufferView": 0,
      "byteOffset": 12,
      "componentType": 5126,
      "count": 235,
      "max": [
        0.96386969089508057,
        0.98670899868011475,
        0.99526166915893555
      ],
      "min": [
        -0.93216496706008911,
        -0.63475275039672852,
        -0.41843554377555847
      ],
      "type": "VEC3"
    },
    {
      "name": "TEXCOORD_0",
      "bufferView": 0,
      "byteOffset": 24,
      "componentType": 5126,
      "count": 235,
      "max": [
        0.974609375,
        0.998046875
      ],
      "min": [
        0.001953125,
        0.701171875
      ],
      "type": "VEC2"
    },
    {
      "bufferView": 1,
      "componentType": 5123,
      "count": 609,
      "type": "SCALAR"
    }
  ],
  "bufferViews": [
    {
      "buffer": 0,
      "byteLength": 7520,
      "byteStride": 32,
      "target": 34962
    },
    {
      "buffer": 0,
      "byteLength": 1218,
      "byteOffset": 7520,
      "target": 34963
    }
  ],
  "buffers": [
    {
      "byteLength": 8740,
      "uri": "3060435073507076010117_LOD00.bin"
    }
  ],
  "images": [
    {
      "uri": "3060435073507076010117_LOD00.png"
    }
  ],
  "materials": [
    {
      "doubleSided": true,
      "pbrMetallicRoughness": {
        "baseColorTexture": {
          "index": 0
        },
        "metallicFactor": 0
      }
    }
  ],
  "meshes": [
    {
      "name": "3060435073507076010117_0",
      "primitives": [
        {
          "attributes": {
            "POSITION": 0,
            "NORMAL": 1,
            "TEXCOORD_0": 2
          },
          "indices": 3,
          "material": 0
        }
      ]
    }
  ],
  "nodes": [
    {
      "mesh": 0
    }
  ],
  "scene": 0,
  "scenes": [
    {
      "nodes": [
        0
      ]
    }
  ],
  "textures": [
    {
      "source": 0
    }
  ]
}