{
  "asset": {
    "copyright": "",
    "generator": "SharpGLTF 1.0.0",
    "version": "2.0"
  },
  "accessors": [
    {
      "name": "POSITION",
      "bufferView": 0,
      "componentType": 5126,
      "count": 1270,
      "max": [
        -118.19317626953125,
        19.769832611083984,
        10.804210662841797
      ],
      "min": [
        -127.49015045166016,
        10.477585792541504,
        1.1910929679870605
      ],
      "type": "VEC3"
    },
    {
      "name": "NORMAL",
      "bufferView": 0,
      "byteOffset": 12,
      "componentType": 5126,
      "count": 1270,
      "max": [
        0.9993177056312561,
        0.99595123529434204,
        0.99898266792297363
      ],
      "min": [
        -0.99818050861358643,
        -0.99121612310409546,
        -0.99176478385925293
      ],
      "type": "VEC3"
    },
    {
      "name": "TEXCOORD_0",
      "bufferView": 0,
      "byteOffset": 24,
      "componentType": 5126,
      "count": 1270,
      "max": [
        0.998046875,
        0.9990234375
      ],
      "min": [
        0.001953125,
        0.0009765625
      ],
      "type": "VEC2"
    },
    {
      "bufferView": 1,
      "componentType": 5123,
      "count": 3069,
      "type": "SCALAR"
    },
    {
      "name": "POSITION",
      "bufferView": 0,
      "byteOffset": 40640,
      "componentType": 5126,
      "count": 312,
      "max": [
        -118.33606719970703,
        19.76978874206543,
        10.85167121887207
      ],
      "min": [
        -126.91800689697266,
        10.620523452758789,
        1.2861582040786743
      ],
      "type": "VEC3"
    },
    {
      "name": "NORMAL",
      "bufferView": 0,
      "byteOffset": 40652,
      "componentType": 5126,
      "count": 312,
      "max": [
        0.99047344923019409,
        0.99440598487854004,
        0.99817126989364624
      ],
      "min": [
        -0.99799263477325439,
        -0.99121612310409546,
        -0.97999286651611328
      ],
      "type": "VEC3"
    },
    {
      "name": "TEXCOORD_0",
      "bufferView": 0,
      "byteOffset": 40664,
      "componentType": 5126,
      "count": 312,
      "max": [
        0.998046875,
        0.998046875
      ],
      "min": [
        0.001953125,
        0.298828125
      ],
      "type": "VEC2"
    },
    {
      "bufferView": 1,
      "byteOffset": 6138,
      "componentType": 5123,
      "count": 729,
      "type": "SCALAR"
    }
  ],
  "bufferViews": [
    {
      "buffer": 0,
      "byteLength": 50624,
      "byteStride": 32,
      "target": 34962
    },
    {
      "buffer": 0,
      "byteLength": 7596,
      "byteOffset": 50624,
      "target": 34963
    }
  ],
  "buffers": [
    {
      "byteLength": 58220,
      "uri": "3060435073507074232302_LOD00.bin"
    }
  ],
  "images": [
    {
      "uri": "3060435073507074232302_LOD00_0.png"
    },
    {
      "uri": "3060435073507074232302_LOD00_1.png"
    }
  ],
  "materials": [
    {
      "doubleSided": true,
      "pbrMetallicRoughness": {
        "baseColorTexture": {
          "index": 0
        },
        "metallicFactor": 0
      }
    },
    {
      "doubleSided": true,
      "pbrMetallicRoughness": {
        "baseColorTexture": {
          "index": 1
        },
        "metallicFactor": 0
      }
    }
  ],
  "meshes": [
    {
      "name": "3060435073507074232302_0",
      "primitives": [
        {
          "attributes": {
            "POSITION": 0,
            "NORMAL": 1,
            "TEXCOORD_0": 2
          },
          "indices": 3,
          "material": 0
        }
      ]
    },
    {
      "name": "3060435073507074232302_1",
      "primitives": [
        {
          "attributes": {
            "POSITION": 4,
            "NORMAL": 5,
            "TEXCOORD_0": 6
          },
          "indices": 7,
          "material": 1
        }
      ]
    }
  ],
  "nodes": [
    {
      "mesh": 0
    },
    {
      "mesh": 1
    }
  ],
  "scene": 0,
  "scenes": [
    {
      "nodes": [
        0,
        1
      ]
    }
  ],
  "textures": [
    {
      "source": 0
    },
    {
      "source": 1
    }
  ]
}