{
  "asset": {
    "copyright": "",
    "generator": "SharpGLTF 1.0.0",
    "version": "2.0"
  },
  "accessors": [
    {
      "name": "POSITION",
      "bufferView": 0,
      "componentType": 5126,
      "count": 35,
      "max": [
        -130.10771179199219,
        27.862363815307617,
        210.67630004882813
      ],
      "min": [
        -130.29844665527344,
        25.813325881958008,
        210.01005554199219
      ],
      "type": "VEC3"
    },
    {
      "name": "NORMAL",
      "bufferView": 0,
      "byteOffset": 12,
      "componentType": 5126,
      "count": 35,
      "max": [
        0.99466067552566528,
        0.15012679994106293,
        -0.044350333511829376
      ],
      "min": [
        0.85696834325790405,
        -0.4350912868976593,
        -0.39674714207649231
      ],
      "type": "VEC3"
    },
    {
      "name": "TEXCOORD_0",
      "bufferView": 0,
      "byteOffset": 24,
      "componentType": 5126,
      "count": 35,
      "max": [
        0.220703125,
        0.998046875
      ],
      "min": [
        0.001953125,
        0.951171875
      ],
      "type": "VEC2"
    },
    {
      "bufferView": 1,
      "componentType": 5123,
      "count": 99,
      "type": "SCALAR"
    }
  ],
  "bufferViews": [
    {
      "buffer": 0,
      "byteLength": 1120,
      "byteStride": 32,
      "target": 34962
    },
    {
      "buffer": 0,
      "byteLength": 198,
      "byteOffset": 1120,
      "target": 34963
    }
  ],
  "buffers": [
    {
      "byteLength": 1320,
      "uri": "3060435073507076030124_LOD00.bin"
    }
  ],
  "images": [
    {
      "uri": "3060435073507076030124_LOD00.png"
    }
  ],
  "materials": [
    {
      "doubleSided": true,
      "pbrMetallicRoughness": {
        "baseColorTexture": {
          "index": 0
        },
        "metallicFactor": 0
      }
    }
  ],
  "meshes": [
    {
      "name": "3060435073507076030124_0",
      "primitives": [
        {
          "attributes": {
            "POSITION": 0,
            "NORMAL": 1,
            "TEXCOORD_0": 2
          },
          "indices": 3,
          "material": 0
        }
      ]
    }
  ],
  "nodes": [
    {
      "mesh": 0
    }
  ],
  "scene": 0,
  "scenes": [
    {
      "nodes": [
        0
      ]
    }
  ],
  "textures": [
    {
      "source": 0
    }
  ]
}