{
  "asset": {
    "copyright": "",
    "generator": "SharpGLTF 1.0.0",
    "version": "2.0"
  },
  "accessors": [
    {
      "name": "POSITION",
      "bufferView": 0,
      "componentType": 5126,
      "count": 281,
      "max": [
        -106.37115478515625,
        11.429512023925781,
        139.0386962890625
      ],
      "min": [
        -117.05069732666016,
        10.476568222045898,
        134.32748413085938
      ],
      "type": "VEC3"
    },
    {
      "name": "NORMAL",
      "bufferView": 0,
      "byteOffset": 12,
      "componentType": 5126,
      "count": 281,
      "max": [
        0.99915516376495361,
        0.99998444318771362,
        0.96011650562286377
      ],
      "min": [
        -0.98830336332321167,
        -0.46824342012405396,
        -0.97876721620559692
      ],
      "type": "VEC3"
    },
    {
      "name": "TEXCOORD_0",
      "bufferView": 0,
      "byteOffset": 24,
      "componentType": 5126,
      "count": 281,
      "max": [
        0.994140625,
        0.998046875
      ],
      "min": [
        0.001953125,
        0.865234375
      ],
      "type": "VEC2"
    },
    {
      "bufferView": 1,
      "componentType": 5123,
      "count": 789,
      "type": "SCALAR"
    }
  ],
  "bufferViews": [
    {
      "buffer": 0,
      "byteLength": 8992,
      "byteStride": 32,
      "target": 34962
    },
    {
      "buffer": 0,
      "byteLength": 1578,
      "byteOffset": 8992,
      "target": 34963
    }
  ],
  "buffers": [
    {
      "byteLength": 10572,
      "uri": "3060435073507076012033_LOD00.bin"
    }
  ],
  "images": [
    {
      "uri": "3060435073507076012033_LOD00.png"
    }
  ],
  "materials": [
    {
      "doubleSided": true,
      "pbrMetallicRoughness": {
        "baseColorTexture": {
          "index": 0
        },
        "metallicFactor": 0
      }
    }
  ],
  "meshes": [
    {
      "name": "3060435073507076012033_0",
      "primitives": [
        {
          "attributes": {
            "POSITION": 0,
            "NORMAL": 1,
            "TEXCOORD_0": 2
          },
          "indices": 3,
          "material": 0
        }
      ]
    }
  ],
  "nodes": [
    {
      "mesh": 0
    }
  ],
  "scene": 0,
  "scenes": [
    {
      "nodes": [
        0
      ]
    }
  ],
  "textures": [
    {
      "source": 0
    }
  ]
}