{
  "asset": {
    "copyright": "",
    "generator": "SharpGLTF 1.0.0",
    "version": "2.0"
  },
  "accessors": [
    {
      "name": "POSITION",
      "bufferView": 0,
      "componentType": 5126,
      "count": 924,
      "max": [
        -47.321685791015625,
        19.805522918701172,
        410.35614013671875
      ],
      "min": [
        -59.240135192871094,
        10.513843536376953,
        400.74288940429688
      ],
      "type": "VEC3"
    },
    {
      "name": "NORMAL",
      "bufferView": 0,
      "byteOffset": 12,
      "componentType": 5126,
      "count": 924,
      "max": [
        0.99637031555175781,
        0.99998468160629272,
        0.97397935390472412
      ],
      "min": [
        -0.99637186527252197,
        -0.84001362323760986,
        -0.99999243021011353
      ],
      "type": "VEC3"
    },
    {
      "name": "TEXCOORD_0",
      "bufferView": 0,
      "byteOffset": 24,
      "componentType": 5126,
      "count": 924,
      "max": [
        0.998046875,
        0.9990234375
      ],
      "min": [
        0.001953125,
        0.0009765625
      ],
      "type": "VEC2"
    },
    {
      "bufferView": 1,
      "componentType": 5123,
      "count": 2481,
      "type": "SCALAR"
    },
    {
      "name": "POSITION",
      "bufferView": 0,
      "byteOffset": 29568,
      "componentType": 5126,
      "count": 117,
      "max": [
        -47.416965484619141,
        19.758308410644531,
        409.023681640625
      ],
      "min": [
        -59.240135192871094,
        10.561396598815918,
        400.83761596679688
      ],
      "type": "VEC3"
    },
    {
      "name": "NORMAL",
      "bufferView": 0,
      "byteOffset": 29580,
      "componentType": 5126,
      "count": 117,
      "max": [
        0.96386939287185669,
        0.99897396564483643,
        0.97397935390472412
      ],
      "min": [
        -0.99486380815505981,
        -0.51491713523864746,
        -0.99634486436843872
      ],
      "type": "VEC3"
    },
    {
      "name": "TEXCOORD_0",
      "bufferView": 0,
      "byteOffset": 29592,
      "componentType": 5126,
      "count": 117,
      "max": [
        0.998046875,
        0.998046875
      ],
      "min": [
        0.001953125,
        0.728515625
      ],
      "type": "VEC2"
    },
    {
      "bufferView": 1,
      "byteOffset": 4962,
      "componentType": 5123,
      "count": 345,
      "type": "SCALAR"
    }
  ],
  "bufferViews": [
    {
      "buffer": 0,
      "byteLength": 33312,
      "byteStride": 32,
      "target": 34962
    },
    {
      "buffer": 0,
      "byteLength": 5652,
      "byteOffset": 33312,
      "target": 34963
    }
  ],
  "buffers": [
    {
      "byteLength": 38964,
      "uri": "3060435073507076201332_LOD00.bin"
    }
  ],
  "images": [
    {
      "uri": "3060435073507076201332_LOD00_0.png"
    },
    {
      "uri": "3060435073507076201332_LOD00_1.png"
    }
  ],
  "materials": [
    {
      "doubleSided": true,
      "pbrMetallicRoughness": {
        "baseColorTexture": {
          "index": 0
        },
        "metallicFactor": 0
      }
    },
    {
      "doubleSided": true,
      "pbrMetallicRoughness": {
        "baseColorTexture": {
          "index": 1
        },
        "metallicFactor": 0
      }
    }
  ],
  "meshes": [
    {
      "name": "3060435073507076201332_0",
      "primitives": [
        {
          "attributes": {
            "POSITION": 0,
            "NORMAL": 1,
            "TEXCOORD_0": 2
          },
          "indices": 3,
          "material": 0
        }
      ]
    },
    {
      "name": "3060435073507076201332_1",
      "primitives": [
        {
          "attributes": {
            "POSITION": 4,
            "NORMAL": 5,
            "TEXCOORD_0": 6
          },
          "indices": 7,
          "material": 1
        }
      ]
    }
  ],
  "nodes": [
    {
      "mesh": 0
    },
    {
      "mesh": 1
    }
  ],
  "scene": 0,
  "scenes": [
    {
      "nodes": [
        0,
        1
      ]
    }
  ],
  "textures": [
    {
      "source": 0
    },
    {
      "source": 1
    }
  ]
}