{
  "asset": {
    "copyright": "",
    "generator": "SharpGLTF 1.0.0",
    "version": "2.0"
  },
  "accessors": [
    {
      "name": "POSITION",
      "bufferView": 0,
      "componentType": 5126,
      "count": 138,
      "max": [
        -82.732917785644531,
        11.429630279541016,
        149.74134826660156
      ],
      "min": [
        -94.127593994140625,
        10.52423095703125,
        143.88778686523438
      ],
      "type": "VEC3"
    },
    {
      "name": "NORMAL",
      "bufferView": 0,
      "byteOffset": 12,
      "componentType": 5126,
      "count": 138,
      "max": [
        0.96214586496353149,
        0.9126056432723999,
        0.99039006233215332
      ],
      "min": [
        -0.99179637432098389,
        -0.44371142983436584,
        -0.82239270210266113
      ],
      "type": "VEC3"
    },
    {
      "name": "TEXCOORD_0",
      "bufferView": 0,
      "byteOffset": 24,
      "componentType": 5126,
      "count": 138,
      "max": [
        0.986328125,
        0.998046875
      ],
      "min": [
        0.001953125,
        0.880859375
      ],
      "type": "VEC2"
    },
    {
      "bufferView": 1,
      "componentType": 5123,
      "count": 363,
      "type": "SCALAR"
    }
  ],
  "bufferViews": [
    {
      "buffer": 0,
      "byteLength": 4416,
      "byteStride": 32,
      "target": 34962
    },
    {
      "buffer": 0,
      "byteLength": 726,
      "byteOffset": 4416,
      "target": 34963
    }
  ],
  "buffers": [
    {
      "byteLength": 5144,
      "uri": "3060435073507076012201_LOD00.bin"
    }
  ],
  "images": [
    {
      "uri": "3060435073507076012201_LOD00.png"
    }
  ],
  "materials": [
    {
      "doubleSided": true,
      "pbrMetallicRoughness": {
        "baseColorTexture": {
          "index": 0
        },
        "metallicFactor": 0
      }
    }
  ],
  "meshes": [
    {
      "name": "3060435073507076012201_0",
      "primitives": [
        {
          "attributes": {
            "POSITION": 0,
            "NORMAL": 1,
            "TEXCOORD_0": 2
          },
          "indices": 3,
          "material": 0
        }
      ]
    }
  ],
  "nodes": [
    {
      "mesh": 0
    }
  ],
  "scene": 0,
  "scenes": [
    {
      "nodes": [
        0
      ]
    }
  ],
  "textures": [
    {
      "source": 0
    }
  ]
}