{
  "asset": {
    "copyright": "",
    "generator": "SharpGLTF 1.0.0",
    "version": "2.0"
  },
  "accessors": [
    {
      "name": "POSITION",
      "bufferView": 0,
      "componentType": 5126,
      "count": 1061,
      "max": [
        -23.63703727722168,
        26.135398864746094,
        457.92227172851563
      ],
      "min": [
        -35.603157043457031,
        19.606880187988281,
        448.40390014648438
      ],
      "type": "VEC3"
    },
    {
      "name": "NORMAL",
      "bufferView": 0,
      "byteOffset": 12,
      "componentType": 5126,
      "count": 1061,
      "max": [
        0.99898642301559448,
        0.99998468160629272,
        0.99482834339141846
      ],
      "min": [
        -0.99674171209335327,
        -0.50321447849273682,
        -0.9948352575302124
      ],
      "type": "VEC3"
    },
    {
      "name": "TEXCOORD_0",
      "bufferView": 0,
      "byteOffset": 24,
      "componentType": 5126,
      "count": 1061,
      "max": [
        0.998046875,
        0.9990234375
      ],
      "min": [
        0.001953125,
        0.0009765625
      ],
      "type": "VEC2"
    },
    {
      "bufferView": 1,
      "componentType": 5123,
      "count": 2652,
      "type": "SCALAR"
    },
    {
      "name": "POSITION",
      "bufferView": 0,
      "byteOffset": 33952,
      "componentType": 5126,
      "count": 202,
      "max": [
        -23.827724456787109,
        25.802053451538086,
        457.92218017578125
      ],
      "min": [
        -35.603137969970703,
        19.749839782714844,
        448.4039306640625
      ],
      "type": "VEC3"
    },
    {
      "name": "NORMAL",
      "bufferView": 0,
      "byteOffset": 33964,
      "componentType": 5126,
      "count": 202,
      "max": [
        0.96214526891708374,
        0.99597054719924927,
        0.9890931248664856
      ],
      "min": [
        -0.99093431234359741,
        -0.50321447849273682,
        -0.91867601871490479
      ],
      "type": "VEC3"
    },
    {
      "name": "TEXCOORD_0",
      "bufferView": 0,
      "byteOffset": 33976,
      "componentType": 5126,
      "count": 202,
      "max": [
        0.998046875,
        0.998046875
      ],
      "min": [
        0.001953125,
        0.611328125
      ],
      "type": "VEC2"
    },
    {
      "bufferView": 1,
      "byteOffset": 5304,
      "componentType": 5123,
      "count": 516,
      "type": "SCALAR"
    }
  ],
  "bufferViews": [
    {
      "buffer": 0,
      "byteLength": 40416,
      "byteStride": 32,
      "target": 34962
    },
    {
      "buffer": 0,
      "byteLength": 6336,
      "byteOffset": 40416,
      "target": 34963
    }
  ],
  "buffers": [
    {
      "byteLength": 46752,
      "uri": "3060435073507076203304_LOD00.bin"
    }
  ],
  "images": [
    {
      "uri": "3060435073507076203304_LOD00_0.png"
    },
    {
      "uri": "3060435073507076203304_LOD00_1.png"
    }
  ],
  "materials": [
    {
      "doubleSided": true,
      "pbrMetallicRoughness": {
        "baseColorTexture": {
          "index": 0
        },
        "metallicFactor": 0
      }
    },
    {
      "doubleSided": true,
      "pbrMetallicRoughness": {
        "baseColorTexture": {
          "index": 1
        },
        "metallicFactor": 0
      }
    }
  ],
  "meshes": [
    {
      "name": "3060435073507076203304_0",
      "primitives": [
        {
          "attributes": {
            "POSITION": 0,
            "NORMAL": 1,
            "TEXCOORD_0": 2
          },
          "indices": 3,
          "material": 0
        }
      ]
    },
    {
      "name": "3060435073507076203304_1",
      "primitives": [
        {
          "attributes": {
            "POSITION": 4,
            "NORMAL": 5,
            "TEXCOORD_0": 6
          },
          "indices": 7,
          "material": 1
        }
      ]
    }
  ],
  "nodes": [
    {
      "mesh": 0
    },
    {
      "mesh": 1
    }
  ],
  "scene": 0,
  "scenes": [
    {
      "nodes": [
        0,
        1
      ]
    }
  ],
  "textures": [
    {
      "source": 0
    },
    {
      "source": 1
    }
  ]
}