{
  "asset": {
    "copyright": "",
    "generator": "SharpGLTF 1.0.0",
    "version": "2.0"
  },
  "accessors": [
    {
      "name": "POSITION",
      "bufferView": 0,
      "componentType": 5126,
      "count": 401,
      "max": [
        -201.02337646484375,
        56.345382690429688,
        39.346752166748047
      ],
      "min": [
        -213.0382080078125,
        47.148162841796875,
        35.920013427734375
      ],
      "type": "VEC3"
    },
    {
      "name": "NORMAL",
      "bufferView": 0,
      "byteOffset": 12,
      "componentType": 5126,
      "count": 401,
      "max": [
        0.56739544868469238,
        0.20688623189926147,
        0.99999219179153442
      ],
      "min": [
        -0.58290749788284302,
        -0.16902944445610046,
        -0.99526125192642212
      ],
      "type": "VEC3"
    },
    {
      "name": "TEXCOORD_0",
      "bufferView": 0,
      "byteOffset": 24,
      "componentType": 5126,
      "count": 401,
      "max": [
        0.998046875,
        0.9990234375
      ],
      "min": [
        0.001953125,
        0.0419921875
      ],
      "type": "VEC2"
    },
    {
      "bufferView": 1,
      "componentType": 5123,
      "count": 1299,
      "type": "SCALAR"
    },
    {
      "name": "POSITION",
      "bufferView": 0,
      "byteOffset": 12832,
      "componentType": 5126,
      "count": 42,
      "max": [
        -201.02362060546875,
        56.345382690429688,
        39.108352661132813
      ],
      "min": [
        -206.60189819335938,
        51.770648956298828,
        37.728382110595703
      ],
      "type": "VEC3"
    },
    {
      "name": "NORMAL",
      "bufferView": 0,
      "byteOffset": 12844,
      "componentType": 5126,
      "count": 42,
      "max": [
        0.097470514476299286,
        0.0049634175375103951,
        0.99915140867233276
      ],
      "min": [
        -0.34040257334709167,
        -0.16902944445610046,
        0.93176686763763428
      ],
      "type": "VEC3"
    },
    {
      "name": "TEXCOORD_0",
      "bufferView": 0,
      "byteOffset": 12856,
      "componentType": 5126,
      "count": 42,
      "max": [
        0.400390625,
        0.998046875
      ],
      "min": [
        0.001953125,
        0.615234375
      ],
      "type": "VEC2"
    },
    {
      "bufferView": 1,
      "byteOffset": 2598,
      "componentType": 5123,
      "count": 144,
      "type": "SCALAR"
    }
  ],
  "bufferViews": [
    {
      "buffer": 0,
      "byteLength": 14176,
      "byteStride": 32,
      "target": 34962
    },
    {
      "buffer": 0,
      "byteLength": 2886,
      "byteOffset": 14176,
      "target": 34963
    }
  ],
  "buffers": [
    {
      "byteLength": 17064,
      "uri": "3060435073507076011411_LOD00.bin"
    }
  ],
  "images": [
    {
      "uri": "3060435073507076011411_LOD00_0.png"
    },
    {
      "uri": "3060435073507076011411_LOD00_1.png"
    }
  ],
  "materials": [
    {
      "doubleSided": true,
      "pbrMetallicRoughness": {
        "baseColorTexture": {
          "index": 0
        },
        "metallicFactor": 0
      }
    },
    {
      "doubleSided": true,
      "pbrMetallicRoughness": {
        "baseColorTexture": {
          "index": 1
        },
        "metallicFactor": 0
      }
    }
  ],
  "meshes": [
    {
      "name": "3060435073507076011411_0",
      "primitives": [
        {
          "attributes": {
            "POSITION": 0,
            "NORMAL": 1,
            "TEXCOORD_0": 2
          },
          "indices": 3,
          "material": 0
        }
      ]
    },
    {
      "name": "3060435073507076011411_1",
      "primitives": [
        {
          "attributes": {
            "POSITION": 4,
            "NORMAL": 5,
            "TEXCOORD_0": 6
          },
          "indices": 7,
          "material": 1
        }
      ]
    }
  ],
  "nodes": [
    {
      "mesh": 0
    },
    {
      "mesh": 1
    }
  ],
  "scene": 0,
  "scenes": [
    {
      "nodes": [
        0,
        1
      ]
    }
  ],
  "textures": [
    {
      "source": 0
    },
    {
      "source": 1
    }
  ]
}