{
  "asset": {
    "copyright": "",
    "generator": "SharpGLTF 1.0.0",
    "version": "2.0"
  },
  "accessors": [
    {
      "name": "POSITION",
      "bufferView": 0,
      "componentType": 5126,
      "count": 614,
      "max": [
        -70.959602355957031,
        18.715358734130859,
        305.85403442382813
      ],
      "min": [
        -82.926071166992188,
        10.471159934997559,
        296.14566040039063
      ],
      "type": "VEC3"
    },
    {
      "name": "NORMAL",
      "bufferView": 0,
      "byteOffset": 12,
      "componentType": 5126,
      "count": 614,
      "max": [
        0.99486535787582397,
        0.99998462200164795,
        0.98245459794998169
      ],
      "min": [
        -0.9716765284538269,
        -0.99917203187942505,
        -0.98979562520980835
      ],
      "type": "VEC3"
    },
    {
      "name": "TEXCOORD_0",
      "bufferView": 0,
      "byteOffset": 24,
      "componentType": 5126,
      "count": 614,
      "max": [
        0.998046875,
        0.998046875
      ],
      "min": [
        0.001953125,
        0.353515625
      ],
      "type": "VEC2"
    },
    {
      "bufferView": 1,
      "componentType": 5123,
      "count": 1785,
      "type": "SCALAR"
    }
  ],
  "bufferViews": [
    {
      "buffer": 0,
      "byteLength": 19648,
      "byteStride": 32,
      "target": 34962
    },
    {
      "buffer": 0,
      "byteLength": 3570,
      "byteOffset": 19648,
      "target": 34963
    }
  ],
  "buffers": [
    {
      "byteLength": 23220,
      "uri": "3060435073507076032200_LOD00.bin"
    }
  ],
  "images": [
    {
      "uri": "3060435073507076032200_LOD00.png"
    }
  ],
  "materials": [
    {
      "doubleSided": true,
      "pbrMetallicRoughness": {
        "baseColorTexture": {
          "index": 0
        },
        "metallicFactor": 0
      }
    }
  ],
  "meshes": [
    {
      "name": "3060435073507076032200_0",
      "primitives": [
        {
          "attributes": {
            "POSITION": 0,
            "NORMAL": 1,
            "TEXCOORD_0": 2
          },
          "indices": 3,
          "material": 0
        }
      ]
    }
  ],
  "nodes": [
    {
      "mesh": 0
    }
  ],
  "scene": 0,
  "scenes": [
    {
      "nodes": [
        0
      ]
    }
  ],
  "textures": [
    {
      "source": 0
    }
  ]
}