{
  "asset": {
    "copyright": "",
    "generator": "SharpGLTF 1.0.0",
    "version": "2.0"
  },
  "accessors": [
    {
      "name": "POSITION",
      "bufferView": 0,
      "componentType": 5126,
      "count": 96,
      "max": [
        -270.36343383789063,
        30.570865631103516,
        159.40394592285156
      ],
      "min": [
        -272.03213500976563,
        28.903034210205078,
        157.69071960449219
      ],
      "type": "VEC3"
    },
    {
      "name": "NORMAL",
      "bufferView": 0,
      "byteOffset": 12,
      "componentType": 5126,
      "count": 96,
      "max": [
        0.99898815155029297,
        0.98344278335571289,
        0.98698866367340088
      ],
      "min": [
        -0.80751144886016846,
        -0.5478055477142334,
        -0.98971647024154663
      ],
      "type": "VEC3"
    },
    {
      "name": "TEXCOORD_0",
      "bufferView": 0,
      "byteOffset": 24,
      "componentType": 5126,
      "count": 96,
      "max": [
        0.849609375,
        0.998046875
      ],
      "min": [
        0.001953125,
        0.873046875
      ],
      "type": "VEC2"
    },
    {
      "bufferView": 1,
      "componentType": 5123,
      "count": 258,
      "type": "SCALAR"
    }
  ],
  "bufferViews": [
    {
      "buffer": 0,
      "byteLength": 3072,
      "byteStride": 32,
      "target": 34962
    },
    {
      "buffer": 0,
      "byteLength": 516,
      "byteOffset": 3072,
      "target": 34963
    }
  ],
  "buffers": [
    {
      "byteLength": 3588,
      "uri": "3060435073507076102242_LOD00.bin"
    }
  ],
  "images": [
    {
      "uri": "3060435073507076102242_LOD00.png"
    }
  ],
  "materials": [
    {
      "doubleSided": true,
      "pbrMetallicRoughness": {
        "baseColorTexture": {
          "index": 0
        },
        "metallicFactor": 0
      }
    }
  ],
  "meshes": [
    {
      "name": "3060435073507076102242_0",
      "primitives": [
        {
          "attributes": {
            "POSITION": 0,
            "NORMAL": 1,
            "TEXCOORD_0": 2
          },
          "indices": 3,
          "material": 0
        }
      ]
    }
  ],
  "nodes": [
    {
      "mesh": 0
    }
  ],
  "scene": 0,
  "scenes": [
    {
      "nodes": [
        0
      ]
    }
  ],
  "textures": [
    {
      "source": 0
    }
  ]
}