{
  "asset": {
    "copyright": "",
    "generator": "SharpGLTF 1.0.0",
    "version": "2.0"
  },
  "accessors": [
    {
      "name": "POSITION",
      "bufferView": 0,
      "componentType": 5126,
      "count": 758,
      "max": [
        -153.6507568359375,
        19.769088745117188,
        20.461009979248047
      ],
      "min": [
        -165.76066589355469,
        10.52459716796875,
        10.800413131713867
      ],
      "type": "VEC3"
    },
    {
      "name": "NORMAL",
      "bufferView": 0,
      "byteOffset": 12,
      "componentType": 5126,
      "count": 758,
      "max": [
        0.99466407299041748,
        0.99998438358306885,
        0.99915099143981934
      ],
      "min": [
        -0.99999213218688965,
        -1,
        -0.99672979116439819
      ],
      "type": "VEC3"
    },
    {
      "name": "TEXCOORD_0",
      "bufferView": 0,
      "byteOffset": 24,
      "componentType": 5126,
      "count": 758,
      "max": [
        0.998046875,
        0.998046875
      ],
      "min": [
        0.001953125,
        0.259765625
      ],
      "type": "VEC2"
    },
    {
      "bufferView": 1,
      "componentType": 5123,
      "count": 1950,
      "type": "SCALAR"
    }
  ],
  "bufferViews": [
    {
      "buffer": 0,
      "byteLength": 24256,
      "byteStride": 32,
      "target": 34962
    },
    {
      "buffer": 0,
      "byteLength": 3900,
      "byteOffset": 24256,
      "target": 34963
    }
  ],
  "buffers": [
    {
      "byteLength": 28156,
      "uri": "3060435073507074232331_LOD00.bin"
    }
  ],
  "images": [
    {
      "uri": "3060435073507074232331_LOD00.png"
    }
  ],
  "materials": [
    {
      "doubleSided": true,
      "pbrMetallicRoughness": {
        "baseColorTexture": {
          "index": 0
        },
        "metallicFactor": 0
      }
    }
  ],
  "meshes": [
    {
      "name": "3060435073507074232331_0",
      "primitives": [
        {
          "attributes": {
            "POSITION": 0,
            "NORMAL": 1,
            "TEXCOORD_0": 2
          },
          "indices": 3,
          "material": 0
        }
      ]
    }
  ],
  "nodes": [
    {
      "mesh": 0
    }
  ],
  "scene": 0,
  "scenes": [
    {
      "nodes": [
        0
      ]
    }
  ],
  "textures": [
    {
      "source": 0
    }
  ]
}