{
  "asset": {
    "copyright": "",
    "generator": "SharpGLTF 1.0.0",
    "version": "2.0"
  },
  "accessors": [
    {
      "name": "POSITION",
      "bufferView": 0,
      "componentType": 5126,
      "count": 255,
      "max": [
        -71.868698120117188,
        11.049945831298828,
        58.5118408203125
      ],
      "min": [
        -82.977638244628906,
        10.477991104125977,
        48.756092071533203
      ],
      "type": "VEC3"
    },
    {
      "name": "NORMAL",
      "bufferView": 0,
      "byteOffset": 12,
      "componentType": 5126,
      "count": 255,
      "max": [
        0.7696307897567749,
        0.99998444318771362,
        0.44517412781715393
      ],
      "min": [
        -0.70154792070388794,
        0.37675106525421143,
        -0.88986301422119141
      ],
      "type": "VEC3"
    },
    {
      "name": "TEXCOORD_0",
      "bufferView": 0,
      "byteOffset": 24,
      "componentType": 5126,
      "count": 255,
      "max": [
        0.998046875,
        0.998046875
      ],
      "min": [
        0.001953125,
        0.623046875
      ],
      "type": "VEC2"
    },
    {
      "bufferView": 1,
      "componentType": 5123,
      "count": 741,
      "type": "SCALAR"
    }
  ],
  "bufferViews": [
    {
      "buffer": 0,
      "byteLength": 8160,
      "byteStride": 32,
      "target": 34962
    },
    {
      "buffer": 0,
      "byteLength": 1482,
      "byteOffset": 8160,
      "target": 34963
    }
  ],
  "buffers": [
    {
      "byteLength": 9644,
      "uri": "3060435073507076010020_LOD00.bin"
    }
  ],
  "images": [
    {
      "uri": "3060435073507076010020_LOD00.png"
    }
  ],
  "materials": [
    {
      "doubleSided": true,
      "pbrMetallicRoughness": {
        "baseColorTexture": {
          "index": 0
        },
        "metallicFactor": 0
      }
    }
  ],
  "meshes": [
    {
      "name": "3060435073507076010020_0",
      "primitives": [
        {
          "attributes": {
            "POSITION": 0,
            "NORMAL": 1,
            "TEXCOORD_0": 2
          },
          "indices": 3,
          "material": 0
        }
      ]
    }
  ],
  "nodes": [
    {
      "mesh": 0
    }
  ],
  "scene": 0,
  "scenes": [
    {
      "nodes": [
        0
      ]
    }
  ],
  "textures": [
    {
      "source": 0
    }
  ]
}