{
  "asset": {
    "copyright": "",
    "generator": "SharpGLTF 1.0.0",
    "version": "2.0"
  },
  "accessors": [
    {
      "name": "POSITION",
      "bufferView": 0,
      "componentType": 5126,
      "count": 488,
      "max": [
        -108.42293548583984,
        12.431344032287598,
        58.417320251464844
      ],
      "min": [
        -117.57694244384766,
        10.477482795715332,
        48.851787567138672
      ],
      "type": "VEC3"
    },
    {
      "name": "NORMAL",
      "bufferView": 0,
      "byteOffset": 12,
      "componentType": 5126,
      "count": 488,
      "max": [
        0.94472217559814453,
        0.9999845027923584,
        0.80935382843017578
      ],
      "min": [
        -0.81756514310836792,
        -0.98988562822341919,
        -0.95338040590286255
      ],
      "type": "VEC3"
    },
    {
      "name": "TEXCOORD_0",
      "bufferView": 0,
      "byteOffset": 24,
      "componentType": 5126,
      "count": 488,
      "max": [
        0.998046875,
        0.998046875
      ],
      "min": [
        0.001953125,
        0.126953125
      ],
      "type": "VEC2"
    },
    {
      "bufferView": 1,
      "componentType": 5123,
      "count": 1245,
      "type": "SCALAR"
    }
  ],
  "bufferViews": [
    {
      "buffer": 0,
      "byteLength": 15616,
      "byteStride": 32,
      "target": 34962
    },
    {
      "buffer": 0,
      "byteLength": 2490,
      "byteOffset": 15616,
      "target": 34963
    }
  ],
  "buffers": [
    {
      "byteLength": 18108,
      "uri": "3060435073507076010031_LOD00.bin"
    }
  ],
  "images": [
    {
      "uri": "3060435073507076010031_LOD00.png"
    }
  ],
  "materials": [
    {
      "doubleSided": true,
      "pbrMetallicRoughness": {
        "baseColorTexture": {
          "index": 0
        },
        "metallicFactor": 0
      }
    }
  ],
  "meshes": [
    {
      "name": "3060435073507076010031_0",
      "primitives": [
        {
          "attributes": {
            "POSITION": 0,
            "NORMAL": 1,
            "TEXCOORD_0": 2
          },
          "indices": 3,
          "material": 0
        }
      ]
    }
  ],
  "nodes": [
    {
      "mesh": 0
    }
  ],
  "scene": 0,
  "scenes": [
    {
      "nodes": [
        0
      ]
    }
  ],
  "textures": [
    {
      "source": 0
    }
  ]
}