{
  "asset": {
    "copyright": "",
    "generator": "SharpGLTF 1.0.0",
    "version": "2.0"
  },
  "accessors": [
    {
      "name": "POSITION",
      "bufferView": 0,
      "componentType": 5126,
      "count": 432,
      "max": [
        -224.55101013183594,
        33.231418609619141,
        381.91738891601563
      ],
      "min": [
        -236.66082763671875,
        28.80012321472168,
        372.2562255859375
      ],
      "type": "VEC3"
    },
    {
      "name": "NORMAL",
      "bufferView": 0,
      "byteOffset": 12,
      "componentType": 5126,
      "count": 432,
      "max": [
        0.97270476818084717,
        0.99998456239700317,
        0.97295540571212769
      ],
      "min": [
        -0.99043947458267212,
        -0.86738061904907227,
        -0.99672538042068481
      ],
      "type": "VEC3"
    },
    {
      "name": "TEXCOORD_0",
      "bufferView": 0,
      "byteOffset": 24,
      "componentType": 5126,
      "count": 432,
      "max": [
        0.998046875,
        0.998046875
      ],
      "min": [
        0.001953125,
        0.431640625
      ],
      "type": "VEC2"
    },
    {
      "bufferView": 1,
      "componentType": 5123,
      "count": 1209,
      "type": "SCALAR"
    }
  ],
  "bufferViews": [
    {
      "buffer": 0,
      "byteLength": 13824,
      "byteStride": 32,
      "target": 34962
    },
    {
      "buffer": 0,
      "byteLength": 2418,
      "byteOffset": 13824,
      "target": 34963
    }
  ],
  "buffers": [
    {
      "byteLength": 16244,
      "uri": "3060435073507076211341_LOD00.bin"
    }
  ],
  "images": [
    {
      "uri": "3060435073507076211341_LOD00.png"
    }
  ],
  "materials": [
    {
      "doubleSided": true,
      "pbrMetallicRoughness": {
        "baseColorTexture": {
          "index": 0
        },
        "metallicFactor": 0
      }
    }
  ],
  "meshes": [
    {
      "name": "3060435073507076211341_0",
      "primitives": [
        {
          "attributes": {
            "POSITION": 0,
            "NORMAL": 1,
            "TEXCOORD_0": 2
          },
          "indices": 3,
          "material": 0
        }
      ]
    }
  ],
  "nodes": [
    {
      "mesh": 0
    }
  ],
  "scene": 0,
  "scenes": [
    {
      "nodes": [
        0
      ]
    }
  ],
  "textures": [
    {
      "source": 0
    }
  ]
}