{
  "asset": {
    "copyright": "",
    "generator": "SharpGLTF 1.0.0",
    "version": "2.0"
  },
  "accessors": [
    {
      "name": "POSITION",
      "bufferView": 0,
      "componentType": 5126,
      "count": 520,
      "max": [
        -212.88595581054688,
        12.475565910339355,
        115.59456634521484
      ],
      "min": [
        -224.18540954589844,
        10.521924018859863,
        105.88638305664063
      ],
      "type": "VEC3"
    },
    {
      "name": "NORMAL",
      "bufferView": 0,
      "byteOffset": 12,
      "componentType": 5126,
      "count": 520,
      "max": [
        0.91486132144927979,
        0.99594682455062866,
        0.99438047409057617
      ],
      "min": [
        -0.94984495639801025,
        -0.95663553476333618,
        -0.99598824977874756
      ],
      "type": "VEC3"
    },
    {
      "name": "TEXCOORD_0",
      "bufferView": 0,
      "byteOffset": 24,
      "componentType": 5126,
      "count": 520,
      "max": [
        0.998046875,
        0.998046875
      ],
      "min": [
        0.001953125,
        0.541015625
      ],
      "type": "VEC2"
    },
    {
      "bufferView": 1,
      "componentType": 5123,
      "count": 1419,
      "type": "SCALAR"
    }
  ],
  "bufferViews": [
    {
      "buffer": 0,
      "byteLength": 16640,
      "byteStride": 32,
      "target": 34962
    },
    {
      "buffer": 0,
      "byteLength": 2838,
      "byteOffset": 16640,
      "target": 34963
    }
  ],
  "buffers": [
    {
      "byteLength": 19480,
      "uri": "3060435073507076013100_LOD00.bin"
    }
  ],
  "images": [
    {
      "uri": "3060435073507076013100_LOD00.png"
    }
  ],
  "materials": [
    {
      "doubleSided": true,
      "pbrMetallicRoughness": {
        "baseColorTexture": {
          "index": 0
        },
        "metallicFactor": 0
      }
    }
  ],
  "meshes": [
    {
      "name": "3060435073507076013100_0",
      "primitives": [
        {
          "attributes": {
            "POSITION": 0,
            "NORMAL": 1,
            "TEXCOORD_0": 2
          },
          "indices": 3,
          "material": 0
        }
      ]
    }
  ],
  "nodes": [
    {
      "mesh": 0
    }
  ],
  "scene": 0,
  "scenes": [
    {
      "nodes": [
        0
      ]
    }
  ],
  "textures": [
    {
      "source": 0
    }
  ]
}