{
  "asset": {
    "copyright": "",
    "generator": "SharpGLTF 1.0.0",
    "version": "2.0"
  },
  "accessors": [
    {
      "name": "POSITION",
      "bufferView": 0,
      "componentType": 5126,
      "count": 391,
      "max": [
        -96.45904541015625,
        11.810778617858887,
        143.98788452148438
      ],
      "min": [
        -106.66199493408203,
        10.476513862609863,
        134.47007751464844
      ],
      "type": "VEC3"
    },
    {
      "name": "NORMAL",
      "bufferView": 0,
      "byteOffset": 12,
      "componentType": 5126,
      "count": 391,
      "max": [
        0.99915522336959839,
        0.98161607980728149,
        0.88844740390777588
      ],
      "min": [
        -0.92342197895050049,
        -0.17698408663272858,
        -0.99437808990478516
      ],
      "type": "VEC3"
    },
    {
      "name": "TEXCOORD_0",
      "bufferView": 0,
      "byteOffset": 24,
      "componentType": 5126,
      "count": 391,
      "max": [
        0.998046875,
        0.998046875
      ],
      "min": [
        0.001953125,
        0.779296875
      ],
      "type": "VEC2"
    },
    {
      "bufferView": 1,
      "componentType": 5123,
      "count": 1098,
      "type": "SCALAR"
    }
  ],
  "bufferViews": [
    {
      "buffer": 0,
      "byteLength": 12512,
      "byteStride": 32,
      "target": 34962
    },
    {
      "buffer": 0,
      "byteLength": 2196,
      "byteOffset": 12512,
      "target": 34963
    }
  ],
  "buffers": [
    {
      "byteLength": 14708,
      "uri": "3060435073507076012032_LOD00.bin"
    }
  ],
  "images": [
    {
      "uri": "3060435073507076012032_LOD00.png"
    }
  ],
  "materials": [
    {
      "doubleSided": true,
      "pbrMetallicRoughness": {
        "baseColorTexture": {
          "index": 0
        },
        "metallicFactor": 0
      }
    }
  ],
  "meshes": [
    {
      "name": "3060435073507076012032_0",
      "primitives": [
        {
          "attributes": {
            "POSITION": 0,
            "NORMAL": 1,
            "TEXCOORD_0": 2
          },
          "indices": 3,
          "material": 0
        }
      ]
    }
  ],
  "nodes": [
    {
      "mesh": 0
    }
  ],
  "scene": 0,
  "scenes": [
    {
      "nodes": [
        0
      ]
    }
  ],
  "textures": [
    {
      "source": 0
    }
  ]
}