{
  "asset": {
    "copyright": "",
    "generator": "SharpGLTF 1.0.0",
    "version": "2.0"
  },
  "accessors": [
    {
      "name": "POSITION",
      "bufferView": 0,
      "componentType": 5126,
      "count": 144,
      "max": [
        -224.61270141601563,
        1.4781931638717651,
        39.394798278808594
      ],
      "min": [
        -230.76304626464844,
        -7.6712570190429688,
        31.161554336547852
      ],
      "type": "VEC3"
    },
    {
      "name": "NORMAL",
      "bufferView": 0,
      "byteOffset": 12,
      "componentType": 5126,
      "count": 144,
      "max": [
        -0.70219540596008301,
        -0.0050181029364466667,
        -0.31864386796951294
      ],
      "min": [
        -0.94786131381988525,
        -0.0055916626006364822,
        -0.71196240186691284
      ],
      "type": "VEC3"
    },
    {
      "name": "TEXCOORD_0",
      "bufferView": 0,
      "byteOffset": 24,
      "componentType": 5126,
      "count": 144,
      "max": [
        0.892578125,
        0.998046875
      ],
      "min": [
        0.001953125,
        0.208984375
      ],
      "type": "VEC2"
    },
    {
      "bufferView": 1,
      "componentType": 5123,
      "count": 444,
      "type": "SCALAR"
    }
  ],
  "bufferViews": [
    {
      "buffer": 0,
      "byteLength": 4608,
      "byteStride": 32,
      "target": 34962
    },
    {
      "buffer": 0,
      "byteLength": 888,
      "byteOffset": 4608,
      "target": 34963
    }
  ],
  "buffers": [
    {
      "byteLength": 5496,
      "uri": "3060435073507072455541_LOD00.bin"
    }
  ],
  "images": [
    {
      "uri": "3060435073507072455541_LOD00.png"
    }
  ],
  "materials": [
    {
      "doubleSided": true,
      "pbrMetallicRoughness": {
        "baseColorTexture": {
          "index": 0
        },
        "metallicFactor": 0
      }
    }
  ],
  "meshes": [
    {
      "name": "3060435073507072455541_0",
      "primitives": [
        {
          "attributes": {
            "POSITION": 0,
            "NORMAL": 1,
            "TEXCOORD_0": 2
          },
          "indices": 3,
          "material": 0
        }
      ]
    }
  ],
  "nodes": [
    {
      "mesh": 0
    }
  ],
  "scene": 0,
  "scenes": [
    {
      "nodes": [
        0
      ]
    }
  ],
  "textures": [
    {
      "source": 0
    }
  ]
}