{
  "asset": {
    "copyright": "",
    "generator": "SharpGLTF 1.0.0",
    "version": "2.0"
  },
  "accessors": [
    {
      "name": "POSITION",
      "bufferView": 0,
      "componentType": 5126,
      "count": 354,
      "max": [
        -156.54570007324219,
        13.986532211303711,
        466.00909423828125
      ],
      "min": [
        -165.60354614257813,
        10.460196495056152,
        457.77587890625
      ],
      "type": "VEC3"
    },
    {
      "name": "NORMAL",
      "bufferView": 0,
      "byteOffset": 12,
      "componentType": 5126,
      "count": 354,
      "max": [
        0.9952770471572876,
        0.95714741945266724,
        0.99438643455505371
      ],
      "min": [
        -0.97512400150299072,
        -0.66051316261291504,
        -0.99525225162506104
      ],
      "type": "VEC3"
    },
    {
      "name": "TEXCOORD_0",
      "bufferView": 0,
      "byteOffset": 24,
      "componentType": 5126,
      "count": 354,
      "max": [
        0.998046875,
        0.998046875
      ],
      "min": [
        0.001953125,
        0.384765625
      ],
      "type": "VEC2"
    },
    {
      "bufferView": 1,
      "componentType": 5123,
      "count": 867,
      "type": "SCALAR"
    }
  ],
  "bufferViews": [
    {
      "buffer": 0,
      "byteLength": 11328,
      "byteStride": 32,
      "target": 34962
    },
    {
      "buffer": 0,
      "byteLength": 1734,
      "byteOffset": 11328,
      "target": 34963
    }
  ],
  "buffers": [
    {
      "byteLength": 13064,
      "uri": "3060435073507076212313_LOD00.bin"
    }
  ],
  "images": [
    {
      "uri": "3060435073507076212313_LOD00.png"
    }
  ],
  "materials": [
    {
      "doubleSided": true,
      "pbrMetallicRoughness": {
        "baseColorTexture": {
          "index": 0
        },
        "metallicFactor": 0
      }
    }
  ],
  "meshes": [
    {
      "name": "3060435073507076212313_0",
      "primitives": [
        {
          "attributes": {
            "POSITION": 0,
            "NORMAL": 1,
            "TEXCOORD_0": 2
          },
          "indices": 3,
          "material": 0
        }
      ]
    }
  ],
  "nodes": [
    {
      "mesh": 0
    }
  ],
  "scene": 0,
  "scenes": [
    {
      "nodes": [
        0
      ]
    }
  ],
  "textures": [
    {
      "source": 0
    }
  ]
}