{
  "asset": {
    "copyright": "",
    "generator": "SharpGLTF 1.0.0",
    "version": "2.0"
  },
  "accessors": [
    {
      "name": "POSITION",
      "bufferView": 0,
      "componentType": 5126,
      "count": 79,
      "max": [
        -0.04775184765458107,
        21.528753280639648,
        79.531806945800781
      ],
      "min": [
        -0.95361781120300293,
        19.765615463256836,
        77.3902587890625
      ],
      "type": "VEC3"
    },
    {
      "name": "NORMAL",
      "bufferView": 0,
      "byteOffset": 12,
      "componentType": 5126,
      "count": 79,
      "max": [
        0.25186187028884888,
        0.91900092363357544,
        0.91821050643920898
      ],
      "min": [
        -0.98226922750473022,
        -0.57422047853469849,
        -0.94749170541763306
      ],
      "type": "VEC3"
    },
    {
      "name": "TEXCOORD_0",
      "bufferView": 0,
      "byteOffset": 24,
      "componentType": 5126,
      "count": 79,
      "max": [
        0.533203125,
        0.998046875
      ],
      "min": [
        0.001953125,
        0.830078125
      ],
      "type": "VEC2"
    },
    {
      "bufferView": 1,
      "componentType": 5123,
      "count": 225,
      "type": "SCALAR"
    }
  ],
  "bufferViews": [
    {
      "buffer": 0,
      "byteLength": 2528,
      "byteStride": 32,
      "target": 34962
    },
    {
      "buffer": 0,
      "byteLength": 450,
      "byteOffset": 2528,
      "target": 34963
    }
  ],
  "buffers": [
    {
      "byteLength": 2980,
      "uri": "3060435073507076001216_LOD00.bin"
    }
  ],
  "images": [
    {
      "uri": "3060435073507076001216_LOD00.png"
    }
  ],
  "materials": [
    {
      "doubleSided": true,
      "pbrMetallicRoughness": {
        "baseColorTexture": {
          "index": 0
        },
        "metallicFactor": 0
      }
    }
  ],
  "meshes": [
    {
      "name": "3060435073507076001216_0",
      "primitives": [
        {
          "attributes": {
            "POSITION": 0,
            "NORMAL": 1,
            "TEXCOORD_0": 2
          },
          "indices": 3,
          "material": 0
        }
      ]
    }
  ],
  "nodes": [
    {
      "mesh": 0
    }
  ],
  "scene": 0,
  "scenes": [
    {
      "nodes": [
        0
      ]
    }
  ],
  "textures": [
    {
      "source": 0
    }
  ]
}