{
  "asset": {
    "copyright": "",
    "generator": "SharpGLTF 1.0.0",
    "version": "2.0"
  },
  "accessors": [
    {
      "name": "POSITION",
      "bufferView": 0,
      "componentType": 5126,
      "count": 518,
      "max": [
        -248.19621276855469,
        10.619053840637207,
        201.16734313964844
      ],
      "min": [
        -260.258056640625,
        9.3797788619995117,
        191.41111755371094
      ],
      "type": "VEC3"
    },
    {
      "name": "NORMAL",
      "bufferView": 0,
      "byteOffset": 12,
      "componentType": 5126,
      "count": 518,
      "max": [
        0.96213632822036743,
        0.9999842643737793,
        0.83777725696563721
      ],
      "min": [
        -0.99931997060775757,
        -0.10623135417699814,
        -0.97876906394958496
      ],
      "type": "VEC3"
    },
    {
      "name": "TEXCOORD_0",
      "bufferView": 0,
      "byteOffset": 24,
      "componentType": 5126,
      "count": 518,
      "max": [
        0.998046875,
        0.998046875
      ],
      "min": [
        0.001953125,
        0.056640625
      ],
      "type": "VEC2"
    },
    {
      "bufferView": 1,
      "componentType": 5123,
      "count": 1431,
      "type": "SCALAR"
    }
  ],
  "bufferViews": [
    {
      "buffer": 0,
      "byteLength": 16576,
      "byteStride": 32,
      "target": 34962
    },
    {
      "buffer": 0,
      "byteLength": 2862,
      "byteOffset": 16576,
      "target": 34963
    }
  ],
  "buffers": [
    {
      "byteLength": 19440,
      "uri": "3060435073507072475557_LOD00.bin"
    }
  ],
  "images": [
    {
      "uri": "3060435073507072475557_LOD00.png"
    }
  ],
  "materials": [
    {
      "doubleSided": true,
      "pbrMetallicRoughness": {
        "baseColorTexture": {
          "index": 0
        },
        "metallicFactor": 0
      }
    }
  ],
  "meshes": [
    {
      "name": "3060435073507072475557_0",
      "primitives": [
        {
          "attributes": {
            "POSITION": 0,
            "NORMAL": 1,
            "TEXCOORD_0": 2
          },
          "indices": 3,
          "material": 0
        }
      ]
    }
  ],
  "nodes": [
    {
      "mesh": 0
    }
  ],
  "scene": 0,
  "scenes": [
    {
      "nodes": [
        0
      ]
    }
  ],
  "textures": [
    {
      "source": 0
    }
  ]
}