{
  "asset": {
    "copyright": "",
    "generator": "SharpGLTF 1.0.0",
    "version": "2.0"
  },
  "accessors": [
    {
      "name": "POSITION",
      "bufferView": 0,
      "componentType": 5126,
      "count": 329,
      "max": [
        -260.16531372070313,
        17.335268020629883,
        58.375209808349609
      ],
      "min": [
        -263.169189453125,
        10.616249084472656,
        48.857139587402344
      ],
      "type": "VEC3"
    },
    {
      "name": "NORMAL",
      "bufferView": 0,
      "byteOffset": 12,
      "componentType": 5126,
      "count": 329,
      "max": [
        -0.14779956638813019,
        0.98900729417800903,
        0.48852100968360901
      ],
      "min": [
        -0.99999213218688965,
        -0.63593435287475586,
        -0.64175605773925781
      ],
      "type": "VEC3"
    },
    {
      "name": "TEXCOORD_0",
      "bufferView": 0,
      "byteOffset": 24,
      "componentType": 5126,
      "count": 329,
      "max": [
        0.994140625,
        0.998046875
      ],
      "min": [
        0.001953125,
        0.201171875
      ],
      "type": "VEC2"
    },
    {
      "bufferView": 1,
      "componentType": 5123,
      "count": 966,
      "type": "SCALAR"
    }
  ],
  "bufferViews": [
    {
      "buffer": 0,
      "byteLength": 10528,
      "byteStride": 32,
      "target": 34962
    },
    {
      "buffer": 0,
      "byteLength": 1932,
      "byteOffset": 10528,
      "target": 34963
    }
  ],
  "buffers": [
    {
      "byteLength": 12460,
      "uri": "3060435073507076100020_LOD00.bin"
    }
  ],
  "images": [
    {
      "uri": "3060435073507076100020_LOD00.png"
    }
  ],
  "materials": [
    {
      "doubleSided": true,
      "pbrMetallicRoughness": {
        "baseColorTexture": {
          "index": 0
        },
        "metallicFactor": 0
      }
    }
  ],
  "meshes": [
    {
      "name": "3060435073507076100020_0",
      "primitives": [
        {
          "attributes": {
            "POSITION": 0,
            "NORMAL": 1,
            "TEXCOORD_0": 2
          },
          "indices": 3,
          "material": 0
        }
      ]
    }
  ],
  "nodes": [
    {
      "mesh": 0
    }
  ],
  "scene": 0,
  "scenes": [
    {
      "nodes": [
        0
      ]
    }
  ],
  "textures": [
    {
      "source": 0
    }
  ]
}