{
  "asset": {
    "copyright": "",
    "generator": "SharpGLTF 1.0.0",
    "version": "2.0"
  },
  "accessors": [
    {
      "name": "POSITION",
      "bufferView": 0,
      "componentType": 5126,
      "count": 205,
      "max": [
        -94.552940368652344,
        22.957468032836914,
        96.517349243164063
      ],
      "min": [
        -97.556594848632813,
        19.669427871704102,
        92.852928161621094
      ],
      "type": "VEC3"
    },
    {
      "name": "NORMAL",
      "bufferView": 0,
      "byteOffset": 12,
      "componentType": 5126,
      "count": 205,
      "max": [
        0.65014845132827759,
        0.9496077299118042,
        0.91869807243347168
      ],
      "min": [
        -0.99486160278320313,
        -0.68530857563018799,
        -0.9903862476348877
      ],
      "type": "VEC3"
    },
    {
      "name": "TEXCOORD_0",
      "bufferView": 0,
      "byteOffset": 24,
      "componentType": 5126,
      "count": 205,
      "max": [
        0.998046875,
        0.998046875
      ],
      "min": [
        0.001953125,
        0.763671875
      ],
      "type": "VEC2"
    },
    {
      "bufferView": 1,
      "componentType": 5123,
      "count": 573,
      "type": "SCALAR"
    }
  ],
  "bufferViews": [
    {
      "buffer": 0,
      "byteLength": 6560,
      "byteStride": 32,
      "target": 34962
    },
    {
      "buffer": 0,
      "byteLength": 1146,
      "byteOffset": 6560,
      "target": 34963
    }
  ],
  "buffers": [
    {
      "byteLength": 7708,
      "uri": "3060435073507076010234_LOD00.bin"
    }
  ],
  "images": [
    {
      "uri": "3060435073507076010234_LOD00.png"
    }
  ],
  "materials": [
    {
      "doubleSided": true,
      "pbrMetallicRoughness": {
        "baseColorTexture": {
          "index": 0
        },
        "metallicFactor": 0
      }
    }
  ],
  "meshes": [
    {
      "name": "3060435073507076010234_0",
      "primitives": [
        {
          "attributes": {
            "POSITION": 0,
            "NORMAL": 1,
            "TEXCOORD_0": 2
          },
          "indices": 3,
          "material": 0
        }
      ]
    }
  ],
  "nodes": [
    {
      "mesh": 0
    }
  ],
  "scene": 0,
  "scenes": [
    {
      "nodes": [
        0
      ]
    }
  ],
  "textures": [
    {
      "source": 0
    }
  ]
}