{
  "asset": {
    "copyright": "",
    "generator": "SharpGLTF 1.0.0",
    "version": "2.0"
  },
  "accessors": [
    {
      "name": "POSITION",
      "bufferView": 0,
      "componentType": 5126,
      "count": 380,
      "max": [
        -248.18849182128906,
        10.706862449645996,
        362.84320068359375
      ],
      "min": [
        -260.15478515625,
        8.8004741668701172,
        353.2774658203125
      ],
      "type": "VEC3"
    },
    {
      "name": "NORMAL",
      "bufferView": 0,
      "byteOffset": 12,
      "componentType": 5126,
      "count": 380,
      "max": [
        0.94034880399703979,
        0.99998444318771362,
        0.80992203950881958
      ],
      "min": [
        -0.98830199241638184,
        -0.9118993878364563,
        -0.94264191389083862
      ],
      "type": "VEC3"
    },
    {
      "name": "TEXCOORD_0",
      "bufferView": 0,
      "byteOffset": 24,
      "componentType": 5126,
      "count": 380,
      "max": [
        0.998046875,
        0.998046875
      ],
      "min": [
        0.001953125,
        0.095703125
      ],
      "type": "VEC2"
    },
    {
      "bufferView": 1,
      "componentType": 5123,
      "count": 1101,
      "type": "SCALAR"
    }
  ],
  "bufferViews": [
    {
      "buffer": 0,
      "byteLength": 12160,
      "byteStride": 32,
      "target": 34962
    },
    {
      "buffer": 0,
      "byteLength": 2202,
      "byteOffset": 12160,
      "target": 34963
    }
  ],
  "buffers": [
    {
      "byteLength": 14364,
      "uri": "3060435073507072655575_LOD00.bin"
    }
  ],
  "images": [
    {
      "uri": "3060435073507072655575_LOD00.png"
    }
  ],
  "materials": [
    {
      "doubleSided": true,
      "pbrMetallicRoughness": {
        "baseColorTexture": {
          "index": 0
        },
        "metallicFactor": 0
      }
    }
  ],
  "meshes": [
    {
      "name": "3060435073507072655575_0",
      "primitives": [
        {
          "attributes": {
            "POSITION": 0,
            "NORMAL": 1,
            "TEXCOORD_0": 2
          },
          "indices": 3,
          "material": 0
        }
      ]
    }
  ],
  "nodes": [
    {
      "mesh": 0
    }
  ],
  "scene": 0,
  "scenes": [
    {
      "nodes": [
        0
      ]
    }
  ],
  "textures": [
    {
      "source": 0
    }
  ]
}