{
  "asset": {
    "copyright": "",
    "generator": "SharpGLTF 1.0.0",
    "version": "2.0"
  },
  "accessors": [
    {
      "name": "POSITION",
      "bufferView": 0,
      "componentType": 5126,
      "count": 290,
      "max": [
        -135.53950500488281,
        41.577793121337891,
        163.01591491699219
      ],
      "min": [
        -141.97608947753906,
        38.051559448242188,
        153.49775695800781
      ],
      "type": "VEC3"
    },
    {
      "name": "NORMAL",
      "bufferView": 0,
      "byteOffset": 12,
      "componentType": 5126,
      "count": 290,
      "max": [
        0.99528062343597412,
        0.9999845027923584,
        0.18970830738544464
      ],
      "min": [
        0.0039341002702713013,
        -0.63660663366317749,
        -0.28714489936828613
      ],
      "type": "VEC3"
    },
    {
      "name": "TEXCOORD_0",
      "bufferView": 0,
      "byteOffset": 24,
      "componentType": 5126,
      "count": 290,
      "max": [
        0.994140625,
        0.998046875
      ],
      "min": [
        0.001953125,
        0.177734375
      ],
      "type": "VEC2"
    },
    {
      "bufferView": 1,
      "componentType": 5123,
      "count": 903,
      "type": "SCALAR"
    }
  ],
  "bufferViews": [
    {
      "buffer": 0,
      "byteLength": 9280,
      "byteStride": 32,
      "target": 34962
    },
    {
      "buffer": 0,
      "byteLength": 1806,
      "byteOffset": 9280,
      "target": 34963
    }
  ],
  "buffers": [
    {
      "byteLength": 11088,
      "uri": "3060435073507076012347_LOD00.bin"
    }
  ],
  "images": [
    {
      "uri": "3060435073507076012347_LOD00.png"
    }
  ],
  "materials": [
    {
      "doubleSided": true,
      "pbrMetallicRoughness": {
        "baseColorTexture": {
          "index": 0
        },
        "metallicFactor": 0
      }
    }
  ],
  "meshes": [
    {
      "name": "3060435073507076012347_0",
      "primitives": [
        {
          "attributes": {
            "POSITION": 0,
            "NORMAL": 1,
            "TEXCOORD_0": 2
          },
          "indices": 3,
          "material": 0
        }
      ]
    }
  ],
  "nodes": [
    {
      "mesh": 0
    }
  ],
  "scene": 0,
  "scenes": [
    {
      "nodes": [
        0
      ]
    }
  ],
  "textures": [
    {
      "source": 0
    }
  ]
}