{
  "asset": {
    "copyright": "",
    "generator": "SharpGLTF 1.0.0",
    "version": "2.0"
  },
  "accessors": [
    {
      "name": "POSITION",
      "bufferView": 0,
      "componentType": 5126,
      "count": 684,
      "max": [
        -224.61302185058594,
        10.765545845031738,
        39.442459106445313
      ],
      "min": [
        -236.53253173828125,
        1.4731521606445313,
        29.829118728637695
      ],
      "type": "VEC3"
    },
    {
      "name": "NORMAL",
      "bufferView": 0,
      "byteOffset": 12,
      "componentType": 5126,
      "count": 684,
      "max": [
        0.94473385810852051,
        0.9999845027923584,
        0.93990767002105713
      ],
      "min": [
        -0.99931991100311279,
        -0.9878239631652832,
        -0.97398358583450317
      ],
      "type": "VEC3"
    },
    {
      "name": "TEXCOORD_0",
      "bufferView": 0,
      "byteOffset": 24,
      "componentType": 5126,
      "count": 684,
      "max": [
        0.998046875,
        0.9990234375
      ],
      "min": [
        0.001953125,
        0.0029296875
      ],
      "type": "VEC2"
    },
    {
      "bufferView": 1,
      "componentType": 5123,
      "count": 1707,
      "type": "SCALAR"
    },
    {
      "name": "POSITION",
      "bufferView": 0,
      "byteOffset": 21888,
      "componentType": 5126,
      "count": 164,
      "max": [
        -224.7083740234375,
        10.622567176818848,
        39.347255706787109
      ],
      "min": [
        -236.53273010253906,
        1.4731571674346924,
        29.829383850097656
      ],
      "type": "VEC3"
    },
    {
      "name": "NORMAL",
      "bufferView": 0,
      "byteOffset": 21900,
      "componentType": 5126,
      "count": 164,
      "max": [
        0.76608794927597046,
        0.9999845027923584,
        0.71196228265762329
      ],
      "min": [
        -0.9478611946105957,
        -0.0055916551500558853,
        -0.85813295841217041
      ],
      "type": "VEC3"
    },
    {
      "name": "TEXCOORD_0",
      "bufferView": 0,
      "byteOffset": 21912,
      "componentType": 5126,
      "count": 164,
      "max": [
        0.994140625,
        0.998046875
      ],
      "min": [
        0.001953125,
        0.001953125
      ],
      "type": "VEC2"
    },
    {
      "bufferView": 1,
      "byteOffset": 3414,
      "componentType": 5123,
      "count": 504,
      "type": "SCALAR"
    }
  ],
  "bufferViews": [
    {
      "buffer": 0,
      "byteLength": 27136,
      "byteStride": 32,
      "target": 34962
    },
    {
      "buffer": 0,
      "byteLength": 4422,
      "byteOffset": 27136,
      "target": 34963
    }
  ],
  "buffers": [
    {
      "byteLength": 31560,
      "uri": "3060435073507072455545_LOD00.bin"
    }
  ],
  "images": [
    {
      "uri": "3060435073507072455545_LOD00_0.png"
    },
    {
      "uri": "3060435073507072455545_LOD00_1.png"
    }
  ],
  "materials": [
    {
      "doubleSided": true,
      "pbrMetallicRoughness": {
        "baseColorTexture": {
          "index": 0
        },
        "metallicFactor": 0
      }
    },
    {
      "doubleSided": true,
      "pbrMetallicRoughness": {
        "baseColorTexture": {
          "index": 1
        },
        "metallicFactor": 0
      }
    }
  ],
  "meshes": [
    {
      "name": "3060435073507072455545_0",
      "primitives": [
        {
          "attributes": {
            "POSITION": 0,
            "NORMAL": 1,
            "TEXCOORD_0": 2
          },
          "indices": 3,
          "material": 0
        }
      ]
    },
    {
      "name": "3060435073507072455545_1",
      "primitives": [
        {
          "attributes": {
            "POSITION": 4,
            "NORMAL": 5,
            "TEXCOORD_0": 6
          },
          "indices": 7,
          "material": 1
        }
      ]
    }
  ],
  "nodes": [
    {
      "mesh": 0
    },
    {
      "mesh": 1
    }
  ],
  "scene": 0,
  "scenes": [
    {
      "nodes": [
        0,
        1
      ]
    }
  ],
  "textures": [
    {
      "source": 0
    },
    {
      "source": 1
    }
  ]
}