{
  "asset": {
    "copyright": "",
    "generator": "SharpGLTF 1.0.0",
    "version": "2.0"
  },
  "accessors": [
    {
      "name": "POSITION",
      "bufferView": 0,
      "componentType": 5126,
      "count": 297,
      "max": [
        -197.683837890625,
        28.909557342529297,
        201.07015991210938
      ],
      "min": [
        -199.87739562988281,
        19.665054321289063,
        191.45683288574219
      ],
      "type": "VEC3"
    },
    {
      "name": "NORMAL",
      "bufferView": 0,
      "byteOffset": 12,
      "componentType": 5126,
      "count": 297,
      "max": [
        -0.27945011854171753,
        0.95377433300018311,
        0.64551442861557007
      ],
      "min": [
        -0.99999207258224487,
        -0.20789088308811188,
        -0.5815398097038269
      ],
      "type": "VEC3"
    },
    {
      "name": "TEXCOORD_0",
      "bufferView": 0,
      "byteOffset": 24,
      "componentType": 5126,
      "count": 297,
      "max": [
        0.998046875,
        0.998046875
      ],
      "min": [
        0.001953125,
        0.166015625
      ],
      "type": "VEC2"
    },
    {
      "bufferView": 1,
      "componentType": 5123,
      "count": 981,
      "type": "SCALAR"
    }
  ],
  "bufferViews": [
    {
      "buffer": 0,
      "byteLength": 9504,
      "byteStride": 32,
      "target": 34962
    },
    {
      "buffer": 0,
      "byteLength": 1962,
      "byteOffset": 9504,
      "target": 34963
    }
  ],
  "buffers": [
    {
      "byteLength": 11468,
      "uri": "3060435073507076031016_LOD00.bin"
    }
  ],
  "images": [
    {
      "uri": "3060435073507076031016_LOD00.png"
    }
  ],
  "materials": [
    {
      "doubleSided": true,
      "pbrMetallicRoughness": {
        "baseColorTexture": {
          "index": 0
        },
        "metallicFactor": 0
      }
    }
  ],
  "meshes": [
    {
      "name": "3060435073507076031016_0",
      "primitives": [
        {
          "attributes": {
            "POSITION": 0,
            "NORMAL": 1,
            "TEXCOORD_0": 2
          },
          "indices": 3,
          "material": 0
        }
      ]
    }
  ],
  "nodes": [
    {
      "mesh": 0
    }
  ],
  "scene": 0,
  "scenes": [
    {
      "nodes": [
        0
      ]
    }
  ],
  "textures": [
    {
      "source": 0
    }
  ]
}