{
  "asset": {
    "copyright": "",
    "generator": "SharpGLTF 1.0.0",
    "version": "2.0"
  },
  "accessors": [
    {
      "name": "POSITION",
      "bufferView": 0,
      "componentType": 5126,
      "count": 293,
      "max": [
        -69.342864990234375,
        19.761465072631836,
        353.27731323242188
      ],
      "min": [
        -71.059318542480469,
        10.516847610473633,
        343.61654663085938
      ],
      "type": "VEC3"
    },
    {
      "name": "NORMAL",
      "bufferView": 0,
      "byteOffset": 12,
      "componentType": 5126,
      "count": 293,
      "max": [
        0.66294640302658081,
        0.99897366762161255,
        0.99486982822418213
      ],
      "min": [
        -0.99999219179153442,
        -0.31164649128913879,
        -0.97294402122497559
      ],
      "type": "VEC3"
    },
    {
      "name": "TEXCOORD_0",
      "bufferView": 0,
      "byteOffset": 24,
      "componentType": 5126,
      "count": 293,
      "max": [
        0.998046875,
        0.998046875
      ],
      "min": [
        0.001953125,
        0.150390625
      ],
      "type": "VEC2"
    },
    {
      "bufferView": 1,
      "componentType": 5123,
      "count": 885,
      "type": "SCALAR"
    }
  ],
  "bufferViews": [
    {
      "buffer": 0,
      "byteLength": 9376,
      "byteStride": 32,
      "target": 34962
    },
    {
      "buffer": 0,
      "byteLength": 1770,
      "byteOffset": 9376,
      "target": 34963
    }
  ],
  "buffers": [
    {
      "byteLength": 11148,
      "uri": "3060435073507076201113_LOD00.bin"
    }
  ],
  "images": [
    {
      "uri": "3060435073507076201113_LOD00.png"
    }
  ],
  "materials": [
    {
      "doubleSided": true,
      "pbrMetallicRoughness": {
        "baseColorTexture": {
          "index": 0
        },
        "metallicFactor": 0
      }
    }
  ],
  "meshes": [
    {
      "name": "3060435073507076201113_0",
      "primitives": [
        {
          "attributes": {
            "POSITION": 0,
            "NORMAL": 1,
            "TEXCOORD_0": 2
          },
          "indices": 3,
          "material": 0
        }
      ]
    }
  ],
  "nodes": [
    {
      "mesh": 0
    }
  ],
  "scene": 0,
  "scenes": [
    {
      "nodes": [
        0
      ]
    }
  ],
  "textures": [
    {
      "source": 0
    }
  ]
}