{
  "asset": {
    "copyright": "",
    "generator": "SharpGLTF 1.0.0",
    "version": "2.0"
  },
  "accessors": [
    {
      "name": "POSITION",
      "bufferView": 0,
      "componentType": 5126,
      "count": 572,
      "max": [
        -23.637048721313477,
        26.087566375732422,
        462.77127075195313
      ],
      "min": [
        -35.650760650634766,
        19.702184677124023,
        457.7742919921875
      ],
      "type": "VEC3"
    },
    {
      "name": "NORMAL",
      "bufferView": 0,
      "byteOffset": 12,
      "componentType": 5126,
      "count": 572,
      "max": [
        0.99799269437789917,
        0.99440068006515503,
        0.99438810348510742
      ],
      "min": [
        -0.99049800634384155,
        -0.65509343147277832,
        -0.82238984107971191
      ],
      "type": "VEC3"
    },
    {
      "name": "TEXCOORD_0",
      "bufferView": 0,
      "byteOffset": 24,
      "componentType": 5126,
      "count": 572,
      "max": [
        0.998046875,
        0.998046875
      ],
      "min": [
        0.001953125,
        0.384765625
      ],
      "type": "VEC2"
    },
    {
      "bufferView": 1,
      "componentType": 5123,
      "count": 1527,
      "type": "SCALAR"
    }
  ],
  "bufferViews": [
    {
      "buffer": 0,
      "byteLength": 18304,
      "byteStride": 32,
      "target": 34962
    },
    {
      "buffer": 0,
      "byteLength": 3054,
      "byteOffset": 18304,
      "target": 34963
    }
  ],
  "buffers": [
    {
      "byteLength": 21360,
      "uri": "3060435073507076203306_LOD00.bin"
    }
  ],
  "images": [
    {
      "uri": "3060435073507076203306_LOD00.png"
    }
  ],
  "materials": [
    {
      "doubleSided": true,
      "pbrMetallicRoughness": {
        "baseColorTexture": {
          "index": 0
        },
        "metallicFactor": 0
      }
    }
  ],
  "meshes": [
    {
      "name": "3060435073507076203306_0",
      "primitives": [
        {
          "attributes": {
            "POSITION": 0,
            "NORMAL": 1,
            "TEXCOORD_0": 2
          },
          "indices": 3,
          "material": 0
        }
      ]
    }
  ],
  "nodes": [
    {
      "mesh": 0
    }
  ],
  "scene": 0,
  "scenes": [
    {
      "nodes": [
        0
      ]
    }
  ],
  "textures": [
    {
      "source": 0
    }
  ]
}