{
  "asset": {
    "copyright": "",
    "generator": "SharpGLTF 1.0.0",
    "version": "2.0"
  },
  "accessors": [
    {
      "name": "POSITION",
      "bufferView": 0,
      "componentType": 5126,
      "count": 193,
      "max": [
        8.7191781997680664,
        11.897597312927246,
        372.44552612304688
      ],
      "min": [
        3.0459263324737549,
        10.515693664550781,
        363.11798095703125
      ],
      "type": "VEC3"
    },
    {
      "name": "NORMAL",
      "bufferView": 0,
      "byteOffset": 12,
      "componentType": 5126,
      "count": 193,
      "max": [
        0.91684812307357788,
        0.98342019319534302,
        0.85358113050460815
      ],
      "min": [
        -0.99044036865234375,
        -0.68531543016433716,
        -0.99464261531829834
      ],
      "type": "VEC3"
    },
    {
      "name": "TEXCOORD_0",
      "bufferView": 0,
      "byteOffset": 24,
      "componentType": 5126,
      "count": 193,
      "max": [
        0.994140625,
        0.998046875
      ],
      "min": [
        0.001953125,
        0.853515625
      ],
      "type": "VEC2"
    },
    {
      "bufferView": 1,
      "componentType": 5123,
      "count": 453,
      "type": "SCALAR"
    }
  ],
  "bufferViews": [
    {
      "buffer": 0,
      "byteLength": 6176,
      "byteStride": 32,
      "target": 34962
    },
    {
      "buffer": 0,
      "byteLength": 906,
      "byteOffset": 6176,
      "target": 34963
    }
  ],
  "buffers": [
    {
      "byteLength": 7084,
      "uri": "3060435073507076201023_LOD00.bin"
    }
  ],
  "images": [
    {
      "uri": "3060435073507076201023_LOD00.png"
    }
  ],
  "materials": [
    {
      "doubleSided": true,
      "pbrMetallicRoughness": {
        "baseColorTexture": {
          "index": 0
        },
        "metallicFactor": 0
      }
    }
  ],
  "meshes": [
    {
      "name": "3060435073507076201023_0",
      "primitives": [
        {
          "attributes": {
            "POSITION": 0,
            "NORMAL": 1,
            "TEXCOORD_0": 2
          },
          "indices": 3,
          "material": 0
        }
      ]
    }
  ],
  "nodes": [
    {
      "mesh": 0
    }
  ],
  "scene": 0,
  "scenes": [
    {
      "nodes": [
        0
      ]
    }
  ],
  "textures": [
    {
      "source": 0
    }
  ]
}