{
  "asset": {
    "copyright": "",
    "generator": "SharpGLTF 1.0.0",
    "version": "2.0"
  },
  "accessors": [
    {
      "name": "POSITION",
      "bufferView": 0,
      "componentType": 5126,
      "count": 180,
      "max": [
        -153.79042053222656,
        10.289727210998535,
        125.01079559326172
      ],
      "min": [
        -165.66194152832031,
        9.0985107421875,
        115.44492340087891
      ],
      "type": "VEC3"
    },
    {
      "name": "NORMAL",
      "bufferView": 0,
      "byteOffset": 12,
      "componentType": 5126,
      "count": 180,
      "max": [
        0.4050733745098114,
        0.9999845027923584,
        0.097534298896789551
      ],
      "min": [
        -0.047152362763881683,
        0.88353031873703003,
        -0.32778295874595642
      ],
      "type": "VEC3"
    },
    {
      "name": "TEXCOORD_0",
      "bufferView": 0,
      "byteOffset": 24,
      "componentType": 5126,
      "count": 180,
      "max": [
        0.974609375,
        0.9990234375
      ],
      "min": [
        0.001953125,
        0.2958984375
      ],
      "type": "VEC2"
    },
    {
      "bufferView": 1,
      "componentType": 5123,
      "count": 582,
      "type": "SCALAR"
    }
  ],
  "bufferViews": [
    {
      "buffer": 0,
      "byteLength": 5760,
      "byteStride": 32,
      "target": 34962
    },
    {
      "buffer": 0,
      "byteLength": 1164,
      "byteOffset": 5760,
      "target": 34963
    }
  ],
  "buffers": [
    {
      "byteLength": 6924,
      "uri": "3060435073507072456557_LOD00.bin"
    }
  ],
  "images": [
    {
      "uri": "3060435073507072456557_LOD00.png"
    }
  ],
  "materials": [
    {
      "doubleSided": true,
      "pbrMetallicRoughness": {
        "baseColorTexture": {
          "index": 0
        },
        "metallicFactor": 0
      }
    }
  ],
  "meshes": [
    {
      "name": "3060435073507072456557_0",
      "primitives": [
        {
          "attributes": {
            "POSITION": 0,
            "NORMAL": 1,
            "TEXCOORD_0": 2
          },
          "indices": 3,
          "material": 0
        }
      ]
    }
  ],
  "nodes": [
    {
      "mesh": 0
    }
  ],
  "scene": 0,
  "scenes": [
    {
      "nodes": [
        0
      ]
    }
  ],
  "textures": [
    {
      "source": 0
    }
  ]
}