{
  "asset": {
    "copyright": "",
    "generator": "SharpGLTF 1.0.0",
    "version": "2.0"
  },
  "accessors": [
    {
      "name": "POSITION",
      "bufferView": 0,
      "componentType": 5126,
      "count": 474,
      "max": [
        -189.15420532226563,
        19.863039016723633,
        76.351722717285156
      ],
      "min": [
        -201.121337890625,
        10.47569751739502,
        67.73760986328125
      ],
      "type": "VEC3"
    },
    {
      "name": "NORMAL",
      "bufferView": 0,
      "byteOffset": 12,
      "componentType": 5126,
      "count": 474,
      "max": [
        0.62321120500564575,
        0.46412885189056396,
        0.91262340545654297
      ],
      "min": [
        -0.61912590265274048,
        -0.51496696472167969,
        -0.91454845666885376
      ],
      "type": "VEC3"
    },
    {
      "name": "TEXCOORD_0",
      "bufferView": 0,
      "byteOffset": 24,
      "componentType": 5126,
      "count": 474,
      "max": [
        0.998046875,
        0.9990234375
      ],
      "min": [
        0.001953125,
        0.0244140625
      ],
      "type": "VEC2"
    },
    {
      "bufferView": 1,
      "componentType": 5123,
      "count": 1275,
      "type": "SCALAR"
    },
    {
      "name": "POSITION",
      "bufferView": 0,
      "byteOffset": 15168,
      "componentType": 5126,
      "count": 26,
      "max": [
        -195.16143798828125,
        19.767677307128906,
        72.639701843261719
      ],
      "min": [
        -198.64215087890625,
        11.380889892578125,
        70.164947509765625
      ],
      "type": "VEC3"
    },
    {
      "name": "NORMAL",
      "bufferView": 0,
      "byteOffset": 15180,
      "componentType": 5126,
      "count": 26,
      "max": [
        0.49211275577545166,
        0.41314950585365295,
        0.91262340545654297
      ],
      "min": [
        -0.39901420474052429,
        -0.51496696472167969,
        -0.83497142791748047
      ],
      "type": "VEC3"
    },
    {
      "name": "TEXCOORD_0",
      "bufferView": 0,
      "byteOffset": 15192,
      "componentType": 5126,
      "count": 26,
      "max": [
        0.677734375,
        0.998046875
      ],
      "min": [
        0.001953125,
        0.666015625
      ],
      "type": "VEC2"
    },
    {
      "bufferView": 1,
      "byteOffset": 2550,
      "componentType": 5123,
      "count": 72,
      "type": "SCALAR"
    }
  ],
  "bufferViews": [
    {
      "buffer": 0,
      "byteLength": 16000,
      "byteStride": 32,
      "target": 34962
    },
    {
      "buffer": 0,
      "byteLength": 2694,
      "byteOffset": 16000,
      "target": 34963
    }
  ],
  "buffers": [
    {
      "byteLength": 18696,
      "uri": "3060435073507076011210_LOD00.bin"
    }
  ],
  "images": [
    {
      "uri": "3060435073507076011210_LOD00_0.png"
    },
    {
      "uri": "3060435073507076011210_LOD00_1.png"
    }
  ],
  "materials": [
    {
      "doubleSided": true,
      "pbrMetallicRoughness": {
        "baseColorTexture": {
          "index": 0
        },
        "metallicFactor": 0
      }
    },
    {
      "doubleSided": true,
      "pbrMetallicRoughness": {
        "baseColorTexture": {
          "index": 1
        },
        "metallicFactor": 0
      }
    }
  ],
  "meshes": [
    {
      "name": "3060435073507076011210_0",
      "primitives": [
        {
          "attributes": {
            "POSITION": 0,
            "NORMAL": 1,
            "TEXCOORD_0": 2
          },
          "indices": 3,
          "material": 0
        }
      ]
    },
    {
      "name": "3060435073507076011210_1",
      "primitives": [
        {
          "attributes": {
            "POSITION": 4,
            "NORMAL": 5,
            "TEXCOORD_0": 6
          },
          "indices": 7,
          "material": 1
        }
      ]
    }
  ],
  "nodes": [
    {
      "mesh": 0
    },
    {
      "mesh": 1
    }
  ],
  "scene": 0,
  "scenes": [
    {
      "nodes": [
        0,
        1
      ]
    }
  ],
  "textures": [
    {
      "source": 0
    },
    {
      "source": 1
    }
  ]
}