{
  "asset": {
    "copyright": "",
    "generator": "SharpGLTF 1.0.0",
    "version": "2.0"
  },
  "accessors": [
    {
      "name": "POSITION",
      "bufferView": 0,
      "componentType": 5126,
      "count": 390,
      "max": [
        -71.008399963378906,
        12.952506065368652,
        229.55833435058594
      ],
      "min": [
        -82.974952697753906,
        10.474291801452637,
        220.04032897949219
      ],
      "type": "VEC3"
    },
    {
      "name": "NORMAL",
      "bufferView": 0,
      "byteOffset": 12,
      "componentType": 5126,
      "count": 390,
      "max": [
        0.75887930393218994,
        0.98905813694000244,
        0.88049924373626709
      ],
      "min": [
        -0.50288653373718262,
        0.32363814115524292,
        -0.77004349231719971
      ],
      "type": "VEC3"
    },
    {
      "name": "TEXCOORD_0",
      "bufferView": 0,
      "byteOffset": 24,
      "componentType": 5126,
      "count": 390,
      "max": [
        0.998046875,
        0.998046875
      ],
      "min": [
        0.001953125,
        0.607421875
      ],
      "type": "VEC2"
    },
    {
      "bufferView": 1,
      "componentType": 5123,
      "count": 1218,
      "type": "SCALAR"
    }
  ],
  "bufferViews": [
    {
      "buffer": 0,
      "byteLength": 12480,
      "byteStride": 32,
      "target": 34962
    },
    {
      "buffer": 0,
      "byteLength": 2436,
      "byteOffset": 12480,
      "target": 34963
    }
  ],
  "buffers": [
    {
      "byteLength": 14916,
      "uri": "3060435073507076030200_LOD00.bin"
    }
  ],
  "images": [
    {
      "uri": "3060435073507076030200_LOD00.png"
    }
  ],
  "materials": [
    {
      "doubleSided": true,
      "pbrMetallicRoughness": {
        "baseColorTexture": {
          "index": 0
        },
        "metallicFactor": 0
      }
    }
  ],
  "meshes": [
    {
      "name": "3060435073507076030200_0",
      "primitives": [
        {
          "attributes": {
            "POSITION": 0,
            "NORMAL": 1,
            "TEXCOORD_0": 2
          },
          "indices": 3,
          "material": 0
        }
      ]
    }
  ],
  "nodes": [
    {
      "mesh": 0
    }
  ],
  "scene": 0,
  "scenes": [
    {
      "nodes": [
        0
      ]
    }
  ],
  "textures": [
    {
      "source": 0
    }
  ]
}