{
  "asset": {
    "copyright": "",
    "generator": "SharpGLTF 1.0.0",
    "version": "2.0"
  },
  "accessors": [
    {
      "name": "POSITION",
      "bufferView": 0,
      "componentType": 5126,
      "count": 365,
      "max": [
        -130.15008544921875,
        29.053268432617188,
        226.37132263183594
      ],
      "min": [
        -131.58070373535156,
        19.6180419921875,
        220.08934020996094
      ],
      "type": "VEC3"
    },
    {
      "name": "NORMAL",
      "bufferView": 0,
      "byteOffset": 12,
      "componentType": 5126,
      "count": 365,
      "max": [
        0.99931758642196655,
        0.52090913057327271,
        0.41923102736473083
      ],
      "min": [
        -0.36227193474769592,
        -0.37431582808494568,
        -0.99437910318374634
      ],
      "type": "VEC3"
    },
    {
      "name": "TEXCOORD_0",
      "bufferView": 0,
      "byteOffset": 24,
      "componentType": 5126,
      "count": 365,
      "max": [
        0.998046875,
        0.998046875
      ],
      "min": [
        0.001953125,
        0.634765625
      ],
      "type": "VEC2"
    },
    {
      "bufferView": 1,
      "componentType": 5123,
      "count": 1035,
      "type": "SCALAR"
    }
  ],
  "bufferViews": [
    {
      "buffer": 0,
      "byteLength": 11680,
      "byteStride": 32,
      "target": 34962
    },
    {
      "buffer": 0,
      "byteLength": 2070,
      "byteOffset": 11680,
      "target": 34963
    }
  ],
  "buffers": [
    {
      "byteLength": 13752,
      "uri": "3060435073507076030305_LOD00.bin"
    }
  ],
  "images": [
    {
      "uri": "3060435073507076030305_LOD00.png"
    }
  ],
  "materials": [
    {
      "doubleSided": true,
      "pbrMetallicRoughness": {
        "baseColorTexture": {
          "index": 0
        },
        "metallicFactor": 0
      }
    }
  ],
  "meshes": [
    {
      "name": "3060435073507076030305_0",
      "primitives": [
        {
          "attributes": {
            "POSITION": 0,
            "NORMAL": 1,
            "TEXCOORD_0": 2
          },
          "indices": 3,
          "material": 0
        }
      ]
    }
  ],
  "nodes": [
    {
      "mesh": 0
    }
  ],
  "scene": 0,
  "scenes": [
    {
      "nodes": [
        0
      ]
    }
  ],
  "textures": [
    {
      "source": 0
    }
  ]
}