{
  "asset": {
    "copyright": "",
    "generator": "SharpGLTF 1.0.0",
    "version": "2.0"
  },
  "accessors": [
    {
      "name": "POSITION",
      "bufferView": 0,
      "componentType": 5126,
      "count": 819,
      "max": [
        -35.884922027587891,
        23.806787490844727,
        362.83782958984375
      ],
      "min": [
        -47.565254211425781,
        19.613424301147461,
        353.12954711914063
      ],
      "type": "VEC3"
    },
    {
      "name": "NORMAL",
      "bufferView": 0,
      "byteOffset": 12,
      "componentType": 5126,
      "count": 819,
      "max": [
        0.98829782009124756,
        0.99897366762161255,
        0.99634462594985962
      ],
      "min": [
        -0.99915552139282227,
        -0.78201526403427124,
        -0.99054235219955444
      ],
      "type": "VEC3"
    },
    {
      "name": "TEXCOORD_0",
      "bufferView": 0,
      "byteOffset": 24,
      "componentType": 5126,
      "count": 819,
      "max": [
        0.998046875,
        0.9990234375
      ],
      "min": [
        0.001953125,
        0.4404296875
      ],
      "type": "VEC2"
    },
    {
      "bufferView": 1,
      "componentType": 5123,
      "count": 2061,
      "type": "SCALAR"
    }
  ],
  "bufferViews": [
    {
      "buffer": 0,
      "byteLength": 26208,
      "byteStride": 32,
      "target": 34962
    },
    {
      "buffer": 0,
      "byteLength": 4122,
      "byteOffset": 26208,
      "target": 34963
    }
  ],
  "buffers": [
    {
      "byteLength": 30332,
      "uri": "3060435073507076201125_LOD00.bin"
    }
  ],
  "images": [
    {
      "uri": "3060435073507076201125_LOD00.png"
    }
  ],
  "materials": [
    {
      "doubleSided": true,
      "pbrMetallicRoughness": {
        "baseColorTexture": {
          "index": 0
        },
        "metallicFactor": 0
      }
    }
  ],
  "meshes": [
    {
      "name": "3060435073507076201125_0",
      "primitives": [
        {
          "attributes": {
            "POSITION": 0,
            "NORMAL": 1,
            "TEXCOORD_0": 2
          },
          "indices": 3,
          "material": 0
        }
      ]
    }
  ],
  "nodes": [
    {
      "mesh": 0
    }
  ],
  "scene": 0,
  "scenes": [
    {
      "nodes": [
        0
      ]
    }
  ],
  "textures": [
    {
      "source": 0
    }
  ]
}