{
  "asset": {
    "copyright": "",
    "generator": "SharpGLTF 1.0.0",
    "version": "2.0"
  },
  "accessors": [
    {
      "name": "POSITION",
      "bufferView": 0,
      "componentType": 5126,
      "count": 287,
      "max": [
        11.674689292907715,
        19.754613876342773,
        462.34222412109375
      ],
      "min": [
        -0.19602400064468384,
        10.605130195617676,
        457.96408081054688
      ],
      "type": "VEC3"
    },
    {
      "name": "NORMAL",
      "bufferView": 0,
      "byteOffset": 12,
      "componentType": 5126,
      "count": 287,
      "max": [
        0.78445345163345337,
        0.99595797061920166,
        0.99914968013763428
      ],
      "min": [
        -0.46883642673492432,
        -0.51109582185745239,
        -0.44150611758232117
      ],
      "type": "VEC3"
    },
    {
      "name": "TEXCOORD_0",
      "bufferView": 0,
      "byteOffset": 24,
      "componentType": 5126,
      "count": 287,
      "max": [
        0.990234375,
        0.998046875
      ],
      "min": [
        0.001953125,
        0.041015625
      ],
      "type": "VEC2"
    },
    {
      "bufferView": 1,
      "componentType": 5123,
      "count": 921,
      "type": "SCALAR"
    }
  ],
  "bufferViews": [
    {
      "buffer": 0,
      "byteLength": 9184,
      "byteStride": 32,
      "target": 34962
    },
    {
      "buffer": 0,
      "byteLength": 1842,
      "byteOffset": 9184,
      "target": 34963
    }
  ],
  "buffers": [
    {
      "byteLength": 11028,
      "uri": "3060435073507076203203_LOD00.bin"
    }
  ],
  "images": [
    {
      "uri": "3060435073507076203203_LOD00.png"
    }
  ],
  "materials": [
    {
      "doubleSided": true,
      "pbrMetallicRoughness": {
        "baseColorTexture": {
          "index": 0
        },
        "metallicFactor": 0
      }
    }
  ],
  "meshes": [
    {
      "name": "3060435073507076203203_0",
      "primitives": [
        {
          "attributes": {
            "POSITION": 0,
            "NORMAL": 1,
            "TEXCOORD_0": 2
          },
          "indices": 3,
          "material": 0
        }
      ]
    }
  ],
  "nodes": [
    {
      "mesh": 0
    }
  ],
  "scene": 0,
  "scenes": [
    {
      "nodes": [
        0
      ]
    }
  ],
  "textures": [
    {
      "source": 0
    }
  ]
}