{
  "asset": {
    "copyright": "",
    "generator": "SharpGLTF 1.0.0",
    "version": "2.0"
  },
  "accessors": [
    {
      "name": "POSITION",
      "bufferView": 0,
      "componentType": 5126,
      "count": 1373,
      "max": [
        -201.01884460449219,
        10.622330665588379,
        125.05963134765625
      ],
      "min": [
        -212.98606872558594,
        7.8106069564819336,
        115.446533203125
      ],
      "type": "VEC3"
    },
    {
      "name": "NORMAL",
      "bufferView": 0,
      "byteOffset": 12,
      "componentType": 5126,
      "count": 1373,
      "max": [
        0.9944007396697998,
        0.99998456239700317,
        0.97499066591262817
      ],
      "min": [
        -0.9777379035949707,
        -1,
        -0.98745161294937134
      ],
      "type": "VEC3"
    },
    {
      "name": "TEXCOORD_0",
      "bufferView": 0,
      "byteOffset": 24,
      "componentType": 5126,
      "count": 1373,
      "max": [
        0.998046875,
        0.9990234375
      ],
      "min": [
        0.001953125,
        0.0009765625
      ],
      "type": "VEC2"
    },
    {
      "bufferView": 1,
      "componentType": 5123,
      "count": 3591,
      "type": "SCALAR"
    },
    {
      "name": "POSITION",
      "bufferView": 0,
      "byteOffset": 43936,
      "componentType": 5126,
      "count": 101,
      "max": [
        -201.066650390625,
        10.622284889221191,
        124.96467590332031
      ],
      "min": [
        -212.55665588378906,
        8.6206159591674805,
        115.44688415527344
      ],
      "type": "VEC3"
    },
    {
      "name": "NORMAL",
      "bufferView": 0,
      "byteOffset": 43948,
      "componentType": 5126,
      "count": 101,
      "max": [
        0.98344773054122925,
        0.99596607685089111,
        0.91869992017745972
      ],
      "min": [
        -0.9777379035949707,
        -0.43335282802581787,
        -0.98745161294937134
      ],
      "type": "VEC3"
    },
    {
      "name": "TEXCOORD_0",
      "bufferView": 0,
      "byteOffset": 43960,
      "componentType": 5126,
      "count": 101,
      "max": [
        0.990234375,
        0.998046875
      ],
      "min": [
        0.001953125,
        0.822265625
      ],
      "type": "VEC2"
    },
    {
      "bufferView": 1,
      "byteOffset": 7182,
      "componentType": 5123,
      "count": 225,
      "type": "SCALAR"
    }
  ],
  "bufferViews": [
    {
      "buffer": 0,
      "byteLength": 47168,
      "byteStride": 32,
      "target": 34962
    },
    {
      "buffer": 0,
      "byteLength": 7632,
      "byteOffset": 47168,
      "target": 34963
    }
  ],
  "buffers": [
    {
      "byteLength": 54800,
      "uri": "3060435073507072457457_LOD00.bin"
    }
  ],
  "images": [
    {
      "uri": "3060435073507072457457_LOD00_0.png"
    },
    {
      "uri": "3060435073507072457457_LOD00_1.png"
    }
  ],
  "materials": [
    {
      "doubleSided": true,
      "pbrMetallicRoughness": {
        "baseColorTexture": {
          "index": 0
        },
        "metallicFactor": 0
      }
    },
    {
      "doubleSided": true,
      "pbrMetallicRoughness": {
        "baseColorTexture": {
          "index": 1
        },
        "metallicFactor": 0
      }
    }
  ],
  "meshes": [
    {
      "name": "3060435073507072457457_0",
      "primitives": [
        {
          "attributes": {
            "POSITION": 0,
            "NORMAL": 1,
            "TEXCOORD_0": 2
          },
          "indices": 3,
          "material": 0
        }
      ]
    },
    {
      "name": "3060435073507072457457_1",
      "primitives": [
        {
          "attributes": {
            "POSITION": 4,
            "NORMAL": 5,
            "TEXCOORD_0": 6
          },
          "indices": 7,
          "material": 1
        }
      ]
    }
  ],
  "nodes": [
    {
      "mesh": 0
    },
    {
      "mesh": 1
    }
  ],
  "scene": 0,
  "scenes": [
    {
      "nodes": [
        0,
        1
      ]
    }
  ],
  "textures": [
    {
      "source": 0
    },
    {
      "source": 1
    }
  ]
}