{
  "asset": {
    "copyright": "",
    "generator": "SharpGLTF 1.0.0",
    "version": "2.0"
  },
  "accessors": [
    {
      "name": "POSITION",
      "bufferView": 0,
      "componentType": 5126,
      "count": 213,
      "max": [
        -141.97128295898438,
        41.244380950927734,
        153.55061340332031
      ],
      "min": [
        -153.79515075683594,
        38.051418304443359,
        150.64729309082031
      ],
      "type": "VEC3"
    },
    {
      "name": "NORMAL",
      "bufferView": 0,
      "byteOffset": 12,
      "componentType": 5126,
      "count": 213,
      "max": [
        0.062150496989488602,
        0.99596637487411499,
        -0.089625425636768341
      ],
      "min": [
        -0.3283143937587738,
        -0.71137320995330811,
        -0.99482953548431396
      ],
      "type": "VEC3"
    },
    {
      "name": "TEXCOORD_0",
      "bufferView": 0,
      "byteOffset": 24,
      "componentType": 5126,
      "count": 213,
      "max": [
        0.998046875,
        0.998046875
      ],
      "min": [
        0.001953125,
        0.365234375
      ],
      "type": "VEC2"
    },
    {
      "bufferView": 1,
      "componentType": 5123,
      "count": 618,
      "type": "SCALAR"
    }
  ],
  "bufferViews": [
    {
      "buffer": 0,
      "byteLength": 6816,
      "byteStride": 32,
      "target": 34962
    },
    {
      "buffer": 0,
      "byteLength": 1236,
      "byteOffset": 6816,
      "target": 34963
    }
  ],
  "buffers": [
    {
      "byteLength": 8052,
      "uri": "3060435073507076012354_LOD00.bin"
    }
  ],
  "images": [
    {
      "uri": "3060435073507076012354_LOD00.png"
    }
  ],
  "materials": [
    {
      "doubleSided": true,
      "pbrMetallicRoughness": {
        "baseColorTexture": {
          "index": 0
        },
        "metallicFactor": 0
      }
    }
  ],
  "meshes": [
    {
      "name": "3060435073507076012354_0",
      "primitives": [
        {
          "attributes": {
            "POSITION": 0,
            "NORMAL": 1,
            "TEXCOORD_0": 2
          },
          "indices": 3,
          "material": 0
        }
      ]
    }
  ],
  "nodes": [
    {
      "mesh": 0
    }
  ],
  "scene": 0,
  "scenes": [
    {
      "nodes": [
        0
      ]
    }
  ],
  "textures": [
    {
      "source": 0
    }
  ]
}