{
  "asset": {
    "copyright": "",
    "generator": "SharpGLTF 1.0.0",
    "version": "2.0"
  },
  "accessors": [
    {
      "name": "POSITION",
      "bufferView": 0,
      "componentType": 5126,
      "count": 475,
      "max": [
        -260.15585327148438,
        10.617369651794434,
        239.12554931640625
      ],
      "min": [
        -271.9798583984375,
        9.5682783126831055,
        229.46446228027344
      ],
      "type": "VEC3"
    },
    {
      "name": "NORMAL",
      "bufferView": 0,
      "byteOffset": 12,
      "componentType": 5126,
      "count": 475,
      "max": [
        0.97697138786315918,
        0.9999847412109375,
        0.99044579267501831
      ],
      "min": [
        -0.9429466724395752,
        -0.20782358944416046,
        -0.99634981155395508
      ],
      "type": "VEC3"
    },
    {
      "name": "TEXCOORD_0",
      "bufferView": 0,
      "byteOffset": 24,
      "componentType": 5126,
      "count": 475,
      "max": [
        0.998046875,
        0.998046875
      ],
      "min": [
        0.001953125,
        0.212890625
      ],
      "type": "VEC2"
    },
    {
      "bufferView": 1,
      "componentType": 5123,
      "count": 1395,
      "type": "SCALAR"
    }
  ],
  "bufferViews": [
    {
      "buffer": 0,
      "byteLength": 15200,
      "byteStride": 32,
      "target": 34962
    },
    {
      "buffer": 0,
      "byteLength": 2790,
      "byteOffset": 15200,
      "target": 34963
    }
  ],
  "buffers": [
    {
      "byteLength": 17992,
      "uri": "3060435073507072564646_LOD00.bin"
    }
  ],
  "images": [
    {
      "uri": "3060435073507072564646_LOD00.png"
    }
  ],
  "materials": [
    {
      "doubleSided": true,
      "pbrMetallicRoughness": {
        "baseColorTexture": {
          "index": 0
        },
        "metallicFactor": 0
      }
    }
  ],
  "meshes": [
    {
      "name": "3060435073507072564646_0",
      "primitives": [
        {
          "attributes": {
            "POSITION": 0,
            "NORMAL": 1,
            "TEXCOORD_0": 2
          },
          "indices": 3,
          "material": 0
        }
      ]
    }
  ],
  "nodes": [
    {
      "mesh": 0
    }
  ],
  "scene": 0,
  "scenes": [
    {
      "nodes": [
        0
      ]
    }
  ],
  "textures": [
    {
      "source": 0
    }
  ]
}