{
  "asset": {
    "copyright": "",
    "generator": "SharpGLTF 1.0.0",
    "version": "2.0"
  },
  "accessors": [
    {
      "name": "POSITION",
      "bufferView": 0,
      "componentType": 5126,
      "count": 508,
      "max": [
        -47.418464660644531,
        11.666461944580078,
        220.09254455566406
      ],
      "min": [
        -59.289745330810547,
        10.474883079528809,
        210.52703857421875
      ],
      "type": "VEC3"
    },
    {
      "name": "NORMAL",
      "bufferView": 0,
      "byteOffset": 12,
      "componentType": 5126,
      "count": 508,
      "max": [
        0.99637216329574585,
        0.99998462200164795,
        0.70102870464324951
      ],
      "min": [
        -0.809975266456604,
        -0.0042512756772339344,
        -0.6979748010635376
      ],
      "type": "VEC3"
    },
    {
      "name": "TEXCOORD_0",
      "bufferView": 0,
      "byteOffset": 24,
      "componentType": 5126,
      "count": 508,
      "max": [
        0.998046875,
        0.998046875
      ],
      "min": [
        0.001953125,
        0.205078125
      ],
      "type": "VEC2"
    },
    {
      "bufferView": 1,
      "componentType": 5123,
      "count": 1437,
      "type": "SCALAR"
    }
  ],
  "bufferViews": [
    {
      "buffer": 0,
      "byteLength": 16256,
      "byteStride": 32,
      "target": 34962
    },
    {
      "buffer": 0,
      "byteLength": 2874,
      "byteOffset": 16256,
      "target": 34963
    }
  ],
  "buffers": [
    {
      "byteLength": 19132,
      "uri": "3060435073507076021132_LOD00.bin"
    }
  ],
  "images": [
    {
      "uri": "3060435073507076021132_LOD00.png"
    }
  ],
  "materials": [
    {
      "doubleSided": true,
      "pbrMetallicRoughness": {
        "baseColorTexture": {
          "index": 0
        },
        "metallicFactor": 0
      }
    }
  ],
  "meshes": [
    {
      "name": "3060435073507076021132_0",
      "primitives": [
        {
          "attributes": {
            "POSITION": 0,
            "NORMAL": 1,
            "TEXCOORD_0": 2
          },
          "indices": 3,
          "material": 0
        }
      ]
    }
  ],
  "nodes": [
    {
      "mesh": 0
    }
  ],
  "scene": 0,
  "scenes": [
    {
      "nodes": [
        0
      ]
    }
  ],
  "textures": [
    {
      "source": 0
    }
  ]
}