{
  "asset": {
    "copyright": "",
    "generator": "SharpGLTF 1.0.0",
    "version": "2.0"
  },
  "accessors": [
    {
      "name": "POSITION",
      "bufferView": 0,
      "componentType": 5126,
      "count": 250,
      "max": [
        -4.529388427734375,
        10.769366264343262,
        17.460607528686523
      ],
      "min": [
        -11.96710205078125,
        8.5297117233276367,
        10.655304908752441
      ],
      "type": "VEC3"
    },
    {
      "name": "NORMAL",
      "bufferView": 0,
      "byteOffset": 12,
      "componentType": 5126,
      "count": 250,
      "max": [
        0.26146587729454041,
        0.99998438358306885,
        0.62744826078414917
      ],
      "min": [
        -0.99440592527389526,
        -0.70026421546936035,
        -0.99525946378707886
      ],
      "type": "VEC3"
    },
    {
      "name": "TEXCOORD_0",
      "bufferView": 0,
      "byteOffset": 24,
      "componentType": 5126,
      "count": 250,
      "max": [
        0.998046875,
        0.998046875
      ],
      "min": [
        0.001953125,
        0.380859375
      ],
      "type": "VEC2"
    },
    {
      "bufferView": 1,
      "componentType": 5123,
      "count": 663,
      "type": "SCALAR"
    }
  ],
  "bufferViews": [
    {
      "buffer": 0,
      "byteLength": 8000,
      "byteStride": 32,
      "target": 34962
    },
    {
      "buffer": 0,
      "byteLength": 1326,
      "byteOffset": 8000,
      "target": 34963
    }
  ],
  "buffers": [
    {
      "byteLength": 9328,
      "uri": "3060435073507070667674_LOD00.bin"
    }
  ],
  "images": [
    {
      "uri": "3060435073507070667674_LOD00.png"
    }
  ],
  "materials": [
    {
      "doubleSided": true,
      "pbrMetallicRoughness": {
        "baseColorTexture": {
          "index": 0
        },
        "metallicFactor": 0
      }
    }
  ],
  "meshes": [
    {
      "name": "3060435073507070667674_0",
      "primitives": [
        {
          "attributes": {
            "POSITION": 0,
            "NORMAL": 1,
            "TEXCOORD_0": 2
          },
          "indices": 3,
          "material": 0
        }
      ]
    }
  ],
  "nodes": [
    {
      "mesh": 0
    }
  ],
  "scene": 0,
  "scenes": [
    {
      "nodes": [
        0
      ]
    }
  ],
  "textures": [
    {
      "source": 0
    }
  ]
}