{
  "asset": {
    "copyright": "",
    "generator": "SharpGLTF 1.0.0",
    "version": "2.0"
  },
  "accessors": [
    {
      "name": "POSITION",
      "bufferView": 0,
      "componentType": 5126,
      "count": 899,
      "max": [
        -1.4341677342599723E-05,
        19.77079963684082,
        29.924324035644531
      ],
      "min": [
        -11.967099189758301,
        10.621580123901367,
        20.311223983764648
      ],
      "type": "VEC3"
    },
    {
      "name": "NORMAL",
      "bufferView": 0,
      "byteOffset": 12,
      "componentType": 5126,
      "count": 899,
      "max": [
        0.99490070343017578,
        0.99998438358306885,
        0.99817025661468506
      ],
      "min": [
        -0.9999922513961792,
        -0.45469942688941956,
        -0.99798190593719482
      ],
      "type": "VEC3"
    },
    {
      "name": "TEXCOORD_0",
      "bufferView": 0,
      "byteOffset": 24,
      "componentType": 5126,
      "count": 899,
      "max": [
        0.998046875,
        0.9990234375
      ],
      "min": [
        0.001953125,
        0.0009765625
      ],
      "type": "VEC2"
    },
    {
      "bufferView": 1,
      "componentType": 5123,
      "count": 2475,
      "type": "SCALAR"
    },
    {
      "name": "POSITION",
      "bufferView": 0,
      "byteOffset": 28768,
      "componentType": 5126,
      "count": 54,
      "max": [
        -0.14304722845554352,
        17.76939582824707,
        29.829166412353516
      ],
      "min": [
        -6.245783805847168,
        10.621585845947266,
        25.070188522338867
      ],
      "type": "VEC3"
    },
    {
      "name": "NORMAL",
      "bufferView": 0,
      "byteOffset": 28780,
      "componentType": 5126,
      "count": 54,
      "max": [
        0.17090821266174316,
        0.99897098541259766,
        0.88340568542480469
      ],
      "min": [
        -0.9999922513961792,
        -0.29044556617736816,
        -0.99087047576904297
      ],
      "type": "VEC3"
    },
    {
      "name": "TEXCOORD_0",
      "bufferView": 0,
      "byteOffset": 28792,
      "componentType": 5126,
      "count": 54,
      "max": [
        0.435546875,
        0.998046875
      ],
      "min": [
        0.001953125,
        0.845703125
      ],
      "type": "VEC2"
    },
    {
      "bufferView": 1,
      "byteOffset": 4950,
      "componentType": 5123,
      "count": 168,
      "type": "SCALAR"
    }
  ],
  "bufferViews": [
    {
      "buffer": 0,
      "byteLength": 30496,
      "byteStride": 32,
      "target": 34962
    },
    {
      "buffer": 0,
      "byteLength": 5286,
      "byteOffset": 30496,
      "target": 34963
    }
  ],
  "buffers": [
    {
      "byteLength": 35784,
      "uri": "3060435073507074223232_LOD00.bin"
    }
  ],
  "images": [
    {
      "uri": "3060435073507074223232_LOD00_0.png"
    },
    {
      "uri": "3060435073507074223232_LOD00_1.png"
    }
  ],
  "materials": [
    {
      "doubleSided": true,
      "pbrMetallicRoughness": {
        "baseColorTexture": {
          "index": 0
        },
        "metallicFactor": 0
      }
    },
    {
      "doubleSided": true,
      "pbrMetallicRoughness": {
        "baseColorTexture": {
          "index": 1
        },
        "metallicFactor": 0
      }
    }
  ],
  "meshes": [
    {
      "name": "3060435073507074223232_0",
      "primitives": [
        {
          "attributes": {
            "POSITION": 0,
            "NORMAL": 1,
            "TEXCOORD_0": 2
          },
          "indices": 3,
          "material": 0
        }
      ]
    },
    {
      "name": "3060435073507074223232_1",
      "primitives": [
        {
          "attributes": {
            "POSITION": 4,
            "NORMAL": 5,
            "TEXCOORD_0": 6
          },
          "indices": 7,
          "material": 1
        }
      ]
    }
  ],
  "nodes": [
    {
      "mesh": 0
    },
    {
      "mesh": 1
    }
  ],
  "scene": 0,
  "scenes": [
    {
      "nodes": [
        0,
        1
      ]
    }
  ],
  "textures": [
    {
      "source": 0
    },
    {
      "source": 1
    }
  ]
}