{
  "asset": {
    "copyright": "",
    "generator": "SharpGLTF 1.0.0",
    "version": "2.0"
  },
  "accessors": [
    {
      "name": "POSITION",
      "bufferView": 0,
      "componentType": 5126,
      "count": 819,
      "max": [
        -47.4197998046875,
        22.815402984619141,
        67.882057189941406
      ],
      "min": [
        -59.291522979736328,
        19.622617721557617,
        58.221336364746094
      ],
      "type": "VEC3"
    },
    {
      "name": "NORMAL",
      "bufferView": 0,
      "byteOffset": 12,
      "componentType": 5126,
      "count": 819,
      "max": [
        0.9730982780456543,
        0.99897170066833496,
        0.99086910486221313
      ],
      "min": [
        -0.99915558099746704,
        -0.4689270555973053,
        -0.99366295337677002
      ],
      "type": "VEC3"
    },
    {
      "name": "TEXCOORD_0",
      "bufferView": 0,
      "byteOffset": 24,
      "componentType": 5126,
      "count": 819,
      "max": [
        0.998046875,
        0.998046875
      ],
      "min": [
        0.001953125,
        0.150390625
      ],
      "type": "VEC2"
    },
    {
      "bufferView": 1,
      "componentType": 5123,
      "count": 2319,
      "type": "SCALAR"
    }
  ],
  "bufferViews": [
    {
      "buffer": 0,
      "byteLength": 26208,
      "byteStride": 32,
      "target": 34962
    },
    {
      "buffer": 0,
      "byteLength": 4638,
      "byteOffset": 26208,
      "target": 34963
    }
  ],
  "buffers": [
    {
      "byteLength": 30848,
      "uri": "3060435073507076001136_LOD00.bin"
    }
  ],
  "images": [
    {
      "uri": "3060435073507076001136_LOD00.png"
    }
  ],
  "materials": [
    {
      "doubleSided": true,
      "pbrMetallicRoughness": {
        "baseColorTexture": {
          "index": 0
        },
        "metallicFactor": 0
      }
    }
  ],
  "meshes": [
    {
      "name": "3060435073507076001136_0",
      "primitives": [
        {
          "attributes": {
            "POSITION": 0,
            "NORMAL": 1,
            "TEXCOORD_0": 2
          },
          "indices": 3,
          "material": 0
        }
      ]
    }
  ],
  "nodes": [
    {
      "mesh": 0
    }
  ],
  "scene": 0,
  "scenes": [
    {
      "nodes": [
        0
      ]
    }
  ],
  "textures": [
    {
      "source": 0
    }
  ]
}