{
  "asset": {
    "copyright": "",
    "generator": "SharpGLTF 1.0.0",
    "version": "2.0"
  },
  "accessors": [
    {
      "name": "POSITION",
      "bufferView": 0,
      "componentType": 5126,
      "count": 477,
      "max": [
        -0.00012652036093641073,
        10.62562370300293,
        115.54271697998047
      ],
      "min": [
        -9.630828857421875,
        9.5772533416748047,
        105.92961883544922
      ],
      "type": "VEC3"
    },
    {
      "name": "NORMAL",
      "bufferView": 0,
      "byteOffset": 12,
      "componentType": 5126,
      "count": 477,
      "max": [
        0.99044132232666016,
        0.9999842643737793,
        0.79948437213897705
      ],
      "min": [
        -0.99044132232666016,
        -0.33741703629493713,
        -0.96993350982666016
      ],
      "type": "VEC3"
    },
    {
      "name": "TEXCOORD_0",
      "bufferView": 0,
      "byteOffset": 24,
      "componentType": 5126,
      "count": 477,
      "max": [
        0.998046875,
        0.998046875
      ],
      "min": [
        0.001953125,
        0.318359375
      ],
      "type": "VEC2"
    },
    {
      "bufferView": 1,
      "componentType": 5123,
      "count": 1308,
      "type": "SCALAR"
    }
  ],
  "bufferViews": [
    {
      "buffer": 0,
      "byteLength": 15264,
      "byteStride": 32,
      "target": 34962
    },
    {
      "buffer": 0,
      "byteLength": 2616,
      "byteOffset": 15264,
      "target": 34963
    }
  ],
  "buffers": [
    {
      "byteLength": 17880,
      "uri": "3060435073507072447454_LOD00.bin"
    }
  ],
  "images": [
    {
      "uri": "3060435073507072447454_LOD00.png"
    }
  ],
  "materials": [
    {
      "doubleSided": true,
      "pbrMetallicRoughness": {
        "baseColorTexture": {
          "index": 0
        },
        "metallicFactor": 0
      }
    }
  ],
  "meshes": [
    {
      "name": "3060435073507072447454_0",
      "primitives": [
        {
          "attributes": {
            "POSITION": 0,
            "NORMAL": 1,
            "TEXCOORD_0": 2
          },
          "indices": 3,
          "material": 0
        }
      ]
    }
  ],
  "nodes": [
    {
      "mesh": 0
    }
  ],
  "scene": 0,
  "scenes": [
    {
      "nodes": [
        0
      ]
    }
  ],
  "textures": [
    {
      "source": 0
    }
  ]
}