{
  "asset": {
    "copyright": "",
    "generator": "SharpGLTF 1.0.0",
    "version": "2.0"
  },
  "accessors": [
    {
      "name": "POSITION",
      "bufferView": 0,
      "componentType": 5126,
      "count": 767,
      "max": [
        -177.37059020996094,
        10.70561408996582,
        420.01397705078125
      ],
      "min": [
        -189.2418212890625,
        4.9877853393554688,
        410.35348510742188
      ],
      "type": "VEC3"
    },
    {
      "name": "NORMAL",
      "bufferView": 0,
      "byteOffset": 12,
      "componentType": 5126,
      "count": 767,
      "max": [
        0.99931740760803223,
        0.9999847412109375,
        0.99039280414581299
      ],
      "min": [
        -0.97521018981933594,
        -0.99145615100860596,
        -0.97760778665542603
      ],
      "type": "VEC3"
    },
    {
      "name": "TEXCOORD_0",
      "bufferView": 0,
      "byteOffset": 24,
      "componentType": 5126,
      "count": 767,
      "max": [
        0.998046875,
        0.9990234375
      ],
      "min": [
        0.001953125,
        0.0029296875
      ],
      "type": "VEC2"
    },
    {
      "bufferView": 1,
      "componentType": 5123,
      "count": 2094,
      "type": "SCALAR"
    },
    {
      "name": "POSITION",
      "bufferView": 0,
      "byteOffset": 24544,
      "componentType": 5126,
      "count": 152,
      "max": [
        -177.37066650390625,
        10.610719680786133,
        419.9664306640625
      ],
      "min": [
        -185.23704528808594,
        5.0831484794616699,
        410.35348510742188
      ],
      "type": "VEC3"
    },
    {
      "name": "NORMAL",
      "bufferView": 0,
      "byteOffset": 24556,
      "componentType": 5126,
      "count": 152,
      "max": [
        0.91671222448348999,
        0.9999847412109375,
        0.99039280414581299
      ],
      "min": [
        -0.97521018981933594,
        -0.99510043859481812,
        -0.98335069417953491
      ],
      "type": "VEC3"
    },
    {
      "name": "TEXCOORD_0",
      "bufferView": 0,
      "byteOffset": 24568,
      "componentType": 5126,
      "count": 152,
      "max": [
        0.990234375,
        0.998046875
      ],
      "min": [
        0.001953125,
        0.603515625
      ],
      "type": "VEC2"
    },
    {
      "bufferView": 1,
      "byteOffset": 4188,
      "componentType": 5123,
      "count": 417,
      "type": "SCALAR"
    }
  ],
  "bufferViews": [
    {
      "buffer": 0,
      "byteLength": 29408,
      "byteStride": 32,
      "target": 34962
    },
    {
      "buffer": 0,
      "byteLength": 5022,
      "byteOffset": 29408,
      "target": 34963
    }
  ],
  "buffers": [
    {
      "byteLength": 34432,
      "uri": "3060435073507072657445_LOD00.bin"
    }
  ],
  "images": [
    {
      "uri": "3060435073507072657445_LOD00_0.png"
    },
    {
      "uri": "3060435073507072657445_LOD00_1.png"
    }
  ],
  "materials": [
    {
      "doubleSided": true,
      "pbrMetallicRoughness": {
        "baseColorTexture": {
          "index": 0
        },
        "metallicFactor": 0
      }
    },
    {
      "doubleSided": true,
      "pbrMetallicRoughness": {
        "baseColorTexture": {
          "index": 1
        },
        "metallicFactor": 0
      }
    }
  ],
  "meshes": [
    {
      "name": "3060435073507072657445_0",
      "primitives": [
        {
          "attributes": {
            "POSITION": 0,
            "NORMAL": 1,
            "TEXCOORD_0": 2
          },
          "indices": 3,
          "material": 0
        }
      ]
    },
    {
      "name": "3060435073507072657445_1",
      "primitives": [
        {
          "attributes": {
            "POSITION": 4,
            "NORMAL": 5,
            "TEXCOORD_0": 6
          },
          "indices": 7,
          "material": 1
        }
      ]
    }
  ],
  "nodes": [
    {
      "mesh": 0
    },
    {
      "mesh": 1
    }
  ],
  "scene": 0,
  "scenes": [
    {
      "nodes": [
        0,
        1
      ]
    }
  ],
  "textures": [
    {
      "source": 0
    },
    {
      "source": 1
    }
  ]
}