{
  "asset": {
    "copyright": "",
    "generator": "SharpGLTF 1.0.0",
    "version": "2.0"
  },
  "accessors": [
    {
      "name": "POSITION",
      "bufferView": 0,
      "componentType": 5126,
      "count": 486,
      "max": [
        -274.2225341796875,
        31.619848251342773,
        125.01620483398438
      ],
      "min": [
        -283.85333251953125,
        28.808010101318359,
        115.45038604736328
      ],
      "type": "VEC3"
    },
    {
      "name": "NORMAL",
      "bufferView": 0,
      "byteOffset": 12,
      "componentType": 5126,
      "count": 486,
      "max": [
        0.99466192722320557,
        0.99596577882766724,
        0.99487203359603882
      ],
      "min": [
        -0.99440711736679077,
        -0.88548320531845093,
        -0.99464136362075806
      ],
      "type": "VEC3"
    },
    {
      "name": "TEXCOORD_0",
      "bufferView": 0,
      "byteOffset": 24,
      "componentType": 5126,
      "count": 486,
      "max": [
        0.998046875,
        0.998046875
      ],
      "min": [
        0.001953125,
        0.400390625
      ],
      "type": "VEC2"
    },
    {
      "bufferView": 1,
      "componentType": 5123,
      "count": 1251,
      "type": "SCALAR"
    }
  ],
  "bufferViews": [
    {
      "buffer": 0,
      "byteLength": 15552,
      "byteStride": 32,
      "target": 34962
    },
    {
      "buffer": 0,
      "byteLength": 2502,
      "byteOffset": 15552,
      "target": 34963
    }
  ],
  "buffers": [
    {
      "byteLength": 18056,
      "uri": "3060435073507076102043_LOD00.bin"
    }
  ],
  "images": [
    {
      "uri": "3060435073507076102043_LOD00.png"
    }
  ],
  "materials": [
    {
      "doubleSided": true,
      "pbrMetallicRoughness": {
        "baseColorTexture": {
          "index": 0
        },
        "metallicFactor": 0
      }
    }
  ],
  "meshes": [
    {
      "name": "3060435073507076102043_0",
      "primitives": [
        {
          "attributes": {
            "POSITION": 0,
            "NORMAL": 1,
            "TEXCOORD_0": 2
          },
          "indices": 3,
          "material": 0
        }
      ]
    }
  ],
  "nodes": [
    {
      "mesh": 0
    }
  ],
  "scene": 0,
  "scenes": [
    {
      "nodes": [
        0
      ]
    }
  ],
  "textures": [
    {
      "source": 0
    }
  ]
}