{
  "asset": {
    "copyright": "",
    "generator": "SharpGLTF 1.0.0",
    "version": "2.0"
  },
  "accessors": [
    {
      "name": "POSITION",
      "bufferView": 0,
      "componentType": 5126,
      "count": 301,
      "max": [
        -23.780874252319336,
        10.622974395751953,
        220.23507690429688
      ],
      "min": [
        -35.604507446289063,
        9.6700239181518555,
        210.5743408203125
      ],
      "type": "VEC3"
    },
    {
      "name": "NORMAL",
      "bufferView": 0,
      "byteOffset": 12,
      "componentType": 5126,
      "count": 301,
      "max": [
        0.78035706281661987,
        0.99998462200164795,
        0.38953956961631775
      ],
      "min": [
        -0.2794283926486969,
        0.59572219848632813,
        -0.5123751163482666
      ],
      "type": "VEC3"
    },
    {
      "name": "TEXCOORD_0",
      "bufferView": 0,
      "byteOffset": 24,
      "componentType": 5126,
      "count": 301,
      "max": [
        0.998046875,
        0.998046875
      ],
      "min": [
        0.001953125,
        0.103515625
      ],
      "type": "VEC2"
    },
    {
      "bufferView": 1,
      "componentType": 5123,
      "count": 939,
      "type": "SCALAR"
    }
  ],
  "bufferViews": [
    {
      "buffer": 0,
      "byteLength": 9632,
      "byteStride": 32,
      "target": 34962
    },
    {
      "buffer": 0,
      "byteLength": 1878,
      "byteOffset": 9632,
      "target": 34963
    }
  ],
  "buffers": [
    {
      "byteLength": 11512,
      "uri": "3060435073507072465566_LOD00.bin"
    }
  ],
  "images": [
    {
      "uri": "3060435073507072465566_LOD00.png"
    }
  ],
  "materials": [
    {
      "doubleSided": true,
      "pbrMetallicRoughness": {
        "baseColorTexture": {
          "index": 0
        },
        "metallicFactor": 0
      }
    }
  ],
  "meshes": [
    {
      "name": "3060435073507072465566_0",
      "primitives": [
        {
          "attributes": {
            "POSITION": 0,
            "NORMAL": 1,
            "TEXCOORD_0": 2
          },
          "indices": 3,
          "material": 0
        }
      ]
    }
  ],
  "nodes": [
    {
      "mesh": 0
    }
  ],
  "scene": 0,
  "scenes": [
    {
      "nodes": [
        0
      ]
    }
  ],
  "textures": [
    {
      "source": 0
    }
  ]
}