{
  "asset": {
    "copyright": "",
    "generator": "SharpGLTF 1.0.0",
    "version": "2.0"
  },
  "accessors": [
    {
      "name": "POSITION",
      "bufferView": 0,
      "componentType": 5126,
      "count": 310,
      "max": [
        -177.3717041015625,
        18.708711624145508,
        391.332275390625
      ],
      "min": [
        -189.24296569824219,
        10.464359283447266,
        381.81463623046875
      ],
      "type": "VEC3"
    },
    {
      "name": "NORMAL",
      "bufferView": 0,
      "byteOffset": 12,
      "componentType": 5126,
      "count": 310,
      "max": [
        0.98829656839370728,
        0.99896919727325439,
        0.99914819002151489
      ],
      "min": [
        -0.98198455572128296,
        -0.96868813037872314,
        -0.9410017728805542
      ],
      "type": "VEC3"
    },
    {
      "name": "TEXCOORD_0",
      "bufferView": 0,
      "byteOffset": 24,
      "componentType": 5126,
      "count": 310,
      "max": [
        0.998046875,
        0.998046875
      ],
      "min": [
        0.001953125,
        0.576171875
      ],
      "type": "VEC2"
    },
    {
      "bufferView": 1,
      "componentType": 5123,
      "count": 894,
      "type": "SCALAR"
    }
  ],
  "bufferViews": [
    {
      "buffer": 0,
      "byteLength": 9920,
      "byteStride": 32,
      "target": 34962
    },
    {
      "buffer": 0,
      "byteLength": 1788,
      "byteOffset": 9920,
      "target": 34963
    }
  ],
  "buffers": [
    {
      "byteLength": 11708,
      "uri": "3060435073507076211203_LOD00.bin"
    }
  ],
  "images": [
    {
      "uri": "3060435073507076211203_LOD00.png"
    }
  ],
  "materials": [
    {
      "doubleSided": true,
      "pbrMetallicRoughness": {
        "baseColorTexture": {
          "index": 0
        },
        "metallicFactor": 0
      }
    }
  ],
  "meshes": [
    {
      "name": "3060435073507076211203_0",
      "primitives": [
        {
          "attributes": {
            "POSITION": 0,
            "NORMAL": 1,
            "TEXCOORD_0": 2
          },
          "indices": 3,
          "material": 0
        }
      ]
    }
  ],
  "nodes": [
    {
      "mesh": 0
    }
  ],
  "scene": 0,
  "scenes": [
    {
      "nodes": [
        0
      ]
    }
  ],
  "textures": [
    {
      "source": 0
    }
  ]
}