{
  "asset": {
    "copyright": "",
    "generator": "SharpGLTF 1.0.0",
    "version": "2.0"
  },
  "accessors": [
    {
      "name": "POSITION",
      "bufferView": 0,
      "componentType": 5126,
      "count": 201,
      "max": [
        -141.962646484375,
        10.275820732116699,
        448.45770263671875
      ],
      "min": [
        -153.78596496582031,
        9.6563854217529297,
        438.8446044921875
      ],
      "type": "VEC3"
    },
    {
      "name": "NORMAL",
      "bufferView": 0,
      "byteOffset": 12,
      "componentType": 5126,
      "count": 201,
      "max": [
        0.17656928300857544,
        0.99998468160629272,
        0.38607054948806763
      ],
      "min": [
        -0.13777090609073639,
        0.91679435968399048,
        -0.35820591449737549
      ],
      "type": "VEC3"
    },
    {
      "name": "TEXCOORD_0",
      "bufferView": 0,
      "byteOffset": 24,
      "componentType": 5126,
      "count": 201,
      "max": [
        0.998046875,
        0.998046875
      ],
      "min": [
        0.001953125,
        0.271484375
      ],
      "type": "VEC2"
    },
    {
      "bufferView": 1,
      "componentType": 5123,
      "count": 717,
      "type": "SCALAR"
    }
  ],
  "bufferViews": [
    {
      "buffer": 0,
      "byteLength": 6432,
      "byteStride": 32,
      "target": 34962
    },
    {
      "buffer": 0,
      "byteLength": 1434,
      "byteOffset": 6432,
      "target": 34963
    }
  ],
  "buffers": [
    {
      "byteLength": 7868,
      "uri": "3060435073507072656576_LOD00.bin"
    }
  ],
  "images": [
    {
      "uri": "3060435073507072656576_LOD00.png"
    }
  ],
  "materials": [
    {
      "doubleSided": true,
      "pbrMetallicRoughness": {
        "baseColorTexture": {
          "index": 0
        },
        "metallicFactor": 0
      }
    }
  ],
  "meshes": [
    {
      "name": "3060435073507072656576_0",
      "primitives": [
        {
          "attributes": {
            "POSITION": 0,
            "NORMAL": 1,
            "TEXCOORD_0": 2
          },
          "indices": 3,
          "material": 0
        }
      ]
    }
  ],
  "nodes": [
    {
      "mesh": 0
    }
  ],
  "scene": 0,
  "scenes": [
    {
      "nodes": [
        0
      ]
    }
  ],
  "textures": [
    {
      "source": 0
    }
  ]
}