{
  "asset": {
    "copyright": "",
    "generator": "SharpGLTF 1.0.0",
    "version": "2.0"
  },
  "accessors": [
    {
      "name": "POSITION",
      "bufferView": 0,
      "componentType": 5126,
      "count": 254,
      "max": [
        -222.65373229980469,
        13.948789596557617,
        254.29486083984375
      ],
      "min": [
        -224.75141906738281,
        10.470263481140137,
        248.63163757324219
      ],
      "type": "VEC3"
    },
    {
      "name": "NORMAL",
      "bufferView": 0,
      "byteOffset": 12,
      "componentType": 5126,
      "count": 254,
      "max": [
        0.99915432929992676,
        0.99896895885467529,
        0.98978370428085327
      ],
      "min": [
        -0.70169782638549805,
        -0.76730978488922119,
        -0.57284730672836304
      ],
      "type": "VEC3"
    },
    {
      "name": "TEXCOORD_0",
      "bufferView": 0,
      "byteOffset": 24,
      "componentType": 5126,
      "count": 254,
      "max": [
        0.998046875,
        0.998046875
      ],
      "min": [
        0.001953125,
        0.697265625
      ],
      "type": "VEC2"
    },
    {
      "bufferView": 1,
      "componentType": 5123,
      "count": 735,
      "type": "SCALAR"
    }
  ],
  "bufferViews": [
    {
      "buffer": 0,
      "byteLength": 8128,
      "byteStride": 32,
      "target": 34962
    },
    {
      "buffer": 0,
      "byteLength": 1470,
      "byteOffset": 8128,
      "target": 34963
    }
  ],
  "buffers": [
    {
      "byteLength": 9600,
      "uri": "3060435073507076031322_LOD00.bin"
    }
  ],
  "images": [
    {
      "uri": "3060435073507076031322_LOD00.png"
    }
  ],
  "materials": [
    {
      "doubleSided": true,
      "pbrMetallicRoughness": {
        "baseColorTexture": {
          "index": 0
        },
        "metallicFactor": 0
      }
    }
  ],
  "meshes": [
    {
      "name": "3060435073507076031322_0",
      "primitives": [
        {
          "attributes": {
            "POSITION": 0,
            "NORMAL": 1,
            "TEXCOORD_0": 2
          },
          "indices": 3,
          "material": 0
        }
      ]
    }
  ],
  "nodes": [
    {
      "mesh": 0
    }
  ],
  "scene": 0,
  "scenes": [
    {
      "nodes": [
        0
      ]
    }
  ],
  "textures": [
    {
      "source": 0
    }
  ]
}