{
  "asset": {
    "copyright": "",
    "generator": "SharpGLTF 1.0.0",
    "version": "2.0"
  },
  "accessors": [
    {
      "name": "POSITION",
      "bufferView": 0,
      "componentType": 5126,
      "count": 191,
      "max": [
        -236.47373962402344,
        10.620034217834473,
        182.04542541503906
      ],
      "min": [
        -248.34507751464844,
        9.476170539855957,
        172.52696228027344
      ],
      "type": "VEC3"
    },
    {
      "name": "NORMAL",
      "bufferView": 0,
      "byteOffset": 12,
      "componentType": 5126,
      "count": 191,
      "max": [
        0.9993172287940979,
        0.99998456239700317,
        0.17616035044193268
      ],
      "min": [
        -0.14779169857501984,
        -0.99819821119308472,
        -0.43217417597770691
      ],
      "type": "VEC3"
    },
    {
      "name": "TEXCOORD_0",
      "bufferView": 0,
      "byteOffset": 24,
      "componentType": 5126,
      "count": 191,
      "max": [
        0.998046875,
        0.998046875
      ],
      "min": [
        0.001953125,
        0.119140625
      ],
      "type": "VEC2"
    },
    {
      "bufferView": 1,
      "componentType": 5123,
      "count": 537,
      "type": "SCALAR"
    }
  ],
  "bufferViews": [
    {
      "buffer": 0,
      "byteLength": 6112,
      "byteStride": 32,
      "target": 34962
    },
    {
      "buffer": 0,
      "byteLength": 1074,
      "byteOffset": 6112,
      "target": 34963
    }
  ],
  "buffers": [
    {
      "byteLength": 7188,
      "uri": "3060435073507072457776_LOD00.bin"
    }
  ],
  "images": [
    {
      "uri": "3060435073507072457776_LOD00.png"
    }
  ],
  "materials": [
    {
      "doubleSided": true,
      "pbrMetallicRoughness": {
        "baseColorTexture": {
          "index": 0
        },
        "metallicFactor": 0
      }
    }
  ],
  "meshes": [
    {
      "name": "3060435073507072457776_0",
      "primitives": [
        {
          "attributes": {
            "POSITION": 0,
            "NORMAL": 1,
            "TEXCOORD_0": 2
          },
          "indices": 3,
          "material": 0
        }
      ]
    }
  ],
  "nodes": [
    {
      "mesh": 0
    }
  ],
  "scene": 0,
  "scenes": [
    {
      "nodes": [
        0
      ]
    }
  ],
  "textures": [
    {
      "source": 0
    }
  ]
}