{
  "asset": {
    "copyright": "",
    "generator": "SharpGLTF 1.0.0",
    "version": "2.0"
  },
  "accessors": [
    {
      "name": "POSITION",
      "bufferView": 0,
      "componentType": 5126,
      "count": 261,
      "max": [
        -47.274486541748047,
        26.999897003173828,
        343.90692138671875
      ],
      "min": [
        -59.288555145263672,
        19.756803512573242,
        334.24609375
      ],
      "type": "VEC3"
    },
    {
      "name": "NORMAL",
      "bufferView": 0,
      "byteOffset": 12,
      "componentType": 5126,
      "count": 261,
      "max": [
        0.99898666143417358,
        0.99998420476913452,
        0.27500432729721069
      ],
      "min": [
        -0.52885323762893677,
        -0.35484802722930908,
        -0.9536513090133667
      ],
      "type": "VEC3"
    },
    {
      "name": "TEXCOORD_0",
      "bufferView": 0,
      "byteOffset": 24,
      "componentType": 5126,
      "count": 261,
      "max": [
        0.990234375,
        0.998046875
      ],
      "min": [
        0.001953125,
        0.123046875
      ],
      "type": "VEC2"
    },
    {
      "bufferView": 1,
      "componentType": 5123,
      "count": 828,
      "type": "SCALAR"
    }
  ],
  "bufferViews": [
    {
      "buffer": 0,
      "byteLength": 8352,
      "byteStride": 32,
      "target": 34962
    },
    {
      "buffer": 0,
      "byteLength": 1656,
      "byteOffset": 8352,
      "target": 34963
    }
  ],
  "buffers": [
    {
      "byteLength": 10008,
      "uri": "3060435073507076201114_LOD00.bin"
    }
  ],
  "images": [
    {
      "uri": "3060435073507076201114_LOD00.png"
    }
  ],
  "materials": [
    {
      "doubleSided": true,
      "pbrMetallicRoughness": {
        "baseColorTexture": {
          "index": 0
        },
        "metallicFactor": 0
      }
    }
  ],
  "meshes": [
    {
      "name": "3060435073507076201114_0",
      "primitives": [
        {
          "attributes": {
            "POSITION": 0,
            "NORMAL": 1,
            "TEXCOORD_0": 2
          },
          "indices": 3,
          "material": 0
        }
      ]
    }
  ],
  "nodes": [
    {
      "mesh": 0
    }
  ],
  "scene": 0,
  "scenes": [
    {
      "nodes": [
        0
      ]
    }
  ],
  "textures": [
    {
      "source": 0
    }
  ]
}