{
  "asset": {
    "copyright": "",
    "generator": "SharpGLTF 1.0.0",
    "version": "2.0"
  },
  "accessors": [
    {
      "name": "POSITION",
      "bufferView": 0,
      "componentType": 5126,
      "count": 113,
      "max": [
        -230.61968994140625,
        1.4779443740844727,
        48.860504150390625
      ],
      "min": [
        -233.09881591796875,
        -7.6713967323303223,
        39.342441558837891
      ],
      "type": "VEC3"
    },
    {
      "name": "NORMAL",
      "bufferView": 0,
      "byteOffset": 12,
      "componentType": 5126,
      "count": 113,
      "max": [
        -0.94786107540130615,
        0.038172934204339981,
        -0.046592585742473602
      ],
      "min": [
        -0.99818432331085205,
        -0.0050176302902400494,
        -0.31864437460899353
      ],
      "type": "VEC3"
    },
    {
      "name": "TEXCOORD_0",
      "bufferView": 0,
      "byteOffset": 24,
      "componentType": 5126,
      "count": 113,
      "max": [
        0.853515625,
        0.998046875
      ],
      "min": [
        0.001953125,
        0.216796875
      ],
      "type": "VEC2"
    },
    {
      "bufferView": 1,
      "componentType": 5123,
      "count": 369,
      "type": "SCALAR"
    }
  ],
  "bufferViews": [
    {
      "buffer": 0,
      "byteLength": 3616,
      "byteStride": 32,
      "target": 34962
    },
    {
      "buffer": 0,
      "byteLength": 738,
      "byteOffset": 3616,
      "target": 34963
    }
  ],
  "buffers": [
    {
      "byteLength": 4356,
      "uri": "3060435073507072455543_LOD00.bin"
    }
  ],
  "images": [
    {
      "uri": "3060435073507072455543_LOD00.png"
    }
  ],
  "materials": [
    {
      "doubleSided": true,
      "pbrMetallicRoughness": {
        "baseColorTexture": {
          "index": 0
        },
        "metallicFactor": 0
      }
    }
  ],
  "meshes": [
    {
      "name": "3060435073507072455543_0",
      "primitives": [
        {
          "attributes": {
            "POSITION": 0,
            "NORMAL": 1,
            "TEXCOORD_0": 2
          },
          "indices": 3,
          "material": 0
        }
      ]
    }
  ],
  "nodes": [
    {
      "mesh": 0
    }
  ],
  "scene": 0,
  "scenes": [
    {
      "nodes": [
        0
      ]
    }
  ],
  "textures": [
    {
      "source": 0
    }
  ]
}