{
  "asset": {
    "copyright": "",
    "generator": "SharpGLTF 1.0.0",
    "version": "2.0"
  },
  "accessors": [
    {
      "name": "POSITION",
      "bufferView": 0,
      "componentType": 5126,
      "count": 643,
      "max": [
        -202.87841796875,
        11.856348037719727,
        124.48872375488281
      ],
      "min": [
        -213.03379821777344,
        10.474319458007813,
        115.4468994140625
      ],
      "type": "VEC3"
    },
    {
      "name": "NORMAL",
      "bufferView": 0,
      "byteOffset": 12,
      "componentType": 5126,
      "count": 643,
      "max": [
        0.999317467212677,
        0.99595266580581665,
        0.94216722249984741
      ],
      "min": [
        -0.99674463272094727,
        -0.99917089939117432,
        -0.99366527795791626
      ],
      "type": "VEC3"
    },
    {
      "name": "TEXCOORD_0",
      "bufferView": 0,
      "byteOffset": 24,
      "componentType": 5126,
      "count": 643,
      "max": [
        0.998046875,
        0.998046875
      ],
      "min": [
        0.001953125,
        0.580078125
      ],
      "type": "VEC2"
    },
    {
      "bufferView": 1,
      "componentType": 5123,
      "count": 1785,
      "type": "SCALAR"
    }
  ],
  "bufferViews": [
    {
      "buffer": 0,
      "byteLength": 20576,
      "byteStride": 32,
      "target": 34962
    },
    {
      "buffer": 0,
      "byteLength": 3570,
      "byteOffset": 20576,
      "target": 34963
    }
  ],
  "buffers": [
    {
      "byteLength": 24148,
      "uri": "3060435073507076013013_LOD00.bin"
    }
  ],
  "images": [
    {
      "uri": "3060435073507076013013_LOD00.png"
    }
  ],
  "materials": [
    {
      "doubleSided": true,
      "pbrMetallicRoughness": {
        "baseColorTexture": {
          "index": 0
        },
        "metallicFactor": 0
      }
    }
  ],
  "meshes": [
    {
      "name": "3060435073507076013013_0",
      "primitives": [
        {
          "attributes": {
            "POSITION": 0,
            "NORMAL": 1,
            "TEXCOORD_0": 2
          },
          "indices": 3,
          "material": 0
        }
      ]
    }
  ],
  "nodes": [
    {
      "mesh": 0
    }
  ],
  "scene": 0,
  "scenes": [
    {
      "nodes": [
        0
      ]
    }
  ],
  "textures": [
    {
      "source": 0
    }
  ]
}