{
  "asset": {
    "copyright": "",
    "generator": "SharpGLTF 1.0.0",
    "version": "2.0"
  },
  "accessors": [
    {
      "name": "POSITION",
      "bufferView": 0,
      "componentType": 5126,
      "count": 269,
      "max": [
        11.818207740783691,
        10.618919372558594,
        315.22384643554688
      ],
      "min": [
        -0.19585642218589783,
        9.2373714447021484,
        305.70587158203125
      ],
      "type": "VEC3"
    },
    {
      "name": "NORMAL",
      "bufferView": 0,
      "byteOffset": 12,
      "componentType": 5126,
      "count": 269,
      "max": [
        0.70151925086975098,
        0.99998462200164795,
        0.64895230531692505
      ],
      "min": [
        -0.76534140110015869,
        -0.0055143707431852818,
        -0.86559563875198364
      ],
      "type": "VEC3"
    },
    {
      "name": "TEXCOORD_0",
      "bufferView": 0,
      "byteOffset": 24,
      "componentType": 5126,
      "count": 269,
      "max": [
        0.998046875,
        0.998046875
      ],
      "min": [
        0.001953125,
        0.021484375
      ],
      "type": "VEC2"
    },
    {
      "bufferView": 1,
      "componentType": 5123,
      "count": 861,
      "type": "SCALAR"
    }
  ],
  "bufferViews": [
    {
      "buffer": 0,
      "byteLength": 8608,
      "byteStride": 32,
      "target": 34962
    },
    {
      "buffer": 0,
      "byteLength": 1722,
      "byteOffset": 8608,
      "target": 34963
    }
  ],
  "buffers": [
    {
      "byteLength": 10332,
      "uri": "3060435073507072467647_LOD00.bin"
    }
  ],
  "images": [
    {
      "uri": "3060435073507072467647_LOD00.png"
    }
  ],
  "materials": [
    {
      "doubleSided": true,
      "pbrMetallicRoughness": {
        "baseColorTexture": {
          "index": 0
        },
        "metallicFactor": 0
      }
    }
  ],
  "meshes": [
    {
      "name": "3060435073507072467647_0",
      "primitives": [
        {
          "attributes": {
            "POSITION": 0,
            "NORMAL": 1,
            "TEXCOORD_0": 2
          },
          "indices": 3,
          "material": 0
        }
      ]
    }
  ],
  "nodes": [
    {
      "mesh": 0
    }
  ],
  "scene": 0,
  "scenes": [
    {
      "nodes": [
        0
      ]
    }
  ],
  "textures": [
    {
      "source": 0
    }
  ]
}