{
  "asset": {
    "copyright": "",
    "generator": "SharpGLTF 1.0.0",
    "version": "2.0"
  },
  "accessors": [
    {
      "name": "POSITION",
      "bufferView": 0,
      "componentType": 5126,
      "count": 531,
      "max": [
        -90.027862548828125,
        111.25923156738281,
        197.59553527832031
      ],
      "min": [
        -94.843345642089844,
        101.91941833496094,
        191.50401306152344
      ],
      "type": "VEC3"
    },
    {
      "name": "NORMAL",
      "bufferView": 0,
      "byteOffset": 12,
      "componentType": 5126,
      "count": 531,
      "max": [
        0.99898689985275269,
        0.81015217304229736,
        0.9993169903755188
      ],
      "min": [
        -0.6086457371711731,
        -0.30393961071968079,
        -0.94045770168304443
      ],
      "type": "VEC3"
    },
    {
      "name": "TEXCOORD_0",
      "bufferView": 0,
      "byteOffset": 24,
      "componentType": 5126,
      "count": 531,
      "max": [
        0.998046875,
        0.998046875
      ],
      "min": [
        0.001953125,
        0.123046875
      ],
      "type": "VEC2"
    },
    {
      "bufferView": 1,
      "componentType": 5123,
      "count": 1545,
      "type": "SCALAR"
    }
  ],
  "bufferViews": [
    {
      "buffer": 0,
      "byteLength": 16992,
      "byteStride": 32,
      "target": 34962
    },
    {
      "buffer": 0,
      "byteLength": 3090,
      "byteOffset": 16992,
      "target": 34963
    }
  ],
  "buffers": [
    {
      "byteLength": 20084,
      "uri": "3060435073507076034043_LOD00.bin"
    }
  ],
  "images": [
    {
      "uri": "3060435073507076034043_LOD00.png"
    }
  ],
  "materials": [
    {
      "doubleSided": true,
      "pbrMetallicRoughness": {
        "baseColorTexture": {
          "index": 0
        },
        "metallicFactor": 0
      }
    }
  ],
  "meshes": [
    {
      "name": "3060435073507076034043_0",
      "primitives": [
        {
          "attributes": {
            "POSITION": 0,
            "NORMAL": 1,
            "TEXCOORD_0": 2
          },
          "indices": 3,
          "material": 0
        }
      ]
    }
  ],
  "nodes": [
    {
      "mesh": 0
    }
  ],
  "scene": 0,
  "scenes": [
    {
      "nodes": [
        0
      ]
    }
  ],
  "textures": [
    {
      "source": 0
    }
  ]
}