{
  "asset": {
    "copyright": "",
    "generator": "SharpGLTF 1.0.0",
    "version": "2.0"
  },
  "accessors": [
    {
      "name": "POSITION",
      "bufferView": 0,
      "componentType": 5126,
      "count": 387,
      "max": [
        -215.1259765625,
        18.336118698120117,
        141.08883666992188
      ],
      "min": [
        -224.70913696289063,
        10.473911285400391,
        134.47341918945313
      ],
      "type": "VEC3"
    },
    {
      "name": "NORMAL",
      "bufferView": 0,
      "byteOffset": 12,
      "componentType": 5126,
      "count": 387,
      "max": [
        0.99466145038604736,
        0.99897193908691406,
        0.97760254144668579
      ],
      "min": [
        -0.71325123310089111,
        -0.81881940364837646,
        -0.99483567476272583
      ],
      "type": "VEC3"
    },
    {
      "name": "TEXCOORD_0",
      "bufferView": 0,
      "byteOffset": 24,
      "componentType": 5126,
      "count": 387,
      "max": [
        0.998046875,
        0.998046875
      ],
      "min": [
        0.001953125,
        0.638671875
      ],
      "type": "VEC2"
    },
    {
      "bufferView": 1,
      "componentType": 5123,
      "count": 1035,
      "type": "SCALAR"
    }
  ],
  "bufferViews": [
    {
      "buffer": 0,
      "byteLength": 12384,
      "byteStride": 32,
      "target": 34962
    },
    {
      "buffer": 0,
      "byteLength": 2070,
      "byteOffset": 12384,
      "target": 34963
    }
  ],
  "buffers": [
    {
      "byteLength": 14456,
      "uri": "3060435073507076013122_LOD00.bin"
    }
  ],
  "images": [
    {
      "uri": "3060435073507076013122_LOD00.png"
    }
  ],
  "materials": [
    {
      "doubleSided": true,
      "pbrMetallicRoughness": {
        "baseColorTexture": {
          "index": 0
        },
        "metallicFactor": 0
      }
    }
  ],
  "meshes": [
    {
      "name": "3060435073507076013122_0",
      "primitives": [
        {
          "attributes": {
            "POSITION": 0,
            "NORMAL": 1,
            "TEXCOORD_0": 2
          },
          "indices": 3,
          "material": 0
        }
      ]
    }
  ],
  "nodes": [
    {
      "mesh": 0
    }
  ],
  "scene": 0,
  "scenes": [
    {
      "nodes": [
        0
      ]
    }
  ],
  "textures": [
    {
      "source": 0
    }
  ]
}