{
  "asset": {
    "copyright": "",
    "generator": "SharpGLTF 1.0.0",
    "version": "2.0"
  },
  "accessors": [
    {
      "name": "POSITION",
      "bufferView": 0,
      "componentType": 5126,
      "count": 492,
      "max": [
        -82.7347412109375,
        10.768854141235352,
        39.485832214355469
      ],
      "min": [
        -94.701805114746094,
        10.101551055908203,
        29.682384490966797
      ],
      "type": "VEC3"
    },
    {
      "name": "NORMAL",
      "bufferView": 0,
      "byteOffset": 12,
      "componentType": 5126,
      "count": 492,
      "max": [
        0.54988747835159302,
        0.99998444318771362,
        0.46248519420623779
      ],
      "min": [
        -0.97309744358062744,
        -0.99122047424316406,
        -0.990428626537323
      ],
      "type": "VEC3"
    },
    {
      "name": "TEXCOORD_0",
      "bufferView": 0,
      "byteOffset": 24,
      "componentType": 5126,
      "count": 492,
      "max": [
        0.998046875,
        0.998046875
      ],
      "min": [
        0.001953125,
        0.447265625
      ],
      "type": "VEC2"
    },
    {
      "bufferView": 1,
      "componentType": 5123,
      "count": 1410,
      "type": "SCALAR"
    }
  ],
  "bufferViews": [
    {
      "buffer": 0,
      "byteLength": 15744,
      "byteStride": 32,
      "target": 34962
    },
    {
      "buffer": 0,
      "byteLength": 2820,
      "byteOffset": 15744,
      "target": 34963
    }
  ],
  "buffers": [
    {
      "byteLength": 18564,
      "uri": "3060435073507072454445_LOD00.bin"
    }
  ],
  "images": [
    {
      "uri": "3060435073507072454445_LOD00.png"
    }
  ],
  "materials": [
    {
      "doubleSided": true,
      "pbrMetallicRoughness": {
        "baseColorTexture": {
          "index": 0
        },
        "metallicFactor": 0
      }
    }
  ],
  "meshes": [
    {
      "name": "3060435073507072454445_0",
      "primitives": [
        {
          "attributes": {
            "POSITION": 0,
            "NORMAL": 1,
            "TEXCOORD_0": 2
          },
          "indices": 3,
          "material": 0
        }
      ]
    }
  ],
  "nodes": [
    {
      "mesh": 0
    }
  ],
  "scene": 0,
  "scenes": [
    {
      "nodes": [
        0
      ]
    }
  ],
  "textures": [
    {
      "source": 0
    }
  ]
}