{
  "asset": {
    "copyright": "",
    "generator": "SharpGLTF 1.0.0",
    "version": "2.0"
  },
  "accessors": [
    {
      "name": "POSITION",
      "bufferView": 0,
      "componentType": 5126,
      "count": 1165,
      "max": [
        -239.04156494140625,
        28.903301239013672,
        324.743408203125
      ],
      "min": [
        -248.33872985839844,
        19.753582000732422,
        315.13034057617188
      ],
      "type": "VEC3"
    },
    {
      "name": "NORMAL",
      "bufferView": 0,
      "byteOffset": 12,
      "componentType": 5126,
      "count": 1165,
      "max": [
        0.99931681156158447,
        0.9904518723487854,
        0.99463468790054321
      ],
      "min": [
        -0.99798864126205444,
        -0.91577953100204468,
        -0.98288130760192871
      ],
      "type": "VEC3"
    },
    {
      "name": "TEXCOORD_0",
      "bufferView": 0,
      "byteOffset": 24,
      "componentType": 5126,
      "count": 1165,
      "max": [
        0.998046875,
        0.9990234375
      ],
      "min": [
        0.001953125,
        0.0009765625
      ],
      "type": "VEC2"
    },
    {
      "bufferView": 1,
      "componentType": 5123,
      "count": 3177,
      "type": "SCALAR"
    },
    {
      "name": "POSITION",
      "bufferView": 0,
      "byteOffset": 37280,
      "componentType": 5126,
      "count": 78,
      "max": [
        -240.04318237304688,
        28.903175354003906,
        322.2213134765625
      ],
      "min": [
        -247.48069763183594,
        19.754079818725586,
        315.2249755859375
      ],
      "type": "VEC3"
    },
    {
      "name": "NORMAL",
      "bufferView": 0,
      "byteOffset": 37292,
      "componentType": 5126,
      "count": 78,
      "max": [
        0.97511911392211914,
        0.9959600567817688,
        0.56803584098815918
      ],
      "min": [
        -0.97272998094558716,
        -0.52143007516860962,
        -0.9787602424621582
      ],
      "type": "VEC3"
    },
    {
      "name": "TEXCOORD_0",
      "bufferView": 0,
      "byteOffset": 37304,
      "componentType": 5126,
      "count": 78,
      "max": [
        0.998046875,
        0.998046875
      ],
      "min": [
        0.001953125,
        0.755859375
      ],
      "type": "VEC2"
    },
    {
      "bufferView": 1,
      "byteOffset": 6354,
      "componentType": 5123,
      "count": 213,
      "type": "SCALAR"
    }
  ],
  "bufferViews": [
    {
      "buffer": 0,
      "byteLength": 39776,
      "byteStride": 32,
      "target": 34962
    },
    {
      "buffer": 0,
      "byteLength": 6780,
      "byteOffset": 39776,
      "target": 34963
    }
  ],
  "buffers": [
    {
      "byteLength": 46556,
      "uri": "3060435073507076033334_LOD00.bin"
    }
  ],
  "images": [
    {
      "uri": "3060435073507076033334_LOD00_0.png"
    },
    {
      "uri": "3060435073507076033334_LOD00_1.png"
    }
  ],
  "materials": [
    {
      "doubleSided": true,
      "pbrMetallicRoughness": {
        "baseColorTexture": {
          "index": 0
        },
        "metallicFactor": 0
      }
    },
    {
      "doubleSided": true,
      "pbrMetallicRoughness": {
        "baseColorTexture": {
          "index": 1
        },
        "metallicFactor": 0
      }
    }
  ],
  "meshes": [
    {
      "name": "3060435073507076033334_0",
      "primitives": [
        {
          "attributes": {
            "POSITION": 0,
            "NORMAL": 1,
            "TEXCOORD_0": 2
          },
          "indices": 3,
          "material": 0
        }
      ]
    },
    {
      "name": "3060435073507076033334_1",
      "primitives": [
        {
          "attributes": {
            "POSITION": 4,
            "NORMAL": 5,
            "TEXCOORD_0": 6
          },
          "indices": 7,
          "material": 1
        }
      ]
    }
  ],
  "nodes": [
    {
      "mesh": 0
    },
    {
      "mesh": 1
    }
  ],
  "scene": 0,
  "scenes": [
    {
      "nodes": [
        0,
        1
      ]
    }
  ],
  "textures": [
    {
      "source": 0
    },
    {
      "source": 1
    }
  ]
}