{
  "asset": {
    "copyright": "",
    "generator": "SharpGLTF 1.0.0",
    "version": "2.0"
  },
  "accessors": [
    {
      "name": "POSITION",
      "bufferView": 0,
      "componentType": 5126,
      "count": 1129,
      "max": [
        -177.80126953125,
        19.804893493652344,
        381.81964111328125
      ],
      "min": [
        -189.38645935058594,
        10.512796401977539,
        372.3013916015625
      ],
      "type": "VEC3"
    },
    {
      "name": "NORMAL",
      "bufferView": 0,
      "byteOffset": 12,
      "componentType": 5126,
      "count": 1129,
      "max": [
        0.99817794561386108,
        0.99043554067611694,
        0.99931782484054565
      ],
      "min": [
        -0.99440944194793701,
        -0.91664451360702515,
        -0.99816644191741943
      ],
      "type": "VEC3"
    },
    {
      "name": "TEXCOORD_0",
      "bufferView": 0,
      "byteOffset": 24,
      "componentType": 5126,
      "count": 1129,
      "max": [
        0.998046875,
        0.9990234375
      ],
      "min": [
        0.001953125,
        0.0009765625
      ],
      "type": "VEC2"
    },
    {
      "bufferView": 1,
      "componentType": 5123,
      "count": 2946,
      "type": "SCALAR"
    },
    {
      "name": "POSITION",
      "bufferView": 0,
      "byteOffset": 36128,
      "componentType": 5126,
      "count": 39,
      "max": [
        -182.0443115234375,
        19.757394790649414,
        380.43927001953125
      ],
      "min": [
        -187.38386535644531,
        14.134329795837402,
        377.48886108398438
      ],
      "type": "VEC3"
    },
    {
      "name": "NORMAL",
      "bufferView": 0,
      "byteOffset": 36140,
      "componentType": 5126,
      "count": 39,
      "max": [
        0.89351946115493774,
        0.57587122917175293,
        0.95038366317749023
      ],
      "min": [
        -0.91817545890808105,
        -0.3395201563835144,
        -0.97508031129837036
      ],
      "type": "VEC3"
    },
    {
      "name": "TEXCOORD_0",
      "bufferView": 0,
      "byteOffset": 36152,
      "componentType": 5126,
      "count": 39,
      "max": [
        0.587890625,
        0.998046875
      ],
      "min": [
        0.001953125,
        0.876953125
      ],
      "type": "VEC2"
    },
    {
      "bufferView": 1,
      "byteOffset": 5892,
      "componentType": 5123,
      "count": 87,
      "type": "SCALAR"
    }
  ],
  "bufferViews": [
    {
      "buffer": 0,
      "byteLength": 37376,
      "byteStride": 32,
      "target": 34962
    },
    {
      "buffer": 0,
      "byteLength": 6066,
      "byteOffset": 37376,
      "target": 34963
    }
  ],
  "buffers": [
    {
      "byteLength": 43444,
      "uri": "3060435073507076211201_LOD00.bin"
    }
  ],
  "images": [
    {
      "uri": "3060435073507076211201_LOD00_0.png"
    },
    {
      "uri": "3060435073507076211201_LOD00_1.png"
    }
  ],
  "materials": [
    {
      "doubleSided": true,
      "pbrMetallicRoughness": {
        "baseColorTexture": {
          "index": 0
        },
        "metallicFactor": 0
      }
    },
    {
      "doubleSided": true,
      "pbrMetallicRoughness": {
        "baseColorTexture": {
          "index": 1
        },
        "metallicFactor": 0
      }
    }
  ],
  "meshes": [
    {
      "name": "3060435073507076211201_0",
      "primitives": [
        {
          "attributes": {
            "POSITION": 0,
            "NORMAL": 1,
            "TEXCOORD_0": 2
          },
          "indices": 3,
          "material": 0
        }
      ]
    },
    {
      "name": "3060435073507076211201_1",
      "primitives": [
        {
          "attributes": {
            "POSITION": 4,
            "NORMAL": 5,
            "TEXCOORD_0": 6
          },
          "indices": 7,
          "material": 1
        }
      ]
    }
  ],
  "nodes": [
    {
      "mesh": 0
    },
    {
      "mesh": 1
    }
  ],
  "scene": 0,
  "scenes": [
    {
      "nodes": [
        0,
        1
      ]
    }
  ],
  "textures": [
    {
      "source": 0
    },
    {
      "source": 1
    }
  ]
}