{
  "asset": {
    "copyright": "",
    "generator": "SharpGLTF 1.0.0",
    "version": "2.0"
  },
  "accessors": [
    {
      "name": "POSITION",
      "bufferView": 0,
      "componentType": 5126,
      "count": 364,
      "max": [
        -153.78257751464844,
        10.61345100402832,
        391.33154296875
      ],
      "min": [
        -165.60606384277344,
        9.6121788024902344,
        381.67062377929688
      ],
      "type": "VEC3"
    },
    {
      "name": "NORMAL",
      "bufferView": 0,
      "byteOffset": 12,
      "componentType": 5126,
      "count": 364,
      "max": [
        0.47072917222976685,
        0.9999847412109375,
        0.42319819331169128
      ],
      "min": [
        -0.51671671867370605,
        0.83239352703094482,
        -0.32477769255638123
      ],
      "type": "VEC3"
    },
    {
      "name": "TEXCOORD_0",
      "bufferView": 0,
      "byteOffset": 24,
      "componentType": 5126,
      "count": 364,
      "max": [
        0.998046875,
        0.998046875
      ],
      "min": [
        0.001953125,
        0.181640625
      ],
      "type": "VEC2"
    },
    {
      "bufferView": 1,
      "componentType": 5123,
      "count": 1173,
      "type": "SCALAR"
    }
  ],
  "bufferViews": [
    {
      "buffer": 0,
      "byteLength": 11648,
      "byteStride": 32,
      "target": 34962
    },
    {
      "buffer": 0,
      "byteLength": 2346,
      "byteOffset": 11648,
      "target": 34963
    }
  ],
  "buffers": [
    {
      "byteLength": 13996,
      "uri": "3060435073507072654757_LOD00.bin"
    }
  ],
  "images": [
    {
      "uri": "3060435073507072654757_LOD00.png"
    }
  ],
  "materials": [
    {
      "doubleSided": true,
      "pbrMetallicRoughness": {
        "baseColorTexture": {
          "index": 0
        },
        "metallicFactor": 0
      }
    }
  ],
  "meshes": [
    {
      "name": "3060435073507072654757_0",
      "primitives": [
        {
          "attributes": {
            "POSITION": 0,
            "NORMAL": 1,
            "TEXCOORD_0": 2
          },
          "indices": 3,
          "material": 0
        }
      ]
    }
  ],
  "nodes": [
    {
      "mesh": 0
    }
  ],
  "scene": 0,
  "scenes": [
    {
      "nodes": [
        0
      ]
    }
  ],
  "textures": [
    {
      "source": 0
    }
  ]
}