{
  "asset": {
    "copyright": "",
    "generator": "SharpGLTF 1.0.0",
    "version": "2.0"
  },
  "accessors": [
    {
      "name": "POSITION",
      "bufferView": 0,
      "componentType": 5126,
      "count": 165,
      "max": [
        -88.307136535644531,
        14.659679412841797,
        391.47283935546875
      ],
      "min": [
        -94.838531494140625,
        10.609316825866699,
        386.4281005859375
      ],
      "type": "VEC3"
    },
    {
      "name": "NORMAL",
      "bufferView": 0,
      "byteOffset": 12,
      "componentType": 5126,
      "count": 165,
      "max": [
        0.97309064865112305,
        0.9999847412109375,
        0.78346574306488037
      ],
      "min": [
        -0.84144306182861328,
        -0.063528820872306824,
        -0.85420292615890503
      ],
      "type": "VEC3"
    },
    {
      "name": "TEXCOORD_0",
      "bufferView": 0,
      "byteOffset": 24,
      "componentType": 5126,
      "count": 165,
      "max": [
        0.982421875,
        0.998046875
      ],
      "min": [
        0.001953125,
        0.412109375
      ],
      "type": "VEC2"
    },
    {
      "bufferView": 1,
      "componentType": 5123,
      "count": 381,
      "type": "SCALAR"
    }
  ],
  "bufferViews": [
    {
      "buffer": 0,
      "byteLength": 5280,
      "byteStride": 32,
      "target": 34962
    },
    {
      "buffer": 0,
      "byteLength": 762,
      "byteOffset": 5280,
      "target": 34963
    }
  ],
  "buffers": [
    {
      "byteLength": 6044,
      "uri": "3060435073507076210203_LOD00.bin"
    }
  ],
  "images": [
    {
      "uri": "3060435073507076210203_LOD00.png"
    }
  ],
  "materials": [
    {
      "doubleSided": true,
      "pbrMetallicRoughness": {
        "baseColorTexture": {
          "index": 0
        },
        "metallicFactor": 0
      }
    }
  ],
  "meshes": [
    {
      "name": "3060435073507076210203_0",
      "primitives": [
        {
          "attributes": {
            "POSITION": 0,
            "NORMAL": 1,
            "TEXCOORD_0": 2
          },
          "indices": 3,
          "material": 0
        }
      ]
    }
  ],
  "nodes": [
    {
      "mesh": 0
    }
  ],
  "scene": 0,
  "scenes": [
    {
      "nodes": [
        0
      ]
    }
  ],
  "textures": [
    {
      "source": 0
    }
  ]
}