{
  "asset": {
    "copyright": "",
    "generator": "SharpGLTF 1.0.0",
    "version": "2.0"
  },
  "accessors": [
    {
      "name": "POSITION",
      "bufferView": 0,
      "componentType": 5126,
      "count": 631,
      "max": [
        -260.0162353515625,
        19.810905456542969,
        172.62857055664063
      ],
      "min": [
        -272.12673950195313,
        10.471101760864258,
        162.92051696777344
      ],
      "type": "VEC3"
    },
    {
      "name": "NORMAL",
      "bufferView": 0,
      "byteOffset": 12,
      "componentType": 5126,
      "count": 631,
      "max": [
        0.99429076910018921,
        0.99896949529647827,
        0.99634945392608643
      ],
      "min": [
        -0.97885751724243164,
        -0.9893420934677124,
        -0.95830798149108887
      ],
      "type": "VEC3"
    },
    {
      "name": "TEXCOORD_0",
      "bufferView": 0,
      "byteOffset": 24,
      "componentType": 5126,
      "count": 631,
      "max": [
        0.998046875,
        0.998046875
      ],
      "min": [
        0.001953125,
        0.490234375
      ],
      "type": "VEC2"
    },
    {
      "bufferView": 1,
      "componentType": 5123,
      "count": 1695,
      "type": "SCALAR"
    }
  ],
  "bufferViews": [
    {
      "buffer": 0,
      "byteLength": 20192,
      "byteStride": 32,
      "target": 34962
    },
    {
      "buffer": 0,
      "byteLength": 3390,
      "byteOffset": 20192,
      "target": 34963
    }
  ],
  "buffers": [
    {
      "byteLength": 23584,
      "uri": "3060435073507076102220_LOD00.bin"
    }
  ],
  "images": [
    {
      "uri": "3060435073507076102220_LOD00.png"
    }
  ],
  "materials": [
    {
      "doubleSided": true,
      "pbrMetallicRoughness": {
        "baseColorTexture": {
          "index": 0
        },
        "metallicFactor": 0
      }
    }
  ],
  "meshes": [
    {
      "name": "3060435073507076102220_0",
      "primitives": [
        {
          "attributes": {
            "POSITION": 0,
            "NORMAL": 1,
            "TEXCOORD_0": 2
          },
          "indices": 3,
          "material": 0
        }
      ]
    }
  ],
  "nodes": [
    {
      "mesh": 0
    }
  ],
  "scene": 0,
  "scenes": [
    {
      "nodes": [
        0
      ]
    }
  ],
  "textures": [
    {
      "source": 0
    }
  ]
}