{
  "asset": {
    "copyright": "",
    "generator": "SharpGLTF 1.0.0",
    "version": "2.0"
  },
  "accessors": [
    {
      "name": "POSITION",
      "bufferView": 0,
      "componentType": 5126,
      "count": 53,
      "max": [
        -59.144210815429688,
        22.767892837524414,
        10.8507080078125
      ],
      "min": [
        -60.288497924804688,
        20.194681167602539,
        9.5657863616943359
      ],
      "type": "VEC3"
    },
    {
      "name": "NORMAL",
      "bufferView": 0,
      "byteOffset": 12,
      "componentType": 5126,
      "count": 53,
      "max": [
        -0.0049630003049969673,
        0.99896705150604248,
        0.051372375339269638
      ],
      "min": [
        -0.91614270210266113,
        -0.79866373538970947,
        -0.95338261127471924
      ],
      "type": "VEC3"
    },
    {
      "name": "TEXCOORD_0",
      "bufferView": 0,
      "byteOffset": 24,
      "componentType": 5126,
      "count": 53,
      "max": [
        0.529296875,
        0.998046875
      ],
      "min": [
        0.001953125,
        0.869140625
      ],
      "type": "VEC2"
    },
    {
      "bufferView": 1,
      "componentType": 5123,
      "count": 153,
      "type": "SCALAR"
    }
  ],
  "bufferViews": [
    {
      "buffer": 0,
      "byteLength": 1696,
      "byteStride": 32,
      "target": 34962
    },
    {
      "buffer": 0,
      "byteLength": 306,
      "byteOffset": 1696,
      "target": 34963
    }
  ],
  "buffers": [
    {
      "byteLength": 2004,
      "uri": "3060435073507074223317_LOD00.bin"
    }
  ],
  "images": [
    {
      "uri": "3060435073507074223317_LOD00.png"
    }
  ],
  "materials": [
    {
      "doubleSided": true,
      "pbrMetallicRoughness": {
        "baseColorTexture": {
          "index": 0
        },
        "metallicFactor": 0
      }
    }
  ],
  "meshes": [
    {
      "name": "3060435073507074223317_0",
      "primitives": [
        {
          "attributes": {
            "POSITION": 0,
            "NORMAL": 1,
            "TEXCOORD_0": 2
          },
          "indices": 3,
          "material": 0
        }
      ]
    }
  ],
  "nodes": [
    {
      "mesh": 0
    }
  ],
  "scene": 0,
  "scenes": [
    {
      "nodes": [
        0
      ]
    }
  ],
  "textures": [
    {
      "source": 0
    }
  ]
}