{
  "asset": {
    "copyright": "",
    "generator": "SharpGLTF 1.0.0",
    "version": "2.0"
  },
  "accessors": [
    {
      "name": "POSITION",
      "bufferView": 0,
      "componentType": 5126,
      "count": 167,
      "max": [
        -23.781545639038086,
        10.62633228302002,
        33.203289031982422
      ],
      "min": [
        -35.605567932128906,
        9.1014528274536133,
        29.824407577514648
      ],
      "type": "VEC3"
    },
    {
      "name": "NORMAL",
      "bufferView": 0,
      "byteOffset": 12,
      "componentType": 5126,
      "count": 167,
      "max": [
        0.99818050861358643,
        0.99998438358306885,
        0.15764161944389343
      ],
      "min": [
        -0.34799319505691528,
        -0.2660737931728363,
        -0.9979822039604187
      ],
      "type": "VEC3"
    },
    {
      "name": "TEXCOORD_0",
      "bufferView": 0,
      "byteOffset": 24,
      "componentType": 5126,
      "count": 167,
      "max": [
        0.998046875,
        0.998046875
      ],
      "min": [
        0.033203125,
        0.501953125
      ],
      "type": "VEC2"
    },
    {
      "bufferView": 1,
      "componentType": 5123,
      "count": 483,
      "type": "SCALAR"
    }
  ],
  "bufferViews": [
    {
      "buffer": 0,
      "byteLength": 5344,
      "byteStride": 32,
      "target": 34962
    },
    {
      "buffer": 0,
      "byteLength": 966,
      "byteOffset": 5344,
      "target": 34963
    }
  ],
  "buffers": [
    {
      "byteLength": 6312,
      "uri": "3060435073507072445544_LOD00.bin"
    }
  ],
  "images": [
    {
      "uri": "3060435073507072445544_LOD00.png"
    }
  ],
  "materials": [
    {
      "doubleSided": true,
      "pbrMetallicRoughness": {
        "baseColorTexture": {
          "index": 0
        },
        "metallicFactor": 0
      }
    }
  ],
  "meshes": [
    {
      "name": "3060435073507072445544_0",
      "primitives": [
        {
          "attributes": {
            "POSITION": 0,
            "NORMAL": 1,
            "TEXCOORD_0": 2
          },
          "indices": 3,
          "material": 0
        }
      ]
    }
  ],
  "nodes": [
    {
      "mesh": 0
    }
  ],
  "scene": 0,
  "scenes": [
    {
      "nodes": [
        0
      ]
    }
  ],
  "textures": [
    {
      "source": 0
    }
  ]
}