{
  "asset": {
    "copyright": "",
    "generator": "SharpGLTF 1.0.0",
    "version": "2.0"
  },
  "accessors": [
    {
      "name": "POSITION",
      "bufferView": 0,
      "componentType": 5126,
      "count": 305,
      "max": [
        -149.50743103027344,
        23.33819580078125,
        29.831344604492188
      ],
      "min": [
        -153.89363098144531,
        19.668975830078125,
        20.313356399536133
      ],
      "type": "VEC3"
    },
    {
      "name": "NORMAL",
      "bufferView": 0,
      "byteOffset": 12,
      "componentType": 5126,
      "count": 305,
      "max": [
        0.99817872047424316,
        0.98831158876419067,
        0.94947993755340576
      ],
      "min": [
        -0.76717984676361084,
        -0.36002200841903687,
        -0.96201205253601074
      ],
      "type": "VEC3"
    },
    {
      "name": "TEXCOORD_0",
      "bufferView": 0,
      "byteOffset": 24,
      "componentType": 5126,
      "count": 305,
      "max": [
        0.998046875,
        0.998046875
      ],
      "min": [
        0.001953125,
        0.404296875
      ],
      "type": "VEC2"
    },
    {
      "bufferView": 1,
      "componentType": 5123,
      "count": 798,
      "type": "SCALAR"
    }
  ],
  "bufferViews": [
    {
      "buffer": 0,
      "byteLength": 9760,
      "byteStride": 32,
      "target": 34962
    },
    {
      "buffer": 0,
      "byteLength": 1596,
      "byteOffset": 9760,
      "target": 34963
    }
  ],
  "buffers": [
    {
      "byteLength": 11356,
      "uri": "3060435073507074232336_LOD00.bin"
    }
  ],
  "images": [
    {
      "uri": "3060435073507074232336_LOD00.png"
    }
  ],
  "materials": [
    {
      "doubleSided": true,
      "pbrMetallicRoughness": {
        "baseColorTexture": {
          "index": 0
        },
        "metallicFactor": 0
      }
    }
  ],
  "meshes": [
    {
      "name": "3060435073507074232336_0",
      "primitives": [
        {
          "attributes": {
            "POSITION": 0,
            "NORMAL": 1,
            "TEXCOORD_0": 2
          },
          "indices": 3,
          "material": 0
        }
      ]
    }
  ],
  "nodes": [
    {
      "mesh": 0
    }
  ],
  "scene": 0,
  "scenes": [
    {
      "nodes": [
        0
      ]
    }
  ],
  "textures": [
    {
      "source": 0
    }
  ]
}