{
  "asset": {
    "copyright": "",
    "generator": "SharpGLTF 1.0.0",
    "version": "2.0"
  },
  "accessors": [
    {
      "name": "POSITION",
      "bufferView": 0,
      "componentType": 5126,
      "count": 519,
      "max": [
        -71.057907104492188,
        24.578062057495117,
        86.90869140625
      ],
      "min": [
        -78.161857604980469,
        19.765148162841797,
        79.389480590820313
      ],
      "type": "VEC3"
    },
    {
      "name": "NORMAL",
      "bufferView": 0,
      "byteOffset": 12,
      "componentType": 5126,
      "count": 519,
      "max": [
        0.95072221755981445,
        0.99439376592636108,
        0.996346116065979
      ],
      "min": [
        -0.99818193912506104,
        -0.43094074726104736,
        -0.99931544065475464
      ],
      "type": "VEC3"
    },
    {
      "name": "TEXCOORD_0",
      "bufferView": 0,
      "byteOffset": 24,
      "componentType": 5126,
      "count": 519,
      "max": [
        0.998046875,
        0.998046875
      ],
      "min": [
        0.001953125,
        0.076171875
      ],
      "type": "VEC2"
    },
    {
      "bufferView": 1,
      "componentType": 5123,
      "count": 1395,
      "type": "SCALAR"
    }
  ],
  "bufferViews": [
    {
      "buffer": 0,
      "byteLength": 16608,
      "byteStride": 32,
      "target": 34962
    },
    {
      "buffer": 0,
      "byteLength": 2790,
      "byteOffset": 16608,
      "target": 34963
    }
  ],
  "buffers": [
    {
      "byteLength": 19400,
      "uri": "3060435073507076010206_LOD00.bin"
    }
  ],
  "images": [
    {
      "uri": "3060435073507076010206_LOD00.png"
    }
  ],
  "materials": [
    {
      "doubleSided": true,
      "pbrMetallicRoughness": {
        "baseColorTexture": {
          "index": 0
        },
        "metallicFactor": 0
      }
    }
  ],
  "meshes": [
    {
      "name": "3060435073507076010206_0",
      "primitives": [
        {
          "attributes": {
            "POSITION": 0,
            "NORMAL": 1,
            "TEXCOORD_0": 2
          },
          "indices": 3,
          "material": 0
        }
      ]
    }
  ],
  "nodes": [
    {
      "mesh": 0
    }
  ],
  "scene": 0,
  "scenes": [
    {
      "nodes": [
        0
      ]
    }
  ],
  "textures": [
    {
      "source": 0
    }
  ]
}