{
  "asset": {
    "copyright": "",
    "generator": "SharpGLTF 1.0.0",
    "version": "2.0"
  },
  "accessors": [
    {
      "name": "POSITION",
      "bufferView": 0,
      "componentType": 5126,
      "count": 367,
      "max": [
        -47.369930267333984,
        10.713542938232422,
        324.87991333007813
      ],
      "min": [
        -59.288711547851563,
        9.7605247497558594,
        315.17160034179688
      ],
      "type": "VEC3"
    },
    {
      "name": "NORMAL",
      "bufferView": 0,
      "byteOffset": 12,
      "componentType": 5126,
      "count": 367,
      "max": [
        0.99999231100082397,
        0.99998462200164795,
        0.72184294462203979
      ],
      "min": [
        -0.8150518536567688,
        -0.9914591908454895,
        -0.9908708930015564
      ],
      "type": "VEC3"
    },
    {
      "name": "TEXCOORD_0",
      "bufferView": 0,
      "byteOffset": 24,
      "componentType": 5126,
      "count": 367,
      "max": [
        0.998046875,
        0.998046875
      ],
      "min": [
        0.001953125,
        0.064453125
      ],
      "type": "VEC2"
    },
    {
      "bufferView": 1,
      "componentType": 5123,
      "count": 1005,
      "type": "SCALAR"
    }
  ],
  "bufferViews": [
    {
      "buffer": 0,
      "byteLength": 11744,
      "byteStride": 32,
      "target": 34962
    },
    {
      "buffer": 0,
      "byteLength": 2010,
      "byteOffset": 11744,
      "target": 34963
    }
  ],
  "buffers": [
    {
      "byteLength": 13756,
      "uri": "3060435073507072467774_LOD00.bin"
    }
  ],
  "images": [
    {
      "uri": "3060435073507072467774_LOD00.png"
    }
  ],
  "materials": [
    {
      "doubleSided": true,
      "pbrMetallicRoughness": {
        "baseColorTexture": {
          "index": 0
        },
        "metallicFactor": 0
      }
    }
  ],
  "meshes": [
    {
      "name": "3060435073507072467774_0",
      "primitives": [
        {
          "attributes": {
            "POSITION": 0,
            "NORMAL": 1,
            "TEXCOORD_0": 2
          },
          "indices": 3,
          "material": 0
        }
      ]
    }
  ],
  "nodes": [
    {
      "mesh": 0
    }
  ],
  "scene": 0,
  "scenes": [
    {
      "nodes": [
        0
      ]
    }
  ],
  "textures": [
    {
      "source": 0
    }
  ]
}