{
  "asset": {
    "copyright": "",
    "generator": "SharpGLTF 1.0.0",
    "version": "2.0"
  },
  "accessors": [
    {
      "name": "POSITION",
      "bufferView": 0,
      "componentType": 5126,
      "count": 299,
      "max": [
        -199.35298156738281,
        28.909809112548828,
        191.55703735351563
      ],
      "min": [
        -200.97393798828125,
        19.665054321289063,
        181.99153137207031
      ],
      "type": "VEC3"
    },
    {
      "name": "NORMAL",
      "bufferView": 0,
      "byteOffset": 12,
      "componentType": 5126,
      "count": 299,
      "max": [
        -0.44227349758148193,
        0.87813282012939453,
        0.64175170660018921
      ],
      "min": [
        -0.99637448787689209,
        -0.31878170371055603,
        -0.31865933537483215
      ],
      "type": "VEC3"
    },
    {
      "name": "TEXCOORD_0",
      "bufferView": 0,
      "byteOffset": 24,
      "componentType": 5126,
      "count": 299,
      "max": [
        0.998046875,
        0.998046875
      ],
      "min": [
        0.001953125,
        0.130859375
      ],
      "type": "VEC2"
    },
    {
      "bufferView": 1,
      "componentType": 5123,
      "count": 945,
      "type": "SCALAR"
    }
  ],
  "bufferViews": [
    {
      "buffer": 0,
      "byteLength": 9568,
      "byteStride": 32,
      "target": 34962
    },
    {
      "buffer": 0,
      "byteLength": 1890,
      "byteOffset": 9568,
      "target": 34963
    }
  ],
  "buffers": [
    {
      "byteLength": 11460,
      "uri": "3060435073507076031014_LOD00.bin"
    }
  ],
  "images": [
    {
      "uri": "3060435073507076031014_LOD00.png"
    }
  ],
  "materials": [
    {
      "doubleSided": true,
      "pbrMetallicRoughness": {
        "baseColorTexture": {
          "index": 0
        },
        "metallicFactor": 0
      }
    }
  ],
  "meshes": [
    {
      "name": "3060435073507076031014_0",
      "primitives": [
        {
          "attributes": {
            "POSITION": 0,
            "NORMAL": 1,
            "TEXCOORD_0": 2
          },
          "indices": 3,
          "material": 0
        }
      ]
    }
  ],
  "nodes": [
    {
      "mesh": 0
    }
  ],
  "scene": 0,
  "scenes": [
    {
      "nodes": [
        0
      ]
    }
  ],
  "textures": [
    {
      "source": 0
    }
  ]
}