{
  "asset": {
    "copyright": "",
    "generator": "SharpGLTF 1.0.0",
    "version": "2.0"
  },
  "accessors": [
    {
      "name": "POSITION",
      "bufferView": 0,
      "componentType": 5126,
      "count": 291,
      "max": [
        -232.17796325683594,
        28.99388313293457,
        410.45645141601563
      ],
      "min": [
        -236.65866088867188,
        19.654069900512695,
        400.70040893554688
      ],
      "type": "VEC3"
    },
    {
      "name": "NORMAL",
      "bufferView": 0,
      "byteOffset": 12,
      "componentType": 5126,
      "count": 291,
      "max": [
        0.99636745452880859,
        0.97651576995849609,
        0.99463337659835815
      ],
      "min": [
        -0.60640478134155273,
        -0.63595461845397949,
        -0.91259318590164185
      ],
      "type": "VEC3"
    },
    {
      "name": "TEXCOORD_0",
      "bufferView": 0,
      "byteOffset": 24,
      "componentType": 5126,
      "count": 291,
      "max": [
        0.998046875,
        0.998046875
      ],
      "min": [
        0.001953125,
        0.537109375
      ],
      "type": "VEC2"
    },
    {
      "bufferView": 1,
      "componentType": 5123,
      "count": 837,
      "type": "SCALAR"
    }
  ],
  "bufferViews": [
    {
      "buffer": 0,
      "byteLength": 9312,
      "byteStride": 32,
      "target": 34962
    },
    {
      "buffer": 0,
      "byteLength": 1674,
      "byteOffset": 9312,
      "target": 34963
    }
  ],
  "buffers": [
    {
      "byteLength": 10988,
      "uri": "3060435073507076211327_LOD00.bin"
    }
  ],
  "images": [
    {
      "uri": "3060435073507076211327_LOD00.png"
    }
  ],
  "materials": [
    {
      "doubleSided": true,
      "pbrMetallicRoughness": {
        "baseColorTexture": {
          "index": 0
        },
        "metallicFactor": 0
      }
    }
  ],
  "meshes": [
    {
      "name": "3060435073507076211327_0",
      "primitives": [
        {
          "attributes": {
            "POSITION": 0,
            "NORMAL": 1,
            "TEXCOORD_0": 2
          },
          "indices": 3,
          "material": 0
        }
      ]
    }
  ],
  "nodes": [
    {
      "mesh": 0
    }
  ],
  "scene": 0,
  "scenes": [
    {
      "nodes": [
        0
      ]
    }
  ],
  "textures": [
    {
      "source": 0
    }
  ]
}