{
  "asset": {
    "copyright": "",
    "generator": "SharpGLTF 1.0.0",
    "version": "2.0"
  },
  "accessors": [
    {
      "name": "POSITION",
      "bufferView": 0,
      "componentType": 5126,
      "count": 586,
      "max": [
        -70.914772033691406,
        10.768570899963379,
        87.051292419433594
      ],
      "min": [
        -82.881820678710938,
        9.1484346389770508,
        77.295394897460938
      ],
      "type": "VEC3"
    },
    {
      "name": "NORMAL",
      "bufferView": 0,
      "byteOffset": 12,
      "componentType": 5126,
      "count": 586,
      "max": [
        0.81921851634979248,
        0.99998444318771362,
        0.86177337169647217
      ],
      "min": [
        -0.96988272666931152,
        -0.94580161571502686,
        -0.98827391862869263
      ],
      "type": "VEC3"
    },
    {
      "name": "TEXCOORD_0",
      "bufferView": 0,
      "byteOffset": 24,
      "componentType": 5126,
      "count": 586,
      "max": [
        0.998046875,
        0.998046875
      ],
      "min": [
        0.001953125,
        0.064453125
      ],
      "type": "VEC2"
    },
    {
      "bufferView": 1,
      "componentType": 5123,
      "count": 1674,
      "type": "SCALAR"
    }
  ],
  "bufferViews": [
    {
      "buffer": 0,
      "byteLength": 18752,
      "byteStride": 32,
      "target": 34962
    },
    {
      "buffer": 0,
      "byteLength": 3348,
      "byteOffset": 18752,
      "target": 34963
    }
  ],
  "buffers": [
    {
      "byteLength": 22100,
      "uri": "3060435073507072454646_LOD00.bin"
    }
  ],
  "images": [
    {
      "uri": "3060435073507072454646_LOD00.png"
    }
  ],
  "materials": [
    {
      "doubleSided": true,
      "pbrMetallicRoughness": {
        "baseColorTexture": {
          "index": 0
        },
        "metallicFactor": 0
      }
    }
  ],
  "meshes": [
    {
      "name": "3060435073507072454646_0",
      "primitives": [
        {
          "attributes": {
            "POSITION": 0,
            "NORMAL": 1,
            "TEXCOORD_0": 2
          },
          "indices": 3,
          "material": 0
        }
      ]
    }
  ],
  "nodes": [
    {
      "mesh": 0
    }
  ],
  "scene": 0,
  "scenes": [
    {
      "nodes": [
        0
      ]
    }
  ],
  "textures": [
    {
      "source": 0
    }
  ]
}