{
  "asset": {
    "copyright": "",
    "generator": "SharpGLTF 1.0.0",
    "version": "2.0"
  },
  "accessors": [
    {
      "name": "POSITION",
      "bufferView": 0,
      "componentType": 5126,
      "count": 22,
      "max": [
        -200.97518920898438,
        19.863082885742188,
        30.304555892944336
      ],
      "min": [
        -212.94224548339844,
        18.433155059814453,
        29.685419082641602
      ],
      "type": "VEC3"
    },
    {
      "name": "NORMAL",
      "bufferView": 0,
      "byteOffset": 12,
      "componentType": 5126,
      "count": 22,
      "max": [
        0.24392889440059662,
        -0.3191952109336853,
        0.91575825214385986
      ],
      "min": [
        -0.18320019543170929,
        -0.36058709025382996,
        0.91455709934234619
      ],
      "type": "VEC3"
    },
    {
      "name": "TEXCOORD_0",
      "bufferView": 0,
      "byteOffset": 24,
      "componentType": 5126,
      "count": 22,
      "max": [
        0.146484375,
        0.998046875
      ],
      "min": [
        0.001953125,
        0.892578125
      ],
      "type": "VEC2"
    },
    {
      "bufferView": 1,
      "componentType": 5123,
      "count": 63,
      "type": "SCALAR"
    }
  ],
  "bufferViews": [
    {
      "buffer": 0,
      "byteLength": 704,
      "byteStride": 32,
      "target": 34962
    },
    {
      "buffer": 0,
      "byteLength": 126,
      "byteOffset": 704,
      "target": 34963
    }
  ],
  "buffers": [
    {
      "byteLength": 832,
      "uri": "3060435073507076011011_LOD00.bin"
    }
  ],
  "images": [
    {
      "uri": "3060435073507076011011_LOD00.png"
    }
  ],
  "materials": [
    {
      "doubleSided": true,
      "pbrMetallicRoughness": {
        "baseColorTexture": {
          "index": 0
        },
        "metallicFactor": 0
      }
    }
  ],
  "meshes": [
    {
      "name": "3060435073507076011011_0",
      "primitives": [
        {
          "attributes": {
            "POSITION": 0,
            "NORMAL": 1,
            "TEXCOORD_0": 2
          },
          "indices": 3,
          "material": 0
        }
      ]
    }
  ],
  "nodes": [
    {
      "mesh": 0
    }
  ],
  "scene": 0,
  "scenes": [
    {
      "nodes": [
        0
      ]
    }
  ],
  "textures": [
    {
      "source": 0
    }
  ]
}