{
  "asset": {
    "copyright": "",
    "generator": "SharpGLTF 1.0.0",
    "version": "2.0"
  },
  "accessors": [
    {
      "name": "POSITION",
      "bufferView": 0,
      "componentType": 5126,
      "count": 242,
      "max": [
        -208.54188537597656,
        29.04377555847168,
        381.821044921875
      ],
      "min": [
        -210.21083068847656,
        19.751617431640625,
        372.30264282226563
      ],
      "type": "VEC3"
    },
    {
      "name": "NORMAL",
      "bufferView": 0,
      "byteOffset": 12,
      "componentType": 5126,
      "count": 242,
      "max": [
        0.99636787176132202,
        0.15660706162452698,
        -6.4333587943110615E-05
      ],
      "min": [
        0.78363746404647827,
        -0.59352856874465942,
        -0.24891875684261322
      ],
      "type": "VEC3"
    },
    {
      "name": "TEXCOORD_0",
      "bufferView": 0,
      "byteOffset": 24,
      "componentType": 5126,
      "count": 242,
      "max": [
        0.998046875,
        0.998046875
      ],
      "min": [
        0.001953125,
        0.173828125
      ],
      "type": "VEC2"
    },
    {
      "bufferView": 1,
      "componentType": 5123,
      "count": 747,
      "type": "SCALAR"
    }
  ],
  "bufferViews": [
    {
      "buffer": 0,
      "byteLength": 7744,
      "byteStride": 32,
      "target": 34962
    },
    {
      "buffer": 0,
      "byteLength": 1494,
      "byteOffset": 7744,
      "target": 34963
    }
  ],
  "buffers": [
    {
      "byteLength": 9240,
      "uri": "3060435073507076211215_LOD00.bin"
    }
  ],
  "images": [
    {
      "uri": "3060435073507076211215_LOD00.png"
    }
  ],
  "materials": [
    {
      "doubleSided": true,
      "pbrMetallicRoughness": {
        "baseColorTexture": {
          "index": 0
        },
        "metallicFactor": 0
      }
    }
  ],
  "meshes": [
    {
      "name": "3060435073507076211215_0",
      "primitives": [
        {
          "attributes": {
            "POSITION": 0,
            "NORMAL": 1,
            "TEXCOORD_0": 2
          },
          "indices": 3,
          "material": 0
        }
      ]
    }
  ],
  "nodes": [
    {
      "mesh": 0
    }
  ],
  "scene": 0,
  "scenes": [
    {
      "nodes": [
        0
      ]
    }
  ],
  "textures": [
    {
      "source": 0
    }
  ]
}