{
  "asset": {
    "copyright": "",
    "generator": "SharpGLTF 1.0.0",
    "version": "2.0"
  },
  "accessors": [
    {
      "name": "POSITION",
      "bufferView": 0,
      "componentType": 5126,
      "count": 1133,
      "max": [
        11.817842483520508,
        19.80426025390625,
        429.38232421875
      ],
      "min": [
        -0.10064850747585297,
        10.607512474060059,
        419.76895141601563
      ],
      "type": "VEC3"
    },
    {
      "name": "NORMAL",
      "bufferView": 0,
      "byteOffset": 12,
      "componentType": 5126,
      "count": 1133,
      "max": [
        0.9999922513961792,
        0.99896728992462158,
        0.99039632081985474
      ],
      "min": [
        -0.99799239635467529,
        -0.9991728663444519,
        -0.99110972881317139
      ],
      "type": "VEC3"
    },
    {
      "name": "TEXCOORD_0",
      "bufferView": 0,
      "byteOffset": 24,
      "componentType": 5126,
      "count": 1133,
      "max": [
        0.998046875,
        0.9990234375
      ],
      "min": [
        0.001953125,
        0.0048828125
      ],
      "type": "VEC2"
    },
    {
      "bufferView": 1,
      "componentType": 5123,
      "count": 2802,
      "type": "SCALAR"
    },
    {
      "name": "POSITION",
      "bufferView": 0,
      "byteOffset": 36256,
      "componentType": 5126,
      "count": 42,
      "max": [
        11.77016544342041,
        19.757116317749023,
        424.623046875
      ],
      "min": [
        4.7144265174865723,
        15.182336807250977,
        419.76907348632813
      ],
      "type": "VEC3"
    },
    {
      "name": "NORMAL",
      "bufferView": 0,
      "byteOffset": 36268,
      "componentType": 5126,
      "count": 42,
      "max": [
        0.2089916318655014,
        0.98830080032348633,
        0.85927659273147583
      ],
      "min": [
        -0.92124366760253906,
        -0.73426944017410278,
        -0.82225304841995239
      ],
      "type": "VEC3"
    },
    {
      "name": "TEXCOORD_0",
      "bufferView": 0,
      "byteOffset": 36280,
      "componentType": 5126,
      "count": 42,
      "max": [
        0.376953125,
        0.998046875
      ],
      "min": [
        0.001953125,
        0.873046875
      ],
      "type": "VEC2"
    },
    {
      "bufferView": 1,
      "byteOffset": 5604,
      "componentType": 5123,
      "count": 111,
      "type": "SCALAR"
    }
  ],
  "bufferViews": [
    {
      "buffer": 0,
      "byteLength": 37600,
      "byteStride": 32,
      "target": 34962
    },
    {
      "buffer": 0,
      "byteLength": 5826,
      "byteOffset": 37600,
      "target": 34963
    }
  ],
  "buffers": [
    {
      "byteLength": 43428,
      "uri": "3060435073507076203003_LOD00.bin"
    }
  ],
  "images": [
    {
      "uri": "3060435073507076203003_LOD00_0.png"
    },
    {
      "uri": "3060435073507076203003_LOD00_1.png"
    }
  ],
  "materials": [
    {
      "doubleSided": true,
      "pbrMetallicRoughness": {
        "baseColorTexture": {
          "index": 0
        },
        "metallicFactor": 0
      }
    },
    {
      "doubleSided": true,
      "pbrMetallicRoughness": {
        "baseColorTexture": {
          "index": 1
        },
        "metallicFactor": 0
      }
    }
  ],
  "meshes": [
    {
      "name": "3060435073507076203003_0",
      "primitives": [
        {
          "attributes": {
            "POSITION": 0,
            "NORMAL": 1,
            "TEXCOORD_0": 2
          },
          "indices": 3,
          "material": 0
        }
      ]
    },
    {
      "name": "3060435073507076203003_1",
      "primitives": [
        {
          "attributes": {
            "POSITION": 4,
            "NORMAL": 5,
            "TEXCOORD_0": 6
          },
          "indices": 7,
          "material": 1
        }
      ]
    }
  ],
  "nodes": [
    {
      "mesh": 0
    },
    {
      "mesh": 1
    }
  ],
  "scene": 0,
  "scenes": [
    {
      "nodes": [
        0,
        1
      ]
    }
  ],
  "textures": [
    {
      "source": 0
    },
    {
      "source": 1
    }
  ]
}