{
  "asset": {
    "copyright": "",
    "generator": "SharpGLTF 1.0.0",
    "version": "2.0"
  },
  "accessors": [
    {
      "name": "POSITION",
      "bufferView": 0,
      "componentType": 5126,
      "count": 410,
      "max": [
        -248.34423828125,
        12.236282348632813,
        96.570411682128906
      ],
      "min": [
        -260.26327514648438,
        10.473125457763672,
        86.909538269042969
      ],
      "type": "VEC3"
    },
    {
      "name": "NORMAL",
      "bufferView": 0,
      "byteOffset": 12,
      "componentType": 5126,
      "count": 410,
      "max": [
        0.99931681156158447,
        0.9943997859954834,
        0.97261148691177368
      ],
      "min": [
        -0.98738718032836914,
        -0.63659048080444336,
        -0.98824870586395264
      ],
      "type": "VEC3"
    },
    {
      "name": "TEXCOORD_0",
      "bufferView": 0,
      "byteOffset": 24,
      "componentType": 5126,
      "count": 410,
      "max": [
        0.998046875,
        0.998046875
      ],
      "min": [
        0.001953125,
        0.634765625
      ],
      "type": "VEC2"
    },
    {
      "bufferView": 1,
      "componentType": 5123,
      "count": 1074,
      "type": "SCALAR"
    }
  ],
  "bufferViews": [
    {
      "buffer": 0,
      "byteLength": 13120,
      "byteStride": 32,
      "target": 34962
    },
    {
      "buffer": 0,
      "byteLength": 2148,
      "byteOffset": 13120,
      "target": 34963
    }
  ],
  "buffers": [
    {
      "byteLength": 15268,
      "uri": "3060435073507076011331_LOD00.bin"
    }
  ],
  "images": [
    {
      "uri": "3060435073507076011331_LOD00.png"
    }
  ],
  "materials": [
    {
      "doubleSided": true,
      "pbrMetallicRoughness": {
        "baseColorTexture": {
          "index": 0
        },
        "metallicFactor": 0
      }
    }
  ],
  "meshes": [
    {
      "name": "3060435073507076011331_0",
      "primitives": [
        {
          "attributes": {
            "POSITION": 0,
            "NORMAL": 1,
            "TEXCOORD_0": 2
          },
          "indices": 3,
          "material": 0
        }
      ]
    }
  ],
  "nodes": [
    {
      "mesh": 0
    }
  ],
  "scene": 0,
  "scenes": [
    {
      "nodes": [
        0
      ]
    }
  ],
  "textures": [
    {
      "source": 0
    }
  ]
}