{
  "asset": {
    "copyright": "",
    "generator": "SharpGLTF 1.0.0",
    "version": "2.0"
  },
  "accessors": [
    {
      "name": "POSITION",
      "bufferView": 0,
      "componentType": 5126,
      "count": 398,
      "max": [
        -0.14314553141593933,
        10.625757217407227,
        105.93438720703125
      ],
      "min": [
        -12.014678001403809,
        9.4820947647094727,
        96.368873596191406
      ],
      "type": "VEC3"
    },
    {
      "name": "NORMAL",
      "bufferView": 0,
      "byteOffset": 12,
      "componentType": 5126,
      "count": 398,
      "max": [
        0.73416125774383545,
        0.99998444318771362,
        0.86187517642974854
      ],
      "min": [
        -0.86069244146347046,
        0.32800129055976868,
        -0.77974480390548706
      ],
      "type": "VEC3"
    },
    {
      "name": "TEXCOORD_0",
      "bufferView": 0,
      "byteOffset": 24,
      "componentType": 5126,
      "count": 398,
      "max": [
        0.998046875,
        0.998046875
      ],
      "min": [
        0.001953125,
        0.177734375
      ],
      "type": "VEC2"
    },
    {
      "bufferView": 1,
      "componentType": 5123,
      "count": 1221,
      "type": "SCALAR"
    }
  ],
  "bufferViews": [
    {
      "buffer": 0,
      "byteLength": 12736,
      "byteStride": 32,
      "target": 34962
    },
    {
      "buffer": 0,
      "byteLength": 2442,
      "byteOffset": 12736,
      "target": 34963
    }
  ],
  "buffers": [
    {
      "byteLength": 15180,
      "uri": "3060435073507072445676_LOD00.bin"
    }
  ],
  "images": [
    {
      "uri": "3060435073507072445676_LOD00.png"
    }
  ],
  "materials": [
    {
      "doubleSided": true,
      "pbrMetallicRoughness": {
        "baseColorTexture": {
          "index": 0
        },
        "metallicFactor": 0
      }
    }
  ],
  "meshes": [
    {
      "name": "3060435073507072445676_0",
      "primitives": [
        {
          "attributes": {
            "POSITION": 0,
            "NORMAL": 1,
            "TEXCOORD_0": 2
          },
          "indices": 3,
          "material": 0
        }
      ]
    }
  ],
  "nodes": [
    {
      "mesh": 0
    }
  ],
  "scene": 0,
  "scenes": [
    {
      "nodes": [
        0
      ]
    }
  ],
  "textures": [
    {
      "source": 0
    }
  ]
}