{
  "asset": {
    "copyright": "",
    "generator": "SharpGLTF 1.0.0",
    "version": "2.0"
  },
  "accessors": [
    {
      "name": "POSITION",
      "bufferView": 0,
      "componentType": 5126,
      "count": 950,
      "max": [
        -0.047669149935245514,
        19.866123199462891,
        10.802834510803223
      ],
      "min": [
        -12.014800071716309,
        10.478667259216309,
        1.284911036491394
      ],
      "type": "VEC3"
    },
    {
      "name": "NORMAL",
      "bufferView": 0,
      "byteOffset": 12,
      "componentType": 5126,
      "count": 950,
      "max": [
        0.99799257516860962,
        0.99998432397842407,
        0.94215422868728638
      ],
      "min": [
        -0.97202229499816895,
        -0.94597911834716797,
        -0.99999219179153442
      ],
      "type": "VEC3"
    },
    {
      "name": "TEXCOORD_0",
      "bufferView": 0,
      "byteOffset": 24,
      "componentType": 5126,
      "count": 950,
      "max": [
        0.998046875,
        0.9990234375
      ],
      "min": [
        0.001953125,
        0.0009765625
      ],
      "type": "VEC2"
    },
    {
      "bufferView": 1,
      "componentType": 5123,
      "count": 2367,
      "type": "SCALAR"
    },
    {
      "name": "POSITION",
      "bufferView": 0,
      "byteOffset": 30400,
      "componentType": 5126,
      "count": 173,
      "max": [
        -0.14302477240562439,
        19.770818710327148,
        10.041399955749512
      ],
      "min": [
        -11.967122077941895,
        10.478667259216309,
        1.284911036491394
      ],
      "type": "VEC3"
    },
    {
      "name": "NORMAL",
      "bufferView": 0,
      "byteOffset": 30412,
      "componentType": 5126,
      "count": 173,
      "max": [
        0.9883531928062439,
        0.9904555082321167,
        0.9400174617767334
      ],
      "min": [
        -0.97006356716156006,
        -0.9156145453453064,
        -0.97498071193695068
      ],
      "type": "VEC3"
    },
    {
      "name": "TEXCOORD_0",
      "bufferView": 0,
      "byteOffset": 30424,
      "componentType": 5126,
      "count": 173,
      "max": [
        0.998046875,
        0.998046875
      ],
      "min": [
        0.001953125,
        0.646484375
      ],
      "type": "VEC2"
    },
    {
      "bufferView": 1,
      "byteOffset": 4734,
      "componentType": 5123,
      "count": 396,
      "type": "SCALAR"
    }
  ],
  "bufferViews": [
    {
      "buffer": 0,
      "byteLength": 35936,
      "byteStride": 32,
      "target": 34962
    },
    {
      "buffer": 0,
      "byteLength": 5526,
      "byteOffset": 35936,
      "target": 34963
    }
  ],
  "buffers": [
    {
      "byteLength": 41464,
      "uri": "3060435073507074223212_LOD00.bin"
    }
  ],
  "images": [
    {
      "uri": "3060435073507074223212_LOD00_0.png"
    },
    {
      "uri": "3060435073507074223212_LOD00_1.png"
    }
  ],
  "materials": [
    {
      "doubleSided": true,
      "pbrMetallicRoughness": {
        "baseColorTexture": {
          "index": 0
        },
        "metallicFactor": 0
      }
    },
    {
      "doubleSided": true,
      "pbrMetallicRoughness": {
        "baseColorTexture": {
          "index": 1
        },
        "metallicFactor": 0
      }
    }
  ],
  "meshes": [
    {
      "name": "3060435073507074223212_0",
      "primitives": [
        {
          "attributes": {
            "POSITION": 0,
            "NORMAL": 1,
            "TEXCOORD_0": 2
          },
          "indices": 3,
          "material": 0
        }
      ]
    },
    {
      "name": "3060435073507074223212_1",
      "primitives": [
        {
          "attributes": {
            "POSITION": 4,
            "NORMAL": 5,
            "TEXCOORD_0": 6
          },
          "indices": 7,
          "material": 1
        }
      ]
    }
  ],
  "nodes": [
    {
      "mesh": 0
    },
    {
      "mesh": 1
    }
  ],
  "scene": 0,
  "scenes": [
    {
      "nodes": [
        0,
        1
      ]
    }
  ],
  "textures": [
    {
      "source": 0
    },
    {
      "source": 1
    }
  ]
}