{
  "asset": {
    "copyright": "",
    "generator": "SharpGLTF 1.0.0",
    "version": "2.0"
  },
  "accessors": [
    {
      "name": "POSITION",
      "bufferView": 0,
      "componentType": 5126,
      "count": 226,
      "max": [
        -47.417835235595703,
        10.381499290466309,
        296.19775390625
      ],
      "min": [
        -59.289009094238281,
        9.4286870956420898,
        286.67971801757813
      ],
      "type": "VEC3"
    },
    {
      "name": "NORMAL",
      "bufferView": 0,
      "byteOffset": 12,
      "componentType": 5126,
      "count": 226,
      "max": [
        0.32534870505332947,
        0.9999845027923584,
        0.13755501806735992
      ],
      "min": [
        -0.20900267362594604,
        0.94558066129684448,
        -0.20859238505363464
      ],
      "type": "VEC3"
    },
    {
      "name": "TEXCOORD_0",
      "bufferView": 0,
      "byteOffset": 24,
      "componentType": 5126,
      "count": 226,
      "max": [
        0.986328125,
        0.998046875
      ],
      "min": [
        0.001953125,
        0.181640625
      ],
      "type": "VEC2"
    },
    {
      "bufferView": 1,
      "componentType": 5123,
      "count": 699,
      "type": "SCALAR"
    }
  ],
  "bufferViews": [
    {
      "buffer": 0,
      "byteLength": 7232,
      "byteStride": 32,
      "target": 34962
    },
    {
      "buffer": 0,
      "byteLength": 1398,
      "byteOffset": 7232,
      "target": 34963
    }
  ],
  "buffers": [
    {
      "byteLength": 8632,
      "uri": "3060435073507072467576_LOD00.bin"
    }
  ],
  "images": [
    {
      "uri": "3060435073507072467576_LOD00.png"
    }
  ],
  "materials": [
    {
      "doubleSided": true,
      "pbrMetallicRoughness": {
        "baseColorTexture": {
          "index": 0
        },
        "metallicFactor": 0
      }
    }
  ],
  "meshes": [
    {
      "name": "3060435073507072467576_0",
      "primitives": [
        {
          "attributes": {
            "POSITION": 0,
            "NORMAL": 1,
            "TEXCOORD_0": 2
          },
          "indices": 3,
          "material": 0
        }
      ]
    }
  ],
  "nodes": [
    {
      "mesh": 0
    }
  ],
  "scene": 0,
  "scenes": [
    {
      "nodes": [
        0
      ]
    }
  ],
  "textures": [
    {
      "source": 0
    }
  ]
}