{
  "asset": {
    "copyright": "",
    "generator": "SharpGLTF 1.0.0",
    "version": "2.0"
  },
  "accessors": [
    {
      "name": "POSITION",
      "bufferView": 0,
      "componentType": 5126,
      "count": 309,
      "max": [
        -134.15663146972656,
        41.720417022705078,
        172.52911376953125
      ],
      "min": [
        -141.97584533691406,
        38.051338195800781,
        163.01092529296875
      ],
      "type": "VEC3"
    },
    {
      "name": "NORMAL",
      "bufferView": 0,
      "byteOffset": 12,
      "componentType": 5126,
      "count": 309,
      "max": [
        0.99441051483154297,
        0.99896854162216187,
        0.10652977973222733
      ],
      "min": [
        0.045223496854305267,
        -0.64647698402404785,
        -0.26329824328422546
      ],
      "type": "VEC3"
    },
    {
      "name": "TEXCOORD_0",
      "bufferView": 0,
      "byteOffset": 24,
      "componentType": 5126,
      "count": 309,
      "max": [
        0.998046875,
        0.998046875
      ],
      "min": [
        0.001953125,
        0.095703125
      ],
      "type": "VEC2"
    },
    {
      "bufferView": 1,
      "componentType": 5123,
      "count": 855,
      "type": "SCALAR"
    }
  ],
  "bufferViews": [
    {
      "buffer": 0,
      "byteLength": 9888,
      "byteStride": 32,
      "target": 34962
    },
    {
      "buffer": 0,
      "byteLength": 1710,
      "byteOffset": 9888,
      "target": 34963
    }
  ],
  "buffers": [
    {
      "byteLength": 11600,
      "uri": "3060435073507076012365_LOD00.bin"
    }
  ],
  "images": [
    {
      "uri": "3060435073507076012365_LOD00.png"
    }
  ],
  "materials": [
    {
      "doubleSided": true,
      "pbrMetallicRoughness": {
        "baseColorTexture": {
          "index": 0
        },
        "metallicFactor": 0
      }
    }
  ],
  "meshes": [
    {
      "name": "3060435073507076012365_0",
      "primitives": [
        {
          "attributes": {
            "POSITION": 0,
            "NORMAL": 1,
            "TEXCOORD_0": 2
          },
          "indices": 3,
          "material": 0
        }
      ]
    }
  ],
  "nodes": [
    {
      "mesh": 0
    }
  ],
  "scene": 0,
  "scenes": [
    {
      "nodes": [
        0
      ]
    }
  ],
  "textures": [
    {
      "source": 0
    }
  ]
}