{
  "asset": {
    "copyright": "",
    "generator": "SharpGLTF 1.0.0",
    "version": "2.0"
  },
  "accessors": [
    {
      "name": "POSITION",
      "bufferView": 0,
      "componentType": 5126,
      "count": 284,
      "max": [
        -189.24398803710938,
        33.049579620361328,
        239.12284851074219
      ],
      "min": [
        -195.20379638671875,
        28.903387069702148,
        229.50961303710938
      ],
      "type": "VEC3"
    },
    {
      "name": "NORMAL",
      "bufferView": 0,
      "byteOffset": 12,
      "componentType": 5126,
      "count": 284,
      "max": [
        -0.045272652059793472,
        0.99896633625030518,
        0.51057451963424683
      ],
      "min": [
        -0.99898505210876465,
        -0.4541342556476593,
        -0.30675086379051208
      ],
      "type": "VEC3"
    },
    {
      "name": "TEXCOORD_0",
      "bufferView": 0,
      "byteOffset": 24,
      "componentType": 5126,
      "count": 284,
      "max": [
        0.998046875,
        0.998046875
      ],
      "min": [
        0.001953125,
        0.216796875
      ],
      "type": "VEC2"
    },
    {
      "bufferView": 1,
      "componentType": 5123,
      "count": 855,
      "type": "SCALAR"
    }
  ],
  "bufferViews": [
    {
      "buffer": 0,
      "byteLength": 9088,
      "byteStride": 32,
      "target": 34962
    },
    {
      "buffer": 0,
      "byteLength": 1710,
      "byteOffset": 9088,
      "target": 34963
    }
  ],
  "buffers": [
    {
      "byteLength": 10800,
      "uri": "3060435073507076031252_LOD00.bin"
    }
  ],
  "images": [
    {
      "uri": "3060435073507076031252_LOD00.png"
    }
  ],
  "materials": [
    {
      "doubleSided": true,
      "pbrMetallicRoughness": {
        "baseColorTexture": {
          "index": 0
        },
        "metallicFactor": 0
      }
    }
  ],
  "meshes": [
    {
      "name": "3060435073507076031252_0",
      "primitives": [
        {
          "attributes": {
            "POSITION": 0,
            "NORMAL": 1,
            "TEXCOORD_0": 2
          },
          "indices": 3,
          "material": 0
        }
      ]
    }
  ],
  "nodes": [
    {
      "mesh": 0
    }
  ],
  "scene": 0,
  "scenes": [
    {
      "nodes": [
        0
      ]
    }
  ],
  "textures": [
    {
      "source": 0
    }
  ]
}