{
  "asset": {
    "copyright": "",
    "generator": "SharpGLTF 1.0.0",
    "version": "2.0"
  },
  "accessors": [
    {
      "name": "POSITION",
      "bufferView": 0,
      "componentType": 5126,
      "count": 310,
      "max": [
        -0.14329430460929871,
        13.428892135620117,
        239.16624450683594
      ],
      "min": [
        -11.966852188110352,
        10.474637031555176,
        230.55244445800781
      ],
      "type": "VEC3"
    },
    {
      "name": "NORMAL",
      "bufferView": 0,
      "byteOffset": 12,
      "componentType": 5126,
      "count": 310,
      "max": [
        0.51308643817901611,
        0.9999845027923584,
        0.19946862757205963
      ],
      "min": [
        -0.40421316027641296,
        0.63796830177307129,
        -0.77004259824752808
      ],
      "type": "VEC3"
    },
    {
      "name": "TEXCOORD_0",
      "bufferView": 0,
      "byteOffset": 24,
      "componentType": 5126,
      "count": 310,
      "max": [
        0.998046875,
        0.998046875
      ],
      "min": [
        0.001953125,
        0.017578125
      ],
      "type": "VEC2"
    },
    {
      "bufferView": 1,
      "componentType": 5123,
      "count": 942,
      "type": "SCALAR"
    }
  ],
  "bufferViews": [
    {
      "buffer": 0,
      "byteLength": 9920,
      "byteStride": 32,
      "target": 34962
    },
    {
      "buffer": 0,
      "byteLength": 1884,
      "byteOffset": 9920,
      "target": 34963
    }
  ],
  "buffers": [
    {
      "byteLength": 11804,
      "uri": "3060435073507076021212_LOD00.bin"
    }
  ],
  "images": [
    {
      "uri": "3060435073507076021212_LOD00.png"
    }
  ],
  "materials": [
    {
      "doubleSided": true,
      "pbrMetallicRoughness": {
        "baseColorTexture": {
          "index": 0
        },
        "metallicFactor": 0
      }
    }
  ],
  "meshes": [
    {
      "name": "3060435073507076021212_0",
      "primitives": [
        {
          "attributes": {
            "POSITION": 0,
            "NORMAL": 1,
            "TEXCOORD_0": 2
          },
          "indices": 3,
          "material": 0
        }
      ]
    }
  ],
  "nodes": [
    {
      "mesh": 0
    }
  ],
  "scene": 0,
  "scenes": [
    {
      "nodes": [
        0
      ]
    }
  ],
  "textures": [
    {
      "source": 0
    }
  ]
}