{
  "asset": {
    "copyright": "",
    "generator": "SharpGLTF 1.0.0",
    "version": "2.0"
  },
  "accessors": [
    {
      "name": "POSITION",
      "bufferView": 0,
      "componentType": 5126,
      "count": 128,
      "max": [
        -117.23834228515625,
        41.096961975097656,
        296.24761962890625
      ],
      "min": [
        -118.47786712646484,
        38.428413391113281,
        288.15744018554688
      ],
      "type": "VEC3"
    },
    {
      "name": "NORMAL",
      "bufferView": 0,
      "byteOffset": 12,
      "componentType": 5126,
      "count": 128,
      "max": [
        0.9909328818321228,
        0.97983366250991821,
        -0.0045981509611010551
      ],
      "min": [
        0.19976198673248291,
        -0.63661676645278931,
        -0.17089876532554626
      ],
      "type": "VEC3"
    },
    {
      "name": "TEXCOORD_0",
      "bufferView": 0,
      "byteOffset": 24,
      "componentType": 5126,
      "count": 128,
      "max": [
        0.853515625,
        0.998046875
      ],
      "min": [
        0.001953125,
        0.599609375
      ],
      "type": "VEC2"
    },
    {
      "bufferView": 1,
      "componentType": 5123,
      "count": 345,
      "type": "SCALAR"
    }
  ],
  "bufferViews": [
    {
      "buffer": 0,
      "byteLength": 4096,
      "byteStride": 32,
      "target": 34962
    },
    {
      "buffer": 0,
      "byteLength": 690,
      "byteOffset": 4096,
      "target": 34963
    }
  ],
  "buffers": [
    {
      "byteLength": 4788,
      "uri": "3060435073507076032077_LOD00.bin"
    }
  ],
  "images": [
    {
      "uri": "3060435073507076032077_LOD00.png"
    }
  ],
  "materials": [
    {
      "doubleSided": true,
      "pbrMetallicRoughness": {
        "baseColorTexture": {
          "index": 0
        },
        "metallicFactor": 0
      }
    }
  ],
  "meshes": [
    {
      "name": "3060435073507076032077_0",
      "primitives": [
        {
          "attributes": {
            "POSITION": 0,
            "NORMAL": 1,
            "TEXCOORD_0": 2
          },
          "indices": 3,
          "material": 0
        }
      ]
    }
  ],
  "nodes": [
    {
      "mesh": 0
    }
  ],
  "scene": 0,
  "scenes": [
    {
      "nodes": [
        0
      ]
    }
  ],
  "textures": [
    {
      "source": 0
    }
  ]
}