{
  "asset": {
    "copyright": "",
    "generator": "SharpGLTF 1.0.0",
    "version": "2.0"
  },
  "accessors": [
    {
      "name": "POSITION",
      "bufferView": 0,
      "componentType": 5126,
      "count": 373,
      "max": [
        -96.168731689453125,
        56.335403442382813,
        410.35910034179688
      ],
      "min": [
        -103.08177947998047,
        47.138023376464844,
        400.74545288085938
      ],
      "type": "VEC3"
    },
    {
      "name": "NORMAL",
      "bufferView": 0,
      "byteOffset": 12,
      "componentType": 5126,
      "count": 373,
      "max": [
        0.9981810450553894,
        0.26167351007461548,
        0.70088797807693481
      ],
      "min": [
        -0.99915653467178345,
        -0.0056247790344059467,
        -0.72362804412841797
      ],
      "type": "VEC3"
    },
    {
      "name": "TEXCOORD_0",
      "bufferView": 0,
      "byteOffset": 24,
      "componentType": 5126,
      "count": 373,
      "max": [
        0.994140625,
        0.9990234375
      ],
      "min": [
        0.001953125,
        0.0478515625
      ],
      "type": "VEC2"
    },
    {
      "bufferView": 1,
      "componentType": 5123,
      "count": 1140,
      "type": "SCALAR"
    }
  ],
  "bufferViews": [
    {
      "buffer": 0,
      "byteLength": 11936,
      "byteStride": 32,
      "target": 34962
    },
    {
      "buffer": 0,
      "byteLength": 2280,
      "byteOffset": 11936,
      "target": 34963
    }
  ],
  "buffers": [
    {
      "byteLength": 14216,
      "uri": "3060435073507076210632_LOD00.bin"
    }
  ],
  "images": [
    {
      "uri": "3060435073507076210632_LOD00.png"
    }
  ],
  "materials": [
    {
      "doubleSided": true,
      "pbrMetallicRoughness": {
        "baseColorTexture": {
          "index": 0
        },
        "metallicFactor": 0
      }
    }
  ],
  "meshes": [
    {
      "name": "3060435073507076210632_0",
      "primitives": [
        {
          "attributes": {
            "POSITION": 0,
            "NORMAL": 1,
            "TEXCOORD_0": 2
          },
          "indices": 3,
          "material": 0
        }
      ]
    }
  ],
  "nodes": [
    {
      "mesh": 0
    }
  ],
  "scene": 0,
  "scenes": [
    {
      "nodes": [
        0
      ]
    }
  ],
  "textures": [
    {
      "source": 0
    }
  ]
}