{
  "asset": {
    "copyright": "",
    "generator": "SharpGLTF 1.0.0",
    "version": "2.0"
  },
  "accessors": [
    {
      "name": "POSITION",
      "bufferView": 0,
      "componentType": 5126,
      "count": 98,
      "max": [
        -141.96780395507813,
        10.143782615661621,
        258.14700317382813
      ],
      "min": [
        -153.79158020019531,
        9.7620935440063477,
        248.62876892089844
      ],
      "type": "VEC3"
    },
    {
      "name": "NORMAL",
      "bufferView": 0,
      "byteOffset": 12,
      "componentType": 5126,
      "count": 98,
      "max": [
        0.0042570605874061584,
        0.99998462200164795,
        0.089685693383216858
      ],
      "min": [
        -0.0039765159599483013,
        0.99596101045608521,
        -0.0039087417535483837
      ],
      "type": "VEC3"
    },
    {
      "name": "TEXCOORD_0",
      "bufferView": 0,
      "byteOffset": 24,
      "componentType": 5126,
      "count": 98,
      "max": [
        0.990234375,
        0.998046875
      ],
      "min": [
        0.001953125,
        0.205078125
      ],
      "type": "VEC2"
    },
    {
      "bufferView": 1,
      "componentType": 5123,
      "count": 321,
      "type": "SCALAR"
    }
  ],
  "bufferViews": [
    {
      "buffer": 0,
      "byteLength": 3136,
      "byteStride": 32,
      "target": 34962
    },
    {
      "buffer": 0,
      "byteLength": 642,
      "byteOffset": 3136,
      "target": 34963
    }
  ],
  "buffers": [
    {
      "byteLength": 3780,
      "uri": "3060435073507072474776_LOD00.bin"
    }
  ],
  "images": [
    {
      "uri": "3060435073507072474776_LOD00.png"
    }
  ],
  "materials": [
    {
      "doubleSided": true,
      "pbrMetallicRoughness": {
        "baseColorTexture": {
          "index": 0
        },
        "metallicFactor": 0
      }
    }
  ],
  "meshes": [
    {
      "name": "3060435073507072474776_0",
      "primitives": [
        {
          "attributes": {
            "POSITION": 0,
            "NORMAL": 1,
            "TEXCOORD_0": 2
          },
          "indices": 3,
          "material": 0
        }
      ]
    }
  ],
  "nodes": [
    {
      "mesh": 0
    }
  ],
  "scene": 0,
  "scenes": [
    {
      "nodes": [
        0
      ]
    }
  ],
  "textures": [
    {
      "source": 0
    }
  ]
}