{
  "asset": {
    "copyright": "",
    "generator": "SharpGLTF 1.0.0",
    "version": "2.0"
  },
  "accessors": [
    {
      "name": "POSITION",
      "bufferView": 0,
      "componentType": 5126,
      "count": 383,
      "max": [
        -47.274204254150391,
        24.472686767578125,
        377.77166748046875
      ],
      "min": [
        -53.757953643798828,
        19.707590103149414,
        372.2987060546875
      ],
      "type": "VEC3"
    },
    {
      "name": "NORMAL",
      "bufferView": 0,
      "byteOffset": 12,
      "componentType": 5126,
      "count": 383,
      "max": [
        0.88089394569396973,
        0.9834212064743042,
        0.99931812286376953
      ],
      "min": [
        -0.98704314231872559,
        -0.71508729457855225,
        -0.77972304821014404
      ],
      "type": "VEC3"
    },
    {
      "name": "TEXCOORD_0",
      "bufferView": 0,
      "byteOffset": 24,
      "componentType": 5126,
      "count": 383,
      "max": [
        0.998046875,
        0.998046875
      ],
      "min": [
        0.001953125,
        0.373046875
      ],
      "type": "VEC2"
    },
    {
      "bufferView": 1,
      "componentType": 5123,
      "count": 975,
      "type": "SCALAR"
    }
  ],
  "bufferViews": [
    {
      "buffer": 0,
      "byteLength": 12256,
      "byteStride": 32,
      "target": 34962
    },
    {
      "buffer": 0,
      "byteLength": 1950,
      "byteOffset": 12256,
      "target": 34963
    }
  ],
  "buffers": [
    {
      "byteLength": 14208,
      "uri": "3060435073507076201314_LOD00.bin"
    }
  ],
  "images": [
    {
      "uri": "3060435073507076201314_LOD00.png"
    }
  ],
  "materials": [
    {
      "doubleSided": true,
      "pbrMetallicRoughness": {
        "baseColorTexture": {
          "index": 0
        },
        "metallicFactor": 0
      }
    }
  ],
  "meshes": [
    {
      "name": "3060435073507076201314_0",
      "primitives": [
        {
          "attributes": {
            "POSITION": 0,
            "NORMAL": 1,
            "TEXCOORD_0": 2
          },
          "indices": 3,
          "material": 0
        }
      ]
    }
  ],
  "nodes": [
    {
      "mesh": 0
    }
  ],
  "scene": 0,
  "scenes": [
    {
      "nodes": [
        0
      ]
    }
  ],
  "textures": [
    {
      "source": 0
    }
  ]
}