{
  "asset": {
    "copyright": "",
    "generator": "SharpGLTF 1.0.0",
    "version": "2.0"
  },
  "accessors": [
    {
      "name": "POSITION",
      "bufferView": 0,
      "componentType": 5126,
      "count": 44,
      "max": [
        -70.911552429199219,
        25.999086380004883,
        344.56878662109375
      ],
      "min": [
        -71.197654724121094,
        21.186237335205078,
        343.66433715820313
      ],
      "type": "VEC3"
    },
    {
      "name": "NORMAL",
      "bufferView": 0,
      "byteOffset": 12,
      "componentType": 5126,
      "count": 44,
      "max": [
        -0.089817345142364502,
        0.995949387550354,
        0.19401447474956512
      ],
      "min": [
        -0.99093323945999146,
        -0.29047885537147522,
        -0.048932112753391266
      ],
      "type": "VEC3"
    },
    {
      "name": "TEXCOORD_0",
      "bufferView": 0,
      "byteOffset": 24,
      "componentType": 5126,
      "count": 44,
      "max": [
        0.302734375,
        0.998046875
      ],
      "min": [
        0.001953125,
        0.912109375
      ],
      "type": "VEC2"
    },
    {
      "bufferView": 1,
      "componentType": 5123,
      "count": 111,
      "type": "SCALAR"
    }
  ],
  "bufferViews": [
    {
      "buffer": 0,
      "byteLength": 1408,
      "byteStride": 32,
      "target": 34962
    },
    {
      "buffer": 0,
      "byteLength": 222,
      "byteOffset": 1408,
      "target": 34963
    }
  ],
  "buffers": [
    {
      "byteLength": 1632,
      "uri": "3060435073507076210006_LOD00.bin"
    }
  ],
  "images": [
    {
      "uri": "3060435073507076210006_LOD00.png"
    }
  ],
  "materials": [
    {
      "doubleSided": true,
      "pbrMetallicRoughness": {
        "baseColorTexture": {
          "index": 0
        },
        "metallicFactor": 0
      }
    }
  ],
  "meshes": [
    {
      "name": "3060435073507076210006_0",
      "primitives": [
        {
          "attributes": {
            "POSITION": 0,
            "NORMAL": 1,
            "TEXCOORD_0": 2
          },
          "indices": 3,
          "material": 0
        }
      ]
    }
  ],
  "nodes": [
    {
      "mesh": 0
    }
  ],
  "scene": 0,
  "scenes": [
    {
      "nodes": [
        0
      ]
    }
  ],
  "textures": [
    {
      "source": 0
    }
  ]
}