{
  "asset": {
    "copyright": "",
    "generator": "SharpGLTF 1.0.0",
    "version": "2.0"
  },
  "accessors": [
    {
      "name": "POSITION",
      "bufferView": 0,
      "componentType": 5126,
      "count": 214,
      "max": [
        -236.47721862792969,
        10.621233940124512,
        96.427032470703125
      ],
      "min": [
        -248.39669799804688,
        9.2394561767578125,
        86.908576965332031
      ],
      "type": "VEC3"
    },
    {
      "name": "NORMAL",
      "bufferView": 0,
      "byteOffset": 12,
      "componentType": 5126,
      "count": 214,
      "max": [
        0.99047023057937622,
        0.9999845027923584,
        0.8779071569442749
      ],
      "min": [
        -0.56731152534484863,
        -0.12407625466585159,
        -0.98731178045272827
      ],
      "type": "VEC3"
    },
    {
      "name": "TEXCOORD_0",
      "bufferView": 0,
      "byteOffset": 24,
      "componentType": 5126,
      "count": 214,
      "max": [
        0.986328125,
        0.998046875
      ],
      "min": [
        0.001953125,
        0.080078125
      ],
      "type": "VEC2"
    },
    {
      "bufferView": 1,
      "componentType": 5123,
      "count": 657,
      "type": "SCALAR"
    }
  ],
  "bufferViews": [
    {
      "buffer": 0,
      "byteLength": 6848,
      "byteStride": 32,
      "target": 34962
    },
    {
      "buffer": 0,
      "byteLength": 1314,
      "byteOffset": 6848,
      "target": 34963
    }
  ],
  "buffers": [
    {
      "byteLength": 8164,
      "uri": "3060435073507072455774_LOD00.bin"
    }
  ],
  "images": [
    {
      "uri": "3060435073507072455774_LOD00.png"
    }
  ],
  "materials": [
    {
      "doubleSided": true,
      "pbrMetallicRoughness": {
        "baseColorTexture": {
          "index": 0
        },
        "metallicFactor": 0
      }
    }
  ],
  "meshes": [
    {
      "name": "3060435073507072455774_0",
      "primitives": [
        {
          "attributes": {
            "POSITION": 0,
            "NORMAL": 1,
            "TEXCOORD_0": 2
          },
          "indices": 3,
          "material": 0
        }
      ]
    }
  ],
  "nodes": [
    {
      "mesh": 0
    }
  ],
  "scene": 0,
  "scenes": [
    {
      "nodes": [
        0
      ]
    }
  ],
  "textures": [
    {
      "source": 0
    }
  ]
}