{
  "asset": {
    "copyright": "",
    "generator": "SharpGLTF 1.0.0",
    "version": "2.0"
  },
  "accessors": [
    {
      "name": "POSITION",
      "bufferView": 0,
      "componentType": 5126,
      "count": 513,
      "max": [
        -272.03250122070313,
        16.953180313110352,
        47.625164031982422
      ],
      "min": [
        -283.856689453125,
        10.567770957946777,
        41.676486968994141
      ],
      "type": "VEC3"
    },
    {
      "name": "NORMAL",
      "bufferView": 0,
      "byteOffset": 12,
      "componentType": 5126,
      "count": 513,
      "max": [
        0.99466681480407715,
        0.97983694076538086,
        0.97296315431594849
      ],
      "min": [
        -0.99674564599990845,
        -0.92128252983093262,
        -0.99463534355163574
      ],
      "type": "VEC3"
    },
    {
      "name": "TEXCOORD_0",
      "bufferView": 0,
      "byteOffset": 24,
      "componentType": 5126,
      "count": 513,
      "max": [
        0.998046875,
        0.998046875
      ],
      "min": [
        0.001953125,
        0.689453125
      ],
      "type": "VEC2"
    },
    {
      "bufferView": 1,
      "componentType": 5123,
      "count": 1233,
      "type": "SCALAR"
    }
  ],
  "bufferViews": [
    {
      "buffer": 0,
      "byteLength": 16416,
      "byteStride": 32,
      "target": 34962
    },
    {
      "buffer": 0,
      "byteLength": 2466,
      "byteOffset": 16416,
      "target": 34963
    }
  ],
  "buffers": [
    {
      "byteLength": 18884,
      "uri": "3060435073507076100003_LOD00.bin"
    }
  ],
  "images": [
    {
      "uri": "3060435073507076100003_LOD00.png"
    }
  ],
  "materials": [
    {
      "doubleSided": true,
      "pbrMetallicRoughness": {
        "baseColorTexture": {
          "index": 0
        },
        "metallicFactor": 0
      }
    }
  ],
  "meshes": [
    {
      "name": "3060435073507076100003_0",
      "primitives": [
        {
          "attributes": {
            "POSITION": 0,
            "NORMAL": 1,
            "TEXCOORD_0": 2
          },
          "indices": 3,
          "material": 0
        }
      ]
    }
  ],
  "nodes": [
    {
      "mesh": 0
    }
  ],
  "scene": 0,
  "scenes": [
    {
      "nodes": [
        0
      ]
    }
  ],
  "textures": [
    {
      "source": 0
    }
  ]
}