{
  "asset": {
    "copyright": "",
    "generator": "SharpGLTF 1.0.0",
    "version": "2.0"
  },
  "accessors": [
    {
      "name": "POSITION",
      "bufferView": 0,
      "componentType": 5126,
      "count": 1174,
      "max": [
        -271.98037719726563,
        28.908275604248047,
        143.99441528320313
      ],
      "min": [
        -281.22970581054688,
        19.663515090942383,
        134.47642517089844
      ],
      "type": "VEC3"
    },
    {
      "name": "NORMAL",
      "bufferView": 0,
      "byteOffset": 12,
      "componentType": 5126,
      "count": 1174,
      "max": [
        0.99799221754074097,
        0.99596601724624634,
        0.998981773853302
      ],
      "min": [
        -0.99915790557861328,
        -0.99510711431503296,
        -0.99634057283401489
      ],
      "type": "VEC3"
    },
    {
      "name": "TEXCOORD_0",
      "bufferView": 0,
      "byteOffset": 24,
      "componentType": 5126,
      "count": 1174,
      "max": [
        0.998046875,
        0.9990234375
      ],
      "min": [
        0.001953125,
        0.0009765625
      ],
      "type": "VEC2"
    },
    {
      "bufferView": 1,
      "componentType": 5123,
      "count": 2739,
      "type": "SCALAR"
    },
    {
      "name": "POSITION",
      "bufferView": 0,
      "byteOffset": 37568,
      "componentType": 5126,
      "count": 296,
      "max": [
        -271.98062133789063,
        28.908237457275391,
        144.04197692871094
      ],
      "min": [
        -279.84698486328125,
        19.758735656738281,
        134.47657775878906
      ],
      "type": "VEC3"
    },
    {
      "name": "NORMAL",
      "bufferView": 0,
      "byteOffset": 37580,
      "componentType": 5126,
      "count": 296,
      "max": [
        0.97746098041534424,
        0.98901975154876709,
        0.99487215280532837
      ],
      "min": [
        -0.99915790557861328,
        -0.92125898599624634,
        -0.98247140645980835
      ],
      "type": "VEC3"
    },
    {
      "name": "TEXCOORD_0",
      "bufferView": 0,
      "byteOffset": 37592,
      "componentType": 5126,
      "count": 296,
      "max": [
        0.998046875,
        0.998046875
      ],
      "min": [
        0.001953125,
        0.583984375
      ],
      "type": "VEC2"
    },
    {
      "bufferView": 1,
      "byteOffset": 5478,
      "componentType": 5123,
      "count": 666,
      "type": "SCALAR"
    }
  ],
  "bufferViews": [
    {
      "buffer": 0,
      "byteLength": 47040,
      "byteStride": 32,
      "target": 34962
    },
    {
      "buffer": 0,
      "byteLength": 6810,
      "byteOffset": 47040,
      "target": 34963
    }
  ],
  "buffers": [
    {
      "byteLength": 53852,
      "uri": "3060435073507076102027_LOD00.bin"
    }
  ],
  "images": [
    {
      "uri": "3060435073507076102027_LOD00_0.png"
    },
    {
      "uri": "3060435073507076102027_LOD00_1.png"
    }
  ],
  "materials": [
    {
      "doubleSided": true,
      "pbrMetallicRoughness": {
        "baseColorTexture": {
          "index": 0
        },
        "metallicFactor": 0
      }
    },
    {
      "doubleSided": true,
      "pbrMetallicRoughness": {
        "baseColorTexture": {
          "index": 1
        },
        "metallicFactor": 0
      }
    }
  ],
  "meshes": [
    {
      "name": "3060435073507076102027_0",
      "primitives": [
        {
          "attributes": {
            "POSITION": 0,
            "NORMAL": 1,
            "TEXCOORD_0": 2
          },
          "indices": 3,
          "material": 0
        }
      ]
    },
    {
      "name": "3060435073507076102027_1",
      "primitives": [
        {
          "attributes": {
            "POSITION": 4,
            "NORMAL": 5,
            "TEXCOORD_0": 6
          },
          "indices": 7,
          "material": 1
        }
      ]
    }
  ],
  "nodes": [
    {
      "mesh": 0
    },
    {
      "mesh": 1
    }
  ],
  "scene": 0,
  "scenes": [
    {
      "nodes": [
        0,
        1
      ]
    }
  ],
  "textures": [
    {
      "source": 0
    },
    {
      "source": 1
    }
  ]
}