{
  "asset": {
    "copyright": "",
    "generator": "SharpGLTF 1.0.0",
    "version": "2.0"
  },
  "accessors": [
    {
      "name": "POSITION",
      "bufferView": 0,
      "componentType": 5126,
      "count": 69,
      "max": [
        -141.96754455566406,
        9.9526691436767578,
        267.66015625
      ],
      "min": [
        -153.79129028320313,
        9.713958740234375,
        258.14190673828125
      ],
      "type": "VEC3"
    },
    {
      "name": "NORMAL",
      "bufferView": 0,
      "byteOffset": 12,
      "componentType": 5126,
      "count": 69,
      "max": [
        0.0039323614910244942,
        0.99998462200164795,
        0.0039876135997474194
      ],
      "min": [
        -0.0039765085093677044,
        0.99998420476913452,
        -0.0039072535000741482
      ],
      "type": "VEC3"
    },
    {
      "name": "TEXCOORD_0",
      "bufferView": 0,
      "byteOffset": 24,
      "componentType": 5126,
      "count": 69,
      "max": [
        0.783203125,
        0.998046875
      ],
      "min": [
        0.001953125,
        0.029296875
      ],
      "type": "VEC2"
    },
    {
      "bufferView": 1,
      "componentType": 5123,
      "count": 333,
      "type": "SCALAR"
    }
  ],
  "bufferViews": [
    {
      "buffer": 0,
      "byteLength": 2208,
      "byteStride": 32,
      "target": 34962
    },
    {
      "buffer": 0,
      "byteLength": 666,
      "byteOffset": 2208,
      "target": 34963
    }
  ],
  "buffers": [
    {
      "byteLength": 2876,
      "uri": "3060435073507072476554_LOD00.bin"
    }
  ],
  "images": [
    {
      "uri": "3060435073507072476554_LOD00.png"
    }
  ],
  "materials": [
    {
      "doubleSided": true,
      "pbrMetallicRoughness": {
        "baseColorTexture": {
          "index": 0
        },
        "metallicFactor": 0
      }
    }
  ],
  "meshes": [
    {
      "name": "3060435073507072476554_0",
      "primitives": [
        {
          "attributes": {
            "POSITION": 0,
            "NORMAL": 1,
            "TEXCOORD_0": 2
          },
          "indices": 3,
          "material": 0
        }
      ]
    }
  ],
  "nodes": [
    {
      "mesh": 0
    }
  ],
  "scene": 0,
  "scenes": [
    {
      "nodes": [
        0
      ]
    }
  ],
  "textures": [
    {
      "source": 0
    }
  ]
}