{
  "asset": {
    "copyright": "",
    "generator": "SharpGLTF 1.0.0",
    "version": "2.0"
  },
  "accessors": [
    {
      "name": "POSITION",
      "bufferView": 0,
      "componentType": 5126,
      "count": 99,
      "max": [
        -177.42425537109375,
        10.000185966491699,
        248.63502502441406
      ],
      "min": [
        -189.24797058105469,
        9.7613773345947266,
        242.78108215332031
      ],
      "type": "VEC3"
    },
    {
      "name": "NORMAL",
      "bufferView": 0,
      "byteOffset": 12,
      "componentType": 5126,
      "count": 99,
      "max": [
        2.7732239686883986E-05,
        0.99998414516448975,
        0.64278882741928101
      ],
      "min": [
        -0.76602303981781006,
        -1,
        -3.7204266845947132E-05
      ],
      "type": "VEC3"
    },
    {
      "name": "TEXCOORD_0",
      "bufferView": 0,
      "byteOffset": 24,
      "componentType": 5126,
      "count": 99,
      "max": [
        0.998046875,
        0.998046875
      ],
      "min": [
        0.001953125,
        0.392578125
      ],
      "type": "VEC2"
    },
    {
      "bufferView": 1,
      "componentType": 5123,
      "count": 273,
      "type": "SCALAR"
    }
  ],
  "bufferViews": [
    {
      "buffer": 0,
      "byteLength": 3168,
      "byteStride": 32,
      "target": 34962
    },
    {
      "buffer": 0,
      "byteLength": 546,
      "byteOffset": 3168,
      "target": 34963
    }
  ],
  "buffers": [
    {
      "byteLength": 3716,
      "uri": "3060435073507072475665_LOD00.bin"
    }
  ],
  "images": [
    {
      "uri": "3060435073507072475665_LOD00.png"
    }
  ],
  "materials": [
    {
      "doubleSided": true,
      "pbrMetallicRoughness": {
        "baseColorTexture": {
          "index": 0
        },
        "metallicFactor": 0
      }
    }
  ],
  "meshes": [
    {
      "name": "3060435073507072475665_0",
      "primitives": [
        {
          "attributes": {
            "POSITION": 0,
            "NORMAL": 1,
            "TEXCOORD_0": 2
          },
          "indices": 3,
          "material": 0
        }
      ]
    }
  ],
  "nodes": [
    {
      "mesh": 0
    }
  ],
  "scene": 0,
  "scenes": [
    {
      "nodes": [
        0
      ]
    }
  ],
  "textures": [
    {
      "source": 0
    }
  ]
}