{
  "asset": {
    "copyright": "",
    "generator": "SharpGLTF 1.0.0",
    "version": "2.0"
  },
  "accessors": [
    {
      "name": "POSITION",
      "bufferView": 0,
      "componentType": 5126,
      "count": 548,
      "max": [
        -94.599143981933594,
        10.62379264831543,
        172.5748291015625
      ],
      "min": [
        -106.66141510009766,
        9.4322509765625,
        162.96182250976563
      ],
      "type": "VEC3"
    },
    {
      "name": "NORMAL",
      "bufferView": 0,
      "byteOffset": 12,
      "componentType": 5126,
      "count": 548,
      "max": [
        0.79648655652999878,
        0.99998462200164795,
        0.86187827587127686
      ],
      "min": [
        -0.81060785055160522,
        0.41288396716117859,
        -0.73351919651031494
      ],
      "type": "VEC3"
    },
    {
      "name": "TEXCOORD_0",
      "bufferView": 0,
      "byteOffset": 24,
      "componentType": 5126,
      "count": 548,
      "max": [
        0.998046875,
        0.998046875
      ],
      "min": [
        0.001953125,
        0.150390625
      ],
      "type": "VEC2"
    },
    {
      "bufferView": 1,
      "componentType": 5123,
      "count": 1689,
      "type": "SCALAR"
    }
  ],
  "bufferViews": [
    {
      "buffer": 0,
      "byteLength": 17536,
      "byteStride": 32,
      "target": 34962
    },
    {
      "buffer": 0,
      "byteLength": 3378,
      "byteOffset": 17536,
      "target": 34963
    }
  ],
  "buffers": [
    {
      "byteLength": 20916,
      "uri": "3060435073507072456674_LOD00.bin"
    }
  ],
  "images": [
    {
      "uri": "3060435073507072456674_LOD00.png"
    }
  ],
  "materials": [
    {
      "doubleSided": true,
      "pbrMetallicRoughness": {
        "baseColorTexture": {
          "index": 0
        },
        "metallicFactor": 0
      }
    }
  ],
  "meshes": [
    {
      "name": "3060435073507072456674_0",
      "primitives": [
        {
          "attributes": {
            "POSITION": 0,
            "NORMAL": 1,
            "TEXCOORD_0": 2
          },
          "indices": 3,
          "material": 0
        }
      ]
    }
  ],
  "nodes": [
    {
      "mesh": 0
    }
  ],
  "scene": 0,
  "scenes": [
    {
      "nodes": [
        0
      ]
    }
  ],
  "textures": [
    {
      "source": 0
    }
  ]
}