{
  "asset": {
    "copyright": "",
    "generator": "SharpGLTF 1.0.0",
    "version": "2.0"
  },
  "accessors": [
    {
      "name": "POSITION",
      "bufferView": 0,
      "componentType": 5126,
      "count": 677,
      "max": [
        7.909583568572998,
        28.247800827026367,
        67.881935119628906
      ],
      "min": [
        -0.19555740058422089,
        19.765718460083008,
        61.504856109619141
      ],
      "type": "VEC3"
    },
    {
      "name": "NORMAL",
      "bufferView": 0,
      "byteOffset": 12,
      "componentType": 5126,
      "count": 677,
      "max": [
        0.9981808066368103,
        0.99594986438751221,
        0.861766517162323
      ],
      "min": [
        -0.97309291362762451,
        -0.78896248340606689,
        -0.99798238277435303
      ],
      "type": "VEC3"
    },
    {
      "name": "TEXCOORD_0",
      "bufferView": 0,
      "byteOffset": 24,
      "componentType": 5126,
      "count": 677,
      "max": [
        0.998046875,
        0.998046875
      ],
      "min": [
        0.001953125,
        0.072265625
      ],
      "type": "VEC2"
    },
    {
      "bufferView": 1,
      "componentType": 5123,
      "count": 1797,
      "type": "SCALAR"
    }
  ],
  "bufferViews": [
    {
      "buffer": 0,
      "byteLength": 21664,
      "byteStride": 32,
      "target": 34962
    },
    {
      "buffer": 0,
      "byteLength": 3594,
      "byteOffset": 21664,
      "target": 34963
    }
  ],
  "buffers": [
    {
      "byteLength": 25260,
      "uri": "3060435073507076001027_LOD00.bin"
    }
  ],
  "images": [
    {
      "uri": "3060435073507076001027_LOD00.png"
    }
  ],
  "materials": [
    {
      "doubleSided": true,
      "pbrMetallicRoughness": {
        "baseColorTexture": {
          "index": 0
        },
        "metallicFactor": 0
      }
    }
  ],
  "meshes": [
    {
      "name": "3060435073507076001027_0",
      "primitives": [
        {
          "attributes": {
            "POSITION": 0,
            "NORMAL": 1,
            "TEXCOORD_0": 2
          },
          "indices": 3,
          "material": 0
        }
      ]
    }
  ],
  "nodes": [
    {
      "mesh": 0
    }
  ],
  "scene": 0,
  "scenes": [
    {
      "nodes": [
        0
      ]
    }
  ],
  "textures": [
    {
      "source": 0
    }
  ]
}