{
  "asset": {
    "copyright": "",
    "generator": "SharpGLTF 1.0.0",
    "version": "2.0"
  },
  "accessors": [
    {
      "name": "POSITION",
      "bufferView": 0,
      "componentType": 5126,
      "count": 246,
      "max": [
        -79.256851196289063,
        130.11236572265625,
        277.17684936523438
      ],
      "min": [
        -82.927894592285156,
        129.34988403320313,
        271.13284301757813
      ],
      "type": "VEC3"
    },
    {
      "name": "NORMAL",
      "bufferView": 0,
      "byteOffset": 12,
      "componentType": 5126,
      "count": 246,
      "max": [
        0.99898689985275269,
        0.9999845027923584,
        0.96012896299362183
      ],
      "min": [
        -0.85996240377426147,
        -0.92556560039520264,
        -0.99425923824310303
      ],
      "type": "VEC3"
    },
    {
      "name": "TEXCOORD_0",
      "bufferView": 0,
      "byteOffset": 24,
      "componentType": 5126,
      "count": 246,
      "max": [
        0.998046875,
        0.998046875
      ],
      "min": [
        0.001953125,
        0.708984375
      ],
      "type": "VEC2"
    },
    {
      "bufferView": 1,
      "componentType": 5123,
      "count": 651,
      "type": "SCALAR"
    }
  ],
  "bufferViews": [
    {
      "buffer": 0,
      "byteLength": 7872,
      "byteStride": 32,
      "target": 34962
    },
    {
      "buffer": 0,
      "byteLength": 1302,
      "byteOffset": 7872,
      "target": 34963
    }
  ],
  "buffers": [
    {
      "byteLength": 9176,
      "uri": "3060435073507076036406_LOD00.bin"
    }
  ],
  "images": [
    {
      "uri": "3060435073507076036406_LOD00.png"
    }
  ],
  "materials": [
    {
      "doubleSided": true,
      "pbrMetallicRoughness": {
        "baseColorTexture": {
          "index": 0
        },
        "metallicFactor": 0
      }
    }
  ],
  "meshes": [
    {
      "name": "3060435073507076036406_0",
      "primitives": [
        {
          "attributes": {
            "POSITION": 0,
            "NORMAL": 1,
            "TEXCOORD_0": 2
          },
          "indices": 3,
          "material": 0
        }
      ]
    }
  ],
  "nodes": [
    {
      "mesh": 0
    }
  ],
  "scene": 0,
  "scenes": [
    {
      "nodes": [
        0
      ]
    }
  ],
  "textures": [
    {
      "source": 0
    }
  ]
}