{
  "asset": {
    "copyright": "",
    "generator": "SharpGLTF 1.0.0",
    "version": "2.0"
  },
  "accessors": [
    {
      "name": "POSITION",
      "bufferView": 0,
      "componentType": 5126,
      "count": 536,
      "max": [
        -165.60008239746094,
        18.992670059204102,
        419.87179565429688
      ],
      "min": [
        -174.46774291992188,
        10.463065147399902,
        410.35311889648438
      ],
      "type": "VEC3"
    },
    {
      "name": "NORMAL",
      "bufferView": 0,
      "byteOffset": 12,
      "componentType": 5126,
      "count": 536,
      "max": [
        0.97744143009185791,
        0.99998408555984497,
        0.92465382814407349
      ],
      "min": [
        -0.98979133367538452,
        -0.81896126270294189,
        -0.96199899911880493
      ],
      "type": "VEC3"
    },
    {
      "name": "TEXCOORD_0",
      "bufferView": 0,
      "byteOffset": 24,
      "componentType": 5126,
      "count": 536,
      "max": [
        0.998046875,
        0.998046875
      ],
      "min": [
        0.001953125,
        0.181640625
      ],
      "type": "VEC2"
    },
    {
      "bufferView": 1,
      "componentType": 5123,
      "count": 1467,
      "type": "SCALAR"
    }
  ],
  "bufferViews": [
    {
      "buffer": 0,
      "byteLength": 17152,
      "byteStride": 32,
      "target": 34962
    },
    {
      "buffer": 0,
      "byteLength": 2934,
      "byteOffset": 17152,
      "target": 34963
    }
  ],
  "buffers": [
    {
      "byteLength": 20088,
      "uri": "3060435073507076213000_LOD00.bin"
    }
  ],
  "images": [
    {
      "uri": "3060435073507076213000_LOD00.png"
    }
  ],
  "materials": [
    {
      "doubleSided": true,
      "pbrMetallicRoughness": {
        "baseColorTexture": {
          "index": 0
        },
        "metallicFactor": 0
      }
    }
  ],
  "meshes": [
    {
      "name": "3060435073507076213000_0",
      "primitives": [
        {
          "attributes": {
            "POSITION": 0,
            "NORMAL": 1,
            "TEXCOORD_0": 2
          },
          "indices": 3,
          "material": 0
        }
      ]
    }
  ],
  "nodes": [
    {
      "mesh": 0
    }
  ],
  "scene": 0,
  "scenes": [
    {
      "nodes": [
        0
      ]
    }
  ],
  "textures": [
    {
      "source": 0
    }
  ]
}