{
  "asset": {
    "copyright": "",
    "generator": "SharpGLTF 1.0.0",
    "version": "2.0"
  },
  "accessors": [
    {
      "name": "POSITION",
      "bufferView": 0,
      "componentType": 5126,
      "count": 153,
      "max": [
        -94.548683166503906,
        13.042875289916992,
        334.25106811523438
      ],
      "min": [
        -99.983551025390625,
        10.565013885498047,
        330.4913330078125
      ],
      "type": "VEC3"
    },
    {
      "name": "NORMAL",
      "bufferView": 0,
      "byteOffset": 12,
      "componentType": 5126,
      "count": 153,
      "max": [
        0.27972817420959473,
        0.99896717071533203,
        0.15648184716701508
      ],
      "min": [
        -0.98005908727645874,
        -0.64898496866226196,
        -0.98824495077133179
      ],
      "type": "VEC3"
    },
    {
      "name": "TEXCOORD_0",
      "bufferView": 0,
      "byteOffset": 24,
      "componentType": 5126,
      "count": 153,
      "max": [
        0.998046875,
        0.998046875
      ],
      "min": [
        0.001953125,
        0.646484375
      ],
      "type": "VEC2"
    },
    {
      "bufferView": 1,
      "componentType": 5123,
      "count": 423,
      "type": "SCALAR"
    }
  ],
  "bufferViews": [
    {
      "buffer": 0,
      "byteLength": 4896,
      "byteStride": 32,
      "target": 34962
    },
    {
      "buffer": 0,
      "byteLength": 846,
      "byteOffset": 4896,
      "target": 34963
    }
  ],
  "buffers": [
    {
      "byteLength": 5744,
      "uri": "3060435073507076032232_LOD00.bin"
    }
  ],
  "images": [
    {
      "uri": "3060435073507076032232_LOD00.png"
    }
  ],
  "materials": [
    {
      "doubleSided": true,
      "pbrMetallicRoughness": {
        "baseColorTexture": {
          "index": 0
        },
        "metallicFactor": 0
      }
    }
  ],
  "meshes": [
    {
      "name": "3060435073507076032232_0",
      "primitives": [
        {
          "attributes": {
            "POSITION": 0,
            "NORMAL": 1,
            "TEXCOORD_0": 2
          },
          "indices": 3,
          "material": 0
        }
      ]
    }
  ],
  "nodes": [
    {
      "mesh": 0
    }
  ],
  "scene": 0,
  "scenes": [
    {
      "nodes": [
        0
      ]
    }
  ],
  "textures": [
    {
      "source": 0
    }
  ]
}