{
  "asset": {
    "copyright": "",
    "generator": "SharpGLTF 1.0.0",
    "version": "2.0"
  },
  "accessors": [
    {
      "name": "POSITION",
      "bufferView": 0,
      "componentType": 5126,
      "count": 394,
      "max": [
        -71.055747985839844,
        12.85661792755127,
        245.72926330566406
      ],
      "min": [
        -81.97344970703125,
        10.473848342895508,
        239.11424255371094
      ],
      "type": "VEC3"
    },
    {
      "name": "NORMAL",
      "bufferView": 0,
      "byteOffset": 12,
      "componentType": 5126,
      "count": 394,
      "max": [
        0.80018609762191772,
        0.99596762657165527,
        0.55135464668273926
      ],
      "min": [
        -0.6625518798828125,
        0.17782121896743774,
        -0.9125831127166748
      ],
      "type": "VEC3"
    },
    {
      "name": "TEXCOORD_0",
      "bufferView": 0,
      "byteOffset": 24,
      "componentType": 5126,
      "count": 394,
      "max": [
        0.998046875,
        0.998046875
      ],
      "min": [
        0.001953125,
        0.529296875
      ],
      "type": "VEC2"
    },
    {
      "bufferView": 1,
      "componentType": 5123,
      "count": 939,
      "type": "SCALAR"
    }
  ],
  "bufferViews": [
    {
      "buffer": 0,
      "byteLength": 12608,
      "byteStride": 32,
      "target": 34962
    },
    {
      "buffer": 0,
      "byteLength": 1878,
      "byteOffset": 12608,
      "target": 34963
    }
  ],
  "buffers": [
    {
      "byteLength": 14488,
      "uri": "3060435073507076030220_LOD00.bin"
    }
  ],
  "images": [
    {
      "uri": "3060435073507076030220_LOD00.png"
    }
  ],
  "materials": [
    {
      "doubleSided": true,
      "pbrMetallicRoughness": {
        "baseColorTexture": {
          "index": 0
        },
        "metallicFactor": 0
      }
    }
  ],
  "meshes": [
    {
      "name": "3060435073507076030220_0",
      "primitives": [
        {
          "attributes": {
            "POSITION": 0,
            "NORMAL": 1,
            "TEXCOORD_0": 2
          },
          "indices": 3,
          "material": 0
        }
      ]
    }
  ],
  "nodes": [
    {
      "mesh": 0
    }
  ],
  "scene": 0,
  "scenes": [
    {
      "nodes": [
        0
      ]
    }
  ],
  "textures": [
    {
      "source": 0
    }
  ]
}