{
  "asset": {
    "copyright": "",
    "generator": "SharpGLTF 1.0.0",
    "version": "2.0"
  },
  "accessors": [
    {
      "name": "POSITION",
      "bufferView": 0,
      "componentType": 5126,
      "count": 247,
      "max": [
        -47.322345733642578,
        25.904993057250977,
        324.73788452148438
      ],
      "min": [
        -51.374691009521484,
        19.710405349731445,
        320.69247436523438
      ],
      "type": "VEC3"
    },
    {
      "name": "NORMAL",
      "bufferView": 0,
      "byteOffset": 12,
      "componentType": 5126,
      "count": 247,
      "max": [
        0.8809933066368103,
        0.9109073281288147,
        0.70066183805465698
      ],
      "min": [
        -0.98344206809997559,
        -0.88395971059799194,
        -0.99043315649032593
      ],
      "type": "VEC3"
    },
    {
      "name": "TEXCOORD_0",
      "bufferView": 0,
      "byteOffset": 24,
      "componentType": 5126,
      "count": 247,
      "max": [
        0.998046875,
        0.998046875
      ],
      "min": [
        0.001953125,
        0.623046875
      ],
      "type": "VEC2"
    },
    {
      "bufferView": 1,
      "componentType": 5123,
      "count": 627,
      "type": "SCALAR"
    }
  ],
  "bufferViews": [
    {
      "buffer": 0,
      "byteLength": 7904,
      "byteStride": 32,
      "target": 34962
    },
    {
      "buffer": 0,
      "byteLength": 1254,
      "byteOffset": 7904,
      "target": 34963
    }
  ],
  "buffers": [
    {
      "byteLength": 9160,
      "uri": "3060435073507076023334_LOD00.bin"
    }
  ],
  "images": [
    {
      "uri": "3060435073507076023334_LOD00.png"
    }
  ],
  "materials": [
    {
      "doubleSided": true,
      "pbrMetallicRoughness": {
        "baseColorTexture": {
          "index": 0
        },
        "metallicFactor": 0
      }
    }
  ],
  "meshes": [
    {
      "name": "3060435073507076023334_0",
      "primitives": [
        {
          "attributes": {
            "POSITION": 0,
            "NORMAL": 1,
            "TEXCOORD_0": 2
          },
          "indices": 3,
          "material": 0
        }
      ]
    }
  ],
  "nodes": [
    {
      "mesh": 0
    }
  ],
  "scene": 0,
  "scenes": [
    {
      "nodes": [
        0
      ]
    }
  ],
  "textures": [
    {
      "source": 0
    }
  ]
}