{
  "asset": {
    "copyright": "",
    "generator": "SharpGLTF 1.0.0",
    "version": "2.0"
  },
  "accessors": [
    {
      "name": "POSITION",
      "bufferView": 0,
      "componentType": 5126,
      "count": 564,
      "max": [
        -36.123294830322266,
        23.376853942871094,
        372.30361938476563
      ],
      "min": [
        -47.469757080078125,
        19.755306243896484,
        362.69024658203125
      ],
      "type": "VEC3"
    },
    {
      "name": "NORMAL",
      "bufferView": 0,
      "byteOffset": 12,
      "componentType": 5126,
      "count": 564,
      "max": [
        0.99179327487945557,
        0.99896866083145142,
        0.97186797857284546
      ],
      "min": [
        -0.99440604448318481,
        -0.78239911794662476,
        -0.99634504318237305
      ],
      "type": "VEC3"
    },
    {
      "name": "TEXCOORD_0",
      "bufferView": 0,
      "byteOffset": 24,
      "componentType": 5126,
      "count": 564,
      "max": [
        0.998046875,
        0.998046875
      ],
      "min": [
        0.001953125,
        0.009765625
      ],
      "type": "VEC2"
    },
    {
      "bufferView": 1,
      "componentType": 5123,
      "count": 1425,
      "type": "SCALAR"
    }
  ],
  "bufferViews": [
    {
      "buffer": 0,
      "byteLength": 18048,
      "byteStride": 32,
      "target": 34962
    },
    {
      "buffer": 0,
      "byteLength": 2850,
      "byteOffset": 18048,
      "target": 34963
    }
  ],
  "buffers": [
    {
      "byteLength": 20900,
      "uri": "3060435073507076201127_LOD00.bin"
    }
  ],
  "images": [
    {
      "uri": "3060435073507076201127_LOD00.png"
    }
  ],
  "materials": [
    {
      "doubleSided": true,
      "pbrMetallicRoughness": {
        "baseColorTexture": {
          "index": 0
        },
        "metallicFactor": 0
      }
    }
  ],
  "meshes": [
    {
      "name": "3060435073507076201127_0",
      "primitives": [
        {
          "attributes": {
            "POSITION": 0,
            "NORMAL": 1,
            "TEXCOORD_0": 2
          },
          "indices": 3,
          "material": 0
        }
      ]
    }
  ],
  "nodes": [
    {
      "mesh": 0
    }
  ],
  "scene": 0,
  "scenes": [
    {
      "nodes": [
        0
      ]
    }
  ],
  "textures": [
    {
      "source": 0
    }
  ]
}