{
  "asset": {
    "copyright": "",
    "generator": "SharpGLTF 1.0.0",
    "version": "2.0"
  },
  "accessors": [
    {
      "name": "POSITION",
      "bufferView": 0,
      "componentType": 5126,
      "count": 157,
      "max": [
        -79.923606872558594,
        74.678672790527344,
        277.9783935546875
      ],
      "min": [
        -82.879539489746094,
        65.481765747070313,
        277.02691650390625
      ],
      "type": "VEC3"
    },
    {
      "name": "NORMAL",
      "bufferView": 0,
      "byteOffset": 12,
      "componentType": 5126,
      "count": 157,
      "max": [
        0.72481650114059448,
        0.72459959983825684,
        0.999317467212677
      ],
      "min": [
        -0.26496922969818115,
        -0.19036057591438293,
        0.63574039936065674
      ],
      "type": "VEC3"
    },
    {
      "name": "TEXCOORD_0",
      "bufferView": 0,
      "byteOffset": 24,
      "componentType": 5126,
      "count": 157,
      "max": [
        0.966796875,
        0.998046875
      ],
      "min": [
        0.001953125,
        0.623046875
      ],
      "type": "VEC2"
    },
    {
      "bufferView": 1,
      "componentType": 5123,
      "count": 534,
      "type": "SCALAR"
    }
  ],
  "bufferViews": [
    {
      "buffer": 0,
      "byteLength": 5024,
      "byteStride": 32,
      "target": 34962
    },
    {
      "buffer": 0,
      "byteLength": 1068,
      "byteOffset": 5024,
      "target": 34963
    }
  ],
  "buffers": [
    {
      "byteLength": 6092,
      "uri": "3060435073507076032460_LOD00.bin"
    }
  ],
  "images": [
    {
      "uri": "3060435073507076032460_LOD00.png"
    }
  ],
  "materials": [
    {
      "doubleSided": true,
      "pbrMetallicRoughness": {
        "baseColorTexture": {
          "index": 0
        },
        "metallicFactor": 0
      }
    }
  ],
  "meshes": [
    {
      "name": "3060435073507076032460_0",
      "primitives": [
        {
          "attributes": {
            "POSITION": 0,
            "NORMAL": 1,
            "TEXCOORD_0": 2
          },
          "indices": 3,
          "material": 0
        }
      ]
    }
  ],
  "nodes": [
    {
      "mesh": 0
    }
  ],
  "scene": 0,
  "scenes": [
    {
      "nodes": [
        0
      ]
    }
  ],
  "textures": [
    {
      "source": 0
    }
  ]
}