{
  "asset": {
    "copyright": "",
    "generator": "SharpGLTF 1.0.0",
    "version": "2.0"
  },
  "accessors": [
    {
      "name": "POSITION",
      "bufferView": 0,
      "componentType": 5126,
      "count": 270,
      "max": [
        -94.646522521972656,
        10.623125076293945,
        191.64878845214844
      ],
      "min": [
        -106.51799011230469,
        9.3362913131713867,
        182.03562927246094
      ],
      "type": "VEC3"
    },
    {
      "name": "NORMAL",
      "bufferView": 0,
      "byteOffset": 12,
      "componentType": 5126,
      "count": 270,
      "max": [
        0.32831642031669617,
        0.99998462200164795,
        0.51242774724960327
      ],
      "min": [
        -0.85503107309341431,
        -0.13888968527317047,
        -0.97759312391281128
      ],
      "type": "VEC3"
    },
    {
      "name": "TEXCOORD_0",
      "bufferView": 0,
      "byteOffset": 24,
      "componentType": 5126,
      "count": 270,
      "max": [
        0.990234375,
        0.9990234375
      ],
      "min": [
        0.001953125,
        0.3642578125
      ],
      "type": "VEC2"
    },
    {
      "bufferView": 1,
      "componentType": 5123,
      "count": 867,
      "type": "SCALAR"
    }
  ],
  "bufferViews": [
    {
      "buffer": 0,
      "byteLength": 8640,
      "byteStride": 32,
      "target": 34962
    },
    {
      "buffer": 0,
      "byteLength": 1734,
      "byteOffset": 8640,
      "target": 34963
    }
  ],
  "buffers": [
    {
      "byteLength": 10376,
      "uri": "3060435073507072474454_LOD00.bin"
    }
  ],
  "images": [
    {
      "uri": "3060435073507072474454_LOD00.png"
    }
  ],
  "materials": [
    {
      "doubleSided": true,
      "pbrMetallicRoughness": {
        "baseColorTexture": {
          "index": 0
        },
        "metallicFactor": 0
      }
    }
  ],
  "meshes": [
    {
      "name": "3060435073507072474454_0",
      "primitives": [
        {
          "attributes": {
            "POSITION": 0,
            "NORMAL": 1,
            "TEXCOORD_0": 2
          },
          "indices": 3,
          "material": 0
        }
      ]
    }
  ],
  "nodes": [
    {
      "mesh": 0
    }
  ],
  "scene": 0,
  "scenes": [
    {
      "nodes": [
        0
      ]
    }
  ],
  "textures": [
    {
      "source": 0
    }
  ]
}