{
  "asset": {
    "copyright": "",
    "generator": "SharpGLTF 1.0.0",
    "version": "2.0"
  },
  "accessors": [
    {
      "name": "POSITION",
      "bufferView": 0,
      "componentType": 5126,
      "count": 548,
      "max": [
        -212.83821105957031,
        12.094047546386719,
        123.49016571044922
      ],
      "min": [
        -224.75741577148438,
        10.473835945129395,
        115.44703674316406
      ],
      "type": "VEC3"
    },
    {
      "name": "NORMAL",
      "bufferView": 0,
      "byteOffset": 12,
      "componentType": 5126,
      "count": 548,
      "max": [
        0.99600428342819214,
        0.99896907806396484,
        0.9726027250289917
      ],
      "min": [
        -0.96728402376174927,
        -0.99917089939117432,
        -0.97172057628631592
      ],
      "type": "VEC3"
    },
    {
      "name": "TEXCOORD_0",
      "bufferView": 0,
      "byteOffset": 24,
      "componentType": 5126,
      "count": 548,
      "max": [
        0.998046875,
        0.998046875
      ],
      "min": [
        0.001953125,
        0.666015625
      ],
      "type": "VEC2"
    },
    {
      "bufferView": 1,
      "componentType": 5123,
      "count": 1341,
      "type": "SCALAR"
    }
  ],
  "bufferViews": [
    {
      "buffer": 0,
      "byteLength": 17536,
      "byteStride": 32,
      "target": 34962
    },
    {
      "buffer": 0,
      "byteLength": 2682,
      "byteOffset": 17536,
      "target": 34963
    }
  ],
  "buffers": [
    {
      "byteLength": 20220,
      "uri": "3060435073507076013102_LOD00.bin"
    }
  ],
  "images": [
    {
      "uri": "3060435073507076013102_LOD00.png"
    }
  ],
  "materials": [
    {
      "doubleSided": true,
      "pbrMetallicRoughness": {
        "baseColorTexture": {
          "index": 0
        },
        "metallicFactor": 0
      }
    }
  ],
  "meshes": [
    {
      "name": "3060435073507076013102_0",
      "primitives": [
        {
          "attributes": {
            "POSITION": 0,
            "NORMAL": 1,
            "TEXCOORD_0": 2
          },
          "indices": 3,
          "material": 0
        }
      ]
    }
  ],
  "nodes": [
    {
      "mesh": 0
    }
  ],
  "scene": 0,
  "scenes": [
    {
      "nodes": [
        0
      ]
    }
  ],
  "textures": [
    {
      "source": 0
    }
  ]
}