{
  "asset": {
    "copyright": "",
    "generator": "SharpGLTF 1.0.0",
    "version": "2.0"
  },
  "accessors": [
    {
      "name": "POSITION",
      "bufferView": 0,
      "componentType": 5126,
      "count": 449,
      "max": [
        -201.02285766601563,
        19.910732269287109,
        29.833414077758789
      ],
      "min": [
        -212.98989868164063,
        10.475647926330566,
        23.884304046630859
      ],
      "type": "VEC3"
    },
    {
      "name": "NORMAL",
      "bufferView": 0,
      "byteOffset": 12,
      "componentType": 5126,
      "count": 449,
      "max": [
        0.31820449233055115,
        0.99596476554870605,
        0.9508674144744873
      ],
      "min": [
        -0.40236222743988037,
        -0.51496613025665283,
        -0.93200176954269409
      ],
      "type": "VEC3"
    },
    {
      "name": "TEXCOORD_0",
      "bufferView": 0,
      "byteOffset": 24,
      "componentType": 5126,
      "count": 449,
      "max": [
        0.998046875,
        0.9990234375
      ],
      "min": [
        0.001953125,
        0.0322265625
      ],
      "type": "VEC2"
    },
    {
      "bufferView": 1,
      "componentType": 5123,
      "count": 1197,
      "type": "SCALAR"
    },
    {
      "name": "POSITION",
      "bufferView": 0,
      "byteOffset": 14368,
      "componentType": 5126,
      "count": 63,
      "max": [
        -201.78562927246094,
        15.193011283874512,
        26.978023529052734
      ],
      "min": [
        -212.89456176757813,
        10.570576667785645,
        23.932039260864258
      ],
      "type": "VEC3"
    },
    {
      "name": "NORMAL",
      "bufferView": 0,
      "byteOffset": 14380,
      "componentType": 5126,
      "count": 63,
      "max": [
        0.26448804140090942,
        0.45785430073738098,
        -0.85355991125106812
      ],
      "min": [
        -0.25733035802841187,
        0.34382086992263794,
        -0.93200176954269409
      ],
      "type": "VEC3"
    },
    {
      "name": "TEXCOORD_0",
      "bufferView": 0,
      "byteOffset": 14392,
      "componentType": 5126,
      "count": 63,
      "max": [
        0.951171875,
        0.998046875
      ],
      "min": [
        0.001953125,
        0.599609375
      ],
      "type": "VEC2"
    },
    {
      "bufferView": 1,
      "byteOffset": 2394,
      "componentType": 5123,
      "count": 186,
      "type": "SCALAR"
    }
  ],
  "bufferViews": [
    {
      "buffer": 0,
      "byteLength": 16384,
      "byteStride": 32,
      "target": 34962
    },
    {
      "buffer": 0,
      "byteLength": 2766,
      "byteOffset": 16384,
      "target": 34963
    }
  ],
  "buffers": [
    {
      "byteLength": 19152,
      "uri": "3060435073507074233233_LOD00.bin"
    }
  ],
  "images": [
    {
      "uri": "3060435073507074233233_LOD00_0.png"
    },
    {
      "uri": "3060435073507074233233_LOD00_1.png"
    }
  ],
  "materials": [
    {
      "doubleSided": true,
      "pbrMetallicRoughness": {
        "baseColorTexture": {
          "index": 0
        },
        "metallicFactor": 0
      }
    },
    {
      "doubleSided": true,
      "pbrMetallicRoughness": {
        "baseColorTexture": {
          "index": 1
        },
        "metallicFactor": 0
      }
    }
  ],
  "meshes": [
    {
      "name": "3060435073507074233233_0",
      "primitives": [
        {
          "attributes": {
            "POSITION": 0,
            "NORMAL": 1,
            "TEXCOORD_0": 2
          },
          "indices": 3,
          "material": 0
        }
      ]
    },
    {
      "name": "3060435073507074233233_1",
      "primitives": [
        {
          "attributes": {
            "POSITION": 4,
            "NORMAL": 5,
            "TEXCOORD_0": 6
          },
          "indices": 7,
          "material": 1
        }
      ]
    }
  ],
  "nodes": [
    {
      "mesh": 0
    },
    {
      "mesh": 1
    }
  ],
  "scene": 0,
  "scenes": [
    {
      "nodes": [
        0,
        1
      ]
    }
  ],
  "textures": [
    {
      "source": 0
    },
    {
      "source": 1
    }
  ]
}