{
  "asset": {
    "copyright": "",
    "generator": "SharpGLTF 1.0.0",
    "version": "2.0"
  },
  "accessors": [
    {
      "name": "POSITION",
      "bufferView": 0,
      "componentType": 5126,
      "count": 126,
      "max": [
        -121.954833984375,
        18.57499885559082,
        210.67601013183594
      ],
      "min": [
        -130.29826354980469,
        10.474151611328125,
        202.5379638671875
      ],
      "type": "VEC3"
    },
    {
      "name": "NORMAL",
      "bufferView": 0,
      "byteOffset": 12,
      "componentType": 5126,
      "count": 126,
      "max": [
        0.99466085433959961,
        0.99045878648757935,
        0.32956817746162415
      ],
      "min": [
        -0.60641294717788696,
        -0.093182832002639771,
        -0.71178203821182251
      ],
      "type": "VEC3"
    },
    {
      "name": "TEXCOORD_0",
      "bufferView": 0,
      "byteOffset": 24,
      "componentType": 5126,
      "count": 126,
      "max": [
        0.462890625,
        0.998046875
      ],
      "min": [
        0.001953125,
        0.880859375
      ],
      "type": "VEC2"
    },
    {
      "bufferView": 1,
      "componentType": 5123,
      "count": 357,
      "type": "SCALAR"
    }
  ],
  "bufferViews": [
    {
      "buffer": 0,
      "byteLength": 4032,
      "byteStride": 32,
      "target": 34962
    },
    {
      "buffer": 0,
      "byteLength": 714,
      "byteOffset": 4032,
      "target": 34963
    }
  ],
  "buffers": [
    {
      "byteLength": 4748,
      "uri": "3060435073507076030120_LOD00.bin"
    }
  ],
  "images": [
    {
      "uri": "3060435073507076030120_LOD00.png"
    }
  ],
  "materials": [
    {
      "doubleSided": true,
      "pbrMetallicRoughness": {
        "baseColorTexture": {
          "index": 0
        },
        "metallicFactor": 0
      }
    }
  ],
  "meshes": [
    {
      "name": "3060435073507076030120_0",
      "primitives": [
        {
          "attributes": {
            "POSITION": 0,
            "NORMAL": 1,
            "TEXCOORD_0": 2
          },
          "indices": 3,
          "material": 0
        }
      ]
    }
  ],
  "nodes": [
    {
      "mesh": 0
    }
  ],
  "scene": 0,
  "scenes": [
    {
      "nodes": [
        0
      ]
    }
  ],
  "textures": [
    {
      "source": 0
    }
  ]
}