{
  "asset": {
    "copyright": "",
    "generator": "SharpGLTF 1.0.0",
    "version": "2.0"
  },
  "accessors": [
    {
      "name": "POSITION",
      "bufferView": 0,
      "componentType": 5126,
      "count": 42,
      "max": [
        -107.65918731689453,
        11.334917068481445,
        96.374671936035156
      ],
      "min": [
        -112.37921905517578,
        10.620100975036621,
        94.23321533203125
      ],
      "type": "VEC3"
    },
    {
      "name": "NORMAL",
      "bufferView": 0,
      "byteOffset": 12,
      "componentType": 5126,
      "count": 42,
      "max": [
        0.86229187250137329,
        0.98666960000991821,
        0.76694220304489136
      ],
      "min": [
        -0.64843153953552246,
        0.44249585270881653,
        -0.87790793180465698
      ],
      "type": "VEC3"
    },
    {
      "name": "TEXCOORD_0",
      "bufferView": 0,
      "byteOffset": 24,
      "componentType": 5126,
      "count": 42,
      "max": [
        0.478515625,
        0.998046875
      ],
      "min": [
        0.001953125,
        0.919921875
      ],
      "type": "VEC2"
    },
    {
      "bufferView": 1,
      "componentType": 5123,
      "count": 129,
      "type": "SCALAR"
    }
  ],
  "bufferViews": [
    {
      "buffer": 0,
      "byteLength": 1344,
      "byteStride": 32,
      "target": 34962
    },
    {
      "buffer": 0,
      "byteLength": 258,
      "byteOffset": 1344,
      "target": 34963
    }
  ],
  "buffers": [
    {
      "byteLength": 1604,
      "uri": "3060435073507076010231_LOD00.bin"
    }
  ],
  "images": [
    {
      "uri": "3060435073507076010231_LOD00.png"
    }
  ],
  "materials": [
    {
      "doubleSided": true,
      "pbrMetallicRoughness": {
        "baseColorTexture": {
          "index": 0
        },
        "metallicFactor": 0
      }
    }
  ],
  "meshes": [
    {
      "name": "3060435073507076010231_0",
      "primitives": [
        {
          "attributes": {
            "POSITION": 0,
            "NORMAL": 1,
            "TEXCOORD_0": 2
          },
          "indices": 3,
          "material": 0
        }
      ]
    }
  ],
  "nodes": [
    {
      "mesh": 0
    }
  ],
  "scene": 0,
  "scenes": [
    {
      "nodes": [
        0
      ]
    }
  ],
  "textures": [
    {
      "source": 0
    }
  ]
}