{
  "asset": {
    "copyright": "",
    "generator": "SharpGLTF 1.0.0",
    "version": "2.0"
  },
  "accessors": [
    {
      "name": "POSITION",
      "bufferView": 0,
      "componentType": 5126,
      "count": 359,
      "max": [
        -82.971832275390625,
        12.145035743713379,
        115.44829559326172
      ],
      "min": [
        -94.748031616210938,
        10.477137565612793,
        106.02545928955078
      ],
      "type": "VEC3"
    },
    {
      "name": "NORMAL",
      "bufferView": 0,
      "byteOffset": 12,
      "componentType": 5126,
      "count": 359,
      "max": [
        0.97006124258041382,
        0.9989703893661499,
        0.89939594268798828
      ],
      "min": [
        -0.98739606142044067,
        -0.21745474636554718,
        -0.99672853946685791
      ],
      "type": "VEC3"
    },
    {
      "name": "TEXCOORD_0",
      "bufferView": 0,
      "byteOffset": 24,
      "componentType": 5126,
      "count": 359,
      "max": [
        0.998046875,
        0.998046875
      ],
      "min": [
        0.001953125,
        0.642578125
      ],
      "type": "VEC2"
    },
    {
      "bufferView": 1,
      "componentType": 5123,
      "count": 993,
      "type": "SCALAR"
    }
  ],
  "bufferViews": [
    {
      "buffer": 0,
      "byteLength": 11488,
      "byteStride": 32,
      "target": 34962
    },
    {
      "buffer": 0,
      "byteLength": 1986,
      "byteOffset": 11488,
      "target": 34963
    }
  ],
  "buffers": [
    {
      "byteLength": 13476,
      "uri": "3060435073507076012001_LOD00.bin"
    }
  ],
  "images": [
    {
      "uri": "3060435073507076012001_LOD00.png"
    }
  ],
  "materials": [
    {
      "doubleSided": true,
      "pbrMetallicRoughness": {
        "baseColorTexture": {
          "index": 0
        },
        "metallicFactor": 0
      }
    }
  ],
  "meshes": [
    {
      "name": "3060435073507076012001_0",
      "primitives": [
        {
          "attributes": {
            "POSITION": 0,
            "NORMAL": 1,
            "TEXCOORD_0": 2
          },
          "indices": 3,
          "material": 0
        }
      ]
    }
  ],
  "nodes": [
    {
      "mesh": 0
    }
  ],
  "scene": 0,
  "scenes": [
    {
      "nodes": [
        0
      ]
    }
  ],
  "textures": [
    {
      "source": 0
    }
  ]
}