{
  "asset": {
    "copyright": "",
    "generator": "SharpGLTF 1.0.0",
    "version": "2.0"
  },
  "accessors": [
    {
      "name": "POSITION",
      "bufferView": 0,
      "componentType": 5126,
      "count": 388,
      "max": [
        -271.87811279296875,
        19.092554092407227,
        270.61114501953125
      ],
      "min": [
        -279.458251953125,
        10.705739974975586,
        267.61276245117188
      ],
      "type": "VEC3"
    },
    {
      "name": "NORMAL",
      "bufferView": 0,
      "byteOffset": 12,
      "componentType": 5126,
      "count": 388,
      "max": [
        0.90163648128509521,
        0.99998444318771362,
        0.96263360977172852
      ],
      "min": [
        -0.98005402088165283,
        -0.88551133871078491,
        -0.44512400031089783
      ],
      "type": "VEC3"
    },
    {
      "name": "TEXCOORD_0",
      "bufferView": 0,
      "byteOffset": 24,
      "componentType": 5126,
      "count": 388,
      "max": [
        0.998046875,
        0.998046875
      ],
      "min": [
        0.001953125,
        0.291015625
      ],
      "type": "VEC2"
    },
    {
      "bufferView": 1,
      "componentType": 5123,
      "count": 1050,
      "type": "SCALAR"
    }
  ],
  "bufferViews": [
    {
      "buffer": 0,
      "byteLength": 12416,
      "byteStride": 32,
      "target": 34962
    },
    {
      "buffer": 0,
      "byteLength": 2100,
      "byteOffset": 12416,
      "target": 34963
    }
  ],
  "buffers": [
    {
      "byteLength": 14516,
      "uri": "3060435073507076122003_LOD00.bin"
    }
  ],
  "images": [
    {
      "uri": "3060435073507076122003_LOD00.png"
    }
  ],
  "materials": [
    {
      "doubleSided": true,
      "pbrMetallicRoughness": {
        "baseColorTexture": {
          "index": 0
        },
        "metallicFactor": 0
      }
    }
  ],
  "meshes": [
    {
      "name": "3060435073507076122003_0",
      "primitives": [
        {
          "attributes": {
            "POSITION": 0,
            "NORMAL": 1,
            "TEXCOORD_0": 2
          },
          "indices": 3,
          "material": 0
        }
      ]
    }
  ],
  "nodes": [
    {
      "mesh": 0
    }
  ],
  "scene": 0,
  "scenes": [
    {
      "nodes": [
        0
      ]
    }
  ],
  "textures": [
    {
      "source": 0
    }
  ]
}