{
  "asset": {
    "copyright": "",
    "generator": "SharpGLTF 1.0.0",
    "version": "2.0"
  },
  "accessors": [
    {
      "name": "POSITION",
      "bufferView": 0,
      "componentType": 5126,
      "count": 730,
      "max": [
        -59.095176696777344,
        10.625061988830566,
        134.61692810058594
      ],
      "min": [
        -71.06207275390625,
        9.8625307083129883,
        124.95621490478516
      ],
      "type": "VEC3"
    },
    {
      "name": "NORMAL",
      "bufferView": 0,
      "byteOffset": 12,
      "componentType": 5126,
      "count": 730,
      "max": [
        0.76962649822235107,
        0.99998438358306885,
        0.96792685985565186
      ],
      "min": [
        -0.91296619176864624,
        -0.60775285959243774,
        -0.75827282667160034
      ],
      "type": "VEC3"
    },
    {
      "name": "TEXCOORD_0",
      "bufferView": 0,
      "byteOffset": 24,
      "componentType": 5126,
      "count": 730,
      "max": [
        0.998046875,
        0.998046875
      ],
      "min": [
        0.001953125,
        0.337890625
      ],
      "type": "VEC2"
    },
    {
      "bufferView": 1,
      "componentType": 5123,
      "count": 2016,
      "type": "SCALAR"
    }
  ],
  "bufferViews": [
    {
      "buffer": 0,
      "byteLength": 23360,
      "byteStride": 32,
      "target": 34962
    },
    {
      "buffer": 0,
      "byteLength": 4032,
      "byteOffset": 23360,
      "target": 34963
    }
  ],
  "buffers": [
    {
      "byteLength": 27392,
      "uri": "3060435073507072447575_LOD00.bin"
    }
  ],
  "images": [
    {
      "uri": "3060435073507072447575_LOD00.png"
    }
  ],
  "materials": [
    {
      "doubleSided": true,
      "pbrMetallicRoughness": {
        "baseColorTexture": {
          "index": 0
        },
        "metallicFactor": 0
      }
    }
  ],
  "meshes": [
    {
      "name": "3060435073507072447575_0",
      "primitives": [
        {
          "attributes": {
            "POSITION": 0,
            "NORMAL": 1,
            "TEXCOORD_0": 2
          },
          "indices": 3,
          "material": 0
        }
      ]
    }
  ],
  "nodes": [
    {
      "mesh": 0
    }
  ],
  "scene": 0,
  "scenes": [
    {
      "nodes": [
        0
      ]
    }
  ],
  "textures": [
    {
      "source": 0
    }
  ]
}