{
  "asset": {
    "copyright": "",
    "generator": "SharpGLTF 1.0.0",
    "version": "2.0"
  },
  "accessors": [
    {
      "name": "POSITION",
      "bufferView": 0,
      "componentType": 5126,
      "count": 261,
      "max": [
        -177.38017272949219,
        37.960025787353516,
        172.5303955078125
      ],
      "min": [
        -189.25157165527344,
        33.384906768798828,
        163.01205444335938
      ],
      "type": "VEC3"
    },
    {
      "name": "NORMAL",
      "bufferView": 0,
      "byteOffset": 12,
      "componentType": 5126,
      "count": 261,
      "max": [
        0.66684442758560181,
        0.99998444318771362,
        0.9981696605682373
      ],
      "min": [
        -0.98984426259994507,
        -0.97811233997344971,
        -0.18664911389350891
      ],
      "type": "VEC3"
    },
    {
      "name": "TEXCOORD_0",
      "bufferView": 0,
      "byteOffset": 24,
      "componentType": 5126,
      "count": 261,
      "max": [
        0.998046875,
        0.998046875
      ],
      "min": [
        0.001953125,
        0.076171875
      ],
      "type": "VEC2"
    },
    {
      "bufferView": 1,
      "componentType": 5123,
      "count": 717,
      "type": "SCALAR"
    }
  ],
  "bufferViews": [
    {
      "buffer": 0,
      "byteLength": 8352,
      "byteStride": 32,
      "target": 34962
    },
    {
      "buffer": 0,
      "byteLength": 1434,
      "byteOffset": 8352,
      "target": 34963
    }
  ],
  "buffers": [
    {
      "byteLength": 9788,
      "uri": "3060435073507076013261_LOD00.bin"
    }
  ],
  "images": [
    {
      "uri": "3060435073507076013261_LOD00.png"
    }
  ],
  "materials": [
    {
      "doubleSided": true,
      "pbrMetallicRoughness": {
        "baseColorTexture": {
          "index": 0
        },
        "metallicFactor": 0
      }
    }
  ],
  "meshes": [
    {
      "name": "3060435073507076013261_0",
      "primitives": [
        {
          "attributes": {
            "POSITION": 0,
            "NORMAL": 1,
            "TEXCOORD_0": 2
          },
          "indices": 3,
          "material": 0
        }
      ]
    }
  ],
  "nodes": [
    {
      "mesh": 0
    }
  ],
  "scene": 0,
  "scenes": [
    {
      "nodes": [
        0
      ]
    }
  ],
  "textures": [
    {
      "source": 0
    }
  ]
}