{
  "asset": {
    "copyright": "",
    "generator": "SharpGLTF 1.0.0",
    "version": "2.0"
  },
  "accessors": [
    {
      "name": "POSITION",
      "bufferView": 0,
      "componentType": 5126,
      "count": 255,
      "max": [
        -32.361648559570313,
        26.615537643432617,
        400.93829345703125
      ],
      "min": [
        -35.698810577392578,
        19.611268997192383,
        391.27734375
      ],
      "type": "VEC3"
    },
    {
      "name": "NORMAL",
      "bufferView": 0,
      "byteOffset": 12,
      "componentType": 5126,
      "count": 255,
      "max": [
        0.9949001669883728,
        0.9904334545135498,
        0.91256088018417358
      ],
      "min": [
        -0.98979687690734863,
        -0.68465679883956909,
        -0.97149538993835449
      ],
      "type": "VEC3"
    },
    {
      "name": "TEXCOORD_0",
      "bufferView": 0,
      "byteOffset": 24,
      "componentType": 5126,
      "count": 255,
      "max": [
        0.994140625,
        0.998046875
      ],
      "min": [
        0.001953125,
        0.552734375
      ],
      "type": "VEC2"
    },
    {
      "bufferView": 1,
      "componentType": 5123,
      "count": 690,
      "type": "SCALAR"
    }
  ],
  "bufferViews": [
    {
      "buffer": 0,
      "byteLength": 8160,
      "byteStride": 32,
      "target": 34962
    },
    {
      "buffer": 0,
      "byteLength": 1380,
      "byteOffset": 8160,
      "target": 34963
    }
  ],
  "buffers": [
    {
      "byteLength": 9540,
      "uri": "3060435073507076201324_LOD00.bin"
    }
  ],
  "images": [
    {
      "uri": "3060435073507076201324_LOD00.png"
    }
  ],
  "materials": [
    {
      "doubleSided": true,
      "pbrMetallicRoughness": {
        "baseColorTexture": {
          "index": 0
        },
        "metallicFactor": 0
      }
    }
  ],
  "meshes": [
    {
      "name": "3060435073507076201324_0",
      "primitives": [
        {
          "attributes": {
            "POSITION": 0,
            "NORMAL": 1,
            "TEXCOORD_0": 2
          },
          "indices": 3,
          "material": 0
        }
      ]
    }
  ],
  "nodes": [
    {
      "mesh": 0
    }
  ],
  "scene": 0,
  "scenes": [
    {
      "nodes": [
        0
      ]
    }
  ],
  "textures": [
    {
      "source": 0
    }
  ]
}