{
  "asset": {
    "copyright": "",
    "generator": "SharpGLTF 1.0.0",
    "version": "2.0"
  },
  "accessors": [
    {
      "name": "POSITION",
      "bufferView": 0,
      "componentType": 5126,
      "count": 148,
      "max": [
        -37.793422698974609,
        10.625396728515625,
        115.59040832519531
      ],
      "min": [
        -47.424129486083984,
        10.101192474365234,
        113.63928985595703
      ],
      "type": "VEC3"
    },
    {
      "name": "NORMAL",
      "bufferView": 0,
      "byteOffset": 12,
      "componentType": 5126,
      "count": 148,
      "max": [
        0.4458516538143158,
        0.98901283740997314,
        0.66614341735839844
      ],
      "min": [
        -0.79445260763168335,
        0.5607951283454895,
        -0.2051067054271698
      ],
      "type": "VEC3"
    },
    {
      "name": "TEXCOORD_0",
      "bufferView": 0,
      "byteOffset": 24,
      "componentType": 5126,
      "count": 148,
      "max": [
        0.646484375,
        0.998046875
      ],
      "min": [
        0.001953125,
        0.869140625
      ],
      "type": "VEC2"
    },
    {
      "bufferView": 1,
      "componentType": 5123,
      "count": 489,
      "type": "SCALAR"
    }
  ],
  "bufferViews": [
    {
      "buffer": 0,
      "byteLength": 4736,
      "byteStride": 32,
      "target": 34962
    },
    {
      "buffer": 0,
      "byteLength": 978,
      "byteOffset": 4736,
      "target": 34963
    }
  ],
  "buffers": [
    {
      "byteLength": 5716,
      "uri": "3060435073507072447545_LOD00.bin"
    }
  ],
  "images": [
    {
      "uri": "3060435073507072447545_LOD00.png"
    }
  ],
  "materials": [
    {
      "doubleSided": true,
      "pbrMetallicRoughness": {
        "baseColorTexture": {
          "index": 0
        },
        "metallicFactor": 0
      }
    }
  ],
  "meshes": [
    {
      "name": "3060435073507072447545_0",
      "primitives": [
        {
          "attributes": {
            "POSITION": 0,
            "NORMAL": 1,
            "TEXCOORD_0": 2
          },
          "indices": 3,
          "material": 0
        }
      ]
    }
  ],
  "nodes": [
    {
      "mesh": 0
    }
  ],
  "scene": 0,
  "scenes": [
    {
      "nodes": [
        0
      ]
    }
  ],
  "textures": [
    {
      "source": 0
    }
  ]
}