{
  "asset": {
    "copyright": "",
    "generator": "SharpGLTF 1.0.0",
    "version": "2.0"
  },
  "accessors": [
    {
      "name": "POSITION",
      "bufferView": 0,
      "componentType": 5126,
      "count": 633,
      "max": [
        -118.27988433837891,
        10.757119178771973,
        391.47332763671875
      ],
      "min": [
        -130.15080261230469,
        5.609980583190918,
        381.81210327148438
      ],
      "type": "VEC3"
    },
    {
      "name": "NORMAL",
      "bufferView": 0,
      "byteOffset": 12,
      "componentType": 5126,
      "count": 633,
      "max": [
        0.88059008121490479,
        0.9999847412109375,
        0.71435117721557617
      ],
      "min": [
        -0.96851652860641479,
        -1,
        -0.97294867038726807
      ],
      "type": "VEC3"
    },
    {
      "name": "TEXCOORD_0",
      "bufferView": 0,
      "byteOffset": 24,
      "componentType": 5126,
      "count": 633,
      "max": [
        0.998046875,
        0.9990234375
      ],
      "min": [
        0.001953125,
        0.0029296875
      ],
      "type": "VEC2"
    },
    {
      "bufferView": 1,
      "componentType": 5123,
      "count": 1545,
      "type": "SCALAR"
    },
    {
      "name": "POSITION",
      "bufferView": 0,
      "byteOffset": 20256,
      "componentType": 5126,
      "count": 80,
      "max": [
        -118.32740020751953,
        10.61408519744873,
        391.33050537109375
      ],
      "min": [
        -130.15077209472656,
        5.610295295715332,
        381.812255859375
      ],
      "type": "VEC3"
    },
    {
      "name": "NORMAL",
      "bufferView": 0,
      "byteOffset": 20268,
      "componentType": 5126,
      "count": 80,
      "max": [
        0.7859082818031311,
        0.99998462200164795,
        0.93945646286010742
      ],
      "min": [
        -0.81348079442977905,
        -1,
        -0.92463207244873047
      ],
      "type": "VEC3"
    },
    {
      "name": "TEXCOORD_0",
      "bufferView": 0,
      "byteOffset": 20280,
      "componentType": 5126,
      "count": 80,
      "max": [
        0.998046875,
        0.998046875
      ],
      "min": [
        0.001953125,
        0.095703125
      ],
      "type": "VEC2"
    },
    {
      "bufferView": 1,
      "byteOffset": 3090,
      "componentType": 5123,
      "count": 210,
      "type": "SCALAR"
    }
  ],
  "bufferViews": [
    {
      "buffer": 0,
      "byteLength": 22816,
      "byteStride": 32,
      "target": 34962
    },
    {
      "buffer": 0,
      "byteLength": 3510,
      "byteOffset": 22816,
      "target": 34963
    }
  ],
  "buffers": [
    {
      "byteLength": 26328,
      "uri": "3060435073507072654746_LOD00.bin"
    }
  ],
  "images": [
    {
      "uri": "3060435073507072654746_LOD00_0.png"
    },
    {
      "uri": "3060435073507072654746_LOD00_1.png"
    }
  ],
  "materials": [
    {
      "doubleSided": true,
      "pbrMetallicRoughness": {
        "baseColorTexture": {
          "index": 0
        },
        "metallicFactor": 0
      }
    },
    {
      "doubleSided": true,
      "pbrMetallicRoughness": {
        "baseColorTexture": {
          "index": 1
        },
        "metallicFactor": 0
      }
    }
  ],
  "meshes": [
    {
      "name": "3060435073507072654746_0",
      "primitives": [
        {
          "attributes": {
            "POSITION": 0,
            "NORMAL": 1,
            "TEXCOORD_0": 2
          },
          "indices": 3,
          "material": 0
        }
      ]
    },
    {
      "name": "3060435073507072654746_1",
      "primitives": [
        {
          "attributes": {
            "POSITION": 4,
            "NORMAL": 5,
            "TEXCOORD_0": 6
          },
          "indices": 7,
          "material": 1
        }
      ]
    }
  ],
  "nodes": [
    {
      "mesh": 0
    },
    {
      "mesh": 1
    }
  ],
  "scene": 0,
  "scenes": [
    {
      "nodes": [
        0,
        1
      ]
    }
  ],
  "textures": [
    {
      "source": 0
    },
    {
      "source": 1
    }
  ]
}