{
  "asset": {
    "copyright": "",
    "generator": "SharpGLTF 1.0.0",
    "version": "2.0"
  },
  "accessors": [
    {
      "name": "POSITION",
      "bufferView": 0,
      "componentType": 5126,
      "count": 223,
      "max": [
        -183.48457336425781,
        11.762053489685059,
        96.472091674804688
      ],
      "min": [
        -187.77546691894531,
        10.52308177947998,
        90.904029846191406
      ],
      "type": "VEC3"
    },
    {
      "name": "NORMAL",
      "bufferView": 0,
      "byteOffset": 12,
      "componentType": 5126,
      "count": 223,
      "max": [
        0.96987283229827881,
        0.99998420476913452,
        0.75910961627960205
      ],
      "min": [
        -0.66295576095581055,
        -0.42217713594436646,
        -0.97398680448532104
      ],
      "type": "VEC3"
    },
    {
      "name": "TEXCOORD_0",
      "bufferView": 0,
      "byteOffset": 24,
      "componentType": 5126,
      "count": 223,
      "max": [
        0.998046875,
        0.998046875
      ],
      "min": [
        0.001953125,
        0.724609375
      ],
      "type": "VEC2"
    },
    {
      "bufferView": 1,
      "componentType": 5123,
      "count": 573,
      "type": "SCALAR"
    }
  ],
  "bufferViews": [
    {
      "buffer": 0,
      "byteLength": 7136,
      "byteStride": 32,
      "target": 34962
    },
    {
      "buffer": 0,
      "byteLength": 1146,
      "byteOffset": 7136,
      "target": 34963
    }
  ],
  "buffers": [
    {
      "byteLength": 8284,
      "uri": "3060435073507076011221_LOD00.bin"
    }
  ],
  "images": [
    {
      "uri": "3060435073507076011221_LOD00.png"
    }
  ],
  "materials": [
    {
      "doubleSided": true,
      "pbrMetallicRoughness": {
        "baseColorTexture": {
          "index": 0
        },
        "metallicFactor": 0
      }
    }
  ],
  "meshes": [
    {
      "name": "3060435073507076011221_0",
      "primitives": [
        {
          "attributes": {
            "POSITION": 0,
            "NORMAL": 1,
            "TEXCOORD_0": 2
          },
          "indices": 3,
          "material": 0
        }
      ]
    }
  ],
  "nodes": [
    {
      "mesh": 0
    }
  ],
  "scene": 0,
  "scenes": [
    {
      "nodes": [
        0
      ]
    }
  ],
  "textures": [
    {
      "source": 0
    }
  ]
}