{
  "asset": {
    "copyright": "",
    "generator": "SharpGLTF 1.0.0",
    "version": "2.0"
  },
  "accessors": [
    {
      "name": "POSITION",
      "bufferView": 0,
      "componentType": 5126,
      "count": 181,
      "max": [
        -260.14559936523438,
        8.1757526397705078,
        438.99685668945313
      ],
      "min": [
        -272.11172485351563,
        7.3181543350219727,
        429.38311767578125
      ],
      "type": "VEC3"
    },
    {
      "name": "NORMAL",
      "bufferView": 0,
      "byteOffset": 12,
      "componentType": 5126,
      "count": 181,
      "max": [
        0.71148765087127686,
        0.99998486042022705,
        0.13757739961147308
      ],
      "min": [
        -0.15442679822444916,
        0.4188181459903717,
        -0.56424862146377563
      ],
      "type": "VEC3"
    },
    {
      "name": "TEXCOORD_0",
      "bufferView": 0,
      "byteOffset": 24,
      "componentType": 5126,
      "count": 181,
      "max": [
        0.994140625,
        0.9990234375
      ],
      "min": [
        0.001953125,
        0.3818359375
      ],
      "type": "VEC2"
    },
    {
      "bufferView": 1,
      "componentType": 5123,
      "count": 540,
      "type": "SCALAR"
    }
  ],
  "bufferViews": [
    {
      "buffer": 0,
      "byteLength": 5792,
      "byteStride": 32,
      "target": 34962
    },
    {
      "buffer": 0,
      "byteLength": 1080,
      "byteOffset": 5792,
      "target": 34963
    }
  ],
  "buffers": [
    {
      "byteLength": 6872,
      "uri": "3060435073507072746464_LOD00.bin"
    }
  ],
  "images": [
    {
      "uri": "3060435073507072746464_LOD00.png"
    }
  ],
  "materials": [
    {
      "doubleSided": true,
      "pbrMetallicRoughness": {
        "baseColorTexture": {
          "index": 0
        },
        "metallicFactor": 0
      }
    }
  ],
  "meshes": [
    {
      "name": "3060435073507072746464_0",
      "primitives": [
        {
          "attributes": {
            "POSITION": 0,
            "NORMAL": 1,
            "TEXCOORD_0": 2
          },
          "indices": 3,
          "material": 0
        }
      ]
    }
  ],
  "nodes": [
    {
      "mesh": 0
    }
  ],
  "scene": 0,
  "scenes": [
    {
      "nodes": [
        0
      ]
    }
  ],
  "textures": [
    {
      "source": 0
    }
  ]
}