{
  "asset": {
    "copyright": "",
    "generator": "SharpGLTF 1.0.0",
    "version": "2.0"
  },
  "accessors": [
    {
      "name": "POSITION",
      "bufferView": 0,
      "componentType": 5126,
      "count": 153,
      "max": [
        -172.57075500488281,
        17.480356216430664,
        115.45047760009766
      ],
      "min": [
        -175.3836669921875,
        12.524513244628906,
        114.21308898925781
      ],
      "type": "VEC3"
    },
    {
      "name": "NORMAL",
      "bufferView": 0,
      "byteOffset": 12,
      "componentType": 5126,
      "count": 153,
      "max": [
        0.94084107875823975,
        0.9999842643737793,
        0.83776706457138062
      ],
      "min": [
        -0.99441218376159668,
        -0.57439804077148438,
        -0.99042665958404541
      ],
      "type": "VEC3"
    },
    {
      "name": "TEXCOORD_0",
      "bufferView": 0,
      "byteOffset": 24,
      "componentType": 5126,
      "count": 153,
      "max": [
        0.998046875,
        0.998046875
      ],
      "min": [
        0.001953125,
        0.779296875
      ],
      "type": "VEC2"
    },
    {
      "bufferView": 1,
      "componentType": 5123,
      "count": 402,
      "type": "SCALAR"
    }
  ],
  "bufferViews": [
    {
      "buffer": 0,
      "byteLength": 4896,
      "byteStride": 32,
      "target": 34962
    },
    {
      "buffer": 0,
      "byteLength": 804,
      "byteOffset": 4896,
      "target": 34963
    }
  ],
  "buffers": [
    {
      "byteLength": 5700,
      "uri": "3060435073507076013000_LOD00.bin"
    }
  ],
  "images": [
    {
      "uri": "3060435073507076013000_LOD00.png"
    }
  ],
  "materials": [
    {
      "doubleSided": true,
      "pbrMetallicRoughness": {
        "baseColorTexture": {
          "index": 0
        },
        "metallicFactor": 0
      }
    }
  ],
  "meshes": [
    {
      "name": "3060435073507076013000_0",
      "primitives": [
        {
          "attributes": {
            "POSITION": 0,
            "NORMAL": 1,
            "TEXCOORD_0": 2
          },
          "indices": 3,
          "material": 0
        }
      ]
    }
  ],
  "nodes": [
    {
      "mesh": 0
    }
  ],
  "scene": 0,
  "scenes": [
    {
      "nodes": [
        0
      ]
    }
  ],
  "textures": [
    {
      "source": 0
    }
  ]
}