{
  "asset": {
    "copyright": "",
    "generator": "SharpGLTF 1.0.0",
    "version": "2.0"
  },
  "accessors": [
    {
      "name": "POSITION",
      "bufferView": 0,
      "componentType": 5126,
      "count": 501,
      "max": [
        -23.637481689453125,
        10.618345260620117,
        334.2977294921875
      ],
      "min": [
        -35.746849060058594,
        9.9509201049804688,
        324.58953857421875
      ],
      "type": "VEC3"
    },
    {
      "name": "NORMAL",
      "bufferView": 0,
      "byteOffset": 12,
      "componentType": 5126,
      "count": 501,
      "max": [
        0.99931818246841431,
        0.99998462200164795,
        0.97499078512191772
      ],
      "min": [
        -0.98198044300079346,
        -0.98935234546661377,
        -0.98246610164642334
      ],
      "type": "VEC3"
    },
    {
      "name": "TEXCOORD_0",
      "bufferView": 0,
      "byteOffset": 24,
      "componentType": 5126,
      "count": 501,
      "max": [
        0.998046875,
        0.998046875
      ],
      "min": [
        0.001953125,
        0.255859375
      ],
      "type": "VEC2"
    },
    {
      "bufferView": 1,
      "componentType": 5123,
      "count": 1398,
      "type": "SCALAR"
    }
  ],
  "bufferViews": [
    {
      "buffer": 0,
      "byteLength": 16032,
      "byteStride": 32,
      "target": 34962
    },
    {
      "buffer": 0,
      "byteLength": 2796,
      "byteOffset": 16032,
      "target": 34963
    }
  ],
  "buffers": [
    {
      "byteLength": 18828,
      "uri": "3060435073507072467766_LOD00.bin"
    }
  ],
  "images": [
    {
      "uri": "3060435073507072467766_LOD00.png"
    }
  ],
  "materials": [
    {
      "doubleSided": true,
      "pbrMetallicRoughness": {
        "baseColorTexture": {
          "index": 0
        },
        "metallicFactor": 0
      }
    }
  ],
  "meshes": [
    {
      "name": "3060435073507072467766_0",
      "primitives": [
        {
          "attributes": {
            "POSITION": 0,
            "NORMAL": 1,
            "TEXCOORD_0": 2
          },
          "indices": 3,
          "material": 0
        }
      ]
    }
  ],
  "nodes": [
    {
      "mesh": 0
    }
  ],
  "scene": 0,
  "scenes": [
    {
      "nodes": [
        0
      ]
    }
  ],
  "textures": [
    {
      "source": 0
    }
  ]
}