{
  "asset": {
    "copyright": "",
    "generator": "SharpGLTF 1.0.0",
    "version": "2.0"
  },
  "accessors": [
    {
      "name": "POSITION",
      "bufferView": 0,
      "componentType": 5126,
      "count": 504,
      "max": [
        -0.14341506361961365,
        10.760839462280273,
        334.2501220703125
      ],
      "min": [
        -12.109755516052246,
        9.4268331527709961,
        324.58944702148438
      ],
      "type": "VEC3"
    },
    {
      "name": "NORMAL",
      "bufferView": 0,
      "byteOffset": 12,
      "componentType": 5126,
      "count": 504,
      "max": [
        0.99093532562255859,
        0.9999845027923584,
        0.97171550989151001
      ],
      "min": [
        -0.71326780319213867,
        -0.86746138334274292,
        -0.99437546730041504
      ],
      "type": "VEC3"
    },
    {
      "name": "TEXCOORD_0",
      "bufferView": 0,
      "byteOffset": 24,
      "componentType": 5126,
      "count": 504,
      "max": [
        0.998046875,
        0.998046875
      ],
      "min": [
        0.001953125,
        0.306640625
      ],
      "type": "VEC2"
    },
    {
      "bufferView": 1,
      "componentType": 5123,
      "count": 1389,
      "type": "SCALAR"
    }
  ],
  "bufferViews": [
    {
      "buffer": 0,
      "byteLength": 16128,
      "byteStride": 32,
      "target": 34962
    },
    {
      "buffer": 0,
      "byteLength": 2778,
      "byteOffset": 16128,
      "target": 34963
    }
  ],
  "buffers": [
    {
      "byteLength": 18908,
      "uri": "3060435073507072467676_LOD00.bin"
    }
  ],
  "images": [
    {
      "uri": "3060435073507072467676_LOD00.png"
    }
  ],
  "materials": [
    {
      "doubleSided": true,
      "pbrMetallicRoughness": {
        "baseColorTexture": {
          "index": 0
        },
        "metallicFactor": 0
      }
    }
  ],
  "meshes": [
    {
      "name": "3060435073507072467676_0",
      "primitives": [
        {
          "attributes": {
            "POSITION": 0,
            "NORMAL": 1,
            "TEXCOORD_0": 2
          },
          "indices": 3,
          "material": 0
        }
      ]
    }
  ],
  "nodes": [
    {
      "mesh": 0
    }
  ],
  "scene": 0,
  "scenes": [
    {
      "nodes": [
        0
      ]
    }
  ],
  "textures": [
    {
      "source": 0
    }
  ]
}