{
  "asset": {
    "copyright": "",
    "generator": "SharpGLTF 1.0.0",
    "version": "2.0"
  },
  "accessors": [
    {
      "name": "POSITION",
      "bufferView": 0,
      "componentType": 5126,
      "count": 369,
      "max": [
        -70.959465026855469,
        10.618487358093262,
        324.73748779296875
      ],
      "min": [
        -82.878181457519531,
        9.52191162109375,
        315.2196044921875
      ],
      "type": "VEC3"
    },
    {
      "name": "NORMAL",
      "bufferView": 0,
      "byteOffset": 12,
      "componentType": 5126,
      "count": 369,
      "max": [
        0.96976828575134277,
        0.99998462200164795,
        0.97878164052963257
      ],
      "min": [
        -0.90161210298538208,
        -0.11733641475439072,
        -0.96976190805435181
      ],
      "type": "VEC3"
    },
    {
      "name": "TEXCOORD_0",
      "bufferView": 0,
      "byteOffset": 24,
      "componentType": 5126,
      "count": 369,
      "max": [
        0.998046875,
        0.998046875
      ],
      "min": [
        0.001953125,
        0.142578125
      ],
      "type": "VEC2"
    },
    {
      "bufferView": 1,
      "componentType": 5123,
      "count": 1023,
      "type": "SCALAR"
    }
  ],
  "bufferViews": [
    {
      "buffer": 0,
      "byteLength": 11808,
      "byteStride": 32,
      "target": 34962
    },
    {
      "buffer": 0,
      "byteLength": 2046,
      "byteOffset": 11808,
      "target": 34963
    }
  ],
  "buffers": [
    {
      "byteLength": 13856,
      "uri": "3060435073507072476664_LOD00.bin"
    }
  ],
  "images": [
    {
      "uri": "3060435073507072476664_LOD00.png"
    }
  ],
  "materials": [
    {
      "doubleSided": true,
      "pbrMetallicRoughness": {
        "baseColorTexture": {
          "index": 0
        },
        "metallicFactor": 0
      }
    }
  ],
  "meshes": [
    {
      "name": "3060435073507072476664_0",
      "primitives": [
        {
          "attributes": {
            "POSITION": 0,
            "NORMAL": 1,
            "TEXCOORD_0": 2
          },
          "indices": 3,
          "material": 0
        }
      ]
    }
  ],
  "nodes": [
    {
      "mesh": 0
    }
  ],
  "scene": 0,
  "scenes": [
    {
      "nodes": [
        0
      ]
    }
  ],
  "textures": [
    {
      "source": 0
    }
  ]
}