{
  "asset": {
    "copyright": "",
    "generator": "SharpGLTF 1.0.0",
    "version": "2.0"
  },
  "accessors": [
    {
      "name": "POSITION",
      "bufferView": 0,
      "componentType": 5126,
      "count": 439,
      "max": [
        -248.24281311035156,
        19.762195587158203,
        225.85179138183594
      ],
      "min": [
        -260.3045654296875,
        10.469827651977539,
        219.99893188476563
      ],
      "type": "VEC3"
    },
    {
      "name": "NORMAL",
      "bufferView": 0,
      "byteOffset": 12,
      "componentType": 5126,
      "count": 439,
      "max": [
        0.99429082870483398,
        0.99998468160629272,
        0.99052989482879639
      ],
      "min": [
        -0.99092859029769897,
        -0.92357498407363892,
        -0.94270098209381104
      ],
      "type": "VEC3"
    },
    {
      "name": "TEXCOORD_0",
      "bufferView": 0,
      "byteOffset": 24,
      "componentType": 5126,
      "count": 439,
      "max": [
        0.998046875,
        0.998046875
      ],
      "min": [
        0.001953125,
        0.451171875
      ],
      "type": "VEC2"
    },
    {
      "bufferView": 1,
      "componentType": 5123,
      "count": 1278,
      "type": "SCALAR"
    }
  ],
  "bufferViews": [
    {
      "buffer": 0,
      "byteLength": 14048,
      "byteStride": 32,
      "target": 34962
    },
    {
      "buffer": 0,
      "byteLength": 2556,
      "byteOffset": 14048,
      "target": 34963
    }
  ],
  "buffers": [
    {
      "byteLength": 16604,
      "uri": "3060435073507076031311_LOD00.bin"
    }
  ],
  "images": [
    {
      "uri": "3060435073507076031311_LOD00.png"
    }
  ],
  "materials": [
    {
      "doubleSided": true,
      "pbrMetallicRoughness": {
        "baseColorTexture": {
          "index": 0
        },
        "metallicFactor": 0
      }
    }
  ],
  "meshes": [
    {
      "name": "3060435073507076031311_0",
      "primitives": [
        {
          "attributes": {
            "POSITION": 0,
            "NORMAL": 1,
            "TEXCOORD_0": 2
          },
          "indices": 3,
          "material": 0
        }
      ]
    }
  ],
  "nodes": [
    {
      "mesh": 0
    }
  ],
  "scene": 0,
  "scenes": [
    {
      "nodes": [
        0
      ]
    }
  ],
  "textures": [
    {
      "source": 0
    }
  ]
}