{
  "asset": {
    "copyright": "",
    "generator": "SharpGLTF 1.0.0",
    "version": "2.0"
  },
  "accessors": [
    {
      "name": "POSITION",
      "bufferView": 0,
      "componentType": 5126,
      "count": 391,
      "max": [
        -130.10231018066406,
        19.908746719360352,
        227.89373779296875
      ],
      "min": [
        -131.8187255859375,
        10.473574638366699,
        220.08905029296875
      ],
      "type": "VEC3"
    },
    {
      "name": "NORMAL",
      "bufferView": 0,
      "byteOffset": 12,
      "componentType": 5126,
      "count": 391,
      "max": [
        0.99931752681732178,
        0.60138159990310669,
        0.90093976259231567
      ],
      "min": [
        -0.38084003329277039,
        -0.43334966897964478,
        -0.98823875188827515
      ],
      "type": "VEC3"
    },
    {
      "name": "TEXCOORD_0",
      "bufferView": 0,
      "byteOffset": 24,
      "componentType": 5126,
      "count": 391,
      "max": [
        0.998046875,
        0.998046875
      ],
      "min": [
        0.001953125,
        0.642578125
      ],
      "type": "VEC2"
    },
    {
      "bufferView": 1,
      "componentType": 5123,
      "count": 1206,
      "type": "SCALAR"
    }
  ],
  "bufferViews": [
    {
      "buffer": 0,
      "byteLength": 12512,
      "byteStride": 32,
      "target": 34962
    },
    {
      "buffer": 0,
      "byteLength": 2412,
      "byteOffset": 12512,
      "target": 34963
    }
  ],
  "buffers": [
    {
      "byteLength": 14924,
      "uri": "3060435073507076030301_LOD00.bin"
    }
  ],
  "images": [
    {
      "uri": "3060435073507076030301_LOD00.png"
    }
  ],
  "materials": [
    {
      "doubleSided": true,
      "pbrMetallicRoughness": {
        "baseColorTexture": {
          "index": 0
        },
        "metallicFactor": 0
      }
    }
  ],
  "meshes": [
    {
      "name": "3060435073507076030301_0",
      "primitives": [
        {
          "attributes": {
            "POSITION": 0,
            "NORMAL": 1,
            "TEXCOORD_0": 2
          },
          "indices": 3,
          "material": 0
        }
      ]
    }
  ],
  "nodes": [
    {
      "mesh": 0
    }
  ],
  "scene": 0,
  "scenes": [
    {
      "nodes": [
        0
      ]
    }
  ],
  "textures": [
    {
      "source": 0
    }
  ]
}