{
  "asset": {
    "copyright": "",
    "generator": "SharpGLTF 1.0.0",
    "version": "2.0"
  },
  "accessors": [
    {
      "name": "POSITION",
      "bufferView": 0,
      "componentType": 5126,
      "count": 363,
      "max": [
        -47.418388366699219,
        10.622640609741211,
        229.65324401855469
      ],
      "min": [
        -59.385066986083984,
        9.2405385971069336,
        219.99250793457031
      ],
      "type": "VEC3"
    },
    {
      "name": "NORMAL",
      "bufferView": 0,
      "byteOffset": 12,
      "componentType": 5126,
      "count": 363,
      "max": [
        0.83825111389160156,
        0.99998462200164795,
        0.89940351247787476
      ],
      "min": [
        -0.88090610504150391,
        0.43135726451873779,
        -0.63587814569473267
      ],
      "type": "VEC3"
    },
    {
      "name": "TEXCOORD_0",
      "bufferView": 0,
      "byteOffset": 24,
      "componentType": 5126,
      "count": 363,
      "max": [
        0.998046875,
        0.998046875
      ],
      "min": [
        0.001953125,
        0.134765625
      ],
      "type": "VEC2"
    },
    {
      "bufferView": 1,
      "componentType": 5123,
      "count": 1125,
      "type": "SCALAR"
    }
  ],
  "bufferViews": [
    {
      "buffer": 0,
      "byteLength": 11616,
      "byteStride": 32,
      "target": 34962
    },
    {
      "buffer": 0,
      "byteLength": 2250,
      "byteOffset": 11616,
      "target": 34963
    }
  ],
  "buffers": [
    {
      "byteLength": 13868,
      "uri": "3060435073507072465754_LOD00.bin"
    }
  ],
  "images": [
    {
      "uri": "3060435073507072465754_LOD00.png"
    }
  ],
  "materials": [
    {
      "doubleSided": true,
      "pbrMetallicRoughness": {
        "baseColorTexture": {
          "index": 0
        },
        "metallicFactor": 0
      }
    }
  ],
  "meshes": [
    {
      "name": "3060435073507072465754_0",
      "primitives": [
        {
          "attributes": {
            "POSITION": 0,
            "NORMAL": 1,
            "TEXCOORD_0": 2
          },
          "indices": 3,
          "material": 0
        }
      ]
    }
  ],
  "nodes": [
    {
      "mesh": 0
    }
  ],
  "scene": 0,
  "scenes": [
    {
      "nodes": [
        0
      ]
    }
  ],
  "textures": [
    {
      "source": 0
    }
  ]
}