{
  "asset": {
    "copyright": "",
    "generator": "SharpGLTF 1.0.0",
    "version": "2.0"
  },
  "accessors": [
    {
      "name": "POSITION",
      "bufferView": 0,
      "componentType": 5126,
      "count": 290,
      "max": [
        -236.51333618164063,
        32.708335876464844,
        362.5103759765625
      ],
      "min": [
        -243.044921875,
        28.753253936767578,
        356.7999267578125
      ],
      "type": "VEC3"
    },
    {
      "name": "NORMAL",
      "bufferView": 0,
      "byteOffset": 12,
      "componentType": 5126,
      "count": 290,
      "max": [
        0.98834723234176636,
        0.98343098163604736,
        0.95367932319641113
      ],
      "min": [
        -0.99915766716003418,
        -0.47695806622505188,
        -0.99898529052734375
      ],
      "type": "VEC3"
    },
    {
      "name": "TEXCOORD_0",
      "bufferView": 0,
      "byteOffset": 24,
      "componentType": 5126,
      "count": 290,
      "max": [
        0.994140625,
        0.998046875
      ],
      "min": [
        0.001953125,
        0.423828125
      ],
      "type": "VEC2"
    },
    {
      "bufferView": 1,
      "componentType": 5123,
      "count": 702,
      "type": "SCALAR"
    }
  ],
  "bufferViews": [
    {
      "buffer": 0,
      "byteLength": 9280,
      "byteStride": 32,
      "target": 34962
    },
    {
      "buffer": 0,
      "byteLength": 1404,
      "byteOffset": 9280,
      "target": 34963
    }
  ],
  "buffers": [
    {
      "byteLength": 10684,
      "uri": "3060435073507076211170_LOD00.bin"
    }
  ],
  "images": [
    {
      "uri": "3060435073507076211170_LOD00.png"
    }
  ],
  "materials": [
    {
      "doubleSided": true,
      "pbrMetallicRoughness": {
        "baseColorTexture": {
          "index": 0
        },
        "metallicFactor": 0
      }
    }
  ],
  "meshes": [
    {
      "name": "3060435073507076211170_0",
      "primitives": [
        {
          "attributes": {
            "POSITION": 0,
            "NORMAL": 1,
            "TEXCOORD_0": 2
          },
          "indices": 3,
          "material": 0
        }
      ]
    }
  ],
  "nodes": [
    {
      "mesh": 0
    }
  ],
  "scene": 0,
  "scenes": [
    {
      "nodes": [
        0
      ]
    }
  ],
  "textures": [
    {
      "source": 0
    }
  ]
}