{
  "asset": {
    "copyright": "",
    "generator": "SharpGLTF 1.0.0",
    "version": "2.0"
  },
  "accessors": [
    {
      "name": "POSITION",
      "bufferView": 0,
      "componentType": 5126,
      "count": 451,
      "max": [
        -118.23429870605469,
        38.051982879638672,
        305.85568237304688
      ],
      "min": [
        -120.57059478759766,
        28.854690551757813,
        296.05245971679688
      ],
      "type": "VEC3"
    },
    {
      "name": "NORMAL",
      "bufferView": 0,
      "byteOffset": 12,
      "componentType": 5126,
      "count": 451,
      "max": [
        0.99915701150894165,
        0.33820110559463501,
        0.99931758642196655
      ],
      "min": [
        -0.51995277404785156,
        -0.79371970891952515,
        -0.99898481369018555
      ],
      "type": "VEC3"
    },
    {
      "name": "TEXCOORD_0",
      "bufferView": 0,
      "byteOffset": 24,
      "componentType": 5126,
      "count": 451,
      "max": [
        0.998046875,
        0.998046875
      ],
      "min": [
        0.001953125,
        0.322265625
      ],
      "type": "VEC2"
    },
    {
      "bufferView": 1,
      "componentType": 5123,
      "count": 1347,
      "type": "SCALAR"
    }
  ],
  "bufferViews": [
    {
      "buffer": 0,
      "byteLength": 14432,
      "byteStride": 32,
      "target": 34962
    },
    {
      "buffer": 0,
      "byteLength": 2694,
      "byteOffset": 14432,
      "target": 34963
    }
  ],
  "buffers": [
    {
      "byteLength": 17128,
      "uri": "3060435073507076032340_LOD00.bin"
    }
  ],
  "images": [
    {
      "uri": "3060435073507076032340_LOD00.png"
    }
  ],
  "materials": [
    {
      "doubleSided": true,
      "pbrMetallicRoughness": {
        "baseColorTexture": {
          "index": 0
        },
        "metallicFactor": 0
      }
    }
  ],
  "meshes": [
    {
      "name": "3060435073507076032340_0",
      "primitives": [
        {
          "attributes": {
            "POSITION": 0,
            "NORMAL": 1,
            "TEXCOORD_0": 2
          },
          "indices": 3,
          "material": 0
        }
      ]
    }
  ],
  "nodes": [
    {
      "mesh": 0
    }
  ],
  "scene": 0,
  "scenes": [
    {
      "nodes": [
        0
      ]
    }
  ],
  "textures": [
    {
      "source": 0
    }
  ]
}