{
  "asset": {
    "copyright": "",
    "generator": "SharpGLTF 1.0.0",
    "version": "2.0"
  },
  "accessors": [
    {
      "name": "POSITION",
      "bufferView": 0,
      "componentType": 5126,
      "count": 408,
      "max": [
        -130.14524841308594,
        10.612564086914063,
        410.35711669921875
      ],
      "min": [
        -141.96870422363281,
        5.608583927154541,
        400.7916259765625
      ],
      "type": "VEC3"
    },
    {
      "name": "NORMAL",
      "bufferView": 0,
      "byteOffset": 12,
      "componentType": 5126,
      "count": 408,
      "max": [
        0.86255031824111938,
        0.99998462200164795,
        0.99039363861083984
      ],
      "min": [
        -0.99898535013198853,
        -1,
        -0.99054336547851563
      ],
      "type": "VEC3"
    },
    {
      "name": "TEXCOORD_0",
      "bufferView": 0,
      "byteOffset": 24,
      "componentType": 5126,
      "count": 408,
      "max": [
        0.998046875,
        0.9990234375
      ],
      "min": [
        0.001953125,
        0.0009765625
      ],
      "type": "VEC2"
    },
    {
      "bufferView": 1,
      "componentType": 5123,
      "count": 1068,
      "type": "SCALAR"
    },
    {
      "name": "POSITION",
      "bufferView": 0,
      "byteOffset": 13056,
      "componentType": 5126,
      "count": 75,
      "max": [
        -135.05599975585938,
        10.612756729125977,
        410.35714721679688
      ],
      "min": [
        -141.96853637695313,
        5.608583927154541,
        400.83883666992188
      ],
      "type": "VEC3"
    },
    {
      "name": "NORMAL",
      "bufferView": 0,
      "byteOffset": 13068,
      "componentType": 5126,
      "count": 75,
      "max": [
        0.34355562925338745,
        0.9999847412109375,
        0.13757286965847015
      ],
      "min": [
        -0.927467942237854,
        -1,
        -0.64181029796600342
      ],
      "type": "VEC3"
    },
    {
      "name": "TEXCOORD_0",
      "bufferView": 0,
      "byteOffset": 13080,
      "componentType": 5126,
      "count": 75,
      "max": [
        0.986328125,
        0.998046875
      ],
      "min": [
        0.001953125,
        0.556640625
      ],
      "type": "VEC2"
    },
    {
      "bufferView": 1,
      "byteOffset": 2136,
      "componentType": 5123,
      "count": 186,
      "type": "SCALAR"
    }
  ],
  "bufferViews": [
    {
      "buffer": 0,
      "byteLength": 15456,
      "byteStride": 32,
      "target": 34962
    },
    {
      "buffer": 0,
      "byteLength": 2508,
      "byteOffset": 15456,
      "target": 34963
    }
  ],
  "buffers": [
    {
      "byteLength": 17964,
      "uri": "3060435073507072654767_LOD00.bin"
    }
  ],
  "images": [
    {
      "uri": "3060435073507072654767_LOD00_0.png"
    },
    {
      "uri": "3060435073507072654767_LOD00_1.png"
    }
  ],
  "materials": [
    {
      "doubleSided": true,
      "pbrMetallicRoughness": {
        "baseColorTexture": {
          "index": 0
        },
        "metallicFactor": 0
      }
    },
    {
      "doubleSided": true,
      "pbrMetallicRoughness": {
        "baseColorTexture": {
          "index": 1
        },
        "metallicFactor": 0
      }
    }
  ],
  "meshes": [
    {
      "name": "3060435073507072654767_0",
      "primitives": [
        {
          "attributes": {
            "POSITION": 0,
            "NORMAL": 1,
            "TEXCOORD_0": 2
          },
          "indices": 3,
          "material": 0
        }
      ]
    },
    {
      "name": "3060435073507072654767_1",
      "primitives": [
        {
          "attributes": {
            "POSITION": 4,
            "NORMAL": 5,
            "TEXCOORD_0": 6
          },
          "indices": 7,
          "material": 1
        }
      ]
    }
  ],
  "nodes": [
    {
      "mesh": 0
    },
    {
      "mesh": 1
    }
  ],
  "scene": 0,
  "scenes": [
    {
      "nodes": [
        0,
        1
      ]
    }
  ],
  "textures": [
    {
      "source": 0
    },
    {
      "source": 1
    }
  ]
}