{
  "asset": {
    "copyright": "",
    "generator": "SharpGLTF 1.0.0",
    "version": "2.0"
  },
  "accessors": [
    {
      "name": "POSITION",
      "bufferView": 0,
      "componentType": 5126,
      "count": 350,
      "max": [
        -62.858406066894531,
        22.99211311340332,
        428.2406005859375
      ],
      "min": [
        -71.10601806640625,
        19.751636505126953,
        419.76959228515625
      ],
      "type": "VEC3"
    },
    {
      "name": "NORMAL",
      "bufferView": 0,
      "byteOffset": 12,
      "componentType": 5126,
      "count": 350,
      "max": [
        0.97511643171310425,
        0.98901379108428955,
        0.99797838926315308
      ],
      "min": [
        -0.98290497064590454,
        -0.65501123666763306,
        -0.97400438785552979
      ],
      "type": "VEC3"
    },
    {
      "name": "TEXCOORD_0",
      "bufferView": 0,
      "byteOffset": 24,
      "componentType": 5126,
      "count": 350,
      "max": [
        0.998046875,
        0.998046875
      ],
      "min": [
        0.001953125,
        0.255859375
      ],
      "type": "VEC2"
    },
    {
      "bufferView": 1,
      "componentType": 5123,
      "count": 903,
      "type": "SCALAR"
    }
  ],
  "bufferViews": [
    {
      "buffer": 0,
      "byteLength": 11200,
      "byteStride": 32,
      "target": 34962
    },
    {
      "buffer": 0,
      "byteLength": 1806,
      "byteOffset": 11200,
      "target": 34963
    }
  ],
  "buffers": [
    {
      "byteLength": 13008,
      "uri": "3060435073507076203117_LOD00.bin"
    }
  ],
  "images": [
    {
      "uri": "3060435073507076203117_LOD00.png"
    }
  ],
  "materials": [
    {
      "doubleSided": true,
      "pbrMetallicRoughness": {
        "baseColorTexture": {
          "index": 0
        },
        "metallicFactor": 0
      }
    }
  ],
  "meshes": [
    {
      "name": "3060435073507076203117_0",
      "primitives": [
        {
          "attributes": {
            "POSITION": 0,
            "NORMAL": 1,
            "TEXCOORD_0": 2
          },
          "indices": 3,
          "material": 0
        }
      ]
    }
  ],
  "nodes": [
    {
      "mesh": 0
    }
  ],
  "scene": 0,
  "scenes": [
    {
      "nodes": [
        0
      ]
    }
  ],
  "textures": [
    {
      "source": 0
    }
  ]
}