{
  "asset": {
    "copyright": "",
    "generator": "SharpGLTF 1.0.0",
    "version": "2.0"
  },
  "accessors": [
    {
      "name": "POSITION",
      "bufferView": 0,
      "componentType": 5126,
      "count": 327,
      "max": [
        -94.599472045898438,
        65.489524841308594,
        198.40309143066406
      ],
      "min": [
        -97.174018859863281,
        56.197357177734375,
        191.55014038085938
      ],
      "type": "VEC3"
    },
    {
      "name": "NORMAL",
      "bufferView": 0,
      "byteOffset": 12,
      "componentType": 5126,
      "count": 327,
      "max": [
        0.18216322362422943,
        0.55255454778671265,
        0.99915039539337158
      ],
      "min": [
        -0.99674314260482788,
        -0.41597974300384521,
        -0.89751642942428589
      ],
      "type": "VEC3"
    },
    {
      "name": "TEXCOORD_0",
      "bufferView": 0,
      "byteOffset": 24,
      "componentType": 5126,
      "count": 327,
      "max": [
        0.998046875,
        0.998046875
      ],
      "min": [
        0.001953125,
        0.373046875
      ],
      "type": "VEC2"
    },
    {
      "bufferView": 1,
      "componentType": 5123,
      "count": 942,
      "type": "SCALAR"
    }
  ],
  "bufferViews": [
    {
      "buffer": 0,
      "byteLength": 10464,
      "byteStride": 32,
      "target": 34962
    },
    {
      "buffer": 0,
      "byteLength": 1884,
      "byteOffset": 10464,
      "target": 34963
    }
  ],
  "buffers": [
    {
      "byteLength": 12348,
      "uri": "3060435073507076030416_LOD00.bin"
    }
  ],
  "images": [
    {
      "uri": "3060435073507076030416_LOD00.png"
    }
  ],
  "materials": [
    {
      "doubleSided": true,
      "pbrMetallicRoughness": {
        "baseColorTexture": {
          "index": 0
        },
        "metallicFactor": 0
      }
    }
  ],
  "meshes": [
    {
      "name": "3060435073507076030416_0",
      "primitives": [
        {
          "attributes": {
            "POSITION": 0,
            "NORMAL": 1,
            "TEXCOORD_0": 2
          },
          "indices": 3,
          "material": 0
        }
      ]
    }
  ],
  "nodes": [
    {
      "mesh": 0
    }
  ],
  "scene": 0,
  "scenes": [
    {
      "nodes": [
        0
      ]
    }
  ],
  "textures": [
    {
      "source": 0
    }
  ]
}