{
  "asset": {
    "copyright": "",
    "generator": "SharpGLTF 1.0.0",
    "version": "2.0"
  },
  "accessors": [
    {
      "name": "POSITION",
      "bufferView": 0,
      "componentType": 5126,
      "count": 641,
      "max": [
        -5.2445569038391113,
        24.483444213867188,
        57.845199584960938
      ],
      "min": [
        -11.967074394226074,
        19.670530319213867,
        48.850749969482422
      ],
      "type": "VEC3"
    },
    {
      "name": "NORMAL",
      "bufferView": 0,
      "byteOffset": 12,
      "componentType": 5126,
      "count": 641,
      "max": [
        0.99915587902069092,
        0.99778002500534058,
        0.96320110559463501
      ],
      "min": [
        -0.99674195051193237,
        -0.49260187149047852,
        -0.96718060970306396
      ],
      "type": "VEC3"
    },
    {
      "name": "TEXCOORD_0",
      "bufferView": 0,
      "byteOffset": 24,
      "componentType": 5126,
      "count": 641,
      "max": [
        0.998046875,
        0.998046875
      ],
      "min": [
        0.001953125,
        0.162109375
      ],
      "type": "VEC2"
    },
    {
      "bufferView": 1,
      "componentType": 5123,
      "count": 1575,
      "type": "SCALAR"
    }
  ],
  "bufferViews": [
    {
      "buffer": 0,
      "byteLength": 20512,
      "byteStride": 32,
      "target": 34962
    },
    {
      "buffer": 0,
      "byteLength": 3150,
      "byteOffset": 20512,
      "target": 34963
    }
  ],
  "buffers": [
    {
      "byteLength": 23664,
      "uri": "3060435073507076001034_LOD00.bin"
    }
  ],
  "images": [
    {
      "uri": "3060435073507076001034_LOD00.png"
    }
  ],
  "materials": [
    {
      "doubleSided": true,
      "pbrMetallicRoughness": {
        "baseColorTexture": {
          "index": 0
        },
        "metallicFactor": 0
      }
    }
  ],
  "meshes": [
    {
      "name": "3060435073507076001034_0",
      "primitives": [
        {
          "attributes": {
            "POSITION": 0,
            "NORMAL": 1,
            "TEXCOORD_0": 2
          },
          "indices": 3,
          "material": 0
        }
      ]
    }
  ],
  "nodes": [
    {
      "mesh": 0
    }
  ],
  "scene": 0,
  "scenes": [
    {
      "nodes": [
        0
      ]
    }
  ],
  "textures": [
    {
      "source": 0
    }
  ]
}