{
  "asset": {
    "copyright": "",
    "generator": "SharpGLTF 1.0.0",
    "version": "2.0"
  },
  "accessors": [
    {
      "name": "POSITION",
      "bufferView": 0,
      "componentType": 5126,
      "count": 1651,
      "max": [
        -260.16744995117188,
        19.813365936279297,
        20.37034797668457
      ],
      "min": [
        -272.08721923828125,
        10.616043090820313,
        10.661707878112793
      ],
      "type": "VEC3"
    },
    {
      "name": "NORMAL",
      "bufferView": 0,
      "byteOffset": 12,
      "componentType": 5126,
      "count": 1651,
      "max": [
        0.99817699193954468,
        0.99998420476913452,
        0.99915188550949097
      ],
      "min": [
        -0.99637585878372192,
        -0.98490101099014282,
        -0.99486112594604492
      ],
      "type": "VEC3"
    },
    {
      "name": "TEXCOORD_0",
      "bufferView": 0,
      "byteOffset": 24,
      "componentType": 5126,
      "count": 1651,
      "max": [
        0.998046875,
        0.9990234375
      ],
      "min": [
        0.001953125,
        0.0009765625
      ],
      "type": "VEC2"
    },
    {
      "bufferView": 1,
      "componentType": 5123,
      "count": 4323,
      "type": "SCALAR"
    },
    {
      "name": "POSITION",
      "bufferView": 0,
      "byteOffset": 52832,
      "componentType": 5126,
      "count": 469,
      "max": [
        -260.11981201171875,
        19.765363693237305,
        20.322822570800781
      ],
      "min": [
        -271.99185180664063,
        10.520742416381836,
        10.66170597076416
      ],
      "type": "VEC3"
    },
    {
      "name": "NORMAL",
      "bufferView": 0,
      "byteOffset": 52844,
      "componentType": 5126,
      "count": 469,
      "max": [
        0.99673891067504883,
        0.98828291893005371,
        0.98744839429855347
      ],
      "min": [
        -0.915577232837677,
        -0.97515547275543213,
        -0.99634045362472534
      ],
      "type": "VEC3"
    },
    {
      "name": "TEXCOORD_0",
      "bufferView": 0,
      "byteOffset": 52856,
      "componentType": 5126,
      "count": 469,
      "max": [
        0.998046875,
        0.998046875
      ],
      "min": [
        0.001953125,
        0.345703125
      ],
      "type": "VEC2"
    },
    {
      "bufferView": 1,
      "byteOffset": 8646,
      "componentType": 5123,
      "count": 1182,
      "type": "SCALAR"
    }
  ],
  "bufferViews": [
    {
      "buffer": 0,
      "byteLength": 67840,
      "byteStride": 32,
      "target": 34962
    },
    {
      "buffer": 0,
      "byteLength": 11010,
      "byteOffset": 67840,
      "target": 34963
    }
  ],
  "buffers": [
    {
      "byteLength": 78852,
      "uri": "3060435073507074322220_LOD00.bin"
    }
  ],
  "images": [
    {
      "uri": "3060435073507074322220_LOD00_0.png"
    },
    {
      "uri": "3060435073507074322220_LOD00_1.png"
    }
  ],
  "materials": [
    {
      "doubleSided": true,
      "pbrMetallicRoughness": {
        "baseColorTexture": {
          "index": 0
        },
        "metallicFactor": 0
      }
    },
    {
      "doubleSided": true,
      "pbrMetallicRoughness": {
        "baseColorTexture": {
          "index": 1
        },
        "metallicFactor": 0
      }
    }
  ],
  "meshes": [
    {
      "name": "3060435073507074322220_0",
      "primitives": [
        {
          "attributes": {
            "POSITION": 0,
            "NORMAL": 1,
            "TEXCOORD_0": 2
          },
          "indices": 3,
          "material": 0
        }
      ]
    },
    {
      "name": "3060435073507074322220_1",
      "primitives": [
        {
          "attributes": {
            "POSITION": 4,
            "NORMAL": 5,
            "TEXCOORD_0": 6
          },
          "indices": 7,
          "material": 1
        }
      ]
    }
  ],
  "nodes": [
    {
      "mesh": 0
    },
    {
      "mesh": 1
    }
  ],
  "scene": 0,
  "scenes": [
    {
      "nodes": [
        0,
        1
      ]
    }
  ],
  "textures": [
    {
      "source": 0
    },
    {
      "source": 1
    }
  ]
}