{
  "asset": {
    "copyright": "",
    "generator": "SharpGLTF 1.0.0",
    "version": "2.0"
  },
  "accessors": [
    {
      "name": "POSITION",
      "bufferView": 0,
      "componentType": 5126,
      "count": 576,
      "max": [
        -177.43107604980469,
        10.719159126281738,
        48.858768463134766
      ],
      "min": [
        -189.25540161132813,
        1.4746963977813721,
        39.293064117431641
      ],
      "type": "VEC3"
    },
    {
      "name": "NORMAL",
      "bufferView": 0,
      "byteOffset": 12,
      "componentType": 5126,
      "count": 576,
      "max": [
        0.99116837978363037,
        0.9999845027923584,
        0.62195652723312378
      ],
      "min": [
        -0.99441879987716675,
        -1,
        -0.98084914684295654
      ],
      "type": "VEC3"
    },
    {
      "name": "TEXCOORD_0",
      "bufferView": 0,
      "byteOffset": 24,
      "componentType": 5126,
      "count": 576,
      "max": [
        0.9970703125,
        0.9990234375
      ],
      "min": [
        0.0009765625,
        0.0087890625
      ],
      "type": "VEC2"
    },
    {
      "bufferView": 1,
      "componentType": 5123,
      "count": 1500,
      "type": "SCALAR"
    },
    {
      "name": "POSITION",
      "bufferView": 0,
      "byteOffset": 18432,
      "componentType": 5126,
      "count": 82,
      "max": [
        -179.05189514160156,
        10.766825675964355,
        48.858478546142578
      ],
      "min": [
        -181.53153991699219,
        1.4747141599655151,
        44.099437713623047
      ],
      "type": "VEC3"
    },
    {
      "name": "NORMAL",
      "bufferView": 0,
      "byteOffset": 18444,
      "componentType": 5126,
      "count": 82,
      "max": [
        0.99116837978363037,
        0.9999845027923584,
        0.24889841675758362
      ],
      "min": [
        -0.99116814136505127,
        -0.51436847448348999,
        -0.98084914684295654
      ],
      "type": "VEC3"
    },
    {
      "name": "TEXCOORD_0",
      "bufferView": 0,
      "byteOffset": 18456,
      "componentType": 5126,
      "count": 82,
      "max": [
        0.720703125,
        0.998046875
      ],
      "min": [
        0.001953125,
        0.615234375
      ],
      "type": "VEC2"
    },
    {
      "bufferView": 1,
      "byteOffset": 3000,
      "componentType": 5123,
      "count": 267,
      "type": "SCALAR"
    }
  ],
  "bufferViews": [
    {
      "buffer": 0,
      "byteLength": 21056,
      "byteStride": 32,
      "target": 34962
    },
    {
      "buffer": 0,
      "byteLength": 3534,
      "byteOffset": 21056,
      "target": 34963
    }
  ],
  "buffers": [
    {
      "byteLength": 24592,
      "uri": "3060435073507072455447_LOD00.bin"
    }
  ],
  "images": [
    {
      "uri": "3060435073507072455447_LOD00_0.png"
    },
    {
      "uri": "3060435073507072455447_LOD00_1.png"
    }
  ],
  "materials": [
    {
      "doubleSided": true,
      "pbrMetallicRoughness": {
        "baseColorTexture": {
          "index": 0
        },
        "metallicFactor": 0
      }
    },
    {
      "doubleSided": true,
      "pbrMetallicRoughness": {
        "baseColorTexture": {
          "index": 1
        },
        "metallicFactor": 0
      }
    }
  ],
  "meshes": [
    {
      "name": "3060435073507072455447_0",
      "primitives": [
        {
          "attributes": {
            "POSITION": 0,
            "NORMAL": 1,
            "TEXCOORD_0": 2
          },
          "indices": 3,
          "material": 0
        }
      ]
    },
    {
      "name": "3060435073507072455447_1",
      "primitives": [
        {
          "attributes": {
            "POSITION": 4,
            "NORMAL": 5,
            "TEXCOORD_0": 6
          },
          "indices": 7,
          "material": 1
        }
      ]
    }
  ],
  "nodes": [
    {
      "mesh": 0
    },
    {
      "mesh": 1
    }
  ],
  "scene": 0,
  "scenes": [
    {
      "nodes": [
        0,
        1
      ]
    }
  ],
  "textures": [
    {
      "source": 0
    },
    {
      "source": 1
    }
  ]
}