{
  "asset": {
    "copyright": "",
    "generator": "SharpGLTF 1.0.0",
    "version": "2.0"
  },
  "accessors": [
    {
      "name": "POSITION",
      "bufferView": 0,
      "componentType": 5126,
      "count": 1050,
      "max": [
        -106.42119598388672,
        19.769992828369141,
        28.450145721435547
      ],
      "min": [
        -118.34053039550781,
        10.477660179138184,
        20.21705436706543
      ],
      "type": "VEC3"
    },
    {
      "name": "NORMAL",
      "bufferView": 0,
      "byteOffset": 12,
      "componentType": 5126,
      "count": 1050,
      "max": [
        0.994415283203125,
        0.99998456239700317,
        0.99915063381195068
      ],
      "min": [
        -0.98832768201828003,
        -0.96250230073928833,
        -0.97729873657226563
      ],
      "type": "VEC3"
    },
    {
      "name": "TEXCOORD_0",
      "bufferView": 0,
      "byteOffset": 24,
      "componentType": 5126,
      "count": 1050,
      "max": [
        0.998046875,
        0.9990234375
      ],
      "min": [
        0.001953125,
        0.0009765625
      ],
      "type": "VEC2"
    },
    {
      "bufferView": 1,
      "componentType": 5123,
      "count": 2661,
      "type": "SCALAR"
    },
    {
      "name": "POSITION",
      "bufferView": 0,
      "byteOffset": 33600,
      "componentType": 5126,
      "count": 104,
      "max": [
        -106.51641082763672,
        19.769952774047852,
        26.070755004882813
      ],
      "min": [
        -116.86263275146484,
        10.525504112243652,
        20.312314987182617
      ],
      "type": "VEC3"
    },
    {
      "name": "NORMAL",
      "bufferView": 0,
      "byteOffset": 33612,
      "componentType": 5126,
      "count": 104,
      "max": [
        0.94031435251235962,
        0.98158359527587891,
        0.97171968221664429
      ],
      "min": [
        -0.97006469964981079,
        -0.64740979671478271,
        -0.71179401874542236
      ],
      "type": "VEC3"
    },
    {
      "name": "TEXCOORD_0",
      "bufferView": 0,
      "byteOffset": 33624,
      "componentType": 5126,
      "count": 104,
      "max": [
        0.998046875,
        0.998046875
      ],
      "min": [
        0.001953125,
        0.802734375
      ],
      "type": "VEC2"
    },
    {
      "bufferView": 1,
      "byteOffset": 5322,
      "componentType": 5123,
      "count": 285,
      "type": "SCALAR"
    }
  ],
  "bufferViews": [
    {
      "buffer": 0,
      "byteLength": 36928,
      "byteStride": 32,
      "target": 34962
    },
    {
      "buffer": 0,
      "byteLength": 5892,
      "byteOffset": 36928,
      "target": 34963
    }
  ],
  "buffers": [
    {
      "byteLength": 42820,
      "uri": "3060435073507074232233_LOD00.bin"
    }
  ],
  "images": [
    {
      "uri": "3060435073507074232233_LOD00_0.png"
    },
    {
      "uri": "3060435073507074232233_LOD00_1.png"
    }
  ],
  "materials": [
    {
      "doubleSided": true,
      "pbrMetallicRoughness": {
        "baseColorTexture": {
          "index": 0
        },
        "metallicFactor": 0
      }
    },
    {
      "doubleSided": true,
      "pbrMetallicRoughness": {
        "baseColorTexture": {
          "index": 1
        },
        "metallicFactor": 0
      }
    }
  ],
  "meshes": [
    {
      "name": "3060435073507074232233_0",
      "primitives": [
        {
          "attributes": {
            "POSITION": 0,
            "NORMAL": 1,
            "TEXCOORD_0": 2
          },
          "indices": 3,
          "material": 0
        }
      ]
    },
    {
      "name": "3060435073507074232233_1",
      "primitives": [
        {
          "attributes": {
            "POSITION": 4,
            "NORMAL": 5,
            "TEXCOORD_0": 6
          },
          "indices": 7,
          "material": 1
        }
      ]
    }
  ],
  "nodes": [
    {
      "mesh": 0
    },
    {
      "mesh": 1
    }
  ],
  "scene": 0,
  "scenes": [
    {
      "nodes": [
        0,
        1
      ]
    }
  ],
  "textures": [
    {
      "source": 0
    },
    {
      "source": 1
    }
  ]
}