{
  "asset": {
    "copyright": "",
    "generator": "SharpGLTF 1.0.0",
    "version": "2.0"
  },
  "accessors": [
    {
      "name": "POSITION",
      "bufferView": 0,
      "componentType": 5126,
      "count": 727,
      "max": [
        -59.191650390625,
        19.818195343017578,
        39.437789916992188
      ],
      "min": [
        -69.013191223144531,
        10.47833251953125,
        29.681978225708008
      ],
      "type": "VEC3"
    },
    {
      "name": "NORMAL",
      "bufferView": 0,
      "byteOffset": 12,
      "componentType": 5126,
      "count": 727,
      "max": [
        0.9538654088973999,
        0.99998438358306885,
        0.99999213218688965
      ],
      "min": [
        -0.98226922750473022,
        -0.92127317190170288,
        -0.96319717168807983
      ],
      "type": "VEC3"
    },
    {
      "name": "TEXCOORD_0",
      "bufferView": 0,
      "byteOffset": 24,
      "componentType": 5126,
      "count": 727,
      "max": [
        0.998046875,
        0.998046875
      ],
      "min": [
        0.001953125,
        0.009765625
      ],
      "type": "VEC2"
    },
    {
      "bufferView": 1,
      "componentType": 5123,
      "count": 1956,
      "type": "SCALAR"
    }
  ],
  "bufferViews": [
    {
      "buffer": 0,
      "byteLength": 23264,
      "byteStride": 32,
      "target": 34962
    },
    {
      "buffer": 0,
      "byteLength": 3912,
      "byteOffset": 23264,
      "target": 34963
    }
  ],
  "buffers": [
    {
      "byteLength": 27176,
      "uri": "3060435073507076001111_LOD00.bin"
    }
  ],
  "images": [
    {
      "uri": "3060435073507076001111_LOD00.png"
    }
  ],
  "materials": [
    {
      "doubleSided": true,
      "pbrMetallicRoughness": {
        "baseColorTexture": {
          "index": 0
        },
        "metallicFactor": 0
      }
    }
  ],
  "meshes": [
    {
      "name": "3060435073507076001111_0",
      "primitives": [
        {
          "attributes": {
            "POSITION": 0,
            "NORMAL": 1,
            "TEXCOORD_0": 2
          },
          "indices": 3,
          "material": 0
        }
      ]
    }
  ],
  "nodes": [
    {
      "mesh": 0
    }
  ],
  "scene": 0,
  "scenes": [
    {
      "nodes": [
        0
      ]
    }
  ],
  "textures": [
    {
      "source": 0
    }
  ]
}