{
  "asset": {
    "copyright": "",
    "generator": "SharpGLTF 1.0.0",
    "version": "2.0"
  },
  "accessors": [
    {
      "name": "POSITION",
      "bufferView": 0,
      "componentType": 5126,
      "count": 21,
      "max": [
        -256.63113403320313,
        20.374748229980469,
        277.36343383789063
      ],
      "min": [
        -257.34625244140625,
        19.755243301391602,
        277.17306518554688
      ],
      "type": "VEC3"
    },
    {
      "name": "NORMAL",
      "bufferView": 0,
      "byteOffset": 12,
      "componentType": 5126,
      "count": 21,
      "max": [
        0.48986312747001648,
        0.89822900295257568,
        0.96262794733047485
      ],
      "min": [
        -0.78065866231918335,
        -0.60776203870773315,
        0.20030708611011505
      ],
      "type": "VEC3"
    },
    {
      "name": "TEXCOORD_0",
      "bufferView": 0,
      "byteOffset": 24,
      "componentType": 5126,
      "count": 21,
      "max": [
        0.166015625,
        0.998046875
      ],
      "min": [
        0.001953125,
        0.955078125
      ],
      "type": "VEC2"
    },
    {
      "bufferView": 1,
      "componentType": 5123,
      "count": 51,
      "type": "SCALAR"
    }
  ],
  "bufferViews": [
    {
      "buffer": 0,
      "byteLength": 672,
      "byteStride": 32,
      "target": 34962
    },
    {
      "buffer": 0,
      "byteLength": 102,
      "byteOffset": 672,
      "target": 34963
    }
  ],
  "buffers": [
    {
      "byteLength": 776,
      "uri": "3060435073507076033135_LOD00.bin"
    }
  ],
  "images": [
    {
      "uri": "3060435073507076033135_LOD00.png"
    }
  ],
  "materials": [
    {
      "doubleSided": true,
      "pbrMetallicRoughness": {
        "baseColorTexture": {
          "index": 0
        },
        "metallicFactor": 0
      }
    }
  ],
  "meshes": [
    {
      "name": "3060435073507076033135_0",
      "primitives": [
        {
          "attributes": {
            "POSITION": 0,
            "NORMAL": 1,
            "TEXCOORD_0": 2
          },
          "indices": 3,
          "material": 0
        }
      ]
    }
  ],
  "nodes": [
    {
      "mesh": 0
    }
  ],
  "scene": 0,
  "scenes": [
    {
      "nodes": [
        0
      ]
    }
  ],
  "textures": [
    {
      "source": 0
    }
  ]
}