{
  "asset": {
    "copyright": "",
    "generator": "SharpGLTF 1.0.0",
    "version": "2.0"
  },
  "accessors": [
    {
      "name": "POSITION",
      "bufferView": 0,
      "componentType": 5126,
      "count": 279,
      "max": [
        -0.85828077793121338,
        12.241208076477051,
        96.230880737304688
      ],
      "min": [
        -12.014698028564453,
        10.525728225708008,
        90.377357482910156
      ],
      "type": "VEC3"
    },
    {
      "name": "NORMAL",
      "bufferView": 0,
      "byteOffset": 12,
      "componentType": 5126,
      "count": 279,
      "max": [
        0.91817474365234375,
        0.99998444318771362,
        0.93814551830291748
      ],
      "min": [
        -0.99368822574615479,
        -0.30393001437187195,
        -0.88986480236053467
      ],
      "type": "VEC3"
    },
    {
      "name": "TEXCOORD_0",
      "bufferView": 0,
      "byteOffset": 24,
      "componentType": 5126,
      "count": 279,
      "max": [
        0.998046875,
        0.998046875
      ],
      "min": [
        0.001953125,
        0.712890625
      ],
      "type": "VEC2"
    },
    {
      "bufferView": 1,
      "componentType": 5123,
      "count": 711,
      "type": "SCALAR"
    }
  ],
  "bufferViews": [
    {
      "buffer": 0,
      "byteLength": 8928,
      "byteStride": 32,
      "target": 34962
    },
    {
      "buffer": 0,
      "byteLength": 1422,
      "byteOffset": 8928,
      "target": 34963
    }
  ],
  "buffers": [
    {
      "byteLength": 10352,
      "uri": "3060435073507076001230_LOD00.bin"
    }
  ],
  "images": [
    {
      "uri": "3060435073507076001230_LOD00.png"
    }
  ],
  "materials": [
    {
      "doubleSided": true,
      "pbrMetallicRoughness": {
        "baseColorTexture": {
          "index": 0
        },
        "metallicFactor": 0
      }
    }
  ],
  "meshes": [
    {
      "name": "3060435073507076001230_0",
      "primitives": [
        {
          "attributes": {
            "POSITION": 0,
            "NORMAL": 1,
            "TEXCOORD_0": 2
          },
          "indices": 3,
          "material": 0
        }
      ]
    }
  ],
  "nodes": [
    {
      "mesh": 0
    }
  ],
  "scene": 0,
  "scenes": [
    {
      "nodes": [
        0
      ]
    }
  ],
  "textures": [
    {
      "source": 0
    }
  ]
}