{
  "asset": {
    "copyright": "",
    "generator": "SharpGLTF 1.0.0",
    "version": "2.0"
  },
  "accessors": [
    {
      "name": "POSITION",
      "bufferView": 0,
      "componentType": 5126,
      "count": 1188,
      "max": [
        -177.276123046875,
        19.755870819091797,
        409.50228881835938
      ],
      "min": [
        -188.24107360839844,
        10.511359214782715,
        400.74554443359375
      ],
      "type": "VEC3"
    },
    {
      "name": "NORMAL",
      "bufferView": 0,
      "byteOffset": 12,
      "componentType": 5126,
      "count": 1188,
      "max": [
        0.99489545822143555,
        0.99998432397842407,
        0.99798047542572021
      ],
      "min": [
        -0.99599844217300415,
        -0.98319125175476074,
        -0.99599236249923706
      ],
      "type": "VEC3"
    },
    {
      "name": "TEXCOORD_0",
      "bufferView": 0,
      "byteOffset": 24,
      "componentType": 5126,
      "count": 1188,
      "max": [
        0.998046875,
        0.9990234375
      ],
      "min": [
        0.001953125,
        0.0009765625
      ],
      "type": "VEC2"
    },
    {
      "bufferView": 1,
      "componentType": 5123,
      "count": 2826,
      "type": "SCALAR"
    },
    {
      "name": "POSITION",
      "bufferView": 0,
      "byteOffset": 38016,
      "componentType": 5126,
      "count": 237,
      "max": [
        -177.41897583007813,
        19.755790710449219,
        409.50228881835938
      ],
      "min": [
        -186.28645324707031,
        10.559083938598633,
        400.84063720703125
      ],
      "type": "VEC3"
    },
    {
      "name": "NORMAL",
      "bufferView": 0,
      "byteOffset": 38028,
      "componentType": 5126,
      "count": 237,
      "max": [
        0.9150005578994751,
        0.9944116473197937,
        0.99798047542572021
      ],
      "min": [
        -0.97885388135910034,
        -0.93599724769592285,
        -0.99437844753265381
      ],
      "type": "VEC3"
    },
    {
      "name": "TEXCOORD_0",
      "bufferView": 0,
      "byteOffset": 38040,
      "componentType": 5126,
      "count": 237,
      "max": [
        0.998046875,
        0.998046875
      ],
      "min": [
        0.001953125,
        0.615234375
      ],
      "type": "VEC2"
    },
    {
      "bufferView": 1,
      "byteOffset": 5652,
      "componentType": 5123,
      "count": 534,
      "type": "SCALAR"
    }
  ],
  "bufferViews": [
    {
      "buffer": 0,
      "byteLength": 45600,
      "byteStride": 32,
      "target": 34962
    },
    {
      "buffer": 0,
      "byteLength": 6720,
      "byteOffset": 45600,
      "target": 34963
    }
  ],
  "buffers": [
    {
      "byteLength": 52320,
      "uri": "3060435073507076211223_LOD00.bin"
    }
  ],
  "images": [
    {
      "uri": "3060435073507076211223_LOD00_0.png"
    },
    {
      "uri": "3060435073507076211223_LOD00_1.png"
    }
  ],
  "materials": [
    {
      "doubleSided": true,
      "pbrMetallicRoughness": {
        "baseColorTexture": {
          "index": 0
        },
        "metallicFactor": 0
      }
    },
    {
      "doubleSided": true,
      "pbrMetallicRoughness": {
        "baseColorTexture": {
          "index": 1
        },
        "metallicFactor": 0
      }
    }
  ],
  "meshes": [
    {
      "name": "3060435073507076211223_0",
      "primitives": [
        {
          "attributes": {
            "POSITION": 0,
            "NORMAL": 1,
            "TEXCOORD_0": 2
          },
          "indices": 3,
          "material": 0
        }
      ]
    },
    {
      "name": "3060435073507076211223_1",
      "primitives": [
        {
          "attributes": {
            "POSITION": 4,
            "NORMAL": 5,
            "TEXCOORD_0": 6
          },
          "indices": 7,
          "material": 1
        }
      ]
    }
  ],
  "nodes": [
    {
      "mesh": 0
    },
    {
      "mesh": 1
    }
  ],
  "scene": 0,
  "scenes": [
    {
      "nodes": [
        0,
        1
      ]
    }
  ],
  "textures": [
    {
      "source": 0
    },
    {
      "source": 1
    }
  ]
}