{
  "asset": {
    "copyright": "",
    "generator": "SharpGLTF 1.0.0",
    "version": "2.0"
  },
  "accessors": [
    {
      "name": "POSITION",
      "bufferView": 0,
      "componentType": 5126,
      "count": 251,
      "max": [
        -0.14322413504123688,
        10.624451637268066,
        172.52645874023438
      ],
      "min": [
        -11.966922760009766,
        9.242487907409668,
        163.00852966308594
      ],
      "type": "VEC3"
    },
    {
      "name": "NORMAL",
      "bufferView": 0,
      "byteOffset": 12,
      "componentType": 5126,
      "count": 251,
      "max": [
        0.77063494920730591,
        0.99998444318771362,
        0.99598443508148193
      ],
      "min": [
        -0.99528110027313232,
        -0.10310763120651245,
        -0.98824942111968994
      ],
      "type": "VEC3"
    },
    {
      "name": "TEXCOORD_0",
      "bufferView": 0,
      "byteOffset": 24,
      "componentType": 5126,
      "count": 251,
      "max": [
        0.998046875,
        0.998046875
      ],
      "min": [
        0.001953125,
        0.009765625
      ],
      "type": "VEC2"
    },
    {
      "bufferView": 1,
      "componentType": 5123,
      "count": 777,
      "type": "SCALAR"
    }
  ],
  "bufferViews": [
    {
      "buffer": 0,
      "byteLength": 8032,
      "byteStride": 32,
      "target": 34962
    },
    {
      "buffer": 0,
      "byteLength": 1554,
      "byteOffset": 8032,
      "target": 34963
    }
  ],
  "buffers": [
    {
      "byteLength": 9588,
      "uri": "3060435073507072447674_LOD00.bin"
    }
  ],
  "images": [
    {
      "uri": "3060435073507072447674_LOD00.png"
    }
  ],
  "materials": [
    {
      "doubleSided": true,
      "pbrMetallicRoughness": {
        "baseColorTexture": {
          "index": 0
        },
        "metallicFactor": 0
      }
    }
  ],
  "meshes": [
    {
      "name": "3060435073507072447674_0",
      "primitives": [
        {
          "attributes": {
            "POSITION": 0,
            "NORMAL": 1,
            "TEXCOORD_0": 2
          },
          "indices": 3,
          "material": 0
        }
      ]
    }
  ],
  "nodes": [
    {
      "mesh": 0
    }
  ],
  "scene": 0,
  "scenes": [
    {
      "nodes": [
        0
      ]
    }
  ],
  "textures": [
    {
      "source": 0
    }
  ]
}