{
  "asset": {
    "copyright": "",
    "generator": "SharpGLTF 1.0.0",
    "version": "2.0"
  },
  "accessors": [
    {
      "name": "POSITION",
      "bufferView": 0,
      "componentType": 5126,
      "count": 389,
      "max": [
        -130.15422058105469,
        11.382608413696289,
        58.370445251464844
      ],
      "min": [
        -141.97830200195313,
        10.477041244506836,
        48.852214813232422
      ],
      "type": "VEC3"
    },
    {
      "name": "NORMAL",
      "bufferView": 0,
      "byteOffset": 12,
      "componentType": 5126,
      "count": 389,
      "max": [
        0.35674440860748291,
        0.99998438358306885,
        0.34304305911064148
      ],
      "min": [
        -0.34361532330513,
        0.91298937797546387,
        -0.36127191781997681
      ],
      "type": "VEC3"
    },
    {
      "name": "TEXCOORD_0",
      "bufferView": 0,
      "byteOffset": 24,
      "componentType": 5126,
      "count": 389,
      "max": [
        0.998046875,
        0.998046875
      ],
      "min": [
        0.001953125,
        0.115234375
      ],
      "type": "VEC2"
    },
    {
      "bufferView": 1,
      "componentType": 5123,
      "count": 1167,
      "type": "SCALAR"
    }
  ],
  "bufferViews": [
    {
      "buffer": 0,
      "byteLength": 12448,
      "byteStride": 32,
      "target": 34962
    },
    {
      "buffer": 0,
      "byteLength": 2334,
      "byteOffset": 12448,
      "target": 34963
    }
  ],
  "buffers": [
    {
      "byteLength": 14784,
      "uri": "3060435073507076010121_LOD00.bin"
    }
  ],
  "images": [
    {
      "uri": "3060435073507076010121_LOD00.png"
    }
  ],
  "materials": [
    {
      "doubleSided": true,
      "pbrMetallicRoughness": {
        "baseColorTexture": {
          "index": 0
        },
        "metallicFactor": 0
      }
    }
  ],
  "meshes": [
    {
      "name": "3060435073507076010121_0",
      "primitives": [
        {
          "attributes": {
            "POSITION": 0,
            "NORMAL": 1,
            "TEXCOORD_0": 2
          },
          "indices": 3,
          "material": 0
        }
      ]
    }
  ],
  "nodes": [
    {
      "mesh": 0
    }
  ],
  "scene": 0,
  "scenes": [
    {
      "nodes": [
        0
      ]
    }
  ],
  "textures": [
    {
      "source": 0
    }
  ]
}