{
  "asset": {
    "copyright": "",
    "generator": "SharpGLTF 1.0.0",
    "version": "2.0"
  },
  "accessors": [
    {
      "name": "POSITION",
      "bufferView": 0,
      "componentType": 5126,
      "count": 166,
      "max": [
        -260.05270385742188,
        10.75250244140625,
        400.84906005859375
      ],
      "min": [
        -271.97119140625,
        7.4162306785583496,
        391.2830810546875
      ],
      "type": "VEC3"
    },
    {
      "name": "NORMAL",
      "bufferView": 0,
      "byteOffset": 12,
      "componentType": 5126,
      "count": 166,
      "max": [
        0.045200761407613754,
        0.99998486042022705,
        0.40770095586776733
      ],
      "min": [
        -0.57332050800323486,
        -0.88952124118804932,
        -0.0040469667874276638
      ],
      "type": "VEC3"
    },
    {
      "name": "TEXCOORD_0",
      "bufferView": 0,
      "byteOffset": 24,
      "componentType": 5126,
      "count": 166,
      "max": [
        0.998046875,
        0.998046875
      ],
      "min": [
        0.001953125,
        0.041015625
      ],
      "type": "VEC2"
    },
    {
      "bufferView": 1,
      "componentType": 5123,
      "count": 561,
      "type": "SCALAR"
    }
  ],
  "bufferViews": [
    {
      "buffer": 0,
      "byteLength": 5312,
      "byteStride": 32,
      "target": 34962
    },
    {
      "buffer": 0,
      "byteLength": 1122,
      "byteOffset": 5312,
      "target": 34963
    }
  ],
  "buffers": [
    {
      "byteLength": 6436,
      "uri": "3060435073507072744664_LOD00.bin"
    }
  ],
  "images": [
    {
      "uri": "3060435073507072744664_LOD00.png"
    }
  ],
  "materials": [
    {
      "doubleSided": true,
      "pbrMetallicRoughness": {
        "baseColorTexture": {
          "index": 0
        },
        "metallicFactor": 0
      }
    }
  ],
  "meshes": [
    {
      "name": "3060435073507072744664_0",
      "primitives": [
        {
          "attributes": {
            "POSITION": 0,
            "NORMAL": 1,
            "TEXCOORD_0": 2
          },
          "indices": 3,
          "material": 0
        }
      ]
    }
  ],
  "nodes": [
    {
      "mesh": 0
    }
  ],
  "scene": 0,
  "scenes": [
    {
      "nodes": [
        0
      ]
    }
  ],
  "textures": [
    {
      "source": 0
    }
  ]
}