{
  "asset": {
    "copyright": "",
    "generator": "SharpGLTF 1.0.0",
    "version": "2.0"
  },
  "accessors": [
    {
      "name": "POSITION",
      "bufferView": 0,
      "componentType": 5126,
      "count": 142,
      "max": [
        -70.95867919921875,
        11.039158821105957,
        381.81634521484375
      ],
      "min": [
        -79.301742553710938,
        10.467128753662109,
        372.15573120117188
      ],
      "type": "VEC3"
    },
    {
      "name": "NORMAL",
      "bufferView": 0,
      "byteOffset": 12,
      "componentType": 5126,
      "count": 142,
      "max": [
        0.25506436824798584,
        0.99998462200164795,
        0.55138206481933594
      ],
      "min": [
        -0.34438461065292358,
        0.75985336303710938,
        -0.58162903785705566
      ],
      "type": "VEC3"
    },
    {
      "name": "TEXCOORD_0",
      "bufferView": 0,
      "byteOffset": 24,
      "componentType": 5126,
      "count": 142,
      "max": [
        0.951171875,
        0.998046875
      ],
      "min": [
        0.001953125,
        0.603515625
      ],
      "type": "VEC2"
    },
    {
      "bufferView": 1,
      "componentType": 5123,
      "count": 453,
      "type": "SCALAR"
    }
  ],
  "bufferViews": [
    {
      "buffer": 0,
      "byteLength": 4544,
      "byteStride": 32,
      "target": 34962
    },
    {
      "buffer": 0,
      "byteLength": 906,
      "byteOffset": 4544,
      "target": 34963
    }
  ],
  "buffers": [
    {
      "byteLength": 5452,
      "uri": "3060435073507076210200_LOD00.bin"
    }
  ],
  "images": [
    {
      "uri": "3060435073507076210200_LOD00.png"
    }
  ],
  "materials": [
    {
      "doubleSided": true,
      "pbrMetallicRoughness": {
        "baseColorTexture": {
          "index": 0
        },
        "metallicFactor": 0
      }
    }
  ],
  "meshes": [
    {
      "name": "3060435073507076210200_0",
      "primitives": [
        {
          "attributes": {
            "POSITION": 0,
            "NORMAL": 1,
            "TEXCOORD_0": 2
          },
          "indices": 3,
          "material": 0
        }
      ]
    }
  ],
  "nodes": [
    {
      "mesh": 0
    }
  ],
  "scene": 0,
  "scenes": [
    {
      "nodes": [
        0
      ]
    }
  ],
  "textures": [
    {
      "source": 0
    }
  ]
}