{
  "asset": {
    "copyright": "",
    "generator": "SharpGLTF 1.0.0",
    "version": "2.0"
  },
  "accessors": [
    {
      "name": "POSITION",
      "bufferView": 0,
      "componentType": 5126,
      "count": 41,
      "max": [
        -91.744644165039063,
        130.258056640625,
        191.69973754882813
      ],
      "min": [
        -94.70062255859375,
        129.49560546875,
        191.22386169433594
      ],
      "type": "VEC3"
    },
    {
      "name": "NORMAL",
      "bufferView": 0,
      "byteOffset": 12,
      "componentType": 5126,
      "count": 41,
      "max": [
        0.36222955584526062,
        0.87368601560592651,
        -0.44514918327331543
      ],
      "min": [
        -0.39053228497505188,
        -0.20214363932609558,
        -0.99672770500183105
      ],
      "type": "VEC3"
    },
    {
      "name": "TEXCOORD_0",
      "bufferView": 0,
      "byteOffset": 24,
      "componentType": 5126,
      "count": 41,
      "max": [
        0.486328125,
        0.998046875
      ],
      "min": [
        0.001953125,
        0.837890625
      ],
      "type": "VEC2"
    },
    {
      "bufferView": 1,
      "componentType": 5123,
      "count": 117,
      "type": "SCALAR"
    }
  ],
  "bufferViews": [
    {
      "buffer": 0,
      "byteLength": 1312,
      "byteStride": 32,
      "target": 34962
    },
    {
      "buffer": 0,
      "byteLength": 234,
      "byteOffset": 1312,
      "target": 34963
    }
  ],
  "buffers": [
    {
      "byteLength": 1548,
      "uri": "3060435073507076034405_LOD00.bin"
    }
  ],
  "images": [
    {
      "uri": "3060435073507076034405_LOD00.png"
    }
  ],
  "materials": [
    {
      "doubleSided": true,
      "pbrMetallicRoughness": {
        "baseColorTexture": {
          "index": 0
        },
        "metallicFactor": 0
      }
    }
  ],
  "meshes": [
    {
      "name": "3060435073507076034405_0",
      "primitives": [
        {
          "attributes": {
            "POSITION": 0,
            "NORMAL": 1,
            "TEXCOORD_0": 2
          },
          "indices": 3,
          "material": 0
        }
      ]
    }
  ],
  "nodes": [
    {
      "mesh": 0
    }
  ],
  "scene": 0,
  "scenes": [
    {
      "nodes": [
        0
      ]
    }
  ],
  "textures": [
    {
      "source": 0
    }
  ]
}