{
  "asset": {
    "copyright": "",
    "generator": "SharpGLTF 1.0.0",
    "version": "2.0"
  },
  "accessors": [
    {
      "name": "POSITION",
      "bufferView": 0,
      "componentType": 5126,
      "count": 62,
      "max": [
        -223.13955688476563,
        1.6212002038955688,
        31.304365158081055
      ],
      "min": [
        -224.71315002441406,
        -7.8139100074768066,
        29.828983306884766
      ],
      "type": "VEC3"
    },
    {
      "name": "NORMAL",
      "bufferView": 0,
      "byteOffset": 12,
      "componentType": 5126,
      "count": 62,
      "max": [
        -0.7021937370300293,
        -0.0055900746956467628,
        -0.71196407079696655
      ],
      "min": [
        -0.7021937370300293,
        -0.0055900746956467628,
        -0.71196407079696655
      ],
      "type": "VEC3"
    },
    {
      "name": "TEXCOORD_0",
      "bufferView": 0,
      "byteOffset": 24,
      "componentType": 5126,
      "count": 62,
      "max": [
        0.814453125,
        0.998046875
      ],
      "min": [
        0.001953125,
        0.833984375
      ],
      "type": "VEC2"
    },
    {
      "bufferView": 1,
      "componentType": 5123,
      "count": 201,
      "type": "SCALAR"
    }
  ],
  "bufferViews": [
    {
      "buffer": 0,
      "byteLength": 1984,
      "byteStride": 32,
      "target": 34962
    },
    {
      "buffer": 0,
      "byteLength": 402,
      "byteOffset": 1984,
      "target": 34963
    }
  ],
  "buffers": [
    {
      "byteLength": 2388,
      "uri": "3060435073507072455540_LOD00.bin"
    }
  ],
  "images": [
    {
      "uri": "3060435073507072455540_LOD00.png"
    }
  ],
  "materials": [
    {
      "doubleSided": true,
      "pbrMetallicRoughness": {
        "baseColorTexture": {
          "index": 0
        },
        "metallicFactor": 0
      }
    }
  ],
  "meshes": [
    {
      "name": "3060435073507072455540_0",
      "primitives": [
        {
          "attributes": {
            "POSITION": 0,
            "NORMAL": 1,
            "TEXCOORD_0": 2
          },
          "indices": 3,
          "material": 0
        }
      ]
    }
  ],
  "nodes": [
    {
      "mesh": 0
    }
  ],
  "scene": 0,
  "scenes": [
    {
      "nodes": [
        0
      ]
    }
  ],
  "textures": [
    {
      "source": 0
    }
  ]
}