{
  "asset": {
    "copyright": "",
    "generator": "SharpGLTF 1.0.0",
    "version": "2.0"
  },
  "accessors": [
    {
      "name": "POSITION",
      "bufferView": 0,
      "componentType": 5126,
      "count": 571,
      "max": [
        -96.171958923339844,
        10.622764587402344,
        210.580078125
      ],
      "min": [
        -106.66055297851563,
        9.4313154220581055,
        201.06198120117188
      ],
      "type": "VEC3"
    },
    {
      "name": "NORMAL",
      "bufferView": 0,
      "byteOffset": 12,
      "componentType": 5126,
      "count": 571,
      "max": [
        0.8660050630569458,
        0.99896842241287231,
        0.89307129383087158
      ],
      "min": [
        -0.94971239566802979,
        0.060864288359880447,
        -0.9444352388381958
      ],
      "type": "VEC3"
    },
    {
      "name": "TEXCOORD_0",
      "bufferView": 0,
      "byteOffset": 24,
      "componentType": 5126,
      "count": 571,
      "max": [
        0.998046875,
        0.998046875
      ],
      "min": [
        0.001953125,
        0.275390625
      ],
      "type": "VEC2"
    },
    {
      "bufferView": 1,
      "componentType": 5123,
      "count": 1587,
      "type": "SCALAR"
    }
  ],
  "bufferViews": [
    {
      "buffer": 0,
      "byteLength": 18272,
      "byteStride": 32,
      "target": 34962
    },
    {
      "buffer": 0,
      "byteLength": 3174,
      "byteOffset": 18272,
      "target": 34963
    }
  ],
  "buffers": [
    {
      "byteLength": 21448,
      "uri": "3060435073507072474474_LOD00.bin"
    }
  ],
  "images": [
    {
      "uri": "3060435073507072474474_LOD00.png"
    }
  ],
  "materials": [
    {
      "doubleSided": true,
      "pbrMetallicRoughness": {
        "baseColorTexture": {
          "index": 0
        },
        "metallicFactor": 0
      }
    }
  ],
  "meshes": [
    {
      "name": "3060435073507072474474_0",
      "primitives": [
        {
          "attributes": {
            "POSITION": 0,
            "NORMAL": 1,
            "TEXCOORD_0": 2
          },
          "indices": 3,
          "material": 0
        }
      ]
    }
  ],
  "nodes": [
    {
      "mesh": 0
    }
  ],
  "scene": 0,
  "scenes": [
    {
      "nodes": [
        0
      ]
    }
  ],
  "textures": [
    {
      "source": 0
    }
  ]
}