{
  "asset": {
    "copyright": "",
    "generator": "SharpGLTF 1.0.0",
    "version": "2.0"
  },
  "accessors": [
    {
      "name": "POSITION",
      "bufferView": 0,
      "componentType": 5126,
      "count": 251,
      "max": [
        -250.19001770019531,
        10.706862449645996,
        372.30905151367188
      ],
      "min": [
        -260.154296875,
        8.6093206405639648,
        362.790771484375
      ],
      "type": "VEC3"
    },
    {
      "name": "NORMAL",
      "bufferView": 0,
      "byteOffset": 12,
      "componentType": 5126,
      "count": 251,
      "max": [
        0.0040763653814792633,
        0.99998468160629272,
        0.40624922513961792
      ],
      "min": [
        -0.99056243896484375,
        -0.72622102499008179,
        -0.47331374883651733
      ],
      "type": "VEC3"
    },
    {
      "name": "TEXCOORD_0",
      "bufferView": 0,
      "byteOffset": 24,
      "componentType": 5126,
      "count": 251,
      "max": [
        0.994140625,
        0.998046875
      ],
      "min": [
        0.001953125,
        0.087890625
      ],
      "type": "VEC2"
    },
    {
      "bufferView": 1,
      "componentType": 5123,
      "count": 753,
      "type": "SCALAR"
    }
  ],
  "bufferViews": [
    {
      "buffer": 0,
      "byteLength": 8032,
      "byteStride": 32,
      "target": 34962
    },
    {
      "buffer": 0,
      "byteLength": 1506,
      "byteOffset": 8032,
      "target": 34963
    }
  ],
  "buffers": [
    {
      "byteLength": 9540,
      "uri": "3060435073507072655577_LOD00.bin"
    }
  ],
  "images": [
    {
      "uri": "3060435073507072655577_LOD00.png"
    }
  ],
  "materials": [
    {
      "doubleSided": true,
      "pbrMetallicRoughness": {
        "baseColorTexture": {
          "index": 0
        },
        "metallicFactor": 0
      }
    }
  ],
  "meshes": [
    {
      "name": "3060435073507072655577_0",
      "primitives": [
        {
          "attributes": {
            "POSITION": 0,
            "NORMAL": 1,
            "TEXCOORD_0": 2
          },
          "indices": 3,
          "material": 0
        }
      ]
    }
  ],
  "nodes": [
    {
      "mesh": 0
    }
  ],
  "scene": 0,
  "scenes": [
    {
      "nodes": [
        0
      ]
    }
  ],
  "textures": [
    {
      "source": 0
    }
  ]
}