{
  "asset": {
    "copyright": "",
    "generator": "SharpGLTF 1.0.0",
    "version": "2.0"
  },
  "accessors": [
    {
      "name": "POSITION",
      "bufferView": 0,
      "componentType": 5126,
      "count": 239,
      "max": [
        -74.823928833007813,
        11.859275817871094,
        114.59146118164063
      ],
      "min": [
        -81.403366088867188,
        10.572741508483887,
        105.83492279052734
      ],
      "type": "VEC3"
    },
    {
      "name": "NORMAL",
      "bufferView": 0,
      "byteOffset": 12,
      "componentType": 5126,
      "count": 239,
      "max": [
        0.95978862047195435,
        0.99998444318771362,
        0.99176710844039917
      ],
      "min": [
        -0.98291122913360596,
        -0.063588552176952362,
        -0.99999231100082397
      ],
      "type": "VEC3"
    },
    {
      "name": "TEXCOORD_0",
      "bufferView": 0,
      "byteOffset": 24,
      "componentType": 5126,
      "count": 239,
      "max": [
        0.998046875,
        0.998046875
      ],
      "min": [
        0.001953125,
        0.728515625
      ],
      "type": "VEC2"
    },
    {
      "bufferView": 1,
      "componentType": 5123,
      "count": 645,
      "type": "SCALAR"
    }
  ],
  "bufferViews": [
    {
      "buffer": 0,
      "byteLength": 7648,
      "byteStride": 32,
      "target": 34962
    },
    {
      "buffer": 0,
      "byteLength": 1290,
      "byteOffset": 7648,
      "target": 34963
    }
  ],
  "buffers": [
    {
      "byteLength": 8940,
      "uri": "3060435073507076012000_LOD00.bin"
    }
  ],
  "images": [
    {
      "uri": "3060435073507076012000_LOD00.png"
    }
  ],
  "materials": [
    {
      "doubleSided": true,
      "pbrMetallicRoughness": {
        "baseColorTexture": {
          "index": 0
        },
        "metallicFactor": 0
      }
    }
  ],
  "meshes": [
    {
      "name": "3060435073507076012000_0",
      "primitives": [
        {
          "attributes": {
            "POSITION": 0,
            "NORMAL": 1,
            "TEXCOORD_0": 2
          },
          "indices": 3,
          "material": 0
        }
      ]
    }
  ],
  "nodes": [
    {
      "mesh": 0
    }
  ],
  "scene": 0,
  "scenes": [
    {
      "nodes": [
        0
      ]
    }
  ],
  "textures": [
    {
      "source": 0
    }
  ]
}