{
  "asset": {
    "copyright": "",
    "generator": "SharpGLTF 1.0.0",
    "version": "2.0"
  },
  "accessors": [
    {
      "name": "POSITION",
      "bufferView": 0,
      "componentType": 5126,
      "count": 206,
      "max": [
        -11.914646148681641,
        23.816457748413086,
        16.318477630615234
      ],
      "min": [
        -15.490489959716797,
        19.766023635864258,
        10.702901840209961
      ],
      "type": "VEC3"
    },
    {
      "name": "NORMAL",
      "bufferView": 0,
      "byteOffset": 12,
      "componentType": 5126,
      "count": 206,
      "max": [
        0.12169736623764038,
        0.96690422296524048,
        0.98246031999588013
      ],
      "min": [
        -0.99637144804000854,
        -0.4617253839969635,
        -0.64924740791320801
      ],
      "type": "VEC3"
    },
    {
      "name": "TEXCOORD_0",
      "bufferView": 0,
      "byteOffset": 24,
      "componentType": 5126,
      "count": 206,
      "max": [
        0.994140625,
        0.998046875
      ],
      "min": [
        0.001953125,
        0.693359375
      ],
      "type": "VEC2"
    },
    {
      "bufferView": 1,
      "componentType": 5123,
      "count": 525,
      "type": "SCALAR"
    }
  ],
  "bufferViews": [
    {
      "buffer": 0,
      "byteLength": 6592,
      "byteStride": 32,
      "target": 34962
    },
    {
      "buffer": 0,
      "byteLength": 1050,
      "byteOffset": 6592,
      "target": 34963
    }
  ],
  "buffers": [
    {
      "byteLength": 7644,
      "uri": "3060435073507074223235_LOD00.bin"
    }
  ],
  "images": [
    {
      "uri": "3060435073507074223235_LOD00.png"
    }
  ],
  "materials": [
    {
      "doubleSided": true,
      "pbrMetallicRoughness": {
        "baseColorTexture": {
          "index": 0
        },
        "metallicFactor": 0
      }
    }
  ],
  "meshes": [
    {
      "name": "3060435073507074223235_0",
      "primitives": [
        {
          "attributes": {
            "POSITION": 0,
            "NORMAL": 1,
            "TEXCOORD_0": 2
          },
          "indices": 3,
          "material": 0
        }
      ]
    }
  ],
  "nodes": [
    {
      "mesh": 0
    }
  ],
  "scene": 0,
  "scenes": [
    {
      "nodes": [
        0
      ]
    }
  ],
  "textures": [
    {
      "source": 0
    }
  ]
}