{
  "asset": {
    "copyright": "",
    "generator": "SharpGLTF 1.0.0",
    "version": "2.0"
  },
  "accessors": [
    {
      "name": "POSITION",
      "bufferView": 0,
      "componentType": 5126,
      "count": 67,
      "max": [
        -189.09584045410156,
        15.660026550292969,
        362.93597412109375
      ],
      "min": [
        -189.7156982421875,
        11.847862243652344,
        362.41238403320313
      ],
      "type": "VEC3"
    },
    {
      "name": "NORMAL",
      "bufferView": 0,
      "byteOffset": 12,
      "componentType": 5126,
      "count": 67,
      "max": [
        -0.38408404588699341,
        0.38937175273895264,
        -0.73910772800445557
      ],
      "min": [
        -0.67160362005233765,
        -0.2578798234462738,
        -0.88655370473861694
      ],
      "type": "VEC3"
    },
    {
      "name": "TEXCOORD_0",
      "bufferView": 0,
      "byteOffset": 24,
      "componentType": 5126,
      "count": 67,
      "max": [
        0.509765625,
        0.998046875
      ],
      "min": [
        0.001953125,
        0.943359375
      ],
      "type": "VEC2"
    },
    {
      "bufferView": 1,
      "componentType": 5123,
      "count": 201,
      "type": "SCALAR"
    }
  ],
  "bufferViews": [
    {
      "buffer": 0,
      "byteLength": 2144,
      "byteStride": 32,
      "target": 34962
    },
    {
      "buffer": 0,
      "byteLength": 402,
      "byteOffset": 2144,
      "target": 34963
    }
  ],
  "buffers": [
    {
      "byteLength": 2548,
      "uri": "3060435073507076211030_LOD00.bin"
    }
  ],
  "images": [
    {
      "uri": "3060435073507076211030_LOD00.png"
    }
  ],
  "materials": [
    {
      "doubleSided": true,
      "pbrMetallicRoughness": {
        "baseColorTexture": {
          "index": 0
        },
        "metallicFactor": 0
      }
    }
  ],
  "meshes": [
    {
      "name": "3060435073507076211030_0",
      "primitives": [
        {
          "attributes": {
            "POSITION": 0,
            "NORMAL": 1,
            "TEXCOORD_0": 2
          },
          "indices": 3,
          "material": 0
        }
      ]
    }
  ],
  "nodes": [
    {
      "mesh": 0
    }
  ],
  "scene": 0,
  "scenes": [
    {
      "nodes": [
        0
      ]
    }
  ],
  "textures": [
    {
      "source": 0
    }
  ]
}