{
  "asset": {
    "copyright": "",
    "generator": "SharpGLTF 1.0.0",
    "version": "2.0"
  },
  "accessors": [
    {
      "name": "POSITION",
      "bufferView": 0,
      "componentType": 5126,
      "count": 331,
      "max": [
        -90.123558044433594,
        130.35336303710938,
        197.4058837890625
      ],
      "min": [
        -94.748252868652344,
        129.35260009765625,
        191.55220031738281
      ],
      "type": "VEC3"
    },
    {
      "name": "NORMAL",
      "bufferView": 0,
      "byteOffset": 12,
      "componentType": 5126,
      "count": 331,
      "max": [
        0.9905705451965332,
        0.9999845027923584,
        0.9991489052772522
      ],
      "min": [
        -0.94035273790359497,
        -0.83917772769927979,
        -0.976887047290802
      ],
      "type": "VEC3"
    },
    {
      "name": "TEXCOORD_0",
      "bufferView": 0,
      "byteOffset": 24,
      "componentType": 5126,
      "count": 331,
      "max": [
        0.998046875,
        0.998046875
      ],
      "min": [
        0.001953125,
        0.662109375
      ],
      "type": "VEC2"
    },
    {
      "bufferView": 1,
      "componentType": 5123,
      "count": 834,
      "type": "SCALAR"
    }
  ],
  "bufferViews": [
    {
      "buffer": 0,
      "byteLength": 10592,
      "byteStride": 32,
      "target": 34962
    },
    {
      "buffer": 0,
      "byteLength": 1668,
      "byteOffset": 10592,
      "target": 34963
    }
  ],
  "buffers": [
    {
      "byteLength": 12260,
      "uri": "3060435073507076034407_LOD00.bin"
    }
  ],
  "images": [
    {
      "uri": "3060435073507076034407_LOD00.png"
    }
  ],
  "materials": [
    {
      "doubleSided": true,
      "pbrMetallicRoughness": {
        "baseColorTexture": {
          "index": 0
        },
        "metallicFactor": 0
      }
    }
  ],
  "meshes": [
    {
      "name": "3060435073507076034407_0",
      "primitives": [
        {
          "attributes": {
            "POSITION": 0,
            "NORMAL": 1,
            "TEXCOORD_0": 2
          },
          "indices": 3,
          "material": 0
        }
      ]
    }
  ],
  "nodes": [
    {
      "mesh": 0
    }
  ],
  "scene": 0,
  "scenes": [
    {
      "nodes": [
        0
      ]
    }
  ],
  "textures": [
    {
      "source": 0
    }
  ]
}