{
  "asset": {
    "copyright": "",
    "generator": "SharpGLTF 1.0.0",
    "version": "2.0"
  },
  "accessors": [
    {
      "name": "POSITION",
      "bufferView": 0,
      "componentType": 5126,
      "count": 194,
      "max": [
        -114.85369873046875,
        28.906240463256836,
        325.11508178710938
      ],
      "min": [
        -118.33400726318359,
        19.709344863891602,
        324.59109497070313
      ],
      "type": "VEC3"
    },
    {
      "name": "NORMAL",
      "bufferView": 0,
      "byteOffset": 12,
      "componentType": 5126,
      "count": 194,
      "max": [
        0.2379339337348938,
        0.2813170850276947,
        0.99798053503036499
      ],
      "min": [
        -0.042703103274106979,
        -0.16071563959121704,
        0.94216680526733398
      ],
      "type": "VEC3"
    },
    {
      "name": "TEXCOORD_0",
      "bufferView": 0,
      "byteOffset": 24,
      "componentType": 5126,
      "count": 194,
      "max": [
        0.998046875,
        0.998046875
      ],
      "min": [
        0.001953125,
        0.712890625
      ],
      "type": "VEC2"
    },
    {
      "bufferView": 1,
      "componentType": 5123,
      "count": 555,
      "type": "SCALAR"
    }
  ],
  "bufferViews": [
    {
      "buffer": 0,
      "byteLength": 6208,
      "byteStride": 32,
      "target": 34962
    },
    {
      "buffer": 0,
      "byteLength": 1110,
      "byteOffset": 6208,
      "target": 34963
    }
  ],
  "buffers": [
    {
      "byteLength": 7320,
      "uri": "3060435073507076032237_LOD00.bin"
    }
  ],
  "images": [
    {
      "uri": "3060435073507076032237_LOD00.png"
    }
  ],
  "materials": [
    {
      "doubleSided": true,
      "pbrMetallicRoughness": {
        "baseColorTexture": {
          "index": 0
        },
        "metallicFactor": 0
      }
    }
  ],
  "meshes": [
    {
      "name": "3060435073507076032237_0",
      "primitives": [
        {
          "attributes": {
            "POSITION": 0,
            "NORMAL": 1,
            "TEXCOORD_0": 2
          },
          "indices": 3,
          "material": 0
        }
      ]
    }
  ],
  "nodes": [
    {
      "mesh": 0
    }
  ],
  "scene": 0,
  "scenes": [
    {
      "nodes": [
        0
      ]
    }
  ],
  "textures": [
    {
      "source": 0
    }
  ]
}