{
  "asset": {
    "copyright": "",
    "generator": "SharpGLTF 1.0.0",
    "version": "2.0"
  },
  "accessors": [
    {
      "name": "POSITION",
      "bufferView": 0,
      "componentType": 5126,
      "count": 161,
      "max": [
        -79.733512878417969,
        129.5927734375,
        278.17117309570313
      ],
      "min": [
        -83.023200988769531,
        121.44425201416016,
        277.0289306640625
      ],
      "type": "VEC3"
    },
    {
      "name": "NORMAL",
      "bufferView": 0,
      "byteOffset": 12,
      "componentType": 5126,
      "count": 161,
      "max": [
        0.80739891529083252,
        0.99440234899520874,
        0.999317467212677
      ],
      "min": [
        -0.24866659939289093,
        -0.664955735206604,
        -0.10238109529018402
      ],
      "type": "VEC3"
    },
    {
      "name": "TEXCOORD_0",
      "bufferView": 0,
      "byteOffset": 24,
      "componentType": 5126,
      "count": 161,
      "max": [
        0.978515625,
        0.998046875
      ],
      "min": [
        0.001953125,
        0.810546875
      ],
      "type": "VEC2"
    },
    {
      "bufferView": 1,
      "componentType": 5123,
      "count": 462,
      "type": "SCALAR"
    }
  ],
  "bufferViews": [
    {
      "buffer": 0,
      "byteLength": 5152,
      "byteStride": 32,
      "target": 34962
    },
    {
      "buffer": 0,
      "byteLength": 924,
      "byteOffset": 5152,
      "target": 34963
    }
  ],
  "buffers": [
    {
      "byteLength": 6076,
      "uri": "3060435073507076036420_LOD00.bin"
    }
  ],
  "images": [
    {
      "uri": "3060435073507076036420_LOD00.png"
    }
  ],
  "materials": [
    {
      "doubleSided": true,
      "pbrMetallicRoughness": {
        "baseColorTexture": {
          "index": 0
        },
        "metallicFactor": 0
      }
    }
  ],
  "meshes": [
    {
      "name": "3060435073507076036420_0",
      "primitives": [
        {
          "attributes": {
            "POSITION": 0,
            "NORMAL": 1,
            "TEXCOORD_0": 2
          },
          "indices": 3,
          "material": 0
        }
      ]
    }
  ],
  "nodes": [
    {
      "mesh": 0
    }
  ],
  "scene": 0,
  "scenes": [
    {
      "nodes": [
        0
      ]
    }
  ],
  "textures": [
    {
      "source": 0
    }
  ]
}