{
  "asset": {
    "copyright": "",
    "generator": "SharpGLTF 1.0.0",
    "version": "2.0"
  },
  "accessors": [
    {
      "name": "POSITION",
      "bufferView": 0,
      "componentType": 5126,
      "count": 334,
      "max": [
        -94.690597534179688,
        47.190464019775391,
        419.96701049804688
      ],
      "min": [
        -103.84406280517578,
        37.945720672607422,
        410.35317993164063
      ],
      "type": "VEC3"
    },
    {
      "name": "NORMAL",
      "bufferView": 0,
      "byteOffset": 12,
      "componentType": 5126,
      "count": 334,
      "max": [
        0.96987289190292358,
        0.30125120282173157,
        0.72362810373306274
      ],
      "min": [
        -0.9991564154624939,
        -0.0055342218838632107,
        -0.86179739236831665
      ],
      "type": "VEC3"
    },
    {
      "name": "TEXCOORD_0",
      "bufferView": 0,
      "byteOffset": 24,
      "componentType": 5126,
      "count": 334,
      "max": [
        0.998046875,
        0.9990234375
      ],
      "min": [
        0.001953125,
        0.0927734375
      ],
      "type": "VEC2"
    },
    {
      "bufferView": 1,
      "componentType": 5123,
      "count": 1035,
      "type": "SCALAR"
    },
    {
      "name": "POSITION",
      "bufferView": 0,
      "byteOffset": 10688,
      "componentType": 5126,
      "count": 20,
      "max": [
        -94.690658569335938,
        42.615882873535156,
        412.82791137695313
      ],
      "min": [
        -95.405860900878906,
        39.804264068603516,
        410.35324096679688
      ],
      "type": "VEC3"
    },
    {
      "name": "NORMAL",
      "bufferView": 0,
      "byteOffset": 10700,
      "componentType": 5126,
      "count": 20,
      "max": [
        0.96987289190292358,
        0.30125120282173157,
        0.30582365393638611
      ],
      "min": [
        0.91910237073898315,
        0.2435649186372757,
        0.0047666574828326702
      ],
      "type": "VEC3"
    },
    {
      "name": "TEXCOORD_0",
      "bufferView": 0,
      "byteOffset": 10712,
      "componentType": 5126,
      "count": 20,
      "max": [
        0.220703125,
        0.998046875
      ],
      "min": [
        0.001953125,
        0.748046875
      ],
      "type": "VEC2"
    },
    {
      "bufferView": 1,
      "byteOffset": 2070,
      "componentType": 5123,
      "count": 63,
      "type": "SCALAR"
    }
  ],
  "bufferViews": [
    {
      "buffer": 0,
      "byteLength": 11328,
      "byteStride": 32,
      "target": 34962
    },
    {
      "buffer": 0,
      "byteLength": 2196,
      "byteOffset": 11328,
      "target": 34963
    }
  ],
  "buffers": [
    {
      "byteLength": 13524,
      "uri": "3060435073507076212054_LOD00.bin"
    }
  ],
  "images": [
    {
      "uri": "3060435073507076212054_LOD00_0.png"
    },
    {
      "uri": "3060435073507076212054_LOD00_1.png"
    }
  ],
  "materials": [
    {
      "doubleSided": true,
      "pbrMetallicRoughness": {
        "baseColorTexture": {
          "index": 0
        },
        "metallicFactor": 0
      }
    },
    {
      "doubleSided": true,
      "pbrMetallicRoughness": {
        "baseColorTexture": {
          "index": 1
        },
        "metallicFactor": 0
      }
    }
  ],
  "meshes": [
    {
      "name": "3060435073507076212054_0",
      "primitives": [
        {
          "attributes": {
            "POSITION": 0,
            "NORMAL": 1,
            "TEXCOORD_0": 2
          },
          "indices": 3,
          "material": 0
        }
      ]
    },
    {
      "name": "3060435073507076212054_1",
      "primitives": [
        {
          "attributes": {
            "POSITION": 4,
            "NORMAL": 5,
            "TEXCOORD_0": 6
          },
          "indices": 7,
          "material": 1
        }
      ]
    }
  ],
  "nodes": [
    {
      "mesh": 0
    },
    {
      "mesh": 1
    }
  ],
  "scene": 0,
  "scenes": [
    {
      "nodes": [
        0,
        1
      ]
    }
  ],
  "textures": [
    {
      "source": 0
    },
    {
      "source": 1
    }
  ]
}