{
  "asset": {
    "copyright": "",
    "generator": "SharpGLTF 1.0.0",
    "version": "2.0"
  },
  "accessors": [
    {
      "name": "POSITION",
      "bufferView": 0,
      "componentType": 5126,
      "count": 355,
      "max": [
        -212.88902282714844,
        10.718040466308594,
        39.347030639648438
      ],
      "min": [
        -224.80873107910156,
        1.3304992914199829,
        29.733779907226563
      ],
      "type": "VEC3"
    },
    {
      "name": "NORMAL",
      "bufferView": 0,
      "byteOffset": 12,
      "componentType": 5126,
      "count": 355,
      "max": [
        0.7021939754486084,
        0.9999845027923584,
        0.81443452835083008
      ],
      "min": [
        -0.70777815580368042,
        -0.50701433420181274,
        -0.72357505559921265
      ],
      "type": "VEC3"
    },
    {
      "name": "TEXCOORD_0",
      "bufferView": 0,
      "byteOffset": 24,
      "componentType": 5126,
      "count": 355,
      "max": [
        0.9990234375,
        0.9990234375
      ],
      "min": [
        0.0009765625,
        0.0283203125
      ],
      "type": "VEC2"
    },
    {
      "bufferView": 1,
      "componentType": 5123,
      "count": 999,
      "type": "SCALAR"
    }
  ],
  "bufferViews": [
    {
      "buffer": 0,
      "byteLength": 11360,
      "byteStride": 32,
      "target": 34962
    },
    {
      "buffer": 0,
      "byteLength": 1998,
      "byteOffset": 11360,
      "target": 34963
    }
  ],
  "buffers": [
    {
      "byteLength": 13360,
      "uri": "3060435073507072455544_LOD00.bin"
    }
  ],
  "images": [
    {
      "uri": "3060435073507072455544_LOD00.png"
    }
  ],
  "materials": [
    {
      "doubleSided": true,
      "pbrMetallicRoughness": {
        "baseColorTexture": {
          "index": 0
        },
        "metallicFactor": 0
      }
    }
  ],
  "meshes": [
    {
      "name": "3060435073507072455544_0",
      "primitives": [
        {
          "attributes": {
            "POSITION": 0,
            "NORMAL": 1,
            "TEXCOORD_0": 2
          },
          "indices": 3,
          "material": 0
        }
      ]
    }
  ],
  "nodes": [
    {
      "mesh": 0
    }
  ],
  "scene": 0,
  "scenes": [
    {
      "nodes": [
        0
      ]
    }
  ],
  "textures": [
    {
      "source": 0
    }
  ]
}