{
  "asset": {
    "copyright": "",
    "generator": "SharpGLTF 1.0.0",
    "version": "2.0"
  },
  "accessors": [
    {
      "name": "POSITION",
      "bufferView": 0,
      "componentType": 5126,
      "count": 640,
      "max": [
        -59.238574981689453,
        10.625645637512207,
        96.421638488769531
      ],
      "min": [
        -71.205513000488281,
        9.4342355728149414,
        86.760818481445313
      ],
      "type": "VEC3"
    },
    {
      "name": "NORMAL",
      "bufferView": 0,
      "byteOffset": 12,
      "componentType": 5126,
      "count": 640,
      "max": [
        0.91911047697067261,
        0.99998444318771362,
        0.88048946857452393
      ],
      "min": [
        -0.62289273738861084,
        0.18286903202533722,
        -0.41235983371734619
      ],
      "type": "VEC3"
    },
    {
      "name": "TEXCOORD_0",
      "bufferView": 0,
      "byteOffset": 24,
      "componentType": 5126,
      "count": 640,
      "max": [
        0.998046875,
        0.998046875
      ],
      "min": [
        0.001953125,
        0.298828125
      ],
      "type": "VEC2"
    },
    {
      "bufferView": 1,
      "componentType": 5123,
      "count": 1905,
      "type": "SCALAR"
    }
  ],
  "bufferViews": [
    {
      "buffer": 0,
      "byteLength": 20480,
      "byteStride": 32,
      "target": 34962
    },
    {
      "buffer": 0,
      "byteLength": 3810,
      "byteOffset": 20480,
      "target": 34963
    }
  ],
  "buffers": [
    {
      "byteLength": 24292,
      "uri": "3060435073507072445775_LOD00.bin"
    }
  ],
  "images": [
    {
      "uri": "3060435073507072445775_LOD00.png"
    }
  ],
  "materials": [
    {
      "doubleSided": true,
      "pbrMetallicRoughness": {
        "baseColorTexture": {
          "index": 0
        },
        "metallicFactor": 0
      }
    }
  ],
  "meshes": [
    {
      "name": "3060435073507072445775_0",
      "primitives": [
        {
          "attributes": {
            "POSITION": 0,
            "NORMAL": 1,
            "TEXCOORD_0": 2
          },
          "indices": 3,
          "material": 0
        }
      ]
    }
  ],
  "nodes": [
    {
      "mesh": 0
    }
  ],
  "scene": 0,
  "scenes": [
    {
      "nodes": [
        0
      ]
    }
  ],
  "textures": [
    {
      "source": 0
    }
  ]
}