{
  "asset": {
    "copyright": "",
    "generator": "SharpGLTF 1.0.0",
    "version": "2.0"
  },
  "accessors": [
    {
      "name": "POSITION",
      "bufferView": 0,
      "componentType": 5126,
      "count": 330,
      "max": [
        -197.96971130371094,
        19.765148162841797,
        201.06997680664063
      ],
      "min": [
        -201.06900024414063,
        10.615847587585449,
        191.45683288574219
      ],
      "type": "VEC3"
    },
    {
      "name": "NORMAL",
      "bufferView": 0,
      "byteOffset": 12,
      "componentType": 5126,
      "count": 330,
      "max": [
        0.22833549976348877,
        0.99998462200164795,
        0.72185784578323364
      ],
      "min": [
        -0.99898511171340942,
        -0.74486076831817627,
        -0.99816733598709106
      ],
      "type": "VEC3"
    },
    {
      "name": "TEXCOORD_0",
      "bufferView": 0,
      "byteOffset": 24,
      "componentType": 5126,
      "count": 330,
      "max": [
        0.998046875,
        0.998046875
      ],
      "min": [
        0.001953125,
        0.603515625
      ],
      "type": "VEC2"
    },
    {
      "bufferView": 1,
      "componentType": 5123,
      "count": 1014,
      "type": "SCALAR"
    }
  ],
  "bufferViews": [
    {
      "buffer": 0,
      "byteLength": 10560,
      "byteStride": 32,
      "target": 34962
    },
    {
      "buffer": 0,
      "byteLength": 2028,
      "byteOffset": 10560,
      "target": 34963
    }
  ],
  "buffers": [
    {
      "byteLength": 12588,
      "uri": "3060435073507076031012_LOD00.bin"
    }
  ],
  "images": [
    {
      "uri": "3060435073507076031012_LOD00.png"
    }
  ],
  "materials": [
    {
      "doubleSided": true,
      "pbrMetallicRoughness": {
        "baseColorTexture": {
          "index": 0
        },
        "metallicFactor": 0
      }
    }
  ],
  "meshes": [
    {
      "name": "3060435073507076031012_0",
      "primitives": [
        {
          "attributes": {
            "POSITION": 0,
            "NORMAL": 1,
            "TEXCOORD_0": 2
          },
          "indices": 3,
          "material": 0
        }
      ]
    }
  ],
  "nodes": [
    {
      "mesh": 0
    }
  ],
  "scene": 0,
  "scenes": [
    {
      "nodes": [
        0
      ]
    }
  ],
  "textures": [
    {
      "source": 0
    }
  ]
}