{
  "asset": {
    "copyright": "",
    "generator": "SharpGLTF 1.0.0",
    "version": "2.0"
  },
  "accessors": [
    {
      "name": "POSITION",
      "bufferView": 0,
      "componentType": 5126,
      "count": 351,
      "max": [
        -23.685436248779297,
        19.766462326049805,
        245.39569091796875
      ],
      "min": [
        -35.699729919433594,
        10.474154472351074,
        238.9710693359375
      ],
      "type": "VEC3"
    },
    {
      "name": "NORMAL",
      "bufferView": 0,
      "byteOffset": 12,
      "componentType": 5126,
      "count": 351,
      "max": [
        0.99117153882980347,
        0.99595034122467041,
        0.99634456634521484
      ],
      "min": [
        -0.95976191759109497,
        -0.23870870471000671,
        -0.99898439645767212
      ],
      "type": "VEC3"
    },
    {
      "name": "TEXCOORD_0",
      "bufferView": 0,
      "byteOffset": 24,
      "componentType": 5126,
      "count": 351,
      "max": [
        0.998046875,
        0.998046875
      ],
      "min": [
        0.001953125,
        0.693359375
      ],
      "type": "VEC2"
    },
    {
      "bufferView": 1,
      "componentType": 5123,
      "count": 1023,
      "type": "SCALAR"
    }
  ],
  "bufferViews": [
    {
      "buffer": 0,
      "byteLength": 11232,
      "byteStride": 32,
      "target": 34962
    },
    {
      "buffer": 0,
      "byteLength": 2046,
      "byteOffset": 11232,
      "target": 34963
    }
  ],
  "buffers": [
    {
      "byteLength": 13280,
      "uri": "3060435073507076021320_LOD00.bin"
    }
  ],
  "images": [
    {
      "uri": "3060435073507076021320_LOD00.png"
    }
  ],
  "materials": [
    {
      "doubleSided": true,
      "pbrMetallicRoughness": {
        "baseColorTexture": {
          "index": 0
        },
        "metallicFactor": 0
      }
    }
  ],
  "meshes": [
    {
      "name": "3060435073507076021320_0",
      "primitives": [
        {
          "attributes": {
            "POSITION": 0,
            "NORMAL": 1,
            "TEXCOORD_0": 2
          },
          "indices": 3,
          "material": 0
        }
      ]
    }
  ],
  "nodes": [
    {
      "mesh": 0
    }
  ],
  "scene": 0,
  "scenes": [
    {
      "nodes": [
        0
      ]
    }
  ],
  "textures": [
    {
      "source": 0
    }
  ]
}