{
  "asset": {
    "copyright": "",
    "generator": "SharpGLTF 1.0.0",
    "version": "2.0"
  },
  "accessors": [
    {
      "name": "POSITION",
      "bufferView": 0,
      "componentType": 5126,
      "count": 566,
      "max": [
        -260.06759643554688,
        12.378799438476563,
        106.03612518310547
      ],
      "min": [
        -271.84393310546875,
        10.472548484802246,
        96.422874450683594
      ],
      "type": "VEC3"
    },
    {
      "name": "NORMAL",
      "bufferView": 0,
      "byteOffset": 12,
      "componentType": 5126,
      "count": 566,
      "max": [
        0.99466174840927124,
        0.99778157472610474,
        0.9582982063293457
      ],
      "min": [
        -0.99999213218688965,
        -0.84535121917724609,
        -0.99525582790374756
      ],
      "type": "VEC3"
    },
    {
      "name": "TEXCOORD_0",
      "bufferView": 0,
      "byteOffset": 24,
      "componentType": 5126,
      "count": 566,
      "max": [
        0.998046875,
        0.998046875
      ],
      "min": [
        0.001953125,
        0.501953125
      ],
      "type": "VEC2"
    },
    {
      "bufferView": 1,
      "componentType": 5123,
      "count": 1467,
      "type": "SCALAR"
    }
  ],
  "bufferViews": [
    {
      "buffer": 0,
      "byteLength": 18112,
      "byteStride": 32,
      "target": 34962
    },
    {
      "buffer": 0,
      "byteLength": 2934,
      "byteOffset": 18112,
      "target": 34963
    }
  ],
  "buffers": [
    {
      "byteLength": 21048,
      "uri": "3060435073507076100222_LOD00.bin"
    }
  ],
  "images": [
    {
      "uri": "3060435073507076100222_LOD00.png"
    }
  ],
  "materials": [
    {
      "doubleSided": true,
      "pbrMetallicRoughness": {
        "baseColorTexture": {
          "index": 0
        },
        "metallicFactor": 0
      }
    }
  ],
  "meshes": [
    {
      "name": "3060435073507076100222_0",
      "primitives": [
        {
          "attributes": {
            "POSITION": 0,
            "NORMAL": 1,
            "TEXCOORD_0": 2
          },
          "indices": 3,
          "material": 0
        }
      ]
    }
  ],
  "nodes": [
    {
      "mesh": 0
    }
  ],
  "scene": 0,
  "scenes": [
    {
      "nodes": [
        0
      ]
    }
  ],
  "textures": [
    {
      "source": 0
    }
  ]
}