{
  "asset": {
    "copyright": "",
    "generator": "SharpGLTF 1.0.0",
    "version": "2.0"
  },
  "accessors": [
    {
      "name": "POSITION",
      "bufferView": 0,
      "componentType": 5126,
      "count": 154,
      "max": [
        -186.00071716308594,
        10.612105369567871,
        400.84548950195313
      ],
      "min": [
        -189.24253845214844,
        9.5160083770751953,
        391.3275146484375
      ],
      "type": "VEC3"
    },
    {
      "name": "NORMAL",
      "bufferView": 0,
      "byteOffset": 12,
      "componentType": 5126,
      "count": 154,
      "max": [
        -0.15673962235450745,
        0.97518348693847656,
        0.41244617104530334
      ],
      "min": [
        -0.6625562310218811,
        0.72410750389099121,
        -0.37501758337020874
      ],
      "type": "VEC3"
    },
    {
      "name": "TEXCOORD_0",
      "bufferView": 0,
      "byteOffset": 24,
      "componentType": 5126,
      "count": 154,
      "max": [
        0.806640625,
        0.998046875
      ],
      "min": [
        0.001953125,
        0.650390625
      ],
      "type": "VEC2"
    },
    {
      "bufferView": 1,
      "componentType": 5123,
      "count": 468,
      "type": "SCALAR"
    }
  ],
  "bufferViews": [
    {
      "buffer": 0,
      "byteLength": 4928,
      "byteStride": 32,
      "target": 34962
    },
    {
      "buffer": 0,
      "byteLength": 936,
      "byteOffset": 4928,
      "target": 34963
    }
  ],
  "buffers": [
    {
      "byteLength": 5864,
      "uri": "3060435073507072655665_LOD00.bin"
    }
  ],
  "images": [
    {
      "uri": "3060435073507072655665_LOD00.png"
    }
  ],
  "materials": [
    {
      "doubleSided": true,
      "pbrMetallicRoughness": {
        "baseColorTexture": {
          "index": 0
        },
        "metallicFactor": 0
      }
    }
  ],
  "meshes": [
    {
      "name": "3060435073507072655665_0",
      "primitives": [
        {
          "attributes": {
            "POSITION": 0,
            "NORMAL": 1,
            "TEXCOORD_0": 2
          },
          "indices": 3,
          "material": 0
        }
      ]
    }
  ],
  "nodes": [
    {
      "mesh": 0
    }
  ],
  "scene": 0,
  "scenes": [
    {
      "nodes": [
        0
      ]
    }
  ],
  "textures": [
    {
      "source": 0
    }
  ]
}