{
  "asset": {
    "copyright": "",
    "generator": "SharpGLTF 1.0.0",
    "version": "2.0"
  },
  "accessors": [
    {
      "name": "POSITION",
      "bufferView": 0,
      "componentType": 5126,
      "count": 375,
      "max": [
        -77.682441711425781,
        38.101295471191406,
        277.17288208007813
      ],
      "min": [
        -82.879203796386719,
        28.904205322265625,
        269.74853515625
      ],
      "type": "VEC3"
    },
    {
      "name": "NORMAL",
      "bufferView": 0,
      "byteOffset": 12,
      "componentType": 5126,
      "count": 375,
      "max": [
        0.99931800365447998,
        0.52146309614181519,
        0.73336684703826904
      ],
      "min": [
        -0.35537141561508179,
        -0.38954702019691467,
        -0.99798446893692017
      ],
      "type": "VEC3"
    },
    {
      "name": "TEXCOORD_0",
      "bufferView": 0,
      "byteOffset": 24,
      "componentType": 5126,
      "count": 375,
      "max": [
        0.990234375,
        0.998046875
      ],
      "min": [
        0.001953125,
        0.044921875
      ],
      "type": "VEC2"
    },
    {
      "bufferView": 1,
      "componentType": 5123,
      "count": 1191,
      "type": "SCALAR"
    }
  ],
  "bufferViews": [
    {
      "buffer": 0,
      "byteLength": 12000,
      "byteStride": 32,
      "target": 34962
    },
    {
      "buffer": 0,
      "byteLength": 2382,
      "byteOffset": 12000,
      "target": 34963
    }
  ],
  "buffers": [
    {
      "byteLength": 14384,
      "uri": "3060435073507076032042_LOD00.bin"
    }
  ],
  "images": [
    {
      "uri": "3060435073507076032042_LOD00.png"
    }
  ],
  "materials": [
    {
      "doubleSided": true,
      "pbrMetallicRoughness": {
        "baseColorTexture": {
          "index": 0
        },
        "metallicFactor": 0
      }
    }
  ],
  "meshes": [
    {
      "name": "3060435073507076032042_0",
      "primitives": [
        {
          "attributes": {
            "POSITION": 0,
            "NORMAL": 1,
            "TEXCOORD_0": 2
          },
          "indices": 3,
          "material": 0
        }
      ]
    }
  ],
  "nodes": [
    {
      "mesh": 0
    }
  ],
  "scene": 0,
  "scenes": [
    {
      "nodes": [
        0
      ]
    }
  ],
  "textures": [
    {
      "source": 0
    }
  ]
}