{
  "asset": {
    "copyright": "",
    "generator": "SharpGLTF 1.0.0",
    "version": "2.0"
  },
  "accessors": [
    {
      "name": "POSITION",
      "bufferView": 0,
      "componentType": 5126,
      "count": 96,
      "max": [
        -183.82119750976563,
        20.859457015991211,
        20.319257736206055
      ],
      "min": [
        -187.15861511230469,
        19.6204833984375,
        17.178306579589844
      ],
      "type": "VEC3"
    },
    {
      "name": "NORMAL",
      "bufferView": 0,
      "byteOffset": 12,
      "componentType": 5126,
      "count": 96,
      "max": [
        0.987548828125,
        0.97306138277053833,
        0.70663374662399292
      ],
      "min": [
        -0.91104954481124878,
        -0.20395490527153015,
        -0.88049209117889404
      ],
      "type": "VEC3"
    },
    {
      "name": "TEXCOORD_0",
      "bufferView": 0,
      "byteOffset": 24,
      "componentType": 5126,
      "count": 96,
      "max": [
        0.728515625,
        0.998046875
      ],
      "min": [
        0.001953125,
        0.779296875
      ],
      "type": "VEC2"
    },
    {
      "bufferView": 1,
      "componentType": 5123,
      "count": 270,
      "type": "SCALAR"
    }
  ],
  "bufferViews": [
    {
      "buffer": 0,
      "byteLength": 3072,
      "byteStride": 32,
      "target": 34962
    },
    {
      "buffer": 0,
      "byteLength": 540,
      "byteOffset": 3072,
      "target": 34963
    }
  ],
  "buffers": [
    {
      "byteLength": 3612,
      "uri": "3060435073507074233225_LOD00.bin"
    }
  ],
  "images": [
    {
      "uri": "3060435073507074233225_LOD00.png"
    }
  ],
  "materials": [
    {
      "doubleSided": true,
      "pbrMetallicRoughness": {
        "baseColorTexture": {
          "index": 0
        },
        "metallicFactor": 0
      }
    }
  ],
  "meshes": [
    {
      "name": "3060435073507074233225_0",
      "primitives": [
        {
          "attributes": {
            "POSITION": 0,
            "NORMAL": 1,
            "TEXCOORD_0": 2
          },
          "indices": 3,
          "material": 0
        }
      ]
    }
  ],
  "nodes": [
    {
      "mesh": 0
    }
  ],
  "scene": 0,
  "scenes": [
    {
      "nodes": [
        0
      ]
    }
  ],
  "textures": [
    {
      "source": 0
    }
  ]
}