{
  "asset": {
    "copyright": "",
    "generator": "SharpGLTF 1.0.0",
    "version": "2.0"
  },
  "accessors": [
    {
      "name": "POSITION",
      "bufferView": 0,
      "componentType": 5126,
      "count": 278,
      "max": [
        -0.14320167899131775,
        10.338973999023438,
        153.50015258789063
      ],
      "min": [
        -12.014621734619141,
        9.4333906173706055,
        143.98222351074219
      ],
      "type": "VEC3"
    },
    {
      "name": "NORMAL",
      "bufferView": 0,
      "byteOffset": 12,
      "componentType": 5126,
      "count": 278,
      "max": [
        0.37256956100463867,
        0.99998456239700317,
        0.18922626972198486
      ],
      "min": [
        -0.36187034845352173,
        0.89341676235198975,
        -0.31735312938690186
      ],
      "type": "VEC3"
    },
    {
      "name": "TEXCOORD_0",
      "bufferView": 0,
      "byteOffset": 24,
      "componentType": 5126,
      "count": 278,
      "max": [
        0.998046875,
        0.998046875
      ],
      "min": [
        0.001953125,
        0.009765625
      ],
      "type": "VEC2"
    },
    {
      "bufferView": 1,
      "componentType": 5123,
      "count": 837,
      "type": "SCALAR"
    }
  ],
  "bufferViews": [
    {
      "buffer": 0,
      "byteLength": 8896,
      "byteStride": 32,
      "target": 34962
    },
    {
      "buffer": 0,
      "byteLength": 1674,
      "byteOffset": 8896,
      "target": 34963
    }
  ],
  "buffers": [
    {
      "byteLength": 10572,
      "uri": "3060435073507072447654_LOD00.bin"
    }
  ],
  "images": [
    {
      "uri": "3060435073507072447654_LOD00.png"
    }
  ],
  "materials": [
    {
      "doubleSided": true,
      "pbrMetallicRoughness": {
        "baseColorTexture": {
          "index": 0
        },
        "metallicFactor": 0
      }
    }
  ],
  "meshes": [
    {
      "name": "3060435073507072447654_0",
      "primitives": [
        {
          "attributes": {
            "POSITION": 0,
            "NORMAL": 1,
            "TEXCOORD_0": 2
          },
          "indices": 3,
          "material": 0
        }
      ]
    }
  ],
  "nodes": [
    {
      "mesh": 0
    }
  ],
  "scene": 0,
  "scenes": [
    {
      "nodes": [
        0
      ]
    }
  ],
  "textures": [
    {
      "source": 0
    }
  ]
}