{
  "asset": {
    "copyright": "",
    "generator": "SharpGLTF 1.0.0",
    "version": "2.0"
  },
  "accessors": [
    {
      "name": "POSITION",
      "bufferView": 0,
      "componentType": 5126,
      "count": 254,
      "max": [
        -11.961795806884766,
        10.610909461975098,
        458.06387329101563
      ],
      "min": [
        -23.927841186523438,
        9.2283086776733398,
        448.260498046875
      ],
      "type": "VEC3"
    },
    {
      "name": "NORMAL",
      "bufferView": 0,
      "byteOffset": 12,
      "componentType": 5126,
      "count": 254,
      "max": [
        0.94346451759338379,
        0.99998468160629272,
        0.98245459794998169
      ],
      "min": [
        -0.97086185216903687,
        -0.88951009511947632,
        -0.39675599336624146
      ],
      "type": "VEC3"
    },
    {
      "name": "TEXCOORD_0",
      "bufferView": 0,
      "byteOffset": 24,
      "componentType": 5126,
      "count": 254,
      "max": [
        0.998046875,
        0.998046875
      ],
      "min": [
        0.001953125,
        0.044921875
      ],
      "type": "VEC2"
    },
    {
      "bufferView": 1,
      "componentType": 5123,
      "count": 687,
      "type": "SCALAR"
    }
  ],
  "bufferViews": [
    {
      "buffer": 0,
      "byteLength": 8128,
      "byteStride": 32,
      "target": 34962
    },
    {
      "buffer": 0,
      "byteLength": 1374,
      "byteOffset": 8128,
      "target": 34963
    }
  ],
  "buffers": [
    {
      "byteLength": 9504,
      "uri": "3060435073507072647655_LOD00.bin"
    }
  ],
  "images": [
    {
      "uri": "3060435073507072647655_LOD00.png"
    }
  ],
  "materials": [
    {
      "doubleSided": true,
      "pbrMetallicRoughness": {
        "baseColorTexture": {
          "index": 0
        },
        "metallicFactor": 0
      }
    }
  ],
  "meshes": [
    {
      "name": "3060435073507072647655_0",
      "primitives": [
        {
          "attributes": {
            "POSITION": 0,
            "NORMAL": 1,
            "TEXCOORD_0": 2
          },
          "indices": 3,
          "material": 0
        }
      ]
    }
  ],
  "nodes": [
    {
      "mesh": 0
    }
  ],
  "scene": 0,
  "scenes": [
    {
      "nodes": [
        0
      ]
    }
  ],
  "textures": [
    {
      "source": 0
    }
  ]
}