{
  "asset": {
    "copyright": "",
    "generator": "SharpGLTF 1.0.0",
    "version": "2.0"
  },
  "accessors": [
    {
      "name": "POSITION",
      "bufferView": 0,
      "componentType": 5126,
      "count": 1346,
      "max": [
        -260.15786743164063,
        19.905336380004883,
        201.2154541015625
      ],
      "min": [
        -272.07736206054688,
        10.517868041992188,
        191.50743103027344
      ],
      "type": "VEC3"
    },
    {
      "name": "NORMAL",
      "bufferView": 0,
      "byteOffset": 12,
      "componentType": 5126,
      "count": 1346,
      "max": [
        0.9967387318611145,
        0.99896955490112305,
        0.98826014995574951
      ],
      "min": [
        -0.9701230525970459,
        -0.99917137622833252,
        -0.99482786655426025
      ],
      "type": "VEC3"
    },
    {
      "name": "TEXCOORD_0",
      "bufferView": 0,
      "byteOffset": 24,
      "componentType": 5126,
      "count": 1346,
      "max": [
        0.998046875,
        0.9990234375
      ],
      "min": [
        0.001953125,
        0.0029296875
      ],
      "type": "VEC2"
    },
    {
      "bufferView": 1,
      "componentType": 5123,
      "count": 3447,
      "type": "SCALAR"
    },
    {
      "name": "POSITION",
      "bufferView": 0,
      "byteOffset": 43072,
      "componentType": 5126,
      "count": 43,
      "max": [
        -265.02093505859375,
        19.762472152709961,
        201.07281494140625
      ],
      "min": [
        -271.98178100585938,
        10.613319396972656,
        192.36402893066406
      ],
      "type": "VEC3"
    },
    {
      "name": "NORMAL",
      "bufferView": 0,
      "byteOffset": 43084,
      "componentType": 5126,
      "count": 43,
      "max": [
        0.96386313438415527,
        0.97086495161056519,
        0.60853332281112671
      ],
      "min": [
        -0.9944118857383728,
        -0.34196135401725769,
        -0.99525463581085205
      ],
      "type": "VEC3"
    },
    {
      "name": "TEXCOORD_0",
      "bufferView": 0,
      "byteOffset": 43096,
      "componentType": 5126,
      "count": 43,
      "max": [
        0.486328125,
        0.998046875
      ],
      "min": [
        0.001953125,
        0.888671875
      ],
      "type": "VEC2"
    },
    {
      "bufferView": 1,
      "byteOffset": 6894,
      "componentType": 5123,
      "count": 108,
      "type": "SCALAR"
    }
  ],
  "bufferViews": [
    {
      "buffer": 0,
      "byteLength": 44448,
      "byteStride": 32,
      "target": 34962
    },
    {
      "buffer": 0,
      "byteLength": 7110,
      "byteOffset": 44448,
      "target": 34963
    }
  ],
  "buffers": [
    {
      "byteLength": 51560,
      "uri": "3060435073507076120002_LOD00.bin"
    }
  ],
  "images": [
    {
      "uri": "3060435073507076120002_LOD00_0.png"
    },
    {
      "uri": "3060435073507076120002_LOD00_1.png"
    }
  ],
  "materials": [
    {
      "doubleSided": true,
      "pbrMetallicRoughness": {
        "baseColorTexture": {
          "index": 0
        },
        "metallicFactor": 0
      }
    },
    {
      "doubleSided": true,
      "pbrMetallicRoughness": {
        "baseColorTexture": {
          "index": 1
        },
        "metallicFactor": 0
      }
    }
  ],
  "meshes": [
    {
      "name": "3060435073507076120002_0",
      "primitives": [
        {
          "attributes": {
            "POSITION": 0,
            "NORMAL": 1,
            "TEXCOORD_0": 2
          },
          "indices": 3,
          "material": 0
        }
      ]
    },
    {
      "name": "3060435073507076120002_1",
      "primitives": [
        {
          "attributes": {
            "POSITION": 4,
            "NORMAL": 5,
            "TEXCOORD_0": 6
          },
          "indices": 7,
          "material": 1
        }
      ]
    }
  ],
  "nodes": [
    {
      "mesh": 0
    },
    {
      "mesh": 1
    }
  ],
  "scene": 0,
  "scenes": [
    {
      "nodes": [
        0,
        1
      ]
    }
  ],
  "textures": [
    {
      "source": 0
    },
    {
      "source": 1
    }
  ]
}