{
  "asset": {
    "copyright": "",
    "generator": "SharpGLTF 1.0.0",
    "version": "2.0"
  },
  "accessors": [
    {
      "name": "POSITION",
      "bufferView": 0,
      "componentType": 5126,
      "count": 535,
      "max": [
        -236.41526794433594,
        10.656649589538574,
        410.45590209960938
      ],
      "min": [
        -248.33401489257813,
        8.8933725357055664,
        400.70025634765625
      ],
      "type": "VEC3"
    },
    {
      "name": "NORMAL",
      "bufferView": 0,
      "byteOffset": 12,
      "componentType": 5126,
      "count": 535,
      "max": [
        0.98738276958465576,
        0.99998456239700317,
        0.88777375221252441
      ],
      "min": [
        -0.98830157518386841,
        -0.89589345455169678,
        -0.70383429527282715
      ],
      "type": "VEC3"
    },
    {
      "name": "TEXCOORD_0",
      "bufferView": 0,
      "byteOffset": 24,
      "componentType": 5126,
      "count": 535,
      "max": [
        0.998046875,
        0.998046875
      ],
      "min": [
        0.001953125,
        0.060546875
      ],
      "type": "VEC2"
    },
    {
      "bufferView": 1,
      "componentType": 5123,
      "count": 1389,
      "type": "SCALAR"
    }
  ],
  "bufferViews": [
    {
      "buffer": 0,
      "byteLength": 17120,
      "byteStride": 32,
      "target": 34962
    },
    {
      "buffer": 0,
      "byteLength": 2778,
      "byteOffset": 17120,
      "target": 34963
    }
  ],
  "buffers": [
    {
      "byteLength": 19900,
      "uri": "3060435073507072655776_LOD00.bin"
    }
  ],
  "images": [
    {
      "uri": "3060435073507072655776_LOD00.png"
    }
  ],
  "materials": [
    {
      "doubleSided": true,
      "pbrMetallicRoughness": {
        "baseColorTexture": {
          "index": 0
        },
        "metallicFactor": 0
      }
    }
  ],
  "meshes": [
    {
      "name": "3060435073507072655776_0",
      "primitives": [
        {
          "attributes": {
            "POSITION": 0,
            "NORMAL": 1,
            "TEXCOORD_0": 2
          },
          "indices": 3,
          "material": 0
        }
      ]
    }
  ],
  "nodes": [
    {
      "mesh": 0
    }
  ],
  "scene": 0,
  "scenes": [
    {
      "nodes": [
        0
      ]
    }
  ],
  "textures": [
    {
      "source": 0
    }
  ]
}