{
  "asset": {
    "copyright": "",
    "generator": "SharpGLTF 1.0.0",
    "version": "2.0"
  },
  "accessors": [
    {
      "name": "POSITION",
      "bufferView": 0,
      "componentType": 5126,
      "count": 126,
      "max": [
        -209.792724609375,
        1.4783329963684082,
        83.295318603515625
      ],
      "min": [
        -212.89179992675781,
        -7.6710290908813477,
        77.394073486328125
      ],
      "type": "VEC3"
    },
    {
      "name": "NORMAL",
      "bufferView": 0,
      "byteOffset": 12,
      "componentType": 5126,
      "count": 126,
      "max": [
        0.98980319499969482,
        0.049390155822038651,
        0.98972910642623901
      ],
      "min": [
        -0.14288520812988281,
        -0.0054749143309891224,
        0.14237223565578461
      ],
      "type": "VEC3"
    },
    {
      "name": "TEXCOORD_0",
      "bufferView": 0,
      "byteOffset": 24,
      "componentType": 5126,
      "count": 126,
      "max": [
        0.994140625,
        0.998046875
      ],
      "min": [
        0.001953125,
        0.423828125
      ],
      "type": "VEC2"
    },
    {
      "bufferView": 1,
      "componentType": 5123,
      "count": 384,
      "type": "SCALAR"
    }
  ],
  "bufferViews": [
    {
      "buffer": 0,
      "byteLength": 4032,
      "byteStride": 32,
      "target": 34962
    },
    {
      "buffer": 0,
      "byteLength": 768,
      "byteOffset": 4032,
      "target": 34963
    }
  ],
  "buffers": [
    {
      "byteLength": 4800,
      "uri": "3060435073507072455653_LOD00.bin"
    }
  ],
  "images": [
    {
      "uri": "3060435073507072455653_LOD00.png"
    }
  ],
  "materials": [
    {
      "doubleSided": true,
      "pbrMetallicRoughness": {
        "baseColorTexture": {
          "index": 0
        },
        "metallicFactor": 0
      }
    }
  ],
  "meshes": [
    {
      "name": "3060435073507072455653_0",
      "primitives": [
        {
          "attributes": {
            "POSITION": 0,
            "NORMAL": 1,
            "TEXCOORD_0": 2
          },
          "indices": 3,
          "material": 0
        }
      ]
    }
  ],
  "nodes": [
    {
      "mesh": 0
    }
  ],
  "scene": 0,
  "scenes": [
    {
      "nodes": [
        0
      ]
    }
  ],
  "textures": [
    {
      "source": 0
    }
  ]
}