{
  "asset": {
    "copyright": "",
    "generator": "SharpGLTF 1.0.0",
    "version": "2.0"
  },
  "accessors": [
    {
      "name": "POSITION",
      "bufferView": 0,
      "componentType": 5126,
      "count": 181,
      "max": [
        -213.69790649414063,
        11.618335723876953,
        85.056488037109375
      ],
      "min": [
        -224.32980346679688,
        10.617404937744141,
        79.821502685546875
      ],
      "type": "VEC3"
    },
    {
      "name": "NORMAL",
      "bufferView": 0,
      "byteOffset": 12,
      "componentType": 5126,
      "count": 181,
      "max": [
        0.92745643854141235,
        0.94575393199920654,
        0.78355038166046143
      ],
      "min": [
        -0.94033676385879517,
        0.046704307198524475,
        -0.88985443115234375
      ],
      "type": "VEC3"
    },
    {
      "name": "TEXCOORD_0",
      "bufferView": 0,
      "byteOffset": 24,
      "componentType": 5126,
      "count": 181,
      "max": [
        0.986328125,
        0.998046875
      ],
      "min": [
        0.001953125,
        0.638671875
      ],
      "type": "VEC2"
    },
    {
      "bufferView": 1,
      "componentType": 5123,
      "count": 531,
      "type": "SCALAR"
    }
  ],
  "bufferViews": [
    {
      "buffer": 0,
      "byteLength": 5792,
      "byteStride": 32,
      "target": 34962
    },
    {
      "buffer": 0,
      "byteLength": 1062,
      "byteOffset": 5792,
      "target": 34963
    }
  ],
  "buffers": [
    {
      "byteLength": 6856,
      "uri": "3060435073507076011302_LOD00.bin"
    }
  ],
  "images": [
    {
      "uri": "3060435073507076011302_LOD00.png"
    }
  ],
  "materials": [
    {
      "doubleSided": true,
      "pbrMetallicRoughness": {
        "baseColorTexture": {
          "index": 0
        },
        "metallicFactor": 0
      }
    }
  ],
  "meshes": [
    {
      "name": "3060435073507076011302_0",
      "primitives": [
        {
          "attributes": {
            "POSITION": 0,
            "NORMAL": 1,
            "TEXCOORD_0": 2
          },
          "indices": 3,
          "material": 0
        }
      ]
    }
  ],
  "nodes": [
    {
      "mesh": 0
    }
  ],
  "scene": 0,
  "scenes": [
    {
      "nodes": [
        0
      ]
    }
  ],
  "textures": [
    {
      "source": 0
    }
  ]
}