{
  "asset": {
    "copyright": "",
    "generator": "SharpGLTF 1.0.0",
    "version": "2.0"
  },
  "accessors": [
    {
      "name": "POSITION",
      "bufferView": 0,
      "componentType": 5126,
      "count": 93,
      "max": [
        -189.24263000488281,
        9.9043340682983398,
        258.14862060546875
      ],
      "min": [
        -201.06648254394531,
        9.6176958084106445,
        248.63026428222656
      ],
      "type": "VEC3"
    },
    {
      "name": "NORMAL",
      "bufferView": 0,
      "byteOffset": 12,
      "componentType": 5126,
      "count": 93,
      "max": [
        0.0039250105619430542,
        0.99998438358306885,
        0.0039861621335148811
      ],
      "min": [
        -0.0039838734082877636,
        0.99998414516448975,
        0.0039858655072748661
      ],
      "type": "VEC3"
    },
    {
      "name": "TEXCOORD_0",
      "bufferView": 0,
      "byteOffset": 24,
      "componentType": 5126,
      "count": 93,
      "max": [
        0.990234375,
        0.998046875
      ],
      "min": [
        0.001953125,
        0.099609375
      ],
      "type": "VEC2"
    },
    {
      "bufferView": 1,
      "componentType": 5123,
      "count": 279,
      "type": "SCALAR"
    }
  ],
  "bufferViews": [
    {
      "buffer": 0,
      "byteLength": 2976,
      "byteStride": 32,
      "target": 34962
    },
    {
      "buffer": 0,
      "byteLength": 558,
      "byteOffset": 2976,
      "target": 34963
    }
  ],
  "buffers": [
    {
      "byteLength": 3536,
      "uri": "3060435073507072475676_LOD00.bin"
    }
  ],
  "images": [
    {
      "uri": "3060435073507072475676_LOD00.png"
    }
  ],
  "materials": [
    {
      "doubleSided": true,
      "pbrMetallicRoughness": {
        "baseColorTexture": {
          "index": 0
        },
        "metallicFactor": 0
      }
    }
  ],
  "meshes": [
    {
      "name": "3060435073507072475676_0",
      "primitives": [
        {
          "attributes": {
            "POSITION": 0,
            "NORMAL": 1,
            "TEXCOORD_0": 2
          },
          "indices": 3,
          "material": 0
        }
      ]
    }
  ],
  "nodes": [
    {
      "mesh": 0
    }
  ],
  "scene": 0,
  "scenes": [
    {
      "nodes": [
        0
      ]
    }
  ],
  "textures": [
    {
      "source": 0
    }
  ]
}