{
  "asset": {
    "copyright": "",
    "generator": "SharpGLTF 1.0.0",
    "version": "2.0"
  },
  "accessors": [
    {
      "name": "POSITION",
      "bufferView": 0,
      "componentType": 5126,
      "count": 121,
      "max": [
        -118.28144073486328,
        10.331941604614258,
        315.22528076171875
      ],
      "min": [
        -130.15269470214844,
        9.521845817565918,
        305.70709228515625
      ],
      "type": "VEC3"
    },
    {
      "name": "NORMAL",
      "bufferView": 0,
      "byteOffset": 12,
      "componentType": 5126,
      "count": 121,
      "max": [
        0.051442638039588928,
        0.99998468160629272,
        0.093569383025169373
      ],
      "min": [
        -0.049091104418039322,
        0.98671966791152954,
        -0.15407153964042664
      ],
      "type": "VEC3"
    },
    {
      "name": "TEXCOORD_0",
      "bufferView": 0,
      "byteOffset": 24,
      "componentType": 5126,
      "count": 121,
      "max": [
        0.998046875,
        0.998046875
      ],
      "min": [
        0.001953125,
        0.185546875
      ],
      "type": "VEC2"
    },
    {
      "bufferView": 1,
      "componentType": 5123,
      "count": 399,
      "type": "SCALAR"
    }
  ],
  "bufferViews": [
    {
      "buffer": 0,
      "byteLength": 3872,
      "byteStride": 32,
      "target": 34962
    },
    {
      "buffer": 0,
      "byteLength": 798,
      "byteOffset": 3872,
      "target": 34963
    }
  ],
  "buffers": [
    {
      "byteLength": 4672,
      "uri": "3060435073507072476746_LOD00.bin"
    }
  ],
  "images": [
    {
      "uri": "3060435073507072476746_LOD00.png"
    }
  ],
  "materials": [
    {
      "doubleSided": true,
      "pbrMetallicRoughness": {
        "baseColorTexture": {
          "index": 0
        },
        "metallicFactor": 0
      }
    }
  ],
  "meshes": [
    {
      "name": "3060435073507072476746_0",
      "primitives": [
        {
          "attributes": {
            "POSITION": 0,
            "NORMAL": 1,
            "TEXCOORD_0": 2
          },
          "indices": 3,
          "material": 0
        }
      ]
    }
  ],
  "nodes": [
    {
      "mesh": 0
    }
  ],
  "scene": 0,
  "scenes": [
    {
      "nodes": [
        0
      ]
    }
  ],
  "textures": [
    {
      "source": 0
    }
  ]
}