{
  "asset": {
    "copyright": "",
    "generator": "SharpGLTF 1.0.0",
    "version": "2.0"
  },
  "accessors": [
    {
      "name": "POSITION",
      "bufferView": 0,
      "componentType": 5126,
      "count": 141,
      "max": [
        -199.82919311523438,
        10.620871543884277,
        191.55653381347656
      ],
      "min": [
        -201.11659240722656,
        9.810643196105957,
        185.56027221679688
      ],
      "type": "VEC3"
    },
    {
      "name": "NORMAL",
      "bufferView": 0,
      "byteOffset": 12,
      "componentType": 5126,
      "count": 141,
      "max": [
        0.27601912617683411,
        0.98900943994522095,
        0.70102137327194214
      ],
      "min": [
        -0.99798941612243652,
        -0.16736771166324615,
        -0.99087643623352051
      ],
      "type": "VEC3"
    },
    {
      "name": "TEXCOORD_0",
      "bufferView": 0,
      "byteOffset": 24,
      "componentType": 5126,
      "count": 141,
      "max": [
        0.541015625,
        0.998046875
      ],
      "min": [
        0.037109375,
        0.705078125
      ],
      "type": "VEC2"
    },
    {
      "bufferView": 1,
      "componentType": 5123,
      "count": 375,
      "type": "SCALAR"
    }
  ],
  "bufferViews": [
    {
      "buffer": 0,
      "byteLength": 4512,
      "byteStride": 32,
      "target": 34962
    },
    {
      "buffer": 0,
      "byteLength": 750,
      "byteOffset": 4512,
      "target": 34963
    }
  ],
  "buffers": [
    {
      "byteLength": 5264,
      "uri": "3060435073507072475454_LOD00.bin"
    }
  ],
  "images": [
    {
      "uri": "3060435073507072475454_LOD00.png"
    }
  ],
  "materials": [
    {
      "doubleSided": true,
      "pbrMetallicRoughness": {
        "baseColorTexture": {
          "index": 0
        },
        "metallicFactor": 0
      }
    }
  ],
  "meshes": [
    {
      "name": "3060435073507072475454_0",
      "primitives": [
        {
          "attributes": {
            "POSITION": 0,
            "NORMAL": 1,
            "TEXCOORD_0": 2
          },
          "indices": 3,
          "material": 0
        }
      ]
    }
  ],
  "nodes": [
    {
      "mesh": 0
    }
  ],
  "scene": 0,
  "scenes": [
    {
      "nodes": [
        0
      ]
    }
  ],
  "textures": [
    {
      "source": 0
    }
  ]
}