{
  "asset": {
    "copyright": "",
    "generator": "SharpGLTF 1.0.0",
    "version": "2.0"
  },
  "accessors": [
    {
      "name": "POSITION",
      "bufferView": 0,
      "componentType": 5126,
      "count": 696,
      "max": [
        -165.46945190429688,
        19.768775939941406,
        39.392498016357422
      ],
      "min": [
        -175.76780700683594,
        10.524178504943848,
        29.684185028076172
      ],
      "type": "VEC3"
    },
    {
      "name": "NORMAL",
      "bufferView": 0,
      "byteOffset": 12,
      "componentType": 5126,
      "count": 696,
      "max": [
        0.97011375427246094,
        0.99998444318771362,
        0.98699241876602173
      ],
      "min": [
        -0.99636870622634888,
        -0.99146193265914917,
        -0.94445186853408813
      ],
      "type": "VEC3"
    },
    {
      "name": "TEXCOORD_0",
      "bufferView": 0,
      "byteOffset": 24,
      "componentType": 5126,
      "count": 696,
      "max": [
        0.998046875,
        0.998046875
      ],
      "min": [
        0.001953125,
        0.345703125
      ],
      "type": "VEC2"
    },
    {
      "bufferView": 1,
      "componentType": 5123,
      "count": 1878,
      "type": "SCALAR"
    }
  ],
  "bufferViews": [
    {
      "buffer": 0,
      "byteLength": 22272,
      "byteStride": 32,
      "target": 34962
    },
    {
      "buffer": 0,
      "byteLength": 3756,
      "byteOffset": 22272,
      "target": 34963
    }
  ],
  "buffers": [
    {
      "byteLength": 26028,
      "uri": "3060435073507076011000_LOD00.bin"
    }
  ],
  "images": [
    {
      "uri": "3060435073507076011000_LOD00.png"
    }
  ],
  "materials": [
    {
      "doubleSided": true,
      "pbrMetallicRoughness": {
        "baseColorTexture": {
          "index": 0
        },
        "metallicFactor": 0
      }
    }
  ],
  "meshes": [
    {
      "name": "3060435073507076011000_0",
      "primitives": [
        {
          "attributes": {
            "POSITION": 0,
            "NORMAL": 1,
            "TEXCOORD_0": 2
          },
          "indices": 3,
          "material": 0
        }
      ]
    }
  ],
  "nodes": [
    {
      "mesh": 0
    }
  ],
  "scene": 0,
  "scenes": [
    {
      "nodes": [
        0
      ]
    }
  ],
  "textures": [
    {
      "source": 0
    }
  ]
}