{
  "asset": {
    "copyright": "",
    "generator": "SharpGLTF 1.0.0",
    "version": "2.0"
  },
  "accessors": [
    {
      "name": "POSITION",
      "bufferView": 0,
      "componentType": 5126,
      "count": 636,
      "max": [
        -60.478076934814453,
        13.574995040893555,
        105.98227691650391
      ],
      "min": [
        -71.062461853027344,
        10.477605819702148,
        96.749946594238281
      ],
      "type": "VEC3"
    },
    {
      "name": "NORMAL",
      "bufferView": 0,
      "byteOffset": 12,
      "componentType": 5126,
      "count": 636,
      "max": [
        0.99799245595932007,
        0.99998444318771362,
        0.99798160791397095
      ],
      "min": [
        -0.89815682172775269,
        -0.6471671462059021,
        -0.99931544065475464
      ],
      "type": "VEC3"
    },
    {
      "name": "TEXCOORD_0",
      "bufferView": 0,
      "byteOffset": 24,
      "componentType": 5126,
      "count": 636,
      "max": [
        0.998046875,
        0.998046875
      ],
      "min": [
        0.001953125,
        0.236328125
      ],
      "type": "VEC2"
    },
    {
      "bufferView": 1,
      "componentType": 5123,
      "count": 1785,
      "type": "SCALAR"
    }
  ],
  "bufferViews": [
    {
      "buffer": 0,
      "byteLength": 20352,
      "byteStride": 32,
      "target": 34962
    },
    {
      "buffer": 0,
      "byteLength": 3570,
      "byteOffset": 20352,
      "target": 34963
    }
  ],
  "buffers": [
    {
      "byteLength": 23924,
      "uri": "3060435073507076001333_LOD00.bin"
    }
  ],
  "images": [
    {
      "uri": "3060435073507076001333_LOD00.png"
    }
  ],
  "materials": [
    {
      "doubleSided": true,
      "pbrMetallicRoughness": {
        "baseColorTexture": {
          "index": 0
        },
        "metallicFactor": 0
      }
    }
  ],
  "meshes": [
    {
      "name": "3060435073507076001333_0",
      "primitives": [
        {
          "attributes": {
            "POSITION": 0,
            "NORMAL": 1,
            "TEXCOORD_0": 2
          },
          "indices": 3,
          "material": 0
        }
      ]
    }
  ],
  "nodes": [
    {
      "mesh": 0
    }
  ],
  "scene": 0,
  "scenes": [
    {
      "nodes": [
        0
      ]
    }
  ],
  "textures": [
    {
      "source": 0
    }
  ]
}