{
  "asset": {
    "copyright": "",
    "generator": "SharpGLTF 1.0.0",
    "version": "2.0"
  },
  "accessors": [
    {
      "name": "POSITION",
      "bufferView": 0,
      "componentType": 5126,
      "count": 908,
      "max": [
        -141.92658996582031,
        19.86457633972168,
        20.460926055908203
      ],
      "min": [
        -153.79862976074219,
        10.476944923400879,
        10.799957275390625
      ],
      "type": "VEC3"
    },
    {
      "name": "NORMAL",
      "bufferView": 0,
      "byteOffset": 12,
      "componentType": 5126,
      "count": 908,
      "max": [
        0.98290210962295532,
        0.99998444318771362,
        0.9959867000579834
      ],
      "min": [
        -0.99999213218688965,
        -0.99819642305374146,
        -0.97999304533004761
      ],
      "type": "VEC3"
    },
    {
      "name": "TEXCOORD_0",
      "bufferView": 0,
      "byteOffset": 24,
      "componentType": 5126,
      "count": 908,
      "max": [
        0.998046875,
        0.9990234375
      ],
      "min": [
        0.001953125,
        0.0048828125
      ],
      "type": "VEC2"
    },
    {
      "bufferView": 1,
      "componentType": 5123,
      "count": 2382,
      "type": "SCALAR"
    },
    {
      "name": "POSITION",
      "bufferView": 0,
      "byteOffset": 29056,
      "componentType": 5126,
      "count": 50,
      "max": [
        -145.8365478515625,
        19.864425659179688,
        20.460891723632813
      ],
      "min": [
        -153.79852294921875,
        12.24018669128418,
        10.800024032592773
      ],
      "type": "VEC3"
    },
    {
      "name": "NORMAL",
      "bufferView": 0,
      "byteOffset": 29068,
      "componentType": 5126,
      "count": 50,
      "max": [
        0.78446024656295776,
        0.98905283212661743,
        0.89781630039215088
      ],
      "min": [
        -0.97007131576538086,
        -0.30391204357147217,
        -0.99598687887191772
      ],
      "type": "VEC3"
    },
    {
      "name": "TEXCOORD_0",
      "bufferView": 0,
      "byteOffset": 29080,
      "componentType": 5126,
      "count": 50,
      "max": [
        0.591796875,
        0.998046875
      ],
      "min": [
        0.001953125,
        0.841796875
      ],
      "type": "VEC2"
    },
    {
      "bufferView": 1,
      "byteOffset": 4764,
      "componentType": 5123,
      "count": 147,
      "type": "SCALAR"
    }
  ],
  "bufferViews": [
    {
      "buffer": 0,
      "byteLength": 30656,
      "byteStride": 32,
      "target": 34962
    },
    {
      "buffer": 0,
      "byteLength": 5058,
      "byteOffset": 30656,
      "target": 34963
    }
  ],
  "buffers": [
    {
      "byteLength": 35716,
      "uri": "3060435073507074232330_LOD00.bin"
    }
  ],
  "images": [
    {
      "uri": "3060435073507074232330_LOD00_0.png"
    },
    {
      "uri": "3060435073507074232330_LOD00_1.png"
    }
  ],
  "materials": [
    {
      "doubleSided": true,
      "pbrMetallicRoughness": {
        "baseColorTexture": {
          "index": 0
        },
        "metallicFactor": 0
      }
    },
    {
      "doubleSided": true,
      "pbrMetallicRoughness": {
        "baseColorTexture": {
          "index": 1
        },
        "metallicFactor": 0
      }
    }
  ],
  "meshes": [
    {
      "name": "3060435073507074232330_0",
      "primitives": [
        {
          "attributes": {
            "POSITION": 0,
            "NORMAL": 1,
            "TEXCOORD_0": 2
          },
          "indices": 3,
          "material": 0
        }
      ]
    },
    {
      "name": "3060435073507074232330_1",
      "primitives": [
        {
          "attributes": {
            "POSITION": 4,
            "NORMAL": 5,
            "TEXCOORD_0": 6
          },
          "indices": 7,
          "material": 1
        }
      ]
    }
  ],
  "nodes": [
    {
      "mesh": 0
    },
    {
      "mesh": 1
    }
  ],
  "scene": 0,
  "scenes": [
    {
      "nodes": [
        0,
        1
      ]
    }
  ],
  "textures": [
    {
      "source": 0
    },
    {
      "source": 1
    }
  ]
}