{
  "asset": {
    "copyright": "",
    "generator": "SharpGLTF 1.0.0",
    "version": "2.0"
  },
  "accessors": [
    {
      "name": "POSITION",
      "bufferView": 0,
      "componentType": 5126,
      "count": 158,
      "max": [
        -194.21014404296875,
        69.773765563964844,
        63.650596618652344
      ],
      "min": [
        -201.12313842773438,
        65.342048645019531,
        58.272686004638672
      ],
      "type": "VEC3"
    },
    {
      "name": "NORMAL",
      "bufferView": 0,
      "byteOffset": 12,
      "componentType": 5126,
      "count": 158,
      "max": [
        0.80537641048431396,
        0.99998462200164795,
        0.89771884679794312
      ],
      "min": [
        -0.74384242296218872,
        -0.34763744473457336,
        -0.89617341756820679
      ],
      "type": "VEC3"
    },
    {
      "name": "TEXCOORD_0",
      "bufferView": 0,
      "byteOffset": 24,
      "componentType": 5126,
      "count": 158,
      "max": [
        0.998046875,
        0.998046875
      ],
      "min": [
        0.001953125,
        0.333984375
      ],
      "type": "VEC2"
    },
    {
      "bufferView": 1,
      "componentType": 5123,
      "count": 483,
      "type": "SCALAR"
    }
  ],
  "bufferViews": [
    {
      "buffer": 0,
      "byteLength": 5056,
      "byteStride": 32,
      "target": 34962
    },
    {
      "buffer": 0,
      "byteLength": 966,
      "byteOffset": 5056,
      "target": 34963
    }
  ],
  "buffers": [
    {
      "byteLength": 6024,
      "uri": "3060435073507076011472_LOD00.bin"
    }
  ],
  "images": [
    {
      "uri": "3060435073507076011472_LOD00.png"
    }
  ],
  "materials": [
    {
      "doubleSided": true,
      "pbrMetallicRoughness": {
        "baseColorTexture": {
          "index": 0
        },
        "metallicFactor": 0
      }
    }
  ],
  "meshes": [
    {
      "name": "3060435073507076011472_0",
      "primitives": [
        {
          "attributes": {
            "POSITION": 0,
            "NORMAL": 1,
            "TEXCOORD_0": 2
          },
          "indices": 3,
          "material": 0
        }
      ]
    }
  ],
  "nodes": [
    {
      "mesh": 0
    }
  ],
  "scene": 0,
  "scenes": [
    {
      "nodes": [
        0
      ]
    }
  ],
  "textures": [
    {
      "source": 0
    }
  ]
}