{
  "asset": {
    "copyright": "",
    "generator": "SharpGLTF 1.0.0",
    "version": "2.0"
  },
  "accessors": [
    {
      "name": "POSITION",
      "bufferView": 0,
      "componentType": 5126,
      "count": 465,
      "max": [
        -213.169677734375,
        10.763639450073242,
        172.53118896484375
      ],
      "min": [
        -224.70768737792969,
        9.3815040588378906,
        162.87034606933594
      ],
      "type": "VEC3"
    },
    {
      "name": "NORMAL",
      "bufferView": 0,
      "byteOffset": 12,
      "componentType": 5126,
      "count": 465,
      "max": [
        0.99673891067504883,
        0.99998438358306885,
        0.9819219708442688
      ],
      "min": [
        -0.94086158275604248,
        -0.36002540588378906,
        -0.99672812223434448
      ],
      "type": "VEC3"
    },
    {
      "name": "TEXCOORD_0",
      "bufferView": 0,
      "byteOffset": 24,
      "componentType": 5126,
      "count": 465,
      "max": [
        0.990234375,
        0.998046875
      ],
      "min": [
        0.001953125,
        0.283203125
      ],
      "type": "VEC2"
    },
    {
      "bufferView": 1,
      "componentType": 5123,
      "count": 1356,
      "type": "SCALAR"
    }
  ],
  "bufferViews": [
    {
      "buffer": 0,
      "byteLength": 14880,
      "byteStride": 32,
      "target": 34962
    },
    {
      "buffer": 0,
      "byteLength": 2712,
      "byteOffset": 14880,
      "target": 34963
    }
  ],
  "buffers": [
    {
      "byteLength": 17592,
      "uri": "3060435073507072457764_LOD00.bin"
    }
  ],
  "images": [
    {
      "uri": "3060435073507072457764_LOD00.png"
    }
  ],
  "materials": [
    {
      "doubleSided": true,
      "pbrMetallicRoughness": {
        "baseColorTexture": {
          "index": 0
        },
        "metallicFactor": 0
      }
    }
  ],
  "meshes": [
    {
      "name": "3060435073507072457764_0",
      "primitives": [
        {
          "attributes": {
            "POSITION": 0,
            "NORMAL": 1,
            "TEXCOORD_0": 2
          },
          "indices": 3,
          "material": 0
        }
      ]
    }
  ],
  "nodes": [
    {
      "mesh": 0
    }
  ],
  "scene": 0,
  "scenes": [
    {
      "nodes": [
        0
      ]
    }
  ],
  "textures": [
    {
      "source": 0
    }
  ]
}