{
  "asset": {
    "copyright": "",
    "generator": "SharpGLTF 1.0.0",
    "version": "2.0"
  },
  "accessors": [
    {
      "name": "POSITION",
      "bufferView": 0,
      "componentType": 5126,
      "count": 447,
      "max": [
        -232.75094604492188,
        33.279067993164063,
        391.33554077148438
      ],
      "min": [
        -236.66041564941406,
        28.799680709838867,
        381.67483520507813
      ],
      "type": "VEC3"
    },
    {
      "name": "NORMAL",
      "bufferView": 0,
      "byteOffset": 12,
      "componentType": 5126,
      "count": 447,
      "max": [
        0.97511851787567139,
        0.99896836280822754,
        0.93994802236557007
      ],
      "min": [
        -0.96805340051651001,
        -0.75659960508346558,
        -0.98828619718551636
      ],
      "type": "VEC3"
    },
    {
      "name": "TEXCOORD_0",
      "bufferView": 0,
      "byteOffset": 24,
      "componentType": 5126,
      "count": 447,
      "max": [
        0.994140625,
        0.998046875
      ],
      "min": [
        0.001953125,
        0.228515625
      ],
      "type": "VEC2"
    },
    {
      "bufferView": 1,
      "componentType": 5123,
      "count": 1158,
      "type": "SCALAR"
    }
  ],
  "bufferViews": [
    {
      "buffer": 0,
      "byteLength": 14304,
      "byteStride": 32,
      "target": 34962
    },
    {
      "buffer": 0,
      "byteLength": 2316,
      "byteOffset": 14304,
      "target": 34963
    }
  ],
  "buffers": [
    {
      "byteLength": 16620,
      "uri": "3060435073507076211343_LOD00.bin"
    }
  ],
  "images": [
    {
      "uri": "3060435073507076211343_LOD00.png"
    }
  ],
  "materials": [
    {
      "doubleSided": true,
      "pbrMetallicRoughness": {
        "baseColorTexture": {
          "index": 0
        },
        "metallicFactor": 0
      }
    }
  ],
  "meshes": [
    {
      "name": "3060435073507076211343_0",
      "primitives": [
        {
          "attributes": {
            "POSITION": 0,
            "NORMAL": 1,
            "TEXCOORD_0": 2
          },
          "indices": 3,
          "material": 0
        }
      ]
    }
  ],
  "nodes": [
    {
      "mesh": 0
    }
  ],
  "scene": 0,
  "scenes": [
    {
      "nodes": [
        0
      ]
    }
  ],
  "textures": [
    {
      "source": 0
    }
  ]
}