{
  "asset": {
    "copyright": "",
    "generator": "SharpGLTF 1.0.0",
    "version": "2.0"
  },
  "accessors": [
    {
      "name": "POSITION",
      "bufferView": 0,
      "componentType": 5126,
      "count": 319,
      "max": [
        -260.10635375976563,
        10.61570930480957,
        277.17813110351563
      ],
      "min": [
        -271.97784423828125,
        9.0901603698730469,
        267.65975952148438
      ],
      "type": "VEC3"
    },
    {
      "name": "NORMAL",
      "bufferView": 0,
      "byteOffset": 12,
      "componentType": 5126,
      "count": 319,
      "max": [
        0.55911773443222046,
        0.9999847412109375,
        0.9143792986869812
      ],
      "min": [
        -0.99798822402954102,
        -0.91663885116577148,
        -0.9381718635559082
      ],
      "type": "VEC3"
    },
    {
      "name": "TEXCOORD_0",
      "bufferView": 0,
      "byteOffset": 24,
      "componentType": 5126,
      "count": 319,
      "max": [
        0.998046875,
        0.998046875
      ],
      "min": [
        0.001953125,
        0.205078125
      ],
      "type": "VEC2"
    },
    {
      "bufferView": 1,
      "componentType": 5123,
      "count": 873,
      "type": "SCALAR"
    }
  ],
  "bufferViews": [
    {
      "buffer": 0,
      "byteLength": 10208,
      "byteStride": 32,
      "target": 34962
    },
    {
      "buffer": 0,
      "byteLength": 1746,
      "byteOffset": 10208,
      "target": 34963
    }
  ],
  "buffers": [
    {
      "byteLength": 11956,
      "uri": "3060435073507072566446_LOD00.bin"
    }
  ],
  "images": [
    {
      "uri": "3060435073507072566446_LOD00.png"
    }
  ],
  "materials": [
    {
      "doubleSided": true,
      "pbrMetallicRoughness": {
        "baseColorTexture": {
          "index": 0
        },
        "metallicFactor": 0
      }
    }
  ],
  "meshes": [
    {
      "name": "3060435073507072566446_0",
      "primitives": [
        {
          "attributes": {
            "POSITION": 0,
            "NORMAL": 1,
            "TEXCOORD_0": 2
          },
          "indices": 3,
          "material": 0
        }
      ]
    }
  ],
  "nodes": [
    {
      "mesh": 0
    }
  ],
  "scene": 0,
  "scenes": [
    {
      "nodes": [
        0
      ]
    }
  ],
  "textures": [
    {
      "source": 0
    }
  ]
}