{
  "asset": {
    "copyright": "",
    "generator": "SharpGLTF 1.0.0",
    "version": "2.0"
  },
  "accessors": [
    {
      "name": "POSITION",
      "bufferView": 0,
      "componentType": 5126,
      "count": 241,
      "max": [
        -166.65985107421875,
        11.857804298400879,
        86.815773010253906
      ],
      "min": [
        -177.43476867675781,
        10.523553848266602,
        77.392730712890625
      ],
      "type": "VEC3"
    },
    {
      "name": "NORMAL",
      "bufferView": 0,
      "byteOffset": 12,
      "componentType": 5126,
      "count": 241,
      "max": [
        0.81057584285736084,
        0.99440687894821167,
        0.81889283657073975
      ],
      "min": [
        -0.91818714141845703,
        0.26062220335006714,
        -0.74269789457321167
      ],
      "type": "VEC3"
    },
    {
      "name": "TEXCOORD_0",
      "bufferView": 0,
      "byteOffset": 24,
      "componentType": 5126,
      "count": 241,
      "max": [
        0.994140625,
        0.998046875
      ],
      "min": [
        0.001953125,
        0.564453125
      ],
      "type": "VEC2"
    },
    {
      "bufferView": 1,
      "componentType": 5123,
      "count": 705,
      "type": "SCALAR"
    }
  ],
  "bufferViews": [
    {
      "buffer": 0,
      "byteLength": 7712,
      "byteStride": 32,
      "target": 34962
    },
    {
      "buffer": 0,
      "byteLength": 1410,
      "byteOffset": 7712,
      "target": 34963
    }
  ],
  "buffers": [
    {
      "byteLength": 9124,
      "uri": "3060435073507076011202_LOD00.bin"
    }
  ],
  "images": [
    {
      "uri": "3060435073507076011202_LOD00.png"
    }
  ],
  "materials": [
    {
      "doubleSided": true,
      "pbrMetallicRoughness": {
        "baseColorTexture": {
          "index": 0
        },
        "metallicFactor": 0
      }
    }
  ],
  "meshes": [
    {
      "name": "3060435073507076011202_0",
      "primitives": [
        {
          "attributes": {
            "POSITION": 0,
            "NORMAL": 1,
            "TEXCOORD_0": 2
          },
          "indices": 3,
          "material": 0
        }
      ]
    }
  ],
  "nodes": [
    {
      "mesh": 0
    }
  ],
  "scene": 0,
  "scenes": [
    {
      "nodes": [
        0
      ]
    }
  ],
  "textures": [
    {
      "source": 0
    }
  ]
}