{
  "asset": {
    "copyright": "",
    "generator": "SharpGLTF 1.0.0",
    "version": "2.0"
  },
  "accessors": [
    {
      "name": "POSITION",
      "bufferView": 0,
      "componentType": 5126,
      "count": 603,
      "max": [
        -224.55126953125,
        19.756685256958008,
        362.93804931640625
      ],
      "min": [
        -236.61323547363281,
        10.46522331237793,
        353.27642822265625
      ],
      "type": "VEC3"
    },
    {
      "name": "NORMAL",
      "bufferView": 0,
      "byteOffset": 12,
      "componentType": 5126,
      "count": 603,
      "max": [
        0.99999237060546875,
        0.99998438358306885,
        0.62632691860198975
      ],
      "min": [
        -0.99636721611022949,
        -0.9624444842338562,
        -0.9623265266418457
      ],
      "type": "VEC3"
    },
    {
      "name": "TEXCOORD_0",
      "bufferView": 0,
      "byteOffset": 24,
      "componentType": 5126,
      "count": 603,
      "max": [
        0.998046875,
        0.998046875
      ],
      "min": [
        0.001953125,
        0.087890625
      ],
      "type": "VEC2"
    },
    {
      "bufferView": 1,
      "componentType": 5123,
      "count": 1650,
      "type": "SCALAR"
    }
  ],
  "bufferViews": [
    {
      "buffer": 0,
      "byteLength": 19296,
      "byteStride": 32,
      "target": 34962
    },
    {
      "buffer": 0,
      "byteLength": 3300,
      "byteOffset": 19296,
      "target": 34963
    }
  ],
  "buffers": [
    {
      "byteLength": 22596,
      "uri": "3060435073507076211121_LOD00.bin"
    }
  ],
  "images": [
    {
      "uri": "3060435073507076211121_LOD00.png"
    }
  ],
  "materials": [
    {
      "doubleSided": true,
      "pbrMetallicRoughness": {
        "baseColorTexture": {
          "index": 0
        },
        "metallicFactor": 0
      }
    }
  ],
  "meshes": [
    {
      "name": "3060435073507076211121_0",
      "primitives": [
        {
          "attributes": {
            "POSITION": 0,
            "NORMAL": 1,
            "TEXCOORD_0": 2
          },
          "indices": 3,
          "material": 0
        }
      ]
    }
  ],
  "nodes": [
    {
      "mesh": 0
    }
  ],
  "scene": 0,
  "scenes": [
    {
      "nodes": [
        0
      ]
    }
  ],
  "textures": [
    {
      "source": 0
    }
  ]
}