{
  "asset": {
    "copyright": "",
    "generator": "SharpGLTF 1.0.0",
    "version": "2.0"
  },
  "accessors": [
    {
      "name": "POSITION",
      "bufferView": 0,
      "componentType": 5126,
      "count": 112,
      "max": [
        -80.543807983398438,
        111.20864868164063,
        277.64697265625
      ],
      "min": [
        -82.87994384765625,
        105.34743499755859,
        277.02828979492188
      ],
      "type": "VEC3"
    },
    {
      "name": "NORMAL",
      "bufferView": 0,
      "byteOffset": 12,
      "componentType": 5126,
      "count": 112,
      "max": [
        0.47455912828445435,
        0.91296863555908203,
        0.99999207258224487
      ],
      "min": [
        -0.37690803408622742,
        -0.44771677255630493,
        0.36131554841995239
      ],
      "type": "VEC3"
    },
    {
      "name": "TEXCOORD_0",
      "bufferView": 0,
      "byteOffset": 24,
      "componentType": 5126,
      "count": 112,
      "max": [
        0.962890625,
        0.998046875
      ],
      "min": [
        0.001953125,
        0.849609375
      ],
      "type": "VEC2"
    },
    {
      "bufferView": 1,
      "componentType": 5123,
      "count": 321,
      "type": "SCALAR"
    }
  ],
  "bufferViews": [
    {
      "buffer": 0,
      "byteLength": 3584,
      "byteStride": 32,
      "target": 34962
    },
    {
      "buffer": 0,
      "byteLength": 642,
      "byteOffset": 3584,
      "target": 34963
    }
  ],
  "buffers": [
    {
      "byteLength": 4228,
      "uri": "3060435073507076036060_LOD00.bin"
    }
  ],
  "images": [
    {
      "uri": "3060435073507076036060_LOD00.png"
    }
  ],
  "materials": [
    {
      "doubleSided": true,
      "pbrMetallicRoughness": {
        "baseColorTexture": {
          "index": 0
        },
        "metallicFactor": 0
      }
    }
  ],
  "meshes": [
    {
      "name": "3060435073507076036060_0",
      "primitives": [
        {
          "attributes": {
            "POSITION": 0,
            "NORMAL": 1,
            "TEXCOORD_0": 2
          },
          "indices": 3,
          "material": 0
        }
      ]
    }
  ],
  "nodes": [
    {
      "mesh": 0
    }
  ],
  "scene": 0,
  "scenes": [
    {
      "nodes": [
        0
      ]
    }
  ],
  "textures": [
    {
      "source": 0
    }
  ]
}