{
  "asset": {
    "copyright": "",
    "generator": "SharpGLTF 1.0.0",
    "version": "2.0"
  },
  "accessors": [
    {
      "name": "POSITION",
      "bufferView": 0,
      "componentType": 5126,
      "count": 38,
      "max": [
        -111.28363037109375,
        10.858839988708496,
        48.999374389648438
      ],
      "min": [
        -113.71517944335938,
        10.477612495422363,
        48.571056365966797
      ],
      "type": "VEC3"
    },
    {
      "name": "NORMAL",
      "bufferView": 0,
      "byteOffset": 12,
      "componentType": 5126,
      "count": 38,
      "max": [
        0.063191339373588562,
        0.98161333799362183,
        -0.16094131767749786
      ],
      "min": [
        -0.20072108507156372,
        0.78693050146102905,
        -0.61379736661911011
      ],
      "type": "VEC3"
    },
    {
      "name": "TEXCOORD_0",
      "bufferView": 0,
      "byteOffset": 24,
      "componentType": 5126,
      "count": 38,
      "max": [
        0.220703125,
        0.998046875
      ],
      "min": [
        0.001953125,
        0.951171875
      ],
      "type": "VEC2"
    },
    {
      "bufferView": 1,
      "componentType": 5123,
      "count": 105,
      "type": "SCALAR"
    }
  ],
  "bufferViews": [
    {
      "buffer": 0,
      "byteLength": 1216,
      "byteStride": 32,
      "target": 34962
    },
    {
      "buffer": 0,
      "byteLength": 210,
      "byteOffset": 1216,
      "target": 34963
    }
  ],
  "buffers": [
    {
      "byteLength": 1428,
      "uri": "3060435073507076010013_LOD00.bin"
    }
  ],
  "images": [
    {
      "uri": "3060435073507076010013_LOD00.png"
    }
  ],
  "materials": [
    {
      "doubleSided": true,
      "pbrMetallicRoughness": {
        "baseColorTexture": {
          "index": 0
        },
        "metallicFactor": 0
      }
    }
  ],
  "meshes": [
    {
      "name": "3060435073507076010013_0",
      "primitives": [
        {
          "attributes": {
            "POSITION": 0,
            "NORMAL": 1,
            "TEXCOORD_0": 2
          },
          "indices": 3,
          "material": 0
        }
      ]
    }
  ],
  "nodes": [
    {
      "mesh": 0
    }
  ],
  "scene": 0,
  "scenes": [
    {
      "nodes": [
        0
      ]
    }
  ],
  "textures": [
    {
      "source": 0
    }
  ]
}