{
  "asset": {
    "copyright": "",
    "generator": "SharpGLTF 1.0.0",
    "version": "2.0"
  },
  "accessors": [
    {
      "name": "POSITION",
      "bufferView": 0,
      "componentType": 5126,
      "count": 334,
      "max": [
        -224.69956970214844,
        10.665810585021973,
        239.171142578125
      ],
      "min": [
        -236.57099914550781,
        9.4747991561889648,
        229.60537719726563
      ],
      "type": "VEC3"
    },
    {
      "name": "NORMAL",
      "bufferView": 0,
      "byteOffset": 12,
      "componentType": 5126,
      "count": 334,
      "max": [
        0.98754948377609253,
        0.99998444318771362,
        0.99914777278900146
      ],
      "min": [
        -0.98099976778030396,
        -0.57422775030136108,
        -0.92291140556335449
      ],
      "type": "VEC3"
    },
    {
      "name": "TEXCOORD_0",
      "bufferView": 0,
      "byteOffset": 24,
      "componentType": 5126,
      "count": 334,
      "max": [
        0.994140625,
        0.998046875
      ],
      "min": [
        0.001953125,
        0.076171875
      ],
      "type": "VEC2"
    },
    {
      "bufferView": 1,
      "componentType": 5123,
      "count": 1023,
      "type": "SCALAR"
    }
  ],
  "bufferViews": [
    {
      "buffer": 0,
      "byteLength": 10688,
      "byteStride": 32,
      "target": 34962
    },
    {
      "buffer": 0,
      "byteLength": 2046,
      "byteOffset": 10688,
      "target": 34963
    }
  ],
  "buffers": [
    {
      "byteLength": 12736,
      "uri": "3060435073507072475747_LOD00.bin"
    }
  ],
  "images": [
    {
      "uri": "3060435073507072475747_LOD00.png"
    }
  ],
  "materials": [
    {
      "doubleSided": true,
      "pbrMetallicRoughness": {
        "baseColorTexture": {
          "index": 0
        },
        "metallicFactor": 0
      }
    }
  ],
  "meshes": [
    {
      "name": "3060435073507072475747_0",
      "primitives": [
        {
          "attributes": {
            "POSITION": 0,
            "NORMAL": 1,
            "TEXCOORD_0": 2
          },
          "indices": 3,
          "material": 0
        }
      ]
    }
  ],
  "nodes": [
    {
      "mesh": 0
    }
  ],
  "scene": 0,
  "scenes": [
    {
      "nodes": [
        0
      ]
    }
  ],
  "textures": [
    {
      "source": 0
    }
  ]
}