{
  "asset": {
    "copyright": "",
    "generator": "SharpGLTF 1.0.0",
    "version": "2.0"
  },
  "accessors": [
    {
      "name": "POSITION",
      "bufferView": 0,
      "componentType": 5126,
      "count": 528,
      "max": [
        -82.877487182617188,
        12.431675910949707,
        48.856239318847656
      ],
      "min": [
        -94.701629638671875,
        10.477937698364258,
        39.195529937744141
      ],
      "type": "VEC3"
    },
    {
      "name": "NORMAL",
      "bufferView": 0,
      "byteOffset": 12,
      "componentType": 5126,
      "count": 528,
      "max": [
        0.83826243877410889,
        0.99998444318771362,
        0.5491938591003418
      ],
      "min": [
        -0.89971089363098145,
        0.34414976835250854,
        -0.71768182516098022
      ],
      "type": "VEC3"
    },
    {
      "name": "TEXCOORD_0",
      "bufferView": 0,
      "byteOffset": 24,
      "componentType": 5126,
      "count": 528,
      "max": [
        0.998046875,
        0.998046875
      ],
      "min": [
        0.001953125,
        0.146484375
      ],
      "type": "VEC2"
    },
    {
      "bufferView": 1,
      "componentType": 5123,
      "count": 1479,
      "type": "SCALAR"
    }
  ],
  "bufferViews": [
    {
      "buffer": 0,
      "byteLength": 16896,
      "byteStride": 32,
      "target": 34962
    },
    {
      "buffer": 0,
      "byteLength": 2958,
      "byteOffset": 16896,
      "target": 34963
    }
  ],
  "buffers": [
    {
      "byteLength": 19856,
      "uri": "3060435073507076010003_LOD00.bin"
    }
  ],
  "images": [
    {
      "uri": "3060435073507076010003_LOD00.png"
    }
  ],
  "materials": [
    {
      "doubleSided": true,
      "pbrMetallicRoughness": {
        "baseColorTexture": {
          "index": 0
        },
        "metallicFactor": 0
      }
    }
  ],
  "meshes": [
    {
      "name": "3060435073507076010003_0",
      "primitives": [
        {
          "attributes": {
            "POSITION": 0,
            "NORMAL": 1,
            "TEXCOORD_0": 2
          },
          "indices": 3,
          "material": 0
        }
      ]
    }
  ],
  "nodes": [
    {
      "mesh": 0
    }
  ],
  "scene": 0,
  "scenes": [
    {
      "nodes": [
        0
      ]
    }
  ],
  "textures": [
    {
      "source": 0
    }
  ]
}