{
  "asset": {
    "copyright": "",
    "generator": "SharpGLTF 1.0.0",
    "version": "2.0"
  },
  "accessors": [
    {
      "name": "POSITION",
      "bufferView": 0,
      "componentType": 5126,
      "count": 220,
      "max": [
        -106.373779296875,
        21.528291702270508,
        20.459945678710938
      ],
      "min": [
        -114.57415008544922,
        19.622135162353516,
        10.703892707824707
      ],
      "type": "VEC3"
    },
    {
      "name": "NORMAL",
      "bufferView": 0,
      "byteOffset": 12,
      "componentType": 5126,
      "count": 220,
      "max": [
        0.97775369882583618,
        0.99439364671707153,
        0.70086216926574707
      ],
      "min": [
        -0.97417169809341431,
        -0.54782819747924805,
        -0.99087333679199219
      ],
      "type": "VEC3"
    },
    {
      "name": "TEXCOORD_0",
      "bufferView": 0,
      "byteOffset": 24,
      "componentType": 5126,
      "count": 220,
      "max": [
        0.998046875,
        0.998046875
      ],
      "min": [
        0.001953125,
        0.783203125
      ],
      "type": "VEC2"
    },
    {
      "bufferView": 1,
      "componentType": 5123,
      "count": 573,
      "type": "SCALAR"
    }
  ],
  "bufferViews": [
    {
      "buffer": 0,
      "byteLength": 7040,
      "byteStride": 32,
      "target": 34962
    },
    {
      "buffer": 0,
      "byteLength": 1146,
      "byteOffset": 7040,
      "target": 34963
    }
  ],
  "buffers": [
    {
      "byteLength": 8188,
      "uri": "3060435073507074232235_LOD00.bin"
    }
  ],
  "images": [
    {
      "uri": "3060435073507074232235_LOD00.png"
    }
  ],
  "materials": [
    {
      "doubleSided": true,
      "pbrMetallicRoughness": {
        "baseColorTexture": {
          "index": 0
        },
        "metallicFactor": 0
      }
    }
  ],
  "meshes": [
    {
      "name": "3060435073507074232235_0",
      "primitives": [
        {
          "attributes": {
            "POSITION": 0,
            "NORMAL": 1,
            "TEXCOORD_0": 2
          },
          "indices": 3,
          "material": 0
        }
      ]
    }
  ],
  "nodes": [
    {
      "mesh": 0
    }
  ],
  "scene": 0,
  "scenes": [
    {
      "nodes": [
        0
      ]
    }
  ],
  "textures": [
    {
      "source": 0
    }
  ]
}