{
  "asset": {
    "copyright": "",
    "generator": "SharpGLTF 1.0.0",
    "version": "2.0"
  },
  "accessors": [
    {
      "name": "POSITION",
      "bufferView": 0,
      "componentType": 5126,
      "count": 373,
      "max": [
        -184.62199401855469,
        28.906438827514648,
        296.24908447265625
      ],
      "min": [
        -186.576904296875,
        19.709194183349609,
        286.58843994140625
      ],
      "type": "VEC3"
    },
    {
      "name": "NORMAL",
      "bufferView": 0,
      "byteOffset": 12,
      "componentType": 5126,
      "count": 373,
      "max": [
        -0.34360721707344055,
        0.93212229013442993,
        0.73300206661224365
      ],
      "min": [
        -0.9991571307182312,
        -0.46121934056282043,
        -0.35424509644508362
      ],
      "type": "VEC3"
    },
    {
      "name": "TEXCOORD_0",
      "bufferView": 0,
      "byteOffset": 24,
      "componentType": 5126,
      "count": 373,
      "max": [
        0.998046875,
        0.998046875
      ],
      "min": [
        0.001953125,
        0.134765625
      ],
      "type": "VEC2"
    },
    {
      "bufferView": 1,
      "componentType": 5123,
      "count": 1110,
      "type": "SCALAR"
    }
  ],
  "bufferViews": [
    {
      "buffer": 0,
      "byteLength": 11936,
      "byteStride": 32,
      "target": 34962
    },
    {
      "buffer": 0,
      "byteLength": 2220,
      "byteOffset": 11936,
      "target": 34963
    }
  ],
  "buffers": [
    {
      "byteLength": 14156,
      "uri": "3060435073507076033027_LOD00.bin"
    }
  ],
  "images": [
    {
      "uri": "3060435073507076033027_LOD00.png"
    }
  ],
  "materials": [
    {
      "doubleSided": true,
      "pbrMetallicRoughness": {
        "baseColorTexture": {
          "index": 0
        },
        "metallicFactor": 0
      }
    }
  ],
  "meshes": [
    {
      "name": "3060435073507076033027_0",
      "primitives": [
        {
          "attributes": {
            "POSITION": 0,
            "NORMAL": 1,
            "TEXCOORD_0": 2
          },
          "indices": 3,
          "material": 0
        }
      ]
    }
  ],
  "nodes": [
    {
      "mesh": 0
    }
  ],
  "scene": 0,
  "scenes": [
    {
      "nodes": [
        0
      ]
    }
  ],
  "textures": [
    {
      "source": 0
    }
  ]
}