{
  "asset": {
    "copyright": "",
    "generator": "SharpGLTF 1.0.0",
    "version": "2.0"
  },
  "accessors": [
    {
      "name": "POSITION",
      "bufferView": 0,
      "componentType": 5126,
      "count": 826,
      "max": [
        11.819266319274902,
        19.81842041015625,
        29.829189300537109
      ],
      "min": [
        -0.14784727990627289,
        12.003475189208984,
        20.311246871948242
      ],
      "type": "VEC3"
    },
    {
      "name": "NORMAL",
      "bufferView": 0,
      "byteOffset": 12,
      "componentType": 5126,
      "count": 826,
      "max": [
        0.97272050380706787,
        0.99998444318771362,
        0.99999219179153442
      ],
      "min": [
        -0.98298215866088867,
        -0.92359137535095215,
        -0.99634510278701782
      ],
      "type": "VEC3"
    },
    {
      "name": "TEXCOORD_0",
      "bufferView": 0,
      "byteOffset": 24,
      "componentType": 5126,
      "count": 826,
      "max": [
        0.998046875,
        0.9990234375
      ],
      "min": [
        0.001953125,
        0.0009765625
      ],
      "type": "VEC2"
    },
    {
      "bufferView": 1,
      "componentType": 5123,
      "count": 1911,
      "type": "SCALAR"
    },
    {
      "name": "POSITION",
      "bufferView": 0,
      "byteOffset": 26432,
      "componentType": 5126,
      "count": 158,
      "max": [
        11.676226615905762,
        19.770792007446289,
        29.829189300537109
      ],
      "min": [
        -0.14784727990627289,
        12.384690284729004,
        24.403947830200195
      ],
      "type": "VEC3"
    },
    {
      "name": "NORMAL",
      "bufferView": 0,
      "byteOffset": 26444,
      "componentType": 5126,
      "count": 158,
      "max": [
        0.9999922513961792,
        0.95709335803985596,
        0.99898248910903931
      ],
      "min": [
        -0.98256760835647583,
        -0.72221046686172485,
        -0.99043059349060059
      ],
      "type": "VEC3"
    },
    {
      "name": "TEXCOORD_0",
      "bufferView": 0,
      "byteOffset": 26456,
      "componentType": 5126,
      "count": 158,
      "max": [
        0.998046875,
        0.998046875
      ],
      "min": [
        0.001953125,
        0.658203125
      ],
      "type": "VEC2"
    },
    {
      "bufferView": 1,
      "byteOffset": 3822,
      "componentType": 5123,
      "count": 417,
      "type": "SCALAR"
    }
  ],
  "bufferViews": [
    {
      "buffer": 0,
      "byteLength": 31488,
      "byteStride": 32,
      "target": 34962
    },
    {
      "buffer": 0,
      "byteLength": 4656,
      "byteOffset": 31488,
      "target": 34963
    }
  ],
  "buffers": [
    {
      "byteLength": 36144,
      "uri": "3060435073507074223223_LOD00.bin"
    }
  ],
  "images": [
    {
      "uri": "3060435073507074223223_LOD00_0.png"
    },
    {
      "uri": "3060435073507074223223_LOD00_1.png"
    }
  ],
  "materials": [
    {
      "doubleSided": true,
      "pbrMetallicRoughness": {
        "baseColorTexture": {
          "index": 0
        },
        "metallicFactor": 0
      }
    },
    {
      "doubleSided": true,
      "pbrMetallicRoughness": {
        "baseColorTexture": {
          "index": 1
        },
        "metallicFactor": 0
      }
    }
  ],
  "meshes": [
    {
      "name": "3060435073507074223223_0",
      "primitives": [
        {
          "attributes": {
            "POSITION": 0,
            "NORMAL": 1,
            "TEXCOORD_0": 2
          },
          "indices": 3,
          "material": 0
        }
      ]
    },
    {
      "name": "3060435073507074223223_1",
      "primitives": [
        {
          "attributes": {
            "POSITION": 4,
            "NORMAL": 5,
            "TEXCOORD_0": 6
          },
          "indices": 7,
          "material": 1
        }
      ]
    }
  ],
  "nodes": [
    {
      "mesh": 0
    },
    {
      "mesh": 1
    }
  ],
  "scene": 0,
  "scenes": [
    {
      "nodes": [
        0,
        1
      ]
    }
  ],
  "textures": [
    {
      "source": 0
    },
    {
      "source": 1
    }
  ]
}