{
  "asset": {
    "copyright": "",
    "generator": "SharpGLTF 1.0.0",
    "version": "2.0"
  },
  "accessors": [
    {
      "name": "POSITION",
      "bufferView": 0,
      "componentType": 5126,
      "count": 450,
      "max": [
        -266.9761962890625,
        22.759538650512695,
        201.12091064453125
      ],
      "min": [
        -271.98208618164063,
        19.709854125976563,
        193.7918701171875
      ],
      "type": "VEC3"
    },
    {
      "name": "NORMAL",
      "bufferView": 0,
      "byteOffset": 12,
      "componentType": 5126,
      "count": 450,
      "max": [
        0.99898827075958252,
        0.99594628810882568,
        0.88697147369384766
      ],
      "min": [
        -0.96216344833374023,
        -0.64943569898605347,
        -0.99931448698043823
      ],
      "type": "VEC3"
    },
    {
      "name": "TEXCOORD_0",
      "bufferView": 0,
      "byteOffset": 24,
      "componentType": 5126,
      "count": 450,
      "max": [
        0.998046875,
        0.998046875
      ],
      "min": [
        0.001953125,
        0.330078125
      ],
      "type": "VEC2"
    },
    {
      "bufferView": 1,
      "componentType": 5123,
      "count": 1086,
      "type": "SCALAR"
    }
  ],
  "bufferViews": [
    {
      "buffer": 0,
      "byteLength": 14400,
      "byteStride": 32,
      "target": 34962
    },
    {
      "buffer": 0,
      "byteLength": 2172,
      "byteOffset": 14400,
      "target": 34963
    }
  ],
  "buffers": [
    {
      "byteLength": 16572,
      "uri": "3060435073507076120006_LOD00.bin"
    }
  ],
  "images": [
    {
      "uri": "3060435073507076120006_LOD00.png"
    }
  ],
  "materials": [
    {
      "doubleSided": true,
      "pbrMetallicRoughness": {
        "baseColorTexture": {
          "index": 0
        },
        "metallicFactor": 0
      }
    }
  ],
  "meshes": [
    {
      "name": "3060435073507076120006_0",
      "primitives": [
        {
          "attributes": {
            "POSITION": 0,
            "NORMAL": 1,
            "TEXCOORD_0": 2
          },
          "indices": 3,
          "material": 0
        }
      ]
    }
  ],
  "nodes": [
    {
      "mesh": 0
    }
  ],
  "scene": 0,
  "scenes": [
    {
      "nodes": [
        0
      ]
    }
  ],
  "textures": [
    {
      "source": 0
    }
  ]
}