{
  "asset": {
    "copyright": "",
    "generator": "SharpGLTF 1.0.0",
    "version": "2.0"
  },
  "accessors": [
    {
      "name": "POSITION",
      "bufferView": 0,
      "componentType": 5126,
      "count": 141,
      "max": [
        -224.7064208984375,
        -7.6665277481079102,
        67.886405944824219
      ],
      "min": [
        -231.85844421386719,
        -8.8579397201538086,
        58.321163177490234
      ],
      "type": "VEC3"
    },
    {
      "name": "NORMAL",
      "bufferView": 0,
      "byteOffset": 12,
      "componentType": 5126,
      "count": 141,
      "max": [
        3.5128770832670853E-05,
        0.0055384580045938492,
        0.70647668838500977
      ],
      "min": [
        -0.96851497888565063,
        -1,
        -8.929689101933036E-06
      ],
      "type": "VEC3"
    },
    {
      "name": "TEXCOORD_0",
      "bufferView": 0,
      "byteOffset": 24,
      "componentType": 5126,
      "count": 141,
      "max": [
        0.966796875,
        0.998046875
      ],
      "min": [
        0.001953125,
        0.267578125
      ],
      "type": "VEC2"
    },
    {
      "bufferView": 1,
      "componentType": 5123,
      "count": 399,
      "type": "SCALAR"
    }
  ],
  "bufferViews": [
    {
      "buffer": 0,
      "byteLength": 4512,
      "byteStride": 32,
      "target": 34962
    },
    {
      "buffer": 0,
      "byteLength": 798,
      "byteOffset": 4512,
      "target": 34963
    }
  ],
  "buffers": [
    {
      "byteLength": 5312,
      "uri": "3060435073507072455527_LOD00.bin"
    }
  ],
  "images": [
    {
      "uri": "3060435073507072455527_LOD00.png"
    }
  ],
  "materials": [
    {
      "doubleSided": true,
      "pbrMetallicRoughness": {
        "baseColorTexture": {
          "index": 0
        },
        "metallicFactor": 0
      }
    }
  ],
  "meshes": [
    {
      "name": "3060435073507072455527_0",
      "primitives": [
        {
          "attributes": {
            "POSITION": 0,
            "NORMAL": 1,
            "TEXCOORD_0": 2
          },
          "indices": 3,
          "material": 0
        }
      ]
    }
  ],
  "nodes": [
    {
      "mesh": 0
    }
  ],
  "scene": 0,
  "scenes": [
    {
      "nodes": [
        0
      ]
    }
  ],
  "textures": [
    {
      "source": 0
    }
  ]
}