{
  "asset": {
    "copyright": "",
    "generator": "SharpGLTF 1.0.0",
    "version": "2.0"
  },
  "accessors": [
    {
      "name": "POSITION",
      "bufferView": 0,
      "componentType": 5126,
      "count": 329,
      "max": [
        -203.16311645507813,
        28.91041374206543,
        163.01762390136719
      ],
      "min": [
        -204.927734375,
        19.665910720825195,
        153.49951171875
      ],
      "type": "VEC3"
    },
    {
      "name": "NORMAL",
      "bufferView": 0,
      "byteOffset": 12,
      "componentType": 5126,
      "count": 329,
      "max": [
        -0.83776241540908813,
        0.4482843279838562,
        0.54247200489044189
      ],
      "min": [
        -0.99931961297988892,
        -0.27000027894973755,
        -0.31865546107292175
      ],
      "type": "VEC3"
    },
    {
      "name": "TEXCOORD_0",
      "bufferView": 0,
      "byteOffset": 24,
      "componentType": 5126,
      "count": 329,
      "max": [
        0.998046875,
        0.998046875
      ],
      "min": [
        0.001953125,
        0.115234375
      ],
      "type": "VEC2"
    },
    {
      "bufferView": 1,
      "componentType": 5123,
      "count": 1059,
      "type": "SCALAR"
    }
  ],
  "bufferViews": [
    {
      "buffer": 0,
      "byteLength": 10528,
      "byteStride": 32,
      "target": 34962
    },
    {
      "buffer": 0,
      "byteLength": 2118,
      "byteOffset": 10528,
      "target": 34963
    }
  ],
  "buffers": [
    {
      "byteLength": 12648,
      "uri": "3060435073507076013217_LOD00.bin"
    }
  ],
  "images": [
    {
      "uri": "3060435073507076013217_LOD00.png"
    }
  ],
  "materials": [
    {
      "doubleSided": true,
      "pbrMetallicRoughness": {
        "baseColorTexture": {
          "index": 0
        },
        "metallicFactor": 0
      }
    }
  ],
  "meshes": [
    {
      "name": "3060435073507076013217_0",
      "primitives": [
        {
          "attributes": {
            "POSITION": 0,
            "NORMAL": 1,
            "TEXCOORD_0": 2
          },
          "indices": 3,
          "material": 0
        }
      ]
    }
  ],
  "nodes": [
    {
      "mesh": 0
    }
  ],
  "scene": 0,
  "scenes": [
    {
      "nodes": [
        0
      ]
    }
  ],
  "textures": [
    {
      "source": 0
    }
  ]
}