{
  "asset": {
    "copyright": "",
    "generator": "SharpGLTF 1.0.0",
    "version": "2.0"
  },
  "accessors": [
    {
      "name": "POSITION",
      "bufferView": 0,
      "componentType": 5126,
      "count": 314,
      "max": [
        -233.4669189453125,
        28.901144027709961,
        362.79586791992188
      ],
      "min": [
        -236.61323547363281,
        19.704181671142578,
        358.0843505859375
      ],
      "type": "VEC3"
    },
    {
      "name": "NORMAL",
      "bufferView": 0,
      "byteOffset": 12,
      "componentType": 5126,
      "count": 314,
      "max": [
        0.99931693077087402,
        0.99046146869659424,
        0.91665804386138916
      ],
      "min": [
        -0.75930315256118774,
        -0.86014378070831299,
        -0.99175810813903809
      ],
      "type": "VEC3"
    },
    {
      "name": "TEXCOORD_0",
      "bufferView": 0,
      "byteOffset": 24,
      "componentType": 5126,
      "count": 314,
      "max": [
        0.998046875,
        0.998046875
      ],
      "min": [
        0.001953125,
        0.345703125
      ],
      "type": "VEC2"
    },
    {
      "bufferView": 1,
      "componentType": 5123,
      "count": 912,
      "type": "SCALAR"
    }
  ],
  "bufferViews": [
    {
      "buffer": 0,
      "byteLength": 10048,
      "byteStride": 32,
      "target": 34962
    },
    {
      "buffer": 0,
      "byteLength": 1824,
      "byteOffset": 10048,
      "target": 34963
    }
  ],
  "buffers": [
    {
      "byteLength": 11872,
      "uri": "3060435073507076211125_LOD00.bin"
    }
  ],
  "images": [
    {
      "uri": "3060435073507076211125_LOD00.png"
    }
  ],
  "materials": [
    {
      "doubleSided": true,
      "pbrMetallicRoughness": {
        "baseColorTexture": {
          "index": 0
        },
        "metallicFactor": 0
      }
    }
  ],
  "meshes": [
    {
      "name": "3060435073507076211125_0",
      "primitives": [
        {
          "attributes": {
            "POSITION": 0,
            "NORMAL": 1,
            "TEXCOORD_0": 2
          },
          "indices": 3,
          "material": 0
        }
      ]
    }
  ],
  "nodes": [
    {
      "mesh": 0
    }
  ],
  "scene": 0,
  "scenes": [
    {
      "nodes": [
        0
      ]
    }
  ],
  "textures": [
    {
      "source": 0
    }
  ]
}