{
  "asset": {
    "copyright": "",
    "generator": "SharpGLTF 1.0.0",
    "version": "2.0"
  },
  "accessors": [
    {
      "name": "POSITION",
      "bufferView": 0,
      "componentType": 5126,
      "count": 412,
      "max": [
        -233.55953979492188,
        24.513801574707031,
        419.92196655273438
      ],
      "min": [
        -236.65864562988281,
        19.748287200927734,
        410.30899047851563
      ],
      "type": "VEC3"
    },
    {
      "name": "NORMAL",
      "bufferView": 0,
      "byteOffset": 12,
      "componentType": 5126,
      "count": 412,
      "max": [
        0.99440741539001465,
        0.99896949529647827,
        0.99365311861038208
      ],
      "min": [
        -0.66292637586593628,
        -0.91562223434448242,
        -0.99931365251541138
      ],
      "type": "VEC3"
    },
    {
      "name": "TEXCOORD_0",
      "bufferView": 0,
      "byteOffset": 24,
      "componentType": 5126,
      "count": 412,
      "max": [
        0.998046875,
        0.998046875
      ],
      "min": [
        0.001953125,
        0.458984375
      ],
      "type": "VEC2"
    },
    {
      "bufferView": 1,
      "componentType": 5123,
      "count": 1050,
      "type": "SCALAR"
    }
  ],
  "bufferViews": [
    {
      "buffer": 0,
      "byteLength": 13184,
      "byteStride": 32,
      "target": 34962
    },
    {
      "buffer": 0,
      "byteLength": 2100,
      "byteOffset": 13184,
      "target": 34963
    }
  ],
  "buffers": [
    {
      "byteLength": 15284,
      "uri": "3060435073507076213105_LOD00.bin"
    }
  ],
  "images": [
    {
      "uri": "3060435073507076213105_LOD00.png"
    }
  ],
  "materials": [
    {
      "doubleSided": true,
      "pbrMetallicRoughness": {
        "baseColorTexture": {
          "index": 0
        },
        "metallicFactor": 0
      }
    }
  ],
  "meshes": [
    {
      "name": "3060435073507076213105_0",
      "primitives": [
        {
          "attributes": {
            "POSITION": 0,
            "NORMAL": 1,
            "TEXCOORD_0": 2
          },
          "indices": 3,
          "material": 0
        }
      ]
    }
  ],
  "nodes": [
    {
      "mesh": 0
    }
  ],
  "scene": 0,
  "scenes": [
    {
      "nodes": [
        0
      ]
    }
  ],
  "textures": [
    {
      "source": 0
    }
  ]
}