{
  "asset": {
    "copyright": "",
    "generator": "SharpGLTF 1.0.0",
    "version": "2.0"
  },
  "accessors": [
    {
      "name": "POSITION",
      "bufferView": 0,
      "componentType": 5126,
      "count": 649,
      "max": [
        -260.01361083984375,
        10.66533374786377,
        229.659423828125
      ],
      "min": [
        -271.98037719726563,
        9.6161966323852539,
        220.04644775390625
      ],
      "type": "VEC3"
    },
    {
      "name": "NORMAL",
      "bufferView": 0,
      "byteOffset": 12,
      "componentType": 5126,
      "count": 649,
      "max": [
        0.99673867225646973,
        0.9999847412109375,
        0.99438446760177612
      ],
      "min": [
        -0.99179935455322266,
        -0.91562896966934204,
        -0.87992030382156372
      ],
      "type": "VEC3"
    },
    {
      "name": "TEXCOORD_0",
      "bufferView": 0,
      "byteOffset": 24,
      "componentType": 5126,
      "count": 649,
      "max": [
        0.998046875,
        0.998046875
      ],
      "min": [
        0.001953125,
        0.353515625
      ],
      "type": "VEC2"
    },
    {
      "bufferView": 1,
      "componentType": 5123,
      "count": 1773,
      "type": "SCALAR"
    }
  ],
  "bufferViews": [
    {
      "buffer": 0,
      "byteLength": 20768,
      "byteStride": 32,
      "target": 34962
    },
    {
      "buffer": 0,
      "byteLength": 3546,
      "byteOffset": 20768,
      "target": 34963
    }
  ],
  "buffers": [
    {
      "byteLength": 24316,
      "uri": "3060435073507072564644_LOD00.bin"
    }
  ],
  "images": [
    {
      "uri": "3060435073507072564644_LOD00.png"
    }
  ],
  "materials": [
    {
      "doubleSided": true,
      "pbrMetallicRoughness": {
        "baseColorTexture": {
          "index": 0
        },
        "metallicFactor": 0
      }
    }
  ],
  "meshes": [
    {
      "name": "3060435073507072564644_0",
      "primitives": [
        {
          "attributes": {
            "POSITION": 0,
            "NORMAL": 1,
            "TEXCOORD_0": 2
          },
          "indices": 3,
          "material": 0
        }
      ]
    }
  ],
  "nodes": [
    {
      "mesh": 0
    }
  ],
  "scene": 0,
  "scenes": [
    {
      "nodes": [
        0
      ]
    }
  ],
  "textures": [
    {
      "source": 0
    }
  ]
}