{
  "asset": {
    "copyright": "",
    "generator": "SharpGLTF 1.0.0",
    "version": "2.0"
  },
  "accessors": [
    {
      "name": "POSITION",
      "bufferView": 0,
      "componentType": 5126,
      "count": 662,
      "max": [
        -86.738662719726563,
        24.053495407104492,
        102.36604309082031
      ],
      "min": [
        -94.796035766601563,
        19.717048645019531,
        96.274482727050781
      ],
      "type": "VEC3"
    },
    {
      "name": "NORMAL",
      "bufferView": 0,
      "byteOffset": 12,
      "componentType": 5126,
      "count": 662,
      "max": [
        0.99093419313430786,
        0.99896800518035889,
        0.99486517906188965
      ],
      "min": [
        -0.99600023031234741,
        -0.68471014499664307,
        -0.95364987850189209
      ],
      "type": "VEC3"
    },
    {
      "name": "TEXCOORD_0",
      "bufferView": 0,
      "byteOffset": 24,
      "componentType": 5126,
      "count": 662,
      "max": [
        0.998046875,
        0.998046875
      ],
      "min": [
        0.001953125,
        0.154296875
      ],
      "type": "VEC2"
    },
    {
      "bufferView": 1,
      "componentType": 5123,
      "count": 1677,
      "type": "SCALAR"
    }
  ],
  "bufferViews": [
    {
      "buffer": 0,
      "byteLength": 21184,
      "byteStride": 32,
      "target": 34962
    },
    {
      "buffer": 0,
      "byteLength": 3354,
      "byteOffset": 21184,
      "target": 34963
    }
  ],
  "buffers": [
    {
      "byteLength": 24540,
      "uri": "3060435073507076010227_LOD00.bin"
    }
  ],
  "images": [
    {
      "uri": "3060435073507076010227_LOD00.png"
    }
  ],
  "materials": [
    {
      "doubleSided": true,
      "pbrMetallicRoughness": {
        "baseColorTexture": {
          "index": 0
        },
        "metallicFactor": 0
      }
    }
  ],
  "meshes": [
    {
      "name": "3060435073507076010227_0",
      "primitives": [
        {
          "attributes": {
            "POSITION": 0,
            "NORMAL": 1,
            "TEXCOORD_0": 2
          },
          "indices": 3,
          "material": 0
        }
      ]
    }
  ],
  "nodes": [
    {
      "mesh": 0
    }
  ],
  "scene": 0,
  "scenes": [
    {
      "nodes": [
        0
      ]
    }
  ],
  "textures": [
    {
      "source": 0
    }
  ]
}