{
  "asset": {
    "copyright": "",
    "generator": "SharpGLTF 1.0.0",
    "version": "2.0"
  },
  "accessors": [
    {
      "name": "POSITION",
      "bufferView": 0,
      "componentType": 5126,
      "count": 352,
      "max": [
        -60.094539642333984,
        11.900792121887207,
        305.80624389648438
      ],
      "min": [
        -71.059867858886719,
        10.471267700195313,
        296.1455078125
      ],
      "type": "VEC3"
    },
    {
      "name": "NORMAL",
      "bufferView": 0,
      "byteOffset": 12,
      "componentType": 5126,
      "count": 352,
      "max": [
        0.86258888244628906,
        0.99998462200164795,
        0.70666486024856567
      ],
      "min": [
        -0.54988640546798706,
        -0.58474868535995483,
        -0.99087047576904297
      ],
      "type": "VEC3"
    },
    {
      "name": "TEXCOORD_0",
      "bufferView": 0,
      "byteOffset": 24,
      "componentType": 5126,
      "count": 352,
      "max": [
        0.998046875,
        0.998046875
      ],
      "min": [
        0.001953125,
        0.576171875
      ],
      "type": "VEC2"
    },
    {
      "bufferView": 1,
      "componentType": 5123,
      "count": 1017,
      "type": "SCALAR"
    }
  ],
  "bufferViews": [
    {
      "buffer": 0,
      "byteLength": 11264,
      "byteStride": 32,
      "target": 34962
    },
    {
      "buffer": 0,
      "byteLength": 2034,
      "byteOffset": 11264,
      "target": 34963
    }
  ],
  "buffers": [
    {
      "byteLength": 13300,
      "uri": "3060435073507076023311_LOD00.bin"
    }
  ],
  "images": [
    {
      "uri": "3060435073507076023311_LOD00.png"
    }
  ],
  "materials": [
    {
      "doubleSided": true,
      "pbrMetallicRoughness": {
        "baseColorTexture": {
          "index": 0
        },
        "metallicFactor": 0
      }
    }
  ],
  "meshes": [
    {
      "name": "3060435073507076023311_0",
      "primitives": [
        {
          "attributes": {
            "POSITION": 0,
            "NORMAL": 1,
            "TEXCOORD_0": 2
          },
          "indices": 3,
          "material": 0
        }
      ]
    }
  ],
  "nodes": [
    {
      "mesh": 0
    }
  ],
  "scene": 0,
  "scenes": [
    {
      "nodes": [
        0
      ]
    }
  ],
  "textures": [
    {
      "source": 0
    }
  ]
}