{
  "asset": {
    "copyright": "",
    "generator": "SharpGLTF 1.0.0",
    "version": "2.0"
  },
  "accessors": [
    {
      "name": "POSITION",
      "bufferView": 0,
      "componentType": 5126,
      "count": 216,
      "max": [
        -130.146728515625,
        9.7101325988769531,
        353.2781982421875
      ],
      "min": [
        -141.97024536132813,
        9.0909500122070313,
        343.75997924804688
      ],
      "type": "VEC3"
    },
    {
      "name": "NORMAL",
      "bufferView": 0,
      "byteOffset": 12,
      "componentType": 5126,
      "count": 216,
      "max": [
        0.19975531101226807,
        0.99998468160629272,
        0.051427353173494339
      ],
      "min": [
        -0.31339144706726074,
        0.91300052404403687,
        -0.36122032999992371
      ],
      "type": "VEC3"
    },
    {
      "name": "TEXCOORD_0",
      "bufferView": 0,
      "byteOffset": 24,
      "componentType": 5126,
      "count": 216,
      "max": [
        0.974609375,
        0.9990234375
      ],
      "min": [
        0.001953125,
        0.3037109375
      ],
      "type": "VEC2"
    },
    {
      "bufferView": 1,
      "componentType": 5123,
      "count": 708,
      "type": "SCALAR"
    }
  ],
  "bufferViews": [
    {
      "buffer": 0,
      "byteLength": 6912,
      "byteStride": 32,
      "target": 34962
    },
    {
      "buffer": 0,
      "byteLength": 1416,
      "byteOffset": 6912,
      "target": 34963
    }
  ],
  "buffers": [
    {
      "byteLength": 8328,
      "uri": "3060435073507072654547_LOD00.bin"
    }
  ],
  "images": [
    {
      "uri": "3060435073507072654547_LOD00.png"
    }
  ],
  "materials": [
    {
      "doubleSided": true,
      "pbrMetallicRoughness": {
        "baseColorTexture": {
          "index": 0
        },
        "metallicFactor": 0
      }
    }
  ],
  "meshes": [
    {
      "name": "3060435073507072654547_0",
      "primitives": [
        {
          "attributes": {
            "POSITION": 0,
            "NORMAL": 1,
            "TEXCOORD_0": 2
          },
          "indices": 3,
          "material": 0
        }
      ]
    }
  ],
  "nodes": [
    {
      "mesh": 0
    }
  ],
  "scene": 0,
  "scenes": [
    {
      "nodes": [
        0
      ]
    }
  ],
  "textures": [
    {
      "source": 0
    }
  ]
}