{
  "asset": {
    "copyright": "",
    "generator": "SharpGLTF 1.0.0",
    "version": "2.0"
  },
  "accessors": [
    {
      "name": "POSITION",
      "bufferView": 0,
      "componentType": 5126,
      "count": 878,
      "max": [
        -260.02090454101563,
        12.903199195861816,
        87.010238647460938
      ],
      "min": [
        -272.08291625976563,
        10.472682952880859,
        77.301589965820313
      ],
      "type": "VEC3"
    },
    {
      "name": "NORMAL",
      "bufferView": 0,
      "byteOffset": 12,
      "componentType": 5126,
      "count": 878,
      "max": [
        0.99931704998016357,
        0.99595338106155396,
        0.98337060213088989
      ],
      "min": [
        -0.99931967258453369,
        -0.98786920309066772,
        -0.99634939432144165
      ],
      "type": "VEC3"
    },
    {
      "name": "TEXCOORD_0",
      "bufferView": 0,
      "byteOffset": 24,
      "componentType": 5126,
      "count": 878,
      "max": [
        0.998046875,
        0.998046875
      ],
      "min": [
        0.001953125,
        0.048828125
      ],
      "type": "VEC2"
    },
    {
      "bufferView": 1,
      "componentType": 5123,
      "count": 2292,
      "type": "SCALAR"
    }
  ],
  "bufferViews": [
    {
      "buffer": 0,
      "byteLength": 28096,
      "byteStride": 32,
      "target": 34962
    },
    {
      "buffer": 0,
      "byteLength": 4584,
      "byteOffset": 28096,
      "target": 34963
    }
  ],
  "buffers": [
    {
      "byteLength": 32680,
      "uri": "3060435073507076100202_LOD00.bin"
    }
  ],
  "images": [
    {
      "uri": "3060435073507076100202_LOD00.png"
    }
  ],
  "materials": [
    {
      "doubleSided": true,
      "pbrMetallicRoughness": {
        "baseColorTexture": {
          "index": 0
        },
        "metallicFactor": 0
      }
    }
  ],
  "meshes": [
    {
      "name": "3060435073507076100202_0",
      "primitives": [
        {
          "attributes": {
            "POSITION": 0,
            "NORMAL": 1,
            "TEXCOORD_0": 2
          },
          "indices": 3,
          "material": 0
        }
      ]
    }
  ],
  "nodes": [
    {
      "mesh": 0
    }
  ],
  "scene": 0,
  "scenes": [
    {
      "nodes": [
        0
      ]
    }
  ],
  "textures": [
    {
      "source": 0
    }
  ]
}