{
  "asset": {
    "copyright": "",
    "generator": "SharpGLTF 1.0.0",
    "version": "2.0"
  },
  "accessors": [
    {
      "name": "POSITION",
      "bufferView": 0,
      "componentType": 5126,
      "count": 151,
      "max": [
        -94.599960327148438,
        92.922760009765625,
        191.65113830566406
      ],
      "min": [
        -95.648727416992188,
        83.678260803222656,
        191.07981872558594
      ],
      "type": "VEC3"
    },
    {
      "name": "NORMAL",
      "bufferView": 0,
      "byteOffset": 12,
      "componentType": 5126,
      "count": 151,
      "max": [
        -0.24218811094760895,
        0.3236735463142395,
        -0.59261095523834229
      ],
      "min": [
        -0.77923506498336792,
        -0.32928335666656494,
        -0.94748771190643311
      ],
      "type": "VEC3"
    },
    {
      "name": "TEXCOORD_0",
      "bufferView": 0,
      "byteOffset": 24,
      "componentType": 5126,
      "count": 151,
      "max": [
        0.978515625,
        0.998046875
      ],
      "min": [
        0.001953125,
        0.919921875
      ],
      "type": "VEC2"
    },
    {
      "bufferView": 1,
      "componentType": 5123,
      "count": 444,
      "type": "SCALAR"
    }
  ],
  "bufferViews": [
    {
      "buffer": 0,
      "byteLength": 4832,
      "byteStride": 32,
      "target": 34962
    },
    {
      "buffer": 0,
      "byteLength": 888,
      "byteOffset": 4832,
      "target": 34963
    }
  ],
  "buffers": [
    {
      "byteLength": 5720,
      "uri": "3060435073507076034010_LOD00.bin"
    }
  ],
  "images": [
    {
      "uri": "3060435073507076034010_LOD00.png"
    }
  ],
  "materials": [
    {
      "doubleSided": true,
      "pbrMetallicRoughness": {
        "baseColorTexture": {
          "index": 0
        },
        "metallicFactor": 0
      }
    }
  ],
  "meshes": [
    {
      "name": "3060435073507076034010_0",
      "primitives": [
        {
          "attributes": {
            "POSITION": 0,
            "NORMAL": 1,
            "TEXCOORD_0": 2
          },
          "indices": 3,
          "material": 0
        }
      ]
    }
  ],
  "nodes": [
    {
      "mesh": 0
    }
  ],
  "scene": 0,
  "scenes": [
    {
      "nodes": [
        0
      ]
    }
  ],
  "textures": [
    {
      "source": 0
    }
  ]
}