{
  "asset": {
    "copyright": "",
    "generator": "SharpGLTF 1.0.0",
    "version": "2.0"
  },
  "accessors": [
    {
      "name": "POSITION",
      "bufferView": 0,
      "componentType": 5126,
      "count": 309,
      "max": [
        -256.11038208007813,
        38.051139831542969,
        219.00477600097656
      ],
      "min": [
        -260.16259765625,
        28.854171752929688,
        213.91262817382813
      ],
      "type": "VEC3"
    },
    {
      "name": "NORMAL",
      "bufferView": 0,
      "byteOffset": 12,
      "componentType": 5126,
      "count": 309,
      "max": [
        0.98914802074432373,
        0.98667776584625244,
        0.99042487144470215
      ],
      "min": [
        -0.98830270767211914,
        -0.91752111911773682,
        -0.98823535442352295
      ],
      "type": "VEC3"
    },
    {
      "name": "TEXCOORD_0",
      "bufferView": 0,
      "byteOffset": 24,
      "componentType": 5126,
      "count": 309,
      "max": [
        0.998046875,
        0.767578125
      ],
      "min": [
        0.001953125,
        0.001953125
      ],
      "type": "VEC2"
    },
    {
      "bufferView": 1,
      "componentType": 5123,
      "count": 765,
      "type": "SCALAR"
    }
  ],
  "bufferViews": [
    {
      "buffer": 0,
      "byteLength": 9888,
      "byteStride": 32,
      "target": 34962
    },
    {
      "buffer": 0,
      "byteLength": 1530,
      "byteOffset": 9888,
      "target": 34963
    }
  ],
  "buffers": [
    {
      "byteLength": 11420,
      "uri": "3060435073507076031173_LOD00.bin"
    }
  ],
  "images": [
    {
      "uri": "3060435073507076031173_LOD00.png"
    }
  ],
  "materials": [
    {
      "doubleSided": true,
      "pbrMetallicRoughness": {
        "baseColorTexture": {
          "index": 0
        },
        "metallicFactor": 0
      }
    }
  ],
  "meshes": [
    {
      "name": "3060435073507076031173_0",
      "primitives": [
        {
          "attributes": {
            "POSITION": 0,
            "NORMAL": 1,
            "TEXCOORD_0": 2
          },
          "indices": 3,
          "material": 0
        }
      ]
    }
  ],
  "nodes": [
    {
      "mesh": 0
    }
  ],
  "scene": 0,
  "scenes": [
    {
      "nodes": [
        0
      ]
    }
  ],
  "textures": [
    {
      "source": 0
    }
  ]
}