{
  "asset": {
    "copyright": "",
    "generator": "SharpGLTF 1.0.0",
    "version": "2.0"
  },
  "accessors": [
    {
      "name": "POSITION",
      "bufferView": 0,
      "componentType": 5126,
      "count": 407,
      "max": [
        -136.735107421875,
        23.624448776245117,
        10.899775505065918
      ],
      "min": [
        -142.02751159667969,
        19.716928482055664,
        1.1438784599304199
      ],
      "type": "VEC3"
    },
    {
      "name": "NORMAL",
      "bufferView": 0,
      "byteOffset": 12,
      "componentType": 5126,
      "count": 407,
      "max": [
        0.99674028158187866,
        0.99440592527389526,
        0.93200445175170898
      ],
      "min": [
        -0.98739826679229736,
        -0.91560685634613037,
        -0.97187888622283936
      ],
      "type": "VEC3"
    },
    {
      "name": "TEXCOORD_0",
      "bufferView": 0,
      "byteOffset": 24,
      "componentType": 5126,
      "count": 407,
      "max": [
        0.998046875,
        0.998046875
      ],
      "min": [
        0.001953125,
        0.451171875
      ],
      "type": "VEC2"
    },
    {
      "bufferView": 1,
      "componentType": 5123,
      "count": 1071,
      "type": "SCALAR"
    }
  ],
  "bufferViews": [
    {
      "buffer": 0,
      "byteLength": 13024,
      "byteStride": 32,
      "target": 34962
    },
    {
      "buffer": 0,
      "byteLength": 2142,
      "byteOffset": 13024,
      "target": 34963
    }
  ],
  "buffers": [
    {
      "byteLength": 15168,
      "uri": "3060435073507074232307_LOD00.bin"
    }
  ],
  "images": [
    {
      "uri": "3060435073507074232307_LOD00.png"
    }
  ],
  "materials": [
    {
      "doubleSided": true,
      "pbrMetallicRoughness": {
        "baseColorTexture": {
          "index": 0
        },
        "metallicFactor": 0
      }
    }
  ],
  "meshes": [
    {
      "name": "3060435073507074232307_0",
      "primitives": [
        {
          "attributes": {
            "POSITION": 0,
            "NORMAL": 1,
            "TEXCOORD_0": 2
          },
          "indices": 3,
          "material": 0
        }
      ]
    }
  ],
  "nodes": [
    {
      "mesh": 0
    }
  ],
  "scene": 0,
  "scenes": [
    {
      "nodes": [
        0
      ]
    }
  ],
  "textures": [
    {
      "source": 0
    }
  ]
}