{
  "asset": {
    "copyright": "",
    "generator": "SharpGLTF 1.0.0",
    "version": "2.0"
  },
  "accessors": [
    {
      "name": "POSITION",
      "bufferView": 0,
      "componentType": 5126,
      "count": 1181,
      "max": [
        -236.51152038574219,
        19.89830207824707,
        391.47726440429688
      ],
      "min": [
        -245.09306335449219,
        10.462441444396973,
        381.76895141601563
      ],
      "type": "VEC3"
    },
    {
      "name": "NORMAL",
      "bufferView": 0,
      "byteOffset": 12,
      "componentType": 5126,
      "count": 1181,
      "max": [
        0.99600416421890259,
        0.99998408555984497,
        0.99915158748626709
      ],
      "min": [
        -0.99898451566696167,
        -0.99819153547286987,
        -0.99672532081604004
      ],
      "type": "VEC3"
    },
    {
      "name": "TEXCOORD_0",
      "bufferView": 0,
      "byteOffset": 24,
      "componentType": 5126,
      "count": 1181,
      "max": [
        0.998046875,
        0.9990234375
      ],
      "min": [
        0.001953125,
        0.0048828125
      ],
      "type": "VEC2"
    },
    {
      "bufferView": 1,
      "componentType": 5123,
      "count": 3039,
      "type": "SCALAR"
    },
    {
      "name": "POSITION",
      "bufferView": 0,
      "byteOffset": 37792,
      "componentType": 5126,
      "count": 167,
      "max": [
        -236.511474609375,
        19.754888534545898,
        391.47732543945313
      ],
      "min": [
        -244.80717468261719,
        10.462466239929199,
        381.8167724609375
      ],
      "type": "VEC3"
    },
    {
      "name": "NORMAL",
      "bufferView": 0,
      "byteOffset": 37804,
      "componentType": 5126,
      "count": 167,
      "max": [
        0.95938569307327271,
        0.95968163013458252,
        0.98192828893661499
      ],
      "min": [
        -0.99465829133987427,
        -0.97216612100601196,
        -0.95364058017730713
      ],
      "type": "VEC3"
    },
    {
      "name": "TEXCOORD_0",
      "bufferView": 0,
      "byteOffset": 37816,
      "componentType": 5126,
      "count": 167,
      "max": [
        0.990234375,
        0.998046875
      ],
      "min": [
        0.001953125,
        0.736328125
      ],
      "type": "VEC2"
    },
    {
      "bufferView": 1,
      "byteOffset": 6078,
      "componentType": 5123,
      "count": 453,
      "type": "SCALAR"
    }
  ],
  "bufferViews": [
    {
      "buffer": 0,
      "byteLength": 43136,
      "byteStride": 32,
      "target": 34962
    },
    {
      "buffer": 0,
      "byteLength": 6984,
      "byteOffset": 43136,
      "target": 34963
    }
  ],
  "buffers": [
    {
      "byteLength": 50120,
      "uri": "3060435073507076211312_LOD00.bin"
    }
  ],
  "images": [
    {
      "uri": "3060435073507076211312_LOD00_0.png"
    },
    {
      "uri": "3060435073507076211312_LOD00_1.png"
    }
  ],
  "materials": [
    {
      "doubleSided": true,
      "pbrMetallicRoughness": {
        "baseColorTexture": {
          "index": 0
        },
        "metallicFactor": 0
      }
    },
    {
      "doubleSided": true,
      "pbrMetallicRoughness": {
        "baseColorTexture": {
          "index": 1
        },
        "metallicFactor": 0
      }
    }
  ],
  "meshes": [
    {
      "name": "3060435073507076211312_0",
      "primitives": [
        {
          "attributes": {
            "POSITION": 0,
            "NORMAL": 1,
            "TEXCOORD_0": 2
          },
          "indices": 3,
          "material": 0
        }
      ]
    },
    {
      "name": "3060435073507076211312_1",
      "primitives": [
        {
          "attributes": {
            "POSITION": 4,
            "NORMAL": 5,
            "TEXCOORD_0": 6
          },
          "indices": 7,
          "material": 1
        }
      ]
    }
  ],
  "nodes": [
    {
      "mesh": 0
    },
    {
      "mesh": 1
    }
  ],
  "scene": 0,
  "scenes": [
    {
      "nodes": [
        0,
        1
      ]
    }
  ],
  "textures": [
    {
      "source": 0
    },
    {
      "source": 1
    }
  ]
}