{
  "asset": {
    "copyright": "",
    "generator": "SharpGLTF 1.0.0",
    "version": "2.0"
  },
  "accessors": [
    {
      "name": "POSITION",
      "bufferView": 0,
      "componentType": 5126,
      "count": 240,
      "max": [
        -130.1502685546875,
        34.957420349121094,
        226.41909790039063
      ],
      "min": [
        -131.5806884765625,
        28.762456893920898,
        220.08966064453125
      ],
      "type": "VEC3"
    },
    {
      "name": "NORMAL",
      "bufferView": 0,
      "byteOffset": 12,
      "componentType": 5126,
      "count": 240,
      "max": [
        0.99999231100082397,
        0.32839870452880859,
        0.32435929775238037
      ],
      "min": [
        -1.9941417122026905E-05,
        -0.72617602348327637,
        -0.99817019701004028
      ],
      "type": "VEC3"
    },
    {
      "name": "TEXCOORD_0",
      "bufferView": 0,
      "byteOffset": 24,
      "componentType": 5126,
      "count": 240,
      "max": [
        0.994140625,
        0.998046875
      ],
      "min": [
        0.001953125,
        0.767578125
      ],
      "type": "VEC2"
    },
    {
      "bufferView": 1,
      "componentType": 5123,
      "count": 693,
      "type": "SCALAR"
    }
  ],
  "bufferViews": [
    {
      "buffer": 0,
      "byteLength": 7680,
      "byteStride": 32,
      "target": 34962
    },
    {
      "buffer": 0,
      "byteLength": 1386,
      "byteOffset": 7680,
      "target": 34963
    }
  ],
  "buffers": [
    {
      "byteLength": 9068,
      "uri": "3060435073507076030341_LOD00.bin"
    }
  ],
  "images": [
    {
      "uri": "3060435073507076030341_LOD00.png"
    }
  ],
  "materials": [
    {
      "doubleSided": true,
      "pbrMetallicRoughness": {
        "baseColorTexture": {
          "index": 0
        },
        "metallicFactor": 0
      }
    }
  ],
  "meshes": [
    {
      "name": "3060435073507076030341_0",
      "primitives": [
        {
          "attributes": {
            "POSITION": 0,
            "NORMAL": 1,
            "TEXCOORD_0": 2
          },
          "indices": 3,
          "material": 0
        }
      ]
    }
  ],
  "nodes": [
    {
      "mesh": 0
    }
  ],
  "scene": 0,
  "scenes": [
    {
      "nodes": [
        0
      ]
    }
  ],
  "textures": [
    {
      "source": 0
    }
  ]
}