{
  "asset": {
    "copyright": "",
    "generator": "SharpGLTF 1.0.0",
    "version": "2.0"
  },
  "accessors": [
    {
      "name": "POSITION",
      "bufferView": 0,
      "componentType": 5126,
      "count": 387,
      "max": [
        -132.582763671875,
        38.055900573730469,
        191.55517578125
      ],
      "min": [
        -135.82472229003906,
        28.906417846679688,
        182.03700256347656
      ],
      "type": "VEC3"
    },
    {
      "name": "NORMAL",
      "bufferView": 0,
      "byteOffset": 12,
      "componentType": 5126,
      "count": 387,
      "max": [
        0.99999237060546875,
        0.2673223614692688,
        0.74017685651779175
      ],
      "min": [
        -0.5072476863861084,
        -0.51032978296279907,
        -0.99486273527145386
      ],
      "type": "VEC3"
    },
    {
      "name": "TEXCOORD_0",
      "bufferView": 0,
      "byteOffset": 24,
      "componentType": 5126,
      "count": 387,
      "max": [
        0.998046875,
        0.998046875
      ],
      "min": [
        0.001953125,
        0.025390625
      ],
      "type": "VEC2"
    },
    {
      "bufferView": 1,
      "componentType": 5123,
      "count": 1122,
      "type": "SCALAR"
    }
  ],
  "bufferViews": [
    {
      "buffer": 0,
      "byteLength": 12384,
      "byteStride": 32,
      "target": 34962
    },
    {
      "buffer": 0,
      "byteLength": 2244,
      "byteOffset": 12384,
      "target": 34963
    }
  ],
  "buffers": [
    {
      "byteLength": 14628,
      "uri": "3060435073507076030141_LOD00.bin"
    }
  ],
  "images": [
    {
      "uri": "3060435073507076030141_LOD00.png"
    }
  ],
  "materials": [
    {
      "doubleSided": true,
      "pbrMetallicRoughness": {
        "baseColorTexture": {
          "index": 0
        },
        "metallicFactor": 0
      }
    }
  ],
  "meshes": [
    {
      "name": "3060435073507076030141_0",
      "primitives": [
        {
          "attributes": {
            "POSITION": 0,
            "NORMAL": 1,
            "TEXCOORD_0": 2
          },
          "indices": 3,
          "material": 0
        }
      ]
    }
  ],
  "nodes": [
    {
      "mesh": 0
    }
  ],
  "scene": 0,
  "scenes": [
    {
      "nodes": [
        0
      ]
    }
  ],
  "textures": [
    {
      "source": 0
    }
  ]
}