{
  "asset": {
    "copyright": "",
    "generator": "SharpGLTF 1.0.0",
    "version": "2.0"
  },
  "accessors": [
    {
      "name": "POSITION",
      "bufferView": 0,
      "componentType": 5126,
      "count": 170,
      "max": [
        -226.27995300292969,
        1.6208343505859375,
        67.886489868164063
      ],
      "min": [
        -231.8587646484375,
        -7.6714253425598145,
        58.321159362792969
      ],
      "type": "VEC3"
    },
    {
      "name": "NORMAL",
      "bufferView": 0,
      "byteOffset": 12,
      "componentType": 5126,
      "count": 170,
      "max": [
        -0.7077147364616394,
        0.0055384496226906776,
        0.70647662878036499
      ],
      "min": [
        -0.96851497888565063,
        -0.0055811335332691669,
        0.24890834093093872
      ],
      "type": "VEC3"
    },
    {
      "name": "TEXCOORD_0",
      "bufferView": 0,
      "byteOffset": 24,
      "componentType": 5126,
      "count": 170,
      "max": [
        0.818359375,
        0.998046875
      ],
      "min": [
        0.001953125,
        0.005859375
      ],
      "type": "VEC2"
    },
    {
      "bufferView": 1,
      "componentType": 5123,
      "count": 513,
      "type": "SCALAR"
    }
  ],
  "bufferViews": [
    {
      "buffer": 0,
      "byteLength": 5440,
      "byteStride": 32,
      "target": 34962
    },
    {
      "buffer": 0,
      "byteLength": 1026,
      "byteOffset": 5440,
      "target": 34963
    }
  ],
  "buffers": [
    {
      "byteLength": 6468,
      "uri": "3060435073507072455563_LOD00.bin"
    }
  ],
  "images": [
    {
      "uri": "3060435073507072455563_LOD00.png"
    }
  ],
  "materials": [
    {
      "doubleSided": true,
      "pbrMetallicRoughness": {
        "baseColorTexture": {
          "index": 0
        },
        "metallicFactor": 0
      }
    }
  ],
  "meshes": [
    {
      "name": "3060435073507072455563_0",
      "primitives": [
        {
          "attributes": {
            "POSITION": 0,
            "NORMAL": 1,
            "TEXCOORD_0": 2
          },
          "indices": 3,
          "material": 0
        }
      ]
    }
  ],
  "nodes": [
    {
      "mesh": 0
    }
  ],
  "scene": 0,
  "scenes": [
    {
      "nodes": [
        0
      ]
    }
  ],
  "textures": [
    {
      "source": 0
    }
  ]
}