{
  "asset": {
    "copyright": "",
    "generator": "SharpGLTF 1.0.0",
    "version": "2.0"
  },
  "accessors": [
    {
      "name": "POSITION",
      "bufferView": 0,
      "componentType": 5126,
      "count": 196,
      "max": [
        -153.78582763671875,
        41.429767608642578,
        305.71435546875
      ],
      "min": [
        -159.31643676757813,
        37.998306274414063,
        296.19625854492188
      ],
      "type": "VEC3"
    },
    {
      "name": "NORMAL",
      "bufferView": 0,
      "byteOffset": 12,
      "componentType": 5126,
      "count": 196,
      "max": [
        -0.0039783399552106857,
        0.99998456239700317,
        0.17624206840991974
      ],
      "min": [
        -0.9897921085357666,
        -0.79375040531158447,
        -0.0039010921027511358
      ],
      "type": "VEC3"
    },
    {
      "name": "TEXCOORD_0",
      "bufferView": 0,
      "byteOffset": 24,
      "componentType": 5126,
      "count": 196,
      "max": [
        0.998046875,
        0.998046875
      ],
      "min": [
        0.001953125,
        0.177734375
      ],
      "type": "VEC2"
    },
    {
      "bufferView": 1,
      "componentType": 5123,
      "count": 645,
      "type": "SCALAR"
    }
  ],
  "bufferViews": [
    {
      "buffer": 0,
      "byteLength": 6272,
      "byteStride": 32,
      "target": 34962
    },
    {
      "buffer": 0,
      "byteLength": 1290,
      "byteOffset": 6272,
      "target": 34963
    }
  ],
  "buffers": [
    {
      "byteLength": 7564,
      "uri": "3060435073507076032355_LOD00.bin"
    }
  ],
  "images": [
    {
      "uri": "3060435073507076032355_LOD00.png"
    }
  ],
  "materials": [
    {
      "doubleSided": true,
      "pbrMetallicRoughness": {
        "baseColorTexture": {
          "index": 0
        },
        "metallicFactor": 0
      }
    }
  ],
  "meshes": [
    {
      "name": "3060435073507076032355_0",
      "primitives": [
        {
          "attributes": {
            "POSITION": 0,
            "NORMAL": 1,
            "TEXCOORD_0": 2
          },
          "indices": 3,
          "material": 0
        }
      ]
    }
  ],
  "nodes": [
    {
      "mesh": 0
    }
  ],
  "scene": 0,
  "scenes": [
    {
      "nodes": [
        0
      ]
    }
  ],
  "textures": [
    {
      "source": 0
    }
  ]
}