{
  "asset": {
    "copyright": "",
    "generator": "SharpGLTF 1.0.0",
    "version": "2.0"
  },
  "accessors": [
    {
      "name": "POSITION",
      "bufferView": 0,
      "componentType": 5126,
      "count": 702,
      "max": [
        -47.419109344482422,
        15.814058303833008,
        144.130126953125
      ],
      "min": [
        -59.242965698242188,
        10.477076530456543,
        134.3741455078125
      ],
      "type": "VEC3"
    },
    {
      "name": "NORMAL",
      "bufferView": 0,
      "byteOffset": 12,
      "componentType": 5126,
      "count": 702,
      "max": [
        0.91673558950424194,
        0.99998456239700317,
        0.99526089429855347
      ],
      "min": [
        -0.91589093208312988,
        -0.99510562419891357,
        -0.98336136341094971
      ],
      "type": "VEC3"
    },
    {
      "name": "TEXCOORD_0",
      "bufferView": 0,
      "byteOffset": 24,
      "componentType": 5126,
      "count": 702,
      "max": [
        0.998046875,
        0.9990234375
      ],
      "min": [
        0.001953125,
        0.0068359375
      ],
      "type": "VEC2"
    },
    {
      "bufferView": 1,
      "componentType": 5123,
      "count": 1911,
      "type": "SCALAR"
    },
    {
      "name": "POSITION",
      "bufferView": 0,
      "byteOffset": 22464,
      "componentType": 5126,
      "count": 58,
      "max": [
        -47.419105529785156,
        15.194574356079102,
        144.03480529785156
      ],
      "min": [
        -55.619499206542969,
        10.572370529174805,
        135.61146545410156
      ],
      "type": "VEC3"
    },
    {
      "name": "NORMAL",
      "bufferView": 0,
      "byteOffset": 22476,
      "componentType": 5126,
      "count": 58,
      "max": [
        0.70727205276489258,
        0.99897217750549316,
        0.99526089429855347
      ],
      "min": [
        -0.69915992021560669,
        -0.92363756895065308,
        -0.6358797550201416
      ],
      "type": "VEC3"
    },
    {
      "name": "TEXCOORD_0",
      "bufferView": 0,
      "byteOffset": 22488,
      "componentType": 5126,
      "count": 58,
      "max": [
        0.998046875,
        0.998046875
      ],
      "min": [
        0.001953125,
        0.701171875
      ],
      "type": "VEC2"
    },
    {
      "bufferView": 1,
      "byteOffset": 3822,
      "componentType": 5123,
      "count": 159,
      "type": "SCALAR"
    }
  ],
  "bufferViews": [
    {
      "buffer": 0,
      "byteLength": 24320,
      "byteStride": 32,
      "target": 34962
    },
    {
      "buffer": 0,
      "byteLength": 4140,
      "byteOffset": 24320,
      "target": 34963
    }
  ],
  "buffers": [
    {
      "byteLength": 28460,
      "uri": "3060435073507076003132_LOD00.bin"
    }
  ],
  "images": [
    {
      "uri": "3060435073507076003132_LOD00_0.png"
    },
    {
      "uri": "3060435073507076003132_LOD00_1.png"
    }
  ],
  "materials": [
    {
      "doubleSided": true,
      "pbrMetallicRoughness": {
        "baseColorTexture": {
          "index": 0
        },
        "metallicFactor": 0
      }
    },
    {
      "doubleSided": true,
      "pbrMetallicRoughness": {
        "baseColorTexture": {
          "index": 1
        },
        "metallicFactor": 0
      }
    }
  ],
  "meshes": [
    {
      "name": "3060435073507076003132_0",
      "primitives": [
        {
          "attributes": {
            "POSITION": 0,
            "NORMAL": 1,
            "TEXCOORD_0": 2
          },
          "indices": 3,
          "material": 0
        }
      ]
    },
    {
      "name": "3060435073507076003132_1",
      "primitives": [
        {
          "attributes": {
            "POSITION": 4,
            "NORMAL": 5,
            "TEXCOORD_0": 6
          },
          "indices": 7,
          "material": 1
        }
      ]
    }
  ],
  "nodes": [
    {
      "mesh": 0
    },
    {
      "mesh": 1
    }
  ],
  "scene": 0,
  "scenes": [
    {
      "nodes": [
        0,
        1
      ]
    }
  ],
  "textures": [
    {
      "source": 0
    },
    {
      "source": 1
    }
  ]
}