{
  "asset": {
    "copyright": "",
    "generator": "SharpGLTF 1.0.0",
    "version": "2.0"
  },
  "accessors": [
    {
      "name": "POSITION",
      "bufferView": 0,
      "componentType": 5126,
      "count": 614,
      "max": [
        11.770868301391602,
        10.623091697692871,
        220.23504638671875
      ],
      "min": [
        -0.2910858690738678,
        9.765233039855957,
        210.5743408203125
      ],
      "type": "VEC3"
    },
    {
      "name": "NORMAL",
      "bufferView": 0,
      "byteOffset": 12,
      "componentType": 5126,
      "count": 614,
      "max": [
        0.97086447477340698,
        0.9999845027923584,
        0.66185009479522705
      ],
      "min": [
        -0.44584551453590393,
        -0.33116269111633301,
        -0.94268375635147095
      ],
      "type": "VEC3"
    },
    {
      "name": "TEXCOORD_0",
      "bufferView": 0,
      "byteOffset": 24,
      "componentType": 5126,
      "count": 614,
      "max": [
        0.998046875,
        0.998046875
      ],
      "min": [
        0.001953125,
        0.244140625
      ],
      "type": "VEC2"
    },
    {
      "bufferView": 1,
      "componentType": 5123,
      "count": 1725,
      "type": "SCALAR"
    }
  ],
  "bufferViews": [
    {
      "buffer": 0,
      "byteLength": 19648,
      "byteStride": 32,
      "target": 34962
    },
    {
      "buffer": 0,
      "byteLength": 3450,
      "byteOffset": 19648,
      "target": 34963
    }
  ],
  "buffers": [
    {
      "byteLength": 23100,
      "uri": "3060435073507072465467_LOD00.bin"
    }
  ],
  "images": [
    {
      "uri": "3060435073507072465467_LOD00.png"
    }
  ],
  "materials": [
    {
      "doubleSided": true,
      "pbrMetallicRoughness": {
        "baseColorTexture": {
          "index": 0
        },
        "metallicFactor": 0
      }
    }
  ],
  "meshes": [
    {
      "name": "3060435073507072465467_0",
      "primitives": [
        {
          "attributes": {
            "POSITION": 0,
            "NORMAL": 1,
            "TEXCOORD_0": 2
          },
          "indices": 3,
          "material": 0
        }
      ]
    }
  ],
  "nodes": [
    {
      "mesh": 0
    }
  ],
  "scene": 0,
  "scenes": [
    {
      "nodes": [
        0
      ]
    }
  ],
  "textures": [
    {
      "source": 0
    }
  ]
}