{
  "asset": {
    "copyright": "",
    "generator": "SharpGLTF 1.0.0",
    "version": "2.0"
  },
  "accessors": [
    {
      "name": "POSITION",
      "bufferView": 0,
      "componentType": 5126,
      "count": 756,
      "max": [
        -212.87405395507813,
        10.70658016204834,
        400.84689331054688
      ],
      "min": [
        -224.69770812988281,
        6.6078615188598633,
        391.185791015625
      ],
      "type": "VEC3"
    },
    {
      "name": "NORMAL",
      "bufferView": 0,
      "byteOffset": 12,
      "componentType": 5126,
      "count": 756,
      "max": [
        0.99050456285476685,
        0.9999847412109375,
        0.99817067384719849
      ],
      "min": [
        -0.94472157955169678,
        -0.9981997013092041,
        -0.98973101377487183
      ],
      "type": "VEC3"
    },
    {
      "name": "TEXCOORD_0",
      "bufferView": 0,
      "byteOffset": 24,
      "componentType": 5126,
      "count": 756,
      "max": [
        0.998046875,
        0.9990234375
      ],
      "min": [
        0.001953125,
        0.0029296875
      ],
      "type": "VEC2"
    },
    {
      "bufferView": 1,
      "componentType": 5123,
      "count": 2010,
      "type": "SCALAR"
    },
    {
      "name": "POSITION",
      "bufferView": 0,
      "byteOffset": 24192,
      "componentType": 5126,
      "count": 13,
      "max": [
        -218.78610229492188,
        10.611055374145508,
        393.7559814453125
      ],
      "min": [
        -223.02902221679688,
        9.7054119110107422,
        391.89996337890625
      ],
      "type": "VEC3"
    },
    {
      "name": "NORMAL",
      "bufferView": 0,
      "byteOffset": 24204,
      "componentType": 5126,
      "count": 13,
      "max": [
        0.14627732336521149,
        0.9999842643737793,
        0.98286986351013184
      ],
      "min": [
        -0.46879923343658447,
        -0.1121152862906456,
        0.0040081692859530449
      ],
      "type": "VEC3"
    },
    {
      "name": "TEXCOORD_0",
      "bufferView": 0,
      "byteOffset": 24216,
      "componentType": 5126,
      "count": 13,
      "max": [
        0.271484375,
        0.998046875
      ],
      "min": [
        0.001953125,
        0.857421875
      ],
      "type": "VEC2"
    },
    {
      "bufferView": 1,
      "byteOffset": 4020,
      "componentType": 5123,
      "count": 27,
      "type": "SCALAR"
    }
  ],
  "bufferViews": [
    {
      "buffer": 0,
      "byteLength": 24608,
      "byteStride": 32,
      "target": 34962
    },
    {
      "buffer": 0,
      "byteLength": 4074,
      "byteOffset": 24608,
      "target": 34963
    }
  ],
  "buffers": [
    {
      "byteLength": 28684,
      "uri": "3060435073507072655764_LOD00.bin"
    }
  ],
  "images": [
    {
      "uri": "3060435073507072655764_LOD00_0.png"
    },
    {
      "uri": "3060435073507072655764_LOD00_1.png"
    }
  ],
  "materials": [
    {
      "doubleSided": true,
      "pbrMetallicRoughness": {
        "baseColorTexture": {
          "index": 0
        },
        "metallicFactor": 0
      }
    },
    {
      "doubleSided": true,
      "pbrMetallicRoughness": {
        "baseColorTexture": {
          "index": 1
        },
        "metallicFactor": 0
      }
    }
  ],
  "meshes": [
    {
      "name": "3060435073507072655764_0",
      "primitives": [
        {
          "attributes": {
            "POSITION": 0,
            "NORMAL": 1,
            "TEXCOORD_0": 2
          },
          "indices": 3,
          "material": 0
        }
      ]
    },
    {
      "name": "3060435073507072655764_1",
      "primitives": [
        {
          "attributes": {
            "POSITION": 4,
            "NORMAL": 5,
            "TEXCOORD_0": 6
          },
          "indices": 7,
          "material": 1
        }
      ]
    }
  ],
  "nodes": [
    {
      "mesh": 0
    },
    {
      "mesh": 1
    }
  ],
  "scene": 0,
  "scenes": [
    {
      "nodes": [
        0,
        1
      ]
    }
  ],
  "textures": [
    {
      "source": 0
    },
    {
      "source": 1
    }
  ]
}