{
  "asset": {
    "copyright": "",
    "generator": "SharpGLTF 1.0.0",
    "version": "2.0"
  },
  "accessors": [
    {
      "name": "POSITION",
      "bufferView": 0,
      "componentType": 5126,
      "count": 251,
      "max": [
        -35.599163055419922,
        10.380943298339844,
        305.80587768554688
      ],
      "min": [
        -47.422615051269531,
        8.3322181701660156,
        296.19271850585938
      ],
      "type": "VEC3"
    },
    {
      "name": "NORMAL",
      "bufferView": 0,
      "byteOffset": 12,
      "componentType": 5126,
      "count": 251,
      "max": [
        0.42377763986587524,
        0.99998462200164795,
        0.36131495237350464
      ],
      "min": [
        -0.2395436018705368,
        0.8088805079460144,
        -0.5879473090171814
      ],
      "type": "VEC3"
    },
    {
      "name": "TEXCOORD_0",
      "bufferView": 0,
      "byteOffset": 24,
      "componentType": 5126,
      "count": 251,
      "max": [
        0.986328125,
        0.9990234375
      ],
      "min": [
        0.001953125,
        0.3720703125
      ],
      "type": "VEC2"
    },
    {
      "bufferView": 1,
      "componentType": 5123,
      "count": 837,
      "type": "SCALAR"
    }
  ],
  "bufferViews": [
    {
      "buffer": 0,
      "byteLength": 8032,
      "byteStride": 32,
      "target": 34962
    },
    {
      "buffer": 0,
      "byteLength": 1674,
      "byteOffset": 8032,
      "target": 34963
    }
  ],
  "buffers": [
    {
      "byteLength": 9708,
      "uri": "3060435073507072467745_LOD00.bin"
    }
  ],
  "images": [
    {
      "uri": "3060435073507072467745_LOD00.png"
    }
  ],
  "materials": [
    {
      "doubleSided": true,
      "pbrMetallicRoughness": {
        "baseColorTexture": {
          "index": 0
        },
        "metallicFactor": 0
      }
    }
  ],
  "meshes": [
    {
      "name": "3060435073507072467745_0",
      "primitives": [
        {
          "attributes": {
            "POSITION": 0,
            "NORMAL": 1,
            "TEXCOORD_0": 2
          },
          "indices": 3,
          "material": 0
        }
      ]
    }
  ],
  "nodes": [
    {
      "mesh": 0
    }
  ],
  "scene": 0,
  "scenes": [
    {
      "nodes": [
        0
      ]
    }
  ],
  "textures": [
    {
      "source": 0
    }
  ]
}