{
  "asset": {
    "copyright": "",
    "generator": "SharpGLTF 1.0.0",
    "version": "2.0"
  },
  "accessors": [
    {
      "name": "POSITION",
      "bufferView": 0,
      "componentType": 5126,
      "count": 392,
      "max": [
        -216.36477661132813,
        10.621208190917969,
        163.06562805175781
      ],
      "min": [
        -224.85099792480469,
        9.3343935012817383,
        153.45252990722656
      ],
      "type": "VEC3"
    },
    {
      "name": "NORMAL",
      "bufferView": 0,
      "byteOffset": 12,
      "componentType": 5126,
      "count": 392,
      "max": [
        0.99636799097061157,
        0.99998420476913452,
        0.88287156820297241
      ],
      "min": [
        -0.92990809679031372,
        -0.30543389916419983,
        -0.98824745416641235
      ],
      "type": "VEC3"
    },
    {
      "name": "TEXCOORD_0",
      "bufferView": 0,
      "byteOffset": 24,
      "componentType": 5126,
      "count": 392,
      "max": [
        0.998046875,
        0.998046875
      ],
      "min": [
        0.001953125,
        0.509765625
      ],
      "type": "VEC2"
    },
    {
      "bufferView": 1,
      "componentType": 5123,
      "count": 1167,
      "type": "SCALAR"
    }
  ],
  "bufferViews": [
    {
      "buffer": 0,
      "byteLength": 12544,
      "byteStride": 32,
      "target": 34962
    },
    {
      "buffer": 0,
      "byteLength": 2334,
      "byteOffset": 12544,
      "target": 34963
    }
  ],
  "buffers": [
    {
      "byteLength": 14880,
      "uri": "3060435073507072457746_LOD00.bin"
    }
  ],
  "images": [
    {
      "uri": "3060435073507072457746_LOD00.png"
    }
  ],
  "materials": [
    {
      "doubleSided": true,
      "pbrMetallicRoughness": {
        "baseColorTexture": {
          "index": 0
        },
        "metallicFactor": 0
      }
    }
  ],
  "meshes": [
    {
      "name": "3060435073507072457746_0",
      "primitives": [
        {
          "attributes": {
            "POSITION": 0,
            "NORMAL": 1,
            "TEXCOORD_0": 2
          },
          "indices": 3,
          "material": 0
        }
      ]
    }
  ],
  "nodes": [
    {
      "mesh": 0
    }
  ],
  "scene": 0,
  "scenes": [
    {
      "nodes": [
        0
      ]
    }
  ],
  "textures": [
    {
      "source": 0
    }
  ]
}