{
  "asset": {
    "copyright": "",
    "generator": "SharpGLTF 1.0.0",
    "version": "2.0"
  },
  "accessors": [
    {
      "name": "POSITION",
      "bufferView": 0,
      "componentType": 5126,
      "count": 162,
      "max": [
        -118.18653106689453,
        10.33284854888916,
        305.712158203125
      ],
      "min": [
        -130.15293884277344,
        9.522191047668457,
        296.19393920898438
      ],
      "type": "VEC3"
    },
    {
      "name": "NORMAL",
      "bufferView": 0,
      "byteOffset": 12,
      "componentType": 5126,
      "count": 162,
      "max": [
        0.0039360099472105503,
        0.99998468160629272,
        0.12361696362495422
      ],
      "min": [
        -0.90449482202529907,
        -1,
        -0.093473836779594421
      ],
      "type": "VEC3"
    },
    {
      "name": "TEXCOORD_0",
      "bufferView": 0,
      "byteOffset": 24,
      "componentType": 5126,
      "count": 162,
      "max": [
        0.998046875,
        0.998046875
      ],
      "min": [
        0.001953125,
        0.037109375
      ],
      "type": "VEC2"
    },
    {
      "bufferView": 1,
      "componentType": 5123,
      "count": 465,
      "type": "SCALAR"
    }
  ],
  "bufferViews": [
    {
      "buffer": 0,
      "byteLength": 5184,
      "byteStride": 32,
      "target": 34962
    },
    {
      "buffer": 0,
      "byteLength": 930,
      "byteOffset": 5184,
      "target": 34963
    }
  ],
  "buffers": [
    {
      "byteLength": 6116,
      "uri": "3060435073507072476744_LOD00.bin"
    }
  ],
  "images": [
    {
      "uri": "3060435073507072476744_LOD00.png"
    }
  ],
  "materials": [
    {
      "doubleSided": true,
      "pbrMetallicRoughness": {
        "baseColorTexture": {
          "index": 0
        },
        "metallicFactor": 0
      }
    }
  ],
  "meshes": [
    {
      "name": "3060435073507072476744_0",
      "primitives": [
        {
          "attributes": {
            "POSITION": 0,
            "NORMAL": 1,
            "TEXCOORD_0": 2
          },
          "indices": 3,
          "material": 0
        }
      ]
    }
  ],
  "nodes": [
    {
      "mesh": 0
    }
  ],
  "scene": 0,
  "scenes": [
    {
      "nodes": [
        0
      ]
    }
  ],
  "textures": [
    {
      "source": 0
    }
  ]
}