{
  "asset": {
    "copyright": "",
    "generator": "SharpGLTF 1.0.0",
    "version": "2.0"
  },
  "accessors": [
    {
      "name": "POSITION",
      "bufferView": 0,
      "componentType": 5126,
      "count": 688,
      "max": [
        -71.057670593261719,
        10.625541687011719,
        96.564537048339844
      ],
      "min": [
        -82.929267883300781,
        9.386479377746582,
        86.761001586914063
      ],
      "type": "VEC3"
    },
    {
      "name": "NORMAL",
      "bufferView": 0,
      "byteOffset": 12,
      "componentType": 5126,
      "count": 688,
      "max": [
        0.75990259647369385,
        0.99998444318771362,
        0.92363917827606201
      ],
      "min": [
        -0.95979893207550049,
        -0.97515100240707397,
        -0.99425983428955078
      ],
      "type": "VEC3"
    },
    {
      "name": "TEXCOORD_0",
      "bufferView": 0,
      "byteOffset": 24,
      "componentType": 5126,
      "count": 688,
      "max": [
        0.998046875,
        0.998046875
      ],
      "min": [
        0.001953125,
        0.310546875
      ],
      "type": "VEC2"
    },
    {
      "bufferView": 1,
      "componentType": 5123,
      "count": 1893,
      "type": "SCALAR"
    }
  ],
  "bufferViews": [
    {
      "buffer": 0,
      "byteLength": 22016,
      "byteStride": 32,
      "target": 34962
    },
    {
      "buffer": 0,
      "byteLength": 3786,
      "byteOffset": 22016,
      "target": 34963
    }
  ],
  "buffers": [
    {
      "byteLength": 25804,
      "uri": "3060435073507072454664_LOD00.bin"
    }
  ],
  "images": [
    {
      "uri": "3060435073507072454664_LOD00.png"
    }
  ],
  "materials": [
    {
      "doubleSided": true,
      "pbrMetallicRoughness": {
        "baseColorTexture": {
          "index": 0
        },
        "metallicFactor": 0
      }
    }
  ],
  "meshes": [
    {
      "name": "3060435073507072454664_0",
      "primitives": [
        {
          "attributes": {
            "POSITION": 0,
            "NORMAL": 1,
            "TEXCOORD_0": 2
          },
          "indices": 3,
          "material": 0
        }
      ]
    }
  ],
  "nodes": [
    {
      "mesh": 0
    }
  ],
  "scene": 0,
  "scenes": [
    {
      "nodes": [
        0
      ]
    }
  ],
  "textures": [
    {
      "source": 0
    }
  ]
}