{
  "asset": {
    "copyright": "",
    "generator": "SharpGLTF 1.0.0",
    "version": "2.0"
  },
  "accessors": [
    {
      "name": "POSITION",
      "bufferView": 0,
      "componentType": 5126,
      "count": 111,
      "max": [
        -82.825660705566406,
        14.616337776184082,
        320.8829345703125
      ],
      "min": [
        -94.696678161621094,
        10.47042179107666,
        315.12448120117188
      ],
      "type": "VEC3"
    },
    {
      "name": "NORMAL",
      "bufferView": 0,
      "byteOffset": 12,
      "componentType": 5126,
      "count": 111,
      "max": [
        0.66252928972244263,
        0.99596863985061646,
        0.94948941469192505
      ],
      "min": [
        -0.96976602077484131,
        -0.48212993144989014,
        -0.38596257567405701
      ],
      "type": "VEC3"
    },
    {
      "name": "TEXCOORD_0",
      "bufferView": 0,
      "byteOffset": 24,
      "componentType": 5126,
      "count": 111,
      "max": [
        0.982421875,
        0.998046875
      ],
      "min": [
        0.001953125,
        0.728515625
      ],
      "type": "VEC2"
    },
    {
      "bufferView": 1,
      "componentType": 5123,
      "count": 261,
      "type": "SCALAR"
    }
  ],
  "bufferViews": [
    {
      "buffer": 0,
      "byteLength": 3552,
      "byteStride": 32,
      "target": 34962
    },
    {
      "buffer": 0,
      "byteLength": 522,
      "byteOffset": 3552,
      "target": 34963
    }
  ],
  "buffers": [
    {
      "byteLength": 4076,
      "uri": "3060435073507076032221_LOD00.bin"
    }
  ],
  "images": [
    {
      "uri": "3060435073507076032221_LOD00.png"
    }
  ],
  "materials": [
    {
      "doubleSided": true,
      "pbrMetallicRoughness": {
        "baseColorTexture": {
          "index": 0
        },
        "metallicFactor": 0
      }
    }
  ],
  "meshes": [
    {
      "name": "3060435073507076032221_0",
      "primitives": [
        {
          "attributes": {
            "POSITION": 0,
            "NORMAL": 1,
            "TEXCOORD_0": 2
          },
          "indices": 3,
          "material": 0
        }
      ]
    }
  ],
  "nodes": [
    {
      "mesh": 0
    }
  ],
  "scene": 0,
  "scenes": [
    {
      "nodes": [
        0
      ]
    }
  ],
  "textures": [
    {
      "source": 0
    }
  ]
}