{
  "asset": {
    "copyright": "",
    "generator": "SharpGLTF 1.0.0",
    "version": "2.0"
  },
  "accessors": [
    {
      "name": "POSITION",
      "bufferView": 0,
      "componentType": 5126,
      "count": 465,
      "max": [
        -84.112594604492188,
        23.091892242431641,
        349.61325073242188
      ],
      "min": [
        -93.361434936523438,
        19.661163330078125,
        343.66448974609375
      ],
      "type": "VEC3"
    },
    {
      "name": "NORMAL",
      "bufferView": 0,
      "byteOffset": 12,
      "componentType": 5126,
      "count": 465,
      "max": [
        0.99044078588485718,
        0.99439191818237305,
        0.99365532398223877
      ],
      "min": [
        -0.98979401588439941,
        -0.63595712184906006,
        -0.96992415189743042
      ],
      "type": "VEC3"
    },
    {
      "name": "TEXCOORD_0",
      "bufferView": 0,
      "byteOffset": 24,
      "componentType": 5126,
      "count": 465,
      "max": [
        0.998046875,
        0.998046875
      ],
      "min": [
        0.001953125,
        0.228515625
      ],
      "type": "VEC2"
    },
    {
      "bufferView": 1,
      "componentType": 5123,
      "count": 1161,
      "type": "SCALAR"
    }
  ],
  "bufferViews": [
    {
      "buffer": 0,
      "byteLength": 14880,
      "byteStride": 32,
      "target": 34962
    },
    {
      "buffer": 0,
      "byteLength": 2322,
      "byteOffset": 14880,
      "target": 34963
    }
  ],
  "buffers": [
    {
      "byteLength": 17204,
      "uri": "3060435073507076210007_LOD00.bin"
    }
  ],
  "images": [
    {
      "uri": "3060435073507076210007_LOD00.png"
    }
  ],
  "materials": [
    {
      "doubleSided": true,
      "pbrMetallicRoughness": {
        "baseColorTexture": {
          "index": 0
        },
        "metallicFactor": 0
      }
    }
  ],
  "meshes": [
    {
      "name": "3060435073507076210007_0",
      "primitives": [
        {
          "attributes": {
            "POSITION": 0,
            "NORMAL": 1,
            "TEXCOORD_0": 2
          },
          "indices": 3,
          "material": 0
        }
      ]
    }
  ],
  "nodes": [
    {
      "mesh": 0
    }
  ],
  "scene": 0,
  "scenes": [
    {
      "nodes": [
        0
      ]
    }
  ],
  "textures": [
    {
      "source": 0
    }
  ]
}