{
  "asset": {
    "copyright": "",
    "generator": "SharpGLTF 1.0.0",
    "version": "2.0"
  },
  "accessors": [
    {
      "name": "POSITION",
      "bufferView": 0,
      "componentType": 5126,
      "count": 127,
      "max": [
        -189.10700988769531,
        19.863037109375,
        68.028129577636719
      ],
      "min": [
        -194.30366516113281,
        12.429461479187012,
        63.459335327148438
      ],
      "type": "VEC3"
    },
    {
      "name": "NORMAL",
      "bufferView": 0,
      "byteOffset": 12,
      "componentType": 5126,
      "count": 127,
      "max": [
        0.7017938494682312,
        0.40646049380302429,
        0.70060443878173828
      ],
      "min": [
        -0.69802558422088623,
        -0.5070418119430542,
        -0.79706251621246338
      ],
      "type": "VEC3"
    },
    {
      "name": "TEXCOORD_0",
      "bufferView": 0,
      "byteOffset": 24,
      "componentType": 5126,
      "count": 127,
      "max": [
        0.896484375,
        0.998046875
      ],
      "min": [
        0.001953125,
        0.517578125
      ],
      "type": "VEC2"
    },
    {
      "bufferView": 1,
      "componentType": 5123,
      "count": 375,
      "type": "SCALAR"
    }
  ],
  "bufferViews": [
    {
      "buffer": 0,
      "byteLength": 4064,
      "byteStride": 32,
      "target": 34962
    },
    {
      "buffer": 0,
      "byteLength": 750,
      "byteOffset": 4064,
      "target": 34963
    }
  ],
  "buffers": [
    {
      "byteLength": 4816,
      "uri": "3060435073507076011032_LOD00.bin"
    }
  ],
  "images": [
    {
      "uri": "3060435073507076011032_LOD00.png"
    }
  ],
  "materials": [
    {
      "doubleSided": true,
      "pbrMetallicRoughness": {
        "baseColorTexture": {
          "index": 0
        },
        "metallicFactor": 0
      }
    }
  ],
  "meshes": [
    {
      "name": "3060435073507076011032_0",
      "primitives": [
        {
          "attributes": {
            "POSITION": 0,
            "NORMAL": 1,
            "TEXCOORD_0": 2
          },
          "indices": 3,
          "material": 0
        }
      ]
    }
  ],
  "nodes": [
    {
      "mesh": 0
    }
  ],
  "scene": 0,
  "scenes": [
    {
      "nodes": [
        0
      ]
    }
  ],
  "textures": [
    {
      "source": 0
    }
  ]
}