{
  "asset": {
    "copyright": "",
    "generator": "SharpGLTF 1.0.0",
    "version": "2.0"
  },
  "accessors": [
    {
      "name": "POSITION",
      "bufferView": 0,
      "componentType": 5126,
      "count": 1250,
      "max": [
        -82.872817993164063,
        19.808952331542969,
        353.37225341796875
      ],
      "min": [
        -94.791473388671875,
        10.469050407409668,
        343.66448974609375
      ],
      "type": "VEC3"
    },
    {
      "name": "NORMAL",
      "bufferView": 0,
      "byteOffset": 12,
      "componentType": 5126,
      "count": 1250,
      "max": [
        0.99044084548950195,
        0.99896878004074097,
        0.99798005819320679
      ],
      "min": [
        -0.99429339170455933,
        -0.97214382886886597,
        -0.99931401014328003
      ],
      "type": "VEC3"
    },
    {
      "name": "TEXCOORD_0",
      "bufferView": 0,
      "byteOffset": 24,
      "componentType": 5126,
      "count": 1250,
      "max": [
        0.998046875,
        0.9990234375
      ],
      "min": [
        0.001953125,
        0.0009765625
      ],
      "type": "VEC2"
    },
    {
      "bufferView": 1,
      "componentType": 5123,
      "count": 3159,
      "type": "SCALAR"
    },
    {
      "name": "POSITION",
      "bufferView": 0,
      "byteOffset": 40000,
      "componentType": 5126,
      "count": 377,
      "max": [
        -82.872817993164063,
        19.761295318603516,
        353.27706909179688
      ],
      "min": [
        -94.696311950683594,
        10.469050407409668,
        343.75924682617188
      ],
      "type": "VEC3"
    },
    {
      "name": "NORMAL",
      "bufferView": 0,
      "byteOffset": 40012,
      "componentType": 5126,
      "count": 377,
      "max": [
        0.99044084548950195,
        0.99896878004074097,
        0.99798005819320679
      ],
      "min": [
        -0.9904969334602356,
        -0.78200387954711914,
        -0.9595676064491272
      ],
      "type": "VEC3"
    },
    {
      "name": "TEXCOORD_0",
      "bufferView": 0,
      "byteOffset": 40024,
      "componentType": 5126,
      "count": 377,
      "max": [
        0.998046875,
        0.998046875
      ],
      "min": [
        0.001953125,
        0.341796875
      ],
      "type": "VEC2"
    },
    {
      "bufferView": 1,
      "byteOffset": 6318,
      "componentType": 5123,
      "count": 1011,
      "type": "SCALAR"
    }
  ],
  "bufferViews": [
    {
      "buffer": 0,
      "byteLength": 52064,
      "byteStride": 32,
      "target": 34962
    },
    {
      "buffer": 0,
      "byteLength": 8340,
      "byteOffset": 52064,
      "target": 34963
    }
  ],
  "buffers": [
    {
      "byteLength": 60404,
      "uri": "3060435073507076210003_LOD00.bin"
    }
  ],
  "images": [
    {
      "uri": "3060435073507076210003_LOD00_0.png"
    },
    {
      "uri": "3060435073507076210003_LOD00_1.png"
    }
  ],
  "materials": [
    {
      "doubleSided": true,
      "pbrMetallicRoughness": {
        "baseColorTexture": {
          "index": 0
        },
        "metallicFactor": 0
      }
    },
    {
      "doubleSided": true,
      "pbrMetallicRoughness": {
        "baseColorTexture": {
          "index": 1
        },
        "metallicFactor": 0
      }
    }
  ],
  "meshes": [
    {
      "name": "3060435073507076210003_0",
      "primitives": [
        {
          "attributes": {
            "POSITION": 0,
            "NORMAL": 1,
            "TEXCOORD_0": 2
          },
          "indices": 3,
          "material": 0
        }
      ]
    },
    {
      "name": "3060435073507076210003_1",
      "primitives": [
        {
          "attributes": {
            "POSITION": 4,
            "NORMAL": 5,
            "TEXCOORD_0": 6
          },
          "indices": 7,
          "material": 1
        }
      ]
    }
  ],
  "nodes": [
    {
      "mesh": 0
    },
    {
      "mesh": 1
    }
  ],
  "scene": 0,
  "scenes": [
    {
      "nodes": [
        0,
        1
      ]
    }
  ],
  "textures": [
    {
      "source": 0
    },
    {
      "source": 1
    }
  ]
}