{
  "asset": {
    "copyright": "",
    "generator": "SharpGLTF 1.0.0",
    "version": "2.0"
  },
  "accessors": [
    {
      "name": "POSITION",
      "bufferView": 0,
      "componentType": 5126,
      "count": 164,
      "max": [
        -0.14350490272045135,
        10.661625862121582,
        410.35531616210938
      ],
      "min": [
        -12.061989784240723,
        9.7557296752929688,
        400.83740234375
      ],
      "type": "VEC3"
    },
    {
      "name": "NORMAL",
      "bufferView": 0,
      "byteOffset": 12,
      "componentType": 5126,
      "count": 164,
      "max": [
        0.88900965452194214,
        0.99998420476913452,
        0.93175369501113892
      ],
      "min": [
        -0.97201794385910034,
        -0.54773694276809692,
        -0.93948858976364136
      ],
      "type": "VEC3"
    },
    {
      "name": "TEXCOORD_0",
      "bufferView": 0,
      "byteOffset": 24,
      "componentType": 5126,
      "count": 164,
      "max": [
        0.998046875,
        0.998046875
      ],
      "min": [
        0.001953125,
        0.025390625
      ],
      "type": "VEC2"
    },
    {
      "bufferView": 1,
      "componentType": 5123,
      "count": 462,
      "type": "SCALAR"
    }
  ],
  "bufferViews": [
    {
      "buffer": 0,
      "byteLength": 5248,
      "byteStride": 32,
      "target": 34962
    },
    {
      "buffer": 0,
      "byteLength": 924,
      "byteOffset": 5248,
      "target": 34963
    }
  ],
  "buffers": [
    {
      "byteLength": 6172,
      "uri": "3060435073507072645676_LOD00.bin"
    }
  ],
  "images": [
    {
      "uri": "3060435073507072645676_LOD00.png"
    }
  ],
  "materials": [
    {
      "doubleSided": true,
      "pbrMetallicRoughness": {
        "baseColorTexture": {
          "index": 0
        },
        "metallicFactor": 0
      }
    }
  ],
  "meshes": [
    {
      "name": "3060435073507072645676_0",
      "primitives": [
        {
          "attributes": {
            "POSITION": 0,
            "NORMAL": 1,
            "TEXCOORD_0": 2
          },
          "indices": 3,
          "material": 0
        }
      ]
    }
  ],
  "nodes": [
    {
      "mesh": 0
    }
  ],
  "scene": 0,
  "scenes": [
    {
      "nodes": [
        0
      ]
    }
  ],
  "textures": [
    {
      "source": 0
    }
  ]
}