{
  "asset": {
    "copyright": "",
    "generator": "SharpGLTF 1.0.0",
    "version": "2.0"
  },
  "accessors": [
    {
      "name": "POSITION",
      "bufferView": 0,
      "componentType": 5126,
      "count": 246,
      "max": [
        -83.019500732421875,
        12.240335464477539,
        124.96133422851563
      ],
      "min": [
        -93.126968383789063,
        10.477139472961426,
        115.30075073242188
      ],
      "type": "VEC3"
    },
    {
      "name": "NORMAL",
      "bufferView": 0,
      "byteOffset": 12,
      "componentType": 5126,
      "count": 246,
      "max": [
        0.95386236906051636,
        0.99596601724624634,
        0.95369219779968262
      ],
      "min": [
        -0.99441623687744141,
        -0.37120905518531799,
        -0.9426458477973938
      ],
      "type": "VEC3"
    },
    {
      "name": "TEXCOORD_0",
      "bufferView": 0,
      "byteOffset": 24,
      "componentType": 5126,
      "count": 246,
      "max": [
        0.998046875,
        0.998046875
      ],
      "min": [
        0.001953125,
        0.759765625
      ],
      "type": "VEC2"
    },
    {
      "bufferView": 1,
      "componentType": 5123,
      "count": 681,
      "type": "SCALAR"
    }
  ],
  "bufferViews": [
    {
      "buffer": 0,
      "byteLength": 7872,
      "byteStride": 32,
      "target": 34962
    },
    {
      "buffer": 0,
      "byteLength": 1362,
      "byteOffset": 7872,
      "target": 34963
    }
  ],
  "buffers": [
    {
      "byteLength": 9236,
      "uri": "3060435073507076012003_LOD00.bin"
    }
  ],
  "images": [
    {
      "uri": "3060435073507076012003_LOD00.png"
    }
  ],
  "materials": [
    {
      "doubleSided": true,
      "pbrMetallicRoughness": {
        "baseColorTexture": {
          "index": 0
        },
        "metallicFactor": 0
      }
    }
  ],
  "meshes": [
    {
      "name": "3060435073507076012003_0",
      "primitives": [
        {
          "attributes": {
            "POSITION": 0,
            "NORMAL": 1,
            "TEXCOORD_0": 2
          },
          "indices": 3,
          "material": 0
        }
      ]
    }
  ],
  "nodes": [
    {
      "mesh": 0
    }
  ],
  "scene": 0,
  "scenes": [
    {
      "nodes": [
        0
      ]
    }
  ],
  "textures": [
    {
      "source": 0
    }
  ]
}