{
  "asset": {
    "copyright": "",
    "generator": "SharpGLTF 1.0.0",
    "version": "2.0"
  },
  "accessors": [
    {
      "name": "POSITION",
      "bufferView": 0,
      "componentType": 5126,
      "count": 235,
      "max": [
        -59.235424041748047,
        12.658583641052246,
        396.0361328125
      ],
      "min": [
        -71.106254577636719,
        10.609264373779297,
        391.32467651367188
      ],
      "type": "VEC3"
    },
    {
      "name": "NORMAL",
      "bufferView": 0,
      "byteOffset": 12,
      "componentType": 5126,
      "count": 235,
      "max": [
        0.7061150074005127,
        0.99896854162216187,
        0.99999195337295532
      ],
      "min": [
        -0.66294664144515991,
        -0.98785620927810669,
        -0.9106823205947876
      ],
      "type": "VEC3"
    },
    {
      "name": "TEXCOORD_0",
      "bufferView": 0,
      "byteOffset": 24,
      "componentType": 5126,
      "count": 235,
      "max": [
        0.998046875,
        0.998046875
      ],
      "min": [
        0.001953125,
        0.330078125
      ],
      "type": "VEC2"
    },
    {
      "bufferView": 1,
      "componentType": 5123,
      "count": 642,
      "type": "SCALAR"
    }
  ],
  "bufferViews": [
    {
      "buffer": 0,
      "byteLength": 7520,
      "byteStride": 32,
      "target": 34962
    },
    {
      "buffer": 0,
      "byteLength": 1284,
      "byteOffset": 7520,
      "target": 34963
    }
  ],
  "buffers": [
    {
      "byteLength": 8804,
      "uri": "3060435073507076201331_LOD00.bin"
    }
  ],
  "images": [
    {
      "uri": "3060435073507076201331_LOD00.png"
    }
  ],
  "materials": [
    {
      "doubleSided": true,
      "pbrMetallicRoughness": {
        "baseColorTexture": {
          "index": 0
        },
        "metallicFactor": 0
      }
    }
  ],
  "meshes": [
    {
      "name": "3060435073507076201331_0",
      "primitives": [
        {
          "attributes": {
            "POSITION": 0,
            "NORMAL": 1,
            "TEXCOORD_0": 2
          },
          "indices": 3,
          "material": 0
        }
      ]
    }
  ],
  "nodes": [
    {
      "mesh": 0
    }
  ],
  "scene": 0,
  "scenes": [
    {
      "nodes": [
        0
      ]
    }
  ],
  "textures": [
    {
      "source": 0
    }
  ]
}