{
  "asset": {
    "copyright": "",
    "generator": "SharpGLTF 1.0.0",
    "version": "2.0"
  },
  "accessors": [
    {
      "name": "POSITION",
      "bufferView": 0,
      "componentType": 5126,
      "count": 298,
      "max": [
        -94.647407531738281,
        83.778343200683594,
        197.88023376464844
      ],
      "min": [
        -96.88818359375,
        74.486007690429688,
        191.5506591796875
      ],
      "type": "VEC3"
    },
    {
      "name": "NORMAL",
      "bufferView": 0,
      "byteOffset": 12,
      "componentType": 5126,
      "count": 298,
      "max": [
        0.21287240087985992,
        0.56060653924942017,
        0.99999219179153442
      ],
      "min": [
        -0.99044078588485718,
        -0.26107022166252136,
        -0.88340550661087036
      ],
      "type": "VEC3"
    },
    {
      "name": "TEXCOORD_0",
      "bufferView": 0,
      "byteOffset": 24,
      "componentType": 5126,
      "count": 298,
      "max": [
        0.998046875,
        0.998046875
      ],
      "min": [
        0.001953125,
        0.306640625
      ],
      "type": "VEC2"
    },
    {
      "bufferView": 1,
      "componentType": 5123,
      "count": 927,
      "type": "SCALAR"
    }
  ],
  "bufferViews": [
    {
      "buffer": 0,
      "byteLength": 9536,
      "byteStride": 32,
      "target": 34962
    },
    {
      "buffer": 0,
      "byteLength": 1854,
      "byteOffset": 9536,
      "target": 34963
    }
  ],
  "buffers": [
    {
      "byteLength": 11392,
      "uri": "3060435073507076030456_LOD00.bin"
    }
  ],
  "images": [
    {
      "uri": "3060435073507076030456_LOD00.png"
    }
  ],
  "materials": [
    {
      "doubleSided": true,
      "pbrMetallicRoughness": {
        "baseColorTexture": {
          "index": 0
        },
        "metallicFactor": 0
      }
    }
  ],
  "meshes": [
    {
      "name": "3060435073507076030456_0",
      "primitives": [
        {
          "attributes": {
            "POSITION": 0,
            "NORMAL": 1,
            "TEXCOORD_0": 2
          },
          "indices": 3,
          "material": 0
        }
      ]
    }
  ],
  "nodes": [
    {
      "mesh": 0
    }
  ],
  "scene": 0,
  "scenes": [
    {
      "nodes": [
        0
      ]
    }
  ],
  "textures": [
    {
      "source": 0
    }
  ]
}