{
  "asset": {
    "copyright": "",
    "generator": "SharpGLTF 1.0.0",
    "version": "2.0"
  },
  "accessors": [
    {
      "name": "POSITION",
      "bufferView": 0,
      "componentType": 5126,
      "count": 280,
      "max": [
        -130.15325927734375,
        12.04921817779541,
        90.807327270507813
      ],
      "min": [
        -141.97726440429688,
        10.47689151763916,
        86.904838562011719
      ],
      "type": "VEC3"
    },
    {
      "name": "NORMAL",
      "bufferView": 0,
      "byteOffset": 12,
      "componentType": 5126,
      "count": 280,
      "max": [
        0.85408294200897217,
        0.9999845027923584,
        0.92301875352859497
      ],
      "min": [
        -0.8374297022819519,
        0.050532802939414978,
        -0.65389961004257202
      ],
      "type": "VEC3"
    },
    {
      "name": "TEXCOORD_0",
      "bufferView": 0,
      "byteOffset": 24,
      "componentType": 5126,
      "count": 280,
      "max": [
        0.998046875,
        0.423828125
      ],
      "min": [
        0.001953125,
        0.001953125
      ],
      "type": "VEC2"
    },
    {
      "bufferView": 1,
      "componentType": 5123,
      "count": 816,
      "type": "SCALAR"
    }
  ],
  "bufferViews": [
    {
      "buffer": 0,
      "byteLength": 8960,
      "byteStride": 32,
      "target": 34962
    },
    {
      "buffer": 0,
      "byteLength": 1632,
      "byteOffset": 8960,
      "target": 34963
    }
  ],
  "buffers": [
    {
      "byteLength": 10592,
      "uri": "3060435073507076010321_LOD00.bin"
    }
  ],
  "images": [
    {
      "uri": "3060435073507076010321_LOD00.png"
    }
  ],
  "materials": [
    {
      "doubleSided": true,
      "pbrMetallicRoughness": {
        "baseColorTexture": {
          "index": 0
        },
        "metallicFactor": 0
      }
    }
  ],
  "meshes": [
    {
      "name": "3060435073507076010321_0",
      "primitives": [
        {
          "attributes": {
            "POSITION": 0,
            "NORMAL": 1,
            "TEXCOORD_0": 2
          },
          "indices": 3,
          "material": 0
        }
      ]
    }
  ],
  "nodes": [
    {
      "mesh": 0
    }
  ],
  "scene": 0,
  "scenes": [
    {
      "nodes": [
        0
      ]
    }
  ],
  "textures": [
    {
      "source": 0
    }
  ]
}