{
  "asset": {
    "copyright": "",
    "generator": "SharpGLTF 1.0.0",
    "version": "2.0"
  },
  "accessors": [
    {
      "name": "POSITION",
      "bufferView": 0,
      "componentType": 5126,
      "count": 349,
      "max": [
        -139.01426696777344,
        17.472572326660156,
        353.27862548828125
      ],
      "min": [
        -142.01800537109375,
        12.278475761413574,
        343.76043701171875
      ],
      "type": "VEC3"
    },
    {
      "name": "NORMAL",
      "bufferView": 0,
      "byteOffset": 12,
      "componentType": 5126,
      "count": 349,
      "max": [
        0.9991568922996521,
        0.99998414516448975,
        0.31291985511779785
      ],
      "min": [
        -0.69318747520446777,
        -0.99916809797286987,
        -0.36806225776672363
      ],
      "type": "VEC3"
    },
    {
      "name": "TEXCOORD_0",
      "bufferView": 0,
      "byteOffset": 24,
      "componentType": 5126,
      "count": 349,
      "max": [
        0.998046875,
        0.998046875
      ],
      "min": [
        0.001953125,
        0.150390625
      ],
      "type": "VEC2"
    },
    {
      "bufferView": 1,
      "componentType": 5123,
      "count": 1050,
      "type": "SCALAR"
    }
  ],
  "bufferViews": [
    {
      "buffer": 0,
      "byteLength": 11168,
      "byteStride": 32,
      "target": 34962
    },
    {
      "buffer": 0,
      "byteLength": 2100,
      "byteOffset": 11168,
      "target": 34963
    }
  ],
  "buffers": [
    {
      "byteLength": 13268,
      "uri": "3060435073507076210103_LOD00.bin"
    }
  ],
  "images": [
    {
      "uri": "3060435073507076210103_LOD00.png"
    }
  ],
  "materials": [
    {
      "doubleSided": true,
      "pbrMetallicRoughness": {
        "baseColorTexture": {
          "index": 0
        },
        "metallicFactor": 0
      }
    }
  ],
  "meshes": [
    {
      "name": "3060435073507076210103_0",
      "primitives": [
        {
          "attributes": {
            "POSITION": 0,
            "NORMAL": 1,
            "TEXCOORD_0": 2
          },
          "indices": 3,
          "material": 0
        }
      ]
    }
  ],
  "nodes": [
    {
      "mesh": 0
    }
  ],
  "scene": 0,
  "scenes": [
    {
      "nodes": [
        0
      ]
    }
  ],
  "textures": [
    {
      "source": 0
    }
  ]
}