{
  "asset": {
    "copyright": "",
    "generator": "SharpGLTF 1.0.0",
    "version": "2.0"
  },
  "accessors": [
    {
      "name": "POSITION",
      "bufferView": 0,
      "componentType": 5126,
      "count": 334,
      "max": [
        -272.64874267578125,
        31.143129348754883,
        132.19725036621094
      ],
      "min": [
        -282.80404663085938,
        28.808010101318359,
        124.91625213623047
      ],
      "type": "VEC3"
    },
    {
      "name": "NORMAL",
      "bufferView": 0,
      "byteOffset": 12,
      "componentType": 5126,
      "count": 334,
      "max": [
        0.99046975374221802,
        0.98340469598770142,
        0.9750944972038269
      ],
      "min": [
        -0.99056291580200195,
        -0.96247094869613647,
        -0.9897315502166748
      ],
      "type": "VEC3"
    },
    {
      "name": "TEXCOORD_0",
      "bufferView": 0,
      "byteOffset": 24,
      "componentType": 5126,
      "count": 334,
      "max": [
        0.998046875,
        0.998046875
      ],
      "min": [
        0.001953125,
        0.642578125
      ],
      "type": "VEC2"
    },
    {
      "bufferView": 1,
      "componentType": 5123,
      "count": 777,
      "type": "SCALAR"
    }
  ],
  "bufferViews": [
    {
      "buffer": 0,
      "byteLength": 10688,
      "byteStride": 32,
      "target": 34962
    },
    {
      "buffer": 0,
      "byteLength": 1554,
      "byteOffset": 10688,
      "target": 34963
    }
  ],
  "buffers": [
    {
      "byteLength": 12244,
      "uri": "3060435073507076102061_LOD00.bin"
    }
  ],
  "images": [
    {
      "uri": "3060435073507076102061_LOD00.png"
    }
  ],
  "materials": [
    {
      "doubleSided": true,
      "pbrMetallicRoughness": {
        "baseColorTexture": {
          "index": 0
        },
        "metallicFactor": 0
      }
    }
  ],
  "meshes": [
    {
      "name": "3060435073507076102061_0",
      "primitives": [
        {
          "attributes": {
            "POSITION": 0,
            "NORMAL": 1,
            "TEXCOORD_0": 2
          },
          "indices": 3,
          "material": 0
        }
      ]
    }
  ],
  "nodes": [
    {
      "mesh": 0
    }
  ],
  "scene": 0,
  "scenes": [
    {
      "nodes": [
        0
      ]
    }
  ],
  "textures": [
    {
      "source": 0
    }
  ]
}