{
  "asset": {
    "copyright": "",
    "generator": "SharpGLTF 1.0.0",
    "version": "2.0"
  },
  "accessors": [
    {
      "name": "POSITION",
      "bufferView": 0,
      "componentType": 5126,
      "count": 1219,
      "max": [
        -272.79275512695313,
        29.003787994384766,
        115.59796142578125
      ],
      "min": [
        -283.90151977539063,
        19.616172790527344,
        105.79472351074219
      ],
      "type": "VEC3"
    },
    {
      "name": "NORMAL",
      "bufferView": 0,
      "byteOffset": 12,
      "componentType": 5126,
      "count": 1219,
      "max": [
        0.99931657314300537,
        0.99897217750549316,
        0.99673157930374146
      ],
      "min": [
        -0.99599748849868774,
        -0.99819439649581909,
        -0.9891059398651123
      ],
      "type": "VEC3"
    },
    {
      "name": "TEXCOORD_0",
      "bufferView": 0,
      "byteOffset": 24,
      "componentType": 5126,
      "count": 1219,
      "max": [
        0.998046875,
        0.9990234375
      ],
      "min": [
        0.001953125,
        0.0009765625
      ],
      "type": "VEC2"
    },
    {
      "bufferView": 1,
      "componentType": 5123,
      "count": 3270,
      "type": "SCALAR"
    },
    {
      "name": "POSITION",
      "bufferView": 0,
      "byteOffset": 39008,
      "componentType": 5126,
      "count": 176,
      "max": [
        -272.79281616210938,
        28.908344268798828,
        115.4554443359375
      ],
      "min": [
        -283.80606079101563,
        19.759098052978516,
        105.93691253662109
      ],
      "type": "VEC3"
    },
    {
      "name": "NORMAL",
      "bufferView": 0,
      "byteOffset": 39020,
      "componentType": 5126,
      "count": 176,
      "max": [
        0.99439907073974609,
        0.99897217750549316,
        0.99426174163818359
      ],
      "min": [
        -0.99817991256713867,
        -0.96247047185897827,
        -0.89005815982818604
      ],
      "type": "VEC3"
    },
    {
      "name": "TEXCOORD_0",
      "bufferView": 0,
      "byteOffset": 39032,
      "componentType": 5126,
      "count": 176,
      "max": [
        0.990234375,
        0.998046875
      ],
      "min": [
        0.001953125,
        0.693359375
      ],
      "type": "VEC2"
    },
    {
      "bufferView": 1,
      "byteOffset": 6540,
      "componentType": 5123,
      "count": 483,
      "type": "SCALAR"
    }
  ],
  "bufferViews": [
    {
      "buffer": 0,
      "byteLength": 44640,
      "byteStride": 32,
      "target": 34962
    },
    {
      "buffer": 0,
      "byteLength": 7506,
      "byteOffset": 44640,
      "target": 34963
    }
  ],
  "buffers": [
    {
      "byteLength": 52148,
      "uri": "3060435073507076102005_LOD00.bin"
    }
  ],
  "images": [
    {
      "uri": "3060435073507076102005_LOD00_0.png"
    },
    {
      "uri": "3060435073507076102005_LOD00_1.png"
    }
  ],
  "materials": [
    {
      "doubleSided": true,
      "pbrMetallicRoughness": {
        "baseColorTexture": {
          "index": 0
        },
        "metallicFactor": 0
      }
    },
    {
      "doubleSided": true,
      "pbrMetallicRoughness": {
        "baseColorTexture": {
          "index": 1
        },
        "metallicFactor": 0
      }
    }
  ],
  "meshes": [
    {
      "name": "3060435073507076102005_0",
      "primitives": [
        {
          "attributes": {
            "POSITION": 0,
            "NORMAL": 1,
            "TEXCOORD_0": 2
          },
          "indices": 3,
          "material": 0
        }
      ]
    },
    {
      "name": "3060435073507076102005_1",
      "primitives": [
        {
          "attributes": {
            "POSITION": 4,
            "NORMAL": 5,
            "TEXCOORD_0": 6
          },
          "indices": 7,
          "material": 1
        }
      ]
    }
  ],
  "nodes": [
    {
      "mesh": 0
    },
    {
      "mesh": 1
    }
  ],
  "scene": 0,
  "scenes": [
    {
      "nodes": [
        0,
        1
      ]
    }
  ],
  "textures": [
    {
      "source": 0
    },
    {
      "source": 1
    }
  ]
}