{
  "asset": {
    "copyright": "",
    "generator": "SharpGLTF 1.0.0",
    "version": "2.0"
  },
  "accessors": [
    {
      "name": "POSITION",
      "bufferView": 0,
      "componentType": 5126,
      "count": 430,
      "max": [
        -248.18974304199219,
        10.708725929260254,
        334.35116577148438
      ],
      "min": [
        -260.15625,
        9.1832389831542969,
        324.69085693359375
      ],
      "type": "VEC3"
    },
    {
      "name": "NORMAL",
      "bufferView": 0,
      "byteOffset": 12,
      "componentType": 5126,
      "count": 430,
      "max": [
        0.99044144153594971,
        0.99998444318771362,
        0.97074013948440552
      ],
      "min": [
        -0.96215528249740601,
        -0.85287541151046753,
        -0.63081526756286621
      ],
      "type": "VEC3"
    },
    {
      "name": "TEXCOORD_0",
      "bufferView": 0,
      "byteOffset": 24,
      "componentType": 5126,
      "count": 430,
      "max": [
        0.998046875,
        0.998046875
      ],
      "min": [
        0.001953125,
        0.158203125
      ],
      "type": "VEC2"
    },
    {
      "bufferView": 1,
      "componentType": 5123,
      "count": 1179,
      "type": "SCALAR"
    }
  ],
  "bufferViews": [
    {
      "buffer": 0,
      "byteLength": 13760,
      "byteStride": 32,
      "target": 34962
    },
    {
      "buffer": 0,
      "byteLength": 2358,
      "byteOffset": 13760,
      "target": 34963
    }
  ],
  "buffers": [
    {
      "byteLength": 16120,
      "uri": "3060435073507072477777_LOD00.bin"
    }
  ],
  "images": [
    {
      "uri": "3060435073507072477777_LOD00.png"
    }
  ],
  "materials": [
    {
      "doubleSided": true,
      "pbrMetallicRoughness": {
        "baseColorTexture": {
          "index": 0
        },
        "metallicFactor": 0
      }
    }
  ],
  "meshes": [
    {
      "name": "3060435073507072477777_0",
      "primitives": [
        {
          "attributes": {
            "POSITION": 0,
            "NORMAL": 1,
            "TEXCOORD_0": 2
          },
          "indices": 3,
          "material": 0
        }
      ]
    }
  ],
  "nodes": [
    {
      "mesh": 0
    }
  ],
  "scene": 0,
  "scenes": [
    {
      "nodes": [
        0
      ]
    }
  ],
  "textures": [
    {
      "source": 0
    }
  ]
}