{
  "asset": {
    "copyright": "",
    "generator": "SharpGLTF 1.0.0",
    "version": "2.0"
  },
  "accessors": [
    {
      "name": "POSITION",
      "bufferView": 0,
      "componentType": 5126,
      "count": 377,
      "max": [
        -71.009086608886719,
        10.624030113220215,
        172.574462890625
      ],
      "min": [
        -82.880508422851563,
        9.4326610565185547,
        163.00895690917969
      ],
      "type": "VEC3"
    },
    {
      "name": "NORMAL",
      "bufferView": 0,
      "byteOffset": 12,
      "componentType": 5126,
      "count": 377,
      "max": [
        0.65551775693893433,
        0.99998456239700317,
        0.79958659410476685
      ],
      "min": [
        -0.81941109895706177,
        0.38935267925262451,
        -0.82225459814071655
      ],
      "type": "VEC3"
    },
    {
      "name": "TEXCOORD_0",
      "bufferView": 0,
      "byteOffset": 24,
      "componentType": 5126,
      "count": 377,
      "max": [
        0.998046875,
        0.998046875
      ],
      "min": [
        0.001953125,
        0.021484375
      ],
      "type": "VEC2"
    },
    {
      "bufferView": 1,
      "componentType": 5123,
      "count": 1107,
      "type": "SCALAR"
    }
  ],
  "bufferViews": [
    {
      "buffer": 0,
      "byteLength": 12064,
      "byteStride": 32,
      "target": 34962
    },
    {
      "buffer": 0,
      "byteLength": 2214,
      "byteOffset": 12064,
      "target": 34963
    }
  ],
  "buffers": [
    {
      "byteLength": 14280,
      "uri": "3060435073507072456664_LOD00.bin"
    }
  ],
  "images": [
    {
      "uri": "3060435073507072456664_LOD00.png"
    }
  ],
  "materials": [
    {
      "doubleSided": true,
      "pbrMetallicRoughness": {
        "baseColorTexture": {
          "index": 0
        },
        "metallicFactor": 0
      }
    }
  ],
  "meshes": [
    {
      "name": "3060435073507072456664_0",
      "primitives": [
        {
          "attributes": {
            "POSITION": 0,
            "NORMAL": 1,
            "TEXCOORD_0": 2
          },
          "indices": 3,
          "material": 0
        }
      ]
    }
  ],
  "nodes": [
    {
      "mesh": 0
    }
  ],
  "scene": 0,
  "scenes": [
    {
      "nodes": [
        0
      ]
    }
  ],
  "textures": [
    {
      "source": 0
    }
  ]
}