{
  "asset": {
    "copyright": "",
    "generator": "SharpGLTF 1.0.0",
    "version": "2.0"
  },
  "accessors": [
    {
      "name": "POSITION",
      "bufferView": 0,
      "componentType": 5126,
      "count": 197,
      "max": [
        -47.417758941650391,
        10.238311767578125,
        305.71090698242188
      ],
      "min": [
        -59.336494445800781,
        9.5712108612060547,
        296.19287109375
      ],
      "type": "VEC3"
    },
    {
      "name": "NORMAL",
      "bufferView": 0,
      "byteOffset": 12,
      "componentType": 5126,
      "count": 197,
      "max": [
        0.36185213923454285,
        0.99998462200164795,
        0.16794298589229584
      ],
      "min": [
        -0.13776026666164398,
        0.91284084320068359,
        -0.18916788697242737
      ],
      "type": "VEC3"
    },
    {
      "name": "TEXCOORD_0",
      "bufferView": 0,
      "byteOffset": 24,
      "componentType": 5126,
      "count": 197,
      "max": [
        0.982421875,
        0.998046875
      ],
      "min": [
        0.001953125,
        0.005859375
      ],
      "type": "VEC2"
    },
    {
      "bufferView": 1,
      "componentType": 5123,
      "count": 630,
      "type": "SCALAR"
    }
  ],
  "bufferViews": [
    {
      "buffer": 0,
      "byteLength": 6304,
      "byteStride": 32,
      "target": 34962
    },
    {
      "buffer": 0,
      "byteLength": 1260,
      "byteOffset": 6304,
      "target": 34963
    }
  ],
  "buffers": [
    {
      "byteLength": 7564,
      "uri": "3060435073507072467754_LOD00.bin"
    }
  ],
  "images": [
    {
      "uri": "3060435073507072467754_LOD00.png"
    }
  ],
  "materials": [
    {
      "doubleSided": true,
      "pbrMetallicRoughness": {
        "baseColorTexture": {
          "index": 0
        },
        "metallicFactor": 0
      }
    }
  ],
  "meshes": [
    {
      "name": "3060435073507072467754_0",
      "primitives": [
        {
          "attributes": {
            "POSITION": 0,
            "NORMAL": 1,
            "TEXCOORD_0": 2
          },
          "indices": 3,
          "material": 0
        }
      ]
    }
  ],
  "nodes": [
    {
      "mesh": 0
    }
  ],
  "scene": 0,
  "scenes": [
    {
      "nodes": [
        0
      ]
    }
  ],
  "textures": [
    {
      "source": 0
    }
  ]
}