{
  "asset": {
    "copyright": "",
    "generator": "SharpGLTF 1.0.0",
    "version": "2.0"
  },
  "accessors": [
    {
      "name": "POSITION",
      "bufferView": 0,
      "componentType": 5126,
      "count": 301,
      "max": [
        -103.65383911132813,
        18.329870223999023,
        381.95965576171875
      ],
      "min": [
        -106.65723419189453,
        10.609651565551758,
        372.299072265625
      ],
      "type": "VEC3"
    },
    {
      "name": "NORMAL",
      "bufferView": 0,
      "byteOffset": 12,
      "componentType": 5126,
      "count": 301,
      "max": [
        0.99637269973754883,
        0.99998468160629272,
        0.99999195337295532
      ],
      "min": [
        -0.1060003787279129,
        -0.84000968933105469,
        -0.99915087223052979
      ],
      "type": "VEC3"
    },
    {
      "name": "TEXCOORD_0",
      "bufferView": 0,
      "byteOffset": 24,
      "componentType": 5126,
      "count": 301,
      "max": [
        0.998046875,
        0.998046875
      ],
      "min": [
        0.001953125,
        0.529296875
      ],
      "type": "VEC2"
    },
    {
      "bufferView": 1,
      "componentType": 5123,
      "count": 879,
      "type": "SCALAR"
    }
  ],
  "bufferViews": [
    {
      "buffer": 0,
      "byteLength": 9632,
      "byteStride": 32,
      "target": 34962
    },
    {
      "buffer": 0,
      "byteLength": 1758,
      "byteOffset": 9632,
      "target": 34963
    }
  ],
  "buffers": [
    {
      "byteLength": 11392,
      "uri": "3060435073507076210210_LOD00.bin"
    }
  ],
  "images": [
    {
      "uri": "3060435073507076210210_LOD00.png"
    }
  ],
  "materials": [
    {
      "doubleSided": true,
      "pbrMetallicRoughness": {
        "baseColorTexture": {
          "index": 0
        },
        "metallicFactor": 0
      }
    }
  ],
  "meshes": [
    {
      "name": "3060435073507076210210_0",
      "primitives": [
        {
          "attributes": {
            "POSITION": 0,
            "NORMAL": 1,
            "TEXCOORD_0": 2
          },
          "indices": 3,
          "material": 0
        }
      ]
    }
  ],
  "nodes": [
    {
      "mesh": 0
    }
  ],
  "scene": 0,
  "scenes": [
    {
      "nodes": [
        0
      ]
    }
  ],
  "textures": [
    {
      "source": 0
    }
  ]
}