{
  "asset": {
    "copyright": "",
    "generator": "SharpGLTF 1.0.0",
    "version": "2.0"
  },
  "accessors": [
    {
      "name": "POSITION",
      "bufferView": 0,
      "componentType": 5126,
      "count": 1347,
      "max": [
        -260.15725708007813,
        28.954233169555664,
        220.14668273925781
      ],
      "min": [
        -271.98126220703125,
        19.614534378051758,
        210.43882751464844
      ],
      "type": "VEC3"
    },
    {
      "name": "NORMAL",
      "bufferView": 0,
      "byteOffset": 12,
      "componentType": 5126,
      "count": 1347,
      "max": [
        0.9967382550239563,
        0.99596709012985229,
        0.99817395210266113
      ],
      "min": [
        -0.99898445606231689,
        -0.9780961275100708,
        -0.99999231100082397
      ],
      "type": "VEC3"
    },
    {
      "name": "TEXCOORD_0",
      "bufferView": 0,
      "byteOffset": 24,
      "componentType": 5126,
      "count": 1347,
      "max": [
        0.998046875,
        0.9990234375
      ],
      "min": [
        0.001953125,
        0.0009765625
      ],
      "type": "VEC2"
    },
    {
      "bufferView": 1,
      "componentType": 5123,
      "count": 3363,
      "type": "SCALAR"
    },
    {
      "name": "POSITION",
      "bufferView": 0,
      "byteOffset": 43104,
      "componentType": 5126,
      "count": 264,
      "max": [
        -260.06234741210938,
        28.9066162109375,
        220.09962463378906
      ],
      "min": [
        -271.98114013671875,
        19.757366180419922,
        210.58158874511719
      ],
      "type": "VEC3"
    },
    {
      "name": "NORMAL",
      "bufferView": 0,
      "byteOffset": 43116,
      "componentType": 5126,
      "count": 264,
      "max": [
        0.99600487947463989,
        0.99042755365371704,
        0.99817395210266113
      ],
      "min": [
        -0.9905627965927124,
        -0.99819588661193848,
        -0.99999231100082397
      ],
      "type": "VEC3"
    },
    {
      "name": "TEXCOORD_0",
      "bufferView": 0,
      "byteOffset": 43128,
      "componentType": 5126,
      "count": 264,
      "max": [
        0.998046875,
        0.998046875
      ],
      "min": [
        0.001953125,
        0.544921875
      ],
      "type": "VEC2"
    },
    {
      "bufferView": 1,
      "byteOffset": 6726,
      "componentType": 5123,
      "count": 648,
      "type": "SCALAR"
    }
  ],
  "bufferViews": [
    {
      "buffer": 0,
      "byteLength": 51552,
      "byteStride": 32,
      "target": 34962
    },
    {
      "buffer": 0,
      "byteLength": 8022,
      "byteOffset": 51552,
      "target": 34963
    }
  ],
  "buffers": [
    {
      "byteLength": 59576,
      "uri": "3060435073507076120026_LOD00.bin"
    }
  ],
  "images": [
    {
      "uri": "3060435073507076120026_LOD00_0.png"
    },
    {
      "uri": "3060435073507076120026_LOD00_1.png"
    }
  ],
  "materials": [
    {
      "doubleSided": true,
      "pbrMetallicRoughness": {
        "baseColorTexture": {
          "index": 0
        },
        "metallicFactor": 0
      }
    },
    {
      "doubleSided": true,
      "pbrMetallicRoughness": {
        "baseColorTexture": {
          "index": 1
        },
        "metallicFactor": 0
      }
    }
  ],
  "meshes": [
    {
      "name": "3060435073507076120026_0",
      "primitives": [
        {
          "attributes": {
            "POSITION": 0,
            "NORMAL": 1,
            "TEXCOORD_0": 2
          },
          "indices": 3,
          "material": 0
        }
      ]
    },
    {
      "name": "3060435073507076120026_1",
      "primitives": [
        {
          "attributes": {
            "POSITION": 4,
            "NORMAL": 5,
            "TEXCOORD_0": 6
          },
          "indices": 7,
          "material": 1
        }
      ]
    }
  ],
  "nodes": [
    {
      "mesh": 0
    },
    {
      "mesh": 1
    }
  ],
  "scene": 0,
  "scenes": [
    {
      "nodes": [
        0,
        1
      ]
    }
  ],
  "textures": [
    {
      "source": 0
    },
    {
      "source": 1
    }
  ]
}