{
  "asset": {
    "copyright": "",
    "generator": "SharpGLTF 1.0.0",
    "version": "2.0"
  },
  "accessors": [
    {
      "name": "POSITION",
      "bufferView": 0,
      "componentType": 5126,
      "count": 237,
      "max": [
        -51.85198974609375,
        11.379101753234863,
        255.76560974121094
      ],
      "min": [
        -59.241729736328125,
        10.473811149597168,
        248.62718200683594
      ],
      "type": "VEC3"
    },
    {
      "name": "NORMAL",
      "bufferView": 0,
      "byteOffset": 12,
      "componentType": 5126,
      "count": 237,
      "max": [
        0.75888043642044067,
        0.99896955490112305,
        0.81707799434661865
      ],
      "min": [
        -0.79444897174835205,
        0.57245886325836182,
        -0.70097833871841431
      ],
      "type": "VEC3"
    },
    {
      "name": "TEXCOORD_0",
      "bufferView": 0,
      "byteOffset": 24,
      "componentType": 5126,
      "count": 237,
      "max": [
        0.998046875,
        0.998046875
      ],
      "min": [
        0.001953125,
        0.599609375
      ],
      "type": "VEC2"
    },
    {
      "bufferView": 1,
      "componentType": 5123,
      "count": 675,
      "type": "SCALAR"
    }
  ],
  "bufferViews": [
    {
      "buffer": 0,
      "byteLength": 7584,
      "byteStride": 32,
      "target": 34962
    },
    {
      "buffer": 0,
      "byteLength": 1350,
      "byteOffset": 7584,
      "target": 34963
    }
  ],
  "buffers": [
    {
      "byteLength": 8936,
      "uri": "3060435073507076021332_LOD00.bin"
    }
  ],
  "images": [
    {
      "uri": "3060435073507076021332_LOD00.png"
    }
  ],
  "materials": [
    {
      "doubleSided": true,
      "pbrMetallicRoughness": {
        "baseColorTexture": {
          "index": 0
        },
        "metallicFactor": 0
      }
    }
  ],
  "meshes": [
    {
      "name": "3060435073507076021332_0",
      "primitives": [
        {
          "attributes": {
            "POSITION": 0,
            "NORMAL": 1,
            "TEXCOORD_0": 2
          },
          "indices": 3,
          "material": 0
        }
      ]
    }
  ],
  "nodes": [
    {
      "mesh": 0
    }
  ],
  "scene": 0,
  "scenes": [
    {
      "nodes": [
        0
      ]
    }
  ],
  "textures": [
    {
      "source": 0
    }
  ]
}