{
  "asset": {
    "copyright": "",
    "generator": "SharpGLTF 1.0.0",
    "version": "2.0"
  },
  "accessors": [
    {
      "name": "POSITION",
      "bufferView": 0,
      "componentType": 5126,
      "count": 1064,
      "max": [
        -23.684839248657227,
        19.852531433105469,
        429.429931640625
      ],
      "min": [
        -35.650924682617188,
        10.464438438415527,
        419.72164916992188
      ],
      "type": "VEC3"
    },
    {
      "name": "NORMAL",
      "bufferView": 0,
      "byteOffset": 12,
      "componentType": 5126,
      "count": 1064,
      "max": [
        0.99465972185134888,
        0.99896723031997681,
        0.99463140964508057
      ],
      "min": [
        -0.9917941689491272,
        -0.9991728663444519,
        -0.95760565996170044
      ],
      "type": "VEC3"
    },
    {
      "name": "TEXCOORD_0",
      "bufferView": 0,
      "byteOffset": 24,
      "componentType": 5126,
      "count": 1064,
      "max": [
        0.998046875,
        0.9990234375
      ],
      "min": [
        0.001953125,
        0.0029296875
      ],
      "type": "VEC2"
    },
    {
      "bufferView": 1,
      "componentType": 5123,
      "count": 2796,
      "type": "SCALAR"
    },
    {
      "name": "POSITION",
      "bufferView": 0,
      "byteOffset": 34048,
      "componentType": 5126,
      "count": 182,
      "max": [
        -23.780179977416992,
        19.757133483886719,
        429.38232421875
      ],
      "min": [
        -35.603275299072266,
        10.46488094329834,
        419.8642578125
      ],
      "type": "VEC3"
    },
    {
      "name": "NORMAL",
      "bufferView": 0,
      "byteOffset": 34060,
      "componentType": 5126,
      "count": 182,
      "max": [
        0.97145271301269531,
        0.9571107029914856,
        0.97127270698547363
      ],
      "min": [
        -0.97309392690658569,
        -0.99125921726226807,
        -0.95760565996170044
      ],
      "type": "VEC3"
    },
    {
      "name": "TEXCOORD_0",
      "bufferView": 0,
      "byteOffset": 34072,
      "componentType": 5126,
      "count": 182,
      "max": [
        0.998046875,
        0.998046875
      ],
      "min": [
        0.001953125,
        0.560546875
      ],
      "type": "VEC2"
    },
    {
      "bufferView": 1,
      "byteOffset": 5592,
      "componentType": 5123,
      "count": 480,
      "type": "SCALAR"
    }
  ],
  "bufferViews": [
    {
      "buffer": 0,
      "byteLength": 39872,
      "byteStride": 32,
      "target": 34962
    },
    {
      "buffer": 0,
      "byteLength": 6552,
      "byteOffset": 39872,
      "target": 34963
    }
  ],
  "buffers": [
    {
      "byteLength": 46424,
      "uri": "3060435073507076203102_LOD00.bin"
    }
  ],
  "images": [
    {
      "uri": "3060435073507076203102_LOD00_0.png"
    },
    {
      "uri": "3060435073507076203102_LOD00_1.png"
    }
  ],
  "materials": [
    {
      "doubleSided": true,
      "pbrMetallicRoughness": {
        "baseColorTexture": {
          "index": 0
        },
        "metallicFactor": 0
      }
    },
    {
      "doubleSided": true,
      "pbrMetallicRoughness": {
        "baseColorTexture": {
          "index": 1
        },
        "metallicFactor": 0
      }
    }
  ],
  "meshes": [
    {
      "name": "3060435073507076203102_0",
      "primitives": [
        {
          "attributes": {
            "POSITION": 0,
            "NORMAL": 1,
            "TEXCOORD_0": 2
          },
          "indices": 3,
          "material": 0
        }
      ]
    },
    {
      "name": "3060435073507076203102_1",
      "primitives": [
        {
          "attributes": {
            "POSITION": 4,
            "NORMAL": 5,
            "TEXCOORD_0": 6
          },
          "indices": 7,
          "material": 1
        }
      ]
    }
  ],
  "nodes": [
    {
      "mesh": 0
    },
    {
      "mesh": 1
    }
  ],
  "scene": 0,
  "scenes": [
    {
      "nodes": [
        0,
        1
      ]
    }
  ],
  "textures": [
    {
      "source": 0
    },
    {
      "source": 1
    }
  ]
}