{
  "asset": {
    "copyright": "",
    "generator": "SharpGLTF 1.0.0",
    "version": "2.0"
  },
  "accessors": [
    {
      "name": "POSITION",
      "bufferView": 0,
      "componentType": 5126,
      "count": 110,
      "max": [
        -141.96998596191406,
        10.336855888366699,
        179.70988464355469
      ],
      "min": [
        -153.7938232421875,
        9.8600635528564453,
        172.52354431152344
      ],
      "type": "VEC3"
    },
    {
      "name": "NORMAL",
      "bufferView": 0,
      "byteOffset": 12,
      "componentType": 5126,
      "count": 110,
      "max": [
        0.0039324280805885792,
        0.9999845027923584,
        0.045188460499048233
      ],
      "min": [
        -0.045265857130289078,
        0.99896669387817383,
        -0.0040775518864393234
      ],
      "type": "VEC3"
    },
    {
      "name": "TEXCOORD_0",
      "bufferView": 0,
      "byteOffset": 24,
      "componentType": 5126,
      "count": 110,
      "max": [
        0.998046875,
        0.998046875
      ],
      "min": [
        0.001953125,
        0.423828125
      ],
      "type": "VEC2"
    },
    {
      "bufferView": 1,
      "componentType": 5123,
      "count": 321,
      "type": "SCALAR"
    }
  ],
  "bufferViews": [
    {
      "buffer": 0,
      "byteLength": 3520,
      "byteStride": 32,
      "target": 34962
    },
    {
      "buffer": 0,
      "byteLength": 642,
      "byteOffset": 3520,
      "target": 34963
    }
  ],
  "buffers": [
    {
      "byteLength": 4164,
      "uri": "3060435073507072456776_LOD00.bin"
    }
  ],
  "images": [
    {
      "uri": "3060435073507072456776_LOD00.png"
    }
  ],
  "materials": [
    {
      "doubleSided": true,
      "pbrMetallicRoughness": {
        "baseColorTexture": {
          "index": 0
        },
        "metallicFactor": 0
      }
    }
  ],
  "meshes": [
    {
      "name": "3060435073507072456776_0",
      "primitives": [
        {
          "attributes": {
            "POSITION": 0,
            "NORMAL": 1,
            "TEXCOORD_0": 2
          },
          "indices": 3,
          "material": 0
        }
      ]
    }
  ],
  "nodes": [
    {
      "mesh": 0
    }
  ],
  "scene": 0,
  "scenes": [
    {
      "nodes": [
        0
      ]
    }
  ],
  "textures": [
    {
      "source": 0
    }
  ]
}