{
  "asset": {
    "copyright": "",
    "generator": "SharpGLTF 1.0.0",
    "version": "2.0"
  },
  "accessors": [
    {
      "name": "POSITION",
      "bufferView": 0,
      "componentType": 5126,
      "count": 215,
      "max": [
        -260.15396118164063,
        18.806718826293945,
        281.170654296875
      ],
      "min": [
        -265.25531005859375,
        12.993190765380859,
        277.07794189453125
      ],
      "type": "VEC3"
    },
    {
      "name": "NORMAL",
      "bufferView": 0,
      "byteOffset": 12,
      "componentType": 5126,
      "count": 215,
      "max": [
        0.89813685417175293,
        0.97303926944732666,
        0.99816954135894775
      ],
      "min": [
        -0.99056249856948853,
        -0.95674276351928711,
        -0.66162401437759399
      ],
      "type": "VEC3"
    },
    {
      "name": "TEXCOORD_0",
      "bufferView": 0,
      "byteOffset": 24,
      "componentType": 5126,
      "count": 215,
      "max": [
        0.998046875,
        0.998046875
      ],
      "min": [
        0.001953125,
        0.552734375
      ],
      "type": "VEC2"
    },
    {
      "bufferView": 1,
      "componentType": 5123,
      "count": 549,
      "type": "SCALAR"
    }
  ],
  "bufferViews": [
    {
      "buffer": 0,
      "byteLength": 6880,
      "byteStride": 32,
      "target": 34962
    },
    {
      "buffer": 0,
      "byteLength": 1098,
      "byteOffset": 6880,
      "target": 34963
    }
  ],
  "buffers": [
    {
      "byteLength": 7980,
      "uri": "3060435073507076122020_LOD00.bin"
    }
  ],
  "images": [
    {
      "uri": "3060435073507076122020_LOD00.png"
    }
  ],
  "materials": [
    {
      "doubleSided": true,
      "pbrMetallicRoughness": {
        "baseColorTexture": {
          "index": 0
        },
        "metallicFactor": 0
      }
    }
  ],
  "meshes": [
    {
      "name": "3060435073507076122020_0",
      "primitives": [
        {
          "attributes": {
            "POSITION": 0,
            "NORMAL": 1,
            "TEXCOORD_0": 2
          },
          "indices": 3,
          "material": 0
        }
      ]
    }
  ],
  "nodes": [
    {
      "mesh": 0
    }
  ],
  "scene": 0,
  "scenes": [
    {
      "nodes": [
        0
      ]
    }
  ],
  "textures": [
    {
      "source": 0
    }
  ]
}