{
  "asset": {
    "copyright": "",
    "generator": "SharpGLTF 1.0.0",
    "version": "2.0"
  },
  "accessors": [
    {
      "name": "POSITION",
      "bufferView": 0,
      "componentType": 5126,
      "count": 589,
      "max": [
        -260.1630859375,
        12.331275939941406,
        96.5704345703125
      ],
      "min": [
        -272.13015747070313,
        10.520198822021484,
        86.815162658691406
      ],
      "type": "VEC3"
    },
    {
      "name": "NORMAL",
      "bufferView": 0,
      "byteOffset": 12,
      "componentType": 5126,
      "count": 589,
      "max": [
        0.99931710958480835,
        0.99896931648254395,
        0.99634933471679688
      ],
      "min": [
        -0.99931979179382324,
        -0.98786944150924683,
        -0.99526101350784302
      ],
      "type": "VEC3"
    },
    {
      "name": "TEXCOORD_0",
      "bufferView": 0,
      "byteOffset": 24,
      "componentType": 5126,
      "count": 589,
      "max": [
        0.998046875,
        0.998046875
      ],
      "min": [
        0.001953125,
        0.462890625
      ],
      "type": "VEC2"
    },
    {
      "bufferView": 1,
      "componentType": 5123,
      "count": 1467,
      "type": "SCALAR"
    }
  ],
  "bufferViews": [
    {
      "buffer": 0,
      "byteLength": 18848,
      "byteStride": 32,
      "target": 34962
    },
    {
      "buffer": 0,
      "byteLength": 2934,
      "byteOffset": 18848,
      "target": 34963
    }
  ],
  "buffers": [
    {
      "byteLength": 21784,
      "uri": "3060435073507076100220_LOD00.bin"
    }
  ],
  "images": [
    {
      "uri": "3060435073507076100220_LOD00.png"
    }
  ],
  "materials": [
    {
      "doubleSided": true,
      "pbrMetallicRoughness": {
        "baseColorTexture": {
          "index": 0
        },
        "metallicFactor": 0
      }
    }
  ],
  "meshes": [
    {
      "name": "3060435073507076100220_0",
      "primitives": [
        {
          "attributes": {
            "POSITION": 0,
            "NORMAL": 1,
            "TEXCOORD_0": 2
          },
          "indices": 3,
          "material": 0
        }
      ]
    }
  ],
  "nodes": [
    {
      "mesh": 0
    }
  ],
  "scene": 0,
  "scenes": [
    {
      "nodes": [
        0
      ]
    }
  ],
  "textures": [
    {
      "source": 0
    }
  ]
}