{
  "asset": {
    "copyright": "",
    "generator": "SharpGLTF 1.0.0",
    "version": "2.0"
  },
  "accessors": [
    {
      "name": "POSITION",
      "bufferView": 0,
      "componentType": 5126,
      "count": 104,
      "max": [
        -118.28145599365234,
        10.331942558288574,
        324.73843383789063
      ],
      "min": [
        -130.1524658203125,
        9.5689258575439453,
        315.22027587890625
      ],
      "type": "VEC3"
    },
    {
      "name": "NORMAL",
      "bufferView": 0,
      "byteOffset": 12,
      "componentType": 5126,
      "count": 104,
      "max": [
        0.0039359950460493565,
        0.9999842643737793,
        0.089696280658245087
      ],
      "min": [
        -0.045260857790708542,
        0.9959598183631897,
        -0.00405546510592103
      ],
      "type": "VEC3"
    },
    {
      "name": "TEXCOORD_0",
      "bufferView": 0,
      "byteOffset": 24,
      "componentType": 5126,
      "count": 104,
      "max": [
        0.990234375,
        0.998046875
      ],
      "min": [
        0.001953125,
        0.197265625
      ],
      "type": "VEC2"
    },
    {
      "bufferView": 1,
      "componentType": 5123,
      "count": 321,
      "type": "SCALAR"
    }
  ],
  "bufferViews": [
    {
      "buffer": 0,
      "byteLength": 3328,
      "byteStride": 32,
      "target": 34962
    },
    {
      "buffer": 0,
      "byteLength": 642,
      "byteOffset": 3328,
      "target": 34963
    }
  ],
  "buffers": [
    {
      "byteLength": 3972,
      "uri": "3060435073507072476764_LOD00.bin"
    }
  ],
  "images": [
    {
      "uri": "3060435073507072476764_LOD00.png"
    }
  ],
  "materials": [
    {
      "doubleSided": true,
      "pbrMetallicRoughness": {
        "baseColorTexture": {
          "index": 0
        },
        "metallicFactor": 0
      }
    }
  ],
  "meshes": [
    {
      "name": "3060435073507072476764_0",
      "primitives": [
        {
          "attributes": {
            "POSITION": 0,
            "NORMAL": 1,
            "TEXCOORD_0": 2
          },
          "indices": 3,
          "material": 0
        }
      ]
    }
  ],
  "nodes": [
    {
      "mesh": 0
    }
  ],
  "scene": 0,
  "scenes": [
    {
      "nodes": [
        0
      ]
    }
  ],
  "textures": [
    {
      "source": 0
    }
  ]
}