{
  "asset": {
    "copyright": "",
    "generator": "SharpGLTF 1.0.0",
    "version": "2.0"
  },
  "accessors": [
    {
      "name": "POSITION",
      "bufferView": 0,
      "componentType": 5126,
      "count": 211,
      "max": [
        -141.96487426757813,
        18.805971145629883,
        372.3052978515625
      ],
      "min": [
        -153.78839111328125,
        17.423694610595703,
        362.78707885742188
      ],
      "type": "VEC3"
    },
    {
      "name": "NORMAL",
      "bufferView": 0,
      "byteOffset": 12,
      "componentType": 5126,
      "count": 211,
      "max": [
        0.97010916471481323,
        0.99998468160629272,
        0.9582861065864563
      ],
      "min": [
        -0.88730496168136597,
        -0.22928498685359955,
        -0.72371828556060791
      ],
      "type": "VEC3"
    },
    {
      "name": "TEXCOORD_0",
      "bufferView": 0,
      "byteOffset": 24,
      "componentType": 5126,
      "count": 211,
      "max": [
        0.994140625,
        0.998046875
      ],
      "min": [
        0.001953125,
        0.048828125
      ],
      "type": "VEC2"
    },
    {
      "bufferView": 1,
      "componentType": 5123,
      "count": 681,
      "type": "SCALAR"
    }
  ],
  "bufferViews": [
    {
      "buffer": 0,
      "byteLength": 6752,
      "byteStride": 32,
      "target": 34962
    },
    {
      "buffer": 0,
      "byteLength": 1362,
      "byteOffset": 6752,
      "target": 34963
    }
  ],
  "buffers": [
    {
      "byteLength": 8116,
      "uri": "3060435073507076210132_LOD00.bin"
    }
  ],
  "images": [
    {
      "uri": "3060435073507076210132_LOD00.png"
    }
  ],
  "materials": [
    {
      "doubleSided": true,
      "pbrMetallicRoughness": {
        "baseColorTexture": {
          "index": 0
        },
        "metallicFactor": 0
      }
    }
  ],
  "meshes": [
    {
      "name": "3060435073507076210132_0",
      "primitives": [
        {
          "attributes": {
            "POSITION": 0,
            "NORMAL": 1,
            "TEXCOORD_0": 2
          },
          "indices": 3,
          "material": 0
        }
      ]
    }
  ],
  "nodes": [
    {
      "mesh": 0
    }
  ],
  "scene": 0,
  "scenes": [
    {
      "nodes": [
        0
      ]
    }
  ],
  "textures": [
    {
      "source": 0
    }
  ]
}