{
  "asset": {
    "copyright": "",
    "generator": "SharpGLTF 1.0.0",
    "version": "2.0"
  },
  "accessors": [
    {
      "name": "POSITION",
      "bufferView": 0,
      "componentType": 5126,
      "count": 197,
      "max": [
        -90.695159912109375,
        92.922805786132813,
        191.69866943359375
      ],
      "min": [
        -94.700103759765625,
        83.678260803222656,
        190.74665832519531
      ],
      "type": "VEC3"
    },
    {
      "name": "NORMAL",
      "bufferView": 0,
      "byteOffset": 12,
      "componentType": 5126,
      "count": 197,
      "max": [
        0.79189419746398926,
        0.57655173540115356,
        -0.60850173234939575
      ],
      "min": [
        -0.63505047559738159,
        -0.32928264141082764,
        -0.9952581524848938
      ],
      "type": "VEC3"
    },
    {
      "name": "TEXCOORD_0",
      "bufferView": 0,
      "byteOffset": 24,
      "componentType": 5126,
      "count": 197,
      "max": [
        0.998046875,
        0.998046875
      ],
      "min": [
        0.001953125,
        0.712890625
      ],
      "type": "VEC2"
    },
    {
      "bufferView": 1,
      "componentType": 5123,
      "count": 615,
      "type": "SCALAR"
    }
  ],
  "bufferViews": [
    {
      "buffer": 0,
      "byteLength": 6304,
      "byteStride": 32,
      "target": 34962
    },
    {
      "buffer": 0,
      "byteLength": 1230,
      "byteOffset": 6304,
      "target": 34963
    }
  ],
  "buffers": [
    {
      "byteLength": 7536,
      "uri": "3060435073507076034001_LOD00.bin"
    }
  ],
  "images": [
    {
      "uri": "3060435073507076034001_LOD00.png"
    }
  ],
  "materials": [
    {
      "doubleSided": true,
      "pbrMetallicRoughness": {
        "baseColorTexture": {
          "index": 0
        },
        "metallicFactor": 0
      }
    }
  ],
  "meshes": [
    {
      "name": "3060435073507076034001_0",
      "primitives": [
        {
          "attributes": {
            "POSITION": 0,
            "NORMAL": 1,
            "TEXCOORD_0": 2
          },
          "indices": 3,
          "material": 0
        }
      ]
    }
  ],
  "nodes": [
    {
      "mesh": 0
    }
  ],
  "scene": 0,
  "scenes": [
    {
      "nodes": [
        0
      ]
    }
  ],
  "textures": [
    {
      "source": 0
    }
  ]
}