{
  "asset": {
    "copyright": "",
    "generator": "SharpGLTF 1.0.0",
    "version": "2.0"
  },
  "accessors": [
    {
      "name": "POSITION",
      "bufferView": 0,
      "componentType": 5126,
      "count": 318,
      "max": [
        -70.91094970703125,
        10.61539363861084,
        381.81643676757813
      ],
      "min": [
        -82.877304077148438,
        9.7570724487304688,
        372.15573120117188
      ],
      "type": "VEC3"
    },
    {
      "name": "NORMAL",
      "bufferView": 0,
      "byteOffset": 12,
      "componentType": 5126,
      "count": 318,
      "max": [
        0.19075912237167358,
        0.99998462200164795,
        0.37512972950935364
      ],
      "min": [
        -0.40487787127494812,
        0.79092299938201904,
        -0.58162856101989746
      ],
      "type": "VEC3"
    },
    {
      "name": "TEXCOORD_0",
      "bufferView": 0,
      "byteOffset": 24,
      "componentType": 5126,
      "count": 318,
      "max": [
        0.998046875,
        0.998046875
      ],
      "min": [
        0.001953125,
        0.087890625
      ],
      "type": "VEC2"
    },
    {
      "bufferView": 1,
      "componentType": 5123,
      "count": 966,
      "type": "SCALAR"
    }
  ],
  "bufferViews": [
    {
      "buffer": 0,
      "byteLength": 10176,
      "byteStride": 32,
      "target": 34962
    },
    {
      "buffer": 0,
      "byteLength": 1932,
      "byteOffset": 10176,
      "target": 34963
    }
  ],
  "buffers": [
    {
      "byteLength": 12108,
      "uri": "3060435073507072654644_LOD00.bin"
    }
  ],
  "images": [
    {
      "uri": "3060435073507072654644_LOD00.png"
    }
  ],
  "materials": [
    {
      "doubleSided": true,
      "pbrMetallicRoughness": {
        "baseColorTexture": {
          "index": 0
        },
        "metallicFactor": 0
      }
    }
  ],
  "meshes": [
    {
      "name": "3060435073507072654644_0",
      "primitives": [
        {
          "attributes": {
            "POSITION": 0,
            "NORMAL": 1,
            "TEXCOORD_0": 2
          },
          "indices": 3,
          "material": 0
        }
      ]
    }
  ],
  "nodes": [
    {
      "mesh": 0
    }
  ],
  "scene": 0,
  "scenes": [
    {
      "nodes": [
        0
      ]
    }
  ],
  "textures": [
    {
      "source": 0
    }
  ]
}