{
  "asset": {
    "copyright": "",
    "generator": "SharpGLTF 1.0.0",
    "version": "2.0"
  },
  "accessors": [
    {
      "name": "POSITION",
      "bufferView": 0,
      "componentType": 5126,
      "count": 390,
      "max": [
        -237.74977111816406,
        10.75141716003418,
        419.921630859375
      ],
      "min": [
        -248.33355712890625,
        8.7497997283935547,
        410.30865478515625
      ],
      "type": "VEC3"
    },
    {
      "name": "NORMAL",
      "bufferView": 0,
      "byteOffset": 12,
      "componentType": 5126,
      "count": 390,
      "max": [
        0.72854989767074585,
        0.99998456239700317,
        0.93203580379486084
      ],
      "min": [
        -0.99489694833755493,
        -0.90283775329589844,
        -0.9619680643081665
      ],
      "type": "VEC3"
    },
    {
      "name": "TEXCOORD_0",
      "bufferView": 0,
      "byteOffset": 24,
      "componentType": 5126,
      "count": 390,
      "max": [
        0.998046875,
        0.998046875
      ],
      "min": [
        0.001953125,
        0.064453125
      ],
      "type": "VEC2"
    },
    {
      "bufferView": 1,
      "componentType": 5123,
      "count": 1101,
      "type": "SCALAR"
    }
  ],
  "bufferViews": [
    {
      "buffer": 0,
      "byteLength": 12480,
      "byteStride": 32,
      "target": 34962
    },
    {
      "buffer": 0,
      "byteLength": 2202,
      "byteOffset": 12480,
      "target": 34963
    }
  ],
  "buffers": [
    {
      "byteLength": 14684,
      "uri": "3060435073507072657554_LOD00.bin"
    }
  ],
  "images": [
    {
      "uri": "3060435073507072657554_LOD00.png"
    }
  ],
  "materials": [
    {
      "doubleSided": true,
      "pbrMetallicRoughness": {
        "baseColorTexture": {
          "index": 0
        },
        "metallicFactor": 0
      }
    }
  ],
  "meshes": [
    {
      "name": "3060435073507072657554_0",
      "primitives": [
        {
          "attributes": {
            "POSITION": 0,
            "NORMAL": 1,
            "TEXCOORD_0": 2
          },
          "indices": 3,
          "material": 0
        }
      ]
    }
  ],
  "nodes": [
    {
      "mesh": 0
    }
  ],
  "scene": 0,
  "scenes": [
    {
      "nodes": [
        0
      ]
    }
  ],
  "textures": [
    {
      "source": 0
    }
  ]
}