{
  "asset": {
    "copyright": "",
    "generator": "SharpGLTF 1.0.0",
    "version": "2.0"
  },
  "accessors": [
    {
      "name": "POSITION",
      "bufferView": 0,
      "componentType": 5126,
      "count": 574,
      "max": [
        -248.1875,
        19.755588531494141,
        381.96527099609375
      ],
      "min": [
        -260.20150756835938,
        10.605384826660156,
        372.16156005859375
      ],
      "type": "VEC3"
    },
    {
      "name": "NORMAL",
      "bufferView": 0,
      "byteOffset": 12,
      "componentType": 5126,
      "count": 574,
      "max": [
        0.98914724588394165,
        0.98672229051589966,
        0.97297132015228271
      ],
      "min": [
        -0.9898342490196228,
        -0.98989492654800415,
        -0.98971778154373169
      ],
      "type": "VEC3"
    },
    {
      "name": "TEXCOORD_0",
      "bufferView": 0,
      "byteOffset": 24,
      "componentType": 5126,
      "count": 574,
      "max": [
        0.998046875,
        0.998046875
      ],
      "min": [
        0.001953125,
        0.431640625
      ],
      "type": "VEC2"
    },
    {
      "bufferView": 1,
      "componentType": 5123,
      "count": 1686,
      "type": "SCALAR"
    }
  ],
  "bufferViews": [
    {
      "buffer": 0,
      "byteLength": 18368,
      "byteStride": 32,
      "target": 34962
    },
    {
      "buffer": 0,
      "byteLength": 3372,
      "byteOffset": 18368,
      "target": 34963
    }
  ],
  "buffers": [
    {
      "byteLength": 21740,
      "uri": "3060435073507076211311_LOD00.bin"
    }
  ],
  "images": [
    {
      "uri": "3060435073507076211311_LOD00.png"
    }
  ],
  "materials": [
    {
      "doubleSided": true,
      "pbrMetallicRoughness": {
        "baseColorTexture": {
          "index": 0
        },
        "metallicFactor": 0
      }
    }
  ],
  "meshes": [
    {
      "name": "3060435073507076211311_0",
      "primitives": [
        {
          "attributes": {
            "POSITION": 0,
            "NORMAL": 1,
            "TEXCOORD_0": 2
          },
          "indices": 3,
          "material": 0
        }
      ]
    }
  ],
  "nodes": [
    {
      "mesh": 0
    }
  ],
  "scene": 0,
  "scenes": [
    {
      "nodes": [
        0
      ]
    }
  ],
  "textures": [
    {
      "source": 0
    }
  ]
}