{
  "asset": {
    "copyright": "",
    "generator": "SharpGLTF 1.0.0",
    "version": "2.0"
  },
  "accessors": [
    {
      "name": "POSITION",
      "bufferView": 0,
      "componentType": 5126,
      "count": 235,
      "max": [
        -189.19978332519531,
        33.242637634277344,
        143.99125671386719
      ],
      "min": [
        -201.07135009765625,
        28.905979156494141,
        139.94566345214844
      ],
      "type": "VEC3"
    },
    {
      "name": "NORMAL",
      "bufferView": 0,
      "byteOffset": 12,
      "componentType": 5126,
      "count": 235,
      "max": [
        0.15588755905628204,
        0.99897193908691406,
        -0.045140814036130905
      ],
      "min": [
        -0.35833939909934998,
        -0.57152825593948364,
        -0.99438029527664185
      ],
      "type": "VEC3"
    },
    {
      "name": "TEXCOORD_0",
      "bufferView": 0,
      "byteOffset": 24,
      "componentType": 5126,
      "count": 235,
      "max": [
        0.998046875,
        0.998046875
      ],
      "min": [
        0.001953125,
        0.201171875
      ],
      "type": "VEC2"
    },
    {
      "bufferView": 1,
      "componentType": 5123,
      "count": 729,
      "type": "SCALAR"
    }
  ],
  "bufferViews": [
    {
      "buffer": 0,
      "byteLength": 7520,
      "byteStride": 32,
      "target": 34962
    },
    {
      "buffer": 0,
      "byteLength": 1458,
      "byteOffset": 7520,
      "target": 34963
    }
  ],
  "buffers": [
    {
      "byteLength": 8980,
      "uri": "3060435073507076013072_LOD00.bin"
    }
  ],
  "images": [
    {
      "uri": "3060435073507076013072_LOD00.png"
    }
  ],
  "materials": [
    {
      "doubleSided": true,
      "pbrMetallicRoughness": {
        "baseColorTexture": {
          "index": 0
        },
        "metallicFactor": 0
      }
    }
  ],
  "meshes": [
    {
      "name": "3060435073507076013072_0",
      "primitives": [
        {
          "attributes": {
            "POSITION": 0,
            "NORMAL": 1,
            "TEXCOORD_0": 2
          },
          "indices": 3,
          "material": 0
        }
      ]
    }
  ],
  "nodes": [
    {
      "mesh": 0
    }
  ],
  "scene": 0,
  "scenes": [
    {
      "nodes": [
        0
      ]
    }
  ],
  "textures": [
    {
      "source": 0
    }
  ]
}