{
  "asset": {
    "copyright": "",
    "generator": "SharpGLTF 1.0.0",
    "version": "2.0"
  },
  "accessors": [
    {
      "name": "POSITION",
      "bufferView": 0,
      "componentType": 5126,
      "count": 460,
      "max": [
        -70.913040161132813,
        10.622433662414551,
        229.60597229003906
      ],
      "min": [
        -83.022621154785156,
        9.7169589996337891,
        220.70658874511719
      ],
      "type": "VEC3"
    },
    {
      "name": "NORMAL",
      "bufferView": 0,
      "byteOffset": 12,
      "componentType": 5126,
      "count": 460,
      "max": [
        0.70151162147521973,
        0.9999845027923584,
        0.8412596583366394
      ],
      "min": [
        -0.50288617610931396,
        0.40220281481742859,
        -0.86560225486755371
      ],
      "type": "VEC3"
    },
    {
      "name": "TEXCOORD_0",
      "bufferView": 0,
      "byteOffset": 24,
      "componentType": 5126,
      "count": 460,
      "max": [
        0.998046875,
        0.998046875
      ],
      "min": [
        0.001953125,
        0.173828125
      ],
      "type": "VEC2"
    },
    {
      "bufferView": 1,
      "componentType": 5123,
      "count": 1275,
      "type": "SCALAR"
    }
  ],
  "bufferViews": [
    {
      "buffer": 0,
      "byteLength": 14720,
      "byteStride": 32,
      "target": 34962
    },
    {
      "buffer": 0,
      "byteLength": 2550,
      "byteOffset": 14720,
      "target": 34963
    }
  ],
  "buffers": [
    {
      "byteLength": 17272,
      "uri": "3060435073507072474644_LOD00.bin"
    }
  ],
  "images": [
    {
      "uri": "3060435073507072474644_LOD00.png"
    }
  ],
  "materials": [
    {
      "doubleSided": true,
      "pbrMetallicRoughness": {
        "baseColorTexture": {
          "index": 0
        },
        "metallicFactor": 0
      }
    }
  ],
  "meshes": [
    {
      "name": "3060435073507072474644_0",
      "primitives": [
        {
          "attributes": {
            "POSITION": 0,
            "NORMAL": 1,
            "TEXCOORD_0": 2
          },
          "indices": 3,
          "material": 0
        }
      ]
    }
  ],
  "nodes": [
    {
      "mesh": 0
    }
  ],
  "scene": 0,
  "scenes": [
    {
      "nodes": [
        0
      ]
    }
  ],
  "textures": [
    {
      "source": 0
    }
  ]
}