{
  "asset": {
    "copyright": "",
    "generator": "SharpGLTF 1.0.0",
    "version": "2.0"
  },
  "accessors": [
    {
      "name": "POSITION",
      "bufferView": 0,
      "componentType": 5126,
      "count": 1074,
      "max": [
        -212.83821105957031,
        10.62208366394043,
        125.01301574707031
      ],
      "min": [
        -224.85252380371094,
        9.1447486877441406,
        115.39991760253906
      ],
      "type": "VEC3"
    },
    {
      "name": "NORMAL",
      "bufferView": 0,
      "byteOffset": 12,
      "componentType": 5126,
      "count": 1074,
      "max": [
        0.99440836906433105,
        0.99998456239700317,
        0.96993649005889893
      ],
      "min": [
        -0.94030743837356567,
        -0.94185340404510498,
        -0.98972976207733154
      ],
      "type": "VEC3"
    },
    {
      "name": "TEXCOORD_0",
      "bufferView": 0,
      "byteOffset": 24,
      "componentType": 5126,
      "count": 1074,
      "max": [
        0.998046875,
        0.9990234375
      ],
      "min": [
        0.001953125,
        0.2939453125
      ],
      "type": "VEC2"
    },
    {
      "bufferView": 1,
      "componentType": 5123,
      "count": 2859,
      "type": "SCALAR"
    }
  ],
  "bufferViews": [
    {
      "buffer": 0,
      "byteLength": 34368,
      "byteStride": 32,
      "target": 34962
    },
    {
      "buffer": 0,
      "byteLength": 5718,
      "byteOffset": 34368,
      "target": 34963
    }
  ],
  "buffers": [
    {
      "byteLength": 40088,
      "uri": "3060435073507072457546_LOD00.bin"
    }
  ],
  "images": [
    {
      "uri": "3060435073507072457546_LOD00.png"
    }
  ],
  "materials": [
    {
      "doubleSided": true,
      "pbrMetallicRoughness": {
        "baseColorTexture": {
          "index": 0
        },
        "metallicFactor": 0
      }
    }
  ],
  "meshes": [
    {
      "name": "3060435073507072457546_0",
      "primitives": [
        {
          "attributes": {
            "POSITION": 0,
            "NORMAL": 1,
            "TEXCOORD_0": 2
          },
          "indices": 3,
          "material": 0
        }
      ]
    }
  ],
  "nodes": [
    {
      "mesh": 0
    }
  ],
  "scene": 0,
  "scenes": [
    {
      "nodes": [
        0
      ]
    }
  ],
  "textures": [
    {
      "source": 0
    }
  ]
}