{
  "asset": {
    "copyright": "",
    "generator": "SharpGLTF 1.0.0",
    "version": "2.0"
  },
  "accessors": [
    {
      "name": "POSITION",
      "bufferView": 0,
      "componentType": 5126,
      "count": 401,
      "max": [
        -260.01763916015625,
        19.81135368347168,
        153.50657653808594
      ],
      "min": [
        -272.08001708984375,
        10.471820831298828,
        143.89363098144531
      ],
      "type": "VEC3"
    },
    {
      "name": "NORMAL",
      "bufferView": 0,
      "byteOffset": 12,
      "componentType": 5126,
      "count": 401,
      "max": [
        0.99466621875762939,
        0.9989657998085022,
        0.99999213218688965
      ],
      "min": [
        -0.85217314958572388,
        -0.66490799188613892,
        -0.99483662843704224
      ],
      "type": "VEC3"
    },
    {
      "name": "TEXCOORD_0",
      "bufferView": 0,
      "byteOffset": 24,
      "componentType": 5126,
      "count": 401,
      "max": [
        0.998046875,
        0.998046875
      ],
      "min": [
        0.001953125,
        0.666015625
      ],
      "type": "VEC2"
    },
    {
      "bufferView": 1,
      "componentType": 5123,
      "count": 1056,
      "type": "SCALAR"
    }
  ],
  "bufferViews": [
    {
      "buffer": 0,
      "byteLength": 12832,
      "byteStride": 32,
      "target": 34962
    },
    {
      "buffer": 0,
      "byteLength": 2112,
      "byteOffset": 12832,
      "target": 34963
    }
  ],
  "buffers": [
    {
      "byteLength": 14944,
      "uri": "3060435073507076102200_LOD00.bin"
    }
  ],
  "images": [
    {
      "uri": "3060435073507076102200_LOD00.png"
    }
  ],
  "materials": [
    {
      "doubleSided": true,
      "pbrMetallicRoughness": {
        "baseColorTexture": {
          "index": 0
        },
        "metallicFactor": 0
      }
    }
  ],
  "meshes": [
    {
      "name": "3060435073507076102200_0",
      "primitives": [
        {
          "attributes": {
            "POSITION": 0,
            "NORMAL": 1,
            "TEXCOORD_0": 2
          },
          "indices": 3,
          "material": 0
        }
      ]
    }
  ],
  "nodes": [
    {
      "mesh": 0
    }
  ],
  "scene": 0,
  "scenes": [
    {
      "nodes": [
        0
      ]
    }
  ],
  "textures": [
    {
      "source": 0
    }
  ]
}