{
  "asset": {
    "copyright": "",
    "generator": "SharpGLTF 1.0.0",
    "version": "2.0"
  },
  "accessors": [
    {
      "name": "POSITION",
      "bufferView": 0,
      "componentType": 5126,
      "count": 937,
      "max": [
        -25.068918228149414,
        27.533266067504883,
        20.173299789428711
      ],
      "min": [
        -35.605709075927734,
        19.670692443847656,
        10.798112869262695
      ],
      "type": "VEC3"
    },
    {
      "name": "NORMAL",
      "bufferView": 0,
      "byteOffset": 12,
      "componentType": 5126,
      "count": 937,
      "max": [
        0.99486392736434937,
        0.99897110462188721,
        0.9979819655418396
      ],
      "min": [
        -0.99915611743927002,
        -0.86736589670181274,
        -0.99898278713226318
      ],
      "type": "VEC3"
    },
    {
      "name": "TEXCOORD_0",
      "bufferView": 0,
      "byteOffset": 24,
      "componentType": 5126,
      "count": 937,
      "max": [
        0.998046875,
        0.9990234375
      ],
      "min": [
        0.001953125,
        0.0009765625
      ],
      "type": "VEC2"
    },
    {
      "bufferView": 1,
      "componentType": 5123,
      "count": 2043,
      "type": "SCALAR"
    },
    {
      "name": "POSITION",
      "bufferView": 0,
      "byteOffset": 29984,
      "componentType": 5126,
      "count": 87,
      "max": [
        -25.068918228149414,
        26.246660232543945,
        19.887760162353516
      ],
      "min": [
        -34.795181274414063,
        19.765958786010742,
        10.798114776611328
      ],
      "type": "VEC3"
    },
    {
      "name": "NORMAL",
      "bufferView": 0,
      "byteOffset": 29996,
      "componentType": 5126,
      "count": 87,
      "max": [
        0.9321778416633606,
        0.99897110462188721,
        0.9979819655418396
      ],
      "min": [
        -0.96345216035842896,
        -0.63516098260879517,
        -0.91668218374252319
      ],
      "type": "VEC3"
    },
    {
      "name": "TEXCOORD_0",
      "bufferView": 0,
      "byteOffset": 30008,
      "componentType": 5126,
      "count": 87,
      "max": [
        0.998046875,
        0.998046875
      ],
      "min": [
        0.001953125,
        0.787109375
      ],
      "type": "VEC2"
    },
    {
      "bufferView": 1,
      "byteOffset": 4086,
      "componentType": 5123,
      "count": 183,
      "type": "SCALAR"
    }
  ],
  "bufferViews": [
    {
      "buffer": 0,
      "byteLength": 32768,
      "byteStride": 32,
      "target": 34962
    },
    {
      "buffer": 0,
      "byteLength": 4452,
      "byteOffset": 32768,
      "target": 34963
    }
  ],
  "buffers": [
    {
      "byteLength": 37220,
      "uri": "3060435073507074223324_LOD00.bin"
    }
  ],
  "images": [
    {
      "uri": "3060435073507074223324_LOD00_0.png"
    },
    {
      "uri": "3060435073507074223324_LOD00_1.png"
    }
  ],
  "materials": [
    {
      "doubleSided": true,
      "pbrMetallicRoughness": {
        "baseColorTexture": {
          "index": 0
        },
        "metallicFactor": 0
      }
    },
    {
      "doubleSided": true,
      "pbrMetallicRoughness": {
        "baseColorTexture": {
          "index": 1
        },
        "metallicFactor": 0
      }
    }
  ],
  "meshes": [
    {
      "name": "3060435073507074223324_0",
      "primitives": [
        {
          "attributes": {
            "POSITION": 0,
            "NORMAL": 1,
            "TEXCOORD_0": 2
          },
          "indices": 3,
          "material": 0
        }
      ]
    },
    {
      "name": "3060435073507074223324_1",
      "primitives": [
        {
          "attributes": {
            "POSITION": 4,
            "NORMAL": 5,
            "TEXCOORD_0": 6
          },
          "indices": 7,
          "material": 1
        }
      ]
    }
  ],
  "nodes": [
    {
      "mesh": 0
    },
    {
      "mesh": 1
    }
  ],
  "scene": 0,
  "scenes": [
    {
      "nodes": [
        0,
        1
      ]
    }
  ],
  "textures": [
    {
      "source": 0
    },
    {
      "source": 1
    }
  ]
}