{
  "asset": {
    "copyright": "",
    "generator": "SharpGLTF 1.0.0",
    "version": "2.0"
  },
  "accessors": [
    {
      "name": "POSITION",
      "bufferView": 0,
      "componentType": 5126,
      "count": 487,
      "max": [
        -248.19122314453125,
        33.139301300048828,
        315.27816772460938
      ],
      "min": [
        -259.5380859375,
        28.755681991577148,
        305.712646484375
      ],
      "type": "VEC3"
    },
    {
      "name": "NORMAL",
      "bufferView": 0,
      "byteOffset": 12,
      "componentType": 5126,
      "count": 487,
      "max": [
        0.96388775110244751,
        0.99896919727325439,
        0.99816989898681641
      ],
      "min": [
        -0.99048000574111938,
        -0.76814991235733032,
        -0.99915212392807007
      ],
      "type": "VEC3"
    },
    {
      "name": "TEXCOORD_0",
      "bufferView": 0,
      "byteOffset": 24,
      "componentType": 5126,
      "count": 487,
      "max": [
        0.998046875,
        0.998046875
      ],
      "min": [
        0.001953125,
        0.607421875
      ],
      "type": "VEC2"
    },
    {
      "bufferView": 1,
      "componentType": 5123,
      "count": 1185,
      "type": "SCALAR"
    }
  ],
  "bufferViews": [
    {
      "buffer": 0,
      "byteLength": 15584,
      "byteStride": 32,
      "target": 34962
    },
    {
      "buffer": 0,
      "byteLength": 2370,
      "byteOffset": 15584,
      "target": 34963
    }
  ],
  "buffers": [
    {
      "byteLength": 17956,
      "uri": "3060435073507076033353_LOD00.bin"
    }
  ],
  "images": [
    {
      "uri": "3060435073507076033353_LOD00.png"
    }
  ],
  "materials": [
    {
      "doubleSided": true,
      "pbrMetallicRoughness": {
        "baseColorTexture": {
          "index": 0
        },
        "metallicFactor": 0
      }
    }
  ],
  "meshes": [
    {
      "name": "3060435073507076033353_0",
      "primitives": [
        {
          "attributes": {
            "POSITION": 0,
            "NORMAL": 1,
            "TEXCOORD_0": 2
          },
          "indices": 3,
          "material": 0
        }
      ]
    }
  ],
  "nodes": [
    {
      "mesh": 0
    }
  ],
  "scene": 0,
  "scenes": [
    {
      "nodes": [
        0
      ]
    }
  ],
  "textures": [
    {
      "source": 0
    }
  ]
}