{
  "asset": {
    "copyright": "",
    "generator": "SharpGLTF 1.0.0",
    "version": "2.0"
  },
  "accessors": [
    {
      "name": "POSITION",
      "bufferView": 0,
      "componentType": 5126,
      "count": 623,
      "max": [
        -200.92230224609375,
        10.621637344360352,
        163.16009521484375
      ],
      "min": [
        -208.02613830566406,
        10.09720516204834,
        153.35650634765625
      ],
      "type": "VEC3"
    },
    {
      "name": "NORMAL",
      "bufferView": 0,
      "byteOffset": 12,
      "componentType": 5126,
      "count": 623,
      "max": [
        0.66293585300445557,
        0.99998462200164795,
        0.94950401782989502
      ],
      "min": [
        -0.99093019962310791,
        -0.96003443002700806,
        -0.94096928834915161
      ],
      "type": "VEC3"
    },
    {
      "name": "TEXCOORD_0",
      "bufferView": 0,
      "byteOffset": 24,
      "componentType": 5126,
      "count": 623,
      "max": [
        0.998046875,
        0.998046875
      ],
      "min": [
        0.001953125,
        0.533203125
      ],
      "type": "VEC2"
    },
    {
      "bufferView": 1,
      "componentType": 5123,
      "count": 1554,
      "type": "SCALAR"
    }
  ],
  "bufferViews": [
    {
      "buffer": 0,
      "byteLength": 19936,
      "byteStride": 32,
      "target": 34962
    },
    {
      "buffer": 0,
      "byteLength": 3108,
      "byteOffset": 19936,
      "target": 34963
    }
  ],
  "buffers": [
    {
      "byteLength": 23044,
      "uri": "3060435073507072457657_LOD00.bin"
    }
  ],
  "images": [
    {
      "uri": "3060435073507072457657_LOD00.png"
    }
  ],
  "materials": [
    {
      "doubleSided": true,
      "pbrMetallicRoughness": {
        "baseColorTexture": {
          "index": 0
        },
        "metallicFactor": 0
      }
    }
  ],
  "meshes": [
    {
      "name": "3060435073507072457657_0",
      "primitives": [
        {
          "attributes": {
            "POSITION": 0,
            "NORMAL": 1,
            "TEXCOORD_0": 2
          },
          "indices": 3,
          "material": 0
        }
      ]
    }
  ],
  "nodes": [
    {
      "mesh": 0
    }
  ],
  "scene": 0,
  "scenes": [
    {
      "nodes": [
        0
      ]
    }
  ],
  "textures": [
    {
      "source": 0
    }
  ]
}