{
  "asset": {
    "copyright": "",
    "generator": "SharpGLTF 1.0.0",
    "version": "2.0"
  },
  "accessors": [
    {
      "name": "POSITION",
      "bufferView": 0,
      "componentType": 5126,
      "count": 444,
      "max": [
        -89.789390563964844,
        102.06720733642578,
        197.64279174804688
      ],
      "min": [
        -94.843170166015625,
        92.917800903320313,
        191.55113220214844
      ],
      "type": "VEC3"
    },
    {
      "name": "NORMAL",
      "bufferView": 0,
      "byteOffset": 12,
      "componentType": 5126,
      "count": 444,
      "max": [
        0.99799245595932007,
        0.78052979707717896,
        0.99931710958480835
      ],
      "min": [
        -0.54384100437164307,
        -0.26139643788337708,
        -0.97188371419906616
      ],
      "type": "VEC3"
    },
    {
      "name": "TEXCOORD_0",
      "bufferView": 0,
      "byteOffset": 24,
      "componentType": 5126,
      "count": 444,
      "max": [
        0.998046875,
        0.998046875
      ],
      "min": [
        0.001953125,
        0.083984375
      ],
      "type": "VEC2"
    },
    {
      "bufferView": 1,
      "componentType": 5123,
      "count": 1353,
      "type": "SCALAR"
    }
  ],
  "bufferViews": [
    {
      "buffer": 0,
      "byteLength": 14208,
      "byteStride": 32,
      "target": 34962
    },
    {
      "buffer": 0,
      "byteLength": 2706,
      "byteOffset": 14208,
      "target": 34963
    }
  ],
  "buffers": [
    {
      "byteLength": 16916,
      "uri": "3060435073507076034007_LOD00.bin"
    }
  ],
  "images": [
    {
      "uri": "3060435073507076034007_LOD00.png"
    }
  ],
  "materials": [
    {
      "doubleSided": true,
      "pbrMetallicRoughness": {
        "baseColorTexture": {
          "index": 0
        },
        "metallicFactor": 0
      }
    }
  ],
  "meshes": [
    {
      "name": "3060435073507076034007_0",
      "primitives": [
        {
          "attributes": {
            "POSITION": 0,
            "NORMAL": 1,
            "TEXCOORD_0": 2
          },
          "indices": 3,
          "material": 0
        }
      ]
    }
  ],
  "nodes": [
    {
      "mesh": 0
    }
  ],
  "scene": 0,
  "scenes": [
    {
      "nodes": [
        0
      ]
    }
  ],
  "textures": [
    {
      "source": 0
    }
  ]
}