{
  "asset": {
    "copyright": "",
    "generator": "SharpGLTF 1.0.0",
    "version": "2.0"
  },
  "accessors": [
    {
      "name": "POSITION",
      "bufferView": 0,
      "componentType": 5126,
      "count": 347,
      "max": [
        -59.237449645996094,
        10.623188018798828,
        209.58009338378906
      ],
      "min": [
        -71.204071044921875,
        10.051248550415039,
        200.918701171875
      ],
      "type": "VEC3"
    },
    {
      "name": "NORMAL",
      "bufferView": 0,
      "byteOffset": 12,
      "componentType": 5126,
      "count": 347,
      "max": [
        0.49402377009391785,
        0.99998456239700317,
        0.76631242036819458
      ],
      "min": [
        -0.86068636178970337,
        0.3233790397644043,
        -0.59533995389938354
      ],
      "type": "VEC3"
    },
    {
      "name": "TEXCOORD_0",
      "bufferView": 0,
      "byteOffset": 24,
      "componentType": 5126,
      "count": 347,
      "max": [
        0.998046875,
        0.998046875
      ],
      "min": [
        0.001953125,
        0.517578125
      ],
      "type": "VEC2"
    },
    {
      "bufferView": 1,
      "componentType": 5123,
      "count": 975,
      "type": "SCALAR"
    }
  ],
  "bufferViews": [
    {
      "buffer": 0,
      "byteLength": 11104,
      "byteStride": 32,
      "target": 34962
    },
    {
      "buffer": 0,
      "byteLength": 1950,
      "byteOffset": 11104,
      "target": 34963
    }
  ],
  "buffers": [
    {
      "byteLength": 13056,
      "uri": "3060435073507072465575_LOD00.bin"
    }
  ],
  "images": [
    {
      "uri": "3060435073507072465575_LOD00.png"
    }
  ],
  "materials": [
    {
      "doubleSided": true,
      "pbrMetallicRoughness": {
        "baseColorTexture": {
          "index": 0
        },
        "metallicFactor": 0
      }
    }
  ],
  "meshes": [
    {
      "name": "3060435073507072465575_0",
      "primitives": [
        {
          "attributes": {
            "POSITION": 0,
            "NORMAL": 1,
            "TEXCOORD_0": 2
          },
          "indices": 3,
          "material": 0
        }
      ]
    }
  ],
  "nodes": [
    {
      "mesh": 0
    }
  ],
  "scene": 0,
  "scenes": [
    {
      "nodes": [
        0
      ]
    }
  ],
  "textures": [
    {
      "source": 0
    }
  ]
}