{
  "asset": {
    "copyright": "",
    "generator": "SharpGLTF 1.0.0",
    "version": "2.0"
  },
  "accessors": [
    {
      "name": "POSITION",
      "bufferView": 0,
      "componentType": 5126,
      "count": 443,
      "max": [
        -248.1903076171875,
        10.708724975585938,
        324.8856201171875
      ],
      "min": [
        -260.15673828125,
        9.2790307998657227,
        315.0826416015625
      ],
      "type": "VEC3"
    },
    {
      "name": "NORMAL",
      "bufferView": 0,
      "byteOffset": 12,
      "componentType": 5126,
      "count": 443,
      "max": [
        0.98345911502838135,
        0.9999840259552002,
        0.63860255479812622
      ],
      "min": [
        -0.99465835094451904,
        -0.59106439352035522,
        -0.81874006986618042
      ],
      "type": "VEC3"
    },
    {
      "name": "TEXCOORD_0",
      "bufferView": 0,
      "byteOffset": 24,
      "componentType": 5126,
      "count": 443,
      "max": [
        0.998046875,
        0.998046875
      ],
      "min": [
        0.001953125,
        0.302734375
      ],
      "type": "VEC2"
    },
    {
      "bufferView": 1,
      "componentType": 5123,
      "count": 1266,
      "type": "SCALAR"
    }
  ],
  "bufferViews": [
    {
      "buffer": 0,
      "byteLength": 14176,
      "byteStride": 32,
      "target": 34962
    },
    {
      "buffer": 0,
      "byteLength": 2532,
      "byteOffset": 14176,
      "target": 34963
    }
  ],
  "buffers": [
    {
      "byteLength": 16708,
      "uri": "3060435073507072477775_LOD00.bin"
    }
  ],
  "images": [
    {
      "uri": "3060435073507072477775_LOD00.png"
    }
  ],
  "materials": [
    {
      "doubleSided": true,
      "pbrMetallicRoughness": {
        "baseColorTexture": {
          "index": 0
        },
        "metallicFactor": 0
      }
    }
  ],
  "meshes": [
    {
      "name": "3060435073507072477775_0",
      "primitives": [
        {
          "attributes": {
            "POSITION": 0,
            "NORMAL": 1,
            "TEXCOORD_0": 2
          },
          "indices": 3,
          "material": 0
        }
      ]
    }
  ],
  "nodes": [
    {
      "mesh": 0
    }
  ],
  "scene": 0,
  "scenes": [
    {
      "nodes": [
        0
      ]
    }
  ],
  "textures": [
    {
      "source": 0
    }
  ]
}