{
  "asset": {
    "copyright": "",
    "generator": "SharpGLTF 1.0.0",
    "version": "2.0"
  },
  "accessors": [
    {
      "name": "POSITION",
      "bufferView": 0,
      "componentType": 5126,
      "count": 398,
      "max": [
        -177.37202453613281,
        10.612565040588379,
        391.42745971679688
      ],
      "min": [
        -189.24288940429688,
        9.2778940200805664,
        381.76681518554688
      ],
      "type": "VEC3"
    },
    {
      "name": "NORMAL",
      "bufferView": 0,
      "byteOffset": 12,
      "componentType": 5126,
      "count": 398,
      "max": [
        0.58864516019821167,
        0.99897396564483643,
        0.799613356590271
      ],
      "min": [
        -0.98198455572128296,
        0.18890437483787537,
        -0.927207350730896
      ],
      "type": "VEC3"
    },
    {
      "name": "TEXCOORD_0",
      "bufferView": 0,
      "byteOffset": 24,
      "componentType": 5126,
      "count": 398,
      "max": [
        0.998046875,
        0.998046875
      ],
      "min": [
        0.001953125,
        0.142578125
      ],
      "type": "VEC2"
    },
    {
      "bufferView": 1,
      "componentType": 5123,
      "count": 1191,
      "type": "SCALAR"
    }
  ],
  "bufferViews": [
    {
      "buffer": 0,
      "byteLength": 12736,
      "byteStride": 32,
      "target": 34962
    },
    {
      "buffer": 0,
      "byteLength": 2382,
      "byteOffset": 12736,
      "target": 34963
    }
  ],
  "buffers": [
    {
      "byteLength": 15120,
      "uri": "3060435073507072655647_LOD00.bin"
    }
  ],
  "images": [
    {
      "uri": "3060435073507072655647_LOD00.png"
    }
  ],
  "materials": [
    {
      "doubleSided": true,
      "pbrMetallicRoughness": {
        "baseColorTexture": {
          "index": 0
        },
        "metallicFactor": 0
      }
    }
  ],
  "meshes": [
    {
      "name": "3060435073507072655647_0",
      "primitives": [
        {
          "attributes": {
            "POSITION": 0,
            "NORMAL": 1,
            "TEXCOORD_0": 2
          },
          "indices": 3,
          "material": 0
        }
      ]
    }
  ],
  "nodes": [
    {
      "mesh": 0
    }
  ],
  "scene": 0,
  "scenes": [
    {
      "nodes": [
        0
      ]
    }
  ],
  "textures": [
    {
      "source": 0
    }
  ]
}