{
  "asset": {
    "copyright": "",
    "generator": "SharpGLTF 1.0.0",
    "version": "2.0"
  },
  "accessors": [
    {
      "name": "POSITION",
      "bufferView": 0,
      "componentType": 5126,
      "count": 15,
      "max": [
        -189.10273742675781,
        10.621584892272949,
        173.38165283203125
      ],
      "min": [
        -189.62721252441406,
        10.478604316711426,
        172.38227844238281
      ],
      "type": "VEC3"
    },
    {
      "name": "NORMAL",
      "bufferView": 0,
      "byteOffset": 12,
      "componentType": 5126,
      "count": 15,
      "max": [
        0.0039247721433639526,
        0.99998462200164795,
        -0.0039206836372613907
      ],
      "min": [
        0.0039247721433639526,
        0.99998462200164795,
        -0.0039206836372613907
      ],
      "type": "VEC3"
    },
    {
      "name": "TEXCOORD_0",
      "bufferView": 0,
      "byteOffset": 24,
      "componentType": 5126,
      "count": 15,
      "max": [
        0.033203125,
        0.998046875
      ],
      "min": [
        0.001953125,
        0.939453125
      ],
      "type": "VEC2"
    },
    {
      "bufferView": 1,
      "componentType": 5123,
      "count": 51,
      "type": "SCALAR"
    }
  ],
  "bufferViews": [
    {
      "buffer": 0,
      "byteLength": 480,
      "byteStride": 32,
      "target": 34962
    },
    {
      "buffer": 0,
      "byteLength": 102,
      "byteOffset": 480,
      "target": 34963
    }
  ],
  "buffers": [
    {
      "byteLength": 584,
      "uri": "3060435073507072457676_LOD00.bin"
    }
  ],
  "images": [
    {
      "uri": "3060435073507072457676_LOD00.png"
    }
  ],
  "materials": [
    {
      "doubleSided": true,
      "pbrMetallicRoughness": {
        "baseColorTexture": {
          "index": 0
        },
        "metallicFactor": 0
      }
    }
  ],
  "meshes": [
    {
      "name": "3060435073507072457676_0",
      "primitives": [
        {
          "attributes": {
            "POSITION": 0,
            "NORMAL": 1,
            "TEXCOORD_0": 2
          },
          "indices": 3,
          "material": 0
        }
      ]
    }
  ],
  "nodes": [
    {
      "mesh": 0
    }
  ],
  "scene": 0,
  "scenes": [
    {
      "nodes": [
        0
      ]
    }
  ],
  "textures": [
    {
      "source": 0
    }
  ]
}