{
  "asset": {
    "copyright": "",
    "generator": "SharpGLTF 1.0.0",
    "version": "2.0"
  },
  "accessors": [
    {
      "name": "POSITION",
      "bufferView": 0,
      "componentType": 5126,
      "count": 438,
      "max": [
        -47.323989868164063,
        10.672952651977539,
        115.54293060302734
      ],
      "min": [
        -59.243255615234375,
        9.6245822906494141,
        105.92982482910156
      ],
      "type": "VEC3"
    },
    {
      "name": "NORMAL",
      "bufferView": 0,
      "byteOffset": 12,
      "componentType": 5126,
      "count": 438,
      "max": [
        0.85969835519790649,
        0.99998444318771362,
        0.83688223361968994
      ],
      "min": [
        -0.95354336500167847,
        -0.34764751791954041,
        -0.96830302476882935
      ],
      "type": "VEC3"
    },
    {
      "name": "TEXCOORD_0",
      "bufferView": 0,
      "byteOffset": 24,
      "componentType": 5126,
      "count": 438,
      "max": [
        0.998046875,
        0.998046875
      ],
      "min": [
        0.001953125,
        0.208984375
      ],
      "type": "VEC2"
    },
    {
      "bufferView": 1,
      "componentType": 5123,
      "count": 1227,
      "type": "SCALAR"
    }
  ],
  "bufferViews": [
    {
      "buffer": 0,
      "byteLength": 14016,
      "byteStride": 32,
      "target": 34962
    },
    {
      "buffer": 0,
      "byteLength": 2454,
      "byteOffset": 14016,
      "target": 34963
    }
  ],
  "buffers": [
    {
      "byteLength": 16472,
      "uri": "3060435073507072447554_LOD00.bin"
    }
  ],
  "images": [
    {
      "uri": "3060435073507072447554_LOD00.png"
    }
  ],
  "materials": [
    {
      "doubleSided": true,
      "pbrMetallicRoughness": {
        "baseColorTexture": {
          "index": 0
        },
        "metallicFactor": 0
      }
    }
  ],
  "meshes": [
    {
      "name": "3060435073507072447554_0",
      "primitives": [
        {
          "attributes": {
            "POSITION": 0,
            "NORMAL": 1,
            "TEXCOORD_0": 2
          },
          "indices": 3,
          "material": 0
        }
      ]
    }
  ],
  "nodes": [
    {
      "mesh": 0
    }
  ],
  "scene": 0,
  "scenes": [
    {
      "nodes": [
        0
      ]
    }
  ],
  "textures": [
    {
      "source": 0
    }
  ]
}