{
  "asset": {
    "copyright": "",
    "generator": "SharpGLTF 1.0.0",
    "version": "2.0"
  },
  "accessors": [
    {
      "name": "POSITION",
      "bufferView": 0,
      "componentType": 5126,
      "count": 242,
      "max": [
        -107.13201904296875,
        11.283648490905762,
        239.16740417480469
      ],
      "min": [
        -118.43098449707031,
        10.473391532897949,
        229.55429077148438
      ],
      "type": "VEC3"
    },
    {
      "name": "NORMAL",
      "bufferView": 0,
      "byteOffset": 12,
      "componentType": 5126,
      "count": 242,
      "max": [
        0.92745846509933472,
        0.99998462200164795,
        0.63599973917007446
      ],
      "min": [
        -0.76711654663085938,
        0.30622836947441101,
        -0.79012858867645264
      ],
      "type": "VEC3"
    },
    {
      "name": "TEXCOORD_0",
      "bufferView": 0,
      "byteOffset": 24,
      "componentType": 5126,
      "count": 242,
      "max": [
        0.990234375,
        0.998046875
      ],
      "min": [
        0.001953125,
        0.767578125
      ],
      "type": "VEC2"
    },
    {
      "bufferView": 1,
      "componentType": 5123,
      "count": 699,
      "type": "SCALAR"
    }
  ],
  "bufferViews": [
    {
      "buffer": 0,
      "byteLength": 7744,
      "byteStride": 32,
      "target": 34962
    },
    {
      "buffer": 0,
      "byteLength": 1398,
      "byteOffset": 7744,
      "target": 34963
    }
  ],
  "buffers": [
    {
      "byteLength": 9144,
      "uri": "3060435073507076030213_LOD00.bin"
    }
  ],
  "images": [
    {
      "uri": "3060435073507076030213_LOD00.png"
    }
  ],
  "materials": [
    {
      "doubleSided": true,
      "pbrMetallicRoughness": {
        "baseColorTexture": {
          "index": 0
        },
        "metallicFactor": 0
      }
    }
  ],
  "meshes": [
    {
      "name": "3060435073507076030213_0",
      "primitives": [
        {
          "attributes": {
            "POSITION": 0,
            "NORMAL": 1,
            "TEXCOORD_0": 2
          },
          "indices": 3,
          "material": 0
        }
      ]
    }
  ],
  "nodes": [
    {
      "mesh": 0
    }
  ],
  "scene": 0,
  "scenes": [
    {
      "nodes": [
        0
      ]
    }
  ],
  "textures": [
    {
      "source": 0
    }
  ]
}