{
  "asset": {
    "copyright": "",
    "generator": "SharpGLTF 1.0.0",
    "version": "2.0"
  },
  "accessors": [
    {
      "name": "POSITION",
      "bufferView": 0,
      "componentType": 5126,
      "count": 429,
      "max": [
        -26.59382438659668,
        12.476966857910156,
        208.81834411621094
      ],
      "min": [
        -32.648647308349609,
        10.570931434631348,
        200.96604919433594
      ],
      "type": "VEC3"
    },
    {
      "name": "NORMAL",
      "bufferView": 0,
      "byteOffset": 12,
      "componentType": 5126,
      "count": 429,
      "max": [
        0.91852617263793945,
        0.99998438358306885,
        0.91642802953720093
      ],
      "min": [
        -0.99486386775970459,
        -0.53349196910858154,
        -0.97149449586868286
      ],
      "type": "VEC3"
    },
    {
      "name": "TEXCOORD_0",
      "bufferView": 0,
      "byteOffset": 24,
      "componentType": 5126,
      "count": 429,
      "max": [
        0.998046875,
        0.998046875
      ],
      "min": [
        0.001953125,
        0.595703125
      ],
      "type": "VEC2"
    },
    {
      "bufferView": 1,
      "componentType": 5123,
      "count": 1083,
      "type": "SCALAR"
    }
  ],
  "bufferViews": [
    {
      "buffer": 0,
      "byteLength": 13728,
      "byteStride": 32,
      "target": 34962
    },
    {
      "buffer": 0,
      "byteLength": 2166,
      "byteOffset": 13728,
      "target": 34963
    }
  ],
  "buffers": [
    {
      "byteLength": 15896,
      "uri": "3060435073507076021120_LOD00.bin"
    }
  ],
  "images": [
    {
      "uri": "3060435073507076021120_LOD00.png"
    }
  ],
  "materials": [
    {
      "doubleSided": true,
      "pbrMetallicRoughness": {
        "baseColorTexture": {
          "index": 0
        },
        "metallicFactor": 0
      }
    }
  ],
  "meshes": [
    {
      "name": "3060435073507076021120_0",
      "primitives": [
        {
          "attributes": {
            "POSITION": 0,
            "NORMAL": 1,
            "TEXCOORD_0": 2
          },
          "indices": 3,
          "material": 0
        }
      ]
    }
  ],
  "nodes": [
    {
      "mesh": 0
    }
  ],
  "scene": 0,
  "scenes": [
    {
      "nodes": [
        0
      ]
    }
  ],
  "textures": [
    {
      "source": 0
    }
  ]
}