{
  "asset": {
    "copyright": "",
    "generator": "SharpGLTF 1.0.0",
    "version": "2.0"
  },
  "accessors": [
    {
      "name": "POSITION",
      "bufferView": 0,
      "componentType": 5126,
      "count": 220,
      "max": [
        -89.645790100097656,
        56.488101959228516,
        191.64999389648438
      ],
      "min": [
        -94.699607849121094,
        47.195957183837891,
        189.60343933105469
      ],
      "type": "VEC3"
    },
    {
      "name": "NORMAL",
      "bufferView": 0,
      "byteOffset": 12,
      "componentType": 5126,
      "count": 220,
      "max": [
        0.88099563121795654,
        0.7075774073600769,
        -0.43215301632881165
      ],
      "min": [
        -0.51995545625686646,
        -0.37432116270065308,
        -0.99672776460647583
      ],
      "type": "VEC3"
    },
    {
      "name": "TEXCOORD_0",
      "bufferView": 0,
      "byteOffset": 24,
      "componentType": 5126,
      "count": 220,
      "max": [
        0.982421875,
        0.998046875
      ],
      "min": [
        0.001953125,
        0.357421875
      ],
      "type": "VEC2"
    },
    {
      "bufferView": 1,
      "componentType": 5123,
      "count": 693,
      "type": "SCALAR"
    }
  ],
  "bufferViews": [
    {
      "buffer": 0,
      "byteLength": 7040,
      "byteStride": 32,
      "target": 34962
    },
    {
      "buffer": 0,
      "byteLength": 1386,
      "byteOffset": 7040,
      "target": 34963
    }
  ],
  "buffers": [
    {
      "byteLength": 8428,
      "uri": "3060435073507076030401_LOD00.bin"
    }
  ],
  "images": [
    {
      "uri": "3060435073507076030401_LOD00.png"
    }
  ],
  "materials": [
    {
      "doubleSided": true,
      "pbrMetallicRoughness": {
        "baseColorTexture": {
          "index": 0
        },
        "metallicFactor": 0
      }
    }
  ],
  "meshes": [
    {
      "name": "3060435073507076030401_0",
      "primitives": [
        {
          "attributes": {
            "POSITION": 0,
            "NORMAL": 1,
            "TEXCOORD_0": 2
          },
          "indices": 3,
          "material": 0
        }
      ]
    }
  ],
  "nodes": [
    {
      "mesh": 0
    }
  ],
  "scene": 0,
  "scenes": [
    {
      "nodes": [
        0
      ]
    }
  ],
  "textures": [
    {
      "source": 0
    }
  ]
}