{
  "asset": {
    "copyright": "",
    "generator": "SharpGLTF 1.0.0",
    "version": "2.0"
  },
  "accessors": [
    {
      "name": "POSITION",
      "bufferView": 0,
      "componentType": 5126,
      "count": 443,
      "max": [
        -118.33252716064453,
        10.623519897460938,
        163.15756225585938
      ],
      "min": [
        -130.15647888183594,
        9.4320392608642578,
        153.49664306640625
      ],
      "type": "VEC3"
    },
    {
      "name": "NORMAL",
      "bufferView": 0,
      "byteOffset": 12,
      "componentType": 5126,
      "count": 443,
      "max": [
        0.81753849983215332,
        0.99998462200164795,
        0.57415181398391724
      ],
      "min": [
        -0.81464278697967529,
        0.33813208341598511,
        -0.71430206298828125
      ],
      "type": "VEC3"
    },
    {
      "name": "TEXCOORD_0",
      "bufferView": 0,
      "byteOffset": 24,
      "componentType": 5126,
      "count": 443,
      "max": [
        0.998046875,
        0.998046875
      ],
      "min": [
        0.001953125,
        0.013671875
      ],
      "type": "VEC2"
    },
    {
      "bufferView": 1,
      "componentType": 5123,
      "count": 1290,
      "type": "SCALAR"
    }
  ],
  "bufferViews": [
    {
      "buffer": 0,
      "byteLength": 14176,
      "byteStride": 32,
      "target": 34962
    },
    {
      "buffer": 0,
      "byteLength": 2580,
      "byteOffset": 14176,
      "target": 34963
    }
  ],
  "buffers": [
    {
      "byteLength": 16756,
      "uri": "3060435073507072456746_LOD00.bin"
    }
  ],
  "images": [
    {
      "uri": "3060435073507072456746_LOD00.png"
    }
  ],
  "materials": [
    {
      "doubleSided": true,
      "pbrMetallicRoughness": {
        "baseColorTexture": {
          "index": 0
        },
        "metallicFactor": 0
      }
    }
  ],
  "meshes": [
    {
      "name": "3060435073507072456746_0",
      "primitives": [
        {
          "attributes": {
            "POSITION": 0,
            "NORMAL": 1,
            "TEXCOORD_0": 2
          },
          "indices": 3,
          "material": 0
        }
      ]
    }
  ],
  "nodes": [
    {
      "mesh": 0
    }
  ],
  "scene": 0,
  "scenes": [
    {
      "nodes": [
        0
      ]
    }
  ],
  "textures": [
    {
      "source": 0
    }
  ]
}