{
  "asset": {
    "copyright": "",
    "generator": "SharpGLTF 1.0.0",
    "version": "2.0"
  },
  "accessors": [
    {
      "name": "POSITION",
      "bufferView": 0,
      "componentType": 5126,
      "count": 534,
      "max": [
        -224.54804992675781,
        10.751402854919434,
        438.99502563476563
      ],
      "min": [
        -236.51437377929688,
        8.9398012161254883,
        429.2393798828125
      ],
      "type": "VEC3"
    },
    {
      "name": "NORMAL",
      "bufferView": 0,
      "byteOffset": 12,
      "componentType": 5126,
      "count": 534,
      "max": [
        0.99178898334503174,
        0.9999847412109375,
        0.99087703227996826
      ],
      "min": [
        -0.99528568983078003,
        -0.95661288499832153,
        -0.97689270973205566
      ],
      "type": "VEC3"
    },
    {
      "name": "TEXCOORD_0",
      "bufferView": 0,
      "byteOffset": 24,
      "componentType": 5126,
      "count": 534,
      "max": [
        0.998046875,
        0.998046875
      ],
      "min": [
        0.001953125,
        0.033203125
      ],
      "type": "VEC2"
    },
    {
      "bufferView": 1,
      "componentType": 5123,
      "count": 1458,
      "type": "SCALAR"
    }
  ],
  "bufferViews": [
    {
      "buffer": 0,
      "byteLength": 17088,
      "byteStride": 32,
      "target": 34962
    },
    {
      "buffer": 0,
      "byteLength": 2916,
      "byteOffset": 17088,
      "target": 34963
    }
  ],
  "buffers": [
    {
      "byteLength": 20004,
      "uri": "3060435073507072657565_LOD00.bin"
    }
  ],
  "images": [
    {
      "uri": "3060435073507072657565_LOD00.png"
    }
  ],
  "materials": [
    {
      "doubleSided": true,
      "pbrMetallicRoughness": {
        "baseColorTexture": {
          "index": 0
        },
        "metallicFactor": 0
      }
    }
  ],
  "meshes": [
    {
      "name": "3060435073507072657565_0",
      "primitives": [
        {
          "attributes": {
            "POSITION": 0,
            "NORMAL": 1,
            "TEXCOORD_0": 2
          },
          "indices": 3,
          "material": 0
        }
      ]
    }
  ],
  "nodes": [
    {
      "mesh": 0
    }
  ],
  "scene": 0,
  "scenes": [
    {
      "nodes": [
        0
      ]
    }
  ],
  "textures": [
    {
      "source": 0
    }
  ]
}