{
  "asset": {
    "copyright": "",
    "generator": "SharpGLTF 1.0.0",
    "version": "2.0"
  },
  "accessors": [
    {
      "name": "POSITION",
      "bufferView": 0,
      "componentType": 5126,
      "count": 176,
      "max": [
        -79.446731567382813,
        65.486618041992188,
        278.35885620117188
      ],
      "min": [
        -82.879417419433594,
        56.337360382080078,
        277.026123046875
      ],
      "type": "VEC3"
    },
    {
      "name": "NORMAL",
      "bufferView": 0,
      "byteOffset": 12,
      "componentType": 5126,
      "count": 176,
      "max": [
        0.74009710550308228,
        0.68901944160461426,
        0.99898076057434082
      ],
      "min": [
        -0.33860114216804504,
        -0.50705713033676147,
        0.63573998212814331
      ],
      "type": "VEC3"
    },
    {
      "name": "TEXCOORD_0",
      "bufferView": 0,
      "byteOffset": 24,
      "componentType": 5126,
      "count": 176,
      "max": [
        0.998046875,
        0.998046875
      ],
      "min": [
        0.001953125,
        0.662109375
      ],
      "type": "VEC2"
    },
    {
      "bufferView": 1,
      "componentType": 5123,
      "count": 543,
      "type": "SCALAR"
    }
  ],
  "bufferViews": [
    {
      "buffer": 0,
      "byteLength": 5632,
      "byteStride": 32,
      "target": 34962
    },
    {
      "buffer": 0,
      "byteLength": 1086,
      "byteOffset": 5632,
      "target": 34963
    }
  ],
  "buffers": [
    {
      "byteLength": 6720,
      "uri": "3060435073507076032424_LOD00.bin"
    }
  ],
  "images": [
    {
      "uri": "3060435073507076032424_LOD00.png"
    }
  ],
  "materials": [
    {
      "doubleSided": true,
      "pbrMetallicRoughness": {
        "baseColorTexture": {
          "index": 0
        },
        "metallicFactor": 0
      }
    }
  ],
  "meshes": [
    {
      "name": "3060435073507076032424_0",
      "primitives": [
        {
          "attributes": {
            "POSITION": 0,
            "NORMAL": 1,
            "TEXCOORD_0": 2
          },
          "indices": 3,
          "material": 0
        }
      ]
    }
  ],
  "nodes": [
    {
      "mesh": 0
    }
  ],
  "scene": 0,
  "scenes": [
    {
      "nodes": [
        0
      ]
    }
  ],
  "textures": [
    {
      "source": 0
    }
  ]
}