{
  "asset": {
    "copyright": "",
    "generator": "SharpGLTF 1.0.0",
    "version": "2.0"
  },
  "accessors": [
    {
      "name": "POSITION",
      "bufferView": 0,
      "componentType": 5126,
      "count": 331,
      "max": [
        -35.599102020263672,
        11.757884979248047,
        315.22393798828125
      ],
      "min": [
        -46.612068176269531,
        10.471014976501465,
        306.41986083984375
      ],
      "type": "VEC3"
    },
    {
      "name": "NORMAL",
      "bufferView": 0,
      "byteOffset": 12,
      "componentType": 5126,
      "count": 331,
      "max": [
        0.89814543724060059,
        0.99897336959838867,
        0.81891679763793945
      ],
      "min": [
        -0.99047547578811646,
        0.13761800527572632,
        -0.97294783592224121
      ],
      "type": "VEC3"
    },
    {
      "name": "TEXCOORD_0",
      "bufferView": 0,
      "byteOffset": 24,
      "componentType": 5126,
      "count": 331,
      "max": [
        0.998046875,
        0.998046875
      ],
      "min": [
        0.001953125,
        0.412109375
      ],
      "type": "VEC2"
    },
    {
      "bufferView": 1,
      "componentType": 5123,
      "count": 891,
      "type": "SCALAR"
    }
  ],
  "bufferViews": [
    {
      "buffer": 0,
      "byteLength": 10592,
      "byteStride": 32,
      "target": 34962
    },
    {
      "buffer": 0,
      "byteLength": 1782,
      "byteOffset": 10592,
      "target": 34963
    }
  ],
  "buffers": [
    {
      "byteLength": 12376,
      "uri": "3060435073507076023303_LOD00.bin"
    }
  ],
  "images": [
    {
      "uri": "3060435073507076023303_LOD00.png"
    }
  ],
  "materials": [
    {
      "doubleSided": true,
      "pbrMetallicRoughness": {
        "baseColorTexture": {
          "index": 0
        },
        "metallicFactor": 0
      }
    }
  ],
  "meshes": [
    {
      "name": "3060435073507076023303_0",
      "primitives": [
        {
          "attributes": {
            "POSITION": 0,
            "NORMAL": 1,
            "TEXCOORD_0": 2
          },
          "indices": 3,
          "material": 0
        }
      ]
    }
  ],
  "nodes": [
    {
      "mesh": 0
    }
  ],
  "scene": 0,
  "scenes": [
    {
      "nodes": [
        0
      ]
    }
  ],
  "textures": [
    {
      "source": 0
    }
  ]
}