{
  "asset": {
    "copyright": "",
    "generator": "SharpGLTF 1.0.0",
    "version": "2.0"
  },
  "accessors": [
    {
      "name": "POSITION",
      "bufferView": 0,
      "componentType": 5126,
      "count": 474,
      "max": [
        -71.057052612304688,
        11.906593322753906,
        144.082763671875
      ],
      "min": [
        -82.976303100585938,
        10.476790428161621,
        134.32691955566406
      ],
      "type": "VEC3"
    },
    {
      "name": "NORMAL",
      "bufferView": 0,
      "byteOffset": 12,
      "componentType": 5126,
      "count": 474,
      "max": [
        0.91673517227172852,
        0.99998456239700317,
        0.860076904296875
      ],
      "min": [
        -0.9130854606628418,
        -0.27463582158088684,
        -0.97729164361953735
      ],
      "type": "VEC3"
    },
    {
      "name": "TEXCOORD_0",
      "bufferView": 0,
      "byteOffset": 24,
      "componentType": 5126,
      "count": 474,
      "max": [
        0.998046875,
        0.998046875
      ],
      "min": [
        0.001953125,
        0.080078125
      ],
      "type": "VEC2"
    },
    {
      "bufferView": 1,
      "componentType": 5123,
      "count": 1362,
      "type": "SCALAR"
    }
  ],
  "bufferViews": [
    {
      "buffer": 0,
      "byteLength": 15168,
      "byteStride": 32,
      "target": 34962
    },
    {
      "buffer": 0,
      "byteLength": 2724,
      "byteOffset": 15168,
      "target": 34963
    }
  ],
  "buffers": [
    {
      "byteLength": 17892,
      "uri": "3060435073507076012022_LOD00.bin"
    }
  ],
  "images": [
    {
      "uri": "3060435073507076012022_LOD00.png"
    }
  ],
  "materials": [
    {
      "doubleSided": true,
      "pbrMetallicRoughness": {
        "baseColorTexture": {
          "index": 0
        },
        "metallicFactor": 0
      }
    }
  ],
  "meshes": [
    {
      "name": "3060435073507076012022_0",
      "primitives": [
        {
          "attributes": {
            "POSITION": 0,
            "NORMAL": 1,
            "TEXCOORD_0": 2
          },
          "indices": 3,
          "material": 0
        }
      ]
    }
  ],
  "nodes": [
    {
      "mesh": 0
    }
  ],
  "scene": 0,
  "scenes": [
    {
      "nodes": [
        0
      ]
    }
  ],
  "textures": [
    {
      "source": 0
    }
  ]
}