{
  "asset": {
    "copyright": "",
    "generator": "SharpGLTF 1.0.0",
    "version": "2.0"
  },
  "accessors": [
    {
      "name": "POSITION",
      "bufferView": 0,
      "componentType": 5126,
      "count": 87,
      "max": [
        -118.23236083984375,
        27.139358520507813,
        391.47406005859375
      ],
      "min": [
        -123.90546417236328,
        19.705799102783203,
        388.5230712890625
      ],
      "type": "VEC3"
    },
    {
      "name": "NORMAL",
      "bufferView": 0,
      "byteOffset": 12,
      "componentType": 5126,
      "count": 87,
      "max": [
        -0.18856671452522278,
        0.38938003778457642,
        -0.82224375009536743
      ],
      "min": [
        -0.41508835554122925,
        0.31812945008277893,
        -0.91818290948867798
      ],
      "type": "VEC3"
    },
    {
      "name": "TEXCOORD_0",
      "bufferView": 0,
      "byteOffset": 24,
      "componentType": 5126,
      "count": 87,
      "max": [
        0.724609375,
        0.998046875
      ],
      "min": [
        0.001953125,
        0.583984375
      ],
      "type": "VEC2"
    },
    {
      "bufferView": 1,
      "componentType": 5123,
      "count": 261,
      "type": "SCALAR"
    }
  ],
  "bufferViews": [
    {
      "buffer": 0,
      "byteLength": 2784,
      "byteStride": 32,
      "target": 34962
    },
    {
      "buffer": 0,
      "byteLength": 522,
      "byteOffset": 2784,
      "target": 34963
    }
  ],
  "buffers": [
    {
      "byteLength": 3308,
      "uri": "3060435073507076210306_LOD00.bin"
    }
  ],
  "images": [
    {
      "uri": "3060435073507076210306_LOD00.png"
    }
  ],
  "materials": [
    {
      "doubleSided": true,
      "pbrMetallicRoughness": {
        "baseColorTexture": {
          "index": 0
        },
        "metallicFactor": 0
      }
    }
  ],
  "meshes": [
    {
      "name": "3060435073507076210306_0",
      "primitives": [
        {
          "attributes": {
            "POSITION": 0,
            "NORMAL": 1,
            "TEXCOORD_0": 2
          },
          "indices": 3,
          "material": 0
        }
      ]
    }
  ],
  "nodes": [
    {
      "mesh": 0
    }
  ],
  "scene": 0,
  "scenes": [
    {
      "nodes": [
        0
      ]
    }
  ],
  "textures": [
    {
      "source": 0
    }
  ]
}