{
  "asset": {
    "copyright": "",
    "generator": "SharpGLTF 1.0.0",
    "version": "2.0"
  },
  "accessors": [
    {
      "name": "POSITION",
      "bufferView": 0,
      "componentType": 5126,
      "count": 461,
      "max": [
        -35.552486419677734,
        13.336238861083984,
        144.03480529785156
      ],
      "min": [
        -47.423957824707031,
        10.477076530456543,
        134.46917724609375
      ],
      "type": "VEC3"
    },
    {
      "name": "NORMAL",
      "bufferView": 0,
      "byteOffset": 12,
      "componentType": 5126,
      "count": 461,
      "max": [
        0.42378935217857361,
        0.99998456239700317,
        0.85356336832046509
      ],
      "min": [
        -0.92341631650924683,
        -0.9236379861831665,
        -0.73352199792861938
      ],
      "type": "VEC3"
    },
    {
      "name": "TEXCOORD_0",
      "bufferView": 0,
      "byteOffset": 24,
      "componentType": 5126,
      "count": 461,
      "max": [
        0.998046875,
        0.998046875
      ],
      "min": [
        0.001953125,
        0.185546875
      ],
      "type": "VEC2"
    },
    {
      "bufferView": 1,
      "componentType": 5123,
      "count": 1281,
      "type": "SCALAR"
    }
  ],
  "bufferViews": [
    {
      "buffer": 0,
      "byteLength": 14752,
      "byteStride": 32,
      "target": 34962
    },
    {
      "buffer": 0,
      "byteLength": 2562,
      "byteOffset": 14752,
      "target": 34963
    }
  ],
  "buffers": [
    {
      "byteLength": 17316,
      "uri": "3060435073507076003123_LOD00.bin"
    }
  ],
  "images": [
    {
      "uri": "3060435073507076003123_LOD00.png"
    }
  ],
  "materials": [
    {
      "doubleSided": true,
      "pbrMetallicRoughness": {
        "baseColorTexture": {
          "index": 0
        },
        "metallicFactor": 0
      }
    }
  ],
  "meshes": [
    {
      "name": "3060435073507076003123_0",
      "primitives": [
        {
          "attributes": {
            "POSITION": 0,
            "NORMAL": 1,
            "TEXCOORD_0": 2
          },
          "indices": 3,
          "material": 0
        }
      ]
    }
  ],
  "nodes": [
    {
      "mesh": 0
    }
  ],
  "scene": 0,
  "scenes": [
    {
      "nodes": [
        0
      ]
    }
  ],
  "textures": [
    {
      "source": 0
    }
  ]
}