{
  "asset": {
    "copyright": "",
    "generator": "SharpGLTF 1.0.0",
    "version": "2.0"
  },
  "accessors": [
    {
      "name": "POSITION",
      "bufferView": 0,
      "componentType": 5126,
      "count": 1084,
      "max": [
        -271.88751220703125,
        10.762823104858398,
        86.963066101074219
      ],
      "min": [
        -283.94967651367188,
        8.2375507354736328,
        77.254844665527344
      ],
      "type": "VEC3"
    },
    {
      "name": "NORMAL",
      "bufferView": 0,
      "byteOffset": 12,
      "componentType": 5126,
      "count": 1084,
      "max": [
        0.99915379285812378,
        0.99998462200164795,
        0.99426192045211792
      ],
      "min": [
        -0.99528217315673828,
        -0.996390700340271,
        -0.99915194511413574
      ],
      "type": "VEC3"
    },
    {
      "name": "TEXCOORD_0",
      "bufferView": 0,
      "byteOffset": 24,
      "componentType": 5126,
      "count": 1084,
      "max": [
        0.998046875,
        0.9990234375
      ],
      "min": [
        0.001953125,
        0.0009765625
      ],
      "type": "VEC2"
    },
    {
      "bufferView": 1,
      "componentType": 5123,
      "count": 2697,
      "type": "SCALAR"
    },
    {
      "name": "POSITION",
      "bufferView": 0,
      "byteOffset": 34688,
      "componentType": 5126,
      "count": 412,
      "max": [
        -271.98269653320313,
        10.667709350585938,
        87.010345458984375
      ],
      "min": [
        -283.85427856445313,
        7.9993681907653809,
        77.397308349609375
      ],
      "type": "VEC3"
    },
    {
      "name": "NORMAL",
      "bufferView": 0,
      "byteOffset": 34700,
      "componentType": 5126,
      "count": 412,
      "max": [
        0.99915379285812378,
        0.99778181314468384,
        0.96202045679092407
      ],
      "min": [
        -0.9698900580406189,
        -0.996390700340271,
        -0.99634957313537598
      ],
      "type": "VEC3"
    },
    {
      "name": "TEXCOORD_0",
      "bufferView": 0,
      "byteOffset": 34712,
      "componentType": 5126,
      "count": 412,
      "max": [
        0.998046875,
        0.998046875
      ],
      "min": [
        0.001953125,
        0.509765625
      ],
      "type": "VEC2"
    },
    {
      "bufferView": 1,
      "byteOffset": 5394,
      "componentType": 5123,
      "count": 1080,
      "type": "SCALAR"
    }
  ],
  "bufferViews": [
    {
      "buffer": 0,
      "byteLength": 47872,
      "byteStride": 32,
      "target": 34962
    },
    {
      "buffer": 0,
      "byteLength": 7554,
      "byteOffset": 47872,
      "target": 34963
    }
  ],
  "buffers": [
    {
      "byteLength": 55428,
      "uri": "3060435073507072544647_LOD00.bin"
    }
  ],
  "images": [
    {
      "uri": "3060435073507072544647_LOD00_0.png"
    },
    {
      "uri": "3060435073507072544647_LOD00_1.png"
    }
  ],
  "materials": [
    {
      "doubleSided": true,
      "pbrMetallicRoughness": {
        "baseColorTexture": {
          "index": 0
        },
        "metallicFactor": 0
      }
    },
    {
      "doubleSided": true,
      "pbrMetallicRoughness": {
        "baseColorTexture": {
          "index": 1
        },
        "metallicFactor": 0
      }
    }
  ],
  "meshes": [
    {
      "name": "3060435073507072544647_0",
      "primitives": [
        {
          "attributes": {
            "POSITION": 0,
            "NORMAL": 1,
            "TEXCOORD_0": 2
          },
          "indices": 3,
          "material": 0
        }
      ]
    },
    {
      "name": "3060435073507072544647_1",
      "primitives": [
        {
          "attributes": {
            "POSITION": 4,
            "NORMAL": 5,
            "TEXCOORD_0": 6
          },
          "indices": 7,
          "material": 1
        }
      ]
    }
  ],
  "nodes": [
    {
      "mesh": 0
    },
    {
      "mesh": 1
    }
  ],
  "scene": 0,
  "scenes": [
    {
      "nodes": [
        0,
        1
      ]
    }
  ],
  "textures": [
    {
      "source": 0
    },
    {
      "source": 1
    }
  ]
}