{
  "asset": {
    "copyright": "",
    "generator": "SharpGLTF 1.0.0",
    "version": "2.0"
  },
  "accessors": [
    {
      "name": "POSITION",
      "bufferView": 0,
      "componentType": 5126,
      "count": 345,
      "max": [
        -0.095763035118579865,
        10.664582252502441,
        353.419189453125
      ],
      "min": [
        -12.014383316040039,
        9.6166887283325195,
        343.663330078125
      ],
      "type": "VEC3"
    },
    {
      "name": "NORMAL",
      "bufferView": 0,
      "byteOffset": 12,
      "componentType": 5126,
      "count": 345,
      "max": [
        0.97271686792373657,
        0.9999845027923584,
        0.9620288610458374
      ],
      "min": [
        -0.94970512390136719,
        -0.94599664211273193,
        -0.98246723413467407
      ],
      "type": "VEC3"
    },
    {
      "name": "TEXCOORD_0",
      "bufferView": 0,
      "byteOffset": 24,
      "componentType": 5126,
      "count": 345,
      "max": [
        0.982421875,
        0.9990234375
      ],
      "min": [
        0.001953125,
        0.4208984375
      ],
      "type": "VEC2"
    },
    {
      "bufferView": 1,
      "componentType": 5123,
      "count": 999,
      "type": "SCALAR"
    }
  ],
  "bufferViews": [
    {
      "buffer": 0,
      "byteLength": 11040,
      "byteStride": 32,
      "target": 34962
    },
    {
      "buffer": 0,
      "byteLength": 1998,
      "byteOffset": 11040,
      "target": 34963
    }
  ],
  "buffers": [
    {
      "byteLength": 13040,
      "uri": "3060435073507072645456_LOD00.bin"
    }
  ],
  "images": [
    {
      "uri": "3060435073507072645456_LOD00.png"
    }
  ],
  "materials": [
    {
      "doubleSided": true,
      "pbrMetallicRoughness": {
        "baseColorTexture": {
          "index": 0
        },
        "metallicFactor": 0
      }
    }
  ],
  "meshes": [
    {
      "name": "3060435073507072645456_0",
      "primitives": [
        {
          "attributes": {
            "POSITION": 0,
            "NORMAL": 1,
            "TEXCOORD_0": 2
          },
          "indices": 3,
          "material": 0
        }
      ]
    }
  ],
  "nodes": [
    {
      "mesh": 0
    }
  ],
  "scene": 0,
  "scenes": [
    {
      "nodes": [
        0
      ]
    }
  ],
  "textures": [
    {
      "source": 0
    }
  ]
}