{
  "asset": {
    "copyright": "",
    "generator": "SharpGLTF 1.0.0",
    "version": "2.0"
  },
  "accessors": [
    {
      "name": "POSITION",
      "bufferView": 0,
      "componentType": 5126,
      "count": 28,
      "max": [
        -185.5350341796875,
        -7.6652441024780273,
        71.259002685546875
      ],
      "min": [
        -189.34910583496094,
        -8.8566856384277344,
        67.78485107421875
      ],
      "type": "VEC3"
    },
    {
      "name": "NORMAL",
      "bufferView": 0,
      "byteOffset": 12,
      "componentType": 5126,
      "count": 28,
      "max": [
        0.74036687612533569,
        0.051638558506965637,
        0.76486861705780029
      ],
      "min": [
        2.7733187380363233E-05,
        -1,
        -1.0417545126983896E-05
      ],
      "type": "VEC3"
    },
    {
      "name": "TEXCOORD_0",
      "bufferView": 0,
      "byteOffset": 24,
      "componentType": 5126,
      "count": 28,
      "max": [
        0.728515625,
        0.998046875
      ],
      "min": [
        0.001953125,
        0.775390625
      ],
      "type": "VEC2"
    },
    {
      "bufferView": 1,
      "componentType": 5123,
      "count": 90,
      "type": "SCALAR"
    }
  ],
  "bufferViews": [
    {
      "buffer": 0,
      "byteLength": 896,
      "byteStride": 32,
      "target": 34962
    },
    {
      "buffer": 0,
      "byteLength": 180,
      "byteOffset": 896,
      "target": 34963
    }
  ],
  "buffers": [
    {
      "byteLength": 1076,
      "uri": "3060435073507072455605_LOD00.bin"
    }
  ],
  "images": [
    {
      "uri": "3060435073507072455605_LOD00.png"
    }
  ],
  "materials": [
    {
      "doubleSided": true,
      "pbrMetallicRoughness": {
        "baseColorTexture": {
          "index": 0
        },
        "metallicFactor": 0
      }
    }
  ],
  "meshes": [
    {
      "name": "3060435073507072455605_0",
      "primitives": [
        {
          "attributes": {
            "POSITION": 0,
            "NORMAL": 1,
            "TEXCOORD_0": 2
          },
          "indices": 3,
          "material": 0
        }
      ]
    }
  ],
  "nodes": [
    {
      "mesh": 0
    }
  ],
  "scene": 0,
  "scenes": [
    {
      "nodes": [
        0
      ]
    }
  ],
  "textures": [
    {
      "source": 0
    }
  ]
}