{
  "asset": {
    "copyright": "",
    "generator": "SharpGLTF 1.0.0",
    "version": "2.0"
  },
  "accessors": [
    {
      "name": "POSITION",
      "bufferView": 0,
      "componentType": 5126,
      "count": 635,
      "max": [
        -127.53337097167969,
        38.055118560791016,
        220.14218139648438
      ],
      "min": [
        -130.29862976074219,
        28.905656814575195,
        210.5765380859375
      ],
      "type": "VEC3"
    },
    {
      "name": "NORMAL",
      "bufferView": 0,
      "byteOffset": 12,
      "componentType": 5126,
      "count": 635,
      "max": [
        0.99931782484054565,
        0.98830455541610718,
        0.99999207258224487
      ],
      "min": [
        -0.9751245379447937,
        -0.94599044322967529,
        -0.99798446893692017
      ],
      "type": "VEC3"
    },
    {
      "name": "TEXCOORD_0",
      "bufferView": 0,
      "byteOffset": 24,
      "componentType": 5126,
      "count": 635,
      "max": [
        0.998046875,
        0.998046875
      ],
      "min": [
        0.001953125,
        0.142578125
      ],
      "type": "VEC2"
    },
    {
      "bufferView": 1,
      "componentType": 5123,
      "count": 1827,
      "type": "SCALAR"
    }
  ],
  "bufferViews": [
    {
      "buffer": 0,
      "byteLength": 20320,
      "byteStride": 32,
      "target": 34962
    },
    {
      "buffer": 0,
      "byteLength": 3654,
      "byteOffset": 20320,
      "target": 34963
    }
  ],
  "buffers": [
    {
      "byteLength": 23976,
      "uri": "3060435073507076030162_LOD00.bin"
    }
  ],
  "images": [
    {
      "uri": "3060435073507076030162_LOD00.png"
    }
  ],
  "materials": [
    {
      "doubleSided": true,
      "pbrMetallicRoughness": {
        "baseColorTexture": {
          "index": 0
        },
        "metallicFactor": 0
      }
    }
  ],
  "meshes": [
    {
      "name": "3060435073507076030162_0",
      "primitives": [
        {
          "attributes": {
            "POSITION": 0,
            "NORMAL": 1,
            "TEXCOORD_0": 2
          },
          "indices": 3,
          "material": 0
        }
      ]
    }
  ],
  "nodes": [
    {
      "mesh": 0
    }
  ],
  "scene": 0,
  "scenes": [
    {
      "nodes": [
        0
      ]
    }
  ],
  "textures": [
    {
      "source": 0
    }
  ]
}