{
  "asset": {
    "copyright": "",
    "generator": "SharpGLTF 1.0.0",
    "version": "2.0"
  },
  "accessors": [
    {
      "name": "POSITION",
      "bufferView": 0,
      "componentType": 5126,
      "count": 231,
      "max": [
        -70.911720275878906,
        26.571830749511719,
        334.2513427734375
      ],
      "min": [
        -73.247871398925781,
        19.757165908813477,
        326.25628662109375
      ],
      "type": "VEC3"
    },
    {
      "name": "NORMAL",
      "bufferView": 0,
      "byteOffset": 12,
      "componentType": 5126,
      "count": 231,
      "max": [
        -1.2373382560326718E-05,
        0.99998420476913452,
        0.35288000106811523
      ],
      "min": [
        -0.99429076910018921,
        -0.30347335338592529,
        -0.99634432792663574
      ],
      "type": "VEC3"
    },
    {
      "name": "TEXCOORD_0",
      "bufferView": 0,
      "byteOffset": 24,
      "componentType": 5126,
      "count": 231,
      "max": [
        0.998046875,
        0.998046875
      ],
      "min": [
        0.001953125,
        0.193359375
      ],
      "type": "VEC2"
    },
    {
      "bufferView": 1,
      "componentType": 5123,
      "count": 717,
      "type": "SCALAR"
    }
  ],
  "bufferViews": [
    {
      "buffer": 0,
      "byteLength": 7392,
      "byteStride": 32,
      "target": 34962
    },
    {
      "buffer": 0,
      "byteLength": 1434,
      "byteOffset": 7392,
      "target": 34963
    }
  ],
  "buffers": [
    {
      "byteLength": 8828,
      "uri": "3060435073507076032226_LOD00.bin"
    }
  ],
  "images": [
    {
      "uri": "3060435073507076032226_LOD00.png"
    }
  ],
  "materials": [
    {
      "doubleSided": true,
      "pbrMetallicRoughness": {
        "baseColorTexture": {
          "index": 0
        },
        "metallicFactor": 0
      }
    }
  ],
  "meshes": [
    {
      "name": "3060435073507076032226_0",
      "primitives": [
        {
          "attributes": {
            "POSITION": 0,
            "NORMAL": 1,
            "TEXCOORD_0": 2
          },
          "indices": 3,
          "material": 0
        }
      ]
    }
  ],
  "nodes": [
    {
      "mesh": 0
    }
  ],
  "scene": 0,
  "scenes": [
    {
      "nodes": [
        0
      ]
    }
  ],
  "textures": [
    {
      "source": 0
    }
  ]
}