{
  "asset": {
    "copyright": "",
    "generator": "SharpGLTF 1.0.0",
    "version": "2.0"
  },
  "accessors": [
    {
      "name": "POSITION",
      "bufferView": 0,
      "componentType": 5126,
      "count": 403,
      "max": [
        -82.732170104980469,
        120.35328674316406,
        277.17636108398438
      ],
      "min": [
        -85.44976806640625,
        111.20382690429688,
        271.132080078125
      ],
      "type": "VEC3"
    },
    {
      "name": "NORMAL",
      "bufferView": 0,
      "byteOffset": 12,
      "componentType": 5126,
      "count": 403,
      "max": [
        0.21685242652893066,
        0.50070303678512573,
        0.99817109107971191
      ],
      "min": [
        -0.99637258052825928,
        -0.36053657531738281,
        -0.99915063381195068
      ],
      "type": "VEC3"
    },
    {
      "name": "TEXCOORD_0",
      "bufferView": 0,
      "byteOffset": 24,
      "componentType": 5126,
      "count": 403,
      "max": [
        0.998046875,
        0.998046875
      ],
      "min": [
        0.001953125,
        0.216796875
      ],
      "type": "VEC2"
    },
    {
      "bufferView": 1,
      "componentType": 5123,
      "count": 1167,
      "type": "SCALAR"
    }
  ],
  "bufferViews": [
    {
      "buffer": 0,
      "byteLength": 12896,
      "byteStride": 32,
      "target": 34962
    },
    {
      "buffer": 0,
      "byteLength": 2334,
      "byteOffset": 12896,
      "target": 34963
    }
  ],
  "buffers": [
    {
      "byteLength": 15232,
      "uri": "3060435073507076036047_LOD00.bin"
    }
  ],
  "images": [
    {
      "uri": "3060435073507076036047_LOD00.png"
    }
  ],
  "materials": [
    {
      "doubleSided": true,
      "pbrMetallicRoughness": {
        "baseColorTexture": {
          "index": 0
        },
        "metallicFactor": 0
      }
    }
  ],
  "meshes": [
    {
      "name": "3060435073507076036047_0",
      "primitives": [
        {
          "attributes": {
            "POSITION": 0,
            "NORMAL": 1,
            "TEXCOORD_0": 2
          },
          "indices": 3,
          "material": 0
        }
      ]
    }
  ],
  "nodes": [
    {
      "mesh": 0
    }
  ],
  "scene": 0,
  "scenes": [
    {
      "nodes": [
        0
      ]
    }
  ],
  "textures": [
    {
      "source": 0
    }
  ]
}