{
  "asset": {
    "copyright": "",
    "generator": "SharpGLTF 1.0.0",
    "version": "2.0"
  },
  "accessors": [
    {
      "name": "POSITION",
      "bufferView": 0,
      "componentType": 5126,
      "count": 579,
      "max": [
        -236.51089477539063,
        10.610411643981934,
        400.89529418945313
      ],
      "min": [
        -248.33447265625,
        8.8939752578735352,
        391.18716430664063
      ],
      "type": "VEC3"
    },
    {
      "name": "NORMAL",
      "bufferView": 0,
      "byteOffset": 12,
      "componentType": 5126,
      "count": 579,
      "max": [
        0.9993167519569397,
        0.9999842643737793,
        0.94047796726226807
      ],
      "min": [
        -0.99490571022033691,
        -0.72622060775756836,
        -0.99485981464385986
      ],
      "type": "VEC3"
    },
    {
      "name": "TEXCOORD_0",
      "bufferView": 0,
      "byteOffset": 24,
      "componentType": 5126,
      "count": 579,
      "max": [
        0.998046875,
        0.998046875
      ],
      "min": [
        0.001953125,
        0.330078125
      ],
      "type": "VEC2"
    },
    {
      "bufferView": 1,
      "componentType": 5123,
      "count": 1611,
      "type": "SCALAR"
    }
  ],
  "bufferViews": [
    {
      "buffer": 0,
      "byteLength": 18528,
      "byteStride": 32,
      "target": 34962
    },
    {
      "buffer": 0,
      "byteLength": 3222,
      "byteOffset": 18528,
      "target": 34963
    }
  ],
  "buffers": [
    {
      "byteLength": 21752,
      "uri": "3060435073507072655774_LOD00.bin"
    }
  ],
  "images": [
    {
      "uri": "3060435073507072655774_LOD00.png"
    }
  ],
  "materials": [
    {
      "doubleSided": true,
      "pbrMetallicRoughness": {
        "baseColorTexture": {
          "index": 0
        },
        "metallicFactor": 0
      }
    }
  ],
  "meshes": [
    {
      "name": "3060435073507072655774_0",
      "primitives": [
        {
          "attributes": {
            "POSITION": 0,
            "NORMAL": 1,
            "TEXCOORD_0": 2
          },
          "indices": 3,
          "material": 0
        }
      ]
    }
  ],
  "nodes": [
    {
      "mesh": 0
    }
  ],
  "scene": 0,
  "scenes": [
    {
      "nodes": [
        0
      ]
    }
  ],
  "textures": [
    {
      "source": 0
    }
  ]
}