{
  "asset": {
    "copyright": "",
    "generator": "SharpGLTF 1.0.0",
    "version": "2.0"
  },
  "accessors": [
    {
      "name": "POSITION",
      "bufferView": 0,
      "componentType": 5126,
      "count": 353,
      "max": [
        -94.69329833984375,
        10.621736526489258,
        239.11953735351563
      ],
      "min": [
        -106.51703643798828,
        8.5724573135375977,
        229.6015625
      ],
      "type": "VEC3"
    },
    {
      "name": "NORMAL",
      "bufferView": 0,
      "byteOffset": 12,
      "componentType": 5126,
      "count": 353,
      "max": [
        0.56011021137237549,
        0.99998462200164795,
        0.63875406980514526
      ],
      "min": [
        -0.49204316735267639,
        0.7468407154083252,
        -0.31733575463294983
      ],
      "type": "VEC3"
    },
    {
      "name": "TEXCOORD_0",
      "bufferView": 0,
      "byteOffset": 24,
      "componentType": 5126,
      "count": 353,
      "max": [
        0.998046875,
        0.998046875
      ],
      "min": [
        0.001953125,
        0.322265625
      ],
      "type": "VEC2"
    },
    {
      "bufferView": 1,
      "componentType": 5123,
      "count": 1026,
      "type": "SCALAR"
    }
  ],
  "bufferViews": [
    {
      "buffer": 0,
      "byteLength": 11296,
      "byteStride": 32,
      "target": 34962
    },
    {
      "buffer": 0,
      "byteLength": 2052,
      "byteOffset": 11296,
      "target": 34963
    }
  ],
  "buffers": [
    {
      "byteLength": 13348,
      "uri": "3060435073507072474656_LOD00.bin"
    }
  ],
  "images": [
    {
      "uri": "3060435073507072474656_LOD00.png"
    }
  ],
  "materials": [
    {
      "doubleSided": true,
      "pbrMetallicRoughness": {
        "baseColorTexture": {
          "index": 0
        },
        "metallicFactor": 0
      }
    }
  ],
  "meshes": [
    {
      "name": "3060435073507072474656_0",
      "primitives": [
        {
          "attributes": {
            "POSITION": 0,
            "NORMAL": 1,
            "TEXCOORD_0": 2
          },
          "indices": 3,
          "material": 0
        }
      ]
    }
  ],
  "nodes": [
    {
      "mesh": 0
    }
  ],
  "scene": 0,
  "scenes": [
    {
      "nodes": [
        0
      ]
    }
  ],
  "textures": [
    {
      "source": 0
    }
  ]
}