{
  "asset": {
    "copyright": "",
    "generator": "SharpGLTF 1.0.0",
    "version": "2.0"
  },
  "accessors": [
    {
      "name": "POSITION",
      "bufferView": 0,
      "componentType": 5126,
      "count": 157,
      "max": [
        -260.14657592773438,
        7.7966113090515137,
        419.87533569335938
      ],
      "min": [
        -272.06503295898438,
        7.3194851875305176,
        410.3568115234375
      ],
      "type": "VEC3"
    },
    {
      "name": "NORMAL",
      "bufferView": 0,
      "byteOffset": 12,
      "componentType": 5126,
      "count": 157,
      "max": [
        0.13770930469036102,
        0.99998486042022705,
        0.049055039882659912
      ],
      "min": [
        -0.093723386526107788,
        0.9904630184173584,
        -0.0043794102966785431
      ],
      "type": "VEC3"
    },
    {
      "name": "TEXCOORD_0",
      "bufferView": 0,
      "byteOffset": 24,
      "componentType": 5126,
      "count": 157,
      "max": [
        0.982421875,
        0.998046875
      ],
      "min": [
        0.001953125,
        0.197265625
      ],
      "type": "VEC2"
    },
    {
      "bufferView": 1,
      "componentType": 5123,
      "count": 549,
      "type": "SCALAR"
    }
  ],
  "bufferViews": [
    {
      "buffer": 0,
      "byteLength": 5024,
      "byteStride": 32,
      "target": 34962
    },
    {
      "buffer": 0,
      "byteLength": 1098,
      "byteOffset": 5024,
      "target": 34963
    }
  ],
  "buffers": [
    {
      "byteLength": 6124,
      "uri": "3060435073507072746444_LOD00.bin"
    }
  ],
  "images": [
    {
      "uri": "3060435073507072746444_LOD00.png"
    }
  ],
  "materials": [
    {
      "doubleSided": true,
      "pbrMetallicRoughness": {
        "baseColorTexture": {
          "index": 0
        },
        "metallicFactor": 0
      }
    }
  ],
  "meshes": [
    {
      "name": "3060435073507072746444_0",
      "primitives": [
        {
          "attributes": {
            "POSITION": 0,
            "NORMAL": 1,
            "TEXCOORD_0": 2
          },
          "indices": 3,
          "material": 0
        }
      ]
    }
  ],
  "nodes": [
    {
      "mesh": 0
    }
  ],
  "scene": 0,
  "scenes": [
    {
      "nodes": [
        0
      ]
    }
  ],
  "textures": [
    {
      "source": 0
    }
  ]
}