{
  "asset": {
    "copyright": "",
    "generator": "SharpGLTF 1.0.0",
    "version": "2.0"
  },
  "accessors": [
    {
      "name": "POSITION",
      "bufferView": 0,
      "componentType": 5126,
      "count": 545,
      "max": [
        -82.877182006835938,
        10.625734329223633,
        67.977706909179688
      ],
      "min": [
        -94.796630859375,
        9.1006345748901367,
        58.221828460693359
      ],
      "type": "VEC3"
    },
    {
      "name": "NORMAL",
      "bufferView": 0,
      "byteOffset": 12,
      "componentType": 5126,
      "count": 545,
      "max": [
        0.89969855546951294,
        0.9999842643737793,
        0.86005157232284546
      ],
      "min": [
        -0.60679072141647339,
        0.27449715137481689,
        -0.81888675689697266
      ],
      "type": "VEC3"
    },
    {
      "name": "TEXCOORD_0",
      "bufferView": 0,
      "byteOffset": 24,
      "componentType": 5126,
      "count": 545,
      "max": [
        0.998046875,
        0.998046875
      ],
      "min": [
        0.001953125,
        0.021484375
      ],
      "type": "VEC2"
    },
    {
      "bufferView": 1,
      "componentType": 5123,
      "count": 1521,
      "type": "SCALAR"
    }
  ],
  "bufferViews": [
    {
      "buffer": 0,
      "byteLength": 17440,
      "byteStride": 32,
      "target": 34962
    },
    {
      "buffer": 0,
      "byteLength": 3042,
      "byteOffset": 17440,
      "target": 34963
    }
  ],
  "buffers": [
    {
      "byteLength": 20484,
      "uri": "3060435073507072454467_LOD00.bin"
    }
  ],
  "images": [
    {
      "uri": "3060435073507072454467_LOD00.png"
    }
  ],
  "materials": [
    {
      "doubleSided": true,
      "pbrMetallicRoughness": {
        "baseColorTexture": {
          "index": 0
        },
        "metallicFactor": 0
      }
    }
  ],
  "meshes": [
    {
      "name": "3060435073507072454467_0",
      "primitives": [
        {
          "attributes": {
            "POSITION": 0,
            "NORMAL": 1,
            "TEXCOORD_0": 2
          },
          "indices": 3,
          "material": 0
        }
      ]
    }
  ],
  "nodes": [
    {
      "mesh": 0
    }
  ],
  "scene": 0,
  "scenes": [
    {
      "nodes": [
        0
      ]
    }
  ],
  "textures": [
    {
      "source": 0
    }
  ]
}