{
  "asset": {
    "copyright": "",
    "generator": "SharpGLTF 1.0.0",
    "version": "2.0"
  },
  "accessors": [
    {
      "name": "POSITION",
      "bufferView": 0,
      "componentType": 5126,
      "count": 73,
      "max": [
        -8.5819301605224609,
        11.811468124389648,
        142.70208740234375
      ],
      "min": [
        -11.013433456420898,
        10.620147705078125,
        140.27503967285156
      ],
      "type": "VEC3"
    },
    {
      "name": "NORMAL",
      "bufferView": 0,
      "byteOffset": 12,
      "componentType": 5126,
      "count": 73,
      "max": [
        0.9999922513961792,
        0.94098645448684692,
        0.82241666316986084
      ],
      "min": [
        -0.86069101095199585,
        -0.33741578459739685,
        -0.97688519954681396
      ],
      "type": "VEC3"
    },
    {
      "name": "TEXCOORD_0",
      "bufferView": 0,
      "byteOffset": 24,
      "componentType": 5126,
      "count": 73,
      "max": [
        0.916015625,
        0.998046875
      ],
      "min": [
        0.001953125,
        0.841796875
      ],
      "type": "VEC2"
    },
    {
      "bufferView": 1,
      "componentType": 5123,
      "count": 180,
      "type": "SCALAR"
    }
  ],
  "bufferViews": [
    {
      "buffer": 0,
      "byteLength": 2336,
      "byteStride": 32,
      "target": 34962
    },
    {
      "buffer": 0,
      "byteLength": 360,
      "byteOffset": 2336,
      "target": 34963
    }
  ],
  "buffers": [
    {
      "byteLength": 2696,
      "uri": "3060435073507076003032_LOD00.bin"
    }
  ],
  "images": [
    {
      "uri": "3060435073507076003032_LOD00.png"
    }
  ],
  "materials": [
    {
      "doubleSided": true,
      "pbrMetallicRoughness": {
        "baseColorTexture": {
          "index": 0
        },
        "metallicFactor": 0
      }
    }
  ],
  "meshes": [
    {
      "name": "3060435073507076003032_0",
      "primitives": [
        {
          "attributes": {
            "POSITION": 0,
            "NORMAL": 1,
            "TEXCOORD_0": 2
          },
          "indices": 3,
          "material": 0
        }
      ]
    }
  ],
  "nodes": [
    {
      "mesh": 0
    }
  ],
  "scene": 0,
  "scenes": [
    {
      "nodes": [
        0
      ]
    }
  ],
  "textures": [
    {
      "source": 0
    }
  ]
}