{
  "asset": {
    "copyright": "",
    "generator": "SharpGLTF 1.0.0",
    "version": "2.0"
  },
  "accessors": [
    {
      "name": "POSITION",
      "bufferView": 0,
      "componentType": 5126,
      "count": 164,
      "max": [
        -212.87631225585938,
        28.806919097900391,
        356.9410400390625
      ],
      "min": [
        -213.40092468261719,
        19.848262786865234,
        353.70501708984375
      ],
      "type": "VEC3"
    },
    {
      "name": "NORMAL",
      "bufferView": 0,
      "byteOffset": 12,
      "componentType": 5126,
      "count": 164,
      "max": [
        0.73412501811981201,
        0.85834264755249023,
        0.86190158128738403
      ],
      "min": [
        -0.99799257516860962,
        -0.68423455953598022,
        -0.98279029130935669
      ],
      "type": "VEC3"
    },
    {
      "name": "TEXCOORD_0",
      "bufferView": 0,
      "byteOffset": 24,
      "componentType": 5126,
      "count": 164,
      "max": [
        0.998046875,
        0.998046875
      ],
      "min": [
        0.001953125,
        0.814453125
      ],
      "type": "VEC2"
    },
    {
      "bufferView": 1,
      "componentType": 5123,
      "count": 453,
      "type": "SCALAR"
    }
  ],
  "bufferViews": [
    {
      "buffer": 0,
      "byteLength": 5248,
      "byteStride": 32,
      "target": 34962
    },
    {
      "buffer": 0,
      "byteLength": 906,
      "byteOffset": 5248,
      "target": 34963
    }
  ],
  "buffers": [
    {
      "byteLength": 6156,
      "uri": "3060435073507076211124_LOD00.bin"
    }
  ],
  "images": [
    {
      "uri": "3060435073507076211124_LOD00.png"
    }
  ],
  "materials": [
    {
      "doubleSided": true,
      "pbrMetallicRoughness": {
        "baseColorTexture": {
          "index": 0
        },
        "metallicFactor": 0
      }
    }
  ],
  "meshes": [
    {
      "name": "3060435073507076211124_0",
      "primitives": [
        {
          "attributes": {
            "POSITION": 0,
            "NORMAL": 1,
            "TEXCOORD_0": 2
          },
          "indices": 3,
          "material": 0
        }
      ]
    }
  ],
  "nodes": [
    {
      "mesh": 0
    }
  ],
  "scene": 0,
  "scenes": [
    {
      "nodes": [
        0
      ]
    }
  ],
  "textures": [
    {
      "source": 0
    }
  ]
}