{
  "asset": {
    "copyright": "",
    "generator": "SharpGLTF 1.0.0",
    "version": "2.0"
  },
  "accessors": [
    {
      "name": "POSITION",
      "bufferView": 0,
      "componentType": 5126,
      "count": 95,
      "max": [
        9.3389368057250977,
        20.183708190917969,
        381.91165161132813
      ],
      "min": [
        4.2377805709838867,
        19.659536361694336,
        380.3411865234375
      ],
      "type": "VEC3"
    },
    {
      "name": "NORMAL",
      "bufferView": 0,
      "byteOffset": 12,
      "componentType": 5126,
      "count": 95,
      "max": [
        0.99931836128234863,
        0.95710760354995728,
        0.258159339427948
      ],
      "min": [
        -0.98829841613769531,
        -0.25786483287811279,
        -0.9399263858795166
      ],
      "type": "VEC3"
    },
    {
      "name": "TEXCOORD_0",
      "bufferView": 0,
      "byteOffset": 24,
      "componentType": 5126,
      "count": 95,
      "max": [
        0.353515625,
        0.998046875
      ],
      "min": [
        0.001953125,
        0.904296875
      ],
      "type": "VEC2"
    },
    {
      "bufferView": 1,
      "componentType": 5123,
      "count": 243,
      "type": "SCALAR"
    }
  ],
  "bufferViews": [
    {
      "buffer": 0,
      "byteLength": 3040,
      "byteStride": 32,
      "target": 34962
    },
    {
      "buffer": 0,
      "byteLength": 486,
      "byteOffset": 3040,
      "target": 34963
    }
  ],
  "buffers": [
    {
      "byteLength": 3528,
      "uri": "3060435073507076201205_LOD00.bin"
    }
  ],
  "images": [
    {
      "uri": "3060435073507076201205_LOD00.png"
    }
  ],
  "materials": [
    {
      "doubleSided": true,
      "pbrMetallicRoughness": {
        "baseColorTexture": {
          "index": 0
        },
        "metallicFactor": 0
      }
    }
  ],
  "meshes": [
    {
      "name": "3060435073507076201205_0",
      "primitives": [
        {
          "attributes": {
            "POSITION": 0,
            "NORMAL": 1,
            "TEXCOORD_0": 2
          },
          "indices": 3,
          "material": 0
        }
      ]
    }
  ],
  "nodes": [
    {
      "mesh": 0
    }
  ],
  "scene": 0,
  "scenes": [
    {
      "nodes": [
        0
      ]
    }
  ],
  "textures": [
    {
      "source": 0
    }
  ]
}