{
  "asset": {
    "copyright": "",
    "generator": "SharpGLTF 1.0.0",
    "version": "2.0"
  },
  "accessors": [
    {
      "name": "POSITION",
      "bufferView": 0,
      "componentType": 5126,
      "count": 311,
      "max": [
        -118.23293304443359,
        17.758750915527344,
        353.42059326171875
      ],
      "min": [
        -128.48307800292969,
        10.563325881958008,
        352.1834716796875
      ],
      "type": "VEC3"
    },
    {
      "name": "NORMAL",
      "bufferView": 0,
      "byteOffset": 12,
      "componentType": 5126,
      "count": 311,
      "max": [
        0.21872402727603912,
        0.99998468160629272,
        0.13756400346755981
      ],
      "min": [
        -0.85884612798690796,
        -0.70475536584854126,
        -0.99914902448654175
      ],
      "type": "VEC3"
    },
    {
      "name": "TEXCOORD_0",
      "bufferView": 0,
      "byteOffset": 24,
      "componentType": 5126,
      "count": 311,
      "max": [
        0.998046875,
        0.998046875
      ],
      "min": [
        0.001953125,
        0.533203125
      ],
      "type": "VEC2"
    },
    {
      "bufferView": 1,
      "componentType": 5123,
      "count": 903,
      "type": "SCALAR"
    }
  ],
  "bufferViews": [
    {
      "buffer": 0,
      "byteLength": 9952,
      "byteStride": 32,
      "target": 34962
    },
    {
      "buffer": 0,
      "byteLength": 1806,
      "byteOffset": 9952,
      "target": 34963
    }
  ],
  "buffers": [
    {
      "byteLength": 11760,
      "uri": "3060435073507076210102_LOD00.bin"
    }
  ],
  "images": [
    {
      "uri": "3060435073507076210102_LOD00.png"
    }
  ],
  "materials": [
    {
      "doubleSided": true,
      "pbrMetallicRoughness": {
        "baseColorTexture": {
          "index": 0
        },
        "metallicFactor": 0
      }
    }
  ],
  "meshes": [
    {
      "name": "3060435073507076210102_0",
      "primitives": [
        {
          "attributes": {
            "POSITION": 0,
            "NORMAL": 1,
            "TEXCOORD_0": 2
          },
          "indices": 3,
          "material": 0
        }
      ]
    }
  ],
  "nodes": [
    {
      "mesh": 0
    }
  ],
  "scene": 0,
  "scenes": [
    {
      "nodes": [
        0
      ]
    }
  ],
  "textures": [
    {
      "source": 0
    }
  ]
}