{
  "asset": {
    "copyright": "",
    "generator": "SharpGLTF 1.0.0",
    "version": "2.0"
  },
  "accessors": [
    {
      "name": "POSITION",
      "bufferView": 0,
      "componentType": 5126,
      "count": 820,
      "max": [
        -47.419975280761719,
        19.865922927856445,
        39.485248565673828
      ],
      "min": [
        -59.387107849121094,
        10.47840404510498,
        29.681882858276367
      ],
      "type": "VEC3"
    },
    {
      "name": "NORMAL",
      "bufferView": 0,
      "byteOffset": 12,
      "componentType": 5126,
      "count": 820,
      "max": [
        0.99799257516860962,
        0.99897092580795288,
        0.98279941082000732
      ],
      "min": [
        -0.99486452341079712,
        -0.99510788917541504,
        -0.97497856616973877
      ],
      "type": "VEC3"
    },
    {
      "name": "TEXCOORD_0",
      "bufferView": 0,
      "byteOffset": 24,
      "componentType": 5126,
      "count": 820,
      "max": [
        0.998046875,
        0.9990234375
      ],
      "min": [
        0.001953125,
        0.0029296875
      ],
      "type": "VEC2"
    },
    {
      "bufferView": 1,
      "componentType": 5123,
      "count": 2274,
      "type": "SCALAR"
    },
    {
      "name": "POSITION",
      "bufferView": 0,
      "byteOffset": 26240,
      "componentType": 5126,
      "count": 31,
      "max": [
        -47.420028686523438,
        19.151130676269531,
        39.342529296875
      ],
      "min": [
        -53.331977844238281,
        10.621363639831543,
        30.490823745727539
      ],
      "type": "VEC3"
    },
    {
      "name": "NORMAL",
      "bufferView": 0,
      "byteOffset": 26252,
      "componentType": 5126,
      "count": 31,
      "max": [
        0.83779788017272949,
        0.58626335859298706,
        0.95087021589279175
      ],
      "min": [
        -0.86065155267715454,
        -0.91205674409866333,
        -0.62915360927581787
      ],
      "type": "VEC3"
    },
    {
      "name": "TEXCOORD_0",
      "bufferView": 0,
      "byteOffset": 26264,
      "componentType": 5126,
      "count": 31,
      "max": [
        0.525390625,
        0.998046875
      ],
      "min": [
        0.001953125,
        0.802734375
      ],
      "type": "VEC2"
    },
    {
      "bufferView": 1,
      "byteOffset": 4548,
      "componentType": 5123,
      "count": 87,
      "type": "SCALAR"
    }
  ],
  "bufferViews": [
    {
      "buffer": 0,
      "byteLength": 27232,
      "byteStride": 32,
      "target": 34962
    },
    {
      "buffer": 0,
      "byteLength": 4722,
      "byteOffset": 27232,
      "target": 34963
    }
  ],
  "buffers": [
    {
      "byteLength": 31956,
      "uri": "3060435073507076001110_LOD00.bin"
    }
  ],
  "images": [
    {
      "uri": "3060435073507076001110_LOD00_0.png"
    },
    {
      "uri": "3060435073507076001110_LOD00_1.png"
    }
  ],
  "materials": [
    {
      "doubleSided": true,
      "pbrMetallicRoughness": {
        "baseColorTexture": {
          "index": 0
        },
        "metallicFactor": 0
      }
    },
    {
      "doubleSided": true,
      "pbrMetallicRoughness": {
        "baseColorTexture": {
          "index": 1
        },
        "metallicFactor": 0
      }
    }
  ],
  "meshes": [
    {
      "name": "3060435073507076001110_0",
      "primitives": [
        {
          "attributes": {
            "POSITION": 0,
            "NORMAL": 1,
            "TEXCOORD_0": 2
          },
          "indices": 3,
          "material": 0
        }
      ]
    },
    {
      "name": "3060435073507076001110_1",
      "primitives": [
        {
          "attributes": {
            "POSITION": 4,
            "NORMAL": 5,
            "TEXCOORD_0": 6
          },
          "indices": 7,
          "material": 1
        }
      ]
    }
  ],
  "nodes": [
    {
      "mesh": 0
    },
    {
      "mesh": 1
    }
  ],
  "scene": 0,
  "scenes": [
    {
      "nodes": [
        0,
        1
      ]
    }
  ],
  "textures": [
    {
      "source": 0
    },
    {
      "source": 1
    }
  ]
}