{
  "asset": {
    "copyright": "",
    "generator": "SharpGLTF 1.0.0",
    "version": "2.0"
  },
  "accessors": [
    {
      "name": "POSITION",
      "bufferView": 0,
      "componentType": 5126,
      "count": 612,
      "max": [
        -94.646003723144531,
        13.524361610412598,
        220.1407470703125
      ],
      "min": [
        -106.51737976074219,
        10.474265098571777,
        210.57518005371094
      ],
      "type": "VEC3"
    },
    {
      "name": "NORMAL",
      "bufferView": 0,
      "byteOffset": 12,
      "componentType": 5126,
      "count": 612,
      "max": [
        0.98344039916992188,
        0.99896973371505737,
        0.98335820436477661
      ],
      "min": [
        -0.97272342443466187,
        -0.060778122395277023,
        -0.99798423051834106
      ],
      "type": "VEC3"
    },
    {
      "name": "TEXCOORD_0",
      "bufferView": 0,
      "byteOffset": 24,
      "componentType": 5126,
      "count": 612,
      "max": [
        0.998046875,
        0.998046875
      ],
      "min": [
        0.001953125,
        0.298828125
      ],
      "type": "VEC2"
    },
    {
      "bufferView": 1,
      "componentType": 5123,
      "count": 1665,
      "type": "SCALAR"
    }
  ],
  "bufferViews": [
    {
      "buffer": 0,
      "byteLength": 19584,
      "byteStride": 32,
      "target": 34962
    },
    {
      "buffer": 0,
      "byteLength": 3330,
      "byteOffset": 19584,
      "target": 34963
    }
  ],
  "buffers": [
    {
      "byteLength": 22916,
      "uri": "3060435073507076030032_LOD00.bin"
    }
  ],
  "images": [
    {
      "uri": "3060435073507076030032_LOD00.png"
    }
  ],
  "materials": [
    {
      "doubleSided": true,
      "pbrMetallicRoughness": {
        "baseColorTexture": {
          "index": 0
        },
        "metallicFactor": 0
      }
    }
  ],
  "meshes": [
    {
      "name": "3060435073507076030032_0",
      "primitives": [
        {
          "attributes": {
            "POSITION": 0,
            "NORMAL": 1,
            "TEXCOORD_0": 2
          },
          "indices": 3,
          "material": 0
        }
      ]
    }
  ],
  "nodes": [
    {
      "mesh": 0
    }
  ],
  "scene": 0,
  "scenes": [
    {
      "nodes": [
        0
      ]
    }
  ],
  "textures": [
    {
      "source": 0
    }
  ]
}