{
  "asset": {
    "copyright": "",
    "generator": "SharpGLTF 1.0.0",
    "version": "2.0"
  },
  "accessors": [
    {
      "name": "POSITION",
      "bufferView": 0,
      "componentType": 5126,
      "count": 355,
      "max": [
        -82.874099731445313,
        19.764850616455078,
        277.17221069335938
      ],
      "min": [
        -87.0694580078125,
        10.61529541015625,
        269.41488647460938
      ],
      "type": "VEC3"
    },
    {
      "name": "NORMAL",
      "bufferView": 0,
      "byteOffset": 12,
      "componentType": 5126,
      "count": 355,
      "max": [
        0.1126285046339035,
        0.72410529851913452,
        0.70087689161300659
      ],
      "min": [
        -0.99915522336959839,
        -0.51099765300750732,
        -0.99486321210861206
      ],
      "type": "VEC3"
    },
    {
      "name": "TEXCOORD_0",
      "bufferView": 0,
      "byteOffset": 24,
      "componentType": 5126,
      "count": 355,
      "max": [
        0.998046875,
        0.998046875
      ],
      "min": [
        0.001953125,
        0.244140625
      ],
      "type": "VEC2"
    },
    {
      "bufferView": 1,
      "componentType": 5123,
      "count": 1116,
      "type": "SCALAR"
    }
  ],
  "bufferViews": [
    {
      "buffer": 0,
      "byteLength": 11360,
      "byteStride": 32,
      "target": 34962
    },
    {
      "buffer": 0,
      "byteLength": 2232,
      "byteOffset": 11360,
      "target": 34963
    }
  ],
  "buffers": [
    {
      "byteLength": 13592,
      "uri": "3060435073507076032003_LOD00.bin"
    }
  ],
  "images": [
    {
      "uri": "3060435073507076032003_LOD00.png"
    }
  ],
  "materials": [
    {
      "doubleSided": true,
      "pbrMetallicRoughness": {
        "baseColorTexture": {
          "index": 0
        },
        "metallicFactor": 0
      }
    }
  ],
  "meshes": [
    {
      "name": "3060435073507076032003_0",
      "primitives": [
        {
          "attributes": {
            "POSITION": 0,
            "NORMAL": 1,
            "TEXCOORD_0": 2
          },
          "indices": 3,
          "material": 0
        }
      ]
    }
  ],
  "nodes": [
    {
      "mesh": 0
    }
  ],
  "scene": 0,
  "scenes": [
    {
      "nodes": [
        0
      ]
    }
  ],
  "textures": [
    {
      "source": 0
    }
  ]
}