{
  "asset": {
    "copyright": "",
    "generator": "SharpGLTF 1.0.0",
    "version": "2.0"
  },
  "accessors": [
    {
      "name": "POSITION",
      "bufferView": 0,
      "componentType": 5126,
      "count": 305,
      "max": [
        -220.2320556640625,
        29.05430793762207,
        48.860309600830078
      ],
      "min": [
        -224.85643005371094,
        19.762174606323242,
        39.24700927734375
      ],
      "type": "VEC3"
    },
    {
      "name": "NORMAL",
      "bufferView": 0,
      "byteOffset": 12,
      "componentType": 5126,
      "count": 305,
      "max": [
        0.93934839963912964,
        0.3381284773349762,
        0.60208535194396973
      ],
      "min": [
        -0.89357566833496094,
        -0.40283086895942688,
        -0.60543787479400635
      ],
      "type": "VEC3"
    },
    {
      "name": "TEXCOORD_0",
      "bufferView": 0,
      "byteOffset": 24,
      "componentType": 5126,
      "count": 305,
      "max": [
        0.998046875,
        0.998046875
      ],
      "min": [
        0.001953125,
        0.248046875
      ],
      "type": "VEC2"
    },
    {
      "bufferView": 1,
      "componentType": 5123,
      "count": 879,
      "type": "SCALAR"
    }
  ],
  "bufferViews": [
    {
      "buffer": 0,
      "byteLength": 9760,
      "byteStride": 32,
      "target": 34962
    },
    {
      "buffer": 0,
      "byteLength": 1758,
      "byteOffset": 9760,
      "target": 34963
    }
  ],
  "buffers": [
    {
      "byteLength": 11520,
      "uri": "3060435073507076011106_LOD00.bin"
    }
  ],
  "images": [
    {
      "uri": "3060435073507076011106_LOD00.png"
    }
  ],
  "materials": [
    {
      "doubleSided": true,
      "pbrMetallicRoughness": {
        "baseColorTexture": {
          "index": 0
        },
        "metallicFactor": 0
      }
    }
  ],
  "meshes": [
    {
      "name": "3060435073507076011106_0",
      "primitives": [
        {
          "attributes": {
            "POSITION": 0,
            "NORMAL": 1,
            "TEXCOORD_0": 2
          },
          "indices": 3,
          "material": 0
        }
      ]
    }
  ],
  "nodes": [
    {
      "mesh": 0
    }
  ],
  "scene": 0,
  "scenes": [
    {
      "nodes": [
        0
      ]
    }
  ],
  "textures": [
    {
      "source": 0
    }
  ]
}