{
  "asset": {
    "copyright": "",
    "generator": "SharpGLTF 1.0.0",
    "version": "2.0"
  },
  "accessors": [
    {
      "name": "POSITION",
      "bufferView": 0,
      "componentType": 5126,
      "count": 1250,
      "max": [
        -35.455623626708984,
        27.091886520385742,
        410.49887084960938
      ],
      "min": [
        -47.421806335449219,
        19.610610961914063,
        400.74295043945313
      ],
      "type": "VEC3"
    },
    {
      "name": "NORMAL",
      "bufferView": 0,
      "byteOffset": 12,
      "componentType": 5126,
      "count": 1250,
      "max": [
        0.99799221754074097,
        0.99998462200164795,
        0.98824930191040039
      ],
      "min": [
        -0.99818128347396851,
        -0.81903076171875,
        -0.9999924898147583
      ],
      "type": "VEC3"
    },
    {
      "name": "TEXCOORD_0",
      "bufferView": 0,
      "byteOffset": 24,
      "componentType": 5126,
      "count": 1250,
      "max": [
        0.998046875,
        0.9990234375
      ],
      "min": [
        0.001953125,
        0.0009765625
      ],
      "type": "VEC2"
    },
    {
      "bufferView": 1,
      "componentType": 5123,
      "count": 3168,
      "type": "SCALAR"
    },
    {
      "name": "POSITION",
      "bufferView": 0,
      "byteOffset": 40000,
      "componentType": 5126,
      "count": 132,
      "max": [
        -35.5986328125,
        25.852457046508789,
        410.3564453125
      ],
      "min": [
        -47.421772003173828,
        19.753040313720703,
        400.79052734375
      ],
      "type": "VEC3"
    },
    {
      "name": "NORMAL",
      "bufferView": 0,
      "byteOffset": 40012,
      "componentType": 5126,
      "count": 132,
      "max": [
        0.99368774890899658,
        0.99043381214141846,
        0.96363192796707153
      ],
      "min": [
        -0.95176458358764648,
        -0.78854972124099731,
        -0.98979830741882324
      ],
      "type": "VEC3"
    },
    {
      "name": "TEXCOORD_0",
      "bufferView": 0,
      "byteOffset": 40024,
      "componentType": 5126,
      "count": 132,
      "max": [
        0.994140625,
        0.998046875
      ],
      "min": [
        0.001953125,
        0.767578125
      ],
      "type": "VEC2"
    },
    {
      "bufferView": 1,
      "byteOffset": 6336,
      "componentType": 5123,
      "count": 315,
      "type": "SCALAR"
    }
  ],
  "bufferViews": [
    {
      "buffer": 0,
      "byteLength": 44224,
      "byteStride": 32,
      "target": 34962
    },
    {
      "buffer": 0,
      "byteLength": 6966,
      "byteOffset": 44224,
      "target": 34963
    }
  ],
  "buffers": [
    {
      "byteLength": 51192,
      "uri": "3060435073507076201327_LOD00.bin"
    }
  ],
  "images": [
    {
      "uri": "3060435073507076201327_LOD00_0.png"
    },
    {
      "uri": "3060435073507076201327_LOD00_1.png"
    }
  ],
  "materials": [
    {
      "doubleSided": true,
      "pbrMetallicRoughness": {
        "baseColorTexture": {
          "index": 0
        },
        "metallicFactor": 0
      }
    },
    {
      "doubleSided": true,
      "pbrMetallicRoughness": {
        "baseColorTexture": {
          "index": 1
        },
        "metallicFactor": 0
      }
    }
  ],
  "meshes": [
    {
      "name": "3060435073507076201327_0",
      "primitives": [
        {
          "attributes": {
            "POSITION": 0,
            "NORMAL": 1,
            "TEXCOORD_0": 2
          },
          "indices": 3,
          "material": 0
        }
      ]
    },
    {
      "name": "3060435073507076201327_1",
      "primitives": [
        {
          "attributes": {
            "POSITION": 4,
            "NORMAL": 5,
            "TEXCOORD_0": 6
          },
          "indices": 7,
          "material": 1
        }
      ]
    }
  ],
  "nodes": [
    {
      "mesh": 0
    },
    {
      "mesh": 1
    }
  ],
  "scene": 0,
  "scenes": [
    {
      "nodes": [
        0,
        1
      ]
    }
  ],
  "textures": [
    {
      "source": 0
    },
    {
      "source": 1
    }
  ]
}