{
  "asset": {
    "copyright": "",
    "generator": "SharpGLTF 1.0.0",
    "version": "2.0"
  },
  "accessors": [
    {
      "name": "POSITION",
      "bufferView": 0,
      "componentType": 5126,
      "count": 472,
      "max": [
        -153.79269409179688,
        10.624605178833008,
        48.85797119140625
      ],
      "min": [
        -165.61697387695313,
        9.957183837890625,
        39.197101593017578
      ],
      "type": "VEC3"
    },
    {
      "name": "NORMAL",
      "bufferView": 0,
      "byteOffset": 12,
      "componentType": 5126,
      "count": 472,
      "max": [
        0.89041203260421753,
        0.99998438358306885,
        0.84095001220703125
      ],
      "min": [
        -0.98830211162567139,
        0.046706713736057281,
        -0.7690349817276001
      ],
      "type": "VEC3"
    },
    {
      "name": "TEXCOORD_0",
      "bufferView": 0,
      "byteOffset": 24,
      "componentType": 5126,
      "count": 472,
      "max": [
        0.998046875,
        0.998046875
      ],
      "min": [
        0.001953125,
        0.056640625
      ],
      "type": "VEC2"
    },
    {
      "bufferView": 1,
      "componentType": 5123,
      "count": 1359,
      "type": "SCALAR"
    }
  ],
  "bufferViews": [
    {
      "buffer": 0,
      "byteLength": 15104,
      "byteStride": 32,
      "target": 34962
    },
    {
      "buffer": 0,
      "byteLength": 2718,
      "byteOffset": 15104,
      "target": 34963
    }
  ],
  "buffers": [
    {
      "byteLength": 17824,
      "uri": "3060435073507072454557_LOD00.bin"
    }
  ],
  "images": [
    {
      "uri": "3060435073507072454557_LOD00.png"
    }
  ],
  "materials": [
    {
      "doubleSided": true,
      "pbrMetallicRoughness": {
        "baseColorTexture": {
          "index": 0
        },
        "metallicFactor": 0
      }
    }
  ],
  "meshes": [
    {
      "name": "3060435073507072454557_0",
      "primitives": [
        {
          "attributes": {
            "POSITION": 0,
            "NORMAL": 1,
            "TEXCOORD_0": 2
          },
          "indices": 3,
          "material": 0
        }
      ]
    }
  ],
  "nodes": [
    {
      "mesh": 0
    }
  ],
  "scene": 0,
  "scenes": [
    {
      "nodes": [
        0
      ]
    }
  ],
  "textures": [
    {
      "source": 0
    }
  ]
}