{
  "asset": {
    "copyright": "",
    "generator": "SharpGLTF 1.0.0",
    "version": "2.0"
  },
  "accessors": [
    {
      "name": "POSITION",
      "bufferView": 0,
      "componentType": 5126,
      "count": 364,
      "max": [
        -189.24433898925781,
        33.097560882568359,
        229.60971069335938
      ],
      "min": [
        -196.39605712890625,
        28.903707504272461,
        220.09156799316406
      ],
      "type": "VEC3"
    },
    {
      "name": "NORMAL",
      "bufferView": 0,
      "byteOffset": 12,
      "componentType": 5126,
      "count": 364,
      "max": [
        -0.045272741466760635,
        0.99896633625030518,
        0.53591322898864746
      ],
      "min": [
        -0.99915426969528198,
        -0.46829032897949219,
        -0.35281690955162048
      ],
      "type": "VEC3"
    },
    {
      "name": "TEXCOORD_0",
      "bufferView": 0,
      "byteOffset": 24,
      "componentType": 5126,
      "count": 364,
      "max": [
        0.998046875,
        0.998046875
      ],
      "min": [
        0.001953125,
        0.169921875
      ],
      "type": "VEC2"
    },
    {
      "bufferView": 1,
      "componentType": 5123,
      "count": 1095,
      "type": "SCALAR"
    }
  ],
  "bufferViews": [
    {
      "buffer": 0,
      "byteLength": 11648,
      "byteStride": 32,
      "target": 34962
    },
    {
      "buffer": 0,
      "byteLength": 2190,
      "byteOffset": 11648,
      "target": 34963
    }
  ],
  "buffers": [
    {
      "byteLength": 13840,
      "uri": "3060435073507076031250_LOD00.bin"
    }
  ],
  "images": [
    {
      "uri": "3060435073507076031250_LOD00.png"
    }
  ],
  "materials": [
    {
      "doubleSided": true,
      "pbrMetallicRoughness": {
        "baseColorTexture": {
          "index": 0
        },
        "metallicFactor": 0
      }
    }
  ],
  "meshes": [
    {
      "name": "3060435073507076031250_0",
      "primitives": [
        {
          "attributes": {
            "POSITION": 0,
            "NORMAL": 1,
            "TEXCOORD_0": 2
          },
          "indices": 3,
          "material": 0
        }
      ]
    }
  ],
  "nodes": [
    {
      "mesh": 0
    }
  ],
  "scene": 0,
  "scenes": [
    {
      "nodes": [
        0
      ]
    }
  ],
  "textures": [
    {
      "source": 0
    }
  ]
}