{
  "asset": {
    "copyright": "",
    "generator": "SharpGLTF 1.0.0",
    "version": "2.0"
  },
  "accessors": [
    {
      "name": "POSITION",
      "bufferView": 0,
      "componentType": 5126,
      "count": 74,
      "max": [
        -53.332283020019531,
        29.67268180847168,
        21.929559707641602
      ],
      "min": [
        -56.717403411865234,
        28.767271041870117,
        20.311485290527344
      ],
      "type": "VEC3"
    },
    {
      "name": "NORMAL",
      "bufferView": 0,
      "byteOffset": 12,
      "componentType": 5126,
      "count": 74,
      "max": [
        0.79649984836578369,
        0.97304970026016235,
        0.89781284332275391
      ],
      "min": [
        -0.99093759059906006,
        -0.013390790671110153,
        -0.58166790008544922
      ],
      "type": "VEC3"
    },
    {
      "name": "TEXCOORD_0",
      "bufferView": 0,
      "byteOffset": 24,
      "componentType": 5126,
      "count": 74,
      "max": [
        0.478515625,
        0.998046875
      ],
      "min": [
        0.001953125,
        0.857421875
      ],
      "type": "VEC2"
    },
    {
      "bufferView": 1,
      "componentType": 5123,
      "count": 225,
      "type": "SCALAR"
    }
  ],
  "bufferViews": [
    {
      "buffer": 0,
      "byteLength": 2368,
      "byteStride": 32,
      "target": 34962
    },
    {
      "buffer": 0,
      "byteLength": 450,
      "byteOffset": 2368,
      "target": 34963
    }
  ],
  "buffers": [
    {
      "byteLength": 2820,
      "uri": "3060435073507074223372_LOD00.bin"
    }
  ],
  "images": [
    {
      "uri": "3060435073507074223372_LOD00.png"
    }
  ],
  "materials": [
    {
      "doubleSided": true,
      "pbrMetallicRoughness": {
        "baseColorTexture": {
          "index": 0
        },
        "metallicFactor": 0
      }
    }
  ],
  "meshes": [
    {
      "name": "3060435073507074223372_0",
      "primitives": [
        {
          "attributes": {
            "POSITION": 0,
            "NORMAL": 1,
            "TEXCOORD_0": 2
          },
          "indices": 3,
          "material": 0
        }
      ]
    }
  ],
  "nodes": [
    {
      "mesh": 0
    }
  ],
  "scene": 0,
  "scenes": [
    {
      "nodes": [
        0
      ]
    }
  ],
  "textures": [
    {
      "source": 0
    }
  ]
}