{
  "asset": {
    "copyright": "",
    "generator": "SharpGLTF 1.0.0",
    "version": "2.0"
  },
  "accessors": [
    {
      "name": "POSITION",
      "bufferView": 0,
      "componentType": 5126,
      "count": 1171,
      "max": [
        -35.599006652832031,
        19.857576370239258,
        334.25070190429688
      ],
      "min": [
        -47.422431945800781,
        10.470428466796875,
        324.63760375976563
      ],
      "type": "VEC3"
    },
    {
      "name": "NORMAL",
      "bufferView": 0,
      "byteOffset": 12,
      "componentType": 5126,
      "count": 1171,
      "max": [
        0.99999231100082397,
        0.9959598183631897,
        0.99914991855621338
      ],
      "min": [
        -0.9917946457862854,
        -0.99916708469390869,
        -0.99914973974227905
      ],
      "type": "VEC3"
    },
    {
      "name": "TEXCOORD_0",
      "bufferView": 0,
      "byteOffset": 24,
      "componentType": 5126,
      "count": 1171,
      "max": [
        0.998046875,
        0.9990234375
      ],
      "min": [
        0.001953125,
        0.0009765625
      ],
      "type": "VEC2"
    },
    {
      "bufferView": 1,
      "componentType": 5123,
      "count": 2868,
      "type": "SCALAR"
    },
    {
      "name": "POSITION",
      "bufferView": 0,
      "byteOffset": 37472,
      "componentType": 5126,
      "count": 199,
      "max": [
        -35.599018096923828,
        19.762489318847656,
        334.25064086914063
      ],
      "min": [
        -45.992156982421875,
        10.613150596618652,
        324.73269653320313
      ],
      "type": "VEC3"
    },
    {
      "name": "NORMAL",
      "bufferView": 0,
      "byteOffset": 37484,
      "componentType": 5126,
      "count": 199,
      "max": [
        0.99999231100082397,
        0.97518503665924072,
        0.97498863935470581
      ],
      "min": [
        -0.98198091983795166,
        -0.99916708469390869,
        -0.91341638565063477
      ],
      "type": "VEC3"
    },
    {
      "name": "TEXCOORD_0",
      "bufferView": 0,
      "byteOffset": 37496,
      "componentType": 5126,
      "count": 199,
      "max": [
        0.998046875,
        0.998046875
      ],
      "min": [
        0.001953125,
        0.716796875
      ],
      "type": "VEC2"
    },
    {
      "bufferView": 1,
      "byteOffset": 5736,
      "componentType": 5123,
      "count": 543,
      "type": "SCALAR"
    }
  ],
  "bufferViews": [
    {
      "buffer": 0,
      "byteLength": 43840,
      "byteStride": 32,
      "target": 34962
    },
    {
      "buffer": 0,
      "byteLength": 6822,
      "byteOffset": 43840,
      "target": 34963
    }
  ],
  "buffers": [
    {
      "byteLength": 50664,
      "uri": "3060435073507076023323_LOD00.bin"
    }
  ],
  "images": [
    {
      "uri": "3060435073507076023323_LOD00_0.png"
    },
    {
      "uri": "3060435073507076023323_LOD00_1.png"
    }
  ],
  "materials": [
    {
      "doubleSided": true,
      "pbrMetallicRoughness": {
        "baseColorTexture": {
          "index": 0
        },
        "metallicFactor": 0
      }
    },
    {
      "doubleSided": true,
      "pbrMetallicRoughness": {
        "baseColorTexture": {
          "index": 1
        },
        "metallicFactor": 0
      }
    }
  ],
  "meshes": [
    {
      "name": "3060435073507076023323_0",
      "primitives": [
        {
          "attributes": {
            "POSITION": 0,
            "NORMAL": 1,
            "TEXCOORD_0": 2
          },
          "indices": 3,
          "material": 0
        }
      ]
    },
    {
      "name": "3060435073507076023323_1",
      "primitives": [
        {
          "attributes": {
            "POSITION": 4,
            "NORMAL": 5,
            "TEXCOORD_0": 6
          },
          "indices": 7,
          "material": 1
        }
      ]
    }
  ],
  "nodes": [
    {
      "mesh": 0
    },
    {
      "mesh": 1
    }
  ],
  "scene": 0,
  "scenes": [
    {
      "nodes": [
        0,
        1
      ]
    }
  ],
  "textures": [
    {
      "source": 0
    },
    {
      "source": 1
    }
  ]
}