{
  "asset": {
    "copyright": "",
    "generator": "SharpGLTF 1.0.0",
    "version": "2.0"
  },
  "accessors": [
    {
      "name": "POSITION",
      "bufferView": 0,
      "componentType": 5126,
      "count": 28,
      "max": [
        -152.07057189941406,
        10.702374458312988,
        410.3575439453125
      ],
      "min": [
        -153.83457946777344,
        10.464041709899902,
        408.025634765625
      ],
      "type": "VEC3"
    },
    {
      "name": "NORMAL",
      "bufferView": 0,
      "byteOffset": 12,
      "componentType": 5126,
      "count": 28,
      "max": [
        0.089782878756523132,
        0.9959525465965271,
        -0.0042091407813131809
      ],
      "min": [
        0.049049347639083862,
        0.98832041025161743,
        -0.14358973503112793
      ],
      "type": "VEC3"
    },
    {
      "name": "TEXCOORD_0",
      "bufferView": 0,
      "byteOffset": 24,
      "componentType": 5126,
      "count": 28,
      "max": [
        0.162109375,
        0.998046875
      ],
      "min": [
        0.001953125,
        0.806640625
      ],
      "type": "VEC2"
    },
    {
      "bufferView": 1,
      "componentType": 5123,
      "count": 93,
      "type": "SCALAR"
    }
  ],
  "bufferViews": [
    {
      "buffer": 0,
      "byteLength": 896,
      "byteStride": 32,
      "target": 34962
    },
    {
      "buffer": 0,
      "byteLength": 186,
      "byteOffset": 896,
      "target": 34963
    }
  ],
  "buffers": [
    {
      "byteLength": 1084,
      "uri": "3060435073507076210332_LOD00.bin"
    }
  ],
  "images": [
    {
      "uri": "3060435073507076210332_LOD00.png"
    }
  ],
  "materials": [
    {
      "doubleSided": true,
      "pbrMetallicRoughness": {
        "baseColorTexture": {
          "index": 0
        },
        "metallicFactor": 0
      }
    }
  ],
  "meshes": [
    {
      "name": "3060435073507076210332_0",
      "primitives": [
        {
          "attributes": {
            "POSITION": 0,
            "NORMAL": 1,
            "TEXCOORD_0": 2
          },
          "indices": 3,
          "material": 0
        }
      ]
    }
  ],
  "nodes": [
    {
      "mesh": 0
    }
  ],
  "scene": 0,
  "scenes": [
    {
      "nodes": [
        0
      ]
    }
  ],
  "textures": [
    {
      "source": 0
    }
  ]
}