{
  "asset": {
    "copyright": "",
    "generator": "SharpGLTF 1.0.0",
    "version": "2.0"
  },
  "accessors": [
    {
      "name": "POSITION",
      "bufferView": 0,
      "componentType": 5126,
      "count": 177,
      "max": [
        -156.26185607910156,
        10.799092292785645,
        386.28692626953125
      ],
      "min": [
        -161.88748168945313,
        10.465580940246582,
        381.81338500976563
      ],
      "type": "VEC3"
    },
    {
      "name": "NORMAL",
      "bufferView": 0,
      "byteOffset": 12,
      "componentType": 5126,
      "count": 177,
      "max": [
        0.47072967886924744,
        0.99998420476913452,
        0.4231986403465271
      ],
      "min": [
        -0.44585096836090088,
        0.85290247201919556,
        -0.18286244571208954
      ],
      "type": "VEC3"
    },
    {
      "name": "TEXCOORD_0",
      "bufferView": 0,
      "byteOffset": 24,
      "componentType": 5126,
      "count": 177,
      "max": [
        0.951171875,
        0.998046875
      ],
      "min": [
        0.001953125,
        0.759765625
      ],
      "type": "VEC2"
    },
    {
      "bufferView": 1,
      "componentType": 5123,
      "count": 501,
      "type": "SCALAR"
    }
  ],
  "bufferViews": [
    {
      "buffer": 0,
      "byteLength": 5664,
      "byteStride": 32,
      "target": 34962
    },
    {
      "buffer": 0,
      "byteLength": 1002,
      "byteOffset": 5664,
      "target": 34963
    }
  ],
  "buffers": [
    {
      "byteLength": 6668,
      "uri": "3060435073507076210313_LOD00.bin"
    }
  ],
  "images": [
    {
      "uri": "3060435073507076210313_LOD00.png"
    }
  ],
  "materials": [
    {
      "doubleSided": true,
      "pbrMetallicRoughness": {
        "baseColorTexture": {
          "index": 0
        },
        "metallicFactor": 0
      }
    }
  ],
  "meshes": [
    {
      "name": "3060435073507076210313_0",
      "primitives": [
        {
          "attributes": {
            "POSITION": 0,
            "NORMAL": 1,
            "TEXCOORD_0": 2
          },
          "indices": 3,
          "material": 0
        }
      ]
    }
  ],
  "nodes": [
    {
      "mesh": 0
    }
  ],
  "scene": 0,
  "scenes": [
    {
      "nodes": [
        0
      ]
    }
  ],
  "textures": [
    {
      "source": 0
    }
  ]
}