{
  "asset": {
    "copyright": "",
    "generator": "SharpGLTF 1.0.0",
    "version": "2.0"
  },
  "accessors": [
    {
      "name": "POSITION",
      "bufferView": 0,
      "componentType": 5126,
      "count": 177,
      "max": [
        -47.417915344238281,
        10.239156723022461,
        286.68460083007813
      ],
      "min": [
        -59.289020538330078,
        9.4286890029907227,
        277.11911010742188
      ],
      "type": "VEC3"
    },
    {
      "name": "NORMAL",
      "bufferView": 0,
      "byteOffset": 12,
      "componentType": 5126,
      "count": 177,
      "max": [
        0.36185702681541443,
        0.9999845027923584,
        0.36131170392036438
      ],
      "min": [
        -0.150255486369133,
        0.91282343864440918,
        -0.10237850248813629
      ],
      "type": "VEC3"
    },
    {
      "name": "TEXCOORD_0",
      "bufferView": 0,
      "byteOffset": 24,
      "componentType": 5126,
      "count": 177,
      "max": [
        0.978515625,
        0.9990234375
      ],
      "min": [
        0.001953125,
        0.3134765625
      ],
      "type": "VEC2"
    },
    {
      "bufferView": 1,
      "componentType": 5123,
      "count": 639,
      "type": "SCALAR"
    }
  ],
  "bufferViews": [
    {
      "buffer": 0,
      "byteLength": 5664,
      "byteStride": 32,
      "target": 34962
    },
    {
      "buffer": 0,
      "byteLength": 1278,
      "byteOffset": 5664,
      "target": 34963
    }
  ],
  "buffers": [
    {
      "byteLength": 6944,
      "uri": "3060435073507072467574_LOD00.bin"
    }
  ],
  "images": [
    {
      "uri": "3060435073507072467574_LOD00.png"
    }
  ],
  "materials": [
    {
      "doubleSided": true,
      "pbrMetallicRoughness": {
        "baseColorTexture": {
          "index": 0
        },
        "metallicFactor": 0
      }
    }
  ],
  "meshes": [
    {
      "name": "3060435073507072467574_0",
      "primitives": [
        {
          "attributes": {
            "POSITION": 0,
            "NORMAL": 1,
            "TEXCOORD_0": 2
          },
          "indices": 3,
          "material": 0
        }
      ]
    }
  ],
  "nodes": [
    {
      "mesh": 0
    }
  ],
  "scene": 0,
  "scenes": [
    {
      "nodes": [
        0
      ]
    }
  ],
  "textures": [
    {
      "source": 0
    }
  ]
}