{
  "asset": {
    "copyright": "",
    "generator": "SharpGLTF 1.0.0",
    "version": "2.0"
  },
  "accessors": [
    {
      "name": "POSITION",
      "bufferView": 0,
      "componentType": 5126,
      "count": 327,
      "max": [
        -82.776596069335938,
        10.755687713623047,
        419.86923217773438
      ],
      "min": [
        -94.695060729980469,
        5.6087679862976074,
        410.35086059570313
      ],
      "type": "VEC3"
    },
    {
      "name": "NORMAL",
      "bufferView": 0,
      "byteOffset": 12,
      "componentType": 5126,
      "count": 327,
      "max": [
        0.98099315166473389,
        0.9999847412109375,
        0.4423384964466095
      ],
      "min": [
        -0.52578532695770264,
        -1,
        -0.045097734779119492
      ],
      "type": "VEC3"
    },
    {
      "name": "TEXCOORD_0",
      "bufferView": 0,
      "byteOffset": 24,
      "componentType": 5126,
      "count": 327,
      "max": [
        0.9912109375,
        0.9990234375
      ],
      "min": [
        0.0009765625,
        0.2197265625
      ],
      "type": "VEC2"
    },
    {
      "bufferView": 1,
      "componentType": 5123,
      "count": 867,
      "type": "SCALAR"
    }
  ],
  "bufferViews": [
    {
      "buffer": 0,
      "byteLength": 10464,
      "byteStride": 32,
      "target": 34962
    },
    {
      "buffer": 0,
      "byteLength": 1734,
      "byteOffset": 10464,
      "target": 34963
    }
  ],
  "buffers": [
    {
      "byteLength": 12200,
      "uri": "3060435073507072656445_LOD00.bin"
    }
  ],
  "images": [
    {
      "uri": "3060435073507072656445_LOD00.png"
    }
  ],
  "materials": [
    {
      "doubleSided": true,
      "pbrMetallicRoughness": {
        "baseColorTexture": {
          "index": 0
        },
        "metallicFactor": 0
      }
    }
  ],
  "meshes": [
    {
      "name": "3060435073507072656445_0",
      "primitives": [
        {
          "attributes": {
            "POSITION": 0,
            "NORMAL": 1,
            "TEXCOORD_0": 2
          },
          "indices": 3,
          "material": 0
        }
      ]
    }
  ],
  "nodes": [
    {
      "mesh": 0
    }
  ],
  "scene": 0,
  "scenes": [
    {
      "nodes": [
        0
      ]
    }
  ],
  "textures": [
    {
      "source": 0
    }
  ]
}