{
  "asset": {
    "copyright": "",
    "generator": "SharpGLTF 1.0.0",
    "version": "2.0"
  },
  "accessors": [
    {
      "name": "POSITION",
      "bufferView": 0,
      "componentType": 5126,
      "count": 134,
      "max": [
        -181.53115844726563,
        -7.6649184226989746,
        39.392848968505859
      ],
      "min": [
        -189.25523376464844,
        -8.8564357757568359,
        29.827617645263672
      ],
      "type": "VEC3"
    },
    {
      "name": "NORMAL",
      "bufferView": 0,
      "byteOffset": 12,
      "componentType": 5126,
      "count": 134,
      "max": [
        0.89682310819625854,
        0.0054249977692961693,
        -4.4649409574049059E-06
      ],
      "min": [
        2.7733400202123448E-05,
        -1,
        -0.81248956918716431
      ],
      "type": "VEC3"
    },
    {
      "name": "TEXCOORD_0",
      "bufferView": 0,
      "byteOffset": 24,
      "componentType": 5126,
      "count": 134,
      "max": [
        0.998046875,
        0.998046875
      ],
      "min": [
        0.001953125,
        0.408203125
      ],
      "type": "VEC2"
    },
    {
      "bufferView": 1,
      "componentType": 5123,
      "count": 369,
      "type": "SCALAR"
    }
  ],
  "bufferViews": [
    {
      "buffer": 0,
      "byteLength": 4288,
      "byteStride": 32,
      "target": 34962
    },
    {
      "buffer": 0,
      "byteLength": 738,
      "byteOffset": 4288,
      "target": 34963
    }
  ],
  "buffers": [
    {
      "byteLength": 5028,
      "uri": "3060435073507072455405_LOD00.bin"
    }
  ],
  "images": [
    {
      "uri": "3060435073507072455405_LOD00.png"
    }
  ],
  "materials": [
    {
      "doubleSided": true,
      "pbrMetallicRoughness": {
        "baseColorTexture": {
          "index": 0
        },
        "metallicFactor": 0
      }
    }
  ],
  "meshes": [
    {
      "name": "3060435073507072455405_0",
      "primitives": [
        {
          "attributes": {
            "POSITION": 0,
            "NORMAL": 1,
            "TEXCOORD_0": 2
          },
          "indices": 3,
          "material": 0
        }
      ]
    }
  ],
  "nodes": [
    {
      "mesh": 0
    }
  ],
  "scene": 0,
  "scenes": [
    {
      "nodes": [
        0
      ]
    }
  ],
  "textures": [
    {
      "source": 0
    }
  ]
}