{
  "asset": {
    "copyright": "",
    "generator": "SharpGLTF 1.0.0",
    "version": "2.0"
  },
  "accessors": [
    {
      "name": "POSITION",
      "bufferView": 0,
      "componentType": 5126,
      "count": 30,
      "max": [
        -17.635055541992188,
        20.086288452148438,
        416.2523193359375
      ],
      "min": [
        -18.731557846069336,
        19.752696990966797,
        415.300537109375
      ],
      "type": "VEC3"
    },
    {
      "name": "NORMAL",
      "bufferView": 0,
      "byteOffset": 12,
      "componentType": 5126,
      "count": 30,
      "max": [
        0.74674999713897705,
        0.93802666664123535,
        0.64178264141082764
      ],
      "min": [
        -0.4458363950252533,
        0.49273344874382019,
        -0.71052378416061401
      ],
      "type": "VEC3"
    },
    {
      "name": "TEXCOORD_0",
      "bufferView": 0,
      "byteOffset": 24,
      "componentType": 5126,
      "count": 30,
      "max": [
        0.173828125,
        0.998046875
      ],
      "min": [
        0.001953125,
        0.923828125
      ],
      "type": "VEC2"
    },
    {
      "bufferView": 1,
      "componentType": 5123,
      "count": 75,
      "type": "SCALAR"
    }
  ],
  "bufferViews": [
    {
      "buffer": 0,
      "byteLength": 960,
      "byteStride": 32,
      "target": 34962
    },
    {
      "buffer": 0,
      "byteLength": 150,
      "byteOffset": 960,
      "target": 34963
    }
  ],
  "buffers": [
    {
      "byteLength": 1112,
      "uri": "3060435073507076203015_LOD00.bin"
    }
  ],
  "images": [
    {
      "uri": "3060435073507076203015_LOD00.png"
    }
  ],
  "materials": [
    {
      "doubleSided": true,
      "pbrMetallicRoughness": {
        "baseColorTexture": {
          "index": 0
        },
        "metallicFactor": 0
      }
    }
  ],
  "meshes": [
    {
      "name": "3060435073507076203015_0",
      "primitives": [
        {
          "attributes": {
            "POSITION": 0,
            "NORMAL": 1,
            "TEXCOORD_0": 2
          },
          "indices": 3,
          "material": 0
        }
      ]
    }
  ],
  "nodes": [
    {
      "mesh": 0
    }
  ],
  "scene": 0,
  "scenes": [
    {
      "nodes": [
        0
      ]
    }
  ],
  "textures": [
    {
      "source": 0
    }
  ]
}