{
  "asset": {
    "copyright": "",
    "generator": "SharpGLTF 1.0.0",
    "version": "2.0"
  },
  "accessors": [
    {
      "name": "POSITION",
      "bufferView": 0,
      "componentType": 5126,
      "count": 466,
      "max": [
        -200.92802429199219,
        47.248249053955078,
        38.823238372802734
      ],
      "min": [
        -212.94277954101563,
        38.003765106201172,
        33.588069915771484
      ],
      "type": "VEC3"
    },
    {
      "name": "NORMAL",
      "bufferView": 0,
      "byteOffset": 12,
      "componentType": 5126,
      "count": 466,
      "max": [
        0.56739544868469238,
        0.31807243824005127,
        0.98910295963287354
      ],
      "min": [
        -0.42428091168403625,
        -0.16902968287467957,
        -0.9882546067237854
      ],
      "type": "VEC3"
    },
    {
      "name": "TEXCOORD_0",
      "bufferView": 0,
      "byteOffset": 24,
      "componentType": 5126,
      "count": 466,
      "max": [
        0.998046875,
        0.9990234375
      ],
      "min": [
        0.001953125,
        0.0146484375
      ],
      "type": "VEC2"
    },
    {
      "bufferView": 1,
      "componentType": 5123,
      "count": 1407,
      "type": "SCALAR"
    },
    {
      "name": "POSITION",
      "bufferView": 0,
      "byteOffset": 14912,
      "componentType": 5126,
      "count": 47,
      "max": [
        -201.50001525878906,
        42.626205444335938,
        35.206241607666016
      ],
      "min": [
        -209.223876953125,
        38.051612854003906,
        33.588069915771484
      ],
      "type": "VEC3"
    },
    {
      "name": "NORMAL",
      "bufferView": 0,
      "byteOffset": 14924,
      "componentType": 5126,
      "count": 47,
      "max": [
        0.18210858106613159,
        0.30172652006149292,
        -0.92362034320831299
      ],
      "min": [
        -0.24718621373176575,
        0.26730167865753174,
        -0.96201556921005249
      ],
      "type": "VEC3"
    },
    {
      "name": "TEXCOORD_0",
      "bufferView": 0,
      "byteOffset": 14936,
      "componentType": 5126,
      "count": 47,
      "max": [
        0.677734375,
        0.998046875
      ],
      "min": [
        0.001953125,
        0.705078125
      ],
      "type": "VEC2"
    },
    {
      "bufferView": 1,
      "byteOffset": 2814,
      "componentType": 5123,
      "count": 132,
      "type": "SCALAR"
    }
  ],
  "bufferViews": [
    {
      "buffer": 0,
      "byteLength": 16416,
      "byteStride": 32,
      "target": 34962
    },
    {
      "buffer": 0,
      "byteLength": 3078,
      "byteOffset": 16416,
      "target": 34963
    }
  ],
  "buffers": [
    {
      "byteLength": 19496,
      "uri": "3060435073507076011055_LOD00.bin"
    }
  ],
  "images": [
    {
      "uri": "3060435073507076011055_LOD00_0.png"
    },
    {
      "uri": "3060435073507076011055_LOD00_1.png"
    }
  ],
  "materials": [
    {
      "doubleSided": true,
      "pbrMetallicRoughness": {
        "baseColorTexture": {
          "index": 0
        },
        "metallicFactor": 0
      }
    },
    {
      "doubleSided": true,
      "pbrMetallicRoughness": {
        "baseColorTexture": {
          "index": 1
        },
        "metallicFactor": 0
      }
    }
  ],
  "meshes": [
    {
      "name": "3060435073507076011055_0",
      "primitives": [
        {
          "attributes": {
            "POSITION": 0,
            "NORMAL": 1,
            "TEXCOORD_0": 2
          },
          "indices": 3,
          "material": 0
        }
      ]
    },
    {
      "name": "3060435073507076011055_1",
      "primitives": [
        {
          "attributes": {
            "POSITION": 4,
            "NORMAL": 5,
            "TEXCOORD_0": 6
          },
          "indices": 7,
          "material": 1
        }
      ]
    }
  ],
  "nodes": [
    {
      "mesh": 0
    },
    {
      "mesh": 1
    }
  ],
  "scene": 0,
  "scenes": [
    {
      "nodes": [
        0,
        1
      ]
    }
  ],
  "textures": [
    {
      "source": 0
    },
    {
      "source": 1
    }
  ]
}