{
  "asset": {
    "copyright": "",
    "generator": "SharpGLTF 1.0.0",
    "version": "2.0"
  },
  "accessors": [
    {
      "name": "POSITION",
      "bufferView": 0,
      "componentType": 5126,
      "count": 606,
      "max": [
        -106.51568603515625,
        10.62543773651123,
        58.46490478515625
      ],
      "min": [
        -118.33986663818359,
        9.3864688873291016,
        48.8516845703125
      ],
      "type": "VEC3"
    },
    {
      "name": "NORMAL",
      "bufferView": 0,
      "byteOffset": 12,
      "componentType": 5126,
      "count": 606,
      "max": [
        0.94472205638885498,
        0.99998444318771362,
        0.57413697242736816
      ],
      "min": [
        -0.69556987285614014,
        -0.34760403633117676,
        -0.97259944677352905
      ],
      "type": "VEC3"
    },
    {
      "name": "TEXCOORD_0",
      "bufferView": 0,
      "byteOffset": 24,
      "componentType": 5126,
      "count": 606,
      "max": [
        0.998046875,
        0.998046875
      ],
      "min": [
        0.001953125,
        0.357421875
      ],
      "type": "VEC2"
    },
    {
      "bufferView": 1,
      "componentType": 5123,
      "count": 1623,
      "type": "SCALAR"
    }
  ],
  "bufferViews": [
    {
      "buffer": 0,
      "byteLength": 19392,
      "byteStride": 32,
      "target": 34962
    },
    {
      "buffer": 0,
      "byteLength": 3246,
      "byteOffset": 19392,
      "target": 34963
    }
  ],
  "buffers": [
    {
      "byteLength": 22640,
      "uri": "3060435073507072454475_LOD00.bin"
    }
  ],
  "images": [
    {
      "uri": "3060435073507072454475_LOD00.png"
    }
  ],
  "materials": [
    {
      "doubleSided": true,
      "pbrMetallicRoughness": {
        "baseColorTexture": {
          "index": 0
        },
        "metallicFactor": 0
      }
    }
  ],
  "meshes": [
    {
      "name": "3060435073507072454475_0",
      "primitives": [
        {
          "attributes": {
            "POSITION": 0,
            "NORMAL": 1,
            "TEXCOORD_0": 2
          },
          "indices": 3,
          "material": 0
        }
      ]
    }
  ],
  "nodes": [
    {
      "mesh": 0
    }
  ],
  "scene": 0,
  "scenes": [
    {
      "nodes": [
        0
      ]
    }
  ],
  "textures": [
    {
      "source": 0
    }
  ]
}