{
  "asset": {
    "copyright": "",
    "generator": "SharpGLTF 1.0.0",
    "version": "2.0"
  },
  "accessors": [
    {
      "name": "POSITION",
      "bufferView": 0,
      "componentType": 5126,
      "count": 177,
      "max": [
        -177.42832946777344,
        41.196075439453125,
        153.50382995605469
      ],
      "min": [
        -180.28926086425781,
        37.955509185791016,
        143.98580932617188
      ],
      "type": "VEC3"
    },
    {
      "name": "NORMAL",
      "bufferView": 0,
      "byteOffset": 12,
      "componentType": 5126,
      "count": 177,
      "max": [
        -0.045271653681993484,
        0.99896633625030518,
        0.18665090203285217
      ],
      "min": [
        -0.99489825963973999,
        -0.79374235868453979,
        -0.0055174455046653748
      ],
      "type": "VEC3"
    },
    {
      "name": "TEXCOORD_0",
      "bufferView": 0,
      "byteOffset": 24,
      "componentType": 5126,
      "count": 177,
      "max": [
        0.998046875,
        0.998046875
      ],
      "min": [
        0.001953125,
        0.251953125
      ],
      "type": "VEC2"
    },
    {
      "bufferView": 1,
      "componentType": 5123,
      "count": 573,
      "type": "SCALAR"
    }
  ],
  "bufferViews": [
    {
      "buffer": 0,
      "byteLength": 5664,
      "byteStride": 32,
      "target": 34962
    },
    {
      "buffer": 0,
      "byteLength": 1146,
      "byteOffset": 5664,
      "target": 34963
    }
  ],
  "buffers": [
    {
      "byteLength": 6812,
      "uri": "3060435073507076013245_LOD00.bin"
    }
  ],
  "images": [
    {
      "uri": "3060435073507076013245_LOD00.png"
    }
  ],
  "materials": [
    {
      "doubleSided": true,
      "pbrMetallicRoughness": {
        "baseColorTexture": {
          "index": 0
        },
        "metallicFactor": 0
      }
    }
  ],
  "meshes": [
    {
      "name": "3060435073507076013245_0",
      "primitives": [
        {
          "attributes": {
            "POSITION": 0,
            "NORMAL": 1,
            "TEXCOORD_0": 2
          },
          "indices": 3,
          "material": 0
        }
      ]
    }
  ],
  "nodes": [
    {
      "mesh": 0
    }
  ],
  "scene": 0,
  "scenes": [
    {
      "nodes": [
        0
      ]
    }
  ],
  "textures": [
    {
      "source": 0
    }
  ]
}