{
  "asset": {
    "copyright": "",
    "generator": "SharpGLTF 1.0.0",
    "version": "2.0"
  },
  "accessors": [
    {
      "name": "POSITION",
      "bufferView": 0,
      "componentType": 5126,
      "count": 370,
      "max": [
        -153.79025268554688,
        41.244041442871094,
        153.64579772949219
      ],
      "min": [
        -165.61442565917969,
        37.956077575683594,
        143.98530578613281
      ],
      "type": "VEC3"
    },
    {
      "name": "NORMAL",
      "bufferView": 0,
      "byteOffset": 12,
      "componentType": 5126,
      "count": 370,
      "max": [
        0.99093222618103027,
        0.9999845027923584,
        0.11505941301584244
      ],
      "min": [
        -0.26501953601837158,
        -0.83960187435150146,
        -0.99486815929412842
      ],
      "type": "VEC3"
    },
    {
      "name": "TEXCOORD_0",
      "bufferView": 0,
      "byteOffset": 24,
      "componentType": 5126,
      "count": 370,
      "max": [
        0.998046875,
        0.998046875
      ],
      "min": [
        0.001953125,
        0.154296875
      ],
      "type": "VEC2"
    },
    {
      "bufferView": 1,
      "componentType": 5123,
      "count": 1098,
      "type": "SCALAR"
    }
  ],
  "bufferViews": [
    {
      "buffer": 0,
      "byteLength": 11840,
      "byteStride": 32,
      "target": 34962
    },
    {
      "buffer": 0,
      "byteLength": 2196,
      "byteOffset": 11840,
      "target": 34963
    }
  ],
  "buffers": [
    {
      "byteLength": 14036,
      "uri": "3060435073507076012355_LOD00.bin"
    }
  ],
  "images": [
    {
      "uri": "3060435073507076012355_LOD00.png"
    }
  ],
  "materials": [
    {
      "doubleSided": true,
      "pbrMetallicRoughness": {
        "baseColorTexture": {
          "index": 0
        },
        "metallicFactor": 0
      }
    }
  ],
  "meshes": [
    {
      "name": "3060435073507076012355_0",
      "primitives": [
        {
          "attributes": {
            "POSITION": 0,
            "NORMAL": 1,
            "TEXCOORD_0": 2
          },
          "indices": 3,
          "material": 0
        }
      ]
    }
  ],
  "nodes": [
    {
      "mesh": 0
    }
  ],
  "scene": 0,
  "scenes": [
    {
      "nodes": [
        0
      ]
    }
  ],
  "textures": [
    {
      "source": 0
    }
  ]
}