{
  "asset": {
    "copyright": "",
    "generator": "SharpGLTF 1.0.0",
    "version": "2.0"
  },
  "accessors": [
    {
      "name": "POSITION",
      "bufferView": 0,
      "componentType": 5126,
      "count": 495,
      "max": [
        -106.51148986816406,
        10.620510101318359,
        267.706787109375
      ],
      "min": [
        -118.38278961181641,
        9.4288854598999023,
        258.09375
      ],
      "type": "VEC3"
    },
    {
      "name": "NORMAL",
      "bufferView": 0,
      "byteOffset": 12,
      "componentType": 5126,
      "count": 495,
      "max": [
        0.85853314399719238,
        0.99998456239700317,
        0.72379136085510254
      ],
      "min": [
        -0.88059830665588379,
        -0.38500824570655823,
        -0.99483495950698853
      ],
      "type": "VEC3"
    },
    {
      "name": "TEXCOORD_0",
      "bufferView": 0,
      "byteOffset": 24,
      "componentType": 5126,
      "count": 495,
      "max": [
        0.998046875,
        0.998046875
      ],
      "min": [
        0.001953125,
        0.263671875
      ],
      "type": "VEC2"
    },
    {
      "bufferView": 1,
      "componentType": 5123,
      "count": 1461,
      "type": "SCALAR"
    }
  ],
  "bufferViews": [
    {
      "buffer": 0,
      "byteLength": 15840,
      "byteStride": 32,
      "target": 34962
    },
    {
      "buffer": 0,
      "byteLength": 2922,
      "byteOffset": 15840,
      "target": 34963
    }
  ],
  "buffers": [
    {
      "byteLength": 18764,
      "uri": "3060435073507072476455_LOD00.bin"
    }
  ],
  "images": [
    {
      "uri": "3060435073507072476455_LOD00.png"
    }
  ],
  "materials": [
    {
      "doubleSided": true,
      "pbrMetallicRoughness": {
        "baseColorTexture": {
          "index": 0
        },
        "metallicFactor": 0
      }
    }
  ],
  "meshes": [
    {
      "name": "3060435073507072476455_0",
      "primitives": [
        {
          "attributes": {
            "POSITION": 0,
            "NORMAL": 1,
            "TEXCOORD_0": 2
          },
          "indices": 3,
          "material": 0
        }
      ]
    }
  ],
  "nodes": [
    {
      "mesh": 0
    }
  ],
  "scene": 0,
  "scenes": [
    {
      "nodes": [
        0
      ]
    }
  ],
  "textures": [
    {
      "source": 0
    }
  ]
}