{
  "asset": {
    "copyright": "",
    "generator": "SharpGLTF 1.0.0",
    "version": "2.0"
  },
  "accessors": [
    {
      "name": "POSITION",
      "bufferView": 0,
      "componentType": 5126,
      "count": 955,
      "max": [
        -130.05479431152344,
        19.909252166748047,
        220.18899536132813
      ],
      "min": [
        -133.34451293945313,
        10.474145889282227,
        210.43309020996094
      ],
      "type": "VEC3"
    },
    {
      "name": "NORMAL",
      "bufferView": 0,
      "byteOffset": 12,
      "componentType": 5126,
      "count": 955,
      "max": [
        0.99931752681732178,
        0.91282612085342407,
        0.99999207258224487
      ],
      "min": [
        -0.49252942204475403,
        -0.70023840665817261,
        -0.99798226356506348
      ],
      "type": "VEC3"
    },
    {
      "name": "TEXCOORD_0",
      "bufferView": 0,
      "byteOffset": 24,
      "componentType": 5126,
      "count": 955,
      "max": [
        0.998046875,
        0.998046875
      ],
      "min": [
        0.001953125,
        0.037109375
      ],
      "type": "VEC2"
    },
    {
      "bufferView": 1,
      "componentType": 5123,
      "count": 2814,
      "type": "SCALAR"
    }
  ],
  "bufferViews": [
    {
      "buffer": 0,
      "byteLength": 30560,
      "byteStride": 32,
      "target": 34962
    },
    {
      "buffer": 0,
      "byteLength": 5628,
      "byteOffset": 30560,
      "target": 34963
    }
  ],
  "buffers": [
    {
      "byteLength": 36188,
      "uri": "3060435073507076030123_LOD00.bin"
    }
  ],
  "images": [
    {
      "uri": "3060435073507076030123_LOD00.png"
    }
  ],
  "materials": [
    {
      "doubleSided": true,
      "pbrMetallicRoughness": {
        "baseColorTexture": {
          "index": 0
        },
        "metallicFactor": 0
      }
    }
  ],
  "meshes": [
    {
      "name": "3060435073507076030123_0",
      "primitives": [
        {
          "attributes": {
            "POSITION": 0,
            "NORMAL": 1,
            "TEXCOORD_0": 2
          },
          "indices": 3,
          "material": 0
        }
      ]
    }
  ],
  "nodes": [
    {
      "mesh": 0
    }
  ],
  "scene": 0,
  "scenes": [
    {
      "nodes": [
        0
      ]
    }
  ],
  "textures": [
    {
      "source": 0
    }
  ]
}