{
  "asset": {
    "copyright": "",
    "generator": "SharpGLTF 1.0.0",
    "version": "2.0"
  },
  "accessors": [
    {
      "name": "POSITION",
      "bufferView": 0,
      "componentType": 5126,
      "count": 520,
      "max": [
        -224.64981079101563,
        10.712121963500977,
        286.7366943359375
      ],
      "min": [
        -236.52139282226563,
        6.9469442367553711,
        277.0289306640625
      ],
      "type": "VEC3"
    },
    {
      "name": "NORMAL",
      "bufferView": 0,
      "byteOffset": 12,
      "componentType": 5126,
      "count": 520,
      "max": [
        0.9967389702796936,
        0.99897295236587524,
        0.99817407131195068
      ],
      "min": [
        -0.99485790729522705,
        -0.99639147520065308,
        -0.95142817497253418
      ],
      "type": "VEC3"
    },
    {
      "name": "TEXCOORD_0",
      "bufferView": 0,
      "byteOffset": 24,
      "componentType": 5126,
      "count": 520,
      "max": [
        0.998046875,
        0.998046875
      ],
      "min": [
        0.001953125,
        0.388671875
      ],
      "type": "VEC2"
    },
    {
      "bufferView": 1,
      "componentType": 5123,
      "count": 1455,
      "type": "SCALAR"
    }
  ],
  "bufferViews": [
    {
      "buffer": 0,
      "byteLength": 16640,
      "byteStride": 32,
      "target": 34962
    },
    {
      "buffer": 0,
      "byteLength": 2910,
      "byteOffset": 16640,
      "target": 34963
    }
  ],
  "buffers": [
    {
      "byteLength": 19552,
      "uri": "3060435073507072477565_LOD00.bin"
    }
  ],
  "images": [
    {
      "uri": "3060435073507072477565_LOD00.png"
    }
  ],
  "materials": [
    {
      "doubleSided": true,
      "pbrMetallicRoughness": {
        "baseColorTexture": {
          "index": 0
        },
        "metallicFactor": 0
      }
    }
  ],
  "meshes": [
    {
      "name": "3060435073507072477565_0",
      "primitives": [
        {
          "attributes": {
            "POSITION": 0,
            "NORMAL": 1,
            "TEXCOORD_0": 2
          },
          "indices": 3,
          "material": 0
        }
      ]
    }
  ],
  "nodes": [
    {
      "mesh": 0
    }
  ],
  "scene": 0,
  "scenes": [
    {
      "nodes": [
        0
      ]
    }
  ],
  "textures": [
    {
      "source": 0
    }
  ]
}