{
  "asset": {
    "copyright": "",
    "generator": "SharpGLTF 1.0.0",
    "version": "2.0"
  },
  "accessors": [
    {
      "name": "POSITION",
      "bufferView": 0,
      "componentType": 5126,
      "count": 579,
      "max": [
        -59.235569000244141,
        11.372759819030762,
        381.81634521484375
      ],
      "min": [
        -71.154182434082031,
        10.4671630859375,
        372.29824829101563
      ],
      "type": "VEC3"
    },
    {
      "name": "NORMAL",
      "bufferView": 0,
      "byteOffset": 12,
      "componentType": 5126,
      "count": 579,
      "max": [
        0.99674075841903687,
        0.99998462200164795,
        0.99931806325912476
      ],
      "min": [
        -0.86229091882705688,
        -0.7003021240234375,
        -0.77971857786178589
      ],
      "type": "VEC3"
    },
    {
      "name": "TEXCOORD_0",
      "bufferView": 0,
      "byteOffset": 24,
      "componentType": 5126,
      "count": 579,
      "max": [
        0.998046875,
        0.998046875
      ],
      "min": [
        0.001953125,
        0.197265625
      ],
      "type": "VEC2"
    },
    {
      "bufferView": 1,
      "componentType": 5123,
      "count": 1554,
      "type": "SCALAR"
    }
  ],
  "bufferViews": [
    {
      "buffer": 0,
      "byteLength": 18528,
      "byteStride": 32,
      "target": 34962
    },
    {
      "buffer": 0,
      "byteLength": 3108,
      "byteOffset": 18528,
      "target": 34963
    }
  ],
  "buffers": [
    {
      "byteLength": 21636,
      "uri": "3060435073507076201311_LOD00.bin"
    }
  ],
  "images": [
    {
      "uri": "3060435073507076201311_LOD00.png"
    }
  ],
  "materials": [
    {
      "doubleSided": true,
      "pbrMetallicRoughness": {
        "baseColorTexture": {
          "index": 0
        },
        "metallicFactor": 0
      }
    }
  ],
  "meshes": [
    {
      "name": "3060435073507076201311_0",
      "primitives": [
        {
          "attributes": {
            "POSITION": 0,
            "NORMAL": 1,
            "TEXCOORD_0": 2
          },
          "indices": 3,
          "material": 0
        }
      ]
    }
  ],
  "nodes": [
    {
      "mesh": 0
    }
  ],
  "scene": 0,
  "scenes": [
    {
      "nodes": [
        0
      ]
    }
  ],
  "textures": [
    {
      "source": 0
    }
  ]
}