{
  "asset": {
    "copyright": "",
    "generator": "SharpGLTF 1.0.0",
    "version": "2.0"
  },
  "accessors": [
    {
      "name": "POSITION",
      "bufferView": 0,
      "componentType": 5126,
      "count": 419,
      "max": [
        -106.46478271484375,
        10.621486663818359,
        229.65423583984375
      ],
      "min": [
        -118.33602142333984,
        9.3349647521972656,
        220.08847045898438
      ],
      "type": "VEC3"
    },
    {
      "name": "NORMAL",
      "bufferView": 0,
      "byteOffset": 12,
      "componentType": 5126,
      "count": 419,
      "max": [
        0.88729262351989746,
        0.99998462200164795,
        0.536094069480896
      ],
      "min": [
        -0.6350400447845459,
        0.45721930265426636,
        -0.74448478221893311
      ],
      "type": "VEC3"
    },
    {
      "name": "TEXCOORD_0",
      "bufferView": 0,
      "byteOffset": 24,
      "componentType": 5126,
      "count": 419,
      "max": [
        0.998046875,
        0.998046875
      ],
      "min": [
        0.001953125,
        0.005859375
      ],
      "type": "VEC2"
    },
    {
      "bufferView": 1,
      "componentType": 5123,
      "count": 1242,
      "type": "SCALAR"
    }
  ],
  "bufferViews": [
    {
      "buffer": 0,
      "byteLength": 13408,
      "byteStride": 32,
      "target": 34962
    },
    {
      "buffer": 0,
      "byteLength": 2484,
      "byteOffset": 13408,
      "target": 34963
    }
  ],
  "buffers": [
    {
      "byteLength": 15892,
      "uri": "3060435073507072474655_LOD00.bin"
    }
  ],
  "images": [
    {
      "uri": "3060435073507072474655_LOD00.png"
    }
  ],
  "materials": [
    {
      "doubleSided": true,
      "pbrMetallicRoughness": {
        "baseColorTexture": {
          "index": 0
        },
        "metallicFactor": 0
      }
    }
  ],
  "meshes": [
    {
      "name": "3060435073507072474655_0",
      "primitives": [
        {
          "attributes": {
            "POSITION": 0,
            "NORMAL": 1,
            "TEXCOORD_0": 2
          },
          "indices": 3,
          "material": 0
        }
      ]
    }
  ],
  "nodes": [
    {
      "mesh": 0
    }
  ],
  "scene": 0,
  "scenes": [
    {
      "nodes": [
        0
      ]
    }
  ],
  "textures": [
    {
      "source": 0
    }
  ]
}