{
  "asset": {
    "copyright": "",
    "generator": "SharpGLTF 1.0.0",
    "version": "2.0"
  },
  "accessors": [
    {
      "name": "POSITION",
      "bufferView": 0,
      "componentType": 5126,
      "count": 431,
      "max": [
        -189.25096130371094,
        47.248672485351563,
        58.467632293701172
      ],
      "min": [
        -195.21070861816406,
        37.909084320068359,
        48.854202270507813
      ],
      "type": "VEC3"
    },
    {
      "name": "NORMAL",
      "bufferView": 0,
      "byteOffset": 12,
      "componentType": 5126,
      "count": 431,
      "max": [
        0.98829799890518188,
        0.34785476326942444,
        0.47492897510528564
      ],
      "min": [
        -0.98704284429550171,
        -0.18882621824741364,
        -0.63685351610183716
      ],
      "type": "VEC3"
    },
    {
      "name": "TEXCOORD_0",
      "bufferView": 0,
      "byteOffset": 24,
      "componentType": 5126,
      "count": 431,
      "max": [
        0.994140625,
        0.9990234375
      ],
      "min": [
        0.001953125,
        0.0751953125
      ],
      "type": "VEC2"
    },
    {
      "bufferView": 1,
      "componentType": 5123,
      "count": 1305,
      "type": "SCALAR"
    },
    {
      "name": "POSITION",
      "bufferView": 0,
      "byteOffset": 13792,
      "componentType": 5126,
      "count": 41,
      "max": [
        -190.53848266601563,
        47.201190948486328,
        53.613353729248047
      ],
      "min": [
        -192.06416320800781,
        42.626579284667969,
        48.854286193847656
      ],
      "type": "VEC3"
    },
    {
      "name": "NORMAL",
      "bufferView": 0,
      "byteOffset": 13804,
      "componentType": 5126,
      "count": 41,
      "max": [
        0.98829799890518188,
        0.2809450626373291,
        0.18150000274181366
      ],
      "min": [
        0.94240528345108032,
        0.14378926157951355,
        -0.16411116719245911
      ],
      "type": "VEC3"
    },
    {
      "name": "TEXCOORD_0",
      "bufferView": 0,
      "byteOffset": 13816,
      "componentType": 5126,
      "count": 41,
      "max": [
        0.322265625,
        0.998046875
      ],
      "min": [
        0.001953125,
        0.677734375
      ],
      "type": "VEC2"
    },
    {
      "bufferView": 1,
      "byteOffset": 2610,
      "componentType": 5123,
      "count": 132,
      "type": "SCALAR"
    }
  ],
  "bufferViews": [
    {
      "buffer": 0,
      "byteLength": 15104,
      "byteStride": 32,
      "target": 34962
    },
    {
      "buffer": 0,
      "byteLength": 2874,
      "byteOffset": 15104,
      "target": 34963
    }
  ],
  "buffers": [
    {
      "byteLength": 17980,
      "uri": "3060435073507076011074_LOD00.bin"
    }
  ],
  "images": [
    {
      "uri": "3060435073507076011074_LOD00_0.png"
    },
    {
      "uri": "3060435073507076011074_LOD00_1.png"
    }
  ],
  "materials": [
    {
      "doubleSided": true,
      "pbrMetallicRoughness": {
        "baseColorTexture": {
          "index": 0
        },
        "metallicFactor": 0
      }
    },
    {
      "doubleSided": true,
      "pbrMetallicRoughness": {
        "baseColorTexture": {
          "index": 1
        },
        "metallicFactor": 0
      }
    }
  ],
  "meshes": [
    {
      "name": "3060435073507076011074_0",
      "primitives": [
        {
          "attributes": {
            "POSITION": 0,
            "NORMAL": 1,
            "TEXCOORD_0": 2
          },
          "indices": 3,
          "material": 0
        }
      ]
    },
    {
      "name": "3060435073507076011074_1",
      "primitives": [
        {
          "attributes": {
            "POSITION": 4,
            "NORMAL": 5,
            "TEXCOORD_0": 6
          },
          "indices": 7,
          "material": 1
        }
      ]
    }
  ],
  "nodes": [
    {
      "mesh": 0
    },
    {
      "mesh": 1
    }
  ],
  "scene": 0,
  "scenes": [
    {
      "nodes": [
        0,
        1
      ]
    }
  ],
  "textures": [
    {
      "source": 0
    },
    {
      "source": 1
    }
  ]
}