{
  "asset": {
    "copyright": "",
    "generator": "SharpGLTF 1.0.0",
    "version": "2.0"
  },
  "accessors": [
    {
      "name": "POSITION",
      "bufferView": 0,
      "componentType": 5126,
      "count": 436,
      "max": [
        -120.43015289306641,
        11.619204521179199,
        172.62298583984375
      ],
      "min": [
        -130.29917907714844,
        10.475330352783203,
        163.01002502441406
      ],
      "type": "VEC3"
    },
    {
      "name": "NORMAL",
      "bufferView": 0,
      "byteOffset": 12,
      "componentType": 5126,
      "count": 436,
      "max": [
        0.83824598789215088,
        0.9999845027923584,
        0.7237817645072937
      ],
      "min": [
        -0.77064728736877441,
        0.34836843609809875,
        -0.9181932806968689
      ],
      "type": "VEC3"
    },
    {
      "name": "TEXCOORD_0",
      "bufferView": 0,
      "byteOffset": 24,
      "componentType": 5126,
      "count": 436,
      "max": [
        0.998046875,
        0.998046875
      ],
      "min": [
        0.001953125,
        0.591796875
      ],
      "type": "VEC2"
    },
    {
      "bufferView": 1,
      "componentType": 5123,
      "count": 1164,
      "type": "SCALAR"
    }
  ],
  "bufferViews": [
    {
      "buffer": 0,
      "byteLength": 13952,
      "byteStride": 32,
      "target": 34962
    },
    {
      "buffer": 0,
      "byteLength": 2328,
      "byteOffset": 13952,
      "target": 34963
    }
  ],
  "buffers": [
    {
      "byteLength": 16280,
      "uri": "3060435073507076012320_LOD00.bin"
    }
  ],
  "images": [
    {
      "uri": "3060435073507076012320_LOD00.png"
    }
  ],
  "materials": [
    {
      "doubleSided": true,
      "pbrMetallicRoughness": {
        "baseColorTexture": {
          "index": 0
        },
        "metallicFactor": 0
      }
    }
  ],
  "meshes": [
    {
      "name": "3060435073507076012320_0",
      "primitives": [
        {
          "attributes": {
            "POSITION": 0,
            "NORMAL": 1,
            "TEXCOORD_0": 2
          },
          "indices": 3,
          "material": 0
        }
      ]
    }
  ],
  "nodes": [
    {
      "mesh": 0
    }
  ],
  "scene": 0,
  "scenes": [
    {
      "nodes": [
        0
      ]
    }
  ],
  "textures": [
    {
      "source": 0
    }
  ]
}