{
  "asset": {
    "copyright": "",
    "generator": "SharpGLTF 1.0.0",
    "version": "2.0"
  },
  "accessors": [
    {
      "name": "POSITION",
      "bufferView": 0,
      "componentType": 5126,
      "count": 268,
      "max": [
        -248.18798828125,
        22.943521499633789,
        372.30941772460938
      ],
      "min": [
        -254.67192077636719,
        19.607839584350586,
        362.9339599609375
      ],
      "type": "VEC3"
    },
    {
      "name": "NORMAL",
      "bufferView": 0,
      "byteOffset": 12,
      "componentType": 5126,
      "count": 268,
      "max": [
        0.99490302801132202,
        0.97983890771865845,
        0.79017049074172974
      ],
      "min": [
        -0.99599748849868774,
        -0.20347948372364044,
        -0.97498255968093872
      ],
      "type": "VEC3"
    },
    {
      "name": "TEXCOORD_0",
      "bufferView": 0,
      "byteOffset": 24,
      "componentType": 5126,
      "count": 268,
      "max": [
        0.962890625,
        0.998046875
      ],
      "min": [
        0.001953125,
        0.595703125
      ],
      "type": "VEC2"
    },
    {
      "bufferView": 1,
      "componentType": 5123,
      "count": 711,
      "type": "SCALAR"
    }
  ],
  "bufferViews": [
    {
      "buffer": 0,
      "byteLength": 8576,
      "byteStride": 32,
      "target": 34962
    },
    {
      "buffer": 0,
      "byteLength": 1422,
      "byteOffset": 8576,
      "target": 34963
    }
  ],
  "buffers": [
    {
      "byteLength": 10000,
      "uri": "3060435073507076211137_LOD00.bin"
    }
  ],
  "images": [
    {
      "uri": "3060435073507076211137_LOD00.png"
    }
  ],
  "materials": [
    {
      "doubleSided": true,
      "pbrMetallicRoughness": {
        "baseColorTexture": {
          "index": 0
        },
        "metallicFactor": 0
      }
    }
  ],
  "meshes": [
    {
      "name": "3060435073507076211137_0",
      "primitives": [
        {
          "attributes": {
            "POSITION": 0,
            "NORMAL": 1,
            "TEXCOORD_0": 2
          },
          "indices": 3,
          "material": 0
        }
      ]
    }
  ],
  "nodes": [
    {
      "mesh": 0
    }
  ],
  "scene": 0,
  "scenes": [
    {
      "nodes": [
        0
      ]
    }
  ],
  "textures": [
    {
      "source": 0
    }
  ]
}